<?xml version="1.0" encoding="utf-8"?>
<!-- Generator: Adobe Illustrator 16.0.4, SVG Export Plug-In . SVG Version: 6.00 Build 0)  -->
<!DOCTYPE svg PUBLIC "-//W3C//DTD SVG 1.1//EN" "http://www.w3.org/Graphics/SVG/1.1/DTD/svg11.dtd">
<svg version="1.1" id="Layer_1" xmlns="http://www.w3.org/2000/svg" xmlns:xlink="http://www.w3.org/1999/xlink" x="0px" y="0px"
	 width="700.191px" height="357.085px" viewBox="0 0 700.191 357.085" enable-background="new 0 0 700.191 357.085"
	 xml:space="preserve">
<radialGradient id="SVGID_1_" cx="0.1387" cy="-445.5054" r="884.6718" gradientTransform="matrix(1 0 0 1 0.7632 0)" gradientUnits="userSpaceOnUse">
	<stop  offset="0" style="stop-color:#23264F"/>
	<stop  offset="1" style="stop-color:#16182F"/>
</radialGradient>
<rect x="-1.195" y="-445.375" fill="url(#SVGID_1_)" width="705.295" height="739.433"/>
<radialGradient id="SVGID_2_" cx="417.9385" cy="319.5371" r="298.7433" gradientTransform="matrix(0.9995 0 0 1.9068 1.0357 -393.2975)" gradientUnits="userSpaceOnUse">
	<stop  offset="0" style="stop-color:#33374F"/>
	<stop  offset="1" style="stop-color:#080C16;stop-opacity:0.3"/>
</radialGradient>
<rect x="-1.195" y="-445.375" fill="url(#SVGID_2_)" width="704.92" height="739.433"/>
<radialGradient id="SVGID_3_" cx="283.6978" cy="353.3633" r="196.9465" gradientTransform="matrix(-5.810117e-08 -4.4545 2.8485 -4.172744e-07 -760.0391 1430.8022)" gradientUnits="userSpaceOnUse">
	<stop  offset="0.0947" style="stop-color:#C6A183;stop-opacity:0.7"/>
	<stop  offset="1" style="stop-color:#91705F;stop-opacity:0"/>
</radialGradient>
<rect x="-1.485" y="-619.081" fill="url(#SVGID_3_)" width="705.56" height="914.101"/>
<text transform="matrix(1 0 0 1 634.2803 -399.3062)" fill="#FFFFFF" font-family="'HelveticaNeue'" font-size="23.6964"> </text>
<text transform="matrix(1 0 0 1 65.9751 -114.0288)" fill="#010202" font-family="'HelveticaNeue'" font-size="21.3267"> </text>
<path fill-rule="evenodd" clip-rule="evenodd" fill="#3B2519" d="M481.764,242.788c1.141,0,2.11,0,3.178,0
	c0-9.152,0-18.205,0-27.334c2.999,0,5.898,0,8.939,0c0,4.969,0,9.971,0,15.041c1.066,0,1.999,0,3.07,0c0-0.91,0-1.834,0-2.857
	c1.102,0,2.071,0,3.175,0c0-6.152,0-12.209,0-18.361c1.032,0,1.933,0,2.928,0c0-0.996,0-1.895,0-2.93c3.06,0,6.021,0,9.083,0
	c0-1.1,0-2.07,0-3.119c11.182,0,22.262,0,33.445,0c0,3.031,0,6.039,0,9.145c0.995,0,1.893,0,2.928,0c0,13.186,0,26.27,0,39.455
	c2.085,0,4.04,0,6.127,0c0,1.018,0,1.943,0,2.965c1.032,0,1.933,0,2.967,0c0,1.092,0,2.084,0,3.178c2.088,0,4.041,0,6.091,0
	c0,0.994,0,1.893,0,2.926c2.073,0,4.055,0,6.13,0c0,1.033,0,1.934,0,2.967c1.021,0,1.946,0,2.965,0c0,1.102,0,2.072,0,3.139
	c2.05,0,4.003,0,6.093,0c0,1.02,0,1.943,0,2.967c4.126,0,8.118,0,12.246,0c0,1.088,0,2.084,0,3.174c2.019,0,3.899,0,5.917,0
	c0,1.021,0,1.947,0,2.967c2.09,0,4.041,0,6.094,0c0,0.994,0,1.895,0,2.928c2.073,0,4.052,0,6.13,0c0,1.102,0,2.072,0,3.178
	c1.019,0,1.943,0,2.923,0c0,0.998,0,1.861,0,2.822c-5.979,0-11.941,0-18.039,0c0,1.09,0,2.084,0,3.176c-4.126,0-8.117,0-12.243,0
	c0,1.021,0,1.943,0,2.965c-1.035,0-1.933,0-2.93,0c0,0.994,0,1.893,0,2.881c-2.041,0-3.982,0-6.024,0c0-0.893,0-1.791,0-2.828
	c-6.083,0-12.067,0-18.151,0c0-1.029,0-1.93,0-2.906c-6.19,0-12.278,0-18.467,0c0,0.932,0,1.832,0,2.801
	c-13.125,0-26.151,0-39.313,0c0-0.898,0-1.824,0-2.814c-17.31,0-34.482,0-51.792,0c0,0.92,0,1.846,0,2.867c-2.016,0-3.899,0-5.883,0
	c0,0.992,0,1.893,0,2.879c-4.08,0-8.061,0-12.141,0c0-0.891,0-1.789,0-2.824c-1.018,0-1.943,0-2.925,0c0-2.053,0-3.969,0-5.986
	c3.93,0,7.85,0,11.908,0c0-1.02,0-1.943,0-2.967c2.088,0,4.041,0,6.129,0c0-1.09,0-2.082,0-3.174c1.034,0,1.932,0,2.967,0
	c0-1.021,0-1.945,0-2.967c1.102,0,2.073,0,3.138,0c0-0.994,0-1.895,0-2.928c2.073,0,4.054,0,6.13,0c0-1.102,0-2.072,0-3.176
	c1.021,0,1.944,0,2.965,0c0-1.031,0-1.932,0-2.93c2.05,0,4.003,0,6.093,0c0-1.09,0-2.084,0-3.176c2.087,0,4.04,0,6.13,0
	c0-1.02,0-1.945,0-2.965c1.032,0,1.93,0,2.964,0c0-1.021,0-1.943,0-2.965c2.088,0,4.041,0,6.094,0c0-2.051,0-4.004,0-6.094
	c1.018,0,1.943,0,2.964,0C481.764,248.835,481.764,245.899,481.764,242.788z"/>
<polygon fill="#3B2519" points="280.956,252.313 284.214,252.313 284.214,249.351 287.472,249.351 287.472,246.796 290.137,246.796 
	290.137,244.021 292.803,244.021 292.803,241.649 295.173,241.649 300.208,241.649 300.208,243.427 302.874,243.427 
	302.874,245.501 305.244,245.501 305.244,246.981 307.613,246.981 307.613,245.796 310.279,245.796 310.279,243.724 
	312.945,243.724 312.945,246.981 315.611,246.981 315.611,245.501 317.685,245.501 317.685,246.981 321.535,246.981 
	321.535,249.647 323.905,249.647 323.905,248.167 326.867,248.167 326.867,250.239 331.014,250.239 331.014,248.462 
	331.014,245.501 334.864,245.501 334.864,243.724 339.011,243.724 339.011,246.981 342.565,246.981 342.565,249.056 
	344.639,249.056 344.639,251.128 346.712,251.128 349.675,251.128 349.675,253.499 352.044,253.499 352.044,255.571 
	355.302,255.571 355.302,257.646 358.265,257.646 358.265,260.606 360.931,260.606 360.931,263.272 363.893,263.272 
	363.893,264.753 365.669,264.753 365.669,267.649 365.669,270.679 280.956,270.679 "/>
<rect x="103.607" y="304.431" fill-rule="evenodd" clip-rule="evenodd" fill="#CF5A19" width="3.664" height="3.664"/>
<linearGradient id="SVGID_4_" gradientUnits="userSpaceOnUse" x1="342.2344" y1="523.8604" x2="359.7814" y2="272.9257">
	<stop  offset="0.4671" style="stop-color:#63411B"/>
	<stop  offset="0.9023" style="stop-color:#010202"/>
</linearGradient>
<rect x="-1.77" y="296.981" fill-rule="evenodd" clip-rule="evenodd" fill="url(#SVGID_4_)" width="705.555" height="202.824"/>
<polygon fill="#4C3221" points="280.956,253.731 279.211,253.731 274.67,253.731 274.67,255.13 270.523,255.13 270.523,262.421 
	283.162,262.421 283.162,258.075 283.162,253.731 "/>
<polyline fill="none" stroke="#C1A292" stroke-width="1.1848" stroke-miterlimit="10" points="442.32,280.427 442.32,279.104 
	445.287,279.104 445.287,276.138 448.425,276.138 448.425,273.21 454.555,273.21 454.555,270.034 457.52,270.034 457.52,267.104 
	463.612,267.104 463.612,263.929 469.742,263.929 469.742,260.964 472.706,260.964 472.706,257.999 478.8,257.999 478.8,251.905 
	481.764,251.905 481.764,242.788 484.941,242.788 484.941,215.454 "/>
<polygon opacity="0.95" fill="#3B2519" points="623.206,251.546 625.375,251.546 625.375,249.952 627.548,249.952 627.548,248.644 
	629.324,248.644 629.324,247.386 631.102,247.386 631.102,245.642 633.076,245.642 633.076,247.386 634.281,247.386 
	639.593,247.386 639.593,245.642 641.173,245.642 641.173,243.667 642.555,243.667 642.555,242.286 643.936,242.286 
	643.936,240.733 645.713,240.733 645.713,239.325 647.097,239.325 647.097,237.349 649.071,237.349 649.071,239.521 
	650.849,239.521 650.849,235.571 652.625,235.571 654.799,235.571 654.799,234.188 655.983,234.188 655.983,232.608 657.98,232.608 
	662.893,232.608 670.532,232.608 670.532,234.386 672.175,234.386 672.175,235.966 673.756,235.966 675.334,235.966 
	675.334,237.349 678.888,237.349 678.888,260.058 615.304,260.058 615.304,254.528 617.081,254.528 617.081,253.542 
	618.462,253.542 618.462,252.554 620.636,252.554 620.636,251.546 "/>
<polyline fill-rule="evenodd" clip-rule="evenodd" fill="none" stroke="#C1A292" stroke-width="1.1848" stroke-miterlimit="10" points="
	496.951,230.495 496.951,227.638 500.126,227.638 500.126,223.13 500.126,215.454 500.126,209.276 503.054,209.276 503.054,206.347 
	512.137,206.347 512.137,203.228 "/>
<linearGradient id="SVGID_5_" gradientUnits="userSpaceOnUse" x1="351.2949" y1="281.8389" x2="351.2949" y2="117.0342">
	<stop  offset="0" style="stop-color:#D38B57;stop-opacity:0.6"/>
	<stop  offset="0.6925" style="stop-color:#BD9E87;stop-opacity:0"/>
</linearGradient>
<rect x="-1.195" y="117.034" fill="url(#SVGID_5_)" width="704.98" height="164.805"/>
<g>
	<polygon fill="#010202" points="525.368,248.595 523.693,248.595 523.693,246.931 523.693,245.267 523.693,243.604 
		523.693,243.603 523.693,241.942 523.693,240.278 525.368,240.278 525.368,241.942 525.368,243.603 525.368,243.604 
		527.046,243.604 527.046,245.267 527.046,246.931 527.046,248.595 	"/>
	<polygon fill="#010202" points="533.75,275.204 530.399,275.204 530.399,268.554 530.399,266.888 530.399,260.237 528.722,260.237 
		528.722,258.573 528.722,258.573 527.046,258.573 527.046,258.573 527.046,256.911 527.046,256.911 527.046,255.247 
		525.368,255.247 525.368,255.245 525.368,253.583 525.368,253.583 525.368,251.923 525.368,250.257 525.368,250.257 
		525.368,248.595 527.046,248.595 528.722,248.595 528.722,250.257 528.722,250.257 528.722,251.923 528.722,253.583 
		528.722,253.583 528.722,255.245 530.399,255.245 530.399,253.583 530.399,251.923 530.399,251.923 530.399,250.259 
		530.399,250.259 530.399,248.595 530.399,248.595 530.399,246.931 530.399,246.931 530.399,245.267 530.399,245.267 
		530.399,243.604 530.399,241.942 530.399,240.278 530.399,238.614 530.399,236.95 532.074,236.95 532.074,235.288 532.074,233.624 
		533.75,233.624 533.75,235.288 535.428,235.288 535.428,236.95 533.75,236.95 533.75,238.614 533.75,240.278 533.75,241.942 
		533.75,243.604 533.75,245.267 533.75,245.267 533.75,246.931 533.75,246.931 533.75,248.595 533.75,248.595 533.75,250.259 
		533.75,250.259 533.75,251.923 533.75,251.923 533.75,253.583 533.75,255.245 535.428,255.245 535.428,255.245 537.104,255.245 
		537.104,255.245 537.104,255.245 537.104,253.583 538.778,253.583 537.104,253.583 537.104,251.923 538.778,251.923 
		538.778,250.259 540.456,250.259 540.456,250.257 540.456,248.595 540.456,248.595 540.456,246.931 542.132,246.931 
		542.132,246.931 542.132,246.931 542.132,245.267 542.132,243.604 543.81,243.604 543.81,243.604 545.485,243.604 545.485,245.267 
		545.485,246.931 543.81,246.931 543.81,246.931 543.81,246.931 543.81,248.595 543.81,248.595 543.81,250.257 542.132,250.257 
		542.132,250.257 542.132,251.919 542.132,251.923 542.132,253.583 540.456,253.583 540.456,253.583 540.456,255.245 
		538.778,255.245 538.778,255.245 538.778,255.245 538.778,256.909 537.104,256.909 537.104,256.909 537.104,256.909 
		537.104,258.571 535.428,258.571 535.428,258.573 535.428,258.573 535.428,260.235 533.75,260.235 533.75,260.237 533.75,261.897 
		533.75,263.562 533.75,263.562 533.75,265.226 533.75,266.888 533.75,268.554 533.75,270.216 533.75,270.216 533.75,271.876 
		533.752,271.876 533.752,273.542 533.752,275.204 	"/>
</g>
<polygon fill="#010202" points="68.526,186.634 69.975,186.634 69.975,185.198 69.975,183.763 69.975,182.326 69.975,182.326 
	69.975,180.888 69.975,179.452 68.526,179.452 68.526,180.888 68.526,182.326 68.526,182.326 67.079,182.326 67.079,183.763 
	67.079,185.198 67.079,186.634 "/>
<polygon fill="#010202" points="61.288,209.616 64.183,209.616 64.183,203.872 64.183,202.435 64.183,196.688 65.631,196.688 
	65.631,195.253 65.631,195.253 67.079,195.253 67.079,195.253 67.079,193.818 67.079,193.818 67.079,192.38 68.526,192.38 
	68.526,192.38 68.526,190.944 68.526,190.944 68.526,189.508 68.526,188.072 68.526,188.072 68.526,186.634 67.079,186.634 
	65.631,186.634 65.631,188.072 65.631,188.072 65.631,189.508 65.631,190.944 65.631,190.944 65.631,192.38 64.183,192.38 
	64.183,190.944 64.183,189.508 64.183,189.508 64.183,188.072 64.183,188.072 64.183,186.634 64.183,186.634 64.183,185.2 
	64.183,185.198 64.183,183.763 64.183,183.763 64.183,182.326 64.183,180.888 64.183,179.452 64.183,178.017 64.183,176.58 
	62.735,176.58 62.735,175.144 62.735,173.708 61.288,173.708 61.288,175.144 59.84,175.144 59.84,176.58 61.288,176.58 
	61.288,178.017 61.288,179.452 61.288,180.888 61.288,182.326 61.288,183.763 61.288,183.763 61.288,185.198 61.288,185.2 
	61.288,186.634 61.288,186.634 61.288,188.072 61.288,188.072 61.288,189.508 61.288,189.508 61.288,190.944 61.288,192.38 
	59.84,192.38 59.84,192.38 58.393,192.38 58.393,192.378 58.393,192.378 58.393,190.944 56.945,190.944 58.393,190.944 
	58.393,189.508 56.944,189.508 56.944,188.072 55.497,188.072 55.497,188.072 55.497,186.634 55.497,186.634 55.497,185.2 
	54.049,185.2 54.049,185.198 54.049,185.198 54.049,183.763 54.049,182.326 52.602,182.326 52.602,182.326 51.154,182.326 
	51.154,183.76 51.154,185.198 52.602,185.198 52.602,185.2 52.602,185.2 52.602,186.634 52.602,186.634 52.602,188.072 
	54.049,188.072 54.049,188.072 54.049,189.506 54.049,189.508 54.049,190.944 55.497,190.944 55.497,190.944 55.497,192.38 
	56.944,192.38 56.944,192.38 56.945,192.38 56.945,193.815 58.393,193.815 58.393,193.815 58.393,193.815 58.393,195.253 
	59.84,195.253 59.84,195.253 59.84,195.253 59.84,196.688 61.288,196.688 61.288,196.688 61.288,198.126 61.288,199.562 
	61.288,199.562 61.288,200.999 61.288,202.435 61.288,203.872 61.288,205.308 61.288,205.308 61.288,206.743 61.288,206.743 
	61.288,208.181 61.288,209.616 "/>
<polygon fill="#010202" points="662.688,249.952 665.825,249.952 665.825,243.728 665.825,242.171 665.825,235.942 667.394,235.942 
	667.394,234.388 667.394,234.388 668.963,234.388 668.963,234.388 668.963,232.831 668.963,232.831 668.963,231.276 
	670.532,231.276 670.532,231.274 670.532,229.718 670.532,229.718 670.532,228.161 670.532,226.606 670.532,226.606 
	670.532,225.048 668.963,225.048 667.394,225.048 667.394,226.606 667.394,226.606 667.394,228.161 667.394,229.718 
	667.394,229.718 667.394,231.274 665.825,231.274 665.825,229.718 665.825,228.161 665.825,228.161 665.825,226.606 
	665.825,226.606 665.825,225.048 665.825,225.048 665.825,223.491 665.825,223.491 665.825,221.937 665.825,221.935 
	665.825,220.378 665.825,218.821 665.825,217.267 665.825,215.708 665.825,214.151 664.256,214.151 664.256,212.595 
	664.256,211.038 662.688,211.038 662.688,212.595 661.118,212.595 661.118,214.151 662.688,214.151 662.688,215.708 
	662.688,217.267 662.688,218.821 662.688,220.378 662.688,221.935 662.688,221.937 662.688,223.491 662.688,223.491 
	662.688,225.048 662.688,225.048 662.688,226.606 662.688,226.606 662.688,228.161 662.688,228.161 662.688,229.718 
	662.688,231.274 661.118,231.274 661.118,231.274 659.549,231.274 659.549,231.274 659.549,231.274 659.549,229.718 657.98,229.718 
	659.549,229.718 659.549,228.161 657.98,228.161 657.98,226.606 656.411,226.606 656.411,226.606 656.411,225.048 656.411,225.048 
	656.411,223.491 654.842,223.491 654.842,223.491 654.842,223.491 654.842,221.937 654.842,220.378 653.273,220.378 
	653.273,220.378 651.704,220.378 651.704,221.935 651.704,223.491 653.273,223.491 653.273,223.491 653.273,223.491 
	653.273,225.048 653.273,225.048 653.273,226.604 654.842,226.604 654.842,226.606 654.842,228.161 654.842,228.161 
	654.842,229.718 656.411,229.718 656.411,229.718 656.411,231.274 657.98,231.274 657.98,231.274 657.98,231.274 657.98,232.831 
	659.549,232.831 659.549,232.831 659.549,232.831 659.549,234.386 661.118,234.386 661.118,234.388 661.118,234.388 
	661.118,235.942 662.688,235.942 662.688,235.942 662.688,237.501 662.688,239.058 662.688,239.058 662.688,240.612 
	662.688,242.171 662.688,243.728 662.688,245.282 662.688,245.282 662.688,246.841 662.688,246.841 662.688,248.397 
	662.688,249.952 "/>
<g>
	<polygon fill="#010202" points="442.63,257.306 440.762,257.306 440.762,255.452 440.762,253.603 440.762,251.749 440.762,251.749 
		440.762,249.897 440.762,248.046 442.63,248.046 442.63,249.897 442.63,251.749 442.63,251.749 444.495,251.749 444.495,253.603 
		444.495,255.452 444.495,257.306 	"/>
	<polygon fill="#010202" points="451.961,286.931 448.228,286.931 448.228,279.524 448.228,277.671 448.228,270.267 
		446.363,270.267 446.363,268.415 446.36,268.415 444.495,268.415 444.495,268.415 444.495,266.562 444.495,266.562 
		444.495,264.712 442.63,264.712 442.63,264.71 442.63,262.858 442.63,262.858 442.63,261.007 442.63,259.155 442.63,259.155 
		442.63,257.306 444.495,257.306 446.363,257.306 446.363,259.155 446.363,259.155 446.363,261.007 446.363,262.858 
		446.363,262.858 446.363,264.71 448.228,264.71 448.228,262.858 448.228,261.007 448.228,261.007 448.228,259.155 448.228,259.155 
		448.228,257.306 448.228,257.306 448.228,255.454 448.228,255.454 448.228,253.603 448.228,253.603 448.228,251.749 
		448.228,249.897 448.228,248.046 448.228,246.194 448.228,244.341 450.093,244.341 450.093,242.493 450.093,240.638 
		451.961,240.638 451.961,242.493 451.961,244.341 451.961,246.194 451.961,248.046 451.961,249.897 451.961,251.749 
		451.961,253.603 451.961,253.603 451.961,255.454 451.961,255.454 451.961,257.306 451.961,257.306 451.961,259.155 
		451.961,259.155 451.961,261.007 451.961,261.007 451.961,262.858 451.961,264.71 453.826,264.71 453.826,264.71 455.691,264.71 
		455.691,264.71 455.693,264.71 455.693,262.858 457.559,262.858 455.693,262.858 455.693,261.007 457.559,261.007 457.559,259.155 
		459.426,259.155 459.426,259.155 459.426,257.306 459.426,257.306 459.426,255.454 461.291,255.454 461.291,255.452 
		461.291,255.452 461.291,253.603 461.291,251.751 463.158,251.751 463.158,251.749 465.023,251.749 465.023,253.601 
		465.023,255.452 463.158,255.452 463.158,255.454 463.158,255.454 463.158,257.306 463.158,257.306 463.158,259.153 
		461.291,259.153 461.291,259.155 461.291,261.007 461.291,261.007 461.291,262.858 459.426,262.858 459.426,262.858 
		459.426,264.71 457.559,264.71 457.559,264.71 457.559,264.71 457.559,266.562 455.691,266.562 455.691,266.562 455.691,266.562 
		455.691,268.413 453.826,268.413 453.826,268.413 453.826,268.415 453.826,270.265 451.961,270.265 451.961,270.267 
		451.961,272.118 451.961,273.968 451.961,273.968 451.961,275.819 451.961,277.671 451.961,279.524 451.961,281.376 
		451.961,281.376 451.961,283.228 451.961,283.228 451.961,285.079 451.961,286.931 	"/>
</g>
<linearGradient id="SVGID_6_" gradientUnits="userSpaceOnUse" x1="-188.8486" y1="-585.5972" x2="479.3563" y2="50.6191">
	<stop  offset="0" style="stop-color:#1D1D3E;stop-opacity:0"/>
	<stop  offset="0.2893" style="stop-color:#293E3F;stop-opacity:0.6"/>
	<stop  offset="0.6732" style="stop-color:#293E3F;stop-opacity:0.4"/>
	<stop  offset="1" style="stop-color:#1D1D3E;stop-opacity:0"/>
</linearGradient>
<rect x="-0.301" y="-445.375" fill="url(#SVGID_6_)" width="705.294" height="750.128"/>
<polyline fill-rule="evenodd" clip-rule="evenodd" fill="none" stroke="#C1A292" stroke-width="1.1848" stroke-miterlimit="10" points="
	328.621,250.239 331.014,250.239 331.014,245.501 333.171,245.501 "/>
<polyline fill="none" stroke="#C1A292" stroke-width="1.1848" stroke-miterlimit="10" points="615.304,256.61 615.304,254.528 
	617.081,254.528 617.081,253.542 618.462,253.542 618.462,252.554 620.636,252.554 620.636,251.546 625.375,251.546 "/>
<polyline fill="none" stroke="#C1A292" stroke-width="1.1848" stroke-miterlimit="10" points="639.593,247.386 639.593,245.243 
	641.173,245.243 641.173,243.667 642.555,243.667 642.555,242.286 643.936,242.286 643.936,240.733 645.713,240.733 
	645.713,239.325 647.097,239.325 647.097,237.349 "/>
<polygon fill="#010202" points="24.583,194.819 21.445,194.819 21.445,188.594 21.445,187.038 21.445,180.81 19.875,180.81 
	19.875,179.254 19.875,179.254 18.308,179.254 18.307,179.254 18.307,177.698 18.308,177.698 18.308,176.142 16.739,176.142 
	16.739,176.14 16.739,174.584 16.739,174.584 16.739,173.028 16.739,171.472 16.739,171.472 16.739,169.915 18.308,169.915 
	19.875,169.915 19.875,171.472 19.875,171.472 19.875,173.028 19.875,174.584 19.875,174.584 19.875,176.14 21.445,176.14 
	21.445,174.584 21.445,173.028 21.445,173.028 21.445,171.472 21.445,171.472 21.445,169.915 21.445,169.915 21.445,168.358 
	21.445,168.358 21.445,166.802 21.445,166.801 21.445,165.245 21.445,163.689 21.445,162.132 21.445,160.575 21.445,159.017 
	23.015,159.017 23.015,157.461 23.015,155.905 24.583,155.905 24.583,157.461 26.151,157.461 26.151,159.017 24.583,159.017 
	24.583,160.575 24.583,162.132 24.583,163.689 24.583,165.245 24.583,166.801 24.583,166.802 24.583,168.358 24.583,168.358 
	24.583,169.915 24.583,169.915 24.583,171.472 24.583,171.472 24.583,173.028 24.583,173.028 24.583,174.584 24.583,176.14 
	26.151,176.14 26.151,176.14 27.72,176.14 27.72,176.14 27.72,176.14 27.72,174.584 29.289,174.584 27.72,174.584 27.72,173.028 
	29.289,173.028 29.289,171.472 30.858,171.472 30.858,171.472 30.858,169.915 30.858,169.915 30.858,168.358 32.427,168.358 
	32.427,168.357 32.427,168.357 32.427,166.802 32.427,165.246 33.996,165.246 33.996,165.245 35.565,165.245 35.565,166.801 
	35.565,168.357 33.996,168.357 33.996,168.358 33.996,168.358 33.996,169.915 33.996,169.915 33.996,171.471 32.427,171.471 
	32.427,171.472 32.427,173.027 32.427,173.028 32.427,174.584 30.858,174.584 30.858,174.584 30.858,176.14 29.289,176.14 
	29.289,176.14 29.289,176.14 29.289,177.698 27.72,177.698 27.72,177.698 27.72,177.698 27.72,179.252 26.151,179.252 
	26.151,179.254 26.151,179.254 26.151,180.81 24.583,180.81 24.583,180.81 24.583,182.368 24.583,183.924 24.583,183.924 
	24.583,185.48 24.583,187.038 24.583,188.594 24.583,190.15 24.583,190.15 24.583,191.707 24.583,191.707 24.583,193.264 
	24.583,194.819 "/>
<polyline fill="none" stroke="#C1A292" stroke-width="1.1848" stroke-miterlimit="10" points="300.208,241.649 292.803,241.649 
	292.803,244.021 289.522,244.021 289.522,247.063 287.472,247.063 287.472,249.351 284.214,249.351 284.214,252.313 
	280.956,252.313 280.956,253.731 274.67,253.731 274.67,255.13 "/>
<polygon fill-rule="evenodd" clip-rule="evenodd" fill="#010202" points="1.185,180.604 5.321,180.604 5.321,184.75 9.458,184.75 
	9.458,188.898 13.594,188.898 19.503,188.898 31.321,188.898 31.321,193.044 34.867,193.044 34.867,197.192 39.002,197.192 
	44.321,197.192 50.821,197.192 50.821,201.339 56.73,201.339 56.73,205.485 65.002,205.485 80.957,205.485 80.957,210.817 
	94.548,210.817 94.548,214.964 125.866,214.964 125.866,219.11 144.774,219.11 144.774,223.554 169.298,223.554 169.298,227.7 
	169.298,232.44 190.275,232.44 190.275,236.29 202.094,236.29 202.094,240.142 222.479,240.142 242.57,240.142 242.57,244.288 
	250.548,244.288 250.548,248.435 264.139,248.435 264.139,252.581 275.958,252.581 275.958,256.729 312.297,256.729 
	339.184,256.729 339.184,259.987 345.387,259.987 345.387,264.134 351.436,264.134 351.436,268.28 361.638,268.28 361.638,272.427 
	379.957,272.427 379.957,276.278 395.023,276.278 395.023,279.655 416.298,279.655 472.434,279.655 503.16,279.655 503.16,276.575 
	518.708,276.575 518.708,272.427 544.229,272.427 544.229,268.28 575.545,268.28 575.545,264.134 591.498,264.134 591.498,259.987 
	610.999,259.987 610.999,255.841 634.457,255.841 634.457,251.692 655.911,251.692 655.911,247.546 677.479,247.546 
	677.479,243.399 677.479,228.886 694.911,228.886 694.911,224.739 704.101,224.739 704.101,299.321 -1.77,299.321 -1.77,180.604 "/>
<linearGradient id="SVGID_7_" gradientUnits="userSpaceOnUse" x1="5.605" y1="258.4678" x2="420.1769" y2="427.6515">
	<stop  offset="0" style="stop-color:#010202;stop-opacity:0.6"/>
	<stop  offset="1" style="stop-color:#010202;stop-opacity:0"/>
</linearGradient>
<polygon fill="url(#SVGID_7_)" points="703.457,500.651 -1.44,500.651 -1.44,246.343 153.665,246.343 276.425,275.819 
	388.934,294.901 560.239,300.937 702.543,297.825 "/>
<g>
	
		<radialGradient id="SVGID_8_" cx="548.665" cy="-29.4351" r="110.6373" gradientTransform="matrix(1.2247 0 0 1.3472 -113.6397 -5.8164)" gradientUnits="userSpaceOnUse">
		<stop  offset="0" style="stop-color:#FFFFFF;stop-opacity:0.5"/>
		<stop  offset="1" style="stop-color:#33374F;stop-opacity:0"/>
	</radialGradient>
	<rect x="395.825" y="-193.666" fill="url(#SVGID_8_)" width="324.97" height="296.39"/>
	<g>
		<circle fill="#FBFCFC" cx="558.311" cy="-45.474" r="26.129"/>
		<g>
			<circle fill="#E0E0DF" cx="541.869" cy="-54.827" r="4.113"/>
			<path fill="#BDBCBC" d="M538.107-54.475c0-2.272,1.843-4.113,4.115-4.113c1.046,0,1.999,0.391,2.726,1.034
				c-0.754-0.851-1.854-1.387-3.077-1.387c-2.273,0-4.115,1.842-4.115,4.114c0,1.224,0.537,2.326,1.387,3.078
				C538.499-52.474,538.107-53.429,538.107-54.475z"/>
			<path fill="#F5F5F5" d="M542.032-58.941c-0.029,0-0.056,0.002-0.081,0.002c2.233,0.044,4.031,1.867,4.031,4.112
				c0,2.272-1.84,4.112-4.111,4.112c-2.245,0-4.068-1.798-4.112-4.031c0,0.027-0.003,0.053-0.003,0.081
				c0,2.363,1.914,4.275,4.276,4.275c2.36,0,4.276-1.913,4.276-4.275C546.309-57.026,544.393-58.941,542.032-58.941z"/>
		</g>
		<g>
			<circle fill="#E0E0DF" cx="569.188" cy="-62.034" r="2.058"/>
			<path fill="#BDBCBC" d="M567.308-61.858c0-1.135,0.921-2.056,2.057-2.056c0.523,0,1,0.196,1.363,0.517
				c-0.377-0.424-0.926-0.693-1.539-0.693c-1.136,0-2.058,0.921-2.058,2.056c0,0.613,0.269,1.163,0.694,1.54
				C567.504-60.857,567.308-61.334,567.308-61.858z"/>
			<path fill="#F5F5F5" d="M569.27-64.09c-0.014,0-0.025,0-0.039,0c1.115,0.022,2.016,0.934,2.016,2.056
				c0,1.136-0.924,2.056-2.058,2.056c-1.122,0-2.034-0.898-2.055-2.016c0,0.014-0.003,0.028-0.003,0.041
				c0,1.181,0.959,2.138,2.139,2.138c1.183,0,2.139-0.957,2.139-2.138C571.408-63.135,570.452-64.09,569.27-64.09z"/>
		</g>
		<g>
			<path fill="#E0E0DF" d="M556.688-37.013c0,2.189-1.774,3.964-3.964,3.964c-2.187,0-3.962-1.775-3.962-3.964
				c0-2.187,1.775-3.961,3.962-3.961C554.913-40.975,556.688-39.2,556.688-37.013z"/>
			<path fill="#BDBCBC" d="M549.103-36.673c0-2.188,1.772-3.963,3.964-3.963c1.007,0,1.925,0.376,2.624,0.996
				c-0.727-0.818-1.784-1.335-2.967-1.335c-2.187,0-3.962,1.775-3.962,3.961c0,1.182,0.517,2.24,1.338,2.967
				C549.479-34.745,549.103-35.665,549.103-36.673z"/>
			<path fill="#F5F5F5" d="M552.881-40.975c-0.025,0-0.053,0.002-0.078,0.002c2.154,0.042,3.885,1.798,3.885,3.959
				c0,2.189-1.774,3.964-3.964,3.964c-2.161,0-3.918-1.733-3.959-3.886c0,0.027-0.003,0.052-0.003,0.079
				c0,2.275,1.847,4.119,4.119,4.119c2.275,0,4.119-1.844,4.119-4.119C557-39.13,555.156-40.975,552.881-40.975z"/>
		</g>
		<g>
			<circle fill="#E0E0DF" cx="566.928" cy="-32.392" r="5.133"/>
			<path fill="#BDBCBC" d="M562.237-31.955c0-2.833,2.295-5.13,5.13-5.13c1.306,0,2.497,0.488,3.404,1.29
				c-0.942-1.061-2.314-1.729-3.844-1.729c-2.832,0-5.133,2.298-5.133,5.133c0,1.527,0.671,2.9,1.733,3.841
				C562.726-29.455,562.237-30.648,562.237-31.955z"/>
			<path fill="#F5F5F5" d="M567.131-37.524c-0.032,0-0.066,0.002-0.102,0.002c2.786,0.054,5.031,2.33,5.031,5.13
				c0,2.833-2.298,5.131-5.133,5.131c-2.798,0-5.075-2.244-5.128-5.031c0,0.033-0.005,0.068-0.005,0.103
				c0,2.944,2.391,5.334,5.336,5.334c2.946,0,5.334-2.39,5.334-5.334C572.465-35.136,570.077-37.524,567.131-37.524z"/>
		</g>
		<g>
			<circle fill="#E0E0DF" cx="538.913" cy="-38.163" r="2.891"/>
			<path fill="#BDBCBC" d="M536.271-37.916c0-1.597,1.294-2.892,2.891-2.892c0.735,0,1.404,0.275,1.916,0.728
				c-0.53-0.597-1.303-0.975-2.164-0.975c-1.595,0-2.891,1.294-2.891,2.891c0,0.861,0.378,1.634,0.977,2.161
				C536.546-36.511,536.271-37.182,536.271-37.916z"/>
			<path fill="#F5F5F5" d="M539.029-41.054c-0.019,0-0.04,0-0.061,0c1.571,0.033,2.835,1.312,2.835,2.891
				c0,1.594-1.294,2.889-2.891,2.889c-1.576,0-2.857-1.264-2.888-2.833c0,0.021-0.003,0.039-0.003,0.058
				c0,1.659,1.345,3.004,3.007,3.004c1.656,0,3.003-1.345,3.003-3.004S540.686-41.054,539.029-41.054z"/>
		</g>
		<g>
			<circle fill="#E0E0DF" cx="576.564" cy="-38.596" r="1.75"/>
			<path fill="#BDBCBC" d="M574.965-38.447c0-0.966,0.784-1.75,1.752-1.75c0.443,0,0.849,0.167,1.159,0.441
				c-0.322-0.362-0.789-0.589-1.311-0.589c-0.967,0-1.751,0.782-1.751,1.75c0,0.521,0.229,0.988,0.59,1.309
				C575.131-37.596,574.965-38.002,574.965-38.447z"/>
			<path fill="#F5F5F5" d="M576.636-40.345c-0.012,0-0.023,0-0.037,0c0.951,0.019,1.715,0.793,1.715,1.75
				c0,0.965-0.782,1.748-1.748,1.748c-0.955,0-1.73-0.765-1.749-1.716c0,0.014-0.002,0.024-0.002,0.036
				c0,1.003,0.814,1.818,1.821,1.818c1.004,0,1.816-0.814,1.816-1.818C578.452-39.532,577.64-40.345,576.636-40.345z"/>
		</g>
		<g>
			<circle fill="#E0E0DF" cx="581.125" cy="-48.425" r="1.979"/>
			<path fill="#BDBCBC" d="M579.315-48.256c0-1.093,0.886-1.979,1.979-1.979c0.502,0,0.962,0.19,1.312,0.499
				c-0.36-0.408-0.893-0.667-1.48-0.667c-1.093,0-1.979,0.885-1.979,1.979c0,0.589,0.257,1.118,0.666,1.48
				C579.503-47.294,579.315-47.753,579.315-48.256z"/>
			<path fill="#F5F5F5" d="M581.201-50.404c-0.012,0-0.025,0-0.037,0.001c1.073,0.021,1.939,0.898,1.939,1.977
				c0,1.092-0.887,1.979-1.979,1.979c-1.081,0-1.956-0.866-1.979-1.94c0,0.014,0,0.026,0,0.039c0,1.136,0.921,2.057,2.055,2.057
				c1.139,0,2.057-0.921,2.057-2.057S582.34-50.404,581.201-50.404z"/>
		</g>
		<g>
			<circle fill="#E0E0DF" cx="544.504" cy="-45.977" r="2.608"/>
			<path fill="#BDBCBC" d="M542.12-45.753c0-1.44,1.167-2.608,2.606-2.608c0.664,0,1.271,0.248,1.73,0.655
				c-0.479-0.539-1.176-0.879-1.953-0.879c-1.441,0-2.607,1.168-2.607,2.609c0,0.776,0.34,1.473,0.879,1.952
				C542.368-44.485,542.12-45.092,542.12-45.753z"/>
			<path fill="#F5F5F5" d="M544.605-48.586c-0.016,0-0.032,0.002-0.051,0.002c1.416,0.028,2.558,1.184,2.558,2.607
				c0,1.44-1.167,2.608-2.608,2.608c-1.421,0-2.58-1.14-2.607-2.557c0,0.017,0,0.035,0,0.052c0,1.497,1.215,2.711,2.709,2.711
				c1.5,0,2.713-1.214,2.713-2.711C547.318-47.371,546.105-48.586,544.605-48.586z"/>
		</g>
		<g>
			<circle fill="#E0E0DF" cx="550.441" cy="-55.491" r="2.186"/>
			<path fill="#BDBCBC" d="M548.44-55.306c0-1.206,0.979-2.185,2.187-2.185c0.556,0,1.062,0.208,1.449,0.551
				c-0.4-0.452-0.986-0.738-1.637-0.738c-1.208,0-2.185,0.979-2.185,2.187c0,0.65,0.285,1.233,0.736,1.635
				C548.648-54.243,548.44-54.75,548.44-55.306z"/>
			<path fill="#F5F5F5" d="M550.525-57.678c-0.014,0-0.027,0.001-0.042,0.002c1.188,0.023,2.144,0.992,2.144,2.185
				c0,1.206-0.979,2.185-2.188,2.185c-1.193,0-2.161-0.956-2.185-2.143c0,0.015,0,0.029,0,0.044c0,1.254,1.017,2.271,2.271,2.271
				s2.272-1.017,2.272-2.271C552.798-56.66,551.779-57.678,550.525-57.678z"/>
		</g>
		<g>
			<circle fill="#E0E0DF" cx="546.502" cy="-30.776" r="1.473"/>
			<path fill="#BDBCBC" d="M545.154-30.649c0-0.814,0.659-1.474,1.474-1.474c0.375,0,0.718,0.141,0.977,0.371
				c-0.271-0.303-0.664-0.498-1.104-0.498c-0.812,0-1.472,0.662-1.472,1.474c0,0.439,0.189,0.833,0.495,1.104
				C545.293-29.933,545.154-30.275,545.154-30.649z"/>
			<path fill="#F5F5F5" d="M546.559-32.25c-0.009,0-0.019,0.001-0.029,0.001c0.803,0.016,1.446,0.67,1.446,1.473
				c0,0.814-0.66,1.474-1.475,1.474c-0.803,0-1.458-0.644-1.472-1.444c0,0.009,0,0.019,0,0.029c0,0.846,0.685,1.532,1.529,1.532
				c0.848,0,1.532-0.686,1.532-1.532C548.091-31.563,547.406-32.25,546.559-32.25z"/>
		</g>
		<path opacity="0.1" fill="#202020" d="M558.31-30.487c-11.69,0-21.722-7.09-26.033-17.206c-0.062,0.731-0.095,1.472-0.095,2.219
			c0,14.431,11.697,26.13,26.128,26.13c14.434,0,26.131-11.699,26.131-26.13c0-0.747-0.032-1.488-0.095-2.219
			C580.035-37.578,570.001-30.487,558.31-30.487z"/>
		<path opacity="0.1" fill="#202020" d="M558.31-24.54c-10.929,0-20.451-6.021-25.434-14.926
			c2.714,11.536,13.072,20.122,25.434,20.122c12.364,0,22.723-8.586,25.435-20.122C578.762-30.562,569.239-24.54,558.31-24.54z"/>
		<g>
			<circle fill="#E0E0DF" cx="548.195" cy="-61.767" r="1.043"/>
			<path fill="#BDBCBC" d="M547.239-61.677c0-0.576,0.468-1.043,1.044-1.043c0.264,0,0.509,0.099,0.691,0.261
				c-0.191-0.215-0.47-0.351-0.782-0.351c-0.576,0-1.041,0.467-1.041,1.042c0,0.312,0.134,0.59,0.35,0.782
				C547.339-61.17,547.239-61.412,547.239-61.677z"/>
			<path fill="#F5F5F5" d="M548.234-62.81c-0.007,0-0.014,0-0.019,0c0.564,0.01,1.022,0.473,1.022,1.042
				c0,0.578-0.47,1.044-1.046,1.044c-0.569,0-1.029-0.456-1.041-1.023c0,0.007,0,0.014,0,0.021c0,0.598,0.483,1.085,1.083,1.085
				s1.085-0.487,1.085-1.085C549.319-62.325,548.834-62.81,548.234-62.81z"/>
		</g>
	</g>
</g>
<polygon opacity="0.85" fill="#333E49" points="438.374,58.08 552.063,58.08 552.063,55.809 541.792,55.809 541.792,53.582 
	525.755,53.582 527.206,52.13 512.426,52.13 512.426,50.039 496.727,50.039 496.727,47.803 474.512,47.803 474.512,50.328 
	465.329,50.328 465.329,52.146 454.666,52.146 454.666,54.809 438.374,54.809 "/>
<linearGradient id="SVGID_9_" gradientUnits="userSpaceOnUse" x1="553.4385" y1="52.9414" x2="439.748" y2="52.9414">
	<stop  offset="0" style="stop-color:#B1B7BE;stop-opacity:0.5"/>
	<stop  offset="1" style="stop-color:#3F4C5A;stop-opacity:0"/>
</linearGradient>
<polygon fill="url(#SVGID_9_)" points="439.748,58.08 553.438,58.08 553.438,55.809 543.166,55.809 543.166,53.582 527.13,53.582 
	528.58,52.13 513.8,52.13 513.8,50.039 498.102,50.039 498.102,47.803 475.886,47.803 475.886,50.328 466.704,50.328 
	466.704,52.146 456.04,52.146 456.04,54.809 439.748,54.809 "/>
<linearGradient id="SVGID_10_" gradientUnits="userSpaceOnUse" x1="496.4639" y1="60.061" x2="496.8934" y2="47.7609">
	<stop  offset="0" style="stop-color:#5E2C10"/>
	<stop  offset="0.9986" style="stop-color:#3F4C5A;stop-opacity:0"/>
</linearGradient>
<polygon fill="url(#SVGID_10_)" points="439.746,58.08 553.437,58.08 553.437,55.809 543.164,55.809 543.164,53.582 527.127,53.582 
	528.578,52.13 513.798,52.13 513.798,50.039 498.1,50.039 498.1,47.803 475.884,47.803 475.884,50.328 466.701,50.328 
	466.701,52.146 456.038,52.146 456.038,54.809 439.746,54.809 "/>
<path opacity="0.85" fill="#333E49" d="M579.134,45.487h88.8v-2.104h-20.143v-2.222h-20.343v-2.696h-18.164v2.696h-18.957
	c0,0,0.889,2.222,0,2.222s-11.193,0-11.193,0V45.487z"/>
<linearGradient id="SVGID_11_" gradientUnits="userSpaceOnUse" x1="599.3643" y1="21.7095" x2="644.8159" y2="67.1611">
	<stop  offset="0" style="stop-color:#B1B7BE;stop-opacity:0.5"/>
	<stop  offset="1" style="stop-color:#3F4C5A;stop-opacity:0"/>
</linearGradient>
<path fill="url(#SVGID_11_)" d="M577.69,45.487h88.799v-2.104h-20.142v-2.222h-20.344v-2.696h-18.163v2.696h-18.957
	c0,0,0.889,2.222,0,2.222s-11.193,0-11.193,0V45.487z"/>
<linearGradient id="SVGID_12_" gradientUnits="userSpaceOnUse" x1="623.5342" y1="45.4902" x2="623.5342" y2="38.4692">
	<stop  offset="0" style="stop-color:#5E2C10"/>
	<stop  offset="0.9986" style="stop-color:#3F4C5A;stop-opacity:0"/>
</linearGradient>
<path fill="url(#SVGID_12_)" d="M579.134,45.49h88.8v-2.105h-20.143v-2.22h-20.343v-2.696h-18.164v2.696h-18.957
	c0,0,0.889,2.22,0,2.22s-11.193,0-11.193,0V45.49z"/>
<rect x="21.569" y="-420.963" opacity="0.8" fill="#FFFFFF" width="5.418" height="5.418"/>
<rect x="183.297" y="-404.724" opacity="0.8" fill="#FFFFFF" width="5.418" height="5.417"/>
<rect x="13.868" y="-329.234" opacity="0.8" fill="#FFFFFF" width="5.418" height="5.418"/>
<rect x="34.857" y="-7.041" opacity="0.4" fill="#FFFFFF" width="5.418" height="5.418"/>
<rect x="430.93" y="-264.228" opacity="0.8" fill="#FFFFFF" width="5.417" height="5.418"/>
<rect x="356.427" y="-423.672" opacity="0.7" fill="#FFFFFF" width="5.418" height="5.418"/>
<rect x="577.767" y="-326.177" opacity="0.3" fill="#FFFFFF" width="5.417" height="5.417"/>
<rect x="406.911" y="-232.917" opacity="0.8" fill="#FFFFFF" width="5.418" height="5.418"/>
<rect x="81.953" y="-426.381" opacity="0.8" fill="#FFFFFF" width="5.417" height="5.418"/>
<rect x="271.154" y="-384.123" opacity="0.8" fill="#FFFFFF" width="5.417" height="5.418"/>
<rect x="21.187" y="-124.418" opacity="0.8" fill="#FFFFFF" width="5.417" height="5.418"/>
<rect x="607.801" y="-429.09" opacity="0.7" fill="#FFFFFF" width="5.418" height="5.418"/>
<rect x="657.224" y="-402.015" opacity="0.7" fill="#FFFFFF" width="5.42" height="5.418"/>
<rect x="654.516" y="-189.076" opacity="0.5" fill="#FFFFFF" width="5.418" height="5.418"/>
<rect x="460.921" y="26.366" opacity="0.3" fill="#FFFFFF" width="5.417" height="5.418"/>
<rect x="631.571" y="106.39" opacity="0.3" fill="#FFFFFF" width="5.418" height="5.419"/>
<rect x="494.241" y="93.174" opacity="0.3" fill="#FFFFFF" width="5.418" height="5.418"/>
<rect x="638.6" y="-116.737" opacity="0.3" fill="#FFFFFF" width="5.417" height="5.418"/>
<rect x="439.612" y="170.999" opacity="0.3" fill="#FFFFFF" width="5.418" height="5.419"/>
<rect x="612.596" y="175.135" opacity="0.3" fill="#FFFFFF" width="5.418" height="5.418"/>
<rect x="676.181" y="-303.667" opacity="0.3" fill="#FFFFFF" width="5.417" height="5.418"/>
<rect x="93.817" y="51.968" opacity="0.3" fill="#FFFFFF" width="5.417" height="5.418"/>
<rect x="612.594" y="48.228" opacity="0.4" fill="#FFFFFF" width="5.42" height="5.418"/>
<rect x="42.278" y="-81.077" opacity="0.4" fill="#FFFFFF" width="5.418" height="5.418"/>
<polygon fill="#2D2B18" points="614.998,349.757 624.389,349.757 624.389,331.126 624.389,326.466 624.389,307.835 629.086,307.835 
	629.086,303.179 629.086,303.179 633.779,303.179 633.781,303.179 633.781,298.521 633.779,298.521 633.779,293.866 
	638.475,293.866 638.475,293.86 638.475,289.204 638.475,289.204 638.475,284.548 638.475,279.89 638.475,279.89 638.475,275.229 
	633.779,275.229 629.086,275.229 629.086,279.89 629.086,279.89 629.086,284.548 629.086,289.204 629.086,289.204 629.086,293.86 
	624.389,293.86 624.389,289.204 624.389,284.548 624.389,284.548 624.389,279.89 624.389,279.89 624.389,275.229 624.389,275.229 
	624.389,270.573 624.389,270.573 624.389,265.917 624.389,265.913 624.389,261.257 624.389,256.599 624.389,251.942 
	624.389,247.282 624.389,242.622 619.693,242.622 619.693,237.966 619.693,233.31 614.998,233.31 614.998,237.966 610.308,237.966 
	610.308,242.622 614.998,242.622 614.998,247.282 614.998,251.942 614.998,256.599 614.998,261.257 614.998,265.913 
	614.998,265.917 614.998,270.573 614.998,270.573 614.998,275.229 614.998,275.229 614.998,279.89 614.998,279.89 614.998,284.548 
	614.998,284.548 614.998,289.204 614.998,293.86 610.308,293.86 610.308,293.858 605.612,293.858 605.612,293.858 605.612,293.858 
	605.612,289.204 600.917,289.204 605.612,289.204 605.612,284.548 600.917,284.548 600.917,279.89 596.222,279.89 596.222,279.89 
	596.222,275.229 596.222,275.229 596.222,270.573 591.526,270.573 591.526,270.571 591.526,270.571 591.526,265.917 
	591.526,261.259 586.833,261.259 586.833,261.257 582.138,261.257 582.138,265.913 582.138,270.571 586.833,270.571 
	586.833,270.573 586.833,270.573 586.833,275.229 586.833,275.229 586.833,279.888 591.526,279.888 591.526,279.89 591.526,284.544 
	591.526,284.548 591.526,289.204 596.222,289.204 596.222,289.204 596.222,293.858 600.917,293.858 600.917,293.86 600.917,293.86 
	600.917,298.519 605.612,298.519 605.612,298.519 605.612,298.519 605.612,303.177 610.308,303.177 610.308,303.179 
	610.308,303.179 610.308,307.835 614.998,307.835 614.998,307.835 614.998,312.495 614.998,317.151 614.998,317.151 614.998,321.81 
	614.998,326.466 614.998,331.126 614.998,335.784 614.998,335.784 614.998,340.446 614.998,340.446 614.998,345.103 
	614.998,349.757 "/>
</svg>
