<?xml version="1.0" encoding="utf-8"?>
<!-- Generator: Adobe Illustrator 16.0.4, SVG Export Plug-In . SVG Version: 6.00 Build 0)  -->
<!DOCTYPE svg PUBLIC "-//W3C//DTD SVG 1.1//EN" "http://www.w3.org/Graphics/SVG/1.1/DTD/svg11.dtd">
<svg version="1.1" id="Layer_1" xmlns="http://www.w3.org/2000/svg" xmlns:xlink="http://www.w3.org/1999/xlink" x="0px" y="0px"
	 width="113.476px" height="128.098px" viewBox="0 0 113.476 128.098" enable-background="new 0 0 113.476 128.098"
	 xml:space="preserve">
<g>
	<g>
		<g>
			<g>
				<path fill="#FFFFFF" d="M86.697,51.243H45.165v11.226h41.532c7.634,0,13.844,6.21,13.844,13.844
					c0,7.633-6.21,13.844-13.844,13.844H45.165v11.225h41.532c13.845,0,25.069-11.224,25.069-25.068l0,0
					C111.766,62.467,100.542,51.243,86.697,51.243z"/>
				<path fill="#5D3C17" d="M86.697,103.091H43.455V88.445h43.242c6.69,0,12.134-5.443,12.134-12.133
					c0-6.691-5.443-12.134-12.134-12.134H43.455V49.533h43.242c14.767,0,26.779,12.013,26.779,26.779
					C113.476,91.078,101.463,103.091,86.697,103.091z M46.875,99.67h39.821c12.88,0,23.358-10.478,23.358-23.357
					c0-12.88-10.479-23.359-23.358-23.359H46.875v7.805h39.821c8.577,0,15.554,6.977,15.554,15.554
					c0,8.576-6.977,15.554-15.554,15.554H46.875V99.67z"/>
			</g>
			<g>
				<path fill="#FFFFFF" d="M11.835,41.007h71.976c1.347,5.41,2.085,11.179,2.085,17.177c0,18.552-6.974,51.177-17.672,64.5
					c-1.908,2.375-4.829,3.705-7.876,3.705H35.299c-3.047,0-5.969-1.33-7.876-3.705c-10.699-13.322-17.671-45.947-17.671-64.5
					C9.751,52.186,10.488,46.417,11.835,41.007z"/>
				<path fill="#5D3C17" d="M60.348,128.098H35.299c-3.636,0-6.993-1.582-9.21-4.344C14.907,109.83,8.041,76.18,8.041,58.184
					c0-5.98,0.718-11.898,2.135-17.589l0.323-1.297h74.649l0.323,1.297c1.416,5.69,2.135,11.608,2.135,17.59
					c0,17.996-6.866,51.646-18.048,65.57C67.34,126.516,63.984,128.098,60.348,128.098z M13.186,42.717
					c-1.145,5.021-1.725,10.218-1.725,15.466c0,17.493,6.58,50.086,17.295,63.429c1.564,1.948,3.949,3.065,6.542,3.065h25.049
					c2.594,0,4.979-1.117,6.543-3.065c7.221-8.993,17.294-37.474,17.294-63.429c0-5.25-0.58-10.446-1.725-15.466H13.186z"/>
			</g>
			<g>
				<path fill="#FBD059" d="M81.083,44.428H14.564c-0.925,4.482-1.393,9.097-1.393,13.756c0,16.268,5.365,41.454,12.845,55.893
					c1.504,2.904,4.487,4.734,7.756,4.734h28.102c3.27,0,6.252-1.831,7.756-4.734c7.479-14.439,12.845-39.625,12.845-55.893
					C82.475,53.524,82.007,48.909,81.083,44.428z"/>
			</g>
			<g>
				<path fill="#E0860E" d="M81.083,44.428H69.965c0.925,4.481,1.394,9.096,1.394,13.756c0,16.268-5.365,41.453-12.845,55.893
					c-1.503,2.903-4.487,4.734-7.756,4.734h11.116c3.27,0,6.252-1.831,7.756-4.734c7.479-14.439,12.845-39.625,12.845-55.893
					C82.475,53.524,82.007,48.909,81.083,44.428z"/>
			</g>
			<path fill="#5D3C17" d="M25.1,98.005c-1.333-4.218-2.548-8.841-3.56-13.546c-0.198-0.92-1.092-1.513-2.014-1.324
				c-0.929,0.189-1.533,1.1-1.333,2.027c1.036,4.822,2.283,9.566,3.652,13.895c0.287,0.906,1.265,1.395,2.166,1.096h0
				C24.903,99.856,25.383,98.9,25.1,98.005z"/>
			<g>
				<path fill="#FFE8AF" d="M39.461,97.297c-3.895-13.066-6.345-28.123-6.345-39.113c0-4.66,0.468-9.275,1.393-13.756H23.392
					C22.467,48.909,22,53.524,22,58.184c0,11.9,2.873,28.57,7.343,42.318c0.707,2.173,2.751,3.629,5.037,3.629
					C37.937,104.131,40.478,100.706,39.461,97.297z"/>
			</g>
			<path fill="#5D3C17" d="M19.705,74.361c-0.88-5.932-1.343-11.495-1.343-16.177c0-3.362,0.266-6.729,0.791-10.005l-3.377-0.541
				c-0.554,3.456-0.834,7.004-0.834,10.546c0,4.851,0.477,10.591,1.382,16.695c0.14,0.938,1.025,1.581,1.962,1.432
				C19.215,76.162,19.843,75.291,19.705,74.361z"/>
		</g>
		<g>
			<path fill="#FFFFFF" d="M9.815,26.494c-0.416-2.23-0.365-4.624,0.394-7.109c1.809-5.929,7.155-10.267,13.339-10.698
				c3.491-0.243,6.749,0.706,9.413,2.477c3.509-5.672,9.784-9.453,16.943-9.453c9.969,0,18.227,7.326,19.684,16.888
				c2.512-1.292,5.384-1.982,8.429-1.864c8.714,0.339,15.91,7.497,16.288,16.208c0.422,9.72-7.334,17.732-16.961,17.732
				c-1.547,0-3.046-0.208-4.47-0.597c-2.916-0.797-5.815,1.268-5.815,4.291v14.496c0,4.736-3.841,8.576-8.577,8.576
				c-4.737,0-8.578-3.84-8.578-8.576v-17.41c0-2.537-2.056-4.592-4.592-4.592h-6.634c-2.537,0-4.592,2.056-4.592,4.592v6.847
				c0,4.737-3.84,8.577-8.577,8.577c-4.737,0-8.578-3.84-8.578-8.577v-6.847c0-2.537-2.056-4.592-4.592-4.592
				c-5.205,0-9.84-3.721-10.532-8.879C1.062,32.432,4.742,27.598,9.815,26.494z"/>
			<path fill="#5D3C17" d="M96.031,33.699c0-0.245-0.01-0.488-0.019-0.731c-0.002-0.033,0.002-0.065,0-0.099
				c0-0.016-0.003-0.031-0.004-0.046c-0.025-0.545-0.077-1.083-0.148-1.615c-0.009-0.063-0.016-0.126-0.024-0.189
				c-0.078-0.541-0.182-1.074-0.306-1.599c-0.008-0.037-0.017-0.074-0.025-0.11c-1.647-6.814-7.038-12.18-13.866-13.793
				c-0.026-0.006-0.053-0.012-0.079-0.018c-0.529-0.123-1.067-0.224-1.613-0.3c-0.064-0.009-0.129-0.016-0.193-0.024
				c-0.526-0.068-1.058-0.117-1.596-0.14c-0.025-0.001-0.049-0.005-0.074-0.006c-0.041-0.001-0.083,0.003-0.125,0.001
				c-0.204-0.007-0.408-0.016-0.613-0.016c-0.198,0-0.394,0.023-0.591,0.029c-0.284,0.009-0.567,0.02-0.85,0.042
				c-0.349,0.027-0.693,0.068-1.038,0.114c-0.252,0.034-0.504,0.067-0.754,0.111c-0.364,0.064-0.724,0.143-1.082,0.228
				c-0.229,0.055-0.46,0.108-0.688,0.171c-0.365,0.102-0.725,0.219-1.083,0.343c-0.141,0.048-0.286,0.083-0.426,0.134
				C68.391,6.819,59.754,0,49.904,0c-0.532,0-1.06,0.026-1.584,0.063c-0.13,0.009-0.26,0.022-0.39,0.034
				c-0.428,0.039-0.852,0.089-1.273,0.152c-0.099,0.015-0.198,0.027-0.296,0.044c-1.078,0.176-2.133,0.433-3.159,0.765
				c-0.015,0.005-0.03,0.01-0.044,0.015c-1.58,0.515-3.087,1.209-4.499,2.069c-0.001,0.001-0.002,0.001-0.003,0.002
				c-0.438,0.267-0.865,0.55-1.282,0.848c-0.055,0.039-0.11,0.078-0.165,0.117c-0.395,0.288-0.783,0.586-1.158,0.901
				c-0.032,0.026-0.064,0.05-0.096,0.077c-0.366,0.31-0.721,0.634-1.067,0.969c-0.174,0.167-0.339,0.343-0.507,0.516
				c-0.152,0.158-0.304,0.316-0.453,0.479c-0.209,0.23-0.414,0.464-0.614,0.704c-0.074,0.089-0.146,0.181-0.22,0.271
				c-0.223,0.276-0.446,0.552-0.656,0.839c-2.755-1.458-5.838-2.108-9.011-1.886C16.569,7.458,10.6,12.243,8.573,18.886
				c-0.637,2.086-0.855,4.225-0.655,6.376c-0.13,0.047-0.253,0.104-0.381,0.155c-0.1,0.04-0.2,0.079-0.298,0.122
				c-3.987,1.707-6.701,5.408-7.163,9.704c-0.011,0.099-0.016,0.2-0.024,0.3c-0.023,0.274-0.038,0.55-0.042,0.829
				C0.009,36.434,0,36.495,0,36.558h0.011c0,0.546,0.025,1.096,0.1,1.653c0.792,5.907,6.049,10.362,12.228,10.362
				c1.589,0,2.882,1.293,2.882,2.882v6.847c0,5.673,4.615,10.288,10.288,10.288c5.672,0,10.288-4.615,10.288-10.288v-6.847
				c0-1.589,1.292-2.882,2.882-2.882h6.634c1.589,0,2.882,1.293,2.882,2.882v17.411c0,5.672,4.615,10.287,10.288,10.287
				c5.672,0,10.287-4.615,10.287-10.287V54.37c0-0.869,0.377-1.636,1.062-2.159c0.73-0.558,1.676-0.733,2.593-0.482
				c1.596,0.436,3.252,0.657,4.922,0.657c5.145,0,9.939-2.047,13.498-5.764c3.365-3.514,5.167-8.078,5.165-12.922H96.031z
				 M88.373,44.255c-2.908,3.037-6.825,4.709-11.028,4.709c-1.365,0-2.718-0.18-4.021-0.536c-1.956-0.535-3.984-0.147-5.569,1.063
				c-1.529,1.167-2.406,2.945-2.406,4.877v14.496c0,3.785-3.081,6.866-6.867,6.866c-3.787,0-6.867-3.081-6.867-6.866V51.455
				c0-3.475-2.828-6.302-6.303-6.302h-6.634c-3.475,0-6.302,2.827-6.302,6.302v6.847c0,3.787-3.081,6.867-6.867,6.867
				s-6.867-3.081-6.867-6.867v-6.847c0-3.475-2.827-6.302-6.302-6.302c-4.473,0-8.272-3.18-8.837-7.396
				C3.437,37.275,3.42,36.8,3.432,36.331c0.004-0.153,0.011-0.305,0.023-0.456c0.01-0.127,0.023-0.254,0.039-0.38
				c0.02-0.162,0.044-0.323,0.074-0.482c0.019-0.104,0.039-0.209,0.061-0.312c0.042-0.192,0.091-0.382,0.146-0.569
				c0.019-0.064,0.036-0.127,0.056-0.19c0.078-0.244,0.164-0.484,0.263-0.718c0.001-0.004,0.003-0.008,0.004-0.011
				c0.869-2.05,2.512-3.694,4.56-4.566c0.097-0.04,0.198-0.073,0.296-0.11c0.146-0.056,0.29-0.113,0.439-0.161
				c0.244-0.077,0.494-0.144,0.75-0.201c0.015-0.003,0.029-0.008,0.044-0.011l0.159-0.035c0.541-0.107,1.098-0.166,1.669-0.166
				c0.955,0,1.902,0.16,2.798,0.467c0.771,0.265,1.62-0.018,2.009-0.734l0.088-0.162c0.481-0.886,0.04-1.979-0.912-2.313
				c-1.274-0.447-2.625-0.678-3.983-0.678c-0.243,0-0.48,0.022-0.72,0.036c-0.104-1.585,0.08-3.158,0.548-4.695
				c1.616-5.296,6.367-9.111,11.822-9.491c2.45-0.17,4.831,0.32,6.975,1.407c-0.462,0.909-0.873,1.853-1.208,2.837
				c-0.302,0.889,0.232,1.849,1.143,2.08l0.183,0.046c0.814,0.206,1.648-0.248,1.919-1.043c0.429-1.257,0.996-2.439,1.667-3.545
				l0.069-0.111c0.208-0.335,0.425-0.662,0.65-0.98c0.003-0.004,0.005-0.008,0.008-0.011c0.206-0.29,0.421-0.57,0.641-0.845
				c0.046-0.058,0.092-0.115,0.14-0.172c0.199-0.242,0.403-0.479,0.613-0.709c0.091-0.099,0.184-0.196,0.277-0.293
				c0.183-0.191,0.366-0.382,0.555-0.565c0.223-0.214,0.453-0.42,0.686-0.622c0.074-0.064,0.144-0.133,0.219-0.197
				c0.339-0.284,0.688-0.554,1.047-0.812c0.044-0.032,0.09-0.062,0.135-0.093c0.325-0.23,0.657-0.451,0.997-0.659
				c0.049-0.03,0.099-0.06,0.148-0.089c0.353-0.212,0.712-0.413,1.079-0.6c0.03-0.015,0.06-0.031,0.09-0.046
				c1.215-0.612,2.505-1.09,3.849-1.42c0.068-0.017,0.137-0.031,0.206-0.047c0.358-0.083,0.72-0.155,1.085-0.217
				c0.113-0.019,0.227-0.038,0.341-0.055c0.337-0.051,0.677-0.09,1.02-0.122c0.116-0.011,0.231-0.025,0.348-0.034
				c0.448-0.033,0.9-0.054,1.356-0.054v0c8.53,0,15.965,6.079,17.768,14.311c-1.23,0.746-2.39,1.619-3.431,2.644
				c-0.674,0.663-0.614,1.772,0.108,2.381l0.145,0.122c0.638,0.538,1.575,0.495,2.171-0.089c1.055-1.033,2.244-1.897,3.527-2.578
				l0.105-0.055c0.361-0.188,0.731-0.357,1.106-0.516c0.137-0.058,0.276-0.111,0.415-0.165c0.284-0.111,0.573-0.212,0.864-0.306
				c0.122-0.04,0.244-0.083,0.367-0.119c0.383-0.112,0.771-0.207,1.163-0.289c0.137-0.029,0.275-0.053,0.413-0.078
				c0.333-0.06,0.668-0.11,1.005-0.148c0.097-0.011,0.192-0.026,0.289-0.036c0.426-0.04,0.854-0.059,1.285-0.062
				c0.104-0.001,0.208,0.001,0.312,0.002c0.319,0.003,0.634,0.025,0.947,0.048c0.229,0.017,0.458,0.033,0.684,0.06
				c0.261,0.031,0.517,0.074,0.773,0.118c0.242,0.042,0.484,0.082,0.723,0.135c0.21,0.046,0.416,0.105,0.623,0.161
				c0.279,0.075,0.561,0.148,0.834,0.239c0.132,0.043,0.26,0.096,0.391,0.143c0.34,0.123,0.678,0.248,1.007,0.395
				c0.021,0.01,0.043,0.021,0.064,0.031c3.342,1.508,6.056,4.191,7.611,7.508c0.038,0.083,0.081,0.162,0.118,0.245
				c0.132,0.294,0.245,0.599,0.358,0.902c0.062,0.165,0.127,0.328,0.182,0.496c0.085,0.253,0.154,0.511,0.226,0.77
				c0.062,0.228,0.125,0.455,0.177,0.687c0.051,0.227,0.09,0.457,0.131,0.687c0.047,0.266,0.091,0.534,0.123,0.805
				c0.026,0.221,0.045,0.445,0.062,0.668c0.021,0.275,0.036,0.551,0.042,0.83C92.68,37.449,91.197,41.305,88.373,44.255z"/>
		</g>
	</g>
	<g>
		<path fill="#5D3C17" d="M76.794,34.308c-1.079-4.165-5.375-6.858-9.594-6.017c-3.819,0.761-6.47,4.038-6.634,7.727
			c-0.051,1.142,0.98,2.029,2.095,1.773c0.761-0.174,1.288-0.842,1.322-1.622c0.094-2.115,1.584-3.999,3.746-4.495
			c2.6-0.592,5.192,1.034,5.788,3.628c0.495,2.163-0.552,4.325-2.415,5.331c-0.687,0.371-1.059,1.136-0.884,1.897
			c0.255,1.113,1.503,1.656,2.509,1.113C75.977,41.89,77.772,38.077,76.794,34.308z"/>
		<path fill="#5D3C17" d="M52.643,24.45c-0.823-1.072-1.868-1.956-3.089-2.603c-4.386-2.328-9.783-0.869-12.444,3.211
			c-2.97-0.851-6.263-0.576-9.175,1.031c-5.271,2.907-7.522,9.194-5.546,14.686c0.344,0.958,1.46,1.389,2.351,0.897l0.115-0.063
			c0.726-0.4,1.007-1.266,0.732-2.047c-1.498-4.26,0.534-9.167,5.004-10.953c3.693-1.475,8.04-0.173,10.302,3.097
			c0.984,1.422,1.516,3.038,1.566,4.701c0.025,0.828,0.6,1.533,1.421,1.645l0.132,0.018c1.014,0.138,1.893-0.674,1.869-1.697
			c-0.046-1.926-0.556-3.809-1.505-5.531c-1.011-1.833-2.433-3.301-4.086-4.353c1.792-2.276,5.013-3.024,7.661-1.62
			c0.772,0.409,1.435,0.966,1.958,1.64c0.489,0.629,1.352,0.829,2.072,0.487C52.946,26.539,53.293,25.297,52.643,24.45z"/>
	</g>
</g>
</svg>
