<?xml version="1.0" encoding="utf-8"?>
<!-- Generator: Adobe Illustrator 16.0.4, SVG Export Plug-In . SVG Version: 6.00 Build 0)  -->
<!DOCTYPE svg PUBLIC "-//W3C//DTD SVG 1.1//EN" "http://www.w3.org/Graphics/SVG/1.1/DTD/svg11.dtd">
<svg version="1.1" id="Layer_1" xmlns="http://www.w3.org/2000/svg" xmlns:xlink="http://www.w3.org/1999/xlink" x="0px" y="0px"
	 width="476px" height="110.115px" viewBox="0 0 476 110.115" enable-background="new 0 0 476 110.115" xml:space="preserve">
<g>
	<path d="M-8.569,32.348c0.22,0.892,0.082,1.677-0.413,2.354c-0.494,0.679-1.216,1.135-2.167,1.369
		c-0.822,0.203-1.574,0.221-2.256,0.053c-0.391-0.094-0.696-0.224-0.915-0.389l0.354-0.734c0.243,0.088,0.479,0.177,0.712,0.266
		c0.57,0.143,1.148,0.143,1.732-0.002c0.762-0.188,1.325-0.515,1.688-0.982s0.467-1.013,0.314-1.636
		c-0.122-0.495-0.413-0.886-0.872-1.171c-0.383-0.232-0.839-0.336-1.369-0.311c-0.321,0.017-0.794,0.102-1.417,0.255l-0.149,0.037
		l-0.201-0.816l0.253-0.062c0.584-0.144,1.017-0.287,1.296-0.431c0.42-0.208,0.747-0.504,0.978-0.886
		c0.231-0.383,0.285-0.825,0.16-1.331c-0.134-0.545-0.431-0.939-0.89-1.183c-0.459-0.244-1.015-0.285-1.669-0.124
		c-0.544,0.134-1.043,0.409-1.498,0.825c-0.268,0.234-0.461,0.449-0.581,0.646l-0.651-0.469c0.052-0.171,0.274-0.44,0.666-0.811
		c0.563-0.527,1.206-0.88,1.93-1.058c0.92-0.227,1.708-0.163,2.362,0.189c0.653,0.354,1.078,0.926,1.273,1.719
		c0.145,0.584,0.102,1.135-0.128,1.653c-0.239,0.563-0.651,0.959-1.235,1.187c0.658-0.099,1.232,0.024,1.722,0.372
		C-9.048,31.226-8.724,31.715-8.569,32.348z"/>
	<path d="M-4.229,33.596c0.046,0.188,0.021,0.362-0.076,0.522c-0.097,0.159-0.24,0.264-0.428,0.31s-0.362,0.021-0.522-0.075
		c-0.161-0.098-0.264-0.24-0.311-0.428c-0.046-0.189-0.021-0.363,0.076-0.523c0.097-0.16,0.24-0.264,0.428-0.31
		s0.362-0.021,0.522,0.075C-4.379,33.265-4.275,33.406-4.229,33.596z"/>
	<path d="M4.163,32.111l-6.015,1.482l-0.194-0.787c0.197-0.312,0.394-0.617,0.593-0.919c0.408-0.646,0.723-1.155,0.947-1.525
		c0.813-1.345,1.35-2.364,1.609-3.059c0.297-0.797,0.37-1.503,0.219-2.116c-0.164-0.664-0.473-1.129-0.927-1.395
		c-0.454-0.266-1.013-0.317-1.676-0.154c-0.515,0.127-1.01,0.401-1.483,0.822c-0.293,0.261-0.491,0.479-0.596,0.65l-0.659-0.436
		c0.084-0.21,0.31-0.49,0.674-0.845c0.573-0.529,1.23-0.886,1.974-1.068c0.9-0.222,1.682-0.144,2.341,0.234
		c0.661,0.378,1.098,1.003,1.313,1.874c0.186,0.752,0.097,1.609-0.265,2.57c-0.238,0.615-0.691,1.478-1.363,2.588l-1.481,2.429
		l4.782-1.179L4.163,32.111z"/>
</g>
<g>
	<path d="M19.161,25.532c0.212,0.861,0.116,1.619-0.289,2.276c-0.428,0.693-1.142,1.164-2.142,1.41
		c-1.099,0.271-2.146,0.156-3.141-0.345l0.322-0.804c0.998,0.385,1.848,0.49,2.551,0.316c0.713-0.175,1.218-0.492,1.515-0.948
		c0.298-0.457,0.372-0.987,0.223-1.591c-0.107-0.436-0.371-0.779-0.79-1.033c-0.358-0.217-1.041-0.409-2.048-0.575
		c-1.007-0.167-1.727-0.379-2.158-0.642c-0.494-0.299-0.825-0.789-0.993-1.472c-0.183-0.743-0.063-1.418,0.359-2.026
		c0.422-0.608,1.069-1.019,1.94-1.233c1.119-0.275,2.111-0.148,2.978,0.384l-0.358,0.718c-0.8-0.391-1.582-0.492-2.344-0.305
		c-0.614,0.151-1.074,0.437-1.381,0.854c-0.307,0.416-0.399,0.871-0.277,1.367c0.098,0.396,0.319,0.699,0.665,0.907
		c0.345,0.21,0.982,0.389,1.912,0.536c0.994,0.155,1.698,0.329,2.113,0.52C18.522,24.198,18.97,24.76,19.161,25.532z"/>
	<path d="M25.355,26.699c-0.399,0.34-0.842,0.57-1.327,0.689c-0.643,0.158-1.174,0.111-1.594-0.143
		c-0.234-0.142-0.416-0.365-0.542-0.67c-0.091-0.197-0.2-0.554-0.327-1.068l-1.04-4.218l-1.247,0.308l-0.18-0.729l1.248-0.308
		l-0.498-2.02l0.891-0.22l0.498,2.02l2.287-0.563l0.18,0.729l-2.287,0.563l0.995,4.039c0.159,0.644,0.299,1.045,0.422,1.203
		c0.219,0.292,0.591,0.374,1.116,0.245c0.228-0.057,0.456-0.149,0.688-0.28c0.099-0.065,0.203-0.134,0.312-0.202L25.355,26.699z"/>
	<path d="M31.99,21.536c0.276,1.119,0.201,2.084-0.223,2.898c-0.424,0.813-1.137,1.343-2.137,1.589
		c-0.97,0.239-1.833,0.093-2.589-0.44s-1.274-1.369-1.555-2.508c-0.281-1.137-0.21-2.119,0.211-2.943
		c0.422-0.822,1.143-1.36,2.163-1.611c0.97-0.239,1.828-0.09,2.574,0.444C31.182,19.501,31.7,20.358,31.99,21.536z M31.062,21.733
		c-0.217-0.881-0.615-1.546-1.193-1.997c-0.578-0.451-1.204-0.593-1.877-0.427c-0.703,0.173-1.199,0.579-1.488,1.217
		c-0.29,0.638-0.324,1.402-0.104,2.294c0.219,0.891,0.617,1.557,1.194,1.998c0.575,0.44,1.2,0.578,1.873,0.412
		c0.723-0.178,1.225-0.58,1.506-1.206S31.285,22.634,31.062,21.733z"/>
	<path d="M39.633,19.433c0.28,1.139,0.183,2.146-0.294,3.025c-0.477,0.879-1.229,1.446-2.259,1.699
		c-0.653,0.161-1.226,0.16-1.717-0.002l0.841,3.416l-0.891,0.219l-2.536-10.291l0.846-0.209l0.121,0.49
		c0.484-0.592,1.113-0.983,1.885-1.174c0.93-0.229,1.764-0.085,2.501,0.432C38.865,17.556,39.367,18.354,39.633,19.433z
		 M38.704,19.629c-0.203-0.821-0.581-1.437-1.132-1.847c-0.553-0.41-1.166-0.533-1.839-0.367c-0.723,0.179-1.304,0.569-1.744,1.172
		l1.16,4.707c0.652,0.176,1.236,0.199,1.751,0.073c0.772-0.19,1.323-0.628,1.653-1.314C38.883,21.369,38.933,20.561,38.704,19.629z"
		/>
	<path d="M47.325,17.537c0.28,1.139,0.183,2.147-0.294,3.026c-0.477,0.879-1.23,1.445-2.259,1.699
		c-0.653,0.16-1.226,0.16-1.717-0.003l0.841,3.416l-0.891,0.22l-2.536-10.292l0.846-0.209l0.121,0.49
		c0.484-0.592,1.113-0.983,1.885-1.174c0.93-0.229,1.764-0.085,2.501,0.433C46.557,15.66,47.059,16.458,47.325,17.537z
		 M46.397,17.734c-0.203-0.82-0.581-1.437-1.132-1.846c-0.553-0.411-1.166-0.533-1.839-0.367c-0.723,0.178-1.304,0.568-1.744,1.171
		l1.16,4.707c0.652,0.176,1.236,0.2,1.751,0.073c0.772-0.19,1.323-0.628,1.653-1.314C46.575,19.474,46.626,18.665,46.397,17.734z"/>
	<path d="M48.607,11.047c0.039,0.158,0.017,0.311-0.067,0.458c-0.085,0.146-0.212,0.24-0.38,0.282
		c-0.158,0.038-0.312,0.013-0.46-0.075c-0.148-0.091-0.242-0.215-0.28-0.373c-0.042-0.168-0.017-0.324,0.074-0.467
		c0.091-0.143,0.215-0.234,0.374-0.272c0.168-0.042,0.324-0.021,0.465,0.066C48.474,10.751,48.566,10.879,48.607,11.047z
		 M50.808,20.617l-0.891,0.22l-1.757-7.129l0.891-0.22L50.808,20.617z"/>
	<path d="M58.383,18.751l-0.892,0.22l-1.024-4.158c-0.139-0.564-0.249-0.947-0.33-1.147c-0.145-0.332-0.334-0.568-0.568-0.711
		c-0.333-0.202-0.737-0.244-1.213-0.127c-0.445,0.109-0.907,0.346-1.386,0.705c-0.357,0.256-0.565,0.433-0.625,0.532l1.434,5.821
		l-0.891,0.219l-1.756-7.129l0.846-0.208l0.128,0.52c0.628-0.647,1.353-1.074,2.174-1.276c0.703-0.173,1.302-0.11,1.795,0.188
		c0.37,0.224,0.656,0.553,0.857,0.986c0.113,0.245,0.244,0.67,0.393,1.273L58.383,18.751z"/>
	<path d="M66.011,16.983c0.295,1.197,0.276,2.079-0.057,2.644c-0.386,0.651-1.093,1.104-2.123,1.357
		c-0.674,0.166-1.337,0.183-1.989,0.05c-0.396-0.07-0.686-0.162-0.871-0.274l0.247-0.723c0.474,0.136,0.729,0.209,0.764,0.223
		c0.558,0.093,1.09,0.077,1.595-0.047c0.763-0.188,1.277-0.51,1.543-0.964c0.157-0.259,0.228-0.549,0.21-0.871
		c-0.019-0.247-0.106-0.688-0.262-1.321l-0.135-0.549c-0.633,0.586-1.275,0.96-1.929,1.121c-0.891,0.22-1.702,0.07-2.434-0.449
		c-0.731-0.517-1.225-1.291-1.478-2.32c-0.271-1.099-0.16-2.089,0.331-2.973c0.492-0.883,1.251-1.451,2.281-1.705
		c0.644-0.158,1.52-0.158,2.63-0.001L66.011,16.983z M64.721,15.645l-1.164-4.722c-0.59-0.096-1.159-0.078-1.704,0.057
		c-0.771,0.189-1.327,0.622-1.666,1.293c-0.339,0.672-0.398,1.453-0.178,2.344c0.202,0.822,0.568,1.436,1.099,1.841
		c0.53,0.404,1.127,0.525,1.791,0.361C63.434,16.687,64.042,16.296,64.721,15.645z"/>
	<path d="M78.742,13.735l-0.949,0.234l-1.186-4.812l-5.005,1.233l1.186,4.812l-0.951,0.233l-2.44-9.905l0.951-0.233l1.058,4.292
		l5.005-1.233l-1.058-4.292l0.95-0.234L78.742,13.735z"/>
	<path d="M85.766,7.908c0.005,0.02,0.017,0.09,0.037,0.212c0.019,0.12,0.036,0.211,0.051,0.271L80.745,9.65
		c0.2,0.812,0.574,1.413,1.121,1.802c0.548,0.392,1.213,0.491,1.995,0.298c0.604-0.148,1.244-0.512,1.921-1.088l0.57,0.583
		c-0.04,0.095-0.251,0.282-0.633,0.566c-0.538,0.374-1.114,0.637-1.727,0.788c-1.02,0.251-1.907,0.112-2.662-0.415
		c-0.755-0.528-1.268-1.342-1.539-2.441c-0.283-1.147-0.215-2.138,0.205-2.972c0.419-0.834,1.124-1.373,2.114-1.617
		c0.841-0.207,1.588-0.075,2.239,0.395C85.028,6.042,85.5,6.829,85.766,7.908z M84.79,7.85c-0.153-0.623-0.423-1.124-0.811-1.501
		c-0.479-0.45-1.034-0.597-1.668-0.441c-0.633,0.156-1.114,0.507-1.443,1.049c-0.328,0.544-0.422,1.187-0.281,1.929L84.79,7.85z"/>
	<path d="M93.786,10.029l-0.817,0.201L92.83,9.665c-0.596,0.65-1.31,1.078-2.141,1.283c-0.724,0.179-1.35,0.107-1.881-0.214
		c-0.382-0.231-0.683-0.599-0.901-1.101c-0.083-0.211-0.207-0.648-0.37-1.312l-1.003-4.069l0.891-0.22l1.047,4.248
		c0.229,0.93,0.52,1.503,0.871,1.714c0.352,0.214,0.755,0.264,1.211,0.151c0.445-0.109,0.899-0.336,1.36-0.682
		c0.215-0.19,0.433-0.374,0.65-0.555l-1.427-5.792L92.029,2.9L93.786,10.029z"/>
	<path d="M97.937,1.365l-0.025,0.795c-0.216,0.021-0.413,0.054-0.591,0.098c-0.445,0.109-0.826,0.314-1.141,0.611
		c-0.23,0.216-0.416,0.466-0.555,0.752C95.565,3.761,95.51,3.9,95.461,4.039l1.295,5.257l-0.891,0.22l-1.756-7.129l0.846-0.208
		l0.23,0.936c0.439-0.906,1.098-1.468,1.979-1.685C97.422,1.366,97.679,1.345,97.937,1.365z"/>
	<path d="M99.738-1.552c0.039,0.158,0.016,0.311-0.068,0.458c-0.084,0.146-0.211,0.241-0.379,0.282
		c-0.158,0.039-0.312,0.014-0.46-0.075c-0.148-0.09-0.242-0.214-0.281-0.372c-0.041-0.168-0.016-0.324,0.074-0.467
		c0.091-0.144,0.216-0.234,0.374-0.273c0.168-0.041,0.323-0.02,0.465,0.066S99.697-1.719,99.738-1.552z M101.939,8.019l-0.892,0.22
		L99.291,1.11l0.891-0.22L101.939,8.019z"/>
	<path d="M107.934,4.478c0.163,0.664,0.061,1.24-0.307,1.73c-0.367,0.489-0.947,0.831-1.74,1.026
		c-0.573,0.142-1.16,0.171-1.758,0.087c-0.413-0.055-0.681-0.121-0.805-0.195l0.218-0.778c0.692,0.249,1.389,0.288,2.092,0.114
		c0.535-0.132,0.926-0.346,1.173-0.643c0.247-0.298,0.322-0.64,0.228-1.025c-0.103-0.416-0.39-0.707-0.861-0.874
		c-0.17-0.053-0.603-0.125-1.297-0.217c-0.75-0.099-1.267-0.218-1.554-0.357c-0.477-0.229-0.785-0.631-0.927-1.205
		c-0.139-0.564-0.025-1.073,0.341-1.524c0.366-0.454,0.891-0.765,1.574-0.933c0.535-0.132,1.069-0.158,1.603-0.079
		c0.349,0.05,0.584,0.113,0.708,0.188l-0.199,0.726c-0.667-0.191-1.283-0.218-1.847-0.079c-0.425,0.104-0.762,0.293-1.011,0.564
		c-0.248,0.271-0.333,0.564-0.255,0.881c0.091,0.367,0.314,0.616,0.673,0.749c0.15,0.057,0.547,0.132,1.189,0.227
		c0.828,0.12,1.377,0.238,1.646,0.35C107.413,3.452,107.785,3.875,107.934,4.478z"/>
	<path d="M113.938,4.873c-0.399,0.34-0.842,0.569-1.327,0.689c-0.643,0.158-1.174,0.111-1.594-0.143
		c-0.234-0.142-0.416-0.365-0.542-0.67c-0.091-0.197-0.2-0.554-0.327-1.068l-1.04-4.218l-1.247,0.307l-0.18-0.729l1.248-0.307
		l-0.498-2.02l0.891-0.22l0.498,2.02l2.287-0.563l0.18,0.729L110-0.756l0.995,4.039c0.159,0.644,0.299,1.045,0.422,1.203
		c0.219,0.292,0.591,0.374,1.116,0.245c0.228-0.057,0.457-0.15,0.688-0.28c0.099-0.065,0.203-0.134,0.312-0.202L113.938,4.873z"/>
	<path d="M114.336-5.148c0.039,0.158,0.016,0.311-0.068,0.458c-0.084,0.146-0.211,0.24-0.379,0.282
		c-0.159,0.039-0.312,0.014-0.46-0.075c-0.148-0.09-0.242-0.214-0.281-0.372c-0.041-0.168-0.016-0.324,0.074-0.467
		c0.091-0.144,0.215-0.234,0.374-0.273c0.168-0.042,0.323-0.02,0.465,0.066C114.203-5.444,114.294-5.316,114.336-5.148z
		 M116.537,4.423l-0.892,0.219l-1.756-7.129l0.891-0.219L116.537,4.423z"/>
	<path d="M123.883,2.014c-0.056,0.118-0.266,0.307-0.633,0.565c-0.511,0.356-1.054,0.606-1.628,0.748
		c-1,0.246-1.891,0.124-2.673-0.365c-0.782-0.491-1.308-1.28-1.576-2.369c-0.283-1.148-0.185-2.165,0.295-3.05
		c0.48-0.885,1.246-1.458,2.294-1.716c0.525-0.13,1.062-0.146,1.611-0.051c0.341,0.063,0.579,0.137,0.715,0.218l-0.247,0.723
		c-0.66-0.204-1.301-0.23-1.925-0.076c-0.762,0.188-1.314,0.62-1.657,1.298s-0.409,1.442-0.199,2.294
		c0.212,0.861,0.615,1.497,1.211,1.907c0.595,0.41,1.258,0.525,1.991,0.345c0.604-0.148,1.227-0.498,1.87-1.045L123.883,2.014z"/>
	<path d="M129.556-0.85c0.164,0.664,0.062,1.24-0.307,1.731c-0.367,0.489-0.947,0.831-1.739,1.026
		c-0.574,0.142-1.161,0.171-1.759,0.086c-0.413-0.055-0.681-0.12-0.805-0.194l0.218-0.778c0.691,0.249,1.389,0.287,2.092,0.114
		c0.535-0.132,0.925-0.347,1.172-0.644s0.323-0.639,0.228-1.024c-0.102-0.416-0.39-0.707-0.861-0.875
		c-0.17-0.052-0.603-0.124-1.297-0.217c-0.749-0.098-1.267-0.217-1.554-0.356c-0.477-0.229-0.785-0.631-0.927-1.205
		c-0.139-0.564-0.025-1.073,0.341-1.525c0.366-0.453,0.89-0.764,1.574-0.933c0.535-0.132,1.069-0.157,1.604-0.079
		c0.348,0.05,0.584,0.114,0.707,0.188l-0.198,0.726c-0.668-0.192-1.283-0.219-1.848-0.08c-0.426,0.105-0.763,0.293-1.011,0.564
		s-0.333,0.564-0.255,0.881c0.09,0.367,0.313,0.617,0.673,0.749c0.15,0.058,0.547,0.133,1.189,0.228
		c0.828,0.12,1.376,0.237,1.646,0.35C129.035-1.876,129.408-1.453,129.556-0.85z"/>
</g>
<g>
	<path d="M140.307-2.016c0.046,0.188,0.021,0.361-0.076,0.521s-0.24,0.264-0.428,0.31c-0.188,0.047-0.362,0.021-0.522-0.075
		c-0.161-0.097-0.264-0.239-0.311-0.427c-0.046-0.189-0.021-0.363,0.076-0.524c0.097-0.159,0.24-0.263,0.428-0.31
		c0.188-0.046,0.362-0.021,0.522,0.075C140.157-2.348,140.261-2.206,140.307-2.016z"/>
</g>
<g>
	<path d="M152.682-5.066c0.046,0.188,0.021,0.362-0.076,0.522s-0.24,0.264-0.428,0.31s-0.362,0.021-0.522-0.075
		c-0.161-0.098-0.264-0.239-0.311-0.427c-0.046-0.189-0.021-0.364,0.076-0.524c0.097-0.16,0.24-0.264,0.428-0.31
		s0.362-0.021,0.522,0.075C152.532-5.397,152.636-5.256,152.682-5.066z"/>
</g>
<g>
	<path d="M165.059-8.116c0.046,0.188,0.021,0.362-0.076,0.522s-0.24,0.264-0.428,0.31c-0.188,0.047-0.362,0.021-0.522-0.075
		c-0.161-0.097-0.264-0.239-0.311-0.427c-0.046-0.189-0.021-0.363,0.076-0.524c0.097-0.159,0.24-0.263,0.428-0.31
		c0.188-0.046,0.362-0.021,0.522,0.075C164.909-8.447,165.013-8.305,165.059-8.116z"/>
</g>
<g>
	<path d="M177.435-11.165c0.046,0.188,0.021,0.361-0.076,0.522c-0.097,0.159-0.24,0.263-0.428,0.31
		c-0.188,0.046-0.362,0.021-0.522-0.076c-0.161-0.097-0.264-0.239-0.311-0.427c-0.046-0.189-0.021-0.363,0.076-0.524
		c0.097-0.159,0.24-0.263,0.428-0.309c0.188-0.047,0.362-0.021,0.522,0.075S177.389-11.354,177.435-11.165z"/>
</g>
<g>
	<path d="M189.81-14.214c0.046,0.188,0.02,0.361-0.077,0.522c-0.097,0.159-0.24,0.263-0.428,0.31
		c-0.188,0.046-0.363,0.021-0.522-0.076c-0.161-0.097-0.264-0.239-0.31-0.427c-0.047-0.189-0.021-0.363,0.076-0.524
		c0.097-0.159,0.24-0.263,0.428-0.309c0.188-0.047,0.363-0.021,0.522,0.075C189.659-14.546,189.763-14.403,189.81-14.214z"/>
</g>
<g>
	<path d="M202.186-17.263c0.046,0.188,0.02,0.362-0.077,0.522c-0.097,0.16-0.24,0.264-0.428,0.31s-0.363,0.021-0.522-0.075
		c-0.161-0.098-0.264-0.239-0.31-0.427c-0.047-0.189-0.021-0.364,0.076-0.524s0.24-0.264,0.428-0.31s0.363-0.021,0.522,0.075
		C202.035-17.594,202.139-17.453,202.186-17.263z"/>
</g>
<g>
	<path d="M17.123,64.696c0.22,0.891,0.082,1.677-0.413,2.354c-0.495,0.679-1.217,1.135-2.167,1.369
		c-0.822,0.202-1.574,0.219-2.255,0.052c-0.391-0.093-0.696-0.224-0.916-0.39l0.355-0.733c0.242,0.087,0.479,0.176,0.712,0.266
		c0.57,0.144,1.147,0.143,1.732-0.002c0.762-0.188,1.325-0.515,1.687-0.982c0.363-0.467,0.468-1.012,0.314-1.636
		c-0.122-0.495-0.413-0.886-0.872-1.172c-0.383-0.231-0.839-0.335-1.369-0.309c-0.321,0.016-0.794,0.1-1.417,0.254l-0.149,0.036
		l-0.201-0.816l0.253-0.062c0.584-0.145,1.016-0.287,1.296-0.431c0.421-0.208,0.747-0.503,0.979-0.887
		c0.231-0.382,0.285-0.825,0.16-1.331c-0.134-0.544-0.431-0.938-0.89-1.182s-1.016-0.286-1.669-0.125
		c-0.545,0.135-1.044,0.41-1.498,0.826c-0.268,0.233-0.461,0.449-0.581,0.647l-0.651-0.47c0.053-0.171,0.275-0.44,0.667-0.812
		c0.563-0.526,1.206-0.879,1.93-1.058c0.92-0.227,1.708-0.162,2.362,0.19c0.653,0.354,1.078,0.926,1.273,1.718
		c0.144,0.584,0.102,1.137-0.128,1.654c-0.239,0.563-0.651,0.959-1.235,1.187c0.658-0.099,1.232,0.025,1.722,0.371
		C16.643,63.573,16.967,64.062,17.123,64.696z"/>
	<path d="M21.463,65.943c0.046,0.188,0.021,0.361-0.076,0.522c-0.097,0.159-0.24,0.263-0.428,0.31
		c-0.188,0.046-0.362,0.021-0.522-0.076c-0.161-0.097-0.264-0.239-0.311-0.427c-0.046-0.188-0.021-0.363,0.076-0.524
		c0.097-0.159,0.239-0.263,0.428-0.309c0.188-0.047,0.362-0.021,0.522,0.075S21.416,65.755,21.463,65.943z"/>
	<path d="M29.854,64.458l-6.015,1.481l-0.194-0.787c0.196-0.311,0.394-0.617,0.592-0.918c0.409-0.646,0.724-1.154,0.948-1.524
		c0.812-1.345,1.35-2.365,1.608-3.059c0.297-0.799,0.371-1.504,0.22-2.117c-0.164-0.664-0.473-1.129-0.927-1.396
		c-0.454-0.265-1.013-0.316-1.675-0.153c-0.516,0.127-1.01,0.401-1.483,0.822c-0.292,0.262-0.491,0.479-0.596,0.651l-0.659-0.437
		c0.084-0.211,0.31-0.491,0.674-0.845c0.573-0.528,1.23-0.886,1.974-1.069c0.9-0.222,1.681-0.145,2.341,0.234
		c0.661,0.378,1.098,1.003,1.313,1.874c0.186,0.753,0.097,1.609-0.266,2.571c-0.237,0.614-0.69,1.478-1.362,2.588l-1.481,2.428
		l4.782-1.178L29.854,64.458z"/>
	<path d="M33.476,62.983c0.046,0.188,0.021,0.361-0.076,0.522c-0.097,0.159-0.24,0.263-0.428,0.309
		c-0.188,0.047-0.362,0.021-0.522-0.075c-0.161-0.097-0.264-0.239-0.311-0.427c-0.046-0.188-0.021-0.363,0.076-0.524
		c0.097-0.159,0.239-0.263,0.428-0.31c0.188-0.046,0.362-0.021,0.522,0.076S33.43,62.795,33.476,62.983z"/>
	<path d="M39.907,61.98l-0.936,0.23l-2.166-8.792l-2.029,2.25l-0.677-0.575l2.581-2.825l0.787-0.194L39.907,61.98z"/>
</g>
<g>
	<path d="M54.18,55.202c0.176,0.713,0.276,1.188,0.303,1.422c0.049,0.545-0.041,1.008-0.272,1.391
		c-0.298,0.494-0.764,0.818-1.398,0.975c-0.455,0.112-0.918,0.131-1.387,0.059c-0.304-0.041-0.512-0.095-0.623-0.162l0.199-0.789
		c0.576,0.162,1.057,0.196,1.443,0.102c0.643-0.159,0.995-0.52,1.057-1.08c0.031-0.26-0.028-0.691-0.178-1.296l-1.778-7.217
		l0.951-0.234L54.18,55.202z"/>
	<path d="M62.525,56.408l-0.817,0.201l-0.139-0.564c-0.595,0.65-1.309,1.078-2.141,1.283c-0.723,0.179-1.35,0.107-1.88-0.214
		c-0.382-0.231-0.683-0.599-0.901-1.101c-0.083-0.211-0.207-0.649-0.37-1.311l-1.003-4.07l0.891-0.22l1.046,4.248
		c0.229,0.931,0.52,1.503,0.872,1.715c0.352,0.213,0.754,0.264,1.21,0.151c0.446-0.109,0.899-0.337,1.36-0.682
		c0.215-0.19,0.433-0.375,0.651-0.556l-1.427-5.792l0.891-0.219L62.525,56.408z"/>
	<path d="M70.233,54.508l-0.816,0.201l-0.131-0.535c-0.452,0.595-1.09,0.993-1.911,1.196c-0.94,0.232-1.779,0.09-2.516-0.428
		c-0.736-0.517-1.237-1.315-1.504-2.395c-0.28-1.139-0.182-2.146,0.294-3.025c0.478-0.879,1.23-1.445,2.26-1.699
		c0.634-0.156,1.206-0.155,1.718,0.002l-0.934-3.787l0.906-0.224L70.233,54.508z M68.998,53.394l-1.16-4.707
		c-0.633-0.18-1.211-0.205-1.736-0.076c-0.772,0.19-1.326,0.629-1.661,1.315s-0.388,1.494-0.158,2.426
		c0.202,0.821,0.582,1.437,1.14,1.845s1.173,0.531,1.846,0.365C67.873,54.413,68.449,54.024,68.998,53.394z"/>
	<path d="M77.966,52.713c0.295,1.197,0.276,2.079-0.057,2.645c-0.386,0.652-1.093,1.105-2.123,1.359
		c-0.673,0.165-1.336,0.182-1.988,0.048c-0.396-0.07-0.686-0.161-0.871-0.273l0.247-0.723c0.475,0.135,0.729,0.209,0.764,0.223
		c0.559,0.092,1.09,0.077,1.595-0.048c0.763-0.188,1.277-0.509,1.543-0.962c0.156-0.26,0.227-0.55,0.21-0.872
		c-0.019-0.246-0.106-0.688-0.263-1.321l-0.135-0.549c-0.633,0.587-1.275,0.96-1.929,1.122c-0.891,0.219-1.702,0.07-2.434-0.449
		c-0.731-0.518-1.224-1.291-1.478-2.322c-0.271-1.098-0.16-2.089,0.331-2.971c0.491-0.883,1.251-1.451,2.281-1.705
		c0.644-0.158,1.521-0.159,2.63-0.003L77.966,52.713z M76.676,51.377l-1.164-4.723c-0.591-0.096-1.159-0.077-1.704,0.057
		c-0.771,0.19-1.327,0.622-1.666,1.292c-0.339,0.672-0.398,1.453-0.179,2.345c0.203,0.822,0.568,1.435,1.099,1.841
		c0.531,0.403,1.128,0.525,1.791,0.362C75.388,52.419,75.996,52.029,76.676,51.377z"/>
	<path d="M84.726,46.841c0.005,0.021,0.017,0.092,0.036,0.212s0.036,0.212,0.051,0.271l-5.108,1.259
		c0.2,0.812,0.574,1.412,1.122,1.803c0.547,0.39,1.212,0.489,1.994,0.296c0.604-0.148,1.245-0.512,1.922-1.087l0.569,0.583
		c-0.04,0.094-0.251,0.282-0.633,0.565c-0.538,0.374-1.113,0.637-1.728,0.788c-1.02,0.251-1.907,0.113-2.662-0.415
		c-0.755-0.527-1.268-1.342-1.539-2.44c-0.283-1.148-0.214-2.139,0.205-2.973s1.124-1.372,2.114-1.616
		c0.841-0.207,1.588-0.075,2.239,0.394C83.988,44.975,84.461,45.762,84.726,46.841z M83.751,46.782
		c-0.154-0.623-0.424-1.124-0.811-1.501c-0.478-0.45-1.035-0.596-1.667-0.439c-0.634,0.155-1.115,0.505-1.443,1.048
		s-0.422,1.186-0.28,1.928L83.751,46.782z"/>
	<path d="M97.097,47.889l-0.891,0.22l-1.046-4.248c-0.239-0.969-0.531-1.559-0.877-1.77c-0.309-0.186-0.695-0.221-1.16-0.106
		c-0.703,0.174-1.372,0.569-2.007,1.188c0.135,0.166,0.319,0.72,0.551,1.66l1.021,4.144l-0.892,0.219l-0.962-3.904
		c-0.176-0.715-0.306-1.176-0.388-1.386c-0.143-0.364-0.325-0.613-0.546-0.747c-0.309-0.188-0.686-0.226-1.132-0.116
		c-0.732,0.181-1.384,0.583-1.955,1.207l1.434,5.821l-0.891,0.22l-1.756-7.129l0.846-0.209l0.128,0.52
		c0.658-0.654,1.353-1.073,2.085-1.253c0.782-0.193,1.439-0.061,1.973,0.396c0.765-0.776,1.557-1.266,2.379-1.468
		c0.663-0.164,1.241-0.096,1.735,0.203c0.407,0.245,0.718,0.61,0.931,1.092c0.123,0.286,0.287,0.845,0.492,1.677L97.097,47.889z"/>
	<path d="M103.78,42.147c0.005,0.021,0.017,0.091,0.037,0.212c0.019,0.12,0.036,0.211,0.051,0.271l-5.108,1.259
		c0.2,0.812,0.574,1.413,1.121,1.803c0.548,0.391,1.213,0.489,1.995,0.297c0.604-0.148,1.244-0.512,1.921-1.088l0.57,0.584
		c-0.04,0.094-0.251,0.281-0.633,0.565c-0.537,0.374-1.113,0.637-1.727,0.788c-1.02,0.251-1.907,0.113-2.662-0.415
		c-0.755-0.528-1.269-1.342-1.539-2.44c-0.283-1.148-0.215-2.14,0.205-2.973c0.419-0.834,1.124-1.372,2.114-1.616
		c0.841-0.207,1.588-0.075,2.239,0.394C103.041,40.281,103.513,41.068,103.78,42.147z M102.803,42.087
		c-0.153-0.623-0.423-1.124-0.811-1.501c-0.479-0.449-1.034-0.595-1.668-0.439c-0.633,0.156-1.114,0.506-1.443,1.049
		c-0.328,0.543-0.422,1.186-0.281,1.928L102.803,42.087z"/>
	<path d="M111.903,44.24l-0.891,0.22l-1.024-4.158c-0.139-0.563-0.249-0.947-0.33-1.147c-0.145-0.332-0.335-0.567-0.569-0.711
		c-0.333-0.201-0.737-0.243-1.212-0.126c-0.446,0.109-0.908,0.345-1.386,0.704c-0.357,0.256-0.566,0.434-0.625,0.532l1.434,5.821
		l-0.891,0.22l-1.756-7.129l0.846-0.209l0.128,0.52c0.628-0.646,1.353-1.073,2.175-1.275c0.703-0.173,1.301-0.11,1.795,0.188
		c0.37,0.223,0.656,0.552,0.857,0.985c0.113,0.246,0.244,0.67,0.393,1.273L111.903,44.24z"/>
	<path d="M117.666,42.631c-0.399,0.34-0.842,0.57-1.327,0.689c-0.643,0.159-1.174,0.111-1.594-0.143
		c-0.234-0.141-0.416-0.364-0.542-0.669c-0.091-0.198-0.2-0.555-0.327-1.069l-1.04-4.218l-1.247,0.308l-0.18-0.729l1.248-0.308
		l-0.498-2.02l0.891-0.22l0.498,2.02l2.287-0.563l0.18,0.729l-2.287,0.563l0.995,4.039c0.158,0.645,0.299,1.045,0.422,1.204
		c0.219,0.292,0.591,0.375,1.116,0.245c0.228-0.056,0.457-0.149,0.688-0.28c0.099-0.066,0.203-0.135,0.312-0.203L117.666,42.631z"/>
	<path d="M123.517,37.803l-4.752,1.171l-0.194-0.787l4.752-1.171L123.517,37.803z"/>
	<path d="M132.359,36.224c0.19,0.771,0.099,1.467-0.274,2.084c-0.329,0.542-0.835,0.956-1.521,1.241
		c-0.371,0.154-1.187,0.386-2.443,0.696l-1.232,0.304l-2.44-9.905l2.495-0.615c0.624-0.153,1.102-0.235,1.437-0.244
		c0.492-0.005,0.929,0.106,1.312,0.339c0.642,0.388,1.056,0.963,1.244,1.725c0.139,0.564,0.104,1.083-0.105,1.555
		c-0.209,0.472-0.554,0.819-1.035,1.043C131.182,34.323,132.037,34.917,132.359,36.224z M129.958,32.042
		c-0.127-0.514-0.394-0.896-0.801-1.143c-0.345-0.208-0.794-0.281-1.345-0.219c-0.226,0.023-0.719,0.13-1.481,0.317l-0.742,0.184
		l0.919,3.728l0.979-0.242c1.188-0.292,1.95-0.717,2.285-1.272C130.018,32.989,130.08,32.538,129.958,32.042z M131.401,36.49
		c-0.12-0.484-0.395-0.857-0.827-1.119c-0.383-0.23-0.884-0.307-1.506-0.228c-0.235,0.026-0.778,0.145-1.629,0.354l-0.742,0.184
		l0.948,3.847l1.083-0.268c0.713-0.176,1.228-0.345,1.545-0.506c0.411-0.207,0.734-0.504,0.969-0.893
		C131.477,37.473,131.53,37.016,131.401,36.49z"/>
	<path d="M139.823,37.362l-0.817,0.201l-0.132-0.535c-0.199,0.176-0.397,0.351-0.596,0.524c-0.48,0.351-0.983,0.59-1.508,0.719
		c-0.683,0.169-1.285,0.104-1.805-0.193s-0.858-0.768-1.017-1.411c-0.383-1.555,0.797-2.669,3.539-3.345l0.371-0.092l-0.066-0.268
		c-0.185-0.752-0.427-1.223-0.726-1.412c-0.335-0.211-0.82-0.238-1.454-0.082c-0.653,0.161-1.266,0.511-1.836,1.051l-0.525-0.532
		c0.083-0.137,0.284-0.321,0.603-0.558c0.488-0.362,1.045-0.62,1.668-0.773c0.832-0.205,1.531-0.137,2.1,0.206
		c0.32,0.194,0.562,0.472,0.724,0.83c0.105,0.216,0.221,0.576,0.346,1.081L139.823,37.362z M138.631,36.364l-0.593-2.406l-0.4,0.099
		c-2.108,0.52-3.03,1.319-2.765,2.398c0.096,0.387,0.298,0.673,0.606,0.858c0.345,0.21,0.78,0.25,1.305,0.121
		C137.279,37.312,137.894,36.954,138.631,36.364z"/>
	<path d="M145.714,33.847c0.164,0.663,0.062,1.239-0.306,1.729c-0.368,0.489-0.948,0.832-1.74,1.027
		c-0.574,0.142-1.161,0.17-1.759,0.086c-0.413-0.056-0.681-0.121-0.804-0.195l0.218-0.778c0.692,0.25,1.389,0.288,2.092,0.115
		c0.535-0.132,0.925-0.348,1.172-0.645c0.248-0.296,0.323-0.639,0.229-1.024c-0.103-0.415-0.39-0.707-0.861-0.874
		c-0.171-0.053-0.604-0.125-1.298-0.217c-0.749-0.099-1.267-0.218-1.554-0.357c-0.476-0.229-0.785-0.631-0.926-1.205
		c-0.139-0.563-0.026-1.072,0.34-1.525c0.366-0.452,0.891-0.763,1.574-0.932c0.535-0.131,1.069-0.157,1.604-0.079
		c0.348,0.05,0.584,0.113,0.707,0.188l-0.198,0.727c-0.668-0.192-1.283-0.22-1.847-0.08c-0.426,0.104-0.763,0.292-1.011,0.563
		c-0.248,0.271-0.333,0.564-0.255,0.881c0.09,0.367,0.314,0.617,0.672,0.749c0.15,0.058,0.547,0.133,1.19,0.228
		c0.828,0.121,1.376,0.237,1.646,0.35C145.193,32.82,145.565,33.243,145.714,33.847z"/>
	<path d="M152.682,30.097c0.005,0.021,0.017,0.092,0.036,0.212c0.02,0.121,0.036,0.212,0.051,0.271l-5.108,1.259
		c0.2,0.812,0.574,1.412,1.122,1.803c0.548,0.39,1.213,0.489,1.994,0.297c0.604-0.149,1.245-0.512,1.922-1.088l0.569,0.584
		c-0.04,0.094-0.251,0.281-0.633,0.564c-0.538,0.374-1.113,0.638-1.727,0.788c-1.021,0.252-1.907,0.114-2.662-0.415
		c-0.755-0.527-1.269-1.342-1.539-2.44c-0.283-1.148-0.215-2.139,0.205-2.973c0.419-0.833,1.124-1.372,2.114-1.615
		c0.841-0.208,1.588-0.075,2.239,0.393C151.943,28.232,152.416,29.019,152.682,30.097z M151.706,30.038
		c-0.153-0.623-0.423-1.124-0.811-1.501c-0.479-0.45-1.034-0.596-1.668-0.439s-1.114,0.506-1.443,1.049
		c-0.328,0.542-0.422,1.185-0.281,1.927L151.706,30.038z"/>
	<path d="M160.939,32.158l-0.816,0.201l-0.131-0.535c-0.452,0.596-1.09,0.993-1.911,1.196c-0.94,0.231-1.779,0.09-2.515-0.428
		c-0.737-0.517-1.238-1.315-1.504-2.395c-0.28-1.139-0.182-2.146,0.294-3.025c0.478-0.879,1.23-1.445,2.26-1.699
		c0.634-0.156,1.206-0.155,1.718,0.002l-0.933-3.787l0.905-0.224L160.939,32.158z M159.704,31.045l-1.159-4.707
		c-0.633-0.18-1.212-0.206-1.737-0.077c-0.772,0.19-1.326,0.629-1.661,1.315s-0.388,1.494-0.158,2.426
		c0.202,0.821,0.582,1.437,1.14,1.845s1.173,0.531,1.846,0.365C158.579,32.064,159.155,31.674,159.704,31.045z"/>
	<path d="M173.725,29.008l-0.95,0.234l-1.186-4.812l-5.004,1.232l1.185,4.812l-0.951,0.233l-2.44-9.905l0.951-0.234l1.057,4.293
		l5.005-1.233l-1.058-4.292l0.95-0.234L173.725,29.008z"/>
	<path d="M180.749,23.182c0.005,0.021,0.017,0.091,0.036,0.212c0.02,0.12,0.036,0.211,0.051,0.271l-5.108,1.258
		c0.2,0.812,0.574,1.413,1.122,1.803c0.548,0.391,1.213,0.489,1.994,0.297c0.604-0.148,1.245-0.512,1.922-1.088l0.569,0.584
		c-0.04,0.094-0.251,0.281-0.633,0.565c-0.538,0.374-1.113,0.637-1.727,0.788c-1.021,0.251-1.908,0.113-2.663-0.415
		c-0.755-0.528-1.268-1.342-1.539-2.44c-0.283-1.148-0.215-2.14,0.205-2.973c0.419-0.834,1.124-1.372,2.114-1.616
		c0.842-0.207,1.588-0.075,2.24,0.394C180.01,21.316,180.483,22.103,180.749,23.182z M179.773,23.122
		c-0.153-0.623-0.424-1.123-0.811-1.501c-0.478-0.449-1.034-0.595-1.667-0.439c-0.634,0.156-1.114,0.506-1.443,1.049
		s-0.422,1.186-0.281,1.928L179.773,23.122z"/>
	<path d="M188.769,25.301l-0.816,0.202l-0.139-0.564c-0.596,0.65-1.31,1.078-2.141,1.283c-0.723,0.178-1.35,0.106-1.88-0.214
		c-0.382-0.231-0.683-0.599-0.902-1.101c-0.083-0.211-0.207-0.648-0.37-1.311l-1.002-4.07l0.891-0.22l1.047,4.248
		c0.229,0.931,0.52,1.502,0.872,1.715c0.351,0.213,0.754,0.264,1.21,0.151c0.445-0.109,0.899-0.338,1.36-0.682
		c0.215-0.19,0.433-0.375,0.65-0.556l-1.427-5.792l0.891-0.22L188.769,25.301z"/>
	<path d="M192.92,16.639l-0.025,0.794c-0.215,0.021-0.412,0.054-0.59,0.098c-0.445,0.109-0.826,0.314-1.141,0.612
		c-0.23,0.215-0.416,0.464-0.556,0.751c-0.06,0.141-0.114,0.28-0.164,0.419l1.295,5.257l-0.891,0.22l-1.756-7.129l0.846-0.209
		l0.231,0.937c0.438-0.905,1.098-1.468,1.979-1.685C192.405,16.64,192.662,16.618,192.92,16.639z"/>
	<path d="M194.721,13.722c0.039,0.158,0.017,0.311-0.068,0.458c-0.084,0.147-0.211,0.241-0.379,0.283
		c-0.158,0.039-0.311,0.014-0.459-0.076c-0.148-0.09-0.242-0.214-0.281-0.372c-0.041-0.168-0.017-0.324,0.074-0.467
		c0.091-0.144,0.215-0.234,0.373-0.273c0.169-0.042,0.324-0.02,0.466,0.066C194.588,13.426,194.679,13.554,194.721,13.722z
		 M196.922,23.292l-0.891,0.22l-1.756-7.129l0.891-0.22L196.922,23.292z"/>
	<path d="M202.918,19.752c0.163,0.663,0.062,1.239-0.307,1.729c-0.367,0.489-0.948,0.832-1.74,1.027
		c-0.574,0.142-1.161,0.17-1.758,0.086c-0.413-0.056-0.681-0.121-0.805-0.195l0.218-0.778c0.691,0.25,1.389,0.288,2.092,0.115
		c0.535-0.132,0.925-0.347,1.172-0.645c0.247-0.296,0.323-0.639,0.228-1.024c-0.102-0.415-0.39-0.707-0.861-0.874
		c-0.17-0.053-0.603-0.125-1.297-0.216c-0.749-0.1-1.267-0.219-1.554-0.358c-0.477-0.229-0.785-0.631-0.927-1.205
		c-0.139-0.563-0.026-1.072,0.341-1.524c0.366-0.453,0.89-0.764,1.574-0.932c0.535-0.132,1.069-0.158,1.604-0.08
		c0.348,0.051,0.584,0.113,0.707,0.188l-0.199,0.727c-0.667-0.193-1.283-0.22-1.847-0.08c-0.426,0.104-0.763,0.292-1.011,0.563
		c-0.248,0.271-0.333,0.565-0.254,0.882c0.09,0.367,0.313,0.616,0.672,0.748c0.151,0.058,0.548,0.133,1.19,0.228
		c0.828,0.121,1.376,0.237,1.646,0.35C202.397,18.725,202.769,19.149,202.918,19.752z"/>
	<path d="M208.922,20.147c-0.399,0.34-0.842,0.569-1.327,0.689c-0.644,0.158-1.175,0.111-1.594-0.143
		c-0.235-0.142-0.416-0.365-0.543-0.669c-0.092-0.199-0.2-0.555-0.327-1.07l-1.039-4.217l-1.247,0.307l-0.18-0.729l1.247-0.307
		l-0.498-2.02l0.891-0.22l0.498,2.02l2.287-0.563l0.18,0.729l-2.287,0.563l0.995,4.039c0.158,0.645,0.299,1.045,0.423,1.204
		c0.219,0.292,0.59,0.374,1.115,0.245c0.228-0.057,0.456-0.15,0.688-0.28c0.099-0.067,0.202-0.135,0.312-0.203L208.922,20.147z"/>
	<path d="M209.319,10.125c0.039,0.158,0.016,0.311-0.068,0.458c-0.084,0.146-0.211,0.241-0.379,0.283
		c-0.158,0.039-0.312,0.014-0.46-0.076s-0.241-0.215-0.28-0.373c-0.042-0.168-0.018-0.324,0.073-0.466
		c0.091-0.144,0.216-0.234,0.374-0.273c0.168-0.042,0.323-0.021,0.465,0.066C209.186,9.829,209.278,9.957,209.319,10.125z
		 M211.52,19.696l-0.891,0.22l-1.757-7.129l0.891-0.22L211.52,19.696z"/>
	<path d="M218.866,17.287c-0.056,0.118-0.267,0.307-0.633,0.564c-0.511,0.358-1.054,0.606-1.628,0.748
		c-1,0.247-1.891,0.124-2.673-0.364c-0.782-0.49-1.309-1.28-1.576-2.368c-0.283-1.148-0.185-2.166,0.296-3.05
		c0.479-0.885,1.245-1.458,2.294-1.717c0.525-0.129,1.062-0.146,1.611-0.05c0.34,0.063,0.579,0.137,0.715,0.217l-0.248,0.723
		c-0.659-0.204-1.301-0.23-1.924-0.076c-0.764,0.188-1.315,0.621-1.657,1.299c-0.343,0.677-0.409,1.442-0.199,2.294
		c0.212,0.86,0.615,1.496,1.21,1.906c0.596,0.41,1.259,0.525,1.991,0.345c0.604-0.148,1.227-0.497,1.869-1.044L218.866,17.287z"/>
	<path d="M224.54,14.424c0.163,0.663,0.061,1.239-0.307,1.73c-0.367,0.489-0.947,0.832-1.74,1.027
		c-0.574,0.142-1.16,0.17-1.758,0.086c-0.413-0.056-0.682-0.121-0.805-0.195l0.218-0.779c0.692,0.251,1.389,0.289,2.092,0.116
		c0.534-0.132,0.926-0.348,1.173-0.645c0.247-0.296,0.322-0.639,0.228-1.024c-0.103-0.415-0.39-0.707-0.861-0.875
		c-0.17-0.052-0.603-0.125-1.297-0.216c-0.749-0.099-1.267-0.218-1.554-0.357c-0.477-0.229-0.785-0.631-0.927-1.205
		c-0.139-0.563-0.026-1.072,0.341-1.525c0.366-0.453,0.891-0.764,1.574-0.932c0.534-0.132,1.068-0.157,1.603-0.079
		c0.349,0.05,0.585,0.113,0.708,0.188l-0.199,0.727c-0.667-0.193-1.283-0.22-1.847-0.081c-0.426,0.105-0.763,0.293-1.011,0.564
		s-0.334,0.564-0.256,0.881c0.091,0.367,0.314,0.617,0.673,0.749c0.15,0.058,0.547,0.133,1.19,0.227
		c0.828,0.122,1.376,0.238,1.646,0.351C224.018,13.398,224.391,13.821,224.54,14.424z"/>
</g>
<g>
	<path d="M235.921,13.101c0.047,0.188,0.021,0.362-0.076,0.522c-0.097,0.16-0.239,0.264-0.428,0.31
		c-0.188,0.047-0.362,0.021-0.521-0.075c-0.161-0.097-0.265-0.239-0.311-0.427c-0.047-0.188-0.021-0.363,0.076-0.524
		c0.097-0.159,0.239-0.263,0.428-0.31c0.188-0.046,0.362-0.021,0.521,0.075C235.77,12.77,235.875,12.912,235.921,13.101z"/>
</g>
<g>
	<path d="M248.297,10.052c0.047,0.188,0.02,0.361-0.076,0.522c-0.098,0.159-0.24,0.263-0.428,0.31
		c-0.188,0.046-0.363,0.021-0.523-0.076s-0.264-0.239-0.311-0.427c-0.045-0.188-0.02-0.363,0.076-0.524
		c0.098-0.159,0.24-0.263,0.428-0.309c0.188-0.047,0.363-0.021,0.523,0.075S248.25,9.864,248.297,10.052z"/>
</g>
<g>
	<path d="M260.672,7.002c0.047,0.188,0.021,0.362-0.076,0.522c-0.096,0.16-0.24,0.264-0.428,0.31s-0.361,0.021-0.521-0.075
		c-0.16-0.098-0.264-0.239-0.311-0.427c-0.047-0.188-0.021-0.364,0.076-0.524s0.238-0.264,0.428-0.31
		c0.188-0.046,0.363-0.021,0.521,0.075C260.522,6.671,260.627,6.814,260.672,7.002z"/>
</g>
<g>
	<path d="M273.047,3.953c0.047,0.188,0.021,0.361-0.076,0.522c-0.096,0.159-0.24,0.263-0.428,0.31
		c-0.188,0.046-0.361,0.021-0.521-0.075c-0.16-0.098-0.264-0.24-0.311-0.428c-0.047-0.188-0.021-0.363,0.076-0.523
		s0.238-0.264,0.428-0.31c0.188-0.047,0.363-0.021,0.521,0.075C272.897,3.621,273.002,3.765,273.047,3.953z"/>
</g>
<g>
	<path d="M285.424,0.905c0.045,0.188,0.02,0.361-0.076,0.521c-0.098,0.16-0.24,0.264-0.428,0.31
		c-0.189,0.047-0.363,0.021-0.523-0.075s-0.264-0.239-0.311-0.427c-0.047-0.188-0.021-0.363,0.076-0.524
		c0.098-0.159,0.24-0.263,0.428-0.31c0.188-0.046,0.363-0.021,0.523,0.075C285.274,0.573,285.377,0.716,285.424,0.905z"/>
</g>
<g>
	<path d="M297.799-2.145c0.045,0.188,0.02,0.362-0.076,0.522c-0.098,0.159-0.24,0.264-0.428,0.31
		c-0.189,0.047-0.363,0.021-0.523-0.075c-0.16-0.098-0.264-0.239-0.311-0.427c-0.047-0.188-0.021-0.364,0.076-0.524
		s0.24-0.263,0.428-0.31c0.188-0.046,0.363-0.021,0.523,0.075C297.649-2.476,297.752-2.334,297.799-2.145z"/>
</g>
<g>
	<path d="M310.174-5.194c0.047,0.188,0.021,0.361-0.076,0.522c-0.096,0.159-0.24,0.263-0.428,0.309
		c-0.188,0.047-0.361,0.021-0.521-0.075c-0.162-0.097-0.266-0.239-0.311-0.427c-0.047-0.188-0.021-0.363,0.076-0.524
		c0.096-0.159,0.238-0.263,0.428-0.31c0.188-0.046,0.361-0.021,0.521,0.076S310.127-5.383,310.174-5.194z"/>
</g>
<g>
	<path d="M322.551-8.244c0.045,0.188,0.02,0.362-0.076,0.522c-0.098,0.16-0.24,0.264-0.428,0.31
		c-0.189,0.046-0.363,0.021-0.523-0.075c-0.16-0.098-0.264-0.24-0.311-0.428s-0.021-0.363,0.076-0.523s0.24-0.264,0.428-0.31
		s0.363-0.021,0.523,0.075C322.401-8.575,322.504-8.432,322.551-8.244z"/>
</g>
<g>
	<path d="M334.926-11.293c0.047,0.188,0.021,0.361-0.076,0.522c-0.096,0.159-0.24,0.263-0.428,0.309
		c-0.188,0.047-0.361,0.021-0.521-0.075c-0.162-0.097-0.266-0.239-0.311-0.427c-0.047-0.188-0.021-0.363,0.076-0.524
		c0.096-0.159,0.238-0.263,0.428-0.31c0.188-0.046,0.361-0.021,0.521,0.076S334.879-11.481,334.926-11.293z"/>
</g>
<g>
	<path d="M347.301-14.343c0.047,0.188,0.021,0.362-0.076,0.522c-0.096,0.16-0.24,0.264-0.428,0.31
		c-0.188,0.047-0.361,0.021-0.521-0.075c-0.162-0.098-0.266-0.239-0.311-0.427c-0.047-0.188-0.021-0.364,0.076-0.524
		c0.096-0.159,0.238-0.263,0.428-0.31c0.188-0.046,0.361-0.021,0.521,0.075C347.151-14.674,347.254-14.531,347.301-14.343z"/>
</g>
<g>
	<path d="M359.676-17.391c0.047,0.188,0.021,0.361-0.076,0.522c-0.096,0.159-0.24,0.263-0.428,0.31
		c-0.188,0.046-0.361,0.021-0.521-0.075c-0.162-0.098-0.266-0.24-0.311-0.428c-0.047-0.188-0.021-0.363,0.076-0.523
		c0.096-0.16,0.238-0.264,0.428-0.31c0.188-0.047,0.361-0.021,0.521,0.075S359.629-17.58,359.676-17.391z"/>
</g>
<g>
	<path d="M42.814,97.045c0.22,0.892,0.083,1.677-0.412,2.354s-1.217,1.135-2.167,1.369c-0.822,0.202-1.574,0.22-2.256,0.051
		c-0.39-0.092-0.695-0.222-0.915-0.389l0.355-0.732c0.242,0.086,0.479,0.175,0.711,0.265c0.571,0.144,1.148,0.143,1.732-0.001
		c0.763-0.188,1.325-0.516,1.688-0.983c0.362-0.467,0.468-1.012,0.314-1.637c-0.122-0.494-0.413-0.884-0.872-1.171
		c-0.383-0.23-0.839-0.334-1.368-0.31c-0.321,0.018-0.794,0.102-1.418,0.256l-0.149,0.036l-0.201-0.816l0.253-0.062
		c0.584-0.145,1.016-0.287,1.296-0.431c0.421-0.208,0.747-0.504,0.979-0.888c0.231-0.381,0.285-0.825,0.16-1.33
		c-0.134-0.545-0.431-0.938-0.89-1.184c-0.459-0.244-1.015-0.284-1.668-0.123c-0.545,0.135-1.044,0.408-1.498,0.825
		c-0.268,0.234-0.462,0.45-0.581,0.647l-0.651-0.47c0.052-0.17,0.275-0.44,0.667-0.811c0.563-0.527,1.206-0.879,1.929-1.058
		c0.921-0.227,1.708-0.164,2.363,0.189c0.654,0.354,1.078,0.926,1.274,1.719c0.144,0.584,0.102,1.136-0.128,1.654
		c-0.239,0.562-0.651,0.959-1.235,1.186c0.658-0.099,1.231,0.024,1.721,0.371C42.335,95.922,42.658,96.411,42.814,97.045z"/>
	<path d="M47.154,98.292c0.046,0.188,0.021,0.361-0.077,0.522c-0.097,0.16-0.239,0.264-0.427,0.31
		c-0.188,0.047-0.362,0.021-0.522-0.076c-0.161-0.097-0.265-0.239-0.311-0.427c-0.046-0.188-0.021-0.362,0.077-0.523
		c0.097-0.159,0.239-0.263,0.428-0.31c0.188-0.046,0.362-0.021,0.522,0.076C47.004,97.961,47.108,98.103,47.154,98.292z"/>
	<path d="M55.546,96.806l-6.015,1.481l-0.194-0.787c0.197-0.311,0.395-0.617,0.593-0.918c0.408-0.646,0.724-1.155,0.948-1.524
		c0.812-1.346,1.35-2.364,1.608-3.059c0.297-0.798,0.37-1.504,0.219-2.117c-0.164-0.664-0.472-1.129-0.926-1.396
		c-0.454-0.265-1.013-0.315-1.675-0.152c-0.516,0.127-1.01,0.399-1.483,0.821c-0.293,0.262-0.491,0.479-0.596,0.651l-0.659-0.437
		c0.085-0.21,0.31-0.491,0.675-0.844c0.572-0.529,1.23-0.886,1.973-1.068c0.901-0.223,1.682-0.145,2.342,0.232
		c0.661,0.379,1.098,1.004,1.312,1.875c0.186,0.753,0.098,1.608-0.265,2.57c-0.237,0.614-0.69,1.479-1.362,2.588l-1.481,2.429
		l4.782-1.178L55.546,96.806z"/>
	<path d="M59.168,95.332c0.046,0.188,0.021,0.361-0.076,0.521c-0.098,0.161-0.24,0.265-0.428,0.311
		c-0.188,0.047-0.362,0.021-0.522-0.076c-0.161-0.097-0.265-0.239-0.311-0.427c-0.046-0.188-0.021-0.362,0.076-0.523
		c0.097-0.159,0.239-0.263,0.428-0.31c0.188-0.046,0.362-0.021,0.522,0.075C59.017,95.001,59.121,95.143,59.168,95.332z"/>
	<path d="M65.599,94.329l-0.936,0.23l-2.166-8.792l-2.029,2.25l-0.677-0.574l2.581-2.824l0.787-0.194L65.599,94.329z"/>
	<path d="M71.181,92.371c0.046,0.188,0.021,0.362-0.076,0.522c-0.097,0.161-0.24,0.265-0.428,0.311
		c-0.188,0.047-0.362,0.021-0.522-0.076c-0.161-0.097-0.265-0.239-0.311-0.427c-0.046-0.188-0.021-0.363,0.076-0.523
		c0.097-0.16,0.239-0.263,0.428-0.31c0.188-0.046,0.362-0.021,0.522,0.075C71.031,92.041,71.135,92.183,71.181,92.371z"/>
	<path d="M77.613,91.369l-0.936,0.23l-2.167-8.792l-2.029,2.249l-0.677-0.573l2.581-2.825l0.787-0.193L77.613,91.369z"/>
</g>
<g>
	<path d="M94.572,84.307c0.212,0.861,0.117,1.62-0.289,2.277c-0.428,0.692-1.142,1.163-2.142,1.409
		c-1.099,0.271-2.146,0.156-3.141-0.344l0.322-0.805c0.997,0.385,1.848,0.49,2.551,0.316c0.713-0.176,1.218-0.491,1.515-0.948
		c0.297-0.456,0.371-0.986,0.222-1.591c-0.107-0.435-0.371-0.779-0.79-1.033c-0.358-0.217-1.041-0.408-2.047-0.574
		c-1.008-0.167-1.727-0.381-2.159-0.642c-0.494-0.299-0.825-0.79-0.993-1.473c-0.184-0.742-0.063-1.417,0.359-2.027
		c0.422-0.607,1.069-1.019,1.94-1.233c1.119-0.275,2.111-0.147,2.978,0.386l-0.358,0.718c-0.801-0.391-1.582-0.493-2.344-0.305
		c-0.614,0.151-1.074,0.436-1.382,0.852c-0.307,0.417-0.398,0.873-0.276,1.368c0.098,0.396,0.318,0.698,0.664,0.907
		s0.983,0.389,1.912,0.537c0.994,0.154,1.698,0.327,2.113,0.52C93.934,82.974,94.382,83.535,94.572,84.307z"/>
	<path d="M102.103,85.335l-0.817,0.201l-0.132-0.534c-0.199,0.174-0.397,0.35-0.595,0.524c-0.481,0.35-0.984,0.59-1.509,0.719
		c-0.683,0.168-1.284,0.104-1.804-0.194s-0.858-0.768-1.017-1.411c-0.383-1.554,0.796-2.67,3.539-3.346l0.372-0.091l-0.066-0.267
		c-0.185-0.752-0.427-1.224-0.726-1.413c-0.336-0.211-0.82-0.238-1.454-0.082c-0.653,0.16-1.266,0.512-1.836,1.051l-0.525-0.533
		c0.082-0.135,0.283-0.321,0.603-0.558c0.488-0.361,1.044-0.619,1.668-0.773c0.832-0.205,1.531-0.136,2.099,0.208
		c0.321,0.194,0.562,0.471,0.724,0.828c0.105,0.217,0.221,0.577,0.345,1.082L102.103,85.335z M100.912,84.338l-0.593-2.407
		l-0.4,0.099c-2.109,0.52-3.03,1.32-2.765,2.399c0.096,0.386,0.297,0.672,0.605,0.858c0.345,0.208,0.781,0.249,1.306,0.12
		C99.56,85.285,100.176,84.927,100.912,84.338z"/>
	<path d="M107.866,83.726c-0.4,0.34-0.842,0.568-1.327,0.688c-0.644,0.158-1.175,0.111-1.594-0.142
		c-0.234-0.143-0.416-0.366-0.542-0.67c-0.092-0.199-0.2-0.555-0.327-1.069l-1.039-4.218l-1.247,0.307l-0.18-0.728l1.247-0.307
		l-0.498-2.021l0.892-0.22l0.498,2.021l2.287-0.563l0.18,0.728l-2.287,0.563l0.995,4.04c0.158,0.644,0.299,1.044,0.422,1.203
		c0.219,0.292,0.591,0.374,1.116,0.245c0.228-0.057,0.456-0.15,0.688-0.28c0.099-0.067,0.202-0.135,0.312-0.202L107.866,83.726z"/>
	<path d="M108.263,73.704c0.039,0.158,0.016,0.311-0.068,0.458s-0.211,0.241-0.379,0.283c-0.158,0.039-0.311,0.014-0.459-0.076
		c-0.148-0.09-0.242-0.214-0.281-0.372c-0.041-0.168-0.017-0.323,0.074-0.467c0.091-0.143,0.215-0.234,0.373-0.273
		c0.169-0.042,0.324-0.019,0.466,0.066C108.13,73.409,108.221,73.536,108.263,73.704z M110.464,83.274l-0.891,0.22l-1.756-7.128
		l0.891-0.22L110.464,83.274z"/>
	<path d="M116.459,79.734c0.164,0.663,0.062,1.24-0.306,1.729c-0.367,0.49-0.948,0.832-1.74,1.027
		c-0.574,0.142-1.161,0.17-1.758,0.086c-0.413-0.056-0.682-0.121-0.805-0.195l0.218-0.778c0.691,0.25,1.389,0.288,2.091,0.115
		c0.535-0.132,0.926-0.348,1.173-0.645c0.247-0.296,0.323-0.639,0.228-1.024c-0.103-0.415-0.39-0.707-0.861-0.874
		c-0.17-0.053-0.603-0.125-1.297-0.217c-0.749-0.099-1.267-0.218-1.554-0.357c-0.477-0.229-0.785-0.631-0.927-1.204
		c-0.139-0.564-0.026-1.073,0.341-1.526c0.366-0.452,0.891-0.763,1.574-0.932c0.535-0.131,1.069-0.157,1.604-0.078
		c0.348,0.049,0.584,0.112,0.708,0.187l-0.199,0.727c-0.667-0.192-1.283-0.22-1.847-0.08c-0.426,0.104-0.763,0.292-1.012,0.563
		c-0.247,0.271-0.332,0.565-0.254,0.883c0.09,0.366,0.314,0.616,0.672,0.747c0.151,0.058,0.548,0.133,1.19,0.228
		c0.828,0.121,1.376,0.238,1.646,0.35C115.939,78.707,116.311,79.131,116.459,79.734z"/>
	<path d="M120.418,69.78l-0.203,0.712c-0.346-0.125-0.721-0.138-1.127-0.037c-0.416,0.103-0.714,0.301-0.893,0.597
		c-0.209,0.347-0.229,0.866-0.058,1.559l0.282,1.144l2.287-0.563l0.179,0.728l-2.287,0.563l1.577,6.4l-0.891,0.22l-1.577-6.4
		l-1.263,0.311l-0.179-0.728l1.263-0.311l-0.282-1.144c-0.225-0.911-0.169-1.645,0.167-2.199c0.283-0.47,0.747-0.783,1.391-0.942
		C119.437,69.532,119.976,69.562,120.418,69.78z"/>
	<path d="M128.477,78.836l-0.817,0.201l-0.132-0.533c-0.199,0.174-0.397,0.35-0.595,0.524c-0.481,0.35-0.984,0.589-1.509,0.719
		c-0.683,0.168-1.284,0.103-1.804-0.194c-0.52-0.298-0.858-0.768-1.017-1.411c-0.383-1.554,0.796-2.67,3.539-3.346l0.371-0.092
		l-0.065-0.267c-0.186-0.752-0.427-1.224-0.726-1.412c-0.336-0.211-0.821-0.239-1.454-0.083c-0.653,0.161-1.266,0.512-1.836,1.052
		l-0.525-0.533c0.082-0.135,0.283-0.321,0.603-0.558c0.488-0.361,1.044-0.62,1.668-0.773c0.832-0.205,1.531-0.136,2.099,0.208
		c0.321,0.194,0.562,0.471,0.724,0.828c0.106,0.217,0.222,0.576,0.346,1.081L128.477,78.836z M127.286,77.839l-0.593-2.407
		l-0.4,0.099c-2.109,0.521-3.03,1.321-2.765,2.399c0.096,0.387,0.297,0.672,0.605,0.859c0.345,0.208,0.78,0.249,1.305,0.119
		C125.934,78.787,126.55,78.429,127.286,77.839z"/>
	<path d="M135.719,76.454c-0.056,0.117-0.267,0.307-0.633,0.565c-0.511,0.356-1.053,0.606-1.627,0.748
		c-1,0.246-1.891,0.124-2.673-0.366c-0.782-0.489-1.308-1.28-1.576-2.368c-0.283-1.148-0.185-2.165,0.296-3.05
		s1.245-1.458,2.294-1.716c0.525-0.13,1.062-0.146,1.61-0.05c0.341,0.062,0.58,0.136,0.715,0.218l-0.247,0.723
		c-0.66-0.205-1.302-0.231-1.926-0.078c-0.763,0.188-1.314,0.621-1.657,1.299s-0.409,1.442-0.199,2.294
		c0.212,0.861,0.615,1.496,1.21,1.906c0.595,0.41,1.259,0.525,1.991,0.345c0.604-0.148,1.227-0.496,1.869-1.043L135.719,76.454z"/>
	<path d="M141.412,75.461c-0.399,0.34-0.842,0.568-1.327,0.688c-0.644,0.158-1.175,0.111-1.595-0.142
		c-0.234-0.143-0.415-0.366-0.543-0.67c-0.091-0.199-0.199-0.555-0.326-1.07l-1.039-4.217l-1.248,0.307l-0.179-0.728l1.248-0.308
		l-0.498-2.02l0.892-0.22l0.498,2.021l2.287-0.563l0.179,0.728l-2.287,0.563l0.995,4.04c0.159,0.644,0.3,1.044,0.423,1.203
		c0.219,0.292,0.591,0.374,1.116,0.245c0.228-0.057,0.457-0.15,0.687-0.28c0.1-0.067,0.203-0.135,0.312-0.202L141.412,75.461z"/>
	<path d="M141.81,65.438c0.039,0.158,0.016,0.311-0.068,0.458c-0.084,0.146-0.211,0.241-0.379,0.283
		c-0.159,0.039-0.312,0.014-0.46-0.076c-0.148-0.09-0.242-0.215-0.281-0.373c-0.041-0.168-0.017-0.322,0.074-0.467
		c0.091-0.143,0.215-0.233,0.374-0.272c0.168-0.042,0.323-0.019,0.465,0.066C141.677,65.143,141.768,65.27,141.81,65.438z
		 M144.01,75.009l-0.891,0.22l-1.756-7.128l0.891-0.22L144.01,75.009z"/>
	<path d="M151.315,69.492c0.275,1.118,0.201,2.085-0.223,2.897c-0.424,0.814-1.137,1.344-2.137,1.591
		c-0.97,0.239-1.833,0.091-2.589-0.441c-0.757-0.533-1.275-1.368-1.556-2.508c-0.28-1.138-0.21-2.119,0.213-2.942
		c0.421-0.823,1.143-1.361,2.163-1.612c0.97-0.239,1.828-0.09,2.575,0.445C150.507,67.456,151.025,68.313,151.315,69.492z
		 M150.386,69.688c-0.217-0.881-0.614-1.546-1.192-1.997c-0.579-0.45-1.205-0.594-1.877-0.428c-0.703,0.173-1.199,0.579-1.489,1.218
		c-0.289,0.638-0.323,1.403-0.104,2.294s0.617,1.557,1.193,1.998c0.576,0.44,1.201,0.578,1.874,0.412
		c0.723-0.178,1.225-0.58,1.506-1.206S150.609,70.591,150.386,69.688z"/>
	<path d="M159.351,71.229l-0.891,0.22l-1.024-4.158c-0.139-0.564-0.249-0.947-0.33-1.147c-0.144-0.331-0.334-0.568-0.569-0.711
		c-0.333-0.201-0.737-0.243-1.212-0.127c-0.446,0.11-0.908,0.345-1.386,0.704c-0.358,0.257-0.566,0.434-0.625,0.533l1.435,5.82
		l-0.891,0.22l-1.756-7.128l0.846-0.209l0.128,0.52c0.628-0.647,1.353-1.073,2.175-1.275c0.703-0.174,1.301-0.111,1.795,0.188
		c0.37,0.225,0.656,0.553,0.857,0.985c0.113,0.246,0.244,0.671,0.393,1.275L159.351,71.229z"/>
	<path d="M169.806,68.653l-0.817,0.201l-0.132-0.534c-0.199,0.174-0.396,0.35-0.595,0.524c-0.481,0.35-0.984,0.59-1.508,0.719
		c-0.683,0.169-1.285,0.104-1.804-0.194c-0.52-0.298-0.858-0.768-1.017-1.411c-0.383-1.554,0.796-2.67,3.539-3.346l0.371-0.091
		l-0.065-0.267c-0.186-0.752-0.428-1.224-0.726-1.413c-0.336-0.211-0.821-0.238-1.455-0.082c-0.653,0.16-1.265,0.512-1.836,1.051
		l-0.524-0.532c0.082-0.136,0.283-0.321,0.603-0.558c0.488-0.362,1.045-0.62,1.668-0.774c0.832-0.204,1.532-0.136,2.1,0.208
		c0.32,0.194,0.562,0.471,0.724,0.829c0.106,0.216,0.221,0.576,0.345,1.081L169.806,68.653z M168.615,67.656l-0.593-2.407
		l-0.401,0.099c-2.108,0.52-3.03,1.32-2.764,2.399c0.095,0.386,0.297,0.672,0.605,0.858c0.345,0.208,0.781,0.249,1.306,0.12
		C167.262,68.603,167.879,68.246,168.615,67.656z"/>
	<path d="M177.276,66.812l-0.891,0.22l-1.024-4.157c-0.139-0.564-0.249-0.947-0.33-1.148c-0.145-0.331-0.335-0.568-0.568-0.71
		c-0.334-0.202-0.738-0.244-1.213-0.127c-0.446,0.109-0.908,0.345-1.386,0.704c-0.357,0.257-0.565,0.434-0.625,0.533l1.434,5.82
		l-0.891,0.219l-1.756-7.127l0.846-0.209l0.128,0.52c0.628-0.647,1.353-1.074,2.175-1.276c0.703-0.173,1.301-0.11,1.795,0.188
		c0.37,0.224,0.656,0.552,0.857,0.985c0.112,0.245,0.243,0.67,0.393,1.274L177.276,66.812z"/>
	<path d="M184.879,64.939l-0.816,0.201l-0.132-0.534c-0.452,0.595-1.089,0.993-1.911,1.195c-0.94,0.232-1.779,0.09-2.515-0.428
		c-0.736-0.517-1.238-1.314-1.504-2.395c-0.28-1.138-0.183-2.147,0.294-3.025c0.477-0.879,1.23-1.445,2.26-1.699
		c0.634-0.156,1.206-0.155,1.718,0.002l-0.933-3.788l0.905-0.223L184.879,64.939z M183.644,63.825l-1.16-4.707
		c-0.633-0.18-1.211-0.206-1.736-0.076c-0.772,0.19-1.326,0.629-1.661,1.315s-0.388,1.494-0.158,2.426
		c0.202,0.822,0.582,1.436,1.14,1.845s1.173,0.531,1.846,0.365C182.519,64.844,183.095,64.455,183.644,63.825z"/>
	<path d="M193.611,53.131l-4.143,1.021l0.867,3.52l3.876-0.955l0.193,0.787l-3.875,0.955l1.182,4.797l-0.951,0.234l-2.44-9.905
		l5.094-1.255L193.611,53.131z"/>
	<path d="M199.262,53.755l-0.025,0.793c-0.215,0.022-0.412,0.055-0.59,0.099c-0.445,0.109-0.826,0.313-1.141,0.612
		c-0.23,0.214-0.416,0.464-0.555,0.751c-0.06,0.142-0.115,0.28-0.165,0.419l1.295,5.257l-0.891,0.22l-1.756-7.129l0.846-0.208
		l0.23,0.936c0.439-0.905,1.098-1.468,1.979-1.685C198.748,53.755,199.005,53.735,199.262,53.755z"/>
	<path d="M207.764,59.301l-0.817,0.201l-0.139-0.563c-0.596,0.65-1.31,1.079-2.142,1.283c-0.722,0.179-1.349,0.106-1.88-0.215
		c-0.382-0.23-0.683-0.599-0.901-1.101c-0.083-0.211-0.207-0.647-0.37-1.311l-1.002-4.07l0.891-0.22l1.047,4.248
		c0.229,0.931,0.52,1.503,0.871,1.715c0.352,0.213,0.755,0.264,1.211,0.151c0.445-0.109,0.899-0.337,1.36-0.682
		c0.215-0.189,0.433-0.374,0.65-0.555l-1.427-5.792l0.891-0.22L207.764,59.301z"/>
	<path d="M213.76,55.76c0.163,0.663,0.062,1.24-0.307,1.729c-0.367,0.491-0.947,0.833-1.739,1.028
		c-0.574,0.141-1.16,0.17-1.759,0.086c-0.413-0.056-0.681-0.121-0.804-0.195l0.217-0.779c0.692,0.25,1.389,0.289,2.092,0.115
		c0.535-0.131,0.926-0.347,1.173-0.644c0.247-0.296,0.323-0.64,0.228-1.024c-0.103-0.416-0.389-0.708-0.861-0.875
		c-0.17-0.053-0.603-0.125-1.297-0.216c-0.749-0.1-1.268-0.218-1.554-0.357c-0.477-0.229-0.785-0.632-0.927-1.205
		c-0.139-0.564-0.025-1.072,0.341-1.525s0.892-0.764,1.574-0.932c0.534-0.132,1.069-0.157,1.603-0.079
		c0.349,0.05,0.585,0.113,0.708,0.188l-0.198,0.727c-0.668-0.193-1.283-0.22-1.848-0.081c-0.426,0.105-0.763,0.293-1.011,0.564
		s-0.333,0.564-0.255,0.882c0.09,0.366,0.314,0.617,0.672,0.748c0.15,0.057,0.548,0.133,1.19,0.227
		c0.827,0.121,1.376,0.239,1.646,0.35C213.239,54.733,213.611,55.156,213.76,55.76z"/>
	<path d="M219.749,56.159c-0.4,0.34-0.842,0.569-1.327,0.688c-0.644,0.158-1.175,0.111-1.595-0.142
		c-0.234-0.143-0.415-0.366-0.542-0.67c-0.092-0.198-0.2-0.555-0.327-1.07l-1.039-4.218l-1.247,0.308l-0.18-0.729l1.247-0.307
		L214.242,48l0.891-0.22l0.498,2.021l2.287-0.563l0.18,0.728l-2.287,0.563l0.995,4.04c0.158,0.644,0.299,1.044,0.422,1.204
		c0.219,0.292,0.592,0.374,1.116,0.245c0.228-0.057,0.456-0.15,0.688-0.28c0.099-0.067,0.202-0.135,0.312-0.203L219.749,56.159z"/>
	<path d="M223.528,47.777l-0.025,0.793c-0.215,0.022-0.412,0.054-0.591,0.098c-0.444,0.11-0.825,0.314-1.14,0.613
		c-0.231,0.214-0.416,0.464-0.556,0.751c-0.06,0.141-0.115,0.279-0.165,0.418l1.295,5.257l-0.891,0.22l-1.756-7.128l0.846-0.208
		l0.23,0.936c0.439-0.906,1.099-1.468,1.979-1.686C223.013,47.777,223.27,47.756,223.528,47.777z"/>
	<path d="M231.198,53.526l-0.816,0.201l-0.133-0.534c-0.198,0.175-0.396,0.35-0.595,0.525c-0.481,0.35-0.983,0.589-1.509,0.719
		c-0.683,0.168-1.284,0.103-1.804-0.195c-0.521-0.297-0.858-0.767-1.017-1.41c-0.384-1.554,0.796-2.67,3.538-3.346l0.372-0.092
		l-0.066-0.267c-0.186-0.752-0.427-1.224-0.726-1.412c-0.336-0.212-0.821-0.239-1.454-0.083c-0.653,0.161-1.266,0.512-1.836,1.051
		l-0.525-0.532c0.082-0.136,0.283-0.321,0.604-0.558c0.488-0.361,1.044-0.62,1.668-0.773c0.832-0.205,1.531-0.137,2.1,0.207
		c0.32,0.195,0.562,0.471,0.724,0.829c0.105,0.216,0.221,0.576,0.345,1.081L231.198,53.526z M230.007,52.529l-0.593-2.407
		l-0.4,0.099c-2.109,0.52-3.03,1.32-2.765,2.399c0.096,0.386,0.297,0.672,0.605,0.859c0.345,0.208,0.781,0.249,1.305,0.119
		C228.655,53.476,229.27,53.119,230.007,52.529z"/>
	<path d="M236.96,51.917c-0.398,0.34-0.841,0.569-1.326,0.688c-0.644,0.159-1.175,0.111-1.594-0.142
		c-0.235-0.142-0.416-0.365-0.543-0.67c-0.092-0.198-0.2-0.555-0.327-1.069l-1.039-4.218l-1.247,0.308l-0.18-0.728l1.247-0.308
		l-0.498-2.021l0.892-0.22l0.498,2.021l2.287-0.563l0.18,0.728l-2.287,0.563l0.995,4.04c0.158,0.644,0.299,1.044,0.422,1.203
		c0.22,0.292,0.591,0.375,1.116,0.245c0.228-0.056,0.456-0.149,0.688-0.28c0.099-0.066,0.202-0.135,0.312-0.202L236.96,51.917z"/>
	<path d="M237.358,41.895c0.039,0.158,0.016,0.312-0.068,0.458c-0.085,0.147-0.211,0.242-0.38,0.283
		c-0.158,0.039-0.312,0.014-0.46-0.076c-0.147-0.09-0.241-0.214-0.28-0.372c-0.041-0.168-0.017-0.323,0.074-0.467
		c0.091-0.143,0.215-0.234,0.373-0.273c0.169-0.041,0.323-0.019,0.466,0.067C237.224,41.601,237.316,41.727,237.358,41.895z
		 M239.559,51.466l-0.893,0.22l-1.755-7.128l0.891-0.22L239.559,51.466z"/>
	<path d="M246.864,45.949c0.275,1.118,0.201,2.084-0.225,2.897c-0.424,0.814-1.137,1.344-2.137,1.59
		c-0.971,0.239-1.832,0.092-2.588-0.441c-0.758-0.532-1.275-1.368-1.557-2.508c-0.279-1.138-0.209-2.119,0.213-2.942
		c0.422-0.822,1.143-1.36,2.162-1.612c0.971-0.238,1.828-0.09,2.576,0.445C246.055,43.913,246.573,44.771,246.864,45.949z
		 M245.934,46.145c-0.217-0.881-0.613-1.545-1.193-1.996c-0.578-0.451-1.203-0.594-1.877-0.429c-0.703,0.174-1.199,0.58-1.488,1.219
		c-0.289,0.637-0.322,1.402-0.104,2.293c0.221,0.892,0.617,1.558,1.193,1.998s1.201,0.579,1.873,0.413
		c0.723-0.179,1.227-0.581,1.508-1.206C246.127,47.81,246.156,47.047,245.934,46.145z"/>
	<path d="M254.899,47.686l-0.891,0.22l-1.025-4.157c-0.139-0.564-0.248-0.947-0.33-1.148c-0.145-0.331-0.334-0.567-0.568-0.71
		c-0.332-0.201-0.738-0.244-1.213-0.127c-0.445,0.109-0.906,0.345-1.385,0.704c-0.357,0.257-0.566,0.434-0.625,0.533l1.434,5.82
		l-0.891,0.22l-1.756-7.128l0.846-0.209l0.127,0.52c0.629-0.647,1.354-1.074,2.176-1.276c0.703-0.173,1.301-0.11,1.795,0.188
		c0.369,0.224,0.656,0.552,0.857,0.985c0.113,0.246,0.242,0.67,0.393,1.274L254.899,47.686z"/>
</g>
<g>
	<path d="M269.658,43.467c0.045,0.188,0.02,0.362-0.076,0.522c-0.098,0.161-0.24,0.265-0.428,0.311
		c-0.189,0.047-0.363,0.021-0.523-0.076s-0.264-0.239-0.311-0.427c-0.047-0.188-0.021-0.363,0.076-0.523
		c0.098-0.159,0.24-0.263,0.428-0.31c0.188-0.046,0.363-0.021,0.523,0.075C269.508,43.137,269.612,43.279,269.658,43.467z"/>
</g>
<g>
	<path d="M282.033,40.418c0.045,0.188,0.02,0.361-0.076,0.522c-0.098,0.16-0.24,0.264-0.428,0.311
		c-0.189,0.046-0.363,0.021-0.523-0.076c-0.16-0.098-0.264-0.24-0.311-0.428c-0.047-0.188-0.021-0.362,0.076-0.522
		s0.24-0.264,0.428-0.31c0.188-0.047,0.363-0.021,0.523,0.075S281.987,40.23,282.033,40.418z"/>
</g>
<g>
	<path d="M294.408,37.369c0.047,0.188,0.02,0.361-0.076,0.521c-0.098,0.161-0.24,0.265-0.428,0.311
		c-0.189,0.047-0.363,0.021-0.523-0.076c-0.16-0.097-0.264-0.239-0.311-0.427c-0.045-0.188-0.02-0.362,0.076-0.523
		c0.098-0.159,0.24-0.263,0.428-0.31c0.188-0.046,0.363-0.021,0.523,0.075C294.258,37.038,294.362,37.181,294.408,37.369z"/>
</g>
<g>
	<path d="M306.783,34.32c0.047,0.188,0.02,0.362-0.076,0.522c-0.098,0.161-0.24,0.265-0.428,0.311
		c-0.189,0.046-0.363,0.021-0.523-0.076c-0.16-0.098-0.264-0.239-0.311-0.427c-0.045-0.188-0.02-0.363,0.076-0.523
		c0.098-0.16,0.24-0.264,0.428-0.31s0.363-0.021,0.523,0.075C306.633,33.99,306.737,34.131,306.783,34.32z"/>
</g>
<g>
	<path d="M319.158,31.271c0.047,0.188,0.021,0.361-0.076,0.522c-0.096,0.16-0.24,0.264-0.428,0.31
		c-0.188,0.047-0.361,0.021-0.521-0.076c-0.16-0.097-0.264-0.239-0.311-0.427c-0.047-0.188-0.021-0.362,0.076-0.523
		c0.096-0.159,0.238-0.263,0.428-0.31c0.188-0.046,0.361-0.021,0.521,0.076S319.114,31.082,319.158,31.271z"/>
</g>
<g>
	<path d="M331.535,28.221c0.047,0.188,0.02,0.362-0.076,0.522c-0.098,0.16-0.24,0.264-0.428,0.311
		c-0.189,0.046-0.363,0.021-0.523-0.076c-0.16-0.098-0.264-0.24-0.311-0.428c-0.045-0.188-0.02-0.362,0.076-0.522
		c0.098-0.16,0.24-0.264,0.428-0.31c0.188-0.047,0.363-0.021,0.523,0.075C331.385,27.891,331.489,28.032,331.535,28.221z"/>
</g>
<g>
	<path d="M343.91,25.172c0.047,0.188,0.021,0.361-0.076,0.522c-0.096,0.16-0.24,0.264-0.428,0.31
		c-0.188,0.047-0.361,0.021-0.521-0.076c-0.16-0.097-0.264-0.239-0.311-0.427c-0.047-0.188-0.021-0.362,0.076-0.523
		c0.096-0.159,0.238-0.263,0.428-0.31c0.188-0.046,0.361-0.021,0.521,0.075C343.76,24.841,343.865,24.984,343.91,25.172z"/>
</g>
<g>
	<path d="M356.285,22.122c0.047,0.188,0.021,0.362-0.076,0.522c-0.096,0.161-0.24,0.265-0.428,0.311s-0.361,0.021-0.521-0.076
		c-0.16-0.098-0.264-0.239-0.311-0.427c-0.047-0.188-0.021-0.363,0.076-0.523c0.096-0.16,0.238-0.264,0.428-0.31
		c0.188-0.046,0.361-0.021,0.521,0.075C356.135,21.792,356.24,21.934,356.285,22.122z"/>
</g>
<g>
	<path d="M368.66,19.073c0.047,0.188,0.021,0.361-0.076,0.522c-0.096,0.16-0.24,0.264-0.428,0.311
		c-0.188,0.046-0.361,0.021-0.521-0.076c-0.16-0.098-0.264-0.24-0.311-0.428c-0.047-0.188-0.021-0.362,0.076-0.522
		c0.096-0.16,0.238-0.264,0.428-0.31c0.188-0.047,0.361-0.021,0.521,0.075C368.51,18.743,368.615,18.885,368.66,19.073z"/>
</g>
<g>
	<path d="M381.037,16.024c0.047,0.188,0.021,0.362-0.076,0.522c-0.096,0.161-0.24,0.265-0.428,0.311
		c-0.188,0.047-0.361,0.021-0.521-0.076c-0.162-0.098-0.266-0.239-0.311-0.427c-0.047-0.188-0.021-0.362,0.076-0.523
		c0.096-0.159,0.238-0.263,0.428-0.31c0.188-0.046,0.361-0.021,0.521,0.075C380.887,15.694,380.99,15.835,381.037,16.024z"/>
</g>
<g>
	<path d="M393.412,12.975c0.047,0.188,0.021,0.362-0.076,0.522c-0.096,0.16-0.24,0.264-0.428,0.311
		c-0.188,0.046-0.361,0.021-0.521-0.076c-0.162-0.098-0.266-0.24-0.311-0.428c-0.047-0.188-0.021-0.362,0.076-0.522
		c0.096-0.16,0.238-0.264,0.428-0.31c0.188-0.047,0.361-0.021,0.521,0.075S393.365,12.786,393.412,12.975z"/>
</g>
<g>
	<path d="M405.789,9.925c0.047,0.188,0.021,0.362-0.076,0.522c-0.096,0.161-0.24,0.265-0.428,0.311s-0.361,0.021-0.521-0.076
		c-0.162-0.098-0.266-0.239-0.311-0.427c-0.047-0.188-0.021-0.363,0.076-0.523c0.096-0.16,0.238-0.264,0.428-0.31
		c0.188-0.046,0.361-0.021,0.521,0.075C405.639,9.595,405.742,9.737,405.789,9.925z"/>
</g>
<g>
	<path d="M418.164,6.876c0.045,0.188,0.02,0.362-0.076,0.522c-0.098,0.161-0.24,0.265-0.428,0.311
		c-0.189,0.046-0.363,0.021-0.523-0.076c-0.16-0.098-0.264-0.239-0.311-0.427c-0.047-0.188-0.021-0.363,0.076-0.523
		s0.24-0.264,0.428-0.31s0.363-0.021,0.523,0.075C418.014,6.546,418.117,6.688,418.164,6.876z"/>
</g>
<g>
	<path d="M449.069-2.927c0.207,0.842,0.07,1.592-0.408,2.249c-0.479,0.66-1.217,1.112-2.217,1.358
		c-1.049,0.259-1.947,0.217-2.693-0.124c-0.744-0.341-1.223-0.938-1.434-1.789c-0.172-0.703-0.115-1.345,0.172-1.925
		c0.289-0.581,0.756-0.961,1.404-1.142c-0.633,0.029-1.17-0.126-1.611-0.469s-0.734-0.807-0.879-1.392
		c-0.193-0.781-0.064-1.489,0.383-2.125s1.127-1.065,2.037-1.289c0.93-0.229,1.74-0.179,2.434,0.156
		c0.691,0.333,1.133,0.892,1.326,1.674c0.146,0.594,0.113,1.143-0.1,1.646c-0.225,0.538-0.613,0.938-1.168,1.201
		c0.711-0.092,1.307,0.038,1.781,0.389C448.571-4.158,448.895-3.631,449.069-2.927z M446.645-7.451
		c-0.143-0.584-0.455-1.004-0.932-1.259c-0.479-0.255-1.033-0.305-1.668-0.148c-0.643,0.158-1.119,0.463-1.428,0.911
		c-0.311,0.449-0.395,0.961-0.252,1.536c0.141,0.573,0.463,0.998,0.967,1.272c0.504,0.275,1.062,0.337,1.676,0.187
		c0.604-0.149,1.062-0.459,1.379-0.931C446.701-6.353,446.787-6.876,446.645-7.451z M448.076-2.73
		c-0.158-0.645-0.5-1.099-1.021-1.364c-0.521-0.264-1.15-0.308-1.883-0.127c-0.721,0.178-1.258,0.51-1.605,0.994
		c-0.348,0.486-0.443,1.039-0.291,1.663c0.164,0.664,0.51,1.13,1.037,1.397c0.529,0.27,1.184,0.309,1.967,0.115
		c0.713-0.175,1.23-0.503,1.553-0.982C448.156-1.511,448.237-2.077,448.076-2.73z"/>
	<path d="M456.098-1.887l-0.938,0.23l-2.166-8.792L450.965-8.2l-0.676-0.574l2.58-2.824l0.787-0.193L456.098-1.887z"/>
</g>
<g>
	<path d="M51.798,133.508c0.219,0.892,0.083,1.677-0.413,2.354c-0.494,0.678-1.216,1.135-2.167,1.369
		c-0.822,0.202-1.574,0.22-2.256,0.052c-0.39-0.093-0.695-0.223-0.915-0.39l0.355-0.732c0.242,0.087,0.479,0.176,0.711,0.265
		c0.571,0.144,1.148,0.143,1.732-0.001c0.763-0.188,1.325-0.516,1.688-0.983c0.362-0.467,0.468-1.012,0.314-1.637
		c-0.122-0.494-0.413-0.884-0.872-1.171c-0.383-0.23-0.839-0.334-1.368-0.31c-0.321,0.018-0.794,0.102-1.418,0.256l-0.149,0.036
		L46.84,131.8l0.253-0.062c0.584-0.145,1.016-0.287,1.296-0.431c0.421-0.208,0.747-0.504,0.979-0.887
		c0.231-0.382,0.285-0.826,0.16-1.331c-0.134-0.544-0.431-0.938-0.89-1.184c-0.459-0.243-1.015-0.284-1.668-0.123
		c-0.545,0.135-1.044,0.408-1.498,0.826c-0.268,0.233-0.462,0.449-0.581,0.646l-0.651-0.47c0.052-0.17,0.275-0.44,0.667-0.811
		c0.563-0.527,1.206-0.879,1.929-1.058c0.921-0.227,1.708-0.164,2.363,0.189c0.654,0.354,1.078,0.926,1.273,1.719
		c0.144,0.584,0.102,1.136-0.128,1.654c-0.24,0.562-0.651,0.959-1.235,1.187c0.657-0.099,1.231,0.023,1.721,0.371
		C51.319,132.385,51.642,132.875,51.798,133.508z"/>
	<path d="M56.138,134.755c0.046,0.188,0.021,0.362-0.077,0.523c-0.097,0.159-0.239,0.263-0.427,0.309
		c-0.188,0.047-0.363,0.021-0.522-0.075c-0.161-0.097-0.265-0.239-0.311-0.428s-0.021-0.362,0.077-0.523
		c0.097-0.159,0.239-0.263,0.428-0.31c0.188-0.046,0.362-0.021,0.521,0.076C55.988,134.424,56.092,134.566,56.138,134.755z"/>
	<path d="M64.53,133.27l-6.015,1.481l-0.194-0.787c0.197-0.312,0.395-0.617,0.593-0.919c0.408-0.646,0.724-1.155,0.948-1.524
		c0.812-1.346,1.35-2.364,1.608-3.059c0.297-0.798,0.37-1.504,0.219-2.117c-0.164-0.664-0.472-1.128-0.926-1.395
		c-0.454-0.266-1.013-0.316-1.675-0.153c-0.516,0.127-1.01,0.399-1.483,0.822c-0.293,0.261-0.491,0.478-0.596,0.65l-0.659-0.437
		c0.085-0.21,0.31-0.491,0.674-0.844c0.573-0.529,1.231-0.886,1.973-1.068c0.901-0.223,1.682-0.145,2.342,0.232
		c0.661,0.379,1.098,1.005,1.312,1.875c0.186,0.753,0.098,1.609-0.265,2.571c-0.237,0.614-0.691,1.478-1.362,2.588l-1.481,2.428
		l4.782-1.178L64.53,133.27z"/>
	<path d="M68.152,131.795c0.046,0.188,0.021,0.362-0.076,0.522c-0.098,0.16-0.24,0.264-0.428,0.31
		c-0.188,0.047-0.363,0.021-0.522-0.075c-0.161-0.097-0.265-0.239-0.311-0.428c-0.047-0.188-0.021-0.362,0.076-0.523
		c0.097-0.159,0.239-0.263,0.428-0.31c0.188-0.046,0.362-0.021,0.522,0.075C68.002,131.464,68.105,131.606,68.152,131.795z"/>
	<path d="M74.583,130.793l-0.936,0.23l-2.166-8.792l-2.029,2.249l-0.677-0.573l2.58-2.825l0.787-0.194L74.583,130.793z"/>
	<path d="M80.166,128.834c0.046,0.189,0.021,0.363-0.076,0.523c-0.097,0.16-0.24,0.264-0.428,0.31
		c-0.188,0.047-0.363,0.021-0.522-0.075c-0.161-0.098-0.265-0.239-0.311-0.428c-0.047-0.188-0.021-0.363,0.076-0.523
		c0.097-0.16,0.239-0.263,0.428-0.31c0.188-0.046,0.362-0.021,0.522,0.075C80.015,128.504,80.119,128.646,80.166,128.834z"/>
	<path d="M88.557,127.349l-6.015,1.482l-0.194-0.787c0.196-0.312,0.394-0.617,0.592-0.919c0.409-0.646,0.724-1.155,0.948-1.525
		c0.812-1.345,1.35-2.363,1.608-3.059c0.297-0.797,0.37-1.503,0.219-2.116c-0.164-0.664-0.472-1.129-0.927-1.395
		c-0.454-0.267-1.013-0.317-1.675-0.154c-0.516,0.127-1.01,0.4-1.483,0.822c-0.293,0.261-0.491,0.478-0.596,0.65l-0.659-0.437
		c0.085-0.209,0.31-0.49,0.674-0.843c0.573-0.53,1.231-0.886,1.974-1.068c0.9-0.223,1.682-0.145,2.342,0.232
		c0.66,0.379,1.098,1.005,1.312,1.875c0.186,0.753,0.097,1.609-0.265,2.57c-0.237,0.615-0.691,1.478-1.362,2.588l-1.481,2.429
		l4.782-1.179L88.557,127.349z"/>
</g>
<g>
	<path d="M105.428,117.884c0.381,1.544,0.213,2.908-0.503,4.094c-0.403,0.667-0.944,1.178-1.623,1.533
		c-0.493,0.259-1.264,0.518-2.313,0.776l-2.243,0.552l-2.44-9.905l1.9-0.468c1.168-0.288,2.061-0.439,2.677-0.455
		c0.835-0.017,1.574,0.169,2.216,0.556C104.284,115.283,105.06,116.388,105.428,117.884z M104.456,118.093
		c-0.317-1.288-0.963-2.226-1.938-2.815c-0.518-0.313-1.09-0.461-1.716-0.443c-0.502,0.008-1.292,0.146-2.372,0.411l-0.98,0.242
		l2.053,8.331l1.351-0.333c0.852-0.21,1.483-0.419,1.894-0.625c0.587-0.302,1.048-0.731,1.385-1.286
		C104.692,120.648,104.8,119.488,104.456,118.093z"/>
	<path d="M107.209,112.641c0.039,0.158,0.016,0.31-0.068,0.458c-0.085,0.146-0.211,0.24-0.379,0.282
		c-0.158,0.039-0.312,0.013-0.459-0.075c-0.148-0.092-0.242-0.215-0.281-0.373c-0.042-0.168-0.017-0.324,0.074-0.467
		c0.091-0.143,0.216-0.233,0.374-0.272c0.168-0.042,0.323-0.021,0.465,0.065C107.075,112.345,107.167,112.473,107.209,112.641z
		 M109.409,122.212l-0.891,0.22l-1.756-7.129l0.891-0.22L109.409,122.212z"/>
	<path d="M113.186,110.238l-0.203,0.712c-0.346-0.125-0.722-0.137-1.127-0.037c-0.416,0.103-0.713,0.302-0.893,0.597
		c-0.208,0.347-0.228,0.866-0.058,1.559l0.282,1.144l2.287-0.563l0.179,0.729l-2.287,0.563l1.577,6.4l-0.891,0.22l-1.577-6.4
		l-1.263,0.312l-0.179-0.729l1.263-0.312l-0.282-1.144c-0.224-0.91-0.169-1.644,0.168-2.198c0.283-0.469,0.746-0.784,1.39-0.942
		C112.206,109.991,112.744,110.022,113.186,110.238z"/>
	<path d="M118.547,108.918l-0.203,0.712c-0.346-0.125-0.721-0.138-1.127-0.037c-0.416,0.103-0.714,0.302-0.893,0.597
		c-0.208,0.347-0.228,0.866-0.057,1.559l0.281,1.144l2.287-0.563l0.18,0.729l-2.287,0.563l1.577,6.4l-0.891,0.22l-1.577-6.4
		l-1.263,0.311l-0.18-0.729l1.263-0.311l-0.281-1.144c-0.225-0.91-0.169-1.645,0.167-2.199c0.283-0.469,0.746-0.784,1.39-0.942
		C117.566,108.67,118.104,108.701,118.547,108.918z"/>
	<path d="M126.323,113.949c0.005,0.02,0.017,0.09,0.037,0.21c0.019,0.122,0.036,0.212,0.051,0.271l-5.109,1.259
		c0.2,0.812,0.574,1.412,1.122,1.803c0.548,0.392,1.213,0.489,1.994,0.297c0.604-0.148,1.245-0.512,1.922-1.088l0.569,0.584
		c-0.04,0.095-0.251,0.282-0.633,0.564c-0.538,0.374-1.114,0.639-1.727,0.79c-1.02,0.251-1.907,0.112-2.662-0.415
		c-0.756-0.528-1.269-1.343-1.539-2.442c-0.283-1.148-0.215-2.138,0.205-2.972c0.419-0.833,1.123-1.372,2.114-1.616
		c0.841-0.208,1.588-0.075,2.239,0.394C125.585,112.083,126.057,112.87,126.323,113.949z M125.347,113.888
		c-0.153-0.622-0.424-1.123-0.811-1.5c-0.479-0.449-1.035-0.597-1.668-0.44s-1.115,0.506-1.443,1.049
		c-0.328,0.544-0.422,1.187-0.28,1.928L125.347,113.888z"/>
	<path d="M131.024,109.246l-0.025,0.793c-0.215,0.022-0.412,0.056-0.59,0.1c-0.445,0.109-0.826,0.313-1.141,0.611
		c-0.23,0.215-0.416,0.465-0.555,0.751c-0.06,0.141-0.115,0.28-0.165,0.42l1.295,5.257l-0.891,0.219l-1.756-7.129l0.846-0.208
		l0.231,0.936c0.439-0.906,1.098-1.467,1.979-1.685C130.51,109.247,130.766,109.226,131.024,109.246z"/>
	<path d="M138.352,110.985c0.005,0.02,0.017,0.09,0.036,0.21c0.019,0.122,0.036,0.212,0.051,0.271l-5.108,1.259
		c0.2,0.812,0.574,1.412,1.122,1.803c0.547,0.392,1.212,0.489,1.994,0.297c0.604-0.149,1.245-0.512,1.921-1.088l0.57,0.584
		c-0.04,0.095-0.251,0.282-0.633,0.565c-0.538,0.373-1.114,0.638-1.728,0.789c-1.02,0.251-1.907,0.112-2.662-0.416
		c-0.755-0.527-1.268-1.342-1.539-2.441c-0.283-1.148-0.215-2.138,0.205-2.971c0.419-0.834,1.124-1.373,2.114-1.617
		c0.842-0.207,1.588-0.075,2.239,0.394C137.614,109.119,138.086,109.906,138.352,110.985z M137.376,110.925
		c-0.154-0.622-0.423-1.123-0.811-1.5c-0.479-0.449-1.035-0.597-1.668-0.44s-1.115,0.506-1.443,1.049
		c-0.328,0.544-0.422,1.187-0.281,1.928L137.376,110.925z"/>
	<path d="M146.476,113.079l-0.891,0.22l-1.024-4.158c-0.139-0.564-0.249-0.947-0.33-1.148c-0.145-0.331-0.335-0.568-0.568-0.71
		c-0.334-0.202-0.738-0.244-1.213-0.127c-0.446,0.109-0.908,0.346-1.386,0.705c-0.357,0.256-0.565,0.433-0.625,0.532l1.434,5.821
		l-0.891,0.219l-1.757-7.129l0.847-0.208l0.128,0.52c0.628-0.648,1.353-1.074,2.175-1.276c0.703-0.173,1.301-0.11,1.795,0.188
		c0.37,0.224,0.656,0.552,0.857,0.986c0.113,0.245,0.244,0.669,0.393,1.273L146.476,113.079z"/>
	<path d="M153.718,110.696c-0.056,0.118-0.266,0.307-0.633,0.564c-0.511,0.357-1.053,0.606-1.627,0.748
		c-1,0.247-1.891,0.124-2.673-0.364c-0.782-0.491-1.308-1.28-1.576-2.369c-0.283-1.148-0.185-2.165,0.296-3.05
		c0.479-0.885,1.245-1.458,2.294-1.717c0.525-0.129,1.062-0.146,1.611-0.05c0.34,0.063,0.58,0.137,0.715,0.218l-0.248,0.723
		c-0.659-0.205-1.301-0.23-1.925-0.076c-0.763,0.188-1.314,0.62-1.657,1.298s-0.409,1.441-0.199,2.293
		c0.212,0.861,0.615,1.498,1.21,1.908c0.595,0.409,1.259,0.524,1.991,0.344c0.604-0.148,1.227-0.497,1.869-1.044L153.718,110.696z"
		/>
	<path d="M159.766,105.709c0.005,0.02,0.017,0.09,0.036,0.211s0.036,0.211,0.051,0.271l-5.108,1.259
		c0.2,0.812,0.574,1.412,1.122,1.803c0.548,0.392,1.213,0.489,1.994,0.297c0.604-0.148,1.245-0.512,1.921-1.088l0.57,0.584
		c-0.04,0.095-0.251,0.282-0.633,0.565c-0.538,0.374-1.114,0.638-1.728,0.789c-1.02,0.251-1.907,0.112-2.662-0.415
		c-0.755-0.528-1.268-1.342-1.539-2.441c-0.283-1.148-0.215-2.139,0.205-2.973c0.419-0.833,1.124-1.372,2.114-1.616
		c0.842-0.208,1.588-0.075,2.239,0.394C159.028,103.843,159.5,104.63,159.766,105.709z M158.791,105.648
		c-0.153-0.622-0.424-1.123-0.811-1.5c-0.479-0.449-1.035-0.597-1.668-0.44s-1.114,0.506-1.443,1.049
		c-0.328,0.544-0.422,1.187-0.281,1.928L158.791,105.648z"/>
	<path d="M170.088,97.604l-3,0.739l2.243,9.104l-0.95,0.233l-2.243-9.104l-3,0.739l-0.197-0.801l6.95-1.712L170.088,97.604z"/>
	<path d="M179.34,104.981l-0.891,0.22l-1.024-4.158c-0.139-0.564-0.249-0.947-0.33-1.148c-0.145-0.331-0.335-0.568-0.568-0.71
		c-0.334-0.202-0.738-0.244-1.213-0.127c-0.446,0.109-0.908,0.346-1.386,0.705c-0.357,0.256-0.565,0.433-0.625,0.532l1.434,5.821
		l-0.891,0.22l-2.635-10.693l0.891-0.22l1.002,4.069c0.067-0.111,0.274-0.294,0.622-0.547c0.494-0.342,0.987-0.575,1.482-0.697
		c0.723-0.178,1.312-0.127,1.77,0.147c0.395,0.239,0.698,0.574,0.909,1.005c0.11,0.235,0.242,0.665,0.396,1.289L179.34,104.981z"/>
	<path d="M183.386,96.344l-0.025,0.794c-0.215,0.021-0.413,0.055-0.59,0.099c-0.445,0.109-0.826,0.314-1.141,0.611
		c-0.231,0.216-0.416,0.465-0.555,0.751c-0.061,0.142-0.116,0.28-0.166,0.42l1.295,5.257l-0.891,0.22l-1.757-7.129l0.847-0.209
		l0.23,0.936c0.438-0.905,1.098-1.467,1.979-1.684C182.872,96.345,183.13,96.324,183.386,96.344z"/>
	<path d="M190.744,98.076c0.005,0.02,0.017,0.09,0.037,0.211c0.019,0.121,0.036,0.211,0.051,0.271l-5.108,1.259
		c0.2,0.812,0.573,1.412,1.121,1.803c0.548,0.392,1.213,0.489,1.995,0.297c0.604-0.148,1.244-0.512,1.921-1.088l0.569,0.584
		c-0.04,0.095-0.251,0.282-0.633,0.565c-0.538,0.374-1.114,0.638-1.727,0.789c-1.02,0.251-1.907,0.112-2.662-0.415
		c-0.756-0.528-1.269-1.342-1.539-2.441c-0.283-1.148-0.215-2.139,0.205-2.972c0.419-0.834,1.123-1.373,2.114-1.617
		c0.841-0.207,1.588-0.075,2.239,0.394C190.006,96.21,190.478,96.997,190.744,98.076z M189.768,98.015
		c-0.153-0.622-0.424-1.123-0.811-1.5c-0.479-0.449-1.035-0.597-1.668-0.44s-1.115,0.506-1.443,1.049
		c-0.328,0.544-0.422,1.187-0.28,1.928L189.768,98.015z"/>
	<path d="M197.29,98.494c0.164,0.664,0.061,1.24-0.307,1.73s-0.947,0.832-1.74,1.027c-0.574,0.141-1.16,0.17-1.758,0.086
		c-0.413-0.055-0.681-0.121-0.804-0.195l0.218-0.779c0.691,0.25,1.389,0.289,2.092,0.115c0.534-0.131,0.925-0.346,1.172-0.644
		c0.247-0.296,0.323-0.638,0.228-1.024c-0.102-0.415-0.389-0.706-0.861-0.874c-0.17-0.053-0.603-0.125-1.298-0.217
		c-0.749-0.099-1.267-0.217-1.553-0.356c-0.477-0.229-0.786-0.633-0.926-1.205c-0.14-0.564-0.026-1.073,0.341-1.525
		c0.366-0.454,0.891-0.764,1.573-0.933c0.535-0.132,1.069-0.157,1.604-0.079c0.349,0.05,0.584,0.114,0.708,0.188l-0.199,0.726
		c-0.667-0.192-1.283-0.219-1.848-0.08c-0.426,0.105-0.763,0.293-1.011,0.564c-0.248,0.271-0.333,0.564-0.255,0.881
		c0.09,0.367,0.314,0.617,0.673,0.749c0.15,0.058,0.547,0.133,1.189,0.227c0.828,0.12,1.376,0.238,1.646,0.35
		C196.769,97.468,197.141,97.891,197.29,98.494z"/>
	<path d="M205.046,98.647l-0.891,0.22l-1.024-4.158c-0.139-0.564-0.249-0.947-0.331-1.148c-0.144-0.331-0.334-0.567-0.569-0.71
		c-0.333-0.201-0.737-0.244-1.212-0.127c-0.445,0.11-0.907,0.346-1.386,0.705c-0.356,0.256-0.565,0.433-0.625,0.532l1.435,5.821
		l-0.891,0.22l-2.635-10.693l0.891-0.22l1.003,4.069c0.067-0.111,0.274-0.293,0.621-0.547c0.493-0.342,0.987-0.574,1.482-0.696
		c0.723-0.179,1.312-0.128,1.77,0.147c0.394,0.239,0.698,0.573,0.909,1.004c0.11,0.236,0.242,0.665,0.396,1.289L205.046,98.647z"/>
	<path d="M212.246,93.156c0.276,1.119,0.202,2.084-0.223,2.898c-0.425,0.812-1.137,1.343-2.137,1.589
		c-0.97,0.239-1.833,0.092-2.589-0.441c-0.757-0.532-1.275-1.368-1.556-2.507c-0.28-1.138-0.21-2.12,0.212-2.943
		c0.422-0.822,1.143-1.36,2.163-1.612c0.97-0.238,1.828-0.09,2.574,0.445C211.438,91.12,211.956,91.977,212.246,93.156z
		 M211.318,93.352c-0.217-0.881-0.615-1.546-1.193-1.997s-1.204-0.594-1.877-0.428c-0.703,0.174-1.199,0.578-1.488,1.218
		c-0.29,0.638-0.324,1.402-0.104,2.294c0.22,0.891,0.617,1.556,1.193,1.997s1.201,0.579,1.874,0.413
		c0.723-0.179,1.226-0.581,1.506-1.206C211.51,95.016,211.54,94.254,211.318,93.352z"/>
	<path d="M215.678,96.028l-0.891,0.219l-2.635-10.693l0.891-0.219L215.678,96.028z"/>
	<path d="M223.385,94.129l-0.816,0.201l-0.131-0.535c-0.453,0.596-1.09,0.993-1.912,1.196c-0.939,0.231-1.778,0.089-2.515-0.429
		c-0.736-0.517-1.237-1.314-1.504-2.395c-0.28-1.138-0.183-2.146,0.294-3.025s1.229-1.445,2.259-1.699
		c0.635-0.156,1.207-0.155,1.718,0.002l-0.933-3.787l0.905-0.223L223.385,94.129z M222.151,93.013l-1.16-4.705
		c-0.633-0.182-1.211-0.207-1.736-0.078c-0.771,0.19-1.325,0.629-1.66,1.315c-0.335,0.688-0.388,1.495-0.158,2.426
		c0.202,0.822,0.582,1.438,1.14,1.846s1.173,0.53,1.847,0.364C221.026,94.033,221.602,93.643,222.151,93.013z"/>
</g>
<g>
	<path d="M229.139,92.128c0.046,0.188,0.021,0.363-0.076,0.523c-0.098,0.159-0.24,0.264-0.428,0.31
		c-0.188,0.047-0.363,0.021-0.522-0.075c-0.161-0.098-0.265-0.239-0.311-0.428c-0.047-0.188-0.021-0.363,0.076-0.523
		c0.097-0.16,0.239-0.263,0.428-0.31c0.188-0.046,0.362-0.021,0.522,0.075C228.989,91.798,229.093,91.939,229.139,92.128z"/>
</g>
<g>
	<path d="M241.514,89.079c0.047,0.188,0.021,0.362-0.076,0.523c-0.098,0.159-0.24,0.263-0.428,0.31
		c-0.188,0.046-0.363,0.021-0.521-0.076c-0.162-0.097-0.266-0.239-0.311-0.428c-0.047-0.188-0.021-0.362,0.076-0.523
		c0.096-0.159,0.238-0.263,0.428-0.309c0.188-0.047,0.361-0.021,0.521,0.075S241.467,88.89,241.514,89.079z"/>
</g>
<g>
	<path d="M253.891,86.029c0.045,0.188,0.02,0.363-0.076,0.523c-0.098,0.16-0.24,0.264-0.428,0.31
		c-0.189,0.047-0.363,0.021-0.523-0.075c-0.16-0.098-0.264-0.239-0.311-0.428s-0.021-0.363,0.076-0.523s0.24-0.263,0.428-0.31
		c0.188-0.046,0.363-0.021,0.523,0.075C253.74,85.699,253.844,85.841,253.891,86.029z"/>
</g>
<g>
	<path d="M266.266,82.98c0.047,0.188,0.021,0.362-0.076,0.523c-0.098,0.159-0.24,0.263-0.428,0.309
		c-0.188,0.047-0.363,0.021-0.521-0.075c-0.162-0.097-0.266-0.239-0.311-0.428c-0.047-0.188-0.021-0.362,0.076-0.523
		c0.096-0.159,0.238-0.263,0.428-0.31c0.188-0.046,0.361-0.021,0.521,0.076S266.219,82.792,266.266,82.98z"/>
</g>
<g>
	<path d="M278.643,79.93c0.045,0.188,0.02,0.363-0.076,0.523c-0.098,0.16-0.24,0.264-0.428,0.31
		c-0.189,0.047-0.363,0.021-0.523-0.075c-0.16-0.098-0.264-0.239-0.311-0.428s-0.021-0.363,0.076-0.523
		c0.098-0.159,0.24-0.263,0.428-0.31c0.188-0.046,0.363-0.021,0.523,0.075C278.492,79.6,278.596,79.742,278.643,79.93z"/>
</g>
<g>
	<path d="M291.018,76.882c0.045,0.188,0.02,0.362-0.076,0.523c-0.098,0.159-0.24,0.263-0.428,0.31
		c-0.189,0.046-0.363,0.021-0.523-0.075c-0.16-0.098-0.264-0.24-0.311-0.429s-0.021-0.362,0.076-0.522s0.24-0.264,0.428-0.31
		c0.188-0.047,0.363-0.021,0.523,0.075S290.971,76.693,291.018,76.882z"/>
</g>
<g>
	<path d="M303.393,73.833c0.047,0.188,0.02,0.362-0.076,0.522c-0.098,0.16-0.24,0.264-0.428,0.31
		c-0.189,0.047-0.363,0.021-0.523-0.075s-0.264-0.239-0.311-0.428c-0.045-0.188-0.02-0.362,0.076-0.523
		c0.098-0.159,0.24-0.263,0.428-0.31c0.188-0.046,0.363-0.021,0.523,0.075C303.242,73.502,303.346,73.644,303.393,73.833z"/>
</g>
<g>
	<path d="M315.768,70.783c0.047,0.188,0.02,0.363-0.076,0.523c-0.098,0.16-0.24,0.264-0.428,0.31
		c-0.189,0.046-0.363,0.021-0.523-0.075c-0.16-0.098-0.264-0.239-0.311-0.428c-0.045-0.188-0.02-0.363,0.076-0.523
		c0.098-0.16,0.24-0.264,0.428-0.31s0.363-0.021,0.523,0.075C315.617,70.453,315.721,70.594,315.768,70.783z"/>
</g>
<g>
	<path d="M328.143,67.734c0.047,0.188,0.021,0.362-0.076,0.523c-0.096,0.159-0.24,0.263-0.428,0.309
		c-0.188,0.047-0.361,0.021-0.521-0.075s-0.264-0.239-0.311-0.428s-0.021-0.362,0.076-0.523c0.096-0.159,0.238-0.263,0.428-0.31
		c0.188-0.046,0.361-0.021,0.521,0.076S328.098,67.546,328.143,67.734z"/>
</g>
<g>
	<path d="M340.52,64.684c0.047,0.188,0.02,0.363-0.076,0.523c-0.098,0.159-0.24,0.263-0.428,0.31
		c-0.189,0.046-0.363,0.021-0.523-0.075c-0.16-0.098-0.264-0.239-0.311-0.429c-0.045-0.188-0.02-0.362,0.076-0.522
		c0.098-0.16,0.24-0.264,0.428-0.31c0.188-0.047,0.363-0.021,0.523,0.075C340.369,64.354,340.473,64.496,340.52,64.684z"/>
</g>
<g>
	<path d="M352.895,61.635c0.047,0.188,0.021,0.362-0.076,0.522c-0.096,0.16-0.24,0.264-0.428,0.31
		c-0.188,0.047-0.361,0.021-0.521-0.075s-0.264-0.239-0.311-0.428s-0.021-0.362,0.076-0.523c0.096-0.159,0.238-0.263,0.428-0.31
		c0.188-0.046,0.361-0.021,0.521,0.075C352.744,61.304,352.85,61.447,352.895,61.635z"/>
</g>
<g>
	<path d="M365.27,58.586c0.047,0.188,0.021,0.363-0.076,0.523c-0.096,0.16-0.24,0.264-0.428,0.31s-0.361,0.021-0.521-0.075
		c-0.16-0.098-0.264-0.239-0.311-0.428s-0.021-0.363,0.076-0.523c0.096-0.16,0.238-0.264,0.428-0.31
		c0.188-0.046,0.361-0.021,0.521,0.075C365.119,58.256,365.225,58.397,365.27,58.586z"/>
</g>
<g>
	<path d="M377.645,55.536c0.047,0.189,0.021,0.364-0.076,0.524c-0.096,0.159-0.24,0.263-0.428,0.31
		c-0.188,0.046-0.361,0.021-0.521-0.075c-0.16-0.098-0.264-0.24-0.311-0.429s-0.021-0.363,0.076-0.523
		c0.096-0.16,0.238-0.264,0.428-0.31c0.188-0.047,0.361-0.021,0.521,0.075C377.494,55.206,377.6,55.348,377.645,55.536z"/>
</g>
<g>
	<path d="M390.022,52.487c0.047,0.188,0.021,0.363-0.076,0.523s-0.24,0.264-0.428,0.31c-0.188,0.047-0.363,0.021-0.521-0.075
		c-0.162-0.097-0.266-0.239-0.311-0.428c-0.047-0.188-0.021-0.362,0.076-0.523c0.096-0.159,0.238-0.263,0.428-0.31
		c0.188-0.046,0.361-0.021,0.521,0.075C389.871,52.156,389.975,52.298,390.022,52.487z"/>
</g>
<g>
	<path d="M402.397,49.438c0.047,0.188,0.021,0.362-0.076,0.523c-0.098,0.159-0.24,0.263-0.428,0.31
		c-0.188,0.046-0.363,0.021-0.521-0.075c-0.162-0.098-0.266-0.24-0.311-0.429c-0.047-0.188-0.021-0.362,0.076-0.522
		c0.096-0.16,0.238-0.264,0.428-0.31c0.188-0.047,0.361-0.021,0.521,0.075S402.35,49.249,402.397,49.438z"/>
</g>
<g>
	<path d="M414.774,46.388c0.047,0.188,0.021,0.363-0.076,0.523s-0.24,0.264-0.428,0.31s-0.363,0.021-0.521-0.075
		c-0.162-0.098-0.266-0.239-0.311-0.428c-0.047-0.188-0.021-0.363,0.076-0.523c0.096-0.16,0.238-0.264,0.428-0.31
		c0.188-0.046,0.361-0.021,0.521,0.075C414.623,46.058,414.727,46.199,414.774,46.388z"/>
</g>
<g>
	<path d="M427.149,43.339c0.045,0.188,0.02,0.363-0.076,0.523c-0.098,0.16-0.24,0.264-0.428,0.31
		c-0.189,0.046-0.363,0.021-0.523-0.075c-0.16-0.098-0.264-0.239-0.311-0.428s-0.021-0.363,0.076-0.523s0.24-0.264,0.428-0.31
		s0.363-0.021,0.523,0.075C426.998,43.009,427.102,43.151,427.149,43.339z"/>
</g>
<g>
	<path d="M458.051,33.536c0.209,0.841,0.072,1.591-0.406,2.249c-0.479,0.659-1.217,1.111-2.217,1.357
		c-1.049,0.259-1.947,0.218-2.693-0.124c-0.744-0.341-1.223-0.938-1.434-1.789c-0.172-0.703-0.115-1.345,0.172-1.925
		c0.289-0.579,0.756-0.961,1.404-1.142c-0.633,0.03-1.17-0.126-1.611-0.469s-0.734-0.807-0.879-1.392
		c-0.193-0.781-0.064-1.489,0.383-2.125s1.125-1.065,2.037-1.289c0.93-0.229,1.74-0.178,2.434,0.156
		c0.691,0.333,1.133,0.892,1.326,1.674c0.145,0.594,0.113,1.143-0.1,1.646c-0.225,0.538-0.613,0.939-1.168,1.201
		c0.711-0.091,1.305,0.039,1.781,0.389C457.555,32.306,457.879,32.832,458.051,33.536z M455.629,29.012
		c-0.143-0.584-0.455-1.003-0.932-1.259c-0.479-0.255-1.033-0.304-1.668-0.148c-0.643,0.159-1.119,0.463-1.43,0.911
		c-0.309,0.45-0.393,0.961-0.25,1.536c0.141,0.573,0.463,0.999,0.967,1.272c0.504,0.276,1.062,0.337,1.676,0.187
		c0.604-0.149,1.062-0.458,1.379-0.931C455.686,30.11,455.772,29.587,455.629,29.012z M457.061,33.733
		c-0.158-0.644-0.5-1.099-1.021-1.363s-1.15-0.308-1.883-0.127c-0.721,0.179-1.258,0.509-1.605,0.993
		c-0.348,0.486-0.445,1.04-0.291,1.663c0.164,0.664,0.51,1.13,1.037,1.398c0.529,0.269,1.184,0.308,1.967,0.114
		c0.713-0.175,1.23-0.503,1.553-0.981C457.141,34.951,457.221,34.386,457.061,33.733z"/>
	<path d="M466.324,31.37c0.219,0.892,0.082,1.677-0.412,2.354c-0.494,0.679-1.217,1.135-2.168,1.369
		c-0.822,0.202-1.574,0.22-2.256,0.052c-0.391-0.093-0.695-0.223-0.914-0.39l0.354-0.732c0.242,0.087,0.48,0.176,0.711,0.265
		c0.572,0.144,1.148,0.143,1.732-0.001c0.764-0.188,1.326-0.516,1.688-0.983c0.363-0.467,0.469-1.012,0.314-1.636
		c-0.121-0.494-0.412-0.885-0.871-1.172c-0.383-0.23-0.838-0.334-1.369-0.309c-0.32,0.017-0.793,0.101-1.418,0.255l-0.148,0.036
		l-0.201-0.816l0.254-0.062c0.584-0.145,1.016-0.287,1.295-0.431c0.422-0.208,0.748-0.504,0.979-0.887
		c0.232-0.382,0.285-0.826,0.16-1.331c-0.133-0.544-0.43-0.938-0.889-1.184c-0.461-0.242-1.016-0.284-1.67-0.123
		c-0.543,0.135-1.043,0.408-1.498,0.826c-0.268,0.233-0.461,0.449-0.58,0.646l-0.65-0.47c0.051-0.17,0.273-0.44,0.666-0.811
		c0.562-0.526,1.205-0.879,1.928-1.058c0.922-0.227,1.709-0.164,2.363,0.19c0.654,0.354,1.078,0.925,1.273,1.718
		c0.145,0.584,0.102,1.136-0.127,1.654c-0.24,0.562-0.652,0.959-1.236,1.187c0.658-0.099,1.232,0.024,1.723,0.371
		C465.844,30.247,466.168,30.738,466.324,31.37z"/>
</g>
<g>
	<path d="M312.377,110.298c0.047,0.188,0.02,0.361-0.076,0.521c-0.098,0.16-0.24,0.264-0.428,0.31
		c-0.189,0.047-0.363,0.021-0.523-0.075s-0.264-0.239-0.311-0.427c-0.045-0.189-0.02-0.363,0.076-0.524
		c0.098-0.159,0.24-0.263,0.428-0.31c0.188-0.046,0.363-0.021,0.523,0.075C312.227,109.966,312.33,110.108,312.377,110.298z"/>
</g>
<g>
	<path d="M324.752,107.248c0.047,0.188,0.02,0.362-0.076,0.522c-0.098,0.159-0.24,0.264-0.428,0.31
		c-0.189,0.047-0.363,0.021-0.523-0.075c-0.16-0.098-0.264-0.239-0.311-0.427c-0.045-0.189-0.02-0.364,0.076-0.524
		c0.098-0.16,0.24-0.263,0.428-0.31c0.188-0.046,0.363-0.021,0.523,0.075C324.602,106.917,324.705,107.058,324.752,107.248z"/>
</g>
<g>
	<path d="M337.127,104.199c0.047,0.188,0.021,0.361-0.076,0.522c-0.096,0.159-0.24,0.263-0.428,0.309
		c-0.188,0.047-0.361,0.021-0.521-0.075s-0.264-0.239-0.311-0.427c-0.047-0.189-0.021-0.363,0.076-0.524
		c0.098-0.159,0.238-0.263,0.428-0.31c0.188-0.046,0.363-0.021,0.521,0.076C336.977,103.867,337.082,104.01,337.127,104.199z"/>
</g>
<g>
	<path d="M349.504,101.149c0.047,0.188,0.02,0.362-0.076,0.522c-0.098,0.16-0.24,0.264-0.428,0.31
		c-0.189,0.046-0.363,0.021-0.523-0.075c-0.16-0.098-0.264-0.24-0.311-0.428c-0.045-0.189-0.02-0.363,0.076-0.523
		c0.098-0.16,0.24-0.264,0.428-0.31s0.363-0.021,0.523,0.075C349.354,100.818,349.457,100.96,349.504,101.149z"/>
</g>
<g>
	<path d="M361.879,98.1c0.047,0.188,0.021,0.361-0.076,0.522c-0.096,0.159-0.24,0.263-0.428,0.309
		c-0.188,0.047-0.361,0.021-0.521-0.075s-0.264-0.239-0.311-0.427c-0.047-0.189-0.021-0.363,0.076-0.524
		c0.098-0.159,0.238-0.263,0.428-0.31c0.188-0.046,0.363-0.021,0.521,0.076C361.729,97.768,361.834,97.911,361.879,98.1z"/>
</g>
<g>
	<path d="M374.254,95.051c0.047,0.188,0.021,0.362-0.076,0.522c-0.096,0.16-0.24,0.264-0.428,0.31
		c-0.188,0.047-0.361,0.021-0.521-0.075c-0.16-0.098-0.264-0.239-0.311-0.427c-0.047-0.189-0.021-0.364,0.076-0.524
		c0.098-0.159,0.238-0.263,0.428-0.31c0.188-0.046,0.363-0.021,0.521,0.075C374.104,94.719,374.209,94.861,374.254,95.051z"/>
</g>
<g>
	<path d="M386.629,92.002c0.047,0.188,0.021,0.361-0.076,0.522c-0.096,0.159-0.24,0.263-0.428,0.31
		c-0.188,0.046-0.361,0.021-0.521-0.075c-0.16-0.098-0.264-0.24-0.311-0.428c-0.047-0.189-0.021-0.363,0.076-0.523
		s0.238-0.264,0.428-0.31c0.188-0.047,0.363-0.021,0.521,0.075C386.479,91.67,386.584,91.812,386.629,92.002z"/>
</g>
<g>
	<path d="M399.006,88.952c0.047,0.188,0.021,0.362-0.076,0.522c-0.096,0.16-0.24,0.264-0.428,0.31s-0.361,0.021-0.521-0.075
		c-0.162-0.098-0.266-0.239-0.311-0.427c-0.047-0.189-0.021-0.364,0.076-0.524c0.096-0.16,0.238-0.264,0.428-0.31
		c0.188-0.046,0.361-0.021,0.521,0.075C398.856,88.621,398.959,88.762,399.006,88.952z"/>
</g>
<g>
	<path d="M411.381,85.903c0.047,0.188,0.021,0.362-0.076,0.522c-0.096,0.159-0.24,0.263-0.428,0.31
		c-0.188,0.046-0.361,0.021-0.521-0.075c-0.162-0.098-0.266-0.24-0.311-0.428c-0.047-0.189-0.021-0.363,0.076-0.523
		c0.096-0.16,0.238-0.264,0.428-0.31c0.188-0.047,0.361-0.021,0.521,0.075C411.231,85.572,411.334,85.714,411.381,85.903z"/>
</g>
<g>
	<path d="M423.758,82.853c0.047,0.188,0.021,0.362-0.076,0.522c-0.096,0.159-0.24,0.264-0.428,0.31
		c-0.188,0.047-0.361,0.021-0.521-0.075c-0.162-0.098-0.266-0.239-0.311-0.427c-0.047-0.189-0.021-0.364,0.076-0.524
		c0.096-0.16,0.238-0.263,0.428-0.31c0.188-0.046,0.361-0.021,0.521,0.075C423.608,82.522,423.711,82.664,423.758,82.853z"/>
</g>
<g>
	<path d="M436.133,79.804c0.045,0.188,0.02,0.362-0.076,0.522c-0.098,0.159-0.24,0.263-0.428,0.31
		c-0.189,0.046-0.363,0.021-0.523-0.075c-0.16-0.098-0.264-0.239-0.311-0.427c-0.047-0.189-0.021-0.364,0.076-0.524
		s0.24-0.264,0.428-0.31c0.188-0.047,0.363-0.021,0.523,0.075C435.983,79.473,436.086,79.615,436.133,79.804z"/>
</g>
<g>
	<path d="M467.037,70.001c0.207,0.841,0.07,1.591-0.408,2.249c-0.479,0.659-1.217,1.111-2.217,1.357
		c-1.049,0.259-1.947,0.218-2.693-0.124c-0.744-0.341-1.223-0.937-1.432-1.788c-0.174-0.703-0.117-1.345,0.17-1.926
		c0.289-0.58,0.756-0.96,1.404-1.142c-0.633,0.03-1.17-0.126-1.611-0.469s-0.734-0.806-0.879-1.391
		c-0.191-0.781-0.064-1.491,0.383-2.126c0.447-0.636,1.127-1.064,2.037-1.289c0.93-0.229,1.74-0.178,2.434,0.156
		c0.691,0.334,1.133,0.892,1.326,1.674c0.146,0.594,0.113,1.144-0.1,1.647c-0.225,0.538-0.613,0.938-1.168,1.2
		c0.713-0.091,1.307,0.039,1.781,0.389C466.539,68.77,466.864,69.297,467.037,70.001z M464.614,65.477
		c-0.143-0.584-0.455-1.004-0.932-1.259c-0.479-0.256-1.033-0.305-1.668-0.148c-0.643,0.158-1.119,0.462-1.428,0.911
		c-0.311,0.449-0.395,0.961-0.252,1.535c0.141,0.574,0.463,0.999,0.967,1.272c0.504,0.276,1.062,0.337,1.676,0.186
		c0.604-0.148,1.062-0.457,1.379-0.93C464.67,66.575,464.756,66.052,464.614,65.477z M466.045,70.197
		c-0.158-0.644-0.5-1.099-1.021-1.363s-1.15-0.308-1.883-0.127c-0.721,0.178-1.258,0.509-1.605,0.994s-0.443,1.039-0.291,1.663
		c0.164,0.663,0.51,1.129,1.037,1.397c0.529,0.269,1.184,0.309,1.967,0.115c0.713-0.175,1.23-0.504,1.553-0.982
		C466.125,71.416,466.205,70.85,466.045,70.197z"/>
	<path d="M475.983,68.015l-1.352,0.333l0.594,2.406l-0.922,0.228l-0.592-2.406l-4.768,1.174l-0.189-0.772l3.078-7.894l0.951-0.234
		l1.65,6.697l1.352-0.333L475.983,68.015z M473.514,67.773l-1.326-5.375l-2.447,6.305L473.514,67.773z"/>
</g>
<g>
	<path d="M476.022,106.466c0.207,0.841,0.07,1.592-0.408,2.249c-0.477,0.659-1.217,1.112-2.217,1.358
		c-1.049,0.259-1.947,0.217-2.691-0.125c-0.746-0.341-1.225-0.937-1.434-1.788c-0.174-0.703-0.117-1.345,0.172-1.925
		c0.287-0.581,0.754-0.961,1.402-1.142c-0.633,0.029-1.17-0.127-1.611-0.469c-0.441-0.343-0.734-0.807-0.879-1.392
		c-0.191-0.781-0.064-1.491,0.383-2.125c0.447-0.636,1.127-1.065,2.037-1.29c0.932-0.229,1.742-0.178,2.434,0.156
		s1.133,0.893,1.326,1.675c0.146,0.594,0.113,1.143-0.1,1.646c-0.225,0.538-0.613,0.938-1.168,1.201
		c0.713-0.092,1.307,0.038,1.781,0.389C475.524,105.235,475.848,105.762,476.022,106.466z M473.6,101.942
		c-0.145-0.584-0.455-1.004-0.934-1.259s-1.033-0.305-1.666-0.148c-0.645,0.158-1.121,0.463-1.43,0.911
		c-0.311,0.449-0.393,0.961-0.252,1.535s0.465,0.999,0.967,1.273c0.504,0.275,1.062,0.336,1.676,0.185
		c0.604-0.148,1.064-0.457,1.379-0.93C473.655,103.04,473.74,102.516,473.6,101.942z M475.03,106.662
		c-0.158-0.644-0.498-1.098-1.021-1.363c-0.521-0.265-1.148-0.308-1.881-0.127c-0.723,0.178-1.258,0.509-1.605,0.994
		c-0.35,0.485-0.445,1.039-0.293,1.663c0.164,0.664,0.51,1.13,1.039,1.397c0.527,0.27,1.184,0.309,1.965,0.115
		c0.713-0.175,1.23-0.503,1.555-0.982C475.11,107.882,475.192,107.315,475.03,106.662z"/>
	<path d="M484.342,103.863c0.248,1,0.129,1.881-0.357,2.641c-0.484,0.76-1.227,1.263-2.227,1.51
		c-0.771,0.189-1.492,0.204-2.162,0.044c-0.4-0.091-0.686-0.204-0.855-0.341l0.316-0.756c0.771,0.356,1.566,0.434,2.389,0.231
		c0.781-0.192,1.348-0.558,1.699-1.097c0.35-0.537,0.434-1.178,0.252-1.92c-0.166-0.674-0.512-1.177-1.035-1.509
		c-0.572-0.364-1.258-0.447-2.061-0.249c-0.674,0.165-1.223,0.47-1.65,0.91l-0.516-0.172l-1.148-4.663l5.301-1.307l0.197,0.802
		l-4.381,1.079l0.773,3.134c0.473-0.337,0.947-0.564,1.422-0.682c1.029-0.254,1.904-0.161,2.621,0.276
		S484.112,102.923,484.342,103.863z"/>
</g>
</svg>
