<?xml version="1.0" encoding="utf-8"?>
<!-- Generator: Adobe Illustrator 16.0.4, SVG Export Plug-In . SVG Version: 6.00 Build 0)  -->
<!DOCTYPE svg PUBLIC "-//W3C//DTD SVG 1.1//EN" "http://www.w3.org/Graphics/SVG/1.1/DTD/svg11.dtd">
<svg version="1.1" id="Layer_1" xmlns="http://www.w3.org/2000/svg" xmlns:xlink="http://www.w3.org/1999/xlink" x="0px" y="0px"
	 width="476px" height="110.115px" viewBox="0 0 476 110.115" enable-background="new 0 0 476 110.115" xml:space="preserve">
<linearGradient id="SVGID_1_" gradientUnits="userSpaceOnUse" x1="238.0554" y1="-0.1404" x2="238.0554" y2="109.9739" gradientTransform="matrix(1 0 0 -1 -0.0552 109.9741)">
	<stop  offset="0" style="stop-color:#00948E"/>
	<stop  offset="1" style="stop-color:#002A29"/>
</linearGradient>
<rect x="0" y="0" fill="url(#SVGID_1_)" width="476" height="110.115"/>
<g>
	<path fill="#FFC229" d="M424.102,38.604c-3.23,2.276-7.697,1.503-9.973-1.728l-0.482-0.686c-2.275-3.229-1.5-7.695,1.73-9.972
		l18.979-13.371c3.232-2.276,7.697-1.502,9.973,1.728l0.482,0.686c2.275,3.229,1.5,7.695-1.73,9.972"/>
	<path fill="#E20707" d="M443.082,25.233c3.23-2.275,4.006-6.742,1.73-9.972l-0.482-0.686c-2.275-3.229-6.742-4.004-9.973-1.728
		l-9.488,6.687l8.723,12.383"/>
	<path fill="#F4AC1C" d="M433.592,31.919l-2.047-2.904l-9.49,6.687c-2.85,2.008-6.66,1.639-9.082-0.693
		c0.186,0.408,0.406,0.808,0.674,1.187l0.482,0.686c2.275,3.229,6.74,4.004,9.973,1.728"/>
	<path fill="#C90D0D" d="M443.082,25.233c3.23-2.275,4.006-6.742,1.73-9.972l-0.482-0.686c-0.135-0.19-0.277-0.37-0.426-0.543
		c-0.148-0.172-0.305-0.334-0.465-0.49c1.383,3.064,0.447,6.776-2.404,8.785l-9.49,6.686l2.047,2.904"/>
	<path opacity="0.4" fill="#FFFFFF" enable-background="new    " d="M418.848,31.489c-0.789,0.556-1.881,0.367-2.436-0.422
		l-0.119-0.168c-0.555-0.789-0.367-1.882,0.424-2.438l19.301-13.597c0.791-0.557,1.883-0.366,2.438,0.423l0.119,0.168
		c0.555,0.788,0.365,1.879-0.424,2.436L418.848,31.489z"/>
</g>
<g>
	<path fill="#E20707" d="M367.372,40.823c-0.098,0.228-0.206,0.453-0.329,0.676C367.166,41.276,367.276,41.052,367.372,40.823z"/>
	<path fill="#FFC229" d="M375.659,56.187c-3.775-2.078-5.15-6.822-3.074-10.594l0.441-0.801c2.076-3.772,6.821-5.148,10.596-3.07
		l22.17,12.206c3.774,2.078,5.15,6.823,3.073,10.595l-0.44,0.801c-2.076,3.771-6.822,5.146-10.596,3.069"/>
	<path fill="#29A9E0" d="M397.829,68.393c3.773,2.077,8.52,0.702,10.596-3.069l0.44-0.801c2.077-3.772,0.701-8.518-3.073-10.595
		l-11.085-6.103l-7.963,14.465"/>
	<path fill="#F4AC1C" d="M386.744,62.29l1.867-3.393l-11.085-6.102c-3.33-1.834-4.789-5.744-3.66-9.229
		c-0.312,0.375-0.597,0.783-0.841,1.227l-0.44,0.801c-2.076,3.771-0.701,8.516,3.073,10.594"/>
	<path fill="#189BC9" d="M397.829,68.393c3.773,2.077,8.52,0.702,10.596-3.069l0.44-0.801c0.123-0.223,0.23-0.448,0.329-0.677
		c0.098-0.228,0.183-0.458,0.258-0.689c-2.341,2.818-6.425,3.677-9.756,1.844l-11.085-6.104l-1.868,3.393"/>
	<path opacity="0.4" fill="#FFFFFF" enable-background="new    " d="M380.12,47.64c-0.922-0.508-1.26-1.667-0.752-2.588l0.107-0.196
		c0.508-0.922,1.668-1.257,2.59-0.75l22.546,12.413c0.922,0.507,1.259,1.667,0.751,2.589l-0.107,0.196
		c-0.507,0.921-1.668,1.256-2.589,0.748L380.12,47.64z"/>
</g>
<g>
	<g>
		<g>
			<g>
				<path fill="#E6E6E7" d="M139.334,11.408c2.697,1.354,4.411,4.551,6.225,8.731l0,0c3.493,8.345,6.49,20.983,9.254,30.737l0,0
					l-2.88,0.813c-2.781-9.828-5.801-22.444-9.138-30.391l0,0c-1.619-3.994-3.537-6.715-4.727-7.17l0,0
					c-1.9-1.016-6.321,0.03-9.677,1.508l0,0c-2.757,1.152-4.843,2.386-4.846,2.388l0,0l-1.524-2.579
					c0.034-0.024,2.252-1.335,5.207-2.578l0,0C130.879,11.406,135.55,9.771,139.334,11.408L139.334,11.408z"/>
			</g>
			<g>
				<path fill="#221F1F" d="M121.232,18.09c-0.631-1.227,0.353-2.989,2.194-3.934c1.846-0.942,3.845-0.71,4.474,0.517
					c0.629,1.23-0.354,2.988-2.194,3.932C123.862,19.55,121.856,19.317,121.232,18.09z"/>
			</g>
		</g>
		<g>
			<g>
				<path fill="#E6E6E7" d="M109.711,20.605l0.776,2.895c-0.004,0.01-2.341,0.622-5.094,1.777l0,0
					c-3.411,1.362-7.255,3.789-7.866,5.848l0,0c-0.507,1.17,0.099,4.444,1.809,8.398l0,0c3.331,7.953,10.209,18.952,15.274,27.819
					l0,0h-0.003l-2.604,1.486c-5.018-8.809-11.927-19.804-15.43-28.145l0,0c-1.715-4.222-2.786-7.686-1.87-10.557l0,0
					c1.488-3.847,5.925-6.03,9.531-7.611l0,0C107.188,21.277,109.674,20.615,109.711,20.605L109.711,20.605z"/>
			</g>
			<g>
				<path fill="#221F1F" d="M112.154,21.894c-0.437-1.308-2.381-1.84-4.345-1.188c-1.963,0.656-3.201,2.247-2.767,3.555
					c0.436,1.308,2.38,1.84,4.345,1.188C111.348,24.797,112.589,23.204,112.154,21.894z"/>
			</g>
		</g>
		<g>
			<path fill="#221F1F" d="M114.497,65.954c2.913,6.946,7.681,12.308,12.907,15.335l0,0c5.245,3.035,10.825,3.744,15.685,1.703l0,0
				c4.865-2.038,8.266-6.514,9.781-12.383l0,0c1.504-5.852,1.019-13.009-1.892-19.953l0,0l-0.005,0.001l3.608-1.515
				c6.384,15.291,2.459,32.108-9.982,37.456l0,0c-12.53,5.127-27.278-3.861-33.71-19.132l0,0L114.497,65.954L114.497,65.954z"/>
		</g>
	</g>
	<path fill="none" stroke="#221F1F" stroke-width="5.0386" stroke-miterlimit="10" d="M144.888,85.414
		c0,0,7.668,14.088,19.802,13.975c17.846-0.166,17.954-16.533,26.807-24.674c5.035-4.63,14.089-9.812,22.981-1.422
		c17.234,16.263-38.173,61.82-35.769-36.929"/>
	<g>
		<path fill="#A6A8AB" d="M191.497,34.033c0,7.449-6.042,13.488-13.491,13.488c-7.451,0-13.489-6.04-13.489-13.488
			c0-7.453,6.038-13.49,13.489-13.49C185.456,20.543,191.497,26.58,191.497,34.033z"/>
		<circle fill="#E6E6E7" cx="178.006" cy="34.033" r="6.496"/>
	</g>
</g>
<path fill="#E20707" d="M417.778,97.552c0.155,0.193,0.303,0.395,0.441,0.607C418.08,97.946,417.934,97.743,417.778,97.552z"/>
<g>
	<path fill="#FFC229" d="M438.187,84.799c-3.613,2.35-8.445,1.324-10.791-2.287l-0.499-0.766c-2.347-3.611-1.321-8.443,2.292-10.791
		l21.22-13.791c3.612-2.348,8.446-1.322,10.792,2.288l0.499,0.767c2.346,3.609,1.319,8.443-2.292,10.79"/>
	<path fill="#AA4DA3" d="M459.407,71.009c3.611-2.347,4.638-7.181,2.292-10.79l-0.499-0.767c-2.346-3.61-7.18-4.636-10.792-2.288
		l-10.61,6.895l8.998,13.846"/>
	<path fill="#F4AC1C" d="M448.796,77.904l-2.11-3.247l-10.609,6.896c-3.188,2.07-7.323,1.514-9.864-1.127
		c0.183,0.453,0.408,0.896,0.685,1.32l0.499,0.766c2.346,3.611,7.178,4.637,10.79,2.289"/>
	<path fill="#AC1AC6" d="M459.407,71.009c3.611-2.347,4.638-7.181,2.292-10.79l-0.499-0.767c-0.138-0.214-0.286-0.415-0.441-0.609
		c-0.154-0.193-0.317-0.377-0.486-0.553c1.381,3.394,0.212,7.399-2.976,9.472l-10.611,6.896l2.11,3.247"/>
	<path opacity="0.4" fill="#FFFFFF" enable-background="new    " d="M432.755,76.834c-0.883,0.574-2.064,0.324-2.638-0.559
		l-0.122-0.188c-0.573-0.882-0.322-2.062,0.561-2.637l21.58-14.024c0.882-0.573,2.063-0.323,2.637,0.56l0.122,0.188
		c0.573,0.881,0.321,2.062-0.562,2.635L432.755,76.834z"/>
</g>
<g>
	<path fill="#E20707" d="M206.448,15.03c-0.111,0.259-0.234,0.515-0.375,0.768C206.214,15.544,206.338,15.289,206.448,15.03z"/>
	<path fill="#FFC229" d="M215.866,32.491c-4.291-2.361-5.854-7.753-3.494-12.04l0.501-0.911c2.36-4.287,7.753-5.851,12.042-3.489
		l25.197,13.872c4.289,2.361,5.854,7.754,3.492,12.042l-0.5,0.91c-2.359,4.286-7.754,5.849-12.043,3.488"/>
	<path fill="#29A9E0" d="M241.063,46.364c4.289,2.36,9.684,0.798,12.043-3.488l0.5-0.91c2.361-4.288,0.797-9.681-3.492-12.042
		l-12.599-6.937l-9.05,16.439"/>
	<path fill="#F4AC1C" d="M228.465,39.427l2.122-3.855l-12.598-6.935c-3.785-2.084-5.443-6.528-4.16-10.49
		c-0.355,0.426-0.678,0.89-0.956,1.394l-0.5,0.911c-2.36,4.287-0.797,9.679,3.493,12.04"/>
	<path fill="#189BC9" d="M241.063,46.364c4.289,2.36,9.684,0.798,12.043-3.488l0.5-0.91c0.141-0.254,0.262-0.51,0.373-0.77
		c0.111-0.259,0.209-0.521,0.295-0.783c-2.662,3.203-7.303,4.179-11.088,2.095l-12.599-6.937l-2.123,3.855"/>
	<path opacity="0.4" fill="#FFFFFF" enable-background="new    " d="M220.936,22.778c-1.048-0.577-1.432-1.895-0.854-2.942
		l0.122-0.223c0.577-1.048,1.896-1.429,2.943-0.853l25.625,14.108c1.047,0.575,1.43,1.895,0.854,2.941l-0.123,0.224
		c-0.576,1.047-1.895,1.427-2.941,0.85L220.936,22.778z"/>
</g>
<g>
	<path fill="#FFC229" d="M267.777,93.331c-2.561,1.806-6.103,1.192-7.906-1.369l-0.383-0.544c-1.804-2.561-1.189-6.101,1.372-7.905
		l15.047-10.602c2.562-1.805,6.103-1.191,7.907,1.369l0.382,0.544c1.805,2.561,1.189,6.102-1.372,7.906"/>
	<path fill="#E20707" d="M282.825,82.73c2.562-1.805,3.176-5.346,1.372-7.906l-0.383-0.544c-1.804-2.561-5.346-3.174-7.906-1.369
		l-7.523,5.301l6.916,9.818"/>
	<path fill="#F4AC1C" d="M275.301,88.031l-1.623-2.303l-7.524,5.301c-2.259,1.592-5.28,1.3-7.2-0.55
		c0.147,0.324,0.322,0.641,0.534,0.941l0.383,0.543c1.804,2.561,5.344,3.175,7.906,1.37"/>
	<path fill="#C90D0D" d="M282.825,82.73c2.562-1.805,3.176-5.346,1.372-7.906l-0.383-0.544c-0.106-0.15-0.22-0.293-0.337-0.43
		c-0.118-0.137-0.242-0.266-0.369-0.389c1.097,2.43,0.354,5.372-1.906,6.965l-7.524,5.301l1.623,2.303"/>
	<path opacity="0.4" fill="#FFFFFF" enable-background="new    " d="M263.612,87.69c-0.626,0.44-1.491,0.291-1.932-0.335
		l-0.094-0.133c-0.44-0.626-0.291-1.492,0.336-1.933l15.303-10.78c0.627-0.441,1.492-0.29,1.933,0.335l0.094,0.134
		c0.44,0.625,0.29,1.489-0.336,1.931L263.612,87.69z"/>
</g>
<g>
	<path fill="#FFC229" d="M22.069,26.098c-4.044-1.49-6.113-5.976-4.622-10.016l0.315-0.857c1.49-4.041,5.976-6.11,10.019-4.619
		l23.745,8.755c4.042,1.49,6.111,5.978,4.622,10.017l-0.316,0.858c-1.489,4.039-5.977,6.108-10.018,4.618"/>
	<path fill="#AA4DA3" d="M45.814,34.855c4.041,1.49,8.528-0.579,10.018-4.618l0.316-0.858c1.489-4.039-0.58-8.526-4.622-10.017
		l-11.872-4.378L33.94,30.476"/>
	<path fill="#F4AC1C" d="M33.94,30.476l1.34-3.634l-11.872-4.377c-3.566-1.316-5.594-4.963-4.998-8.579
		c-0.254,0.417-0.474,0.864-0.648,1.339l-0.315,0.857c-1.491,4.04,0.578,8.525,4.62,10.017"/>
	<path fill="#AC1AC6" d="M45.814,34.855c4.041,1.49,8.528-0.579,10.018-4.618l0.316-0.858c0.089-0.238,0.161-0.478,0.224-0.718
		c0.062-0.239,0.112-0.479,0.152-0.721c-1.894,3.137-5.803,4.597-9.37,3.281L35.28,26.842l-1.34,3.634"/>
	<path opacity="0.4" fill="#FFFFFF" enable-background="new    " d="M25.203,16.981c-0.988-0.364-1.495-1.46-1.13-2.448l0.077-0.21
		c0.364-0.987,1.46-1.492,2.448-1.128l24.147,8.904c0.987,0.364,1.493,1.46,1.129,2.448l-0.077,0.21
		c-0.363,0.986-1.461,1.491-2.447,1.126L25.203,16.981z"/>
</g>
<g>
	<path fill="#FFC229" d="M69.443,100.954c-2.122,0.859-4.538-0.164-5.396-2.284l-0.182-0.449c-0.859-2.12,0.164-4.536,2.286-5.395
		l12.458-5.045c2.121-0.858,4.537,0.165,5.395,2.284l0.183,0.45c0.858,2.119-0.166,4.536-2.286,5.395"/>
	<path fill="#AA4DA3" d="M81.901,95.91c2.12-0.858,3.144-3.275,2.286-5.395l-0.183-0.45c-0.858-2.119-3.274-3.143-5.395-2.284
		l-6.229,2.522l3.291,8.128"/>
	<path fill="#F4AC1C" d="M75.671,98.431l-0.771-1.906l-6.229,2.522c-1.872,0.758-3.971,0.049-5.029-1.585
		c0.05,0.255,0.122,0.509,0.224,0.758l0.182,0.449c0.858,2.12,3.274,3.144,5.395,2.285"/>
	<path fill="#AC1AC6" d="M81.901,95.91c2.12-0.858,3.144-3.275,2.286-5.395l-0.183-0.45c-0.05-0.125-0.107-0.245-0.168-0.361
		c-0.062-0.117-0.128-0.229-0.198-0.338c0.377,1.909-0.638,3.88-2.509,4.638l-6.229,2.521l0.771,1.906"/>
	<path opacity="0.4" fill="#FFFFFF" enable-background="new    " d="M67.416,96.252c-0.519,0.21-1.109-0.04-1.319-0.559
		l-0.044-0.109c-0.21-0.518,0.041-1.108,0.559-1.318l12.669-5.13c0.518-0.209,1.108,0.041,1.318,0.559l0.044,0.11
		c0.209,0.517-0.041,1.108-0.559,1.317L67.416,96.252z"/>
</g>
<g>
	<path fill="#E20707" d="M326.676,97.471c0.07,0.18,0.132,0.363,0.186,0.555C326.808,97.835,326.746,97.651,326.676,97.471z"/>
	<path fill="#FFC229" d="M339.64,101.512c-3.229,0.896-6.574-0.995-7.47-4.223l-0.189-0.686c-0.896-3.227,0.996-6.572,4.226-7.468
		l18.97-5.263c3.229-0.896,6.574,0.996,7.47,4.223l0.19,0.686c0.895,3.227-0.998,6.572-4.227,7.469"/>
	<path fill="#29A9E0" d="M358.61,96.251c3.229-0.896,5.121-4.242,4.227-7.469l-0.19-0.686c-0.896-3.227-4.241-5.119-7.47-4.223
		l-9.485,2.631l3.435,12.377"/>
	<path fill="#F4AC1C" d="M349.125,98.882l-0.807-2.902l-9.484,2.631c-2.85,0.791-5.787-0.592-7.054-3.145
		c0.03,0.379,0.095,0.761,0.198,1.141l0.191,0.684c0.896,3.228,4.24,5.119,7.47,4.224"/>
	<path fill="#189BC9" d="M358.61,96.251c3.229-0.896,5.121-4.242,4.227-7.469l-0.19-0.686c-0.053-0.189-0.116-0.373-0.186-0.555
		c-0.069-0.18-0.147-0.354-0.231-0.523c0.23,2.84-1.574,5.539-4.425,6.33l-9.485,2.631l0.806,2.902"/>
	<path opacity="0.4" fill="#FFFFFF" enable-background="new    " d="M337.476,94.333c-0.79,0.219-1.608-0.242-1.826-1.031
		l-0.047-0.168c-0.22-0.789,0.244-1.605,1.033-1.824l19.291-5.353c0.788-0.22,1.606,0.243,1.825,1.032l0.047,0.168
		c0.219,0.787-0.245,1.605-1.034,1.822L337.476,94.333z"/>
</g>
</svg>
