<?xml version="1.0" encoding="utf-8"?>
<!-- Generator: Adobe Illustrator 16.0.4, SVG Export Plug-In . SVG Version: 6.00 Build 0)  -->
<!DOCTYPE svg PUBLIC "-//W3C//DTD SVG 1.1//EN" "http://www.w3.org/Graphics/SVG/1.1/DTD/svg11.dtd">
<svg version="1.1" id="Layer_1" xmlns="http://www.w3.org/2000/svg" xmlns:xlink="http://www.w3.org/1999/xlink" x="0px" y="0px"
	 width="173px" height="218px" viewBox="0 0 173 218" enable-background="new 0 0 173 218" xml:space="preserve">
<path fill="none" stroke="#373773" stroke-width="0.7508" stroke-linecap="round" stroke-linejoin="round" stroke-miterlimit="10" d="
	M50.95,78C26.1,88.21,9.46,111.5,8.18,137.84L8.41,165.9c-0.1,7.18,3.19,14,8.91,18.5c2.72,2.55,6.76,3.21,10.18,1.67
	c0.38,3.76,2.55,7.13,5.86,9.1 M33.36,195.17c24.2,12.25,51.11,18.48,78.36,18.15c8.84-0.12,17.51-2.38,25.24-6.57
	c2.65,2.63,6.73,3.28,10.11,1.62c7.529-3.66,13.52-9.79,16.91-17.33v-49.49C162.6,115.56,145.97,92.7,121.33,82.9"/>
<path fill="none" stroke="#555555" stroke-width="0.7508" stroke-linecap="round" stroke-linejoin="round" stroke-miterlimit="10" d="
	M134.49,50.83c0-25.06-20.75-45.37-46.35-45.37S41.79,25.77,41.79,50.83c0,25.05,20.75,45.36,46.35,45.36S134.49,75.88,134.49,50.83
	z"/>
<path fill="#BBEF6F" stroke="#000000" stroke-width="3" stroke-linecap="round" stroke-linejoin="round" stroke-miterlimit="10" d="
	M50.95,78C26.32,88.48,9.79,111.62,8.18,137.87l0.23,28.03c-0.1,7.18,3.19,14,8.91,18.5c2.72,2.55,6.76,3.21,10.18,1.67
	c0.38,3.76,2.55,7.13,5.86,9.1c24.2,12.25,51.11,18.48,78.36,18.15c8.84-0.12,17.51-2.38,25.24-6.57c2.65,2.63,6.73,3.28,10.11,1.62
	c7.529-3.66,13.52-9.79,16.91-17.33v-44.89c0.68-27.73-16.33-52.95-42.65-63.25l-0.39-0.02c18.08-17.76,18.03-46.49-0.11-64.18
	C102.69,1,73.33,1.05,55.25,18.8C39.01,34.76,37.18,59.96,50.95,78z"/>
<path fill="none" stroke="#555555" stroke-width="3" stroke-linecap="round" stroke-linejoin="round" stroke-miterlimit="10" d="
	M27.5,186.07c1.97-28.5,6.91-58.17,14.29-85.76"/>
<path fill="none" stroke="#555555" stroke-width="3" stroke-linecap="round" stroke-linejoin="round" stroke-miterlimit="10" d="
	M136.97,206.76c-0.71-30.21-2.99-60.8-6.76-90.78"/>
<path fill="none" stroke="#555555" stroke-width="3" stroke-linecap="round" stroke-linejoin="round" stroke-miterlimit="10" d="
	M51.06,77.24c15.38,20.08,44.49,24.16,65.01,9.1c1.76-1.29,3.42-2.7,4.98-4.23"/>
</svg>
