<?xml version="1.0" encoding="utf-8"?>
<!-- Generator: Adobe Illustrator 16.0.4, SVG Export Plug-In . SVG Version: 6.00 Build 0)  -->
<!DOCTYPE svg PUBLIC "-//W3C//DTD SVG 1.1//EN" "http://www.w3.org/Graphics/SVG/1.1/DTD/svg11.dtd">
<svg version="1.1" id="Layer_1" xmlns="http://www.w3.org/2000/svg" xmlns:xlink="http://www.w3.org/1999/xlink" x="0px" y="0px"
	 width="476px" height="110.115px" viewBox="0 0 476 110.115" enable-background="new 0 0 476 110.115" xml:space="preserve">
<linearGradient id="SVGID_1_" gradientUnits="userSpaceOnUse" x1="238.2" y1="-485.3064" x2="238.2" y2="-375.1917" gradientTransform="matrix(1 0 0 -1 -0.1655 -375.1919)">
	<stop  offset="0" style="stop-color:#0078D4"/>
	<stop  offset="1" style="stop-color:#7FD9FF"/>
</linearGradient>
<rect x="0.036" y="0" fill="url(#SVGID_1_)" width="475.997" height="110.115"/>
<path fill="#375414" d="M0,43.595c0,0,25.999-2.091,114.332,10.436c88.333,12.523,85,17.294,169.333,0
	s105.332-16.959,150.663-10.567C479.662,49.857,476,49.559,476,49.559v60.557H0V70.729V43.595z"/>
<linearGradient id="SVGID_2_" gradientUnits="userSpaceOnUse" x1="238.1648" y1="-485.3064" x2="238.1648" y2="-375.1912" gradientTransform="matrix(1 0 0 -1 -0.1655 -375.1919)">
	<stop  offset="0" style="stop-color:#1799FF;stop-opacity:0.1"/>
	<stop  offset="1" style="stop-color:#15ADFF;stop-opacity:0.2"/>
</linearGradient>
<rect x="0.001" y="-0.001" fill="url(#SVGID_2_)" width="475.997" height="110.116"/>
<linearGradient id="SVGID_3_" gradientUnits="userSpaceOnUse" x1="237.9998" y1="110.113" x2="237.9998" y2="4.0789">
	<stop  offset="0" style="stop-color:#135427"/>
	<stop  offset="1" style="stop-color:#4B471A"/>
</linearGradient>
<path fill="url(#SVGID_3_)" d="M92.665,39.435c36.938-22.055,68.667,47.981,120,45.647s100.666-77,116-80.667
	s35.666,23.333,48.666,43c13,19.666,25,45.334,54.997,43.667c30-1.667,43.671-20.477,43.671-20.477v39.507H0V56.418
	C0,56.418,34.665,78.751,92.665,39.435"/>
<path fill="#49BAE2" d="M201.826,84.509c0,0,6.509,1.162,8.674,0.868s9.243-1.064,9.243-1.064S215.5,94.155,215,99.356
	s0.25,10.562,0.5,10.757s-17,0-17,0s-1.822-8.391,0-14.656C199.958,90.444,201.826,84.509,201.826,84.509z"/>
<path fill="#FFFFFF" d="M329.153,6.414c-3.213-0.274-13.901,7.076-17.742,20.119c-2.104,7.146,2.979,2.274,8.764-7.4
	c5.781-9.675,7.492,1.324,11.913,9.646c4.422,8.321-0.271-2.595,4.411-10.855c2.342-4.131,14.624,8.438,20.063,10.535
	c5.441,2.101-8.253-14.692-15.055-19.941c0,0-2.041-1.415-5.952-2.107C331.644,5.719,329.153,6.414,329.153,6.414z"/>
<g>
	<g>
		<path fill="none" stroke="#EFD53A" stroke-miterlimit="10" d="M1.248,63.168c0,0,1.026,0.491,2.737,1.215"/>
		<path fill="none" stroke="#EFD53A" stroke-miterlimit="10" stroke-dasharray="6.0444,6.0444" d="M9.62,66.575
			c5.728,2.037,13.307,4.134,19.128,3.593c10.75-1,35.25-6.641,44.75-13.067c9.5-6.432,23.75-8.65,33.5-2.04
			c9.75,6.607,29.75,21.107,41,23.607s18.746,8.366,15.5,12.5c-4.75,6.054-30.25,8.25-25.5-2.75c2.602-6.021,16.75-9.25,29.75-6.75
			s42.5,11.992,53,10.246s32.25-4.746,54.75-27.996s44.987-53.095,55.5-54.25c10.51-1.152,17.5,9,23,15.75
			s29.25,41.715,36.25,49.357c7,7.642,11.5,15.893,24.5,18.893c12.997,3,35.247,6.75,47.747-1.25
			c4.168-2.668,7.061-4.693,9.062-6.215"/>
		<path fill="none" stroke="#EFD53A" stroke-miterlimit="10" d="M473.912,84.312c1.832-1.576,2.088-2.146,2.088-2.146"/>
	</g>
</g>
<g>
	<g>
		<path fill="#6E472A" d="M28.238,67.469c0,0,1.031-0.154,1.108-0.979s0.18-3.58-0.207-3.967c-0.386-0.387-1.339-0.928-1.391-1.059
			c-0.052-0.127-0.542-1.492-0.542-1.492h0.206c0,0,0.717,1.287,0.9,1.416c0.182,0.129,1.11,0.619,1.29,0.566
			c0.18-0.051-0.464-1.287-0.464-1.287v-1.443h0.181c0,0,0,1.34,0.129,1.469s0.644,1.205,0.902,1.066
			c0.257-0.139,1.984-2.148,1.984-2.148l0.206,0.18c0,0-1.597,1.85-1.545,1.969s2.036,0.17,2.036,0.17l1.546-1.158l0.103,0.18
			c0,0-1.417,1.287-1.598,1.34c-0.18,0.051-1.906,0.154-1.958,0.283c-0.052,0.129-0.012,3.576,0.039,3.875
			c0.094,0.555,1.095,1.02,1.095,1.02S30.453,67.186,28.238,67.469z"/>
		<path fill="#7F563E" d="M29.393,62.512c0,0,0.263,0.471,0.263,1.588s0.022,2.869-0.41,3.088c0,0,0.821-0.131,1.149-0.113
			l-0.279-4.945C30.115,62.13,29.646,62.503,29.393,62.512z"/>
	</g>
	<g>
		<g>
			<path fill="#96C23B" d="M23.821,60.052c0,0,0.475,1.312,1.918,1.004c1.423-0.305,1.717-1.152,1.717-1.152s0.719,0.748,2.02,0.416
				s1.633-1.245,1.633-1.245s-0.093,1.11,1.018,1.62c1.112,0.51,1.86,0.205,1.86,0.205s-0.139,0.963,1.328,1.285
				c1.466,0.32,2.634-1.23,2.385-2.584c-0.249-1.356-1.334-1.882-1.334-1.882s1.096-0.927,0.459-2.345
				c-0.636-1.418-2.037-1.225-2.037-1.225s0.586-1.287-0.387-2.324c-1.012-1.079-2.186-0.708-2.545-0.626
				c0,0-0.544-1.644-2.562-1.228c-1.777,0.367-1.976,1.976-1.644,2.723c0,0-1.944-0.138-2.518,1.345
				c-0.732,1.89,0.692,2.933,0.692,2.933S22.905,57.371,23.821,60.052z"/>
			<path fill="#A9CA4B" d="M28.325,51.241c0.097-0.3,0.854-0.771,1.659-0.771s1.511,0.969,1.577,1.182c0,0,0.903-0.246,1.691,0
				c0.789,0.247,1.347,1.577,1.249,2.218c-0.099,0.64-0.838,0.575-0.805,0c0.033-0.575-0.279-1.38-0.887-1.61
				c-0.607-0.23-1.297,0.148-1.626-0.361s-0.969-0.854-1.511-0.739C29.13,51.274,28.177,51.701,28.325,51.241z"/>
		</g>
		<g>
			<path fill="#A9CB56" d="M33.722,60.975c0,0-0.336,0.93-1.355,0.711c-1.005-0.217-1.212-0.814-1.212-0.814
				s-0.509,0.529-1.427,0.295c-0.918-0.236-1.153-0.879-1.153-0.879s0.065,0.783-0.72,1.143c-0.785,0.361-1.312,0.145-1.312,0.145
				s0.098,0.68-0.938,0.908c-1.036,0.227-1.861-0.869-1.685-1.826c0.176-0.957,0.941-1.328,0.941-1.328s-0.773-0.653-0.324-1.655
				c0.45-1.002,1.439-0.865,1.439-0.865s-0.414-0.909,0.273-1.642c0.714-0.762,1.543-0.5,1.797-0.442c0,0,0.384-1.162,1.81-0.868
				c1.255,0.259,1.396,1.396,1.161,1.923c0,0,1.373-0.097,1.778,0.95c0.518,1.335-0.488,2.071-0.488,2.071
				S34.368,59.085,33.722,60.975z"/>
			<path fill="#B6D05E" d="M30.541,54.755c-0.068-0.212-0.604-0.545-1.171-0.545c-0.568,0-1.067,0.684-1.114,0.835
				c0,0-0.638-0.174-1.195,0s-0.951,1.114-0.881,1.566c0.069,0.452,0.591,0.405,0.568,0c-0.023-0.406,0.197-0.974,0.626-1.137
				c0.43-0.162,0.917,0.104,1.149-0.255c0.231-0.359,0.684-0.603,1.066-0.521C29.972,54.779,30.645,55.08,30.541,54.755z"/>
		</g>
	</g>
</g>
<g>
	<g>
		<g>
			<path fill="#6E472A" d="M453.318,91.188c-0.012,0.001-0.018,0.002-0.018,0.002S453.306,91.189,453.318,91.188z"/>
			<path fill="#6E472A" d="M458.332,84.474c0,0,1.474-0.565,1.898-1.047c0.425-0.482,2.087-3.615,2.087-3.615l-0.056-0.142
				c0,0-1.466,2.37-2.044,3.215l-0.45-1.882l-0.17,0.138l0.388,2.045c-0.244,0.184-1.439,0.694-1.937,0.694
				c-0.511,0-1.332-0.917-1.304-2.654h-0.112c0,0-0.446,1.889,0.566,2.881c0,0-1.627-0.2-2.109-0.512s-1.432-1.698-1.432-1.698
				l-0.086,0.142c0,0,0.794,1.502,1.219,1.756c0.425,0.256,1.643,0.822,1.643,0.822s0.28,1.608-0.094,3.589
				c-0.283,1.501-2.218,2.084-2.324,2.097c0.178-0.018,4.733-0.51,6.632,0.142c0,0-1.588-1.19-1.87-2.124
				C458.492,87.384,458.134,85.439,458.332,84.474z"/>
		</g>
		<path fill="#7F563E" d="M456.61,84.58c0,0,0.523,0.028,0.864-0.071c0,0,0.142,3.627,0.085,4.15
			c-0.057,0.524-0.68,1.232-0.68,1.232s-1.148,0.028-1.602,0.143c0,0,1.034-0.468,1.219-1.602
			C456.68,87.3,456.695,85.075,456.61,84.58z"/>
	</g>
	<g>
		<g>
			<path fill="#82B727" d="M451.304,79.288c0,0-1.677-0.907-1.263-3.589c0.416-2.682,3.723-2.796,3.723-2.796
				s-0.322-2.568,2.209-3.286s5.163,1.196,4.666,3.702c0,0,2.36,0.604,2.398,2.531s-2.568,2.862-2.568,2.862L451.304,79.288z"/>
			<path fill="#91C029" d="M451.043,74.925c0,0,0.548-1.342,3.117-1.757c0,0,0.051-2.029,1.467-2.814
				c1.243-0.69,2.575-0.151,2.744,0.169c0.171,0.322-1.57-0.02-2.181,0.359c-1.294,0.803-0.615,2.201-1.398,2.824
				c-0.782,0.624-1.644,0.378-2.748,1.029C451.274,75.19,450.817,75.51,451.043,74.925z"/>
		</g>
		<g>
			<path fill="#96C23B" d="M461.996,75.877c1.04-0.453,3.589,0.038,2.967,2.908c0,0-0.592,2.106-2.909,1.229
				c0,0-1.059,1.246-2.701,0.623c0,0-2.153,1.247-3.569-0.851c-1.417-2.097-0.241-5.171,2.429-5.39
				C460.882,74.177,461.996,75.877,461.996,75.877z"/>
			<path fill="#A9CA4B" d="M464.49,77.294c-0.095-0.284-0.737-1.323-2.57-1.059c0,0-0.849-0.981-2.114-1.359s-2.418,0-2.512,0.415
				c-0.095,0.416,1.367,0.101,1.964,0.265c1.644,0.451,1.794,1.304,2.437,1.379s1.359,0.095,1.907,0.359
				C464.15,77.557,464.622,77.69,464.49,77.294z"/>
		</g>
		<g>
			<path fill="#A9CB56" d="M453.299,77.927c-1.039-0.453-3.588,0.038-2.965,2.909c0,0,0.59,2.106,2.909,1.228
				c0,0,1.057,1.248,2.7,0.625c0,0,2.153,1.246,3.57-0.852c1.416-2.097,0.24-5.171-2.431-5.39
				C454.413,76.228,453.299,77.927,453.299,77.927z"/>
			<path fill="#B6D05E" d="M450.806,79.344c0.094-0.283,0.736-1.322,2.568-1.058c0,0,0.851-0.982,2.115-1.359
				c1.267-0.378,2.418,0,2.513,0.415c0.095,0.416-1.374,0.078-1.965,0.265c-1.643,0.52-1.793,1.303-2.436,1.379
				c-0.643,0.075-1.361,0.095-1.908,0.358C451.146,79.608,450.673,79.74,450.806,79.344z"/>
		</g>
	</g>
</g>
<g>
	<g>
		<g>
			<path fill="#6E472A" d="M409.067,91.749c-0.009,0.001-0.014,0.002-0.014,0.002S409.058,91.75,409.067,91.749z"/>
			<path fill="#6E472A" d="M412.996,86.489c0,0,1.155-0.444,1.487-0.821c0.333-0.377,1.636-2.833,1.636-2.833l-0.044-0.11
				c0,0-1.148,1.857-1.602,2.52l-0.353-1.475l-0.133,0.107l0.304,1.603c-0.191,0.144-1.129,0.544-1.518,0.544
				c-0.4,0-1.044-0.719-1.021-2.08h-0.089c0,0-0.349,1.48,0.444,2.258c0,0-1.275-0.157-1.652-0.401
				c-0.378-0.244-1.123-1.33-1.123-1.33l-0.066,0.11c0,0,0.622,1.177,0.954,1.376c0.334,0.2,1.288,0.645,1.288,0.645
				s0.22,1.26-0.074,2.812c-0.222,1.177-1.737,1.633-1.82,1.643c0.139-0.014,3.708-0.398,5.195,0.111c0,0-1.243-0.933-1.465-1.664
				C413.122,88.768,412.841,87.244,412.996,86.489z"/>
		</g>
		<path fill="#7F563E" d="M411.647,86.571c0,0,0.41,0.021,0.677-0.057c0,0,0.111,2.843,0.066,3.253
			c-0.044,0.411-0.532,0.966-0.532,0.966s-0.899,0.022-1.255,0.111c0,0,0.811-0.367,0.955-1.255
			C411.701,88.702,411.713,86.959,411.647,86.571z"/>
	</g>
	<g>
		<g>
			<path fill="#82B727" d="M407.49,82.425c0,0-1.314-0.711-0.989-2.812s2.916-2.19,2.916-2.19s-0.252-2.013,1.731-2.575
				c1.983-0.562,4.045,0.938,3.656,2.9c0,0,1.85,0.475,1.879,1.984s-2.013,2.242-2.013,2.242L407.49,82.425z"/>
			<path fill="#91C029" d="M407.284,79.006c0,0,0.43-1.051,2.442-1.377c0,0,0.04-1.59,1.149-2.205
				c0.975-0.541,2.018-0.118,2.15,0.133c0.134,0.252-1.229-0.016-1.709,0.281c-1.014,0.629-0.481,1.725-1.095,2.213
				c-0.614,0.488-1.288,0.296-2.153,0.807C407.465,79.214,407.107,79.464,407.284,79.006z"/>
		</g>
		<g>
			<path fill="#96C23B" d="M415.867,79.752c0.814-0.355,2.812,0.029,2.324,2.278c0,0-0.463,1.651-2.279,0.963
				c0,0-0.829,0.977-2.117,0.488c0,0-1.687,0.977-2.796-0.666c-1.11-1.644-0.189-4.052,1.902-4.224
				C414.994,78.42,415.867,79.752,415.867,79.752z"/>
			<path fill="#A9CA4B" d="M417.822,80.862c-0.074-0.224-0.577-1.037-2.014-0.829c0,0-0.666-0.77-1.656-1.065
				c-0.992-0.297-1.896,0-1.969,0.324c-0.074,0.326,1.071,0.08,1.538,0.208c1.288,0.354,1.406,1.021,1.91,1.08
				c0.503,0.059,1.065,0.074,1.494,0.282C417.555,81.069,417.925,81.173,417.822,80.862z"/>
		</g>
		<g>
			<path fill="#A9CB56" d="M409.052,81.358c-0.813-0.355-2.812,0.029-2.323,2.279c0,0,0.463,1.65,2.28,0.962
				c0,0,0.828,0.978,2.115,0.489c0,0,1.688,0.977,2.798-0.667c1.109-1.643,0.188-4.052-1.904-4.223
				C409.926,80.027,409.052,81.358,409.052,81.358z"/>
			<path fill="#B6D05E" d="M407.099,82.469c0.074-0.223,0.577-1.036,2.013-0.829c0,0,0.666-0.77,1.657-1.065
				c0.992-0.296,1.895,0,1.969,0.325c0.074,0.326-1.077,0.062-1.539,0.207c-1.287,0.407-1.405,1.021-1.909,1.081
				c-0.503,0.059-1.066,0.074-1.495,0.281C407.365,82.676,406.995,82.779,407.099,82.469z"/>
		</g>
	</g>
</g>
<g>
	<g>
		<g>
			<path fill="#6E472A" d="M129.781,87.174c-0.01,0-0.016,0.002-0.016,0.002S129.771,87.174,129.781,87.174z"/>
			<path fill="#6E472A" d="M134.383,81.013c0,0,1.353-0.521,1.742-0.961c0.389-0.441,1.915-3.318,1.915-3.318l-0.052-0.129
				c0,0-1.345,2.175-1.875,2.95l-0.413-1.727l-0.155,0.125l0.355,1.877c-0.224,0.169-1.322,0.638-1.777,0.638
				c-0.469,0-1.223-0.842-1.196-2.437h-0.104c0,0-0.409,1.734,0.52,2.645c0,0-1.493-0.185-1.935-0.471
				c-0.442-0.285-1.315-1.557-1.315-1.557l-0.078,0.129c0,0,0.728,1.378,1.117,1.611c0.391,0.234,1.508,0.755,1.508,0.755
				s0.258,1.476-0.086,3.293c-0.26,1.377-2.035,1.911-2.132,1.923c0.163-0.016,4.342-0.467,6.084,0.13c0,0-1.456-1.092-1.716-1.948
				C134.531,83.682,134.201,81.897,134.383,81.013z"/>
		</g>
		<path fill="#7F563E" d="M132.802,81.11c0,0,0.48,0.024,0.793-0.066c0,0,0.131,3.328,0.078,3.81
			c-0.052,0.48-0.623,1.131-0.623,1.131s-1.054,0.026-1.47,0.131c0,0,0.949-0.431,1.118-1.471
			C132.866,83.605,132.88,81.563,132.802,81.11z"/>
	</g>
	<g>
		<g>
			<path fill="#82B727" d="M127.934,76.254c0,0-1.539-0.833-1.158-3.294s3.415-2.564,3.415-2.564s-0.295-2.357,2.027-3.016
				c2.322-0.658,4.737,1.098,4.282,3.396c0,0,2.165,0.556,2.199,2.324c0.035,1.768-2.356,2.625-2.356,2.625L127.934,76.254z"/>
			<path fill="#91C029" d="M127.694,72.251c0,0,0.503-1.231,2.86-1.613c0,0,0.046-1.861,1.346-2.582
				c1.141-0.634,2.363-0.139,2.519,0.155c0.156,0.296-1.441-0.019-2.002,0.329c-1.188,0.736-0.563,2.02-1.282,2.592
				c-0.719,0.572-1.508,0.347-2.521,0.944C127.906,72.494,127.486,72.787,127.694,72.251z"/>
		</g>
		<g>
			<path fill="#96C23B" d="M137.745,73.124c0.954-0.416,3.292,0.035,2.722,2.668c0,0-0.542,1.934-2.67,1.128
				c0,0-0.97,1.144-2.479,0.572c0,0-1.976,1.144-3.274-0.78c-1.3-1.925-0.222-4.745,2.229-4.946S137.745,73.124,137.745,73.124z"/>
			<path fill="#A9CA4B" d="M140.033,74.425c-0.087-0.262-0.676-1.215-2.357-0.971c0,0-0.78-0.902-1.94-1.248
				c-1.161-0.348-2.219,0-2.305,0.379c-0.088,0.383,1.255,0.094,1.801,0.244c1.508,0.414,1.646,1.196,2.237,1.265
				c0.589,0.069,1.247,0.087,1.749,0.331C139.722,74.667,140.155,74.788,140.033,74.425z"/>
		</g>
		<g>
			<path fill="#A9CB56" d="M129.764,75.005c-0.953-0.416-3.292,0.035-2.721,2.67c0,0,0.542,1.932,2.67,1.126
				c0,0,0.97,1.145,2.477,0.573c0,0,1.976,1.144,3.277-0.781c1.3-1.923,0.221-4.744-2.229-4.945
				C130.788,73.446,129.764,75.005,129.764,75.005z"/>
			<path fill="#B6D05E" d="M127.476,76.305c0.087-0.261,0.676-1.214,2.357-0.971c0,0,0.78-0.901,1.941-1.248
				c1.161-0.346,2.219,0,2.306,0.381c0.086,0.382-1.262,0.072-1.803,0.242c-1.507,0.477-1.646,1.197-2.236,1.267
				c-0.589,0.068-1.249,0.087-1.751,0.329C127.788,76.549,127.355,76.67,127.476,76.305z"/>
		</g>
	</g>
</g>
<g>
	<g>
		<g>
			<path fill="#6E472A" d="M164.829,87.764c-0.009,0.001-0.014,0.002-0.014,0.002S164.821,87.765,164.829,87.764z"/>
			<path fill="#6E472A" d="M168.759,82.505c0,0,1.155-0.444,1.487-0.821c0.333-0.377,1.636-2.833,1.636-2.833l-0.044-0.11
				c0,0-1.148,1.857-1.602,2.52l-0.353-1.475l-0.133,0.107l0.304,1.603c-0.191,0.144-1.129,0.544-1.518,0.544
				c-0.4,0-1.044-0.719-1.021-2.08h-0.089c0,0-0.349,1.48,0.444,2.258c0,0-1.275-0.157-1.652-0.401
				c-0.378-0.244-1.123-1.33-1.123-1.33l-0.066,0.11c0,0,0.622,1.177,0.954,1.376c0.334,0.2,1.288,0.645,1.288,0.645
				s0.22,1.26-0.074,2.812c-0.222,1.177-1.737,1.633-1.82,1.643c0.139-0.014,3.708-0.398,5.195,0.111c0,0-1.243-0.933-1.465-1.664
				C168.885,84.784,168.604,83.26,168.759,82.505z"/>
		</g>
		<path fill="#7F563E" d="M167.409,82.587c0,0,0.41,0.021,0.677-0.057c0,0,0.111,2.843,0.066,3.253
			c-0.044,0.411-0.532,0.966-0.532,0.966s-0.899,0.022-1.255,0.111c0,0,0.811-0.367,0.955-1.255
			C167.464,84.718,167.476,82.974,167.409,82.587z"/>
	</g>
	<g>
		<g>
			<path fill="#82B727" d="M163.252,78.44c0,0-1.314-0.711-0.989-2.812s2.916-2.19,2.916-2.19s-0.252-2.013,1.731-2.575
				c1.983-0.562,4.045,0.938,3.656,2.9c0,0,1.85,0.475,1.879,1.984s-2.013,2.242-2.013,2.242L163.252,78.44z"/>
			<path fill="#91C029" d="M163.047,75.021c0,0,0.43-1.051,2.442-1.377c0,0,0.04-1.59,1.149-2.205
				c0.975-0.541,2.018-0.118,2.15,0.133c0.134,0.252-1.229-0.016-1.709,0.281c-1.014,0.629-0.481,1.725-1.095,2.213
				c-0.614,0.488-1.288,0.296-2.153,0.807C163.228,75.229,162.869,75.479,163.047,75.021z"/>
		</g>
		<g>
			<path fill="#96C23B" d="M171.63,75.767c0.814-0.355,2.812,0.029,2.324,2.278c0,0-0.463,1.651-2.279,0.963
				c0,0-0.829,0.977-2.117,0.488c0,0-1.687,0.977-2.796-0.666c-1.11-1.644-0.189-4.052,1.902-4.224
				C170.757,74.435,171.63,75.767,171.63,75.767z"/>
			<path fill="#A9CA4B" d="M173.584,76.878c-0.074-0.224-0.577-1.037-2.014-0.829c0,0-0.666-0.77-1.656-1.065
				c-0.992-0.297-1.896,0-1.969,0.324c-0.074,0.326,1.071,0.08,1.538,0.208c1.288,0.354,1.406,1.021,1.91,1.08
				c0.503,0.059,1.065,0.074,1.494,0.282C173.318,77.085,173.688,77.188,173.584,76.878z"/>
		</g>
		<g>
			<path fill="#A9CB56" d="M164.815,77.374c-0.813-0.355-2.812,0.029-2.323,2.279c0,0,0.463,1.65,2.28,0.962
				c0,0,0.828,0.978,2.115,0.489c0,0,1.688,0.977,2.798-0.667c1.109-1.643,0.188-4.052-1.904-4.223
				C165.689,76.043,164.815,77.374,164.815,77.374z"/>
			<path fill="#B6D05E" d="M162.862,78.484c0.074-0.223,0.577-1.036,2.013-0.829c0,0,0.666-0.77,1.657-1.065
				c0.992-0.296,1.895,0,1.969,0.325c0.074,0.326-1.077,0.062-1.539,0.207c-1.287,0.407-1.405,1.021-1.909,1.081
				c-0.503,0.059-1.066,0.074-1.495,0.281C163.127,78.691,162.758,78.795,162.862,78.484z"/>
		</g>
	</g>
</g>
<g>
	<g>
		<g>
			<path fill="#6E472A" d="M149.526,100.26c-0.009,0.001-0.014,0.002-0.014,0.002S149.517,100.261,149.526,100.26z"/>
			<path fill="#6E472A" d="M153.455,95.001c0,0,1.155-0.444,1.487-0.821c0.333-0.377,1.636-2.833,1.636-2.833l-0.044-0.11
				c0,0-1.148,1.857-1.602,2.52l-0.353-1.475l-0.133,0.107l0.304,1.603c-0.191,0.144-1.129,0.544-1.518,0.544
				c-0.4,0-1.044-0.719-1.021-2.08h-0.089c0,0-0.349,1.48,0.444,2.258c0,0-1.275-0.157-1.652-0.401
				c-0.378-0.244-1.123-1.33-1.123-1.33l-0.066,0.11c0,0,0.622,1.177,0.954,1.376c0.334,0.2,1.288,0.645,1.288,0.645
				s0.22,1.26-0.074,2.812c-0.222,1.177-1.737,1.633-1.82,1.643c0.139-0.014,3.708-0.398,5.195,0.111c0,0-1.243-0.933-1.465-1.664
				C153.581,97.28,153.3,95.756,153.455,95.001z"/>
		</g>
		<path fill="#7F563E" d="M152.106,95.083c0,0,0.41,0.021,0.677-0.057c0,0,0.111,2.843,0.066,3.253
			c-0.044,0.411-0.532,0.966-0.532,0.966s-0.899,0.022-1.255,0.111c0,0,0.811-0.367,0.955-1.255
			C152.16,97.214,152.172,95.47,152.106,95.083z"/>
	</g>
	<g>
		<g>
			<path fill="#82B727" d="M147.948,90.936c0,0-1.314-0.711-0.989-2.812s2.916-2.19,2.916-2.19s-0.252-2.013,1.731-2.575
				c1.983-0.562,4.045,0.938,3.656,2.9c0,0,1.85,0.475,1.879,1.984s-2.013,2.242-2.013,2.242L147.948,90.936z"/>
			<path fill="#91C029" d="M147.743,87.517c0,0,0.43-1.051,2.442-1.377c0,0,0.04-1.59,1.149-2.205
				c0.975-0.541,2.018-0.118,2.15,0.133c0.134,0.252-1.229-0.016-1.709,0.281c-1.014,0.629-0.481,1.725-1.095,2.213
				c-0.614,0.488-1.288,0.296-2.153,0.807C147.924,87.725,147.566,87.975,147.743,87.517z"/>
		</g>
		<g>
			<path fill="#96C23B" d="M156.326,88.263c0.814-0.355,2.812,0.029,2.324,2.278c0,0-0.463,1.651-2.279,0.963
				c0,0-0.829,0.977-2.117,0.488c0,0-1.687,0.977-2.796-0.666c-1.11-1.644-0.189-4.052,1.902-4.224
				C155.453,86.931,156.326,88.263,156.326,88.263z"/>
			<path fill="#A9CA4B" d="M158.281,89.374c-0.074-0.224-0.577-1.037-2.014-0.829c0,0-0.666-0.77-1.656-1.065
				c-0.992-0.297-1.896,0-1.969,0.324c-0.074,0.326,1.071,0.08,1.538,0.208c1.288,0.354,1.406,1.021,1.91,1.08
				c0.503,0.059,1.065,0.074,1.494,0.282C158.014,89.581,158.384,89.684,158.281,89.374z"/>
		</g>
		<g>
			<path fill="#A9CB56" d="M149.511,89.87c-0.813-0.355-2.812,0.029-2.323,2.279c0,0,0.463,1.65,2.28,0.962
				c0,0,0.828,0.978,2.115,0.489c0,0,1.688,0.977,2.798-0.667c1.109-1.643,0.188-4.052-1.904-4.223
				C150.385,88.539,149.511,89.87,149.511,89.87z"/>
			<path fill="#B6D05E" d="M147.558,90.98c0.074-0.223,0.577-1.036,2.013-0.829c0,0,0.666-0.77,1.657-1.065
				c0.992-0.296,1.895,0,1.969,0.325c0.074,0.326-1.077,0.062-1.539,0.207c-1.287,0.407-1.405,1.021-1.909,1.081
				c-0.503,0.059-1.066,0.074-1.495,0.281C147.823,91.187,147.454,91.291,147.558,90.98z"/>
		</g>
	</g>
</g>
</svg>
