<?xml version="1.0" encoding="utf-8"?>
<!-- Generator: Adobe Illustrator 16.0.4, SVG Export Plug-In . SVG Version: 6.00 Build 0)  -->
<!DOCTYPE svg PUBLIC "-//W3C//DTD SVG 1.1//EN" "http://www.w3.org/Graphics/SVG/1.1/DTD/svg11.dtd">
<svg version="1.1" id="Layer_1" xmlns="http://www.w3.org/2000/svg" xmlns:xlink="http://www.w3.org/1999/xlink" x="0px" y="0px"
	 width="656.293px" height="179.92px" viewBox="0 0 656.293 179.92" enable-background="new 0 0 656.293 179.92"
	 xml:space="preserve">
<rect x="453.359" y="1.887" fill="#558B31" width="200.404" height="33.672"/>
<rect x="5.06" y="141.922" fill="#558B31" width="167.348" height="33.672"/>
<g>
	<path fill="#010202" d="M17.453,64.053h-1.824v-0.665c-0.836,0.596-1.691,0.893-2.565,0.893c-1.24,0-2.242-0.439-3.002-1.32
		c-0.76-0.88-1.14-2.023-1.14-3.43c0-1.456,0.434-2.656,1.302-3.6c0.867-0.944,1.936-1.416,3.202-1.416
		c0.671,0,1.317,0.158,1.938,0.475v-4.674h2.091L17.453,64.053L17.453,64.053z M15.363,61.906v-5.148
		c-0.507-0.329-1.052-0.494-1.634-0.494c-0.798,0-1.446,0.285-1.946,0.855c-0.5,0.569-0.75,1.361-0.75,2.375
		c0,0.925,0.233,1.665,0.702,2.223c0.47,0.558,1.059,0.836,1.768,0.836C14.096,62.552,14.717,62.337,15.363,61.906z"/>
	<path fill="#010202" d="M27.827,59.303c0,0.114-0.008,0.257-0.02,0.428c-0.013,0.171-0.019,0.275-0.019,0.313H21.5
		c0,0.658,0.195,1.229,0.589,1.71c0.48,0.57,1.166,0.854,2.052,0.854c0.76,0,1.608-0.234,2.546-0.703l0.723,1.368
		c-0.95,0.672-2.098,1.007-3.439,1.007c-1.418,0-2.533-0.462-3.344-1.387c-0.786-0.874-1.178-2.014-1.178-3.42
		c0-1.456,0.404-2.647,1.216-3.572c0.811-0.924,1.868-1.387,3.173-1.387c1.254,0,2.231,0.425,2.936,1.273
		C27.477,56.635,27.827,57.809,27.827,59.303z M25.851,58.486c0-0.569-0.121-1.063-0.36-1.481c-0.354-0.596-0.894-0.894-1.615-0.894
		c-0.646,0-1.182,0.219-1.605,0.656c-0.425,0.437-0.681,1.01-0.77,1.719H25.851z"/>
	<path fill="#010202" d="M38.353,59.265c0,1.47-0.437,2.673-1.311,3.61s-1.938,1.405-3.192,1.405c-0.697,0-1.343-0.151-1.938-0.455
		v4.312h-2.091V54.781h1.844v0.628c0.722-0.596,1.569-0.894,2.546-0.894c1.241,0,2.242,0.44,3.002,1.32
		C37.973,56.716,38.353,57.859,38.353,59.265z M36.244,59.303c0-0.925-0.241-1.672-0.723-2.242
		c-0.456-0.532-1.039-0.798-1.748-0.798c-0.734,0-1.354,0.216-1.861,0.646v5.148c0.506,0.33,1.051,0.494,1.634,0.494
		c0.798,0,1.447-0.288,1.948-0.864C35.993,61.112,36.244,60.317,36.244,59.303z"/>
	<path fill="#010202" d="M46.237,54.724l-0.475,1.615c-0.177-0.038-0.386-0.058-0.627-0.058c-1.127,0-2.021,0.476-2.679,1.426v6.346
		h-2.09v-9.271h1.823v1.179c0.152-0.24,0.432-0.494,0.836-0.76c0.671-0.456,1.399-0.685,2.186-0.685
		C45.579,54.515,45.92,54.585,46.237,54.724z"/>
	<path fill="#010202" d="M55.072,59.303c0,0.114-0.007,0.257-0.019,0.428c-0.013,0.171-0.019,0.275-0.019,0.313h-6.289
		c0,0.658,0.195,1.229,0.589,1.71c0.48,0.57,1.166,0.854,2.052,0.854c0.76,0,1.608-0.234,2.546-0.703l0.722,1.368
		c-0.949,0.672-2.097,1.007-3.438,1.007c-1.418,0-2.533-0.462-3.344-1.387c-0.786-0.874-1.179-2.014-1.179-3.42
		c0-1.456,0.405-2.647,1.217-3.572c0.811-0.924,1.867-1.387,3.173-1.387c1.254,0,2.231,0.425,2.936,1.273
		C54.722,56.635,55.072,57.809,55.072,59.303z M53.096,58.486c0-0.569-0.121-1.063-0.361-1.481
		c-0.354-0.596-0.893-0.894-1.614-0.894c-0.646,0-1.182,0.219-1.605,0.656c-0.425,0.437-0.681,1.01-0.77,1.719H53.096z"/>
	<path fill="#010202" d="M63.318,61.393c0,0.899-0.329,1.609-0.987,2.128c-0.659,0.52-1.507,0.779-2.546,0.779
		c-0.836,0-1.635-0.152-2.395-0.456c-0.469-0.19-0.798-0.367-0.988-0.532l0.741-1.368c0.924,0.481,1.735,0.723,2.433,0.723
		c0.519,0,0.918-0.107,1.196-0.323c0.279-0.215,0.418-0.487,0.418-0.817c0-0.329-0.177-0.602-0.531-0.816
		c-0.165-0.114-0.653-0.342-1.464-0.685c-0.748-0.316-1.285-0.614-1.614-0.893c-0.559-0.481-0.836-1.096-0.836-1.843
		c0-0.836,0.315-1.508,0.949-2.015c0.634-0.506,1.464-0.76,2.489-0.76c1.304,0,2.305,0.279,3.002,0.836l-0.722,1.33
		c-0.734-0.418-1.45-0.627-2.147-0.627c-0.987,0-1.481,0.349-1.481,1.045c0,0.304,0.158,0.563,0.475,0.779
		c0.19,0.127,0.583,0.316,1.178,0.569c0.938,0.394,1.57,0.723,1.9,0.988C63.007,59.93,63.318,60.583,63.318,61.393z"/>
	<path fill="#010202" d="M71.64,61.393c0,0.899-0.329,1.609-0.988,2.128c-0.658,0.52-1.507,0.779-2.546,0.779
		c-0.836,0-1.634-0.152-2.394-0.456c-0.469-0.19-0.798-0.367-0.988-0.532l0.741-1.368c0.924,0.481,1.735,0.723,2.432,0.723
		c0.52,0,0.918-0.107,1.197-0.323c0.279-0.215,0.418-0.487,0.418-0.817c0-0.329-0.177-0.602-0.532-0.816
		c-0.165-0.114-0.652-0.342-1.463-0.685c-0.748-0.316-1.286-0.614-1.615-0.893c-0.558-0.481-0.836-1.096-0.836-1.843
		c0-0.836,0.316-1.508,0.95-2.015c0.633-0.506,1.463-0.76,2.489-0.76c1.304,0,2.305,0.279,3.002,0.836l-0.722,1.33
		c-0.734-0.418-1.45-0.627-2.147-0.627c-0.988,0-1.482,0.349-1.482,1.045c0,0.304,0.158,0.563,0.476,0.779
		c0.189,0.127,0.583,0.316,1.178,0.569c0.938,0.394,1.57,0.723,1.9,0.988C71.33,59.93,71.64,60.583,71.64,61.393z"/>
	<path fill="#010202" d="M81.749,59.303c0,0.114-0.007,0.257-0.02,0.428s-0.019,0.275-0.019,0.313h-6.289
		c0,0.658,0.196,1.229,0.589,1.71c0.481,0.57,1.166,0.854,2.052,0.854c0.761,0,1.608-0.234,2.546-0.703l0.723,1.368
		c-0.95,0.672-2.098,1.007-3.439,1.007c-1.418,0-2.533-0.462-3.344-1.387c-0.786-0.874-1.178-2.014-1.178-3.42
		c0-1.456,0.404-2.647,1.216-3.572c0.811-0.924,1.868-1.387,3.173-1.387c1.254,0,2.232,0.425,2.936,1.273
		C81.399,56.635,81.749,57.809,81.749,59.303z M79.772,58.486c0-0.569-0.121-1.063-0.36-1.481c-0.354-0.596-0.894-0.894-1.615-0.894
		c-0.646,0-1.181,0.219-1.605,0.656s-0.681,1.01-0.77,1.719H79.772z"/>
	<path fill="#010202" d="M91.837,64.053h-1.824v-0.665c-0.836,0.596-1.691,0.893-2.565,0.893c-1.24,0-2.241-0.439-3.002-1.32
		c-0.76-0.88-1.14-2.023-1.14-3.43c0-1.456,0.435-2.656,1.302-3.6c0.867-0.944,1.936-1.416,3.202-1.416
		c0.671,0,1.317,0.158,1.938,0.475v-4.674h2.09L91.837,64.053L91.837,64.053z M89.748,61.906v-5.148
		c-0.507-0.329-1.053-0.494-1.635-0.494c-0.798,0-1.446,0.285-1.946,0.855c-0.5,0.569-0.75,1.361-0.75,2.375
		c0,0.925,0.233,1.665,0.703,2.223c0.469,0.558,1.058,0.836,1.767,0.836C88.48,62.552,89.102,62.337,89.748,61.906z"/>
</g>
<g>
	<path fill="#010202" d="M227.619,21.179h-1.045v-0.684c-0.292,0.151-0.583,0.304-0.874,0.456c-0.685,0.278-1.362,0.418-2.033,0.418
		c-0.874,0-1.58-0.257-2.119-0.77c-0.539-0.514-0.807-1.182-0.807-2.005c0-1.988,1.754-2.983,5.263-2.983h0.475V15.27
		c0-0.962-0.151-1.603-0.456-1.919c-0.342-0.354-0.918-0.532-1.729-0.532c-0.836,0-1.679,0.241-2.527,0.723l-0.475-0.798
		c0.139-0.14,0.437-0.305,0.893-0.494c0.696-0.292,1.444-0.438,2.242-0.438c1.064,0,1.888,0.292,2.47,0.874
		c0.329,0.33,0.538,0.735,0.627,1.216c0.063,0.292,0.096,0.761,0.096,1.406V21.179L227.619,21.179z M226.479,19.622v-3.078h-0.513
		c-2.698,0-4.047,0.69-4.047,2.07c0,0.494,0.158,0.9,0.475,1.217c0.354,0.354,0.867,0.531,1.539,0.531
		C224.566,20.362,225.415,20.115,226.479,19.622z"/>
	<path fill="#010202" d="M237.176,21.179h-1.14v-5.32c0-0.722-0.02-1.216-0.058-1.481c-0.076-0.443-0.233-0.785-0.475-1.026
		c-0.342-0.342-0.817-0.513-1.425-0.513c-0.57,0-1.197,0.146-1.882,0.437c-0.507,0.203-0.811,0.355-0.911,0.456v7.448h-1.141v-9.12
		h1.083v0.665c0.95-0.595,1.95-0.893,3.002-0.893c0.899,0,1.603,0.253,2.109,0.76c0.38,0.38,0.627,0.861,0.741,1.444
		c0.062,0.329,0.095,0.88,0.095,1.652V21.179L237.176,21.179z"/>
	<path fill="#010202" d="M246.847,21.179h-1.387l-2.68-3.876l-2.679,3.876h-1.311l3.344-4.674l-3.116-4.446h1.406l2.451,3.61
		l2.47-3.61h1.292l-3.097,4.427L246.847,21.179z"/>
	<path fill="#010202" d="M250.115,8.981c0,0.203-0.073,0.38-0.22,0.532c-0.146,0.152-0.326,0.228-0.542,0.228
		c-0.203,0-0.38-0.075-0.532-0.228c-0.151-0.152-0.228-0.329-0.228-0.532c0-0.215,0.076-0.396,0.228-0.541
		c0.152-0.146,0.329-0.219,0.532-0.219c0.215,0,0.396,0.073,0.542,0.219C250.042,8.586,250.115,8.766,250.115,8.981z
		 M249.925,21.179h-1.14v-9.12h1.14V21.179z"/>
	<path fill="#010202" d="M260.375,16.695c0,1.432-0.377,2.575-1.131,3.43c-0.753,0.855-1.771,1.282-3.05,1.282
		c-1.241,0-2.238-0.434-2.992-1.301c-0.754-0.868-1.131-2.03-1.131-3.486c0-1.457,0.377-2.619,1.131-3.487
		c0.754-0.867,1.782-1.301,3.088-1.301c1.24,0,2.231,0.434,2.973,1.301C260.004,14,260.375,15.188,260.375,16.695z M259.196,16.657
		c0-1.127-0.281-2.048-0.845-2.764c-0.563-0.716-1.275-1.074-2.138-1.074c-0.899,0-1.618,0.343-2.156,1.026
		c-0.539,0.684-0.808,1.596-0.808,2.736s0.281,2.062,0.845,2.764c0.563,0.703,1.276,1.055,2.138,1.055
		c0.924,0,1.65-0.335,2.175-1.007C258.934,18.722,259.196,17.81,259.196,16.657z"/>
	<path fill="#010202" d="M269.418,21.179h-1.045v-0.722c-0.912,0.607-1.9,0.912-2.964,0.912c-0.925,0-1.659-0.272-2.204-0.817
		c-0.394-0.393-0.646-0.925-0.761-1.596c-0.038-0.279-0.057-0.843-0.057-1.691v-5.206h1.14v5.435c0,1.19,0.182,1.966,0.542,2.327
		c0.361,0.361,0.833,0.541,1.416,0.541c0.57,0,1.185-0.139,1.844-0.418c0.315-0.164,0.633-0.322,0.949-0.475v-7.41h1.141
		L269.418,21.179L269.418,21.179z"/>
	<path fill="#010202" d="M277.702,18.69c0,0.849-0.294,1.514-0.885,1.995c-0.589,0.481-1.39,0.722-2.402,0.722
		c-0.735,0-1.451-0.139-2.147-0.418c-0.48-0.189-0.786-0.348-0.912-0.475l0.494-0.874c0.76,0.507,1.589,0.76,2.489,0.76
		c0.684,0,1.219-0.143,1.604-0.427c0.387-0.285,0.58-0.675,0.58-1.169c0-0.532-0.26-0.969-0.778-1.311
		c-0.19-0.114-0.69-0.33-1.501-0.646c-0.874-0.342-1.464-0.64-1.768-0.893c-0.507-0.418-0.76-0.994-0.76-1.729
		c0-0.722,0.288-1.302,0.864-1.738c0.575-0.438,1.301-0.655,2.175-0.655c0.684,0,1.336,0.126,1.957,0.38
		c0.405,0.164,0.671,0.311,0.798,0.437l-0.456,0.817c-0.748-0.431-1.482-0.646-2.204-0.646c-0.545,0-1.007,0.127-1.387,0.38
		c-0.38,0.254-0.57,0.583-0.57,0.988c0,0.469,0.196,0.836,0.589,1.103c0.165,0.113,0.621,0.322,1.368,0.627
		c0.962,0.393,1.589,0.696,1.881,0.912C277.379,17.297,277.702,17.917,277.702,18.69z"/>
</g>
<g>
	<path fill="#010202" d="M85.674,33.953c0,1.862-0.521,3.469-1.562,4.818c-1.114,1.438-2.529,2.155-4.245,2.155
		c-1.027,0-1.923-0.315-2.685-0.945l-0.946,5.411h-1.319l2.596-15.245h1.254l-0.176,0.989c1.085-0.836,2.178-1.254,3.278-1.254
		c1.129,0,2.046,0.378,2.75,1.133C85.322,31.771,85.674,32.751,85.674,33.953z M84.311,34.107c0-0.909-0.242-1.646-0.726-2.211
		c-0.484-0.565-1.173-0.848-2.068-0.848c-1.042,0-2.061,0.448-3.058,1.342l-1.078,6.336c0.821,0.69,1.687,1.034,2.596,1.034
		c1.334,0,2.412-0.608,3.234-1.826C83.944,36.835,84.311,35.559,84.311,34.107z"/>
	<path fill="#010202" d="M90.25,30.147l-1.805,10.56h-1.319l1.804-10.56H90.25z M91.064,26.583c0,0.234-0.084,0.44-0.253,0.616
		c-0.169,0.176-0.378,0.264-0.627,0.264c-0.234,0-0.439-0.088-0.616-0.264c-0.176-0.176-0.264-0.382-0.264-0.616
		c0-0.249,0.088-0.458,0.264-0.627c0.177-0.169,0.382-0.253,0.616-0.253c0.249,0,0.458,0.084,0.627,0.253
		S91.064,26.334,91.064,26.583z"/>
	<path fill="#010202" d="M99.116,30.939l-0.704,0.88c-0.676-0.543-1.422-0.814-2.244-0.814c-0.836,0-1.482,0.228-1.937,0.683
		c-0.293,0.293-0.439,0.659-0.439,1.1c0,0.352,0.125,0.652,0.374,0.902c0.249,0.249,0.772,0.598,1.572,1.045
		c0.801,0.447,1.368,0.832,1.705,1.154c0.528,0.528,0.792,1.13,0.792,1.805c0,0.953-0.352,1.734-1.056,2.343
		c-0.704,0.608-1.665,0.913-2.882,0.913c-1.335,0-2.494-0.389-3.477-1.166l0.683-0.946c0.924,0.631,1.854,0.946,2.794,0.946
		c0.63,0,1.173-0.125,1.628-0.374c0.601-0.353,0.902-0.88,0.902-1.584c0-0.572-0.382-1.107-1.145-1.606
		c-0.719-0.425-1.438-0.851-2.156-1.275c-0.763-0.587-1.144-1.269-1.144-2.046c0-0.909,0.354-1.643,1.067-2.2
		c0.712-0.557,1.587-0.836,2.629-0.836C97.474,29.861,98.485,30.221,99.116,30.939z"/>
	<path fill="#010202" d="M107.784,30.939l-0.704,0.88c-0.676-0.543-1.422-0.814-2.244-0.814c-0.836,0-1.482,0.228-1.937,0.683
		c-0.293,0.293-0.439,0.659-0.439,1.1c0,0.352,0.125,0.652,0.374,0.902c0.249,0.249,0.772,0.598,1.573,1.045
		c0.8,0.447,1.367,0.832,1.704,1.154c0.528,0.528,0.792,1.13,0.792,1.805c0,0.953-0.352,1.734-1.056,2.343
		c-0.704,0.608-1.665,0.913-2.882,0.913c-1.335,0-2.494-0.389-3.477-1.166l0.683-0.946c0.924,0.631,1.854,0.946,2.794,0.946
		c0.63,0,1.173-0.125,1.628-0.374c0.601-0.353,0.902-0.88,0.902-1.584c0-0.572-0.382-1.107-1.145-1.606
		c-0.719-0.425-1.438-0.851-2.156-1.275c-0.763-0.587-1.144-1.269-1.144-2.046c0-0.909,0.355-1.643,1.067-2.2
		c0.712-0.557,1.587-0.836,2.629-0.836C106.142,29.861,107.153,30.221,107.784,30.939z"/>
	<path fill="#010202" d="M118.212,32.347c0,0.852-0.345,1.621-1.034,2.311c-1.188,1.188-3.417,1.885-6.688,2.09
		c0.028,0.909,0.318,1.643,0.868,2.2c0.551,0.558,1.294,0.836,2.233,0.836c0.806,0,1.701-0.271,2.684-0.814l0.572,0.924
		c-0.235,0.221-0.646,0.434-1.231,0.639c-0.734,0.278-1.452,0.418-2.156,0.418c-1.306,0-2.352-0.385-3.135-1.155
		c-0.785-0.77-1.178-1.822-1.178-3.157c0-1.848,0.568-3.436,1.705-4.763c1.138-1.327,2.57-1.991,4.301-1.991
		c0.865,0,1.592,0.221,2.179,0.66C117.918,30.983,118.212,31.585,118.212,32.347z M116.936,32.435c0-0.454-0.172-0.81-0.517-1.066
		c-0.345-0.256-0.781-0.385-1.31-0.385c-1.291,0-2.384,0.564-3.277,1.693c-0.733,0.924-1.166,1.938-1.298,3.036
		c0.895-0.044,1.833-0.198,2.815-0.462c1.378-0.366,2.361-0.843,2.948-1.43C116.723,33.396,116.936,32.934,116.936,32.435z"/>
	<path fill="#010202" d="M130.488,24.867l-2.684,15.84h-1.166l0.198-1.166c-0.983,0.924-2.112,1.386-3.388,1.386
		c-1.13,0-2.047-0.377-2.75-1.133c-0.704-0.755-1.057-1.734-1.057-2.937c0-1.863,0.521-3.469,1.562-4.818
		c1.114-1.438,2.529-2.156,4.246-2.156c1.144,0,2.046,0.33,2.705,0.99l1.013-6.006H130.488z M127.936,32.105
		c-0.646-0.704-1.511-1.057-2.596-1.057c-1.335,0-2.413,0.609-3.234,1.826c-0.733,1.1-1.1,2.376-1.1,3.828
		c0,0.909,0.234,1.636,0.704,2.178c0.498,0.587,1.194,0.88,2.09,0.88c0.968,0,1.987-0.447,3.058-1.342L127.936,32.105z"/>
	<path fill="#010202" d="M146.174,34.107c0,1.833-0.521,3.402-1.562,4.708c-1.114,1.407-2.537,2.111-4.268,2.111
		c-1.203,0-2.171-0.381-2.904-1.144c-0.732-0.763-1.1-1.789-1.1-3.08c0-1.833,0.521-3.402,1.562-4.708
		c1.115-1.408,2.538-2.112,4.269-2.112c1.203,0,2.17,0.382,2.904,1.145C145.807,31.79,146.174,32.816,146.174,34.107z
		 M144.81,34.261c0-0.938-0.22-1.693-0.66-2.266c-0.483-0.646-1.181-0.968-2.09-0.968c-1.32,0-2.397,0.608-3.233,1.826
		c-0.748,1.07-1.122,2.303-1.122,3.695c0,0.939,0.22,1.694,0.659,2.267c0.484,0.646,1.181,0.968,2.091,0.968
		c1.319,0,2.397-0.608,3.233-1.826C144.436,36.887,144.81,35.654,144.81,34.261z"/>
	<path fill="#010202" d="M156.185,25.461l-0.748,0.858c-0.426-0.367-0.917-0.551-1.474-0.551c-0.675,0-1.226,0.213-1.65,0.639
		c-0.426,0.426-0.732,1.195-0.924,2.31l-0.242,1.431h3.389l-0.177,1.077h-3.388l-1.605,9.482h-1.32l1.605-9.482h-1.87l0.177-1.077
		h1.87l0.22-1.32c0.132-0.748,0.25-1.298,0.352-1.65c0.205-0.586,0.521-1.092,0.946-1.518c0.704-0.704,1.562-1.056,2.574-1.056
		C154.857,24.604,155.612,24.889,156.185,25.461z"/>
	<path fill="#010202" d="M164.17,25.461l-0.748,0.858c-0.426-0.367-0.917-0.551-1.475-0.551c-0.675,0-1.225,0.213-1.649,0.639
		c-0.426,0.426-0.733,1.195-0.924,2.31l-0.242,1.431h3.388l-0.176,1.077h-3.388l-1.606,9.482h-1.32l1.606-9.482h-1.87l0.176-1.077
		h1.87l0.221-1.32c0.132-0.748,0.25-1.298,0.352-1.65c0.205-0.586,0.521-1.092,0.946-1.518c0.704-0.704,1.562-1.056,2.573-1.056
		C162.843,24.604,163.598,24.889,164.17,25.461z"/>
</g>
<g>
	<path fill="#010202" d="M155.756,71.196h-1.74v-8.12c0-1.102-0.029-1.855-0.087-2.262c-0.116-0.677-0.358-1.198-0.725-1.566
		c-0.522-0.521-1.247-0.783-2.176-0.783c-0.869,0-1.826,0.223-2.87,0.667c-0.773,0.31-1.238,0.542-1.393,0.696v11.368h-1.74v-20.88
		h1.74v7.946c0.174-0.175,0.638-0.416,1.393-0.726c1.062-0.406,2.077-0.608,3.045-0.608c1.41,0,2.475,0.357,3.189,1.072
		c0.619,0.619,1.024,1.373,1.218,2.263c0.097,0.483,0.146,1.334,0.146,2.552V71.196L155.756,71.196z"/>
	<path fill="#010202" d="M169.212,71.196h-1.595v-1.044c-0.445,0.232-0.891,0.464-1.334,0.696c-1.045,0.425-2.079,0.638-3.104,0.638
		c-1.334,0-2.412-0.392-3.234-1.175c-0.821-0.783-1.231-1.803-1.231-3.06c0-3.035,2.678-4.553,8.033-4.553h0.725v-0.521
		c0-1.47-0.231-2.446-0.696-2.93c-0.521-0.541-1.401-0.812-2.639-0.812c-1.276,0-2.562,0.367-3.857,1.102l-0.725-1.218
		c0.212-0.213,0.667-0.464,1.363-0.754c1.062-0.444,2.204-0.667,3.422-0.667c1.624,0,2.881,0.445,3.77,1.334
		c0.502,0.503,0.822,1.121,0.957,1.855c0.098,0.445,0.146,1.16,0.146,2.146V71.196L169.212,71.196z M167.472,68.818V64.12h-0.783
		c-4.118,0-6.177,1.054-6.177,3.161c0,0.754,0.241,1.373,0.725,1.856c0.541,0.541,1.324,0.812,2.35,0.812
		C164.553,69.949,165.848,69.572,167.472,68.818z"/>
	<path fill="#010202" d="M180.551,70.848c-0.89,0.444-1.808,0.667-2.755,0.667c-1.257,0-2.214-0.329-2.871-0.986
		c-0.368-0.367-0.6-0.86-0.696-1.479c-0.078-0.405-0.116-1.111-0.116-2.116v-8.236h-2.436v-1.421h2.436v-3.944h1.74v3.944h4.466
		v1.421h-4.466v7.888c0,1.257,0.077,2.06,0.232,2.407c0.271,0.638,0.918,0.957,1.942,0.957c0.445,0,0.909-0.067,1.393-0.203
		c0.213-0.077,0.435-0.154,0.667-0.231L180.551,70.848z"/>
	<path fill="#010202" d="M191.31,57.13l-0.406,1.45c-0.405-0.058-0.782-0.087-1.131-0.087c-0.87,0-1.663,0.203-2.378,0.609
		c-0.521,0.29-0.977,0.667-1.363,1.131c-0.174,0.231-0.339,0.464-0.492,0.696v10.266h-1.74v-13.92h1.653v1.827
		c1.218-1.47,2.687-2.204,4.407-2.204C190.362,56.899,190.846,56.976,191.31,57.13z"/>
	<path fill="#010202" d="M204.012,63.656c0,0.039-0.01,0.174-0.029,0.406c-0.02,0.231-0.028,0.406-0.028,0.521h-9.977
		c0,1.586,0.416,2.861,1.247,3.828c0.831,0.967,2.011,1.45,3.538,1.45c1.179,0,2.523-0.377,4.031-1.131l0.783,1.334
		c-0.116,0.155-0.591,0.406-1.422,0.754c-1.159,0.444-2.34,0.667-3.537,0.667c-1.992,0-3.562-0.657-4.713-1.972
		c-1.15-1.314-1.726-3.045-1.726-5.191c0-2.242,0.575-4.035,1.726-5.38c1.15-1.343,2.692-2.015,4.625-2.015
		c1.644,0,2.958,0.579,3.944,1.739C203.5,59.886,204.012,61.548,204.012,63.656z M202.243,63.105c0-1.218-0.271-2.262-0.812-3.132
		c-0.677-1.044-1.634-1.566-2.871-1.566s-2.281,0.426-3.132,1.276c-0.851,0.851-1.315,1.991-1.392,3.422H202.243z"/>
	<path fill="#010202" d="M218.28,71.196h-1.595v-1.044c-1.102,0.89-2.455,1.334-4.06,1.334c-1.837,0-3.316-0.643-4.438-1.929
		c-1.122-1.285-1.682-2.981-1.682-5.089c0-2.224,0.638-4.036,1.914-5.438c1.275-1.402,2.919-2.104,4.93-2.104
		c1.237,0,2.291,0.261,3.161,0.782v-7.395h1.769V71.196L218.28,71.196z M216.511,68.585v-9.192
		c-1.083-0.619-2.136-0.929-3.161-0.929c-1.508,0-2.726,0.557-3.654,1.668c-0.928,1.112-1.392,2.576-1.392,4.394
		c0,1.604,0.42,2.91,1.262,3.915s1.918,1.508,3.233,1.508C213.978,69.949,215.215,69.495,216.511,68.585z"/>
</g>
<g>
	<path fill="#010202" d="M529.186,147.778c0,1.296-0.449,2.312-1.349,3.046c-0.899,0.735-2.122,1.102-3.669,1.102
		c-1.121,0-2.215-0.213-3.277-0.638c-0.734-0.29-1.198-0.531-1.391-0.725l0.754-1.334c1.158,0.772,2.426,1.158,3.799,1.158
		c1.043,0,1.858-0.217,2.45-0.652c0.589-0.435,0.884-1.028,0.884-1.782c0-0.812-0.396-1.479-1.188-2.001
		c-0.29-0.174-1.054-0.503-2.291-0.986c-1.334-0.521-2.232-0.976-2.695-1.361c-0.773-0.64-1.16-1.519-1.16-2.641
		c0-1.102,0.438-1.986,1.317-2.652c0.882-0.668,1.987-1,3.321-1c1.044,0,2.04,0.192,2.987,0.578
		c0.618,0.252,1.022,0.476,1.218,0.668l-0.696,1.246c-1.141-0.656-2.262-0.984-3.362-0.984c-0.832,0-1.537,0.192-2.117,0.58
		c-0.58,0.387-0.871,0.89-0.871,1.508c0,0.716,0.301,1.275,0.899,1.682c0.251,0.174,0.946,0.493,2.089,0.957
		c1.469,0.6,2.426,1.062,2.87,1.393C528.692,145.651,529.186,146.599,529.186,147.778z"/>
	<path fill="#010202" d="M542.264,151.578h-1.595v-1.044c-0.445,0.232-0.891,0.464-1.334,0.695
		c-1.044,0.426-2.079,0.639-3.104,0.639c-1.334,0-2.412-0.393-3.234-1.176c-0.821-0.782-1.231-1.803-1.231-3.06
		c0-3.034,2.678-4.553,8.033-4.553h0.725v-0.521c0-1.471-0.23-2.446-0.695-2.931c-0.521-0.541-1.401-0.812-2.639-0.812
		c-1.277,0-2.562,0.367-3.857,1.102l-0.725-1.218c0.212-0.213,0.666-0.464,1.362-0.754c1.062-0.444,2.204-0.667,3.422-0.667
		c1.624,0,2.881,0.445,3.771,1.334c0.502,0.503,0.821,1.121,0.957,1.854c0.097,0.445,0.146,1.16,0.146,2.146L542.264,151.578
		L542.264,151.578z M540.523,149.2v-4.698h-0.783c-4.117,0-6.176,1.054-6.176,3.161c0,0.754,0.24,1.373,0.725,1.855
		c0.541,0.541,1.324,0.812,2.35,0.812C537.604,150.331,538.9,149.954,540.523,149.2z"/>
	<path fill="#010202" d="M553.603,151.229c-0.89,0.444-1.808,0.668-2.755,0.668c-1.258,0-2.215-0.33-2.871-0.986
		c-0.367-0.367-0.6-0.86-0.696-1.479c-0.077-0.406-0.116-1.111-0.116-2.117v-8.235h-2.436v-1.421h2.436v-3.944h1.74v3.944h4.466
		v1.421h-4.466v7.888c0,1.258,0.077,2.061,0.232,2.407c0.27,0.638,0.918,0.957,1.941,0.957c0.444,0,0.909-0.067,1.393-0.203
		c0.213-0.077,0.436-0.153,0.668-0.231L553.603,151.229z"/>
	<path fill="#010202" d="M558.881,132.959c0,0.31-0.111,0.58-0.334,0.812c-0.224,0.231-0.498,0.349-0.826,0.349
		c-0.312,0-0.58-0.116-0.812-0.349c-0.231-0.231-0.348-0.502-0.348-0.812c0-0.328,0.115-0.604,0.348-0.826
		c0.233-0.222,0.502-0.334,0.812-0.334c0.328,0,0.604,0.111,0.826,0.334C558.769,132.356,558.881,132.631,558.881,132.959z
		 M558.59,151.578h-1.74v-13.92h1.74V151.578z"/>
	<path fill="#010202" d="M571.234,147.778c0,1.296-0.449,2.312-1.349,3.046c-0.899,0.735-2.122,1.102-3.669,1.102
		c-1.121,0-2.214-0.213-3.277-0.638c-0.734-0.29-1.198-0.531-1.391-0.725l0.754-1.334c1.159,0.772,2.426,1.158,3.799,1.158
		c1.043,0,1.859-0.217,2.45-0.652c0.589-0.435,0.884-1.028,0.884-1.782c0-0.812-0.396-1.479-1.188-2.001
		c-0.289-0.174-1.054-0.503-2.291-0.986c-1.334-0.521-2.232-0.976-2.695-1.361c-0.773-0.64-1.16-1.519-1.16-2.641
		c0-1.102,0.439-1.986,1.318-2.652c0.881-0.668,1.986-1,3.32-1c1.044,0,2.04,0.192,2.987,0.578c0.618,0.252,1.023,0.476,1.218,0.668
		l-0.695,1.246c-1.142-0.656-2.263-0.984-3.363-0.984c-0.832,0-1.537,0.192-2.117,0.58c-0.58,0.387-0.871,0.89-0.871,1.508
		c0,0.716,0.301,1.275,0.899,1.682c0.251,0.174,0.946,0.493,2.089,0.957c1.469,0.6,2.426,1.062,2.87,1.393
		C570.74,145.651,571.234,146.599,571.234,147.778z"/>
	<path fill="#010202" d="M583.036,131.249l-0.695,1.218c-0.58-0.386-1.268-0.58-2.061-0.58c-0.812,0-1.448,0.232-1.914,0.696
		c-0.541,0.542-0.812,1.489-0.812,2.842v2.233h4.466v1.421h-4.466v12.499h-1.74v-12.499h-2.465v-1.421h2.465v-2.233
		c0-1.777,0.436-3.103,1.306-3.973c0.734-0.734,1.729-1.102,2.986-1.102C581.345,130.351,582.321,130.649,583.036,131.249z"/>
	<path fill="#010202" d="M586.95,132.959c0,0.31-0.11,0.58-0.334,0.812c-0.223,0.231-0.498,0.349-0.825,0.349
		c-0.311,0-0.58-0.116-0.812-0.349c-0.231-0.231-0.348-0.502-0.348-0.812c0-0.328,0.115-0.604,0.348-0.826
		c0.232-0.223,0.503-0.334,0.812-0.334c0.327,0,0.604,0.111,0.825,0.334C586.839,132.356,586.95,132.631,586.95,132.959z
		 M586.66,151.578h-1.739v-13.92h1.739V151.578z"/>
	<path fill="#010202" d="M601.77,144.038c0,0.039-0.01,0.174-0.029,0.406c-0.02,0.23-0.027,0.406-0.027,0.521h-9.977
		c0,1.586,0.415,2.861,1.246,3.828c0.832,0.967,2.012,1.45,3.539,1.45c1.178,0,2.521-0.377,4.03-1.131l0.783,1.334
		c-0.116,0.154-0.591,0.406-1.422,0.754c-1.159,0.443-2.34,0.667-3.538,0.667c-1.99,0-3.562-0.657-4.712-1.972
		s-1.727-3.045-1.727-5.191c0-2.242,0.575-4.035,1.727-5.38c1.149-1.343,2.691-2.015,4.625-2.015c1.644,0,2.958,0.578,3.943,1.738
		C601.258,140.269,601.77,141.931,601.77,144.038z M600,143.487c0-1.219-0.271-2.262-0.812-3.133
		c-0.678-1.043-1.635-1.565-2.871-1.565c-1.238,0-2.281,0.426-3.133,1.276c-0.851,0.851-1.314,1.99-1.392,3.422H600z"/>
	<path fill="#010202" d="M616.036,151.578h-1.595v-1.044c-1.102,0.89-2.455,1.334-4.06,1.334c-1.838,0-3.316-0.643-4.438-1.93
		c-1.121-1.285-1.682-2.98-1.682-5.088c0-2.225,0.638-4.037,1.914-5.438c1.274-1.402,2.919-2.103,4.93-2.103
		c1.237,0,2.291,0.26,3.161,0.781v-7.395h1.769L616.036,151.578L616.036,151.578z M614.269,148.967v-9.192
		c-1.083-0.618-2.136-0.928-3.161-0.928c-1.508,0-2.726,0.557-3.654,1.668c-0.928,1.111-1.392,2.575-1.392,4.394
		c0,1.604,0.421,2.909,1.262,3.915c0.841,1.005,1.919,1.508,3.233,1.508C611.736,150.331,612.973,149.876,614.269,148.967z"/>
</g>
<g>
	<path fill="#010202" d="M27.342,103.603h-1.815v-1.188c-0.506,0.265-1.012,0.528-1.518,0.792c-1.188,0.484-2.365,0.727-3.531,0.727
		c-1.518,0-2.745-0.445-3.68-1.336c-0.936-0.892-1.402-2.052-1.402-3.481c0-3.453,3.047-5.181,9.142-5.181h0.824V93.34
		c0-1.672-0.264-2.782-0.792-3.333c-0.594-0.616-1.595-0.924-3.003-0.924c-1.451,0-2.916,0.418-4.389,1.254l-0.825-1.387
		c0.242-0.241,0.759-0.527,1.551-0.857c1.21-0.506,2.509-0.759,3.895-0.759c1.848,0,3.278,0.506,4.29,1.518
		c0.572,0.572,0.935,1.276,1.089,2.112c0.11,0.506,0.165,1.319,0.165,2.441V103.603z M25.362,100.896V95.55h-0.891
		c-4.686,0-7.029,1.199-7.029,3.598c0,0.857,0.275,1.562,0.825,2.111c0.615,0.616,1.506,0.924,2.673,0.924
		C22.04,102.183,23.514,101.754,25.362,100.896z"/>
	<path fill="#010202" d="M41.499,99.278c0,1.476-0.513,2.631-1.535,3.466c-1.023,0.837-2.415,1.255-4.174,1.255
		c-1.276,0-2.521-0.243-3.729-0.727c-0.836-0.33-1.364-0.604-1.584-0.825l0.858-1.519c1.319,0.881,2.761,1.32,4.323,1.32
		c1.188,0,2.116-0.248,2.788-0.743s1.008-1.171,1.008-2.028c0-0.925-0.451-1.684-1.354-2.277c-0.33-0.197-1.2-0.571-2.606-1.122
		c-1.519-0.595-2.541-1.11-3.069-1.552c-0.88-0.726-1.32-1.727-1.32-3.002c0-1.254,0.5-2.261,1.501-3.021
		c1.001-0.759,2.261-1.139,3.778-1.139c1.188,0,2.321,0.221,3.399,0.66c0.703,0.286,1.166,0.539,1.386,0.759l-0.792,1.419
		c-1.298-0.747-2.574-1.121-3.828-1.121c-0.946,0-1.749,0.22-2.409,0.659c-0.66,0.44-0.99,1.013-0.99,1.717
		c0,0.812,0.342,1.451,1.023,1.913c0.286,0.198,1.078,0.562,2.376,1.09c1.672,0.683,2.761,1.21,3.267,1.584
		C40.938,96.858,41.499,97.937,41.499,99.278z"/>
	<path fill="#010202" d="M57.668,103.603h-1.98v-9.24c0-1.254-0.033-2.111-0.099-2.574c-0.132-0.77-0.407-1.363-0.825-1.781
		c-0.594-0.595-1.419-0.892-2.475-0.892c-0.99,0-2.079,0.254-3.268,0.76c-0.88,0.352-1.408,0.615-1.584,0.792v12.936h-1.979v-23.76
		h1.979v9.042c0.198-0.198,0.727-0.473,1.584-0.825c1.209-0.462,2.365-0.693,3.465-0.693c1.606,0,2.816,0.407,3.631,1.222
		c0.703,0.704,1.166,1.562,1.386,2.573c0.109,0.551,0.165,1.519,0.165,2.903V103.603z"/>
	<path fill="#010202" d="M72.979,103.603h-1.814v-1.188c-0.506,0.265-1.013,0.528-1.519,0.792c-1.188,0.484-2.365,0.727-3.53,0.727
		c-1.519,0-2.745-0.445-3.681-1.336c-0.935-0.892-1.401-2.052-1.401-3.481c0-3.453,3.047-5.181,9.141-5.181H71V93.34
		c0-1.672-0.265-2.782-0.792-3.333c-0.595-0.616-1.596-0.924-3.003-0.924c-1.452,0-2.916,0.418-4.39,1.254l-0.824-1.387
		c0.241-0.241,0.759-0.527,1.551-0.857c1.21-0.506,2.508-0.759,3.894-0.759c1.849,0,3.278,0.506,4.29,1.518
		c0.572,0.572,0.936,1.276,1.089,2.112c0.11,0.506,0.165,1.319,0.165,2.441L72.979,103.603L72.979,103.603z M71,100.896V95.55
		h-0.892c-4.686,0-7.028,1.199-7.028,3.598c0,0.857,0.274,1.562,0.824,2.111c0.615,0.616,1.507,0.924,2.674,0.924
		C67.677,102.183,69.151,101.754,71,100.896z"/>
	<path fill="#010202" d="M99.016,103.603h-1.979v-9.438c0-2.155-0.31-3.541-0.925-4.157c-0.55-0.55-1.342-0.825-2.376-0.825
		c-1.562,0-3.168,0.484-4.817,1.452c0.198,0.418,0.297,1.672,0.297,3.762v9.207h-1.98v-8.679c0-1.584-0.032-2.618-0.099-3.103
		c-0.11-0.836-0.363-1.452-0.759-1.848c-0.55-0.55-1.32-0.825-2.311-0.825c-1.628,0-3.2,0.507-4.719,1.519v12.936h-1.979V87.763
		h1.881v1.155c1.716-1.034,3.388-1.552,5.016-1.552c1.738,0,3.047,0.616,3.927,1.849c2.002-1.232,3.916-1.849,5.742-1.849
		c1.475,0,2.651,0.44,3.531,1.32c0.726,0.726,1.188,1.65,1.386,2.772c0.11,0.659,0.165,1.913,0.165,3.762V103.603L99.016,103.603z"
		/>
	<path fill="#010202" d="M115.978,95.022c0,0.043-0.011,0.197-0.033,0.461c-0.021,0.266-0.032,0.463-0.032,0.595H104.56
		c0,1.805,0.474,3.257,1.419,4.356c0.946,1.101,2.288,1.649,4.026,1.649c1.341,0,2.871-0.431,4.587-1.287l0.891,1.519
		c-0.132,0.177-0.671,0.461-1.616,0.857c-1.32,0.506-2.662,0.76-4.026,0.76c-2.266,0-4.054-0.748-5.363-2.244
		c-1.309-1.496-1.963-3.465-1.963-5.907c0-2.552,0.654-4.593,1.963-6.121c1.31-1.529,3.063-2.294,5.265-2.294
		c1.869,0,3.365,0.66,4.487,1.98C115.395,90.731,115.978,92.625,115.978,95.022z M113.965,94.396c0-1.387-0.31-2.574-0.924-3.564
		c-0.771-1.188-1.859-1.781-3.268-1.781c-1.407,0-2.596,0.484-3.563,1.452c-0.969,0.968-1.497,2.267-1.584,3.894H113.965
		L113.965,94.396z"/>
	<path fill="#010202" d="M132.213,103.603h-1.815v-1.188c-1.254,1.013-2.794,1.519-4.62,1.519c-2.09,0-3.772-0.73-5.049-2.193
		c-1.275-1.463-1.914-3.395-1.914-5.792c0-2.529,0.727-4.593,2.179-6.188c1.451-1.595,3.32-2.393,5.609-2.393
		c1.408,0,2.607,0.297,3.598,0.892v-8.415h2.013V103.603L132.213,103.603z M130.201,100.632V90.171
		c-1.232-0.704-2.432-1.057-3.598-1.057c-1.716,0-3.102,0.633-4.158,1.896c-1.056,1.266-1.584,2.934-1.584,5
		c0,1.826,0.479,3.312,1.437,4.455s2.183,1.717,3.68,1.717C127.318,102.183,128.726,101.667,130.201,100.632z"/>
</g>
<g>
	<path fill="#010202" d="M269.755,44.863c-0.162,0.176-0.528,0.396-1.101,0.66c-0.895,0.396-1.841,0.594-2.838,0.594
		c-1.599,0-2.893-0.509-3.883-1.528c-0.99-1.02-1.484-2.344-1.484-3.972c0-1.687,0.527-3.076,1.584-4.169
		c1.056-1.092,2.391-1.639,4.004-1.639c0.908,0,1.752,0.184,2.529,0.55c0.528,0.25,0.873,0.477,1.034,0.683l-0.99,1.518
		c-0.748-0.498-1.555-0.748-2.42-0.748c-0.998,0-1.812,0.374-2.441,1.122c-0.572,0.689-0.858,1.525-0.858,2.508
		c0,1.086,0.282,1.966,0.847,2.64c0.564,0.675,1.347,1.013,2.344,1.013c0.806,0,1.716-0.271,2.728-0.813L269.755,44.863z"/>
	<path fill="#010202" d="M278.467,35.052l-0.55,1.87c-0.206-0.044-0.447-0.066-0.727-0.066c-1.306,0-2.34,0.55-3.102,1.65v7.348
		h-2.42V35.117h2.111v1.364c0.177-0.278,0.499-0.572,0.969-0.88c0.776-0.528,1.621-0.792,2.529-0.792
		C277.704,34.81,278.1,34.891,278.467,35.052z"/>
	<path fill="#010202" d="M287.927,45.854h-2.112v-0.792c-1.056,0.675-2.111,1.012-3.168,1.012c-1.042,0-1.877-0.312-2.508-0.935
		s-0.946-1.441-0.946-2.453c0-2.508,2.018-3.762,6.051-3.762h0.396v-0.418c0-0.66-0.118-1.107-0.352-1.343
		c-0.323-0.322-0.902-0.483-1.738-0.483c-0.954,0-1.921,0.278-2.904,0.836l-0.836-1.562c0.249-0.22,0.63-0.432,1.145-0.638
		c0.85-0.352,1.781-0.528,2.794-0.528c1.466,0,2.581,0.382,3.344,1.145c0.381,0.382,0.624,0.857,0.726,1.43
		c0.073,0.367,0.11,0.998,0.11,1.893V45.854z M285.639,43.478V40.64h-0.506c-1.688,0-2.801,0.278-3.344,0.836
		c-0.279,0.278-0.418,0.646-0.418,1.1c0,0.528,0.179,0.932,0.539,1.21c0.358,0.279,0.81,0.418,1.353,0.418
		C283.952,44.203,284.744,43.962,285.639,43.478z"/>
	<path fill="#010202" d="M299.103,45.854h-8.888V44.16l5.698-7.062h-5.522v-1.98h8.514v1.761l-5.609,6.951h5.808V45.854
		L299.103,45.854z"/>
	<path fill="#010202" d="M311.774,35.117l-4.246,11.044c-0.688,1.805-1.364,3.036-2.023,3.696c-0.72,0.719-1.708,1.078-2.971,1.078
		c-0.821,0-1.628-0.198-2.42-0.594l0.704-1.761c0.616,0.235,1.151,0.353,1.606,0.353c0.646,0,1.166-0.198,1.562-0.594
		c0.337-0.338,0.748-1.137,1.232-2.398l-4.466-10.824h2.573l3.146,8.097l2.903-8.097H311.774z"/>
</g>
<g>
	<path fill="#010202" d="M361.909,169.053h-2.42v-6.071c0-1.232-0.146-2.023-0.438-2.377c-0.293-0.353-0.733-0.527-1.32-0.527
		c-0.748,0-1.547,0.279-2.396,0.836c0.103,0.293,0.152,1.107,0.152,2.441v5.698h-2.396v-5.918c0-1.395-0.169-2.266-0.506-2.618
		c-0.278-0.293-0.684-0.439-1.211-0.439c-0.792,0-1.562,0.25-2.311,0.748v8.229h-2.42v-10.736h2.112v0.791
		c0.997-0.731,2.046-1.1,3.146-1.1c1.115,0,1.995,0.404,2.641,1.211c1.232-0.807,2.421-1.211,3.564-1.211
		c1.129,0,2.016,0.322,2.662,0.969c0.513,0.515,0.85,1.181,1.012,2.002c0.088,0.515,0.131,1.416,0.131,2.705L361.909,169.053
		L361.909,169.053z"/>
	<path fill="#010202" d="M374.648,163.62c0,1.701-0.498,3.076-1.496,4.125s-2.295,1.572-3.894,1.572
		c-1.54,0-2.791-0.519-3.751-1.551c-0.961-1.035-1.441-2.388-1.441-4.06c0-1.688,0.498-3.06,1.496-4.115
		c0.997-1.055,2.295-1.584,3.895-1.584c1.539,0,2.789,0.519,3.75,1.552C374.168,160.594,374.648,161.946,374.648,163.62z
		 M372.206,163.708c0-1.102-0.271-1.992-0.813-2.674s-1.232-1.023-2.068-1.023c-0.851,0-1.531,0.33-2.046,0.99
		c-0.513,0.66-0.77,1.533-0.77,2.619c0,1.1,0.271,1.99,0.812,2.672s1.24,1.023,2.09,1.023c0.882,0,1.566-0.326,2.059-0.979
		S372.206,164.808,372.206,163.708z"/>
	<path fill="#010202" d="M383.559,168.702c-0.675,0.424-1.511,0.637-2.508,0.637c-1.13,0-1.995-0.301-2.597-0.902
		c-0.382-0.381-0.624-0.864-0.727-1.451c-0.059-0.321-0.088-0.938-0.088-1.848v-4.84h-1.87v-1.98h1.87v-3.014h2.42v3.014h3.168v1.98
		h-3.168v5.059c0,0.631,0.066,1.072,0.198,1.32c0.205,0.412,0.623,0.617,1.254,0.617c0.366,0,0.843-0.096,1.43-0.287
		L383.559,168.702z"/>
	<path fill="#010202" d="M388.465,155.104c0,0.396-0.138,0.729-0.407,1.002c-0.271,0.271-0.604,0.406-1.001,0.406
		c-0.397,0-0.734-0.136-1.012-0.406c-0.279-0.271-0.418-0.605-0.418-1.002c0-0.396,0.139-0.732,0.418-1.013
		c0.276-0.276,0.614-0.418,1.012-0.418c0.396,0,0.729,0.142,1.001,0.418C388.327,154.372,388.465,154.709,388.465,155.104z
		 M388.267,169.053h-2.42v-10.735h2.42V169.053z"/>
	<path fill="#010202" d="M400.674,158.317l-4.136,10.735h-2.421l-4.113-10.735h2.529l2.904,8.096l2.882-8.096H400.674z"/>
	<path fill="#010202" d="M410.573,169.053h-2.11v-0.793c-1.058,0.677-2.112,1.013-3.168,1.013c-1.042,0-1.878-0.312-2.509-0.935
		s-0.946-1.44-0.946-2.453c0-2.508,2.018-3.762,6.051-3.762h0.396v-0.418c0-0.66-0.117-1.106-0.353-1.345
		c-0.323-0.321-0.902-0.481-1.738-0.481c-0.954,0-1.921,0.277-2.902,0.836l-0.837-1.562c0.248-0.221,0.631-0.432,1.145-0.639
		c0.851-0.353,1.782-0.527,2.794-0.527c1.467,0,2.581,0.381,3.344,1.145c0.381,0.381,0.623,0.857,0.728,1.43
		c0.071,0.367,0.108,0.998,0.108,1.894L410.573,169.053L410.573,169.053z M408.286,166.676v-2.838h-0.507
		c-1.687,0-2.802,0.279-3.344,0.836c-0.278,0.279-0.418,0.646-0.418,1.101c0,0.528,0.179,0.932,0.539,1.211
		c0.357,0.279,0.81,0.418,1.353,0.418C406.6,167.403,407.392,167.161,408.286,166.676z"/>
	<path fill="#010202" d="M420.077,168.702c-0.675,0.424-1.511,0.637-2.508,0.637c-1.13,0-1.995-0.301-2.596-0.902
		c-0.382-0.381-0.624-0.864-0.728-1.451c-0.059-0.321-0.088-0.938-0.088-1.848v-4.84h-1.87v-1.98h1.87v-3.014h2.42v3.014h3.168v1.98
		h-3.168v5.059c0,0.631,0.066,1.072,0.198,1.32c0.205,0.412,0.623,0.617,1.254,0.617c0.366,0,0.843-0.096,1.431-0.287
		L420.077,168.702z"/>
	<path fill="#010202" d="M431.121,163.553c0,0.132-0.007,0.298-0.021,0.494c-0.014,0.199-0.021,0.32-0.021,0.363h-7.281
		c0,0.764,0.228,1.424,0.683,1.979c0.557,0.66,1.349,0.99,2.375,0.99c0.881,0,1.863-0.271,2.949-0.814l0.836,1.584
		c-1.102,0.777-2.428,1.166-3.982,1.166c-1.643,0-2.934-0.534-3.872-1.604c-0.908-1.012-1.363-2.332-1.363-3.961
		c0-1.687,0.469-3.063,1.407-4.137c0.938-1.07,2.163-1.605,3.675-1.605c1.451,0,2.585,0.492,3.397,1.476
		C430.715,160.465,431.121,161.823,431.121,163.553z M428.834,162.606c0-0.66-0.141-1.23-0.418-1.715
		c-0.41-0.689-1.034-1.035-1.87-1.035c-0.748,0-1.368,0.254-1.858,0.76c-0.492,0.506-0.789,1.17-0.892,1.99H428.834z"/>
	<path fill="#010202" d="M442.804,169.053h-2.112v-0.77c-0.967,0.688-1.957,1.032-2.969,1.032c-1.438,0-2.597-0.51-3.478-1.528
		c-0.881-1.021-1.319-2.345-1.319-3.972c0-1.688,0.502-3.075,1.508-4.17c1.004-1.092,2.24-1.639,3.707-1.639
		c0.775,0,1.523,0.184,2.243,0.551v-5.412h2.42V169.053L442.804,169.053z M440.384,166.567v-5.963
		c-0.587-0.381-1.218-0.57-1.893-0.57c-0.924,0-1.676,0.328-2.256,0.988c-0.579,0.66-0.868,1.578-0.868,2.75
		c0,1.071,0.271,1.93,0.813,2.574c0.543,0.646,1.225,0.969,2.047,0.969C438.916,167.315,439.636,167.065,440.384,166.567z"/>
</g>
<g>
	<path fill="#010202" d="M456.512,119.606c0,1.861-0.521,3.469-1.562,4.817c-1.114,1.438-2.528,2.155-4.246,2.155
		c-1.025,0-1.922-0.314-2.684-0.945l-0.946,5.411h-1.318l2.596-15.245h1.254l-0.176,0.989c1.085-0.836,2.178-1.254,3.276-1.254
		c1.13,0,2.048,0.378,2.75,1.133C456.158,117.424,456.512,118.403,456.512,119.606z M455.147,119.76
		c0-0.909-0.242-1.646-0.726-2.211c-0.484-0.563-1.175-0.848-2.068-0.848c-1.041,0-2.062,0.448-3.059,1.342l-1.078,6.336
		c0.821,0.69,1.688,1.034,2.597,1.034c1.335,0,2.412-0.607,3.233-1.826C454.781,122.487,455.147,121.211,455.147,119.76z"/>
	<path fill="#010202" d="M461.967,110.521l-2.685,15.84h-1.319l2.685-15.84H461.967z"/>
	<path fill="#010202" d="M471.604,118c0,0.853-0.346,1.621-1.034,2.312c-1.188,1.188-3.417,1.885-6.688,2.09
		c0.028,0.908,0.318,1.643,0.869,2.199c0.551,0.559,1.295,0.836,2.232,0.836c0.806,0,1.701-0.271,2.686-0.813l0.57,0.924
		c-0.234,0.222-0.646,0.435-1.23,0.64c-0.734,0.277-1.453,0.418-2.156,0.418c-1.306,0-2.352-0.386-3.135-1.155
		c-0.785-0.771-1.179-1.822-1.179-3.157c0-1.848,0.568-3.436,1.705-4.764c1.138-1.326,2.57-1.99,4.302-1.99
		c0.864,0,1.592,0.221,2.178,0.66C471.31,116.636,471.604,117.237,471.604,118z M470.326,118.087c0-0.454-0.173-0.811-0.517-1.066
		c-0.346-0.256-0.781-0.385-1.309-0.385c-1.291,0-2.386,0.564-3.279,1.693c-0.732,0.924-1.166,1.938-1.297,3.036
		c0.895-0.044,1.832-0.198,2.814-0.462c1.378-0.366,2.361-0.844,2.948-1.43C470.114,119.048,470.326,118.586,470.326,118.087z"/>
	<path fill="#010202" d="M482.405,116.503l-1.584,9.855h-1.21l0.198-1.166c-1.026,0.925-2.075,1.387-3.146,1.387
		c-1.086,0-1.959-0.377-2.618-1.133c-0.66-0.756-0.99-1.734-0.99-2.938c0-1.937,0.521-3.564,1.562-4.885
		c1.101-1.393,2.522-2.09,4.269-2.09C480.322,115.536,481.495,115.858,482.405,116.503z M480.997,117.229
		c-0.616-0.353-1.372-0.527-2.267-0.527c-1.291,0-2.336,0.543-3.136,1.628c-0.799,1.086-1.198,2.397-1.198,3.938
		c0,0.836,0.183,1.539,0.55,2.11c0.455,0.69,1.122,1.034,2.002,1.034c1.115,0,2.099-0.469,2.948-1.407L480.997,117.229z"/>
	<path fill="#010202" d="M491.271,116.592l-0.705,0.88c-0.674-0.543-1.422-0.813-2.243-0.813c-0.836,0-1.48,0.228-1.937,0.683
		c-0.293,0.293-0.439,0.659-0.439,1.1c0,0.353,0.125,0.652,0.374,0.902c0.249,0.249,0.773,0.598,1.573,1.045
		c0.799,0.447,1.367,0.832,1.705,1.154c0.526,0.527,0.791,1.13,0.791,1.805c0,0.953-0.353,1.734-1.057,2.344
		c-0.703,0.608-1.665,0.912-2.882,0.912c-1.335,0-2.494-0.389-3.477-1.166l0.683-0.945c0.924,0.631,1.854,0.945,2.794,0.945
		c0.631,0,1.175-0.125,1.628-0.373c0.602-0.354,0.901-0.881,0.901-1.584c0-0.572-0.381-1.107-1.143-1.606
		c-0.721-0.425-1.438-0.851-2.156-1.274c-0.764-0.588-1.146-1.27-1.146-2.047c0-0.908,0.355-1.643,1.066-2.199
		c0.712-0.559,1.588-0.836,2.63-0.836C489.629,115.515,490.641,115.874,491.271,116.592z"/>
	<path fill="#010202" d="M501.698,118c0,0.853-0.346,1.621-1.034,2.312c-1.188,1.188-3.417,1.885-6.688,2.09
		c0.029,0.908,0.319,1.643,0.869,2.199c0.551,0.559,1.295,0.836,2.232,0.836c0.807,0,1.701-0.271,2.686-0.813l0.571,0.924
		c-0.235,0.222-0.646,0.435-1.231,0.64c-0.734,0.277-1.453,0.418-2.156,0.418c-1.306,0-2.352-0.386-3.135-1.155
		c-0.785-0.771-1.178-1.822-1.178-3.157c0-1.848,0.567-3.436,1.705-4.764c1.137-1.326,2.569-1.99,4.301-1.99
		c0.865,0,1.592,0.221,2.178,0.66C501.405,116.636,501.698,117.237,501.698,118z M500.423,118.087c0-0.454-0.173-0.811-0.518-1.066
		c-0.346-0.256-0.78-0.385-1.309-0.385c-1.291,0-2.385,0.564-3.279,1.693c-0.731,0.924-1.166,1.938-1.297,3.036
		c0.896-0.044,1.832-0.198,2.815-0.462c1.378-0.366,2.36-0.844,2.947-1.43C500.21,119.048,500.423,118.586,500.423,118.087z"/>
	<path fill="#010202" d="M513.975,110.521l-2.685,15.84h-1.165l0.197-1.166c-0.982,0.924-2.111,1.386-3.388,1.386
		c-1.13,0-2.047-0.377-2.75-1.133c-0.705-0.755-1.057-1.734-1.057-2.938c0-1.862,0.521-3.469,1.562-4.817
		c1.114-1.438,2.529-2.156,4.246-2.156c1.144,0,2.045,0.33,2.705,0.99l1.013-6.006H513.975z M511.423,117.758
		c-0.646-0.704-1.512-1.057-2.597-1.057c-1.335,0-2.413,0.608-3.232,1.825c-0.734,1.101-1.102,2.377-1.102,3.828
		c0,0.91,0.234,1.637,0.704,2.179c0.498,0.587,1.195,0.88,2.09,0.88c0.969,0,1.987-0.447,3.06-1.342L511.423,117.758z"/>
</g>
<g>
	<path fill="#010202" d="M534.3,106.644c-0.675,0.336-1.372,0.506-2.091,0.506c-0.953,0-1.68-0.25-2.178-0.748
		c-0.277-0.279-0.455-0.652-0.527-1.123c-0.06-0.307-0.089-0.844-0.089-1.605v-6.248h-1.848v-1.078h1.848v-2.992h1.32v2.992h3.388
		v1.078h-3.388v5.984c0,0.953,0.06,1.562,0.176,1.826c0.205,0.481,0.696,0.725,1.475,0.725c0.337,0,0.688-0.051,1.056-0.152
		c0.162-0.059,0.33-0.117,0.506-0.178L534.3,106.644z"/>
	<path fill="#010202" d="M544.704,101.187c0,0.028-0.007,0.133-0.021,0.309s-0.021,0.309-0.021,0.396h-7.567
		c0,1.2,0.313,2.17,0.944,2.901c0.632,0.733,1.525,1.103,2.686,1.103c0.895,0,1.914-0.287,3.058-0.859l0.595,1.012
		c-0.089,0.119-0.447,0.309-1.077,0.572c-0.88,0.338-1.774,0.506-2.686,0.506c-1.51,0-2.702-0.498-3.573-1.496
		c-0.873-0.996-1.311-2.309-1.311-3.938c0-1.701,0.438-3.062,1.311-4.08c0.871-1.021,2.041-1.529,3.509-1.529
		c1.246,0,2.243,0.439,2.991,1.32C544.316,98.327,544.704,99.588,544.704,101.187z M543.363,100.769
		c0-0.925-0.205-1.716-0.615-2.375c-0.514-0.793-1.239-1.189-2.178-1.189s-1.73,0.324-2.377,0.969
		c-0.645,0.645-0.997,1.51-1.056,2.596H543.363L543.363,100.769z"/>
	<path fill="#010202" d="M554.363,106.907h-1.209v-0.793c-0.338,0.176-0.676,0.352-1.012,0.529
		c-0.793,0.321-1.577,0.481-2.354,0.481c-1.013,0-1.83-0.297-2.453-0.892c-0.623-0.594-0.935-1.366-0.935-2.319
		c0-2.304,2.031-3.455,6.094-3.455h0.55v-0.396c0-1.114-0.176-1.854-0.527-2.223c-0.396-0.41-1.062-0.615-2.002-0.615
		c-0.969,0-1.943,0.277-2.926,0.836l-0.551-0.924c0.161-0.162,0.506-0.354,1.034-0.572c0.808-0.338,1.672-0.506,2.596-0.506
		c1.232,0,2.187,0.336,2.859,1.013c0.382,0.381,0.624,0.85,0.728,1.407c0.072,0.336,0.108,0.879,0.108,1.627V106.907
		L554.363,106.907z M553.044,105.103v-3.564h-0.595c-3.124,0-4.687,0.801-4.687,2.398c0,0.571,0.184,1.041,0.551,1.407
		c0.41,0.41,1.004,0.615,1.781,0.615C550.828,105.959,551.812,105.674,553.044,105.103z"/>
	<path fill="#010202" d="M562.987,96.237l-0.308,1.1c-0.31-0.045-0.594-0.066-0.858-0.066c-0.659,0-1.261,0.154-1.804,0.463
		c-0.396,0.22-0.74,0.507-1.034,0.857c-0.132,0.176-0.257,0.352-0.374,0.527v7.789h-1.32V96.347h1.255v1.387
		c0.924-1.115,2.039-1.672,3.345-1.672C562.269,96.062,562.636,96.12,562.987,96.237z"/>
	<path fill="#010202" d="M571.611,91.485l-0.528,0.924c-0.439-0.293-0.961-0.441-1.562-0.441c-0.617,0-1.101,0.178-1.453,0.529
		c-0.41,0.41-0.615,1.129-0.615,2.156v1.693h3.389v1.077h-3.389v9.482h-1.319v-9.482h-1.87v-1.077h1.87v-1.693
		c0-1.351,0.33-2.355,0.989-3.014c0.558-0.559,1.312-0.837,2.267-0.837C570.326,90.803,571.068,91.03,571.611,91.485z"/>
	<path fill="#010202" d="M581.026,106.907h-1.21v-0.836c-1.057,0.703-2.199,1.055-3.432,1.055c-1.071,0-1.922-0.314-2.554-0.945
		c-0.453-0.455-0.748-1.07-0.879-1.848c-0.045-0.322-0.065-0.975-0.065-1.959v-6.027h1.319v6.293c0,1.377,0.209,2.275,0.627,2.693
		c0.419,0.418,0.965,0.627,1.64,0.627c0.66,0,1.371-0.16,2.134-0.482c0.366-0.19,0.733-0.375,1.101-0.551v-8.58h1.319V106.907
		L581.026,106.907z"/>
	<path fill="#010202" d="M585.426,106.907h-1.319v-15.84h1.319V106.907z"/>
	<path fill="#010202" d="M599.088,91.683c-2.42,1.936-3.631,4.868-3.631,8.801c0,1.86,0.258,3.453,0.771,4.772
		c0.557,1.468,1.474,2.742,2.75,3.828l-0.727,0.879c-2.904-2.065-4.355-5.264-4.355-9.592c0-2.009,0.359-3.828,1.078-5.455
		c0.762-1.789,1.884-3.16,3.365-4.114L599.088,91.683z"/>
	<path fill="#010202" d="M611.628,101.913h-4.334v4.334h-1.166v-4.334h-4.334v-1.166h4.334v-4.334h1.166v4.334h4.334V101.913z"/>
	<path fill="#010202" d="M623.486,96.347l-4.137,10.561h-1.562l-4.113-10.561h1.452l3.497,9.174l3.498-9.174H623.486z"/>
	<path fill="#010202" d="M633.913,101.187c0,0.028-0.008,0.133-0.021,0.309c-0.016,0.176-0.022,0.309-0.022,0.396h-7.566
		c0,1.2,0.313,2.17,0.944,2.901c0.632,0.733,1.525,1.103,2.685,1.103c0.895,0,1.914-0.287,3.059-0.859l0.595,1.012
		c-0.088,0.119-0.447,0.309-1.078,0.572c-0.88,0.338-1.774,0.506-2.685,0.506c-1.511,0-2.703-0.498-3.575-1.496
		c-0.871-0.996-1.31-2.309-1.31-3.938c0-1.701,0.438-3.062,1.31-4.08c0.872-1.02,2.043-1.529,3.51-1.529
		c1.246,0,2.244,0.439,2.992,1.32C633.525,98.327,633.913,99.588,633.913,101.187z M632.572,100.769
		c0-0.925-0.205-1.716-0.616-2.375c-0.514-0.793-1.238-1.189-2.178-1.189c-0.938,0-1.73,0.324-2.376,0.969s-0.998,1.51-1.057,2.596
		H632.572L632.572,100.769z"/>
	<path fill="#010202" d="M641.152,100.372c0,4.328-1.453,7.525-4.355,9.592l-0.727-0.879c1.275-1.086,2.191-2.361,2.75-3.828
		c0.513-1.32,0.771-2.912,0.771-4.773c0-3.932-1.21-6.864-3.631-8.801l0.748-0.879c1.481,0.954,2.61,2.325,3.389,4.114
		C640.8,96.543,641.152,98.364,641.152,100.372z"/>
</g>
<g>
	<path fill="#010202" d="M206.455,97.694h-2.09v-5.072c0-1.229-0.141-1.982-0.419-2.261c-0.278-0.278-0.672-0.418-1.178-0.418
		c-0.646,0-1.336,0.228-2.07,0.684v7.067h-2.091V83.958h2.091v4.979c0.822-0.52,1.652-0.779,2.488-0.779
		c0.976,0,1.748,0.285,2.318,0.855c0.431,0.431,0.709,0.962,0.836,1.595c0.076,0.381,0.114,1.015,0.114,1.9V97.694z"/>
	<path fill="#010202" d="M217.437,93.001c0,1.471-0.431,2.657-1.292,3.562c-0.86,0.905-1.981,1.357-3.363,1.357
		c-1.329,0-2.409-0.445-3.239-1.339s-1.245-2.062-1.245-3.506c0-1.456,0.431-2.641,1.292-3.553s1.981-1.368,3.363-1.368
		c1.33,0,2.409,0.446,3.238,1.34C217.022,90.389,217.437,91.558,217.437,93.001z M215.328,93.078c0-0.95-0.234-1.72-0.703-2.31
		c-0.47-0.588-1.064-0.883-1.786-0.883c-0.734,0-1.324,0.284-1.768,0.854c-0.443,0.569-0.664,1.323-0.664,2.261
		c0,0.95,0.233,1.721,0.702,2.309c0.47,0.59,1.07,0.885,1.806,0.885c0.76,0,1.352-0.282,1.775-0.846
		C215.115,94.784,215.328,94.028,215.328,93.078z"/>
	<path fill="#010202" d="M227.963,92.907c0,1.47-0.438,2.673-1.312,3.609c-0.874,0.938-1.938,1.405-3.191,1.405
		c-0.697,0-1.343-0.151-1.938-0.455v4.312h-2.09V88.422h1.843v0.628c0.723-0.596,1.57-0.894,2.546-0.894
		c1.241,0,2.242,0.44,3.002,1.32C227.583,90.358,227.963,91.5,227.963,92.907z M225.854,92.944c0-0.924-0.241-1.672-0.722-2.241
		c-0.456-0.532-1.039-0.798-1.748-0.798c-0.735,0-1.355,0.216-1.862,0.646V95.7c0.506,0.33,1.051,0.494,1.634,0.494
		c0.799,0,1.447-0.288,1.948-0.864C225.604,94.753,225.854,93.958,225.854,92.944z"/>
	<path fill="#010202" d="M237.919,92.944c0,0.115-0.007,0.258-0.02,0.429s-0.019,0.274-0.019,0.313h-6.289
		c0,0.657,0.196,1.229,0.589,1.709c0.481,0.57,1.166,0.854,2.052,0.854c0.761,0,1.608-0.233,2.546-0.703l0.723,1.368
		c-0.95,0.672-2.098,1.007-3.439,1.007c-1.418,0-2.533-0.462-3.344-1.387c-0.786-0.874-1.178-2.015-1.178-3.42
		c0-1.456,0.404-2.647,1.216-3.572c0.811-0.924,1.868-1.387,3.173-1.387c1.254,0,2.232,0.425,2.937,1.273
		C237.569,90.277,237.919,91.451,237.919,92.944z M235.943,92.127c0-0.569-0.121-1.063-0.36-1.481
		c-0.354-0.596-0.894-0.894-1.615-0.894c-0.646,0-1.181,0.219-1.605,0.656c-0.425,0.437-0.681,1.01-0.77,1.719H235.943z"/>
	<path fill="#010202" d="M242.004,97.694h-2.09V83.958h2.09V97.694z"/>
	<path fill="#010202" d="M252.378,92.944c0,0.115-0.007,0.258-0.02,0.429s-0.019,0.274-0.019,0.313h-6.289
		c0,0.657,0.196,1.229,0.589,1.709c0.481,0.57,1.166,0.854,2.052,0.854c0.761,0,1.608-0.233,2.546-0.703l0.723,1.368
		c-0.95,0.672-2.098,1.007-3.439,1.007c-1.418,0-2.533-0.462-3.344-1.387c-0.786-0.874-1.178-2.015-1.178-3.42
		c0-1.456,0.404-2.647,1.216-3.572c0.811-0.924,1.868-1.387,3.173-1.387c1.254,0,2.232,0.425,2.937,1.273
		C252.028,90.277,252.378,91.451,252.378,92.944z M250.402,92.127c0-0.569-0.121-1.063-0.36-1.481
		c-0.354-0.596-0.894-0.894-1.615-0.894c-0.646,0-1.181,0.219-1.605,0.656c-0.425,0.437-0.681,1.01-0.77,1.719H250.402z"/>
	<path fill="#010202" d="M260.624,95.035c0,0.899-0.329,1.608-0.988,2.128s-1.507,0.779-2.546,0.779
		c-0.836,0-1.634-0.152-2.395-0.457c-0.469-0.189-0.798-0.366-0.987-0.531l0.741-1.368c0.924,0.481,1.734,0.724,2.432,0.724
		c0.519,0,0.918-0.107,1.197-0.324c0.278-0.215,0.418-0.486,0.418-0.816c0-0.329-0.178-0.602-0.532-0.816
		c-0.165-0.113-0.653-0.342-1.463-0.685c-0.748-0.315-1.286-0.614-1.615-0.894c-0.558-0.48-0.836-1.096-0.836-1.842
		c0-0.836,0.315-1.509,0.95-2.016c0.633-0.506,1.463-0.76,2.488-0.76c1.305,0,2.306,0.279,3.002,0.836l-0.722,1.33
		c-0.733-0.418-1.45-0.627-2.146-0.627c-0.988,0-1.482,0.349-1.482,1.045c0,0.304,0.158,0.562,0.475,0.779
		c0.19,0.127,0.583,0.315,1.179,0.568c0.937,0.395,1.569,0.723,1.899,0.988C260.313,93.572,260.624,94.224,260.624,95.035z"/>
	<path fill="#010202" d="M268.946,95.035c0,0.899-0.328,1.608-0.987,2.128s-1.507,0.779-2.546,0.779
		c-0.836,0-1.635-0.152-2.395-0.457c-0.469-0.189-0.798-0.366-0.988-0.531l0.741-1.368c0.924,0.481,1.735,0.724,2.433,0.724
		c0.519,0,0.918-0.107,1.196-0.324c0.279-0.215,0.418-0.486,0.418-0.816c0-0.329-0.177-0.602-0.531-0.816
		c-0.165-0.113-0.653-0.342-1.464-0.685c-0.747-0.315-1.285-0.614-1.614-0.894c-0.559-0.48-0.836-1.096-0.836-1.842
		c0-0.836,0.315-1.509,0.949-2.016c0.634-0.506,1.464-0.76,2.489-0.76c1.304,0,2.306,0.279,3.002,0.836l-0.722,1.33
		c-0.734-0.418-1.45-0.627-2.147-0.627c-0.987,0-1.481,0.349-1.481,1.045c0,0.304,0.158,0.562,0.475,0.779
		c0.19,0.127,0.583,0.315,1.179,0.568c0.937,0.395,1.569,0.723,1.899,0.988C268.635,93.572,268.946,94.224,268.946,95.035z"/>
</g>
<g>
	<path fill="#010202" d="M45.874,125.224c0,0.113-0.007,0.256-0.02,0.428c-0.013,0.171-0.019,0.274-0.019,0.312h-6.289
		c0,0.658,0.196,1.229,0.589,1.71c0.481,0.57,1.166,0.854,2.052,0.854c0.76,0,1.608-0.234,2.546-0.703l0.723,1.367
		c-0.95,0.673-2.098,1.008-3.439,1.008c-1.418,0-2.533-0.463-3.344-1.387c-0.786-0.875-1.178-2.015-1.178-3.42
		c0-1.457,0.404-2.647,1.216-3.572c0.811-0.924,1.868-1.387,3.173-1.387c1.254,0,2.232,0.424,2.936,1.272
		C45.524,122.556,45.874,123.729,45.874,125.224z M43.897,124.406c0-0.569-0.121-1.063-0.36-1.481
		c-0.354-0.596-0.894-0.894-1.615-0.894c-0.646,0-1.181,0.219-1.605,0.655c-0.425,0.438-0.681,1.011-0.77,1.72H43.897z"/>
	<path fill="#010202" d="M56.039,129.974h-2.375l-2.318-3.326l-2.28,3.326h-2.279l3.382-4.675l-3.192-4.599h2.395l2.128,3.021
		l2.052-3.021h2.204l-3.116,4.541L56.039,129.974z"/>
	<path fill="#010202" d="M64.665,129.974H62.84v-0.685c-0.912,0.582-1.824,0.874-2.736,0.874c-0.899,0-1.622-0.27-2.166-0.809
		c-0.545-0.537-0.816-1.244-0.816-2.119c0-2.166,1.741-3.248,5.225-3.248h0.342v-0.36c0-0.569-0.102-0.956-0.304-1.159
		c-0.279-0.277-0.779-0.418-1.501-0.418c-0.824,0-1.66,0.24-2.508,0.723l-0.723-1.35c0.216-0.189,0.544-0.374,0.988-0.551
		c0.735-0.305,1.539-0.456,2.413-0.456c1.267,0,2.229,0.329,2.888,0.987c0.329,0.33,0.538,0.74,0.627,1.234
		c0.063,0.316,0.096,0.861,0.096,1.635L64.665,129.974L64.665,129.974z M62.688,127.921v-2.451h-0.437
		c-1.457,0-2.419,0.24-2.889,0.723c-0.24,0.24-0.36,0.558-0.36,0.949c0,0.457,0.155,0.806,0.465,1.045
		c0.31,0.241,0.7,0.361,1.168,0.361C61.231,128.548,61.916,128.339,62.688,127.921z"/>
	<path fill="#010202" d="M73.214,127.313c0,0.898-0.329,1.608-0.988,2.127c-0.659,0.521-1.507,0.779-2.546,0.779
		c-0.836,0-1.634-0.152-2.394-0.455c-0.47-0.19-0.799-0.367-0.988-0.533l0.741-1.367c0.924,0.48,1.734,0.723,2.432,0.723
		c0.52,0,0.918-0.107,1.197-0.322c0.278-0.216,0.418-0.488,0.418-0.817s-0.177-0.603-0.532-0.816
		c-0.165-0.114-0.653-0.342-1.463-0.685c-0.748-0.316-1.286-0.614-1.615-0.893c-0.558-0.481-0.836-1.097-0.836-1.844
		c0-0.836,0.316-1.508,0.95-2.015c0.633-0.507,1.463-0.761,2.489-0.761c1.304,0,2.305,0.279,3.002,0.836l-0.723,1.33
		c-0.733-0.418-1.449-0.627-2.146-0.627c-0.988,0-1.482,0.35-1.482,1.045c0,0.305,0.158,0.563,0.476,0.779
		c0.189,0.127,0.583,0.316,1.178,0.569c0.937,0.394,1.57,0.723,1.9,0.987C72.903,125.851,73.214,126.502,73.214,127.313z"/>
	<path fill="#010202" d="M83.911,125.185c0,1.471-0.438,2.674-1.312,3.61s-1.938,1.405-3.191,1.405
		c-0.697,0-1.344-0.151-1.938-0.455v4.312h-2.09V120.7h1.843v0.628c0.722-0.597,1.57-0.894,2.546-0.894
		c1.241,0,2.242,0.439,3.002,1.319C83.531,122.636,83.911,123.778,83.911,125.185z M81.802,125.224c0-0.926-0.241-1.673-0.722-2.242
		c-0.456-0.532-1.039-0.799-1.748-0.799c-0.735,0-1.355,0.217-1.862,0.646v5.148c0.506,0.33,1.051,0.494,1.634,0.494
		c0.798,0,1.447-0.289,1.948-0.865C81.552,127.032,81.802,126.237,81.802,125.224z"/>
	<path fill="#010202" d="M93.867,125.224c0,0.113-0.008,0.256-0.02,0.428c-0.013,0.171-0.019,0.274-0.019,0.312H87.54
		c0,0.658,0.195,1.229,0.589,1.71c0.48,0.57,1.166,0.854,2.052,0.854c0.76,0,1.608-0.234,2.546-0.703l0.723,1.367
		c-0.95,0.673-2.098,1.008-3.439,1.008c-1.418,0-2.533-0.463-3.344-1.387c-0.786-0.875-1.179-2.015-1.179-3.42
		c0-1.457,0.405-2.647,1.217-3.572c0.811-0.924,1.867-1.387,3.173-1.387c1.254,0,2.231,0.424,2.936,1.272
		S93.867,123.729,93.867,125.224z M91.891,124.406c0-0.569-0.121-1.063-0.361-1.481c-0.354-0.596-0.893-0.894-1.614-0.894
		c-0.646,0-1.182,0.219-1.605,0.655c-0.425,0.438-0.681,1.011-0.77,1.72H91.891z"/>
	<path fill="#010202" d="M101.733,120.644l-0.475,1.615c-0.177-0.037-0.386-0.058-0.627-0.058c-1.127,0-2.021,0.476-2.679,1.426
		v6.347h-2.091v-9.272h1.824v1.179c0.152-0.24,0.432-0.494,0.836-0.76c0.671-0.456,1.399-0.686,2.186-0.686
		C101.074,120.435,101.416,120.505,101.733,120.644z"/>
	<path fill="#010202" d="M109.903,129.974h-1.823v-0.685c-0.912,0.582-1.824,0.874-2.736,0.874c-0.9,0-1.622-0.27-2.166-0.809
		c-0.545-0.537-0.817-1.244-0.817-2.119c0-2.166,1.742-3.248,5.226-3.248h0.342v-0.36c0-0.569-0.102-0.956-0.304-1.159
		c-0.279-0.277-0.779-0.418-1.501-0.418c-0.824,0-1.66,0.24-2.509,0.723l-0.722-1.35c0.215-0.189,0.544-0.374,0.988-0.551
		c0.735-0.305,1.539-0.456,2.413-0.456c1.267,0,2.229,0.329,2.888,0.987c0.329,0.33,0.538,0.74,0.627,1.234
		c0.063,0.316,0.095,0.861,0.095,1.635V129.974z M107.927,127.921v-2.451h-0.437c-1.457,0-2.42,0.24-2.889,0.723
		c-0.241,0.24-0.36,0.558-0.36,0.949c0,0.457,0.154,0.806,0.465,1.045c0.31,0.241,0.699,0.361,1.168,0.361
		C106.47,128.548,107.154,128.339,107.927,127.921z"/>
	<path fill="#010202" d="M118.11,129.669c-0.583,0.367-1.305,0.551-2.166,0.551c-0.976,0-1.723-0.26-2.241-0.779
		c-0.329-0.328-0.538-0.746-0.627-1.254c-0.052-0.277-0.076-0.811-0.076-1.596v-4.18h-1.615V120.7H113v-2.604h2.09v2.604h2.736
		v1.711h-2.736v4.369c0,0.545,0.057,0.925,0.171,1.141c0.177,0.354,0.539,0.532,1.083,0.532c0.316,0,0.729-0.083,1.235-0.247
		L118.11,129.669z"/>
	<path fill="#010202" d="M127.649,125.224c0,0.113-0.007,0.256-0.019,0.428c-0.013,0.171-0.02,0.274-0.02,0.312h-6.289
		c0,0.658,0.196,1.229,0.59,1.71c0.48,0.57,1.166,0.854,2.052,0.854c0.76,0,1.607-0.234,2.546-0.703l0.722,1.367
		c-0.95,0.673-2.097,1.008-3.438,1.008c-1.418,0-2.533-0.463-3.345-1.387c-0.785-0.875-1.178-2.015-1.178-3.42
		c0-1.457,0.405-2.647,1.216-3.572c0.812-0.924,1.868-1.387,3.174-1.387c1.254,0,2.231,0.424,2.936,1.272
		S127.649,123.729,127.649,125.224z M125.673,124.406c0-0.569-0.121-1.063-0.361-1.481c-0.354-0.596-0.893-0.894-1.615-0.894
		c-0.646,0-1.181,0.219-1.604,0.655c-0.425,0.438-0.681,1.011-0.771,1.72H125.673z"/>
	<path fill="#010202" d="M137.738,129.974h-1.823v-0.666c-0.836,0.596-1.691,0.894-2.565,0.894c-1.241,0-2.242-0.438-3.002-1.32
		c-0.76-0.88-1.14-2.022-1.14-3.43c0-1.456,0.434-2.656,1.302-3.601c0.867-0.943,1.935-1.416,3.202-1.416
		c0.671,0,1.316,0.158,1.938,0.476v-4.675h2.09L137.738,129.974L137.738,129.974z M135.648,127.826v-5.148
		c-0.507-0.329-1.052-0.493-1.634-0.493c-0.798,0-1.447,0.284-1.947,0.854c-0.5,0.569-0.75,1.36-0.75,2.375
		c0,0.925,0.234,1.665,0.703,2.223s1.059,0.837,1.768,0.837C134.381,128.472,135.002,128.257,135.648,127.826z"/>
</g>
<g>
	<path fill="#010202" d="M170.662,115.701l-0.864,1.08c-0.828-0.665-1.746-0.999-2.754-0.999c-1.026,0-1.818,0.279-2.376,0.837
		c-0.36,0.36-0.54,0.812-0.54,1.351c0,0.432,0.152,0.801,0.459,1.106c0.306,0.307,0.949,0.733,1.931,1.282
		c0.981,0.55,1.678,1.021,2.092,1.418c0.648,0.647,0.973,1.387,0.973,2.214c0,1.171-0.433,2.129-1.296,2.876
		c-0.864,0.746-2.043,1.119-3.537,1.119c-1.639,0-3.061-0.477-4.267-1.43l0.837-1.162c1.135,0.774,2.277,1.162,3.43,1.162
		c0.773,0,1.439-0.154,1.998-0.459c0.737-0.434,1.106-1.08,1.106-1.945c0-0.701-0.468-1.357-1.403-1.971
		c-0.883-0.521-1.766-1.044-2.646-1.565c-0.937-0.72-1.404-1.558-1.404-2.511c0-1.117,0.438-2.017,1.311-2.701
		c0.873-0.684,1.948-1.024,3.227-1.024C168.646,114.378,169.887,114.819,170.662,115.701z"/>
	<path fill="#010202" d="M183.81,115.593l-1.943,12.096h-1.485l0.243-1.431c-1.261,1.134-2.547,1.7-3.861,1.7
		c-1.333,0-2.403-0.463-3.213-1.391c-0.81-0.926-1.215-2.129-1.215-3.604c0-2.376,0.639-4.374,1.917-5.994
		c1.35-1.71,3.096-2.564,5.238-2.564C181.254,114.405,182.694,114.801,183.81,115.593z M182.082,116.483
		c-0.756-0.432-1.684-0.646-2.781-0.646c-1.584,0-2.866,0.666-3.847,1.997c-0.981,1.333-1.473,2.942-1.473,4.833
		c0,1.025,0.226,1.891,0.676,2.593c0.558,0.847,1.377,1.269,2.456,1.269c1.368,0,2.574-0.575,3.618-1.728L182.082,116.483z"/>
	<path fill="#010202" d="M194.313,114.729l-0.216,1.322h-4.158l-1.215,7.047c-0.198,1.152-0.297,1.846-0.297,2.079
		c0,0.937,0.531,1.403,1.593,1.403c0.468,0,1.107-0.18,1.917-0.54l0.54,1.161c-1.044,0.521-1.962,0.783-2.754,0.783
		c-0.81,0-1.485-0.188-2.024-0.566c-0.631-0.45-0.945-1.08-0.945-1.891c0-0.233,0.099-0.928,0.297-2.079l1.269-7.397h-2.268
		l0.216-1.322h2.269l0.62-3.672h1.62l-0.621,3.672H194.313z"/>
	<path fill="#010202" d="M207.408,114.729l-2.215,12.959h-1.431l0.243-1.377c-1.368,1.099-2.854,1.646-4.455,1.646
		c-1.117,0-2.007-0.277-2.673-0.837c-0.72-0.575-1.08-1.358-1.08-2.349c0-0.379,0.099-1.144,0.297-2.295l1.323-7.75h1.62
		l-1.323,7.506c-0.216,1.226-0.324,1.99-0.324,2.295c0,1.352,0.837,2.025,2.511,2.025c1.422,0,2.8-0.558,4.132-1.674l1.755-10.152
		h1.62V114.729z"/>
	<path fill="#010202" d="M218.289,114.702l-0.54,1.351c-0.415-0.09-0.774-0.136-1.08-0.136c-1.656,0-3.168,0.955-4.536,2.861
		l-1.512,8.91H209l2.187-12.959h1.539l-0.324,1.971c1.351-1.549,2.845-2.321,4.482-2.321
		C217.55,114.378,218.019,114.485,218.289,114.702z"/>
	<path fill="#010202" d="M229.521,115.593l-1.943,12.096h-1.485l0.243-1.431c-1.26,1.134-2.547,1.7-3.861,1.7
		c-1.333,0-2.403-0.463-3.213-1.391c-0.81-0.926-1.215-2.129-1.215-3.604c0-2.376,0.639-4.374,1.917-5.994
		c1.35-1.71,3.096-2.564,5.238-2.564C226.964,114.405,228.404,114.801,229.521,115.593z M227.792,116.483
		c-0.756-0.432-1.684-0.646-2.781-0.646c-1.584,0-2.866,0.666-3.847,1.997c-0.981,1.333-1.473,2.942-1.473,4.833
		c0,1.025,0.226,1.891,0.676,2.593c0.558,0.847,1.377,1.269,2.457,1.269c1.367,0,2.573-0.575,3.617-1.728L227.792,116.483z"/>
	<path fill="#010202" d="M240.023,114.729l-0.216,1.322h-4.158l-1.215,7.047c-0.198,1.152-0.297,1.846-0.297,2.079
		c0,0.937,0.531,1.403,1.593,1.403c0.468,0,1.107-0.18,1.917-0.54l0.54,1.161c-1.044,0.521-1.962,0.783-2.754,0.783
		c-0.81,0-1.485-0.188-2.024-0.566c-0.631-0.45-0.945-1.08-0.945-1.891c0-0.233,0.099-0.928,0.297-2.079l1.269-7.397h-2.268
		l0.216-1.322h2.269l0.621-3.672h1.619l-0.621,3.672H240.023z"/>
	<path fill="#010202" d="M251.876,117.429c0,1.045-0.423,1.989-1.27,2.836c-1.458,1.457-4.193,2.312-8.208,2.563
		c0.036,1.116,0.393,2.017,1.066,2.7c0.675,0.685,1.588,1.025,2.741,1.025c0.989,0,2.088-0.332,3.294-0.998l0.702,1.133
		c-0.288,0.271-0.792,0.531-1.513,0.783c-0.899,0.342-1.781,0.514-2.646,0.514c-1.603,0-2.885-0.473-3.849-1.418
		c-0.963-0.944-1.443-2.235-1.443-3.875c0-2.268,0.697-4.215,2.093-5.846c1.396-1.629,3.154-2.443,5.278-2.443
		c1.062,0,1.953,0.271,2.673,0.812S251.876,116.494,251.876,117.429z M250.311,117.537c0-0.558-0.212-0.994-0.635-1.31
		c-0.423-0.314-0.958-0.473-1.606-0.473c-1.584,0-2.925,0.692-4.022,2.078c-0.9,1.135-1.431,2.377-1.593,3.727
		c1.098-0.054,2.25-0.242,3.456-0.566c1.69-0.449,2.896-1.034,3.617-1.755C250.049,118.716,250.311,118.149,250.311,117.537z"/>
	<path fill="#010202" d="M266.942,108.249l-3.294,19.439h-1.431l0.243-1.431c-1.207,1.134-2.592,1.7-4.158,1.7
		c-1.386,0-2.511-0.463-3.375-1.391c-0.864-0.926-1.296-2.129-1.296-3.604c0-2.286,0.639-4.257,1.917-5.913
		c1.368-1.765,3.104-2.646,5.211-2.646c1.404,0,2.511,0.404,3.321,1.215l1.241-7.371H266.942z M263.81,117.132
		c-0.792-0.863-1.854-1.296-3.186-1.296c-1.639,0-2.961,0.747-3.97,2.24c-0.899,1.351-1.35,2.916-1.35,4.698
		c0,1.115,0.288,2.008,0.864,2.673c0.61,0.721,1.467,1.079,2.564,1.079c1.188,0,2.439-0.549,3.753-1.646L263.81,117.132z"/>
</g>
<g>
	<path fill="#010202" d="M374.76,83.739l-0.642,1.6c-0.489-0.106-0.917-0.16-1.278-0.16c-1.963,0-3.755,1.131-5.376,3.393
		l-1.792,10.56h-1.92l2.592-15.36h1.824l-0.386,2.336c1.602-1.834,3.371-2.752,5.312-2.752
		C373.885,83.354,374.439,83.482,374.76,83.739z"/>
	<path fill="#010202" d="M387.4,86.97c0,1.237-0.502,2.357-1.505,3.36c-1.729,1.728-4.971,2.741-9.729,3.04
		c0.044,1.322,0.465,2.39,1.265,3.199c0.801,0.812,1.883,1.217,3.248,1.217c1.173,0,2.475-0.395,3.903-1.186l0.832,1.346
		c-0.342,0.318-0.938,0.629-1.793,0.928c-1.065,0.404-2.11,0.607-3.135,0.607c-1.898,0-3.42-0.561-4.561-1.681
		c-1.143-1.12-1.712-2.649-1.712-4.592c0-2.688,0.825-4.997,2.479-6.928c1.653-1.931,3.738-2.896,6.256-2.896
		c1.261,0,2.314,0.32,3.168,0.96C386.973,84.987,387.4,85.862,387.4,86.97z M385.544,87.098c0-0.661-0.251-1.179-0.753-1.552
		s-1.136-0.56-1.903-0.56c-1.878,0-3.467,0.821-4.77,2.464c-1.065,1.344-1.694,2.815-1.887,4.416
		c1.301-0.064,2.666-0.288,4.096-0.672c2.004-0.533,3.435-1.228,4.287-2.08C385.234,88.496,385.544,87.824,385.544,87.098z"/>
	<path fill="#010202" d="M395.079,76.09l-3.903,23.04h-1.92l3.903-23.04H395.079z"/>
	<path fill="#010202" d="M400.198,83.77l-2.623,15.36h-1.92l2.623-15.36H400.198z M401.383,78.586c0,0.342-0.122,0.64-0.367,0.896
		c-0.246,0.257-0.55,0.385-0.912,0.385c-0.342,0-0.641-0.128-0.896-0.385c-0.256-0.256-0.383-0.554-0.383-0.896
		c0-0.362,0.127-0.667,0.383-0.912c0.257-0.245,0.556-0.368,0.896-0.368c0.362,0,0.666,0.123,0.912,0.368
		C401.261,77.919,401.383,78.224,401.383,78.586z"/>
	<path fill="#010202" d="M415.495,86.97c0,1.237-0.502,2.357-1.505,3.36c-1.728,1.728-4.971,2.741-9.728,3.04
		c0.043,1.322,0.464,2.39,1.264,3.199c0.801,0.812,1.883,1.217,3.248,1.217c1.173,0,2.476-0.395,3.904-1.186l0.832,1.346
		c-0.342,0.318-0.939,0.629-1.793,0.928c-1.066,0.404-2.111,0.607-3.136,0.607c-1.898,0-3.42-0.561-4.561-1.681
		c-1.142-1.12-1.712-2.649-1.712-4.592c0-2.688,0.826-4.997,2.479-6.928c1.653-1.931,3.738-2.896,6.257-2.896
		c1.26,0,2.313,0.32,3.168,0.96C415.068,84.987,415.495,85.862,415.495,86.97z M413.64,87.098c0-0.661-0.251-1.179-0.753-1.552
		c-0.501-0.373-1.135-0.56-1.903-0.56c-1.878,0-3.467,0.821-4.769,2.464c-1.066,1.344-1.695,2.815-1.888,4.416
		c1.302-0.064,2.666-0.288,4.097-0.672c2.004-0.533,3.434-1.228,4.287-2.08C413.329,88.496,413.64,87.824,413.64,87.098z"/>
	<path fill="#010202" d="M432.615,83.77l-8.641,15.36h-2.271l-3.358-15.36h2.047l2.785,13.345L430.6,83.77H432.615z"/>
	<path fill="#010202" d="M446.439,86.97c0,1.237-0.502,2.357-1.504,3.36c-1.729,1.728-4.971,2.741-9.729,3.04
		c0.043,1.322,0.466,2.39,1.265,3.199c0.801,0.812,1.883,1.217,3.248,1.217c1.174,0,2.475-0.395,3.903-1.186l0.832,1.346
		c-0.342,0.318-0.938,0.629-1.792,0.928c-1.066,0.404-2.111,0.607-3.136,0.607c-1.897,0-3.419-0.561-4.561-1.681
		s-1.711-2.649-1.711-4.592c0-2.688,0.825-4.997,2.479-6.928c1.653-1.931,3.738-2.896,6.256-2.896c1.259,0,2.314,0.32,3.168,0.96
		C446.012,84.987,446.439,85.862,446.439,86.97z M444.584,87.098c0-0.661-0.253-1.179-0.754-1.552s-1.136-0.56-1.902-0.56
		c-1.878,0-3.467,0.821-4.77,2.464c-1.066,1.344-1.695,2.815-1.888,4.416c1.301-0.064,2.666-0.288,4.096-0.672
		c2.005-0.533,3.436-1.228,4.288-2.08C444.273,88.496,444.584,87.824,444.584,87.098z"/>
	<path fill="#010202" d="M464.295,76.09l-3.904,23.04h-1.695l0.288-1.695c-1.43,1.344-3.072,2.017-4.929,2.017
		c-1.644,0-2.977-0.55-4-1.648s-1.535-2.521-1.535-4.271c0-2.709,0.757-5.045,2.271-7.009c1.62-2.09,3.68-3.136,6.176-3.136
		c1.664,0,2.977,0.48,3.937,1.44l1.473-8.736L464.295,76.09L464.295,76.09z M460.582,86.619c-0.938-1.024-2.196-1.536-3.775-1.536
		c-1.941,0-3.509,0.886-4.703,2.656c-1.067,1.6-1.6,3.455-1.6,5.566c0,1.323,0.34,2.379,1.022,3.168
		c0.726,0.854,1.738,1.28,3.04,1.28c1.407,0,2.891-0.649,4.448-1.952L460.582,86.619z"/>
</g>
<g>
	<path fill="#010202" d="M508.279,69.827c0,3.248-0.966,5.908-2.897,7.98c-1.933,2.072-4.283,3.107-7.057,3.107
		c-1.54,0-2.968-0.336-4.284-1.008v9.534h-4.618V59.915h4.073V61.3c1.597-1.315,3.472-1.974,5.627-1.974
		c2.744,0,4.957,0.974,6.638,2.919C507.439,64.192,508.279,66.718,508.279,69.827z M503.616,69.911c0-2.044-0.531-3.696-1.596-4.956
		c-1.008-1.176-2.297-1.764-3.864-1.764c-1.624,0-2.996,0.477-4.116,1.428V76c1.12,0.729,2.324,1.092,3.612,1.092
		c1.766,0,3.198-0.636,4.307-1.91C503.064,73.908,503.616,72.151,503.616,69.911z"/>
	<path fill="#010202" d="M525.709,59.789l-1.051,3.57c-0.393-0.084-0.854-0.126-1.386-0.126c-2.492,0-4.467,1.05-5.922,3.149V80.41
		h-4.621V59.915h4.033v2.604c0.336-0.532,0.951-1.093,1.848-1.681c1.483-1.008,3.095-1.512,4.83-1.512
		C524.253,59.327,525.009,59.481,525.709,59.789z"/>
	<path fill="#010202" d="M533.814,53.783c0,0.756-0.259,1.394-0.776,1.911c-0.519,0.519-1.154,0.776-1.91,0.776
		c-0.757,0-1.4-0.258-1.933-0.776c-0.533-0.518-0.799-1.155-0.799-1.911c0-0.756,0.266-1.399,0.799-1.932
		c0.531-0.532,1.176-0.799,1.933-0.799c0.756,0,1.393,0.267,1.91,0.799C533.556,52.383,533.814,53.027,533.814,53.783z
		 M533.438,80.411h-4.621V59.915h4.621V80.411z"/>
	<path fill="#010202" d="M556.662,80.411h-4.031v-1.47c-1.849,1.316-3.738,1.974-5.67,1.974c-2.744,0-4.956-0.973-6.637-2.919
		c-1.681-1.945-2.521-4.473-2.521-7.581c0-3.22,0.959-5.873,2.877-7.959s4.277-3.129,7.077-3.129c1.482,0,2.912,0.351,4.284,1.05
		V50.044h4.62V80.411L556.662,80.411z M552.043,75.665V64.283c-1.12-0.728-2.324-1.092-3.611-1.092c-1.766,0-3.199,0.63-4.307,1.89
		c-1.106,1.26-1.658,3.011-1.658,5.25c0,2.044,0.518,3.683,1.555,4.914c1.035,1.232,2.337,1.848,3.906,1.848
		C549.241,77.092,550.615,76.617,552.043,75.665z"/>
	<path fill="#010202" d="M579.595,69.911c0,0.252-0.016,0.567-0.042,0.945c-0.028,0.378-0.042,0.608-0.042,0.692h-13.902
		c0,1.456,0.436,2.717,1.302,3.78c1.064,1.26,2.576,1.89,4.537,1.89c1.681,0,3.556-0.518,5.627-1.554l1.597,3.024
		c-2.101,1.484-4.635,2.226-7.603,2.226c-3.137,0-5.6-1.021-7.392-3.065c-1.737-1.933-2.604-4.452-2.604-7.561
		c0-3.22,0.896-5.852,2.688-7.896s4.13-3.066,7.014-3.066c2.772,0,4.935,0.938,6.489,2.814
		C578.817,64.017,579.595,66.607,579.595,69.911z M575.227,68.105c0-1.261-0.268-2.353-0.798-3.276
		c-0.784-1.315-1.975-1.974-3.57-1.974c-1.428,0-2.61,0.482-3.549,1.448c-0.938,0.967-1.505,2.233-1.701,3.802H575.227z"/>
</g>
<g>
	<path fill="#FFFFFF" d="M18.263,165.881H9.814v-14.674h2.553v12.562h5.896L18.263,165.881L18.263,165.881z"/>
	<path fill="#FFFFFF" d="M23.234,151.933c0,0.396-0.136,0.73-0.406,1.002c-0.271,0.271-0.605,0.406-1.001,0.406
		c-0.396,0-0.734-0.136-1.013-0.406c-0.278-0.271-0.418-0.604-0.418-1.002c0-0.396,0.14-0.732,0.418-1.012
		c0.278-0.277,0.616-0.418,1.013-0.418c0.396,0,0.729,0.141,1.001,0.418C23.099,151.2,23.234,151.538,23.234,151.933z
		 M23.037,165.881h-2.42v-10.735h2.42V165.881z"/>
	<path fill="#FFFFFF" d="M35.444,155.146l-4.136,10.735h-2.42l-4.114-10.735h2.53l2.904,8.097l2.882-8.097H35.444z"/>
	<path fill="#FFFFFF" d="M39.932,151.933c0,0.396-0.136,0.73-0.407,1.002c-0.271,0.271-0.604,0.406-1.001,0.406
		c-0.396,0-0.733-0.136-1.012-0.406c-0.279-0.271-0.418-0.604-0.418-1.002c0-0.396,0.139-0.732,0.418-1.012
		c0.278-0.277,0.616-0.418,1.012-0.418c0.396,0,0.729,0.141,1.001,0.418C39.796,151.2,39.932,151.538,39.932,151.933z
		 M39.734,165.881h-2.42v-10.735h2.42V165.881z"/>
	<path fill="#FFFFFF" d="M51.614,165.881h-2.42v-5.874c0-1.423-0.161-2.295-0.483-2.617c-0.323-0.322-0.777-0.483-1.364-0.483
		c-0.748,0-1.548,0.264-2.397,0.792v8.184h-2.421v-10.736h2.112v0.793c1.012-0.732,2.075-1.101,3.19-1.101
		c1.129,0,2.023,0.33,2.684,0.99c0.499,0.498,0.821,1.114,0.968,1.848c0.088,0.44,0.132,1.175,0.132,2.2V165.881z"/>
	<path fill="#FFFFFF" d="M63.626,165.815c0,0.953-0.051,1.656-0.154,2.111c-0.162,0.646-0.477,1.211-0.946,1.694
		c-0.895,0.896-2.164,1.342-3.806,1.342c-1.188,0-2.281-0.233-3.278-0.704c-0.631-0.277-1.063-0.55-1.298-0.812l1.012-1.584
		c1.262,0.718,2.361,1.076,3.301,1.076c0.895,0,1.581-0.209,2.057-0.627s0.715-1.234,0.715-2.453v-0.726
		c-0.88,0.499-1.782,0.748-2.706,0.748c-1.48,0-2.654-0.528-3.52-1.584c-0.821-0.981-1.232-2.215-1.232-3.696
		c0-1.643,0.524-3.014,1.573-4.113c1.048-1.101,2.401-1.649,4.059-1.649c1.306,0,2.714,0.359,4.225,1.078V165.815z M61.228,163.198
		v-5.984c-0.616-0.264-1.239-0.396-1.87-0.396c-0.924,0-1.68,0.334-2.266,1.002c-0.587,0.668-0.88,1.559-0.88,2.674
		c0,1.041,0.267,1.873,0.803,2.497c0.535,0.623,1.206,0.935,2.013,0.935C59.85,163.923,60.583,163.681,61.228,163.198z"/>
	<path fill="#FFFFFF" d="M78.52,165.53c-0.675,0.425-1.511,0.638-2.508,0.638c-1.13,0-1.995-0.301-2.596-0.901
		c-0.381-0.382-0.624-0.865-0.727-1.453c-0.059-0.321-0.088-0.938-0.088-1.848v-4.84h-1.87v-1.98h1.87v-3.014h2.42v3.014h3.168v1.98
		h-3.168v5.061c0,0.631,0.066,1.07,0.198,1.319c0.205,0.411,0.623,0.616,1.254,0.616c0.366,0,0.843-0.096,1.43-0.286L78.52,165.53z"
		/>
	<path fill="#FFFFFF" d="M89.894,165.881h-2.42v-5.874c0-1.423-0.162-2.295-0.483-2.617c-0.323-0.322-0.777-0.483-1.364-0.483
		c-0.748,0-1.548,0.264-2.398,0.792v8.184h-2.42v-15.906h2.42v5.766c0.953-0.602,1.914-0.902,2.882-0.902
		c1.129,0,2.024,0.33,2.685,0.99c0.499,0.498,0.821,1.113,0.968,1.848c0.088,0.44,0.132,1.174,0.132,2.2V165.881z"/>
	<path fill="#FFFFFF" d="M99.332,155.08l-0.55,1.87c-0.206-0.044-0.447-0.066-0.727-0.066c-1.306,0-2.34,0.551-3.102,1.65v7.348
		h-2.42v-10.736h2.111v1.364c0.176-0.278,0.499-0.571,0.968-0.88c0.777-0.527,1.621-0.792,2.53-0.792
		C98.569,154.837,98.965,154.918,99.332,155.08z"/>
	<path fill="#FFFFFF" d="M110.441,160.448c0,1.701-0.499,3.076-1.496,4.125s-2.295,1.572-3.894,1.572
		c-1.54,0-2.791-0.518-3.751-1.552s-1.441-2.387-1.441-4.059c0-1.687,0.499-3.06,1.496-4.114c0.997-1.056,2.295-1.584,3.895-1.584
		c1.54,0,2.79,0.518,3.751,1.551C109.961,157.422,110.441,158.774,110.441,160.448z M108,160.536c0-1.102-0.271-1.991-0.814-2.674
		c-0.543-0.682-1.231-1.022-2.067-1.022c-0.852,0-1.533,0.33-2.047,0.99c-0.513,0.66-0.77,1.532-0.77,2.618
		c0,1.1,0.271,1.99,0.814,2.673c0.542,0.682,1.238,1.022,2.09,1.022c0.88,0,1.564-0.326,2.057-0.979
		C107.754,162.512,108,161.635,108,160.536z"/>
	<path fill="#FFFFFF" d="M121.683,165.881h-2.112v-0.813c-0.982,0.733-2.046,1.101-3.189,1.101c-1.13,0-2.024-0.33-2.685-0.99
		c-0.499-0.497-0.821-1.114-0.968-1.848c-0.088-0.44-0.132-1.174-0.132-2.2v-5.984h2.42v5.854c0,0.732,0.016,1.218,0.044,1.452
		c0.073,0.602,0.26,1.026,0.562,1.274c0.301,0.25,0.729,0.375,1.287,0.375c0.615,0,1.399-0.265,2.354-0.793v-8.162h2.42V165.881
		L121.683,165.881z"/>
	<path fill="#FFFFFF" d="M133.849,165.815c0,0.953-0.051,1.656-0.154,2.111c-0.161,0.646-0.477,1.211-0.945,1.694
		c-0.896,0.896-2.164,1.342-3.807,1.342c-1.188,0-2.28-0.233-3.277-0.704c-0.631-0.277-1.064-0.55-1.298-0.812l1.012-1.584
		c1.261,0.718,2.361,1.076,3.3,1.076c0.896,0,1.581-0.209,2.057-0.627c0.477-0.418,0.716-1.234,0.716-2.453v-0.726
		c-0.881,0.499-1.782,0.748-2.706,0.748c-1.481,0-2.655-0.528-3.521-1.584c-0.821-0.981-1.231-2.215-1.231-3.696
		c0-1.643,0.523-3.014,1.572-4.113c1.048-1.101,2.401-1.649,4.06-1.649c1.305,0,2.713,0.359,4.224,1.078V165.815L133.849,165.815z
		 M131.451,163.198v-5.984c-0.616-0.264-1.239-0.396-1.87-0.396c-0.924,0-1.681,0.334-2.267,1.002
		c-0.587,0.668-0.88,1.559-0.88,2.674c0,1.041,0.268,1.873,0.803,2.497c0.535,0.623,1.206,0.935,2.014,0.935
		C130.073,163.923,130.806,163.681,131.451,163.198z"/>
	<path fill="#FFFFFF" d="M145.751,165.881h-2.42v-5.874c0-1.423-0.162-2.295-0.484-2.617c-0.323-0.322-0.777-0.483-1.364-0.483
		c-0.748,0-1.548,0.264-2.397,0.792v8.184h-2.42v-15.906h2.42v5.766c0.953-0.602,1.914-0.902,2.882-0.902
		c1.129,0,2.024,0.33,2.684,0.99c0.499,0.498,0.821,1.113,0.969,1.848c0.088,0.44,0.132,1.174,0.132,2.2V165.881L145.751,165.881z"
		/>
	<path fill="#FFFFFF" d="M156.245,151.933c0,0.396-0.137,0.73-0.407,1.002c-0.271,0.271-0.605,0.406-1.001,0.406
		c-0.396,0-0.734-0.136-1.012-0.406c-0.279-0.271-0.418-0.604-0.418-1.002c0-0.396,0.139-0.732,0.418-1.012
		c0.277-0.277,0.615-0.418,1.012-0.418c0.396,0,0.729,0.141,1.001,0.418C156.109,151.2,156.245,151.538,156.245,151.933z
		 M156.047,165.881h-2.42v-10.735h2.42V165.881z"/>
	<path fill="#FFFFFF" d="M165.683,165.53c-0.675,0.425-1.511,0.638-2.508,0.638c-1.13,0-1.995-0.301-2.596-0.901
		c-0.381-0.382-0.624-0.865-0.727-1.453c-0.059-0.321-0.088-0.938-0.088-1.848v-4.84h-1.87v-1.98h1.87v-3.014h2.42v3.014h3.168v1.98
		h-3.168v5.061c0,0.631,0.066,1.07,0.198,1.319c0.205,0.411,0.623,0.616,1.254,0.616c0.366,0,0.843-0.096,1.43-0.286L165.683,165.53
		z"/>
</g>
<g>
	<path fill="#FFFFFF" d="M469.605,24.705h-2.684l-1.761-3.916c-0.438-0.982-0.856-1.599-1.254-1.848
		c-0.321-0.19-0.91-0.286-1.76-0.286h-0.616v6.05h-2.509V10.031h3.521c1.289,0,2.179,0.044,2.661,0.132
		c0.881,0.161,1.6,0.521,2.155,1.078c0.793,0.792,1.189,1.774,1.189,2.948c0,0.997-0.295,1.829-0.881,2.497
		c-0.587,0.667-1.38,1.066-2.377,1.198c0.454,0.044,0.889,0.271,1.299,0.683c0.309,0.308,0.727,1.049,1.254,2.222L469.605,24.705z
		 M466.02,14.254c0-0.689-0.184-1.217-0.549-1.584c-0.295-0.293-0.69-0.477-1.188-0.55c-0.249-0.044-0.771-0.066-1.562-0.066h-1.188
		v4.62h0.968c1.408,0,2.361-0.249,2.859-0.748C465.801,15.487,466.02,14.929,466.02,14.254z"/>
	<path fill="#FFFFFF" d="M480.298,19.205c0,0.132-0.007,0.297-0.022,0.495c-0.014,0.198-0.021,0.319-0.021,0.363h-7.282
		c0,0.763,0.228,1.423,0.683,1.979c0.558,0.66,1.35,0.99,2.375,0.99c0.881,0,1.863-0.271,2.949-0.814l0.836,1.584
		c-1.101,0.778-2.428,1.166-3.981,1.166c-1.644,0-2.935-0.535-3.872-1.605c-0.909-1.012-1.364-2.332-1.364-3.96
		c0-1.687,0.469-3.065,1.408-4.137c0.938-1.07,2.163-1.605,3.674-1.605c1.452,0,2.585,0.491,3.397,1.474
		C479.891,16.118,480.298,17.474,480.298,19.205z M478.01,18.258c0-0.66-0.141-1.231-0.418-1.716
		c-0.41-0.689-1.034-1.034-1.87-1.034c-0.748,0-1.368,0.253-1.858,0.76c-0.492,0.506-0.789,1.169-0.892,1.99H478.01z"/>
	<path fill="#FFFFFF" d="M490.372,9.458l-0.924,1.584c-0.514-0.322-1.033-0.484-1.562-0.484c-0.543,0-0.954,0.14-1.231,0.419
		c-0.353,0.352-0.527,1.033-0.527,2.046v0.945h3.256v1.98h-3.256v8.756h-2.422v-8.756h-1.803v-1.98h1.803v-0.924
		c0-1.613,0.367-2.786,1.102-3.52c0.66-0.66,1.577-0.99,2.75-0.99c0.719,0,1.394,0.146,2.023,0.439
		C490.007,9.166,490.271,9.327,490.372,9.458z"/>
	<path fill="#FFFFFF" d="M494.113,24.705h-2.42V8.798h2.42V24.705z"/>
	<path fill="#FFFFFF" d="M506.125,19.205c0,0.132-0.008,0.297-0.021,0.495c-0.014,0.198-0.021,0.319-0.021,0.363H498.8
		c0,0.763,0.229,1.423,0.683,1.979c0.559,0.66,1.35,0.99,2.376,0.99c0.88,0,1.862-0.271,2.948-0.814l0.836,1.584
		c-1.101,0.778-2.428,1.166-3.981,1.166c-1.644,0-2.934-0.535-3.872-1.605c-0.909-1.012-1.363-2.332-1.363-3.96
		c0-1.687,0.469-3.065,1.408-4.137c0.938-1.07,2.161-1.605,3.674-1.605c1.451,0,2.584,0.491,3.397,1.474
		C505.719,16.118,506.125,17.474,506.125,19.205z M503.838,18.258c0-0.66-0.142-1.231-0.418-1.716
		c-0.411-0.689-1.035-1.034-1.871-1.034c-0.748,0-1.367,0.253-1.858,0.76c-0.491,0.506-0.788,1.169-0.892,1.99H503.838z"/>
	<path fill="#FFFFFF" d="M517.235,23.714c-0.161,0.176-0.528,0.396-1.101,0.66c-0.896,0.396-1.841,0.594-2.838,0.594
		c-1.599,0-2.894-0.509-3.884-1.528c-0.989-1.019-1.483-2.344-1.483-3.972c0-1.687,0.526-3.076,1.584-4.169
		c1.056-1.092,2.391-1.639,4.004-1.639c0.909,0,1.752,0.184,2.529,0.55c0.527,0.25,0.872,0.477,1.034,0.683l-0.989,1.518
		c-0.748-0.498-1.556-0.748-2.42-0.748c-0.998,0-1.812,0.374-2.442,1.122c-0.572,0.689-0.858,1.525-0.858,2.508
		c0,1.086,0.282,1.966,0.849,2.64c0.563,0.675,1.346,1.013,2.343,1.013c0.806,0,1.716-0.271,2.728-0.814L517.235,23.714z"/>
	<path fill="#FFFFFF" d="M526.452,24.353c-0.675,0.425-1.511,0.638-2.508,0.638c-1.13,0-1.995-0.301-2.596-0.902
		c-0.382-0.381-0.624-0.865-0.728-1.452c-0.059-0.322-0.088-0.938-0.088-1.848v-4.84h-1.87v-1.98h1.87v-3.014h2.42v3.014h3.168v1.98
		h-3.168v5.06c0,0.631,0.066,1.071,0.198,1.32c0.205,0.411,0.623,0.616,1.254,0.616c0.366,0,0.843-0.096,1.431-0.286L526.452,24.353
		z"/>
	<path fill="#FFFFFF" d="M531.359,10.756c0,0.396-0.137,0.73-0.407,1.001s-0.604,0.407-1.001,0.407
		c-0.396,0-0.733-0.136-1.012-0.407c-0.279-0.271-0.418-0.604-0.418-1.001c0-0.396,0.139-0.733,0.418-1.012
		c0.277-0.278,0.615-0.418,1.012-0.418c0.397,0,0.729,0.14,1.001,0.418C531.223,10.023,531.359,10.361,531.359,10.756z
		 M531.16,24.705h-2.42V13.968h2.42V24.705z"/>
	<path fill="#FFFFFF" d="M543.041,24.705h-2.421v-5.874c0-1.423-0.161-2.295-0.483-2.618c-0.322-0.322-0.777-0.483-1.363-0.483
		c-0.748,0-1.549,0.264-2.397,0.792v8.184h-2.421V13.968h2.111v0.792c1.014-0.732,2.076-1.1,3.19-1.1c1.13,0,2.023,0.33,2.685,0.99
		c0.498,0.498,0.82,1.114,0.967,1.848c0.09,0.44,0.134,1.174,0.134,2.2L543.041,24.705L543.041,24.705z"/>
	<path fill="#FFFFFF" d="M555.053,24.638c0,0.954-0.051,1.657-0.154,2.112c-0.161,0.646-0.477,1.21-0.945,1.694
		c-0.895,0.895-2.164,1.342-3.807,1.342c-1.188,0-2.28-0.234-3.277-0.704c-0.631-0.278-1.063-0.55-1.299-0.813l1.014-1.584
		c1.261,0.718,2.36,1.077,3.3,1.077c0.895,0,1.58-0.209,2.057-0.627c0.478-0.418,0.715-1.235,0.715-2.453v-0.726
		c-0.879,0.499-1.78,0.748-2.705,0.748c-1.481,0-2.654-0.528-3.521-1.584c-0.821-0.982-1.231-2.215-1.231-3.696
		c0-1.643,0.523-3.014,1.572-4.113c1.049-1.101,2.402-1.65,4.06-1.65c1.307,0,2.714,0.359,4.225,1.078v9.899H555.053z
		 M552.654,22.021v-5.984c-0.615-0.264-1.237-0.396-1.869-0.396c-0.924,0-1.68,0.334-2.266,1.001
		c-0.588,0.668-0.881,1.559-0.881,2.674c0,1.041,0.268,1.873,0.803,2.497c0.535,0.623,1.207,0.935,2.014,0.935
		C551.276,22.747,552.01,22.504,552.654,22.021z"/>
	<path fill="#FFFFFF" d="M566.053,10.031l-6.71,18.084l-1.85-0.683l6.711-18.084L566.053,10.031z"/>
	<path fill="#FFFFFF" d="M576.524,9.458l-0.924,1.584c-0.514-0.322-1.034-0.484-1.562-0.484c-0.543,0-0.953,0.14-1.231,0.419
		c-0.353,0.352-0.527,1.033-0.527,2.046v0.945h3.256v1.98h-3.256v8.756h-2.421v-8.756h-1.804v-1.98h1.804v-0.924
		c0-1.613,0.366-2.786,1.102-3.52c0.659-0.66,1.575-0.99,2.75-0.99c0.719,0,1.393,0.146,2.022,0.439
		C576.157,9.166,576.422,9.327,576.524,9.458z"/>
	<path fill="#FFFFFF" d="M580.463,10.756c0,0.396-0.138,0.73-0.407,1.001c-0.271,0.271-0.604,0.407-1.001,0.407
		c-0.397,0-0.734-0.136-1.012-0.407c-0.279-0.271-0.418-0.604-0.418-1.001c0-0.396,0.139-0.733,0.418-1.012
		c0.276-0.278,0.614-0.418,1.012-0.418c0.396,0,0.729,0.14,1.001,0.418C580.325,10.023,580.463,10.361,580.463,10.756z
		 M580.265,24.705h-2.42V13.968h2.42V24.705z"/>
	<path fill="#FFFFFF" d="M592.145,24.705h-2.42v-5.874c0-1.423-0.162-2.295-0.484-2.618c-0.321-0.322-0.776-0.483-1.362-0.483
		c-0.748,0-1.55,0.264-2.398,0.792v8.184h-2.42V13.968h2.111v0.792c1.013-0.732,2.075-1.1,3.189-1.1c1.13,0,2.024,0.33,2.686,0.99
		c0.498,0.498,0.819,1.114,0.967,1.848c0.089,0.44,0.133,1.174,0.133,2.2L592.145,24.705L592.145,24.705z"/>
	<path fill="#FFFFFF" d="M597.424,10.756c0,0.396-0.136,0.73-0.406,1.001c-0.271,0.271-0.605,0.407-1.001,0.407
		c-0.396,0-0.733-0.136-1.013-0.407c-0.278-0.271-0.418-0.604-0.418-1.001c0-0.396,0.14-0.733,0.418-1.012
		c0.278-0.278,0.616-0.418,1.013-0.418c0.396,0,0.729,0.14,1.001,0.418C597.289,10.022,597.424,10.361,597.424,10.756z
		 M597.227,24.705h-2.42V13.968h2.42V24.705z"/>
	<path fill="#FFFFFF" d="M607.258,21.625c0,1.042-0.381,1.863-1.145,2.464c-0.763,0.602-1.745,0.902-2.947,0.902
		c-0.969,0-1.893-0.176-2.771-0.528c-0.543-0.22-0.924-0.425-1.145-0.616l0.857-1.584c1.07,0.558,2.009,0.836,2.815,0.836
		c0.602,0,1.062-0.124,1.387-0.374c0.322-0.249,0.484-0.564,0.484-0.945c0-0.382-0.206-0.696-0.617-0.946
		c-0.19-0.132-0.755-0.396-1.693-0.792c-0.865-0.366-1.488-0.711-1.87-1.034c-0.646-0.557-0.968-1.269-0.968-2.134
		c0-0.968,0.366-1.745,1.1-2.332c0.733-0.586,1.694-0.88,2.884-0.88c1.51,0,2.668,0.322,3.476,0.968l-0.837,1.54
		c-0.85-0.483-1.679-0.726-2.485-0.726c-1.144,0-1.716,0.403-1.716,1.21c0,0.352,0.185,0.652,0.55,0.901
		c0.221,0.147,0.675,0.367,1.364,0.66c1.085,0.455,1.818,0.836,2.199,1.145C606.898,19.93,607.258,20.686,607.258,21.625z"/>
	<path fill="#FFFFFF" d="M618.852,24.705h-2.42v-5.874c0-1.423-0.161-2.295-0.484-2.618c-0.322-0.322-0.776-0.483-1.362-0.483
		c-0.748,0-1.549,0.264-2.398,0.792v8.184h-2.42V8.798h2.42v5.765c0.953-0.602,1.914-0.902,2.883-0.902
		c1.129,0,2.023,0.33,2.685,0.99c0.498,0.498,0.82,1.114,0.968,1.848c0.089,0.44,0.132,1.174,0.132,2.2v6.006H618.852z"/>
	<path fill="#FFFFFF" d="M624.109,10.756c0,0.396-0.136,0.73-0.406,1.001s-0.604,0.407-1.002,0.407
		c-0.396,0-0.732-0.136-1.012-0.407s-0.418-0.604-0.418-1.001c0-0.396,0.139-0.733,0.418-1.012c0.278-0.278,0.616-0.418,1.012-0.418
		c0.396,0,0.73,0.14,1.002,0.418C623.974,10.023,624.109,10.361,624.109,10.756z M623.911,24.705h-2.42V13.968h2.42V24.705z"/>
	<path fill="#FFFFFF" d="M635.791,24.705h-2.421v-5.874c0-1.423-0.16-2.295-0.483-2.618c-0.322-0.322-0.777-0.483-1.363-0.483
		c-0.748,0-1.548,0.264-2.397,0.792v8.184h-2.421V13.968h2.112v0.792c1.013-0.732,2.075-1.1,3.19-1.1c1.129,0,2.022,0.33,2.684,0.99
		c0.498,0.498,0.821,1.114,0.968,1.848c0.09,0.44,0.133,1.174,0.133,2.2L635.791,24.705L635.791,24.705z"/>
	<path fill="#FFFFFF" d="M647.803,24.638c0,0.954-0.051,1.657-0.153,2.112c-0.161,0.646-0.477,1.21-0.946,1.694
		c-0.895,0.895-2.163,1.342-3.806,1.342c-1.188,0-2.28-0.234-3.278-0.704c-0.631-0.278-1.062-0.55-1.298-0.813l1.013-1.584
		c1.262,0.718,2.361,1.077,3.3,1.077c0.895,0,1.581-0.209,2.058-0.627s0.715-1.235,0.715-2.453v-0.726
		c-0.88,0.499-1.781,0.748-2.706,0.748c-1.48,0-2.653-0.528-3.52-1.584c-0.822-0.982-1.232-2.215-1.232-3.696
		c0-1.643,0.524-3.014,1.573-4.113c1.048-1.101,2.401-1.65,4.06-1.65c1.306,0,2.714,0.359,4.224,1.078v9.899H647.803z
		 M645.405,22.021v-5.984c-0.616-0.264-1.238-0.396-1.87-0.396c-0.924,0-1.68,0.334-2.266,1.001c-0.587,0.668-0.88,1.559-0.88,2.674
		c0,1.041,0.267,1.873,0.803,2.497c0.535,0.623,1.206,0.935,2.013,0.935C644.027,22.747,644.76,22.504,645.405,22.021z"/>
</g>
<linearGradient id="SVGID_1_" gradientUnits="userSpaceOnUse" x1="10.6487" y1="89.4395" x2="645.6448" y2="89.4395">
	<stop  offset="0" style="stop-color:#E43624"/>
	<stop  offset="1" style="stop-color:#4FAC3E"/>
</linearGradient>
<path fill="url(#SVGID_1_)" d="M576.844,170.403c-112.17,0.007-216.765-46.947-371.881-135.247
	C170.607,15.6,121.208,14.859,85.813,17.684c-41.174,3.285-72.402,11.716-72.66,11.796l-2.505-7.598
	c1.18-0.393,127.824-33.782,198.272,6.322C393.444,133.243,505.667,179.28,644.365,156.806l1.279,7.896
	C622.106,168.517,599.312,170.401,576.844,170.403z"/>
</svg>
