<?xml version="1.0" encoding="utf-8"?>
<!-- Generator: Adobe Illustrator 16.0.4, SVG Export Plug-In . SVG Version: 6.00 Build 0)  -->
<!DOCTYPE svg PUBLIC "-//W3C//DTD SVG 1.1//EN" "http://www.w3.org/Graphics/SVG/1.1/DTD/svg11.dtd">
<svg version="1.1" id="Layer_1" xmlns="http://www.w3.org/2000/svg" xmlns:xlink="http://www.w3.org/1999/xlink" x="0px" y="0px"
	 width="864.859px" height="367.244px" viewBox="0 0 864.859 367.244" enable-background="new 0 0 864.859 367.244"
	 xml:space="preserve">
<rect fill="#7F8080" width="864.859" height="124.142"/>
<rect x="0" y="123.192" fill="#294920" width="864.86" height="243.693"/>
<g>
	<g>
		<path fill="#6E482B" d="M380.835,142.838c0,0,2.118-0.317,2.277-2.012c0.158-1.695,0.37-7.36-0.424-8.154
			c-0.793-0.794-2.752-1.906-2.858-2.171c-0.106-0.264-1.112-3.07-1.112-3.07h0.423c0,0,1.475,2.647,1.849,2.912
			c0.375,0.265,2.281,1.271,2.652,1.165c0.37-0.106-0.954-2.647-0.954-2.647v-2.965h0.372c0,0,0,2.752,0.264,3.018
			c0.266,0.264,1.324,2.476,1.854,2.19c0.528-0.284,4.077-4.415,4.077-4.415l0.423,0.371c0,0-3.283,3.8-3.176,4.043
			c0.105,0.246,4.182,0.351,4.182,0.351l3.177-2.383l0.211,0.371c0,0-2.912,2.647-3.283,2.753c-0.371,0.106-3.918,0.318-4.023,0.582
			c-0.107,0.266-0.025,7.352,0.079,7.963c0.194,1.144,2.251,2.098,2.251,2.098S385.389,142.255,380.835,142.838z"/>
		<path fill="#80563E" d="M383.209,132.65c0,0,0.54,0.969,0.54,3.264c0,2.295,0.045,5.896-0.844,6.346c0,0,1.688-0.271,2.362-0.237
			l-0.573-10.16C384.694,131.864,383.728,132.629,383.209,132.65z"/>
	</g>
	<g>
		<g>
			<path fill="#96C33B" d="M371.757,127.589c0,0,0.977,2.7,3.942,2.065c2.925-0.627,3.528-2.367,3.528-2.367
				s1.479,1.536,4.151,0.854c2.673-0.682,3.355-2.56,3.355-2.56s-0.191,2.282,2.093,3.331c2.286,1.049,3.821,0.423,3.821,0.423
				s-0.284,1.978,2.729,2.638c3.014,0.66,5.415-2.524,4.902-5.31c-0.511-2.787-2.74-3.868-2.74-3.868s2.252-1.901,0.943-4.817
				c-1.308-2.917-4.185-2.519-4.185-2.519s1.205-2.644-0.796-4.777c-2.079-2.216-4.492-1.456-5.231-1.286
				c0,0-1.118-3.38-5.265-2.524c-3.653,0.754-4.061,4.062-3.379,5.597c0,0-3.994-0.284-5.174,2.763
				c-1.505,3.885,1.422,6.027,1.422,6.027S369.875,122.083,371.757,127.589z"/>
			<path fill="#A9CA4B" d="M381.014,109.485c0.198-0.617,1.756-1.586,3.41-1.586c1.654,0,3.105,1.992,3.241,2.43
				c0,0,1.856-0.505,3.477,0c1.619,0.507,2.768,3.242,2.564,4.557c-0.203,1.316-1.721,1.181-1.653,0s-0.574-2.835-1.822-3.308
				c-1.249-0.472-2.667,0.304-3.342-0.742c-0.675-1.047-1.991-1.755-3.105-1.519C382.668,109.554,380.711,110.431,381.014,109.485z"
				/>
		</g>
		<g>
			<path fill="#A8CB58" d="M392.106,129.492c0,0-0.69,1.906-2.785,1.458c-2.066-0.442-2.492-1.67-2.492-1.67
				s-1.044,1.083-2.932,0.603c-1.888-0.482-2.369-1.808-2.369-1.808s0.135,1.611-1.479,2.352c-1.614,0.741-2.698,0.299-2.698,0.299
				s0.201,1.396-1.928,1.862c-2.128,0.467-3.824-1.782-3.462-3.75c0.361-1.967,1.935-2.73,1.935-2.73s-1.589-1.343-0.666-3.402
				c0.924-2.059,2.956-1.778,2.956-1.778s-0.851-1.867,0.562-3.374c1.468-1.566,3.172-1.028,3.694-0.908c0,0,0.79-2.387,3.718-1.783
				c2.58,0.533,2.869,2.868,2.387,3.953c0,0,2.821-0.201,3.655,1.951c1.062,2.744-1.005,4.257-1.005,4.257
				S393.435,125.603,392.106,129.492z"/>
			<path fill="#B5D060" d="M385.567,116.708c-0.14-0.436-1.24-1.121-2.408-1.121c-1.167,0-2.192,1.406-2.288,1.716
				c0,0-1.311-0.357-2.455,0c-1.145,0.357-1.955,2.289-1.812,3.218c0.143,0.929,1.216,0.834,1.169,0
				c-0.049-0.834,0.405-2.002,1.287-2.336c0.881-0.333,1.883,0.214,2.359-0.525c0.477-0.738,1.406-1.239,2.194-1.072
				C384.399,116.755,385.782,117.375,385.567,116.708z"/>
		</g>
	</g>
</g>
<g>
	<path fill="#282828" d="M482.674,366.999c18.367-21.768,32.463-72.099,12.055-99.31c-25.171-34.014-58.313-52.391-93.007-76.2
		c-17.007-11.564-51.021-46.939-47.619-67.347h-16.327c-6.803,13.605-3.401,38.095,0.681,51.701
		c6.803,21.769,27.891,38.775,42.177,55.103c14.286,16.326,34.694,29.251,42.177,50.34c6.122,16.326,3.401,36.734-4.762,51.7
		c-4.082,9.525-11.564,27.893-21.089,32.654L482.674,366.999z"/>
</g>
<g>
	<g>
		<path fill="#E5C927" d="M443.12,363.036c7.47-3.271,11.663-10.746,17.513-16.037c2.396-2.168-1.15-5.693-3.535-3.535
			c-5.517,4.988-9.475,12.178-16.501,15.256C437.649,360.009,440.197,364.315,443.12,363.036L443.12,363.036z"/>
	</g>
</g>
<g>
	<g>
		<path fill="#E5C927" d="M466.929,317.795c3.981-6.763,1.2-13.591,0.988-20.863c-0.084-2.896-4.585-2.903-4.5,0
			c0.181,6.206,3.014,12.838-0.373,18.592C461.569,318.03,465.458,320.293,466.929,317.795L466.929,317.795z"/>
	</g>
</g>
<g>
	<g>
		<path fill="#E5C927" d="M453.991,267.829c-1.242-5.984-6.204-11.955-10.719-15.849c-1.942-1.676-4.785,1.141-2.828,2.828
			c4.032,3.479,8.577,8.724,9.689,14.084C450.658,271.417,454.513,270.346,453.991,267.829L453.991,267.829z"/>
	</g>
</g>
<g>
	<g>
		<path fill="#E5C927" d="M416.891,232.155c-6.975-3.643-12.501-9.25-17.333-15.373c-1.397-1.771-3.856,0.724-2.475,2.475
			c5.005,6.344,10.82,12.148,18.041,15.92C417.122,236.221,418.892,233.2,416.891,232.155L416.891,232.155z"/>
	</g>
</g>
<g>
	<g>
		<path fill="#E5C927" d="M379.476,200.81c-5.294-5.374-10-11.297-15.646-16.327c-1.199-1.068-2.974,0.693-1.768,1.768
			c5.646,5.03,10.352,10.953,15.646,16.327C378.841,203.727,380.608,201.958,379.476,200.81L379.476,200.81z"/>
	</g>
</g>
<g>
	<g>
		<path fill="#E5C927" d="M353.39,167.301c-1.947-4.294-1.383-9.607-4.082-13.605c-0.538-0.797-1.838-0.047-1.295,0.757
			c2.669,3.955,2.142,9.329,4.082,13.605C352.494,168.938,353.787,168.175,353.39,167.301L353.39,167.301z"/>
	</g>
</g>
<g>
	<g>
		<path fill="#E5C927" d="M345.509,139.108c0-2.721,0-5.442,0-8.164c0-0.322-0.5-0.322-0.5,0c0,2.721,0,5.442,0,8.164
			C345.009,139.431,345.509,139.431,345.509,139.108L345.509,139.108z"/>
	</g>
</g>
<g>
	<rect x="577.396" y="223.042" fill="#727272" width="5.28" height="43.992"/>
	<rect x="505.501" y="223.042" fill="#727272" width="5.279" height="43.992"/>
	<path fill-rule="evenodd" clip-rule="evenodd" fill="#FFFFFF" d="M589.182,148.153c2.856,0,5.212,2.383,5.212,5.238v65.389
		c0,2.886-2.355,5.239-5.212,5.239h-92.993c-2.854,0-5.208-2.354-5.208-5.239v-65.389c0-2.855,2.354-5.238,5.208-5.238H589.182"/>
	<path fill-rule="evenodd" clip-rule="evenodd" fill="#0A72B8" d="M589.182,148.384c2.701,0,4.979,2.292,4.979,5.008v65.388
		c0,2.761-2.233,5.006-4.979,5.006h-92.993c-2.744,0-4.979-2.245-4.979-5.006v-65.388c0-2.716,2.281-5.008,4.979-5.008H589.182
		 M589.182,147.921h-92.993c-2.948,0-5.44,2.505-5.44,5.471v65.388c0,3.019,2.443,5.47,5.44,5.47h92.993
		c3.001,0,5.441-2.451,5.441-5.47v-65.388C594.623,150.375,592.183,147.921,589.182,147.921"/>
	<path fill-rule="evenodd" clip-rule="evenodd" fill="#0A72B8" d="M589.182,150.743c1.414,0,2.622,1.176,2.622,2.618v65.479
		c0,1.441-1.208,2.647-2.622,2.647H496.16c-1.443,0-2.589-1.206-2.589-2.647V153.36c0-1.442,1.146-2.618,2.589-2.618H589.182"/>
	<rect x="485.205" y="145.3" fill="none" width="115.972" height="84.716"/>
	<g>
		<path fill="#FFFFFF" d="M520.714,154.592h0.353h0.163h0.189h0.163h0.136h0.163h0.108h0.488h0.299h0.108h0.109h0.108h0.108h0.462
			h0.217h0.19l0.026,0.136l0.055,0.136l0.108,0.461l0.027,0.109l0.027,0.081l0.081,0.271v0.109c0.023,0.018,0.031,0.036,0.027,0.054
			l0.027,0.082l0.136,0.488v0.082l0.054,0.217l0.055,0.217c0.055,0.127,0.091,0.235,0.108,0.326l0.027,0.163l0.027,0.136
			l0.162,0.516l0.027,0.163l0.027,0.136l0.027,0.109l0.054,0.217l0.055,0.217l0.081,0.19v0.109l0.055,0.163l0.055,0.136v0.109
			l0.054,0.136l0.027,0.19l0.055,0.163l0.026,0.109l0.082,0.271l0.027,0.136l0.026,0.054l0.027,0.136l0.027,0.163
			c0.018,0.027,0.027,0.055,0.027,0.082c0.085,0.249,0.14,0.457,0.163,0.625c0.026,0.059,0.063,0.095,0.108,0.108l0.027-0.136
			l0.054-0.136l0.027-0.108l0.027-0.082l0.027-0.136l0.026-0.082l0.027-0.081l0.027-0.217l0.027-0.054l0.108-0.38l0.055-0.19
			l0.054-0.217v-0.081l0.055-0.217c0.045-0.104,0.071-0.212,0.081-0.326l0.027-0.054l0.027-0.082l0.026-0.054
			c0.023-0.172,0.059-0.317,0.109-0.435v-0.082l0.054-0.217l0.055-0.19l0.027-0.054v-0.082l0.054-0.217l0.055-0.19l0.054-0.19
			l0.027-0.108l0.027-0.054l0.055-0.245l0.026-0.081l0.027-0.109l0.163-0.625l0.027-0.163c0.041-0.108,0.067-0.208,0.081-0.299
			l0.027-0.108l0.027-0.082l0.027-0.082l0.026-0.081v-0.082l0.027-0.108l0.055-0.136l0.027-0.082v-0.109l0.026-0.081l0.027-0.055
			l0.082-0.326h0.108h0.081h0.489h0.353h0.108h0.462h0.217h0.19h0.136h0.353h0.108h0.462h0.217h0.19v14.578h-0.38h-0.082h-0.488
			h-0.354h-0.108h-0.461h-0.082h-0.325v-0.842v-0.38v-0.082v-0.136v-0.082v-0.108v-0.082v-0.543v-0.19v-0.081v-0.136v-0.082v-0.109
			v-0.081v-0.543v-0.109v-0.488v-0.163v-0.19v-0.543v-0.217v-0.217v-0.217v-0.217v-0.543v-0.082v-0.082v-0.841v-0.19v-0.163v-0.19
			v-0.163v-0.136v-0.163v-0.108v-0.489v-0.299v-0.108v-0.108v-0.109v-0.108v-0.461v-0.082v-0.326v-0.082v-0.108v-0.462v-0.081
			v-0.326c-0.068-0.073-0.104-0.046-0.108,0.081l-0.082,0.19l-0.027,0.136l-0.054,0.19v0.081l-0.136,0.516l-0.163,0.624l-0.055,0.19
			l-0.271,1.031l-0.081,0.353l-0.027,0.082l-0.054,0.19l-0.136,0.597l-0.082,0.19l-0.027,0.19l-0.054,0.136l-0.027,0.163
			l-0.027,0.108l-0.054,0.217l-0.027,0.054c-0.031,0.195-0.077,0.358-0.136,0.489l-0.027,0.163l-0.081,0.38l-0.027,0.054
			l-0.027,0.054c-0.023,0.136-0.05,0.245-0.081,0.326l-0.027,0.082v0.082l-0.082,0.298l-0.026,0.082l-0.027,0.082l-0.108,0.461
			l-0.055,0.217l-0.054,0.19h-0.299h-0.136h-0.354h-0.108h-0.461h-0.082h-0.325l-0.082-0.353l-0.027-0.082l-0.026-0.081
			l-0.027-0.082v-0.108l-0.055-0.082v-0.109c-0.022-0.018-0.031-0.036-0.027-0.054l-0.108-0.434l-0.136-0.461l-0.027-0.19
			l-0.026-0.136c-0.018-0.027-0.027-0.054-0.027-0.081l-0.027-0.109l-0.054-0.19l-0.136-0.489l-0.027-0.19
			c-0.018-0.027-0.027-0.054-0.027-0.082c-0.068-0.181-0.112-0.334-0.136-0.461v-0.081c-0.063-0.141-0.1-0.276-0.108-0.407
			l-0.055-0.163l-0.027-0.082v-0.082c-0.018-0.027-0.026-0.054-0.026-0.081c-0.086-0.249-0.141-0.457-0.163-0.625l-0.108-0.38
			l-0.027-0.163l-0.027-0.108c-0.05-0.1-0.077-0.19-0.081-0.271c-0.045-0.145-0.072-0.271-0.082-0.38
			c-0.045-0.072-0.071-0.145-0.081-0.217l-0.027-0.082v-0.082c-0.059-0.172-0.095-0.317-0.108-0.434
			c-0.126-0.389-0.208-0.706-0.244-0.95l-0.082,0.027v11.7h-0.081h-0.354h-0.026h0.026h-0.054h0.027h-0.055h0.027h-0.055h0.027
			h-0.054h0.026h-0.054h0.027h-0.055h0.027h-0.055h0.027h-0.055h0.027h-0.055h0.027h-0.054h0.026h-0.054h0.027h-0.055h0.027h-0.055
			h0.027h-0.054h0.026h-0.054h0.027h-0.055h0.027h-0.055h0.027h-0.055h0.027h-0.054h0.026h-0.054h0.027h-0.055h0.027h-0.055h0.027
			h-0.055h0.027H521.8h0.026h-0.054h0.027h-0.055h0.027h-0.055h0.027h-0.055h0.027h-0.054h0.026h-0.054h0.027h-0.055h0.027h-0.055
			h0.027h-0.055h0.027h-0.054h0.026h-0.054h0.027h-0.055h0.027h-0.055h0.027h-0.055h0.027h-0.054h0.026h-0.054h0.027h-0.055h0.027
			h-0.055h0.027h-0.055h0.027h-0.054h0.026h-0.054h0.027h-0.055h0.027h-0.055h0.027h-0.055h0.027h-0.054h0.026h-0.054h0.027h-0.055
			h0.027h-0.055h0.027h-0.055h0.027h-0.054h0.026h-0.054h0.027h-0.055h0.027h-0.055h0.027h-0.055h0.027h-0.054h0.026h-0.054h0.027
			h-0.055h0.027h-0.055h0.027h-0.055h0.027h-0.054h0.026h-0.054h0.027h-0.055h0.027h-0.055h0.027h-0.027v-0.082v-0.108v-0.489
			v-0.217v-0.217v-0.081v-0.082v-0.136v-0.082v-0.108v-0.082v-0.543v-0.082v-0.108v-0.461v-0.082v-0.326v-0.109v-0.298v-0.136
			v-0.082v-0.108v-0.082v-0.543v-0.217v-0.298v-0.109v-0.081v-0.136v-0.082v-0.109v-0.081v-0.543v-0.082v-0.543v-0.38v-0.082v-0.136
			v-0.082v-0.108v-0.082v-0.543v-0.19v-0.082v-0.108v-0.489v-0.38v-0.082v-0.136v-0.082v-0.108v-0.082v-0.543v-0.461v-0.082v-0.326
			v-0.353v-0.108v-0.461v-0.082v-0.326v-0.299v-0.136v-0.353v-0.109v-0.461v-0.082v-0.326H520.714z"/>
		<path fill="#FFFFFF" d="M538.603,154.538h0.108h0.489h0.299h0.108h0.108h0.108h0.108h0.462h0.217h0.19l-0.082,0.19l-0.081,0.163
			l-0.055,0.082l-0.081,0.19l-0.055,0.082l-0.026,0.054l-0.027,0.082l-0.244,0.434l-0.027,0.082l-0.055,0.108l-0.162,0.271
			l-0.082,0.19l-0.027,0.054l-0.026,0.082l-0.245,0.435l-0.054,0.136l-0.218,0.38l-0.054,0.163l-0.055,0.054
			c-0.05,0.141-0.095,0.249-0.136,0.326l-0.054,0.082l-0.027,0.054c-0.077,0.127-0.132,0.235-0.163,0.326
			c-0.055,0.09-0.091,0.163-0.108,0.217l-0.055,0.082l-0.054,0.136l-0.055,0.054c-0.05,0.141-0.095,0.249-0.136,0.326l-0.055,0.054
			l-0.026,0.082c-0.078,0.127-0.132,0.235-0.163,0.326l0.108,0.027c0.978-0.543,1.937-0.616,2.878-0.217
			c0.927,0.421,1.523,1.072,1.791,1.955l0.027,0.163l0.027,0.19v0.081c0.041,0.208,0.05,0.389,0.027,0.543v4.181l-0.027,0.082
			l-0.027,0.163l-0.027,0.19l-0.081,0.299c-0.23,0.538-0.547,0.964-0.95,1.276c-1.258,0.792-2.542,0.973-3.854,0.543
			c-1.29-0.358-2.05-1.154-2.28-2.389v-0.081c-0.018-0.195-0.018-0.358,0-0.489v-0.082v-0.841v-0.109v-0.461v-0.082v-0.326v-0.108
			v-0.082v-0.108v-0.489v-0.299v-0.136v-0.081v-0.109v-0.081v-0.543v-0.109v-0.082v-0.488v-0.461v-0.217v-0.082v-0.353v-0.136
			l0.027-0.19v-0.082l0.026-0.054l0.055-0.461l0.027-0.082l0.026-0.081l0.245-0.788c0.085-0.212,0.176-0.385,0.271-0.516
			l0.026-0.054l0.027-0.082l0.027-0.082c0.077-0.127,0.132-0.235,0.163-0.326l0.217-0.38l0.326-0.679l0.054-0.109l0.055-0.081
			l0.271-0.57l0.081-0.108l0.027-0.109l0.163-0.298l0.027-0.082l0.054-0.082l0.027-0.081l0.055-0.055
			c0.026-0.095,0.054-0.167,0.081-0.217l0.163-0.299H538.603z M538.06,161.84l-0.027,0.19c-0.04,0.141-0.058,0.267-0.054,0.38v3.149
			c-0.01,0.385,0.018,0.701,0.081,0.95c0.539,0.891,1.245,1.09,2.118,0.597c0.018-0.032,0.036-0.05,0.054-0.055
			c0.018-0.032,0.037-0.049,0.055-0.054c0.018-0.032,0.036-0.049,0.054-0.054l0.271-0.407l0.082-0.434v-0.163v-0.19v-0.163v-0.19
			v-0.163v-0.461v-0.163v-0.136v-0.163v-0.108v-0.489v-0.298v-0.109v-0.108v-0.109v-0.108v-0.461v-0.082v-0.326
			c-0.249-0.778-0.757-1.158-1.521-1.14C538.644,161.112,538.273,161.401,538.06,161.84z"/>
		<path fill="#FFFFFF" d="M549.651,154.538h0.108h0.488h0.299h0.108h0.109h0.108h0.108h0.462h0.217h0.189l-0.081,0.19l-0.081,0.163
			l-0.055,0.082l-0.081,0.19l-0.055,0.082l-0.027,0.054l-0.026,0.082l-0.245,0.434l-0.026,0.082l-0.055,0.108l-0.163,0.271
			l-0.081,0.19l-0.027,0.054l-0.027,0.082l-0.244,0.435l-0.055,0.136l-0.217,0.38l-0.055,0.163l-0.054,0.054
			c-0.051,0.141-0.095,0.249-0.136,0.326l-0.055,0.082l-0.027,0.054c-0.077,0.127-0.131,0.235-0.162,0.326
			c-0.055,0.09-0.091,0.163-0.109,0.217l-0.054,0.082l-0.055,0.136l-0.054,0.054c-0.051,0.141-0.096,0.249-0.136,0.326l-0.055,0.054
			l-0.027,0.082c-0.077,0.127-0.131,0.235-0.162,0.326l0.108,0.027c0.977-0.543,1.937-0.616,2.877-0.217
			c0.928,0.421,1.524,1.072,1.792,1.955l0.027,0.163l0.027,0.19v0.081c0.04,0.208,0.05,0.389,0.026,0.543v4.181l-0.026,0.082
			l-0.027,0.163l-0.027,0.19l-0.082,0.299c-0.23,0.538-0.547,0.964-0.949,1.276c-1.259,0.792-2.543,0.973-3.855,0.543
			c-1.289-0.358-2.049-1.154-2.28-2.389v-0.081c-0.018-0.195-0.018-0.358,0-0.489v-0.082v-0.841v-0.109v-0.461v-0.082v-0.326v-0.108
			v-0.082v-0.108v-0.489v-0.299v-0.136v-0.081v-0.109v-0.081v-0.543v-0.109v-0.082v-0.488v-0.461v-0.217v-0.082v-0.353v-0.136
			l0.027-0.19v-0.082l0.027-0.054l0.055-0.461l0.026-0.082l0.027-0.081l0.244-0.788c0.086-0.212,0.177-0.385,0.271-0.516
			l0.027-0.054l0.027-0.082l0.027-0.082c0.077-0.127,0.131-0.235,0.162-0.326l0.218-0.38l0.325-0.679l0.055-0.109l0.055-0.081
			l0.271-0.57l0.081-0.108l0.027-0.109l0.163-0.298l0.026-0.082l0.055-0.082l0.027-0.081l0.054-0.055
			c0.027-0.095,0.055-0.167,0.082-0.217l0.162-0.299H549.651z M549.108,161.84l-0.027,0.19c-0.041,0.141-0.059,0.267-0.054,0.38
			v3.149c-0.01,0.385,0.018,0.701,0.081,0.95c0.539,0.891,1.244,1.09,2.117,0.597c0.018-0.032,0.037-0.05,0.055-0.055
			c0.018-0.032,0.036-0.049,0.054-0.054c0.018-0.032,0.037-0.049,0.055-0.054l0.271-0.407l0.081-0.434v-0.163v-0.19v-0.163v-0.19
			v-0.163v-0.461v-0.163v-0.136v-0.163v-0.108v-0.489v-0.298v-0.109v-0.108v-0.109v-0.108v-0.461v-0.082v-0.326
			c-0.248-0.778-0.756-1.158-1.52-1.14C549.692,161.112,549.321,161.401,549.108,161.84z"/>
		<path fill="#FFFFFF" d="M560.7,154.538h0.108h0.488h0.299h0.108h0.108h0.108h0.109h0.461h0.217h0.19l-0.081,0.19l-0.082,0.163
			l-0.054,0.082l-0.082,0.19l-0.054,0.082l-0.027,0.054l-0.027,0.082l-0.244,0.434l-0.027,0.082l-0.054,0.108l-0.163,0.271
			l-0.082,0.19l-0.026,0.054l-0.027,0.082l-0.244,0.435l-0.055,0.136l-0.217,0.38l-0.055,0.163l-0.055,0.054
			c-0.05,0.141-0.095,0.249-0.136,0.326l-0.054,0.082l-0.027,0.054c-0.077,0.127-0.132,0.235-0.163,0.326
			c-0.054,0.09-0.091,0.163-0.108,0.217l-0.054,0.082l-0.055,0.136l-0.055,0.054c-0.05,0.141-0.095,0.249-0.136,0.326l-0.054,0.054
			l-0.027,0.082c-0.077,0.127-0.132,0.235-0.163,0.326l0.108,0.027c0.978-0.543,1.938-0.616,2.878-0.217
			c0.927,0.421,1.524,1.072,1.792,1.955l0.026,0.163l0.027,0.19v0.081c0.041,0.208,0.051,0.389,0.027,0.543v4.181l-0.027,0.082
			l-0.027,0.163l-0.026,0.19l-0.082,0.299c-0.23,0.538-0.547,0.964-0.95,1.276c-1.258,0.792-2.542,0.973-3.854,0.543
			c-1.289-0.358-2.05-1.154-2.28-2.389v-0.081c-0.018-0.195-0.018-0.358,0-0.489v-0.082v-0.841v-0.109v-0.461v-0.082v-0.326v-0.108
			v-0.082v-0.108v-0.489v-0.299v-0.136v-0.081v-0.109v-0.081v-0.543v-0.109v-0.082v-0.488v-0.461v-0.217v-0.082v-0.353v-0.136
			l0.027-0.19v-0.082l0.027-0.054l0.054-0.461l0.027-0.082l0.027-0.081l0.244-0.788c0.085-0.212,0.177-0.385,0.271-0.516
			l0.027-0.054l0.026-0.082l0.027-0.082c0.077-0.127,0.132-0.235,0.163-0.326l0.217-0.38l0.326-0.679l0.055-0.109l0.054-0.081
			l0.271-0.57l0.082-0.108l0.026-0.109l0.163-0.298l0.027-0.082l0.055-0.082l0.026-0.081l0.055-0.055
			c0.027-0.095,0.055-0.167,0.081-0.217l0.163-0.299H560.7z M560.157,161.84l-0.027,0.19c-0.041,0.141-0.059,0.267-0.055,0.38v3.149
			c-0.01,0.385,0.018,0.701,0.082,0.95c0.538,0.891,1.244,1.09,2.117,0.597c0.018-0.032,0.036-0.05,0.054-0.055
			c0.018-0.032,0.037-0.049,0.055-0.054c0.018-0.032,0.036-0.049,0.055-0.054l0.271-0.407l0.082-0.434v-0.163v-0.19v-0.163v-0.19
			v-0.163v-0.461v-0.163v-0.136v-0.163v-0.108v-0.489v-0.298v-0.109v-0.108v-0.109v-0.108v-0.461v-0.082v-0.326
			c-0.248-0.778-0.756-1.158-1.521-1.14C560.74,161.112,560.37,161.401,560.157,161.84z"/>
	</g>
	<g>
		<path fill="#FFFFFF" d="M510.521,175.269h3.894c0.04,0.009,0.075,0.015,0.106,0.02c0.032,0.004,0.063,0.006,0.094,0.006h0.032
			l0.283,0.051c0.082,0.03,0.156,0.056,0.223,0.078c0.066,0.021,0.131,0.039,0.19,0.052c1.312,0.679,1.967,1.663,1.967,2.953
			c0,0.082-0.004,0.164-0.01,0.249c-0.007,0.083-0.015,0.168-0.023,0.254c-0.438,1.771-1.506,2.655-3.204,2.655
			c-0.09,0-0.182-0.001-0.274-0.005c-0.092-0.004-0.188-0.011-0.286-0.019h-1.264v3.583h-1.728V175.269z M512.223,180.04h1.657
			c0.133,0,0.242,0.009,0.328,0.026c0.018-0.017,0.032-0.026,0.045-0.026h0.007l0.181-0.026l0.154-0.026
			c0.723-0.374,1.083-0.879,1.083-1.515c0-0.21-0.043-0.445-0.129-0.703c-0.198-0.344-0.446-0.61-0.748-0.799
			c-0.146-0.03-0.275-0.073-0.387-0.129h-0.129l-0.154-0.026h-1.908V180.04z"/>
		<path fill="#FFFFFF" d="M518.901,175.346h1.573v3.353c0.563-0.507,1.171-0.761,1.824-0.761c0.095,0,0.19,0.006,0.288,0.017
			c0.096,0.011,0.191,0.026,0.286,0.048c0.898,0.229,1.483,0.744,1.754,1.547l0.025,0.181c0.018,0.047,0.026,0.099,0.026,0.155
			v5.288h-1.573v-4.592l-0.052-0.206v-0.078l-0.077-0.181c-0.069-0.103-0.111-0.189-0.129-0.258
			c-0.229-0.202-0.461-0.339-0.696-0.413c-0.734,0.013-1.26,0.331-1.573,0.954v0.078c-0.022,0.06-0.042,0.116-0.062,0.165
			c-0.019,0.049-0.034,0.098-0.042,0.144v4.386h-1.573V175.346z"/>
		<path fill="#FFFFFF" d="M527.508,175.295h3.637l0.077,0.026h0.077l0.052-0.026h0.104l0.103,0.026h0.078l0.412,0.025l0.129,0.026
			l0.104,0.026l0.052,0.026l0.206,0.052l0.387,0.129l0.258,0.155l0.077,0.025c0.091,0.043,0.159,0.086,0.207,0.129
			c0.029,0.017,0.047,0.035,0.051,0.052c0.159,0.086,0.28,0.164,0.361,0.232c1.113,1.204,1.671,2.532,1.671,3.984
			c0,0.151-0.007,0.302-0.017,0.455c-0.011,0.153-0.029,0.305-0.056,0.461c-0.516,2.707-2,4.061-4.454,4.061
			c-0.064,0-0.129-0.001-0.194-0.003c-0.063-0.002-0.13-0.005-0.199-0.011h-3.121V175.295z M529.21,183.625h2.012l0.077-0.027h0.078
			l0.412-0.052l0.206-0.051c0.073-0.046,0.146-0.084,0.216-0.113c0.072-0.027,0.138-0.05,0.197-0.066
			c0.018-0.031,0.035-0.047,0.052-0.052l0.077-0.027l0.025-0.052l0.078-0.024l0.025-0.052l0.077-0.027
			c0.056-0.082,0.117-0.141,0.181-0.179c0.081-0.113,0.168-0.207,0.258-0.285c0.448-0.829,0.671-1.648,0.671-2.456v-0.097
			c-0.06-1.376-0.584-2.381-1.573-3.018h-0.077c-0.073-0.047-0.146-0.081-0.216-0.103c-0.071-0.021-0.136-0.039-0.197-0.052
			l-0.129-0.025l-0.335-0.052h-2.115V183.625z"/>
		<path fill="#FFFFFF" d="M542.317,175.321h1.702v3.842h4.385v-3.842h1.702v9.852h-1.702v-4.489h-4.385v4.489h-1.702V175.321z"/>
		<path fill="#FFFFFF" d="M553.529,175.295h6.189v1.547h-4.487v2.476c0.004,0.068,0.036,0.103,0.096,0.103h4.004v1.521h-4.1v2.58
			c0,0.086,0.035,0.128,0.103,0.128h4.668v1.523h-6.473V175.295z"/>
		<path fill="#FFFFFF" d="M562.742,175.295h1.702v8.331h3.843v1.52h-5.545V175.295z"/>
		<path fill="#FFFFFF" d="M570.222,175.295h1.701v8.331h3.843v1.52h-5.544V175.295z"/>
	</g>
	<g>
		<path fill="#FFFFFF" d="M505.403,194.822c-0.017,0.028-0.041,0.053-0.073,0.073l-0.122,0.024l-0.098,0.024h-0.098
			c-0.036,0.016-0.078,0.024-0.123,0.024c-0.084,0.033-0.157,0.049-0.22,0.049h-0.024c-0.021,0.017-0.045,0.024-0.073,0.024
			l-0.098,0.024l-0.171,0.024l-0.049,0.024l-0.391,0.073c-0.44-1.16-1.19-1.741-2.254-1.741c-0.248,0-0.523,0.035-0.825,0.104
			c-0.02,0.016-0.044,0.024-0.073,0.024l-0.171,0.073c-0.084,0.045-0.167,0.078-0.244,0.098c-0.017,0.029-0.032,0.045-0.049,0.049
			l-0.073,0.024l-0.073,0.049l-0.049,0.049l-0.073,0.024c-0.077,0.077-0.146,0.145-0.211,0.201c-0.062,0.057-0.123,0.104-0.18,0.141
			l-0.024,0.073l-0.123,0.122l-0.024,0.074l-0.049,0.024c-0.057,0.146-0.122,0.269-0.195,0.366c-0.206,0.696-0.311,1.37-0.311,2.021
			c0,0.518,0.062,1.016,0.188,1.497c0.322,1.209,1.079,1.869,2.272,1.979h0.024c1.309,0,2.146-0.578,2.517-1.734l0.122,0.024
			c0.049,0.016,0.096,0.027,0.141,0.034c0.045,0.005,0.087,0.011,0.128,0.015l0.049,0.024l0.391,0.073l0.098,0.024l0.172,0.024
			l0.439,0.098c-0.578,1.739-1.719,2.691-3.421,2.858c-0.069,0.008-0.138,0.012-0.21,0.012c-0.07,0-0.142,0-0.211,0
			c-1.612,0-2.814-0.664-3.61-1.991c-0.488-1.01-0.732-2.003-0.732-2.98c0-0.672,0.114-1.34,0.342-2.003
			c0.619-1.747,1.783-2.716,3.494-2.907c0.049-0.004,0.098-0.006,0.144-0.006c0.048,0,0.092,0,0.139,0
			C503.424,192.006,504.781,192.945,505.403,194.822z"/>
		<path fill="#FFFFFF" d="M507.108,192.33h1.49v3.176c0.533-0.48,1.108-0.721,1.729-0.721c0.089,0,0.18,0.005,0.271,0.015
			c0.091,0.011,0.182,0.026,0.271,0.046c0.852,0.216,1.405,0.705,1.661,1.466l0.024,0.171c0.017,0.045,0.025,0.094,0.025,0.146
			v5.009h-1.491v-4.349l-0.049-0.196v-0.073l-0.073-0.171c-0.064-0.098-0.105-0.179-0.122-0.245
			c-0.216-0.191-0.436-0.321-0.659-0.391c-0.696,0.012-1.193,0.313-1.49,0.904v0.073c-0.021,0.057-0.04,0.109-0.059,0.156
			c-0.018,0.047-0.031,0.092-0.039,0.137v4.153h-1.49V192.33z"/>
		<path fill="#FFFFFF" d="M518.981,195.53l0.073,0.146c0.191,0.236,0.313,0.48,0.366,0.733c0.017,0.106,0.029,0.205,0.037,0.296
			c0.008,0.092,0.013,0.172,0.013,0.242v3.225c0.15,0.297,0.37,0.476,0.659,0.537l-0.049,0.074
			c-0.017,0.028-0.032,0.044-0.049,0.049l-0.024,0.073l-0.049,0.049c-0.041,0.089-0.09,0.163-0.146,0.22
			c-0.058,0.151-0.131,0.265-0.22,0.342c-0.037,0.081-0.072,0.152-0.104,0.21c-0.034,0.06-0.063,0.111-0.093,0.156
			c-0.476-0.122-0.851-0.342-1.123-0.66H518.2c-0.525,0.379-1.067,0.568-1.625,0.568c-0.302,0-0.599-0.051-0.892-0.153
			c-0.876-0.313-1.405-0.884-1.588-1.71v-0.03c0-1.576,0.923-2.364,2.766-2.364h0.02c0.036-0.017,0.077-0.024,0.122-0.024
			l0.073-0.024h0.171l0.073-0.024h0.073l0.61-0.073c0.009-0.045,0.013-0.086,0.013-0.123v-0.122c0-0.68-0.359-1.02-1.082-1.02
			c-0.499,0-1.187,0.169-2.058,0.507l-0.098-0.22l-0.049-0.146l-0.049-0.049l-0.024-0.049l-0.049-0.146
			c-0.045-0.073-0.077-0.147-0.098-0.22c-0.086-0.114-0.143-0.228-0.171-0.342l0.073-0.024l0.049-0.024l0.073-0.024l0.049-0.049
			h0.073c0.017-0.017,0.03-0.024,0.043-0.024h0.006c0.146-0.078,0.277-0.135,0.391-0.171l0.122-0.024
			c0.09-0.041,0.172-0.065,0.245-0.073l0.195-0.049c0.143-0.057,0.28-0.089,0.415-0.098l0.537-0.098
			c0.082-0.008,0.16-0.015,0.235-0.022c0.076-0.005,0.15-0.009,0.224-0.009C517.847,194.767,518.484,195.021,518.981,195.53z
			 M517.418,198.633h-0.146c-0.037,0.008-0.072,0.015-0.107,0.019c-0.034,0.004-0.067,0.006-0.101,0.006h-0.036l-0.098,0.024h-0.073
			c-0.021,0.016-0.045,0.024-0.073,0.024h-0.073l-0.392,0.098h-0.073c-0.114,0.065-0.212,0.105-0.293,0.122
			c-0.265,0.252-0.396,0.497-0.396,0.733c0,0.216,0.107,0.428,0.323,0.635c0.313,0.191,0.619,0.287,0.916,0.287
			c0.379,0,0.741-0.153,1.087-0.458c0.033-0.094,0.065-0.159,0.098-0.196l0.024-0.073l-0.024-0.098v-1.148h-0.488
			C517.471,198.625,517.446,198.633,517.418,198.633z"/>
		<path fill="#FFFFFF" d="M525.041,194.797c0.105,0,0.204,0.005,0.296,0.015c0.092,0.011,0.172,0.022,0.241,0.034
			c1.576,0.574,2.364,1.686,2.364,3.335c0,0.146-0.007,0.297-0.019,0.452c-0.11,1.425-0.745,2.395-1.906,2.908
			c-0.395,0.146-0.773,0.22-1.136,0.22c-0.603,0-1.145-0.204-1.625-0.611v2.541h-1.466v-8.771h1.466v0.513
			c0.42-0.342,0.876-0.554,1.368-0.635H525.041z M523.306,198.022c-0.012,0.093-0.021,0.183-0.024,0.269s-0.005,0.169-0.005,0.25
			c0,0.582,0.14,1.044,0.421,1.386c0.35,0.245,0.691,0.367,1.025,0.367c0.265,0,0.525-0.073,0.782-0.22
			c0.599-0.44,0.898-1.024,0.898-1.753c0-0.098-0.007-0.198-0.019-0.299c-0.188-1.055-0.766-1.625-1.735-1.71
			c-0.899,0.183-1.349,0.684-1.349,1.502v0.104C523.301,197.951,523.302,197.986,523.306,198.022z"/>
		<path fill="#FFFFFF" d="M531.784,192.403v2.541h1.759v1.271h-1.759v3.42c0,0.077,0.001,0.148,0.005,0.21
			c0.004,0.063,0.011,0.124,0.02,0.181c0.235,0.211,0.514,0.317,0.836,0.317c0.224,0,0.467-0.049,0.728-0.146l0.024,0.073v0.146
			c0.008,0.037,0.014,0.073,0.019,0.107c0.003,0.034,0.006,0.068,0.006,0.1v0.061c0.016,0.045,0.027,0.088,0.033,0.132
			c0.006,0.042,0.012,0.08,0.016,0.113l0.073,0.611c-0.253,0.061-0.49,0.108-0.712,0.14c-0.222,0.033-0.432,0.049-0.627,0.049
			c-0.792,0-1.365-0.258-1.715-0.775l-0.024-0.049l-0.05-0.146c-0.044-0.106-0.077-0.204-0.098-0.293v-0.073
			c-0.008-0.085-0.015-0.164-0.019-0.235s-0.006-0.138-0.006-0.199v-3.744h-1.172v-1.271h1.172v-2.125l0.099-0.049l0.195-0.049
			l0.073-0.049l0.122-0.024c0.021-0.017,0.045-0.024,0.073-0.024c0.021-0.017,0.045-0.024,0.073-0.024
			c0.021-0.017,0.045-0.024,0.073-0.024l0.073-0.049l0.195-0.049c0.017-0.016,0.03-0.024,0.044-0.024h0.005
			c0.017-0.016,0.03-0.024,0.044-0.024h0.005l0.366-0.146C531.768,192.322,531.784,192.362,531.784,192.403z"/>
		<path fill="#FFFFFF" d="M540.604,197.68l0.024,0.367c0.017,0.02,0.024,0.044,0.024,0.073v0.733h-4.471
			c0.094,0.831,0.517,1.319,1.271,1.466c0.122,0.012,0.241,0.018,0.36,0.018c0.614,0,1.138-0.201,1.569-0.604
			c0.053,0.089,0.118,0.163,0.195,0.22l0.024,0.074l0.073,0.073c0.058,0.053,0.106,0.103,0.146,0.149
			c0.041,0.048,0.073,0.095,0.098,0.144c0.029,0.016,0.045,0.033,0.049,0.049l0.343,0.391c-0.774,0.647-1.6,0.971-2.474,0.971
			c-0.151,0-0.304-0.01-0.458-0.031c-0.155-0.021-0.31-0.049-0.465-0.085c-1.408-0.468-2.183-1.478-2.32-3.029
			c0-0.021-0.002-0.062-0.003-0.123c-0.003-0.061-0.003-0.1-0.003-0.116c0-2.122,0.954-3.329,2.864-3.622
			C539.35,194.862,540.399,195.823,540.604,197.68z M536.157,197.705h2.956v-0.073c-0.017-0.049-0.024-0.098-0.024-0.146v-0.049
			c-0.041-0.09-0.065-0.171-0.073-0.245c-0.302-0.696-0.798-1.046-1.49-1.05C536.653,196.349,536.197,196.87,536.157,197.705z"/>
		<path fill="#FFFFFF" d="M545.832,194.797v1.563c-0.033-0.004-0.068-0.006-0.104-0.006h-0.104c-0.811,0-1.393,0.336-1.747,1.008
			l-0.073,0.391l-0.024,0.171v3.665h-1.49v-6.646h1.49v0.373c0,0.114,0.009,0.21,0.024,0.287c0.473-0.538,1.043-0.806,1.711-0.806
			H545.832z"/>
		<path fill="#FFFFFF" d="M552.062,192.281h5.351v1.441h-3.836l-0.098,0.073l-0.024,0.318c-0.016,0.045-0.024,0.094-0.024,0.146
			v0.049c-0.016,0.049-0.026,0.096-0.033,0.141c-0.006,0.045-0.012,0.087-0.016,0.128l-0.024,0.098l-0.049,0.415
			c-0.016,0.069-0.024,0.134-0.024,0.196l-0.024,0.171c0.505-0.252,0.994-0.379,1.466-0.379c0.366,0,0.733,0.078,1.1,0.232
			c0.396,0.163,0.73,0.37,1.007,0.623c0.277,0.253,0.496,0.558,0.654,0.917c0.269,0.554,0.403,1.105,0.403,1.655
			c0,0.317-0.045,0.629-0.135,0.935c-0.228,0.847-0.667,1.474-1.319,1.881c-0.643,0.346-1.29,0.52-1.941,0.52
			c-0.281,0-0.57-0.035-0.868-0.104c-1.091-0.285-1.832-0.912-2.223-1.881l-0.024-0.098c-0.041-0.11-0.065-0.208-0.073-0.293
			l-0.049-0.147l0.098-0.024c0.158-0.069,0.297-0.11,0.415-0.122l0.073-0.049h0.073l0.073-0.049h0.098
			c0.021-0.016,0.045-0.024,0.073-0.024c0.021-0.016,0.045-0.024,0.073-0.024l0.392-0.146l0.171-0.024
			c0.24,1.014,0.822,1.521,1.747,1.521c0.068,0,0.138-0.003,0.207-0.009c0.069-0.007,0.143-0.013,0.22-0.021
			c0.852-0.281,1.283-0.835,1.295-1.661c0.013-0.118,0.02-0.229,0.02-0.33c0-0.444-0.113-0.839-0.337-1.185
			c-0.415-0.439-0.888-0.66-1.417-0.66c-0.053,0-0.104,0.002-0.156,0.006c-0.05,0.004-0.104,0.01-0.161,0.018
			c-0.611,0.094-1.034,0.387-1.271,0.88l-0.415-0.073c-0.049-0.017-0.097-0.027-0.142-0.034c-0.045-0.005-0.087-0.011-0.128-0.015
			l-0.073-0.025l-0.269-0.049l-0.146-0.049h-0.073c-0.065-0.016-0.125-0.027-0.177-0.034c-0.054-0.005-0.1-0.011-0.141-0.015v-0.171
			l0.024-0.049v-0.146c0.045-0.167,0.069-0.306,0.073-0.416l0.024-0.195l0.024-0.098v-0.122c0.017-0.049,0.027-0.096,0.034-0.141
			c0.005-0.045,0.011-0.088,0.015-0.128l0.024-0.122v-0.073l0.024-0.171l0.024-0.074l0.098-0.708l0.073-0.513l0.024-0.098v-0.098
			l0.024-0.049l0.049-0.391l0.024-0.098l0.024-0.318C552.029,192.684,552.062,192.464,552.062,192.281z"/>
		<path fill="#FFFFFF" d="M496.651,206.155h6.743v1.466h-2.565v7.892h-1.612v-7.892h-2.565V206.155z"/>
		<path fill="#FFFFFF" d="M504.567,206.229h1.49v3.176c0.533-0.48,1.108-0.721,1.729-0.721c0.089,0,0.18,0.005,0.271,0.015
			c0.092,0.011,0.183,0.026,0.271,0.046c0.852,0.216,1.405,0.704,1.662,1.466l0.024,0.171c0.016,0.045,0.024,0.094,0.024,0.146
			v5.009h-1.49v-4.35l-0.049-0.195v-0.073l-0.074-0.171c-0.064-0.098-0.105-0.179-0.122-0.245c-0.216-0.191-0.436-0.322-0.659-0.391
			c-0.696,0.012-1.193,0.313-1.49,0.904v0.073c-0.021,0.057-0.039,0.109-0.059,0.156c-0.018,0.047-0.031,0.092-0.039,0.137v4.154
			h-1.49V206.229z"/>
		<path fill="#FFFFFF" d="M517.54,211.579l0.024,0.367c0.017,0.02,0.024,0.044,0.024,0.073v0.733h-4.471
			c0.094,0.831,0.517,1.319,1.271,1.466c0.122,0.012,0.241,0.018,0.361,0.018c0.613,0,1.137-0.201,1.568-0.604
			c0.053,0.09,0.118,0.163,0.195,0.22l0.024,0.073l0.073,0.073c0.058,0.053,0.106,0.103,0.147,0.149
			c0.04,0.047,0.073,0.095,0.098,0.144c0.028,0.017,0.044,0.033,0.049,0.049l0.342,0.391c-0.773,0.647-1.599,0.97-2.473,0.97
			c-0.152,0-0.305-0.009-0.459-0.03c-0.155-0.021-0.31-0.049-0.465-0.085c-1.408-0.468-2.182-1.478-2.32-3.029
			c0-0.021-0.002-0.062-0.003-0.123c-0.003-0.061-0.003-0.1-0.003-0.117c0-2.121,0.954-3.329,2.864-3.622
			C516.286,208.761,517.337,209.722,517.54,211.579z M513.094,211.604h2.956v-0.073c-0.017-0.049-0.024-0.098-0.024-0.147v-0.049
			c-0.041-0.089-0.065-0.171-0.073-0.244c-0.302-0.696-0.798-1.046-1.49-1.05C513.591,210.248,513.135,210.769,513.094,211.604z"/>
		<path fill="#FFFFFF" d="M523.74,206.18h5.863v1.466h-4.251v2.345c0.003,0.065,0.034,0.098,0.091,0.098h3.794v1.441h-3.885v2.444
			c0,0.081,0.031,0.122,0.098,0.122h4.423v1.441h-6.133V206.18z"/>
		<path fill="#FFFFFF" d="M532.492,206.155h1.808l0.098,0.171l0.049,0.049l0.099,0.171c0.032,0.045,0.061,0.088,0.085,0.132
			c0.024,0.042,0.045,0.08,0.062,0.113l0.049,0.024l0.024,0.049l0.22,0.342l0.195,0.293c0.017,0.012,0.024,0.024,0.024,0.037v0.012
			c0.122,0.134,0.203,0.256,0.244,0.366c0.058,0.061,0.104,0.12,0.145,0.177c0.037,0.057,0.071,0.112,0.1,0.165l0.098,0.122
			l0.073,0.146l0.05,0.073l0.049,0.049l0.098,0.171l0.049,0.049l0.171,0.269l0.195,0.293l0.171,0.244l0.049,0.049l0.049,0.073
			l0.024,0.073l0.049,0.073l0.049,0.049l0.098,0.171l0.049,0.049l0.171,0.269l0.024,0.049l0.05,0.073
			c0.016,0.012,0.023,0.024,0.023,0.037v0.012c0.041,0.045,0.078,0.088,0.11,0.128c0.032,0.041,0.062,0.08,0.086,0.116l0.073,0.122
			l0.049,0.098c0.085,0.09,0.143,0.179,0.171,0.269l0.098,0.147c0.049,0.037,0.09,0.085,0.122,0.146l0.098,0.147
			c0.041,0.057,0.075,0.11,0.101,0.159c0.027,0.049,0.05,0.094,0.07,0.134c0.028,0.021,0.045,0.045,0.049,0.073l0.073,0.049
			l0.024,0.073l0.049,0.049l0.049,0.073l0.024,0.074c0.127,0.146,0.216,0.269,0.27,0.366v-6.719h1.612v9.358H538.6l-0.098-0.171
			l-0.049-0.049l-0.024-0.073c-0.126-0.147-0.216-0.269-0.269-0.367l-0.024-0.049c-0.061-0.082-0.114-0.156-0.158-0.227
			c-0.045-0.068-0.082-0.132-0.11-0.189l-0.122-0.146l-0.244-0.366l-0.024-0.049l-0.049-0.049l-0.098-0.171
			c-0.033-0.045-0.062-0.088-0.086-0.131c-0.024-0.042-0.045-0.08-0.062-0.113c-0.085-0.085-0.143-0.159-0.171-0.22
			c-0.061-0.093-0.102-0.167-0.122-0.22c-0.028-0.016-0.045-0.033-0.049-0.049l-0.049-0.049l-0.024-0.073l-0.049-0.049l-0.024-0.073
			c-0.045-0.045-0.084-0.087-0.116-0.125c-0.033-0.04-0.059-0.079-0.079-0.12l-0.317-0.464l-0.049-0.123
			c-0.103-0.093-0.167-0.192-0.195-0.293c-0.123-0.134-0.204-0.257-0.245-0.367l-0.098-0.098l-0.049-0.122l-0.122-0.122
			l-0.073-0.147l-0.073-0.098c-0.032-0.044-0.062-0.088-0.085-0.131c-0.025-0.042-0.045-0.08-0.062-0.113l-0.098-0.146
			c-0.028-0.017-0.045-0.033-0.049-0.049l-0.171-0.245c-0.041-0.057-0.075-0.11-0.101-0.159c-0.027-0.049-0.051-0.094-0.07-0.134
			l-0.073-0.073l-0.024-0.073l-0.074-0.073l-0.024-0.074c-0.028-0.016-0.044-0.032-0.049-0.049
			c-0.008-0.008-0.015-0.015-0.019-0.021c-0.004-0.005-0.006-0.013-0.006-0.021v-0.006c-0.126-0.146-0.216-0.269-0.269-0.366v6.695
			h-1.612V206.155z"/>
		<path fill="#FFFFFF" d="M543.677,206.18h3.444l0.073,0.024h0.073l0.049-0.024h0.098l0.098,0.024h0.073l0.392,0.024l0.122,0.024
			l0.098,0.024l0.049,0.024l0.195,0.049l0.366,0.122l0.245,0.147l0.073,0.024c0.084,0.041,0.149,0.081,0.195,0.122
			c0.027,0.016,0.043,0.032,0.049,0.049c0.149,0.082,0.263,0.155,0.342,0.22c1.054,1.14,1.581,2.398,1.581,3.775
			c0,0.143-0.005,0.286-0.015,0.43c-0.011,0.145-0.027,0.291-0.052,0.437c-0.488,2.566-1.896,3.849-4.221,3.849
			c-0.062,0-0.122-0.001-0.184-0.003c-0.062-0.002-0.125-0.005-0.188-0.009h-2.956V206.18z M545.289,214.072h1.905l0.073-0.024
			h0.073l0.392-0.049l0.195-0.049c0.067-0.045,0.137-0.08,0.203-0.107c0.068-0.026,0.129-0.047,0.188-0.064
			c0.015-0.028,0.031-0.044,0.049-0.049l0.073-0.024l0.024-0.049l0.073-0.024l0.024-0.049l0.073-0.024
			c0.052-0.077,0.108-0.134,0.171-0.171c0.076-0.106,0.158-0.196,0.245-0.269c0.422-0.786,0.635-1.562,0.635-2.328V210.7
			c-0.059-1.303-0.555-2.256-1.49-2.859h-0.073c-0.07-0.044-0.139-0.077-0.205-0.098c-0.067-0.02-0.13-0.037-0.186-0.049
			l-0.122-0.024l-0.318-0.049h-2.003V214.072z"/>
	</g>
	<g>
		<path fill="#FFFFFF" d="M577.381,192.282h1.368v9.333h-1.612v-6.597h-1.563v-1.271h0.171l0.098-0.024h0.269l0.122-0.024h0.22
			c0.163-0.033,0.285-0.049,0.367-0.049c0.077-0.065,0.15-0.106,0.22-0.122c0.236-0.346,0.354-0.703,0.354-1.069
			c0-0.033-0.002-0.062-0.003-0.089C577.388,192.345,577.385,192.315,577.381,192.282z"/>
		<path fill="#FFFFFF" d="M587.808,194.505c0.3,0.896,0.451,1.761,0.451,2.596c0,1.055-0.24,2.062-0.72,3.023
			c-0.722,1.161-1.664,1.741-2.829,1.741c-0.276,0-0.572-0.034-0.885-0.104c-1.397-0.399-2.245-1.319-2.541-2.761l-0.049-0.073
			v-0.098l-0.024-0.098c-0.042-0.098-0.066-0.187-0.073-0.269l-0.024-0.122c-0.033-0.13-0.049-0.236-0.049-0.318
			c-0.034-0.106-0.049-0.195-0.049-0.269l-0.049-0.416v-0.684l0.024-0.073v-0.195c0.011-0.179,0.035-0.334,0.073-0.464v-0.146
			l0.024-0.098l0.024-0.073l0.024-0.171l0.049-0.196l0.049-0.171c0.016-0.077,0.033-0.146,0.052-0.208
			c0.018-0.061,0.041-0.114,0.07-0.159c0.472-1.51,1.424-2.382,2.859-2.614h0.157C586.171,192.087,587.313,192.893,587.808,194.505z
			 M583.264,194.164l-0.024,0.049c-0.046,0.073-0.089,0.138-0.129,0.195c-0.041,0.057-0.08,0.106-0.115,0.146l-0.024,0.073
			c-0.03,0.082-0.058,0.157-0.083,0.226c-0.027,0.069-0.058,0.132-0.088,0.189c-0.01,0.077-0.022,0.148-0.041,0.214
			c-0.018,0.065-0.038,0.124-0.058,0.177c-0.005,0.11-0.021,0.208-0.049,0.293v0.098l-0.024,0.049
			c-0.005,0.085-0.009,0.163-0.016,0.232c-0.006,0.069-0.018,0.13-0.033,0.183v1.368c0.049,1.262,0.528,2.142,1.441,2.639h0.073
			l0.074,0.024l0.049,0.024l0.293,0.073c1.417-0.179,2.125-1.175,2.125-2.987v-0.067c0.007-0.114,0.014-0.224,0.018-0.33
			c0.005-0.106,0.007-0.212,0.007-0.318c0-2.048-0.75-3.111-2.247-3.188C583.95,193.654,583.567,193.866,583.264,194.164z"/>
		<path fill="#FFFFFF" d="M571.219,210.139c0.011,0.188,0.018,0.375,0.018,0.562c0,1.56-0.438,2.903-1.312,4.031l-0.049,0.049
			l-0.073,0.049c-0.164,0.155-0.303,0.269-0.415,0.342l-0.171,0.098l-0.172,0.073c-0.209,0.114-0.396,0.179-0.562,0.195
			c-0.323,0.061-0.628,0.091-0.917,0.091c-1.385,0-2.356-0.69-2.919-2.07l0.122-0.024l0.098-0.049l0.245-0.073l0.146-0.049
			l0.098-0.024c0.019-0.016,0.043-0.024,0.073-0.024c0.015-0.016,0.029-0.024,0.042-0.024h0.007l0.073-0.024l0.171-0.049
			c0.056-0.033,0.112-0.06,0.167-0.079c0.056-0.022,0.104-0.036,0.15-0.043c0.382,0.749,0.935,1.124,1.655,1.124
			c0.057,0,0.115-0.001,0.173-0.006c0.061-0.003,0.117-0.01,0.176-0.018c0.979-0.285,1.501-0.985,1.563-2.101v-0.299
			c0-0.114-0.01-0.209-0.024-0.287c-0.629,0.611-1.318,0.917-2.071,0.917c-0.261,0-0.532-0.037-0.812-0.11
			c-1.235-0.391-1.952-1.181-2.15-2.37c-0.024-0.24-0.038-0.468-0.038-0.684c0-1.845,0.949-2.944,2.848-3.298
			C569.756,205.994,571.042,207.386,571.219,210.139z M566.088,209.553c0.129,0.68,0.479,1.144,1.051,1.393
			c0.125,0.028,0.246,0.049,0.359,0.061c0.114,0.012,0.225,0.018,0.33,0.018c0.92,0,1.472-0.507,1.656-1.521v-0.055
			c0-1.332-0.641-1.997-1.919-1.997h-0.036c-0.975,0.269-1.46,0.861-1.46,1.777C566.069,209.334,566.074,209.442,566.088,209.553z"
			/>
		<path fill="#FFFFFF" d="M579.696,210.139c0.011,0.188,0.018,0.375,0.018,0.562c0,1.56-0.438,2.903-1.312,4.031l-0.049,0.049
			l-0.073,0.049c-0.164,0.155-0.303,0.269-0.415,0.342l-0.171,0.098l-0.171,0.073c-0.209,0.114-0.396,0.179-0.562,0.195
			c-0.323,0.061-0.628,0.091-0.917,0.091c-1.385,0-2.356-0.69-2.919-2.07l0.123-0.024l0.098-0.049l0.244-0.073l0.146-0.049
			l0.098-0.024c0.019-0.016,0.043-0.024,0.073-0.024c0.015-0.016,0.03-0.024,0.042-0.024h0.007l0.073-0.024l0.171-0.049
			c0.056-0.033,0.113-0.06,0.167-0.079c0.056-0.022,0.104-0.036,0.15-0.043c0.382,0.749,0.935,1.124,1.655,1.124
			c0.057,0,0.115-0.001,0.174-0.006c0.06-0.003,0.116-0.01,0.175-0.018c0.979-0.285,1.501-0.985,1.563-2.101v-0.299
			c0-0.114-0.01-0.209-0.024-0.287c-0.628,0.611-1.318,0.917-2.071,0.917c-0.261,0-0.532-0.037-0.812-0.11
			c-1.235-0.391-1.952-1.181-2.15-2.37c-0.024-0.24-0.038-0.468-0.038-0.684c0-1.845,0.949-2.944,2.848-3.298
			C578.233,205.994,579.521,207.386,579.696,210.139z M574.566,209.553c0.129,0.68,0.479,1.144,1.05,1.393
			c0.125,0.028,0.246,0.049,0.36,0.061c0.113,0.012,0.224,0.018,0.329,0.018c0.921,0,1.472-0.507,1.656-1.521v-0.055
			c0-1.332-0.641-1.997-1.919-1.997h-0.035c-0.975,0.269-1.461,0.861-1.461,1.777C574.547,209.334,574.553,209.442,574.566,209.553z
			"/>
		<path fill="#FFFFFF" d="M588.174,210.139c0.012,0.188,0.018,0.375,0.018,0.562c0,1.56-0.438,2.903-1.312,4.031l-0.049,0.049
			l-0.073,0.049c-0.164,0.155-0.303,0.269-0.415,0.342l-0.171,0.098L586,215.343c-0.209,0.114-0.396,0.179-0.562,0.195
			c-0.322,0.061-0.628,0.091-0.917,0.091c-1.385,0-2.356-0.69-2.918-2.07l0.122-0.024l0.098-0.049l0.244-0.073l0.146-0.049
			l0.098-0.024c0.02-0.016,0.044-0.024,0.073-0.024c0.015-0.016,0.03-0.024,0.042-0.024h0.007l0.073-0.024l0.171-0.049
			c0.056-0.033,0.113-0.06,0.167-0.079c0.056-0.022,0.104-0.036,0.151-0.043c0.381,0.749,0.934,1.124,1.654,1.124
			c0.057,0,0.115-0.001,0.174-0.006c0.06-0.003,0.116-0.01,0.175-0.018c0.98-0.285,1.501-0.985,1.563-2.101v-0.299
			c0-0.114-0.009-0.209-0.024-0.287c-0.628,0.611-1.317,0.917-2.071,0.917c-0.261,0-0.532-0.037-0.812-0.11
			c-1.235-0.391-1.952-1.181-2.149-2.37c-0.024-0.24-0.038-0.468-0.038-0.684c0-1.845,0.948-2.944,2.848-3.298
			C586.711,205.994,587.998,207.386,588.174,210.139z M583.044,209.553c0.129,0.68,0.479,1.144,1.05,1.393
			c0.125,0.028,0.246,0.049,0.36,0.061s0.224,0.018,0.33,0.018c0.92,0,1.471-0.507,1.655-1.521v-0.055
			c0-1.332-0.641-1.997-1.919-1.997h-0.035c-0.975,0.269-1.461,0.861-1.461,1.777C583.024,209.334,583.03,209.442,583.044,209.553z"
			/>
	</g>
</g>
</svg>
