<?xml version="1.0" encoding="utf-8"?>
<!-- Generator: Adobe Illustrator 16.0.4, SVG Export Plug-In . SVG Version: 6.00 Build 0)  -->
<!DOCTYPE svg PUBLIC "-//W3C//DTD SVG 1.1//EN" "http://www.w3.org/Graphics/SVG/1.1/DTD/svg11.dtd">
<svg version="1.1" id="Layer_1" xmlns="http://www.w3.org/2000/svg" xmlns:xlink="http://www.w3.org/1999/xlink" x="0px" y="0px"
	 width="476px" height="110.115px" viewBox="0 0 476 110.115" enable-background="new 0 0 476 110.115" xml:space="preserve">
<linearGradient id="SVGID_1_" gradientUnits="userSpaceOnUse" x1="119.1667" y1="110.1152" x2="119.1667" y2="4.882812e-04">
	<stop  offset="0" style="stop-color:#540E00"/>
	<stop  offset="1" style="stop-color:#7F0A00"/>
</linearGradient>
<polygon fill="url(#SVGID_1_)" points="0,0 228.481,0 238.334,7.891 230.859,13.891 236.635,18.891 228.481,27.891 238.334,35.591 
	229.84,46.225 234.596,50.891 225.763,60.225 235.955,68.558 226.782,77.892 234.257,80.225 225.423,88.558 233.917,93.558 
	223.724,100.558 231.199,105.892 222.365,110.115 0,110.115 "/>
<linearGradient id="SVGID_2_" gradientUnits="userSpaceOnUse" x1="353.9163" y1="110.1152" x2="353.9163" y2="4.882812e-04">
	<stop  offset="0" style="stop-color:#540E00"/>
	<stop  offset="1" style="stop-color:#7F0A00"/>
</linearGradient>
<path fill="url(#SVGID_2_)" d="M236,0c0.833,0,9.5,6.891,9.5,6.891l-7.5,7.333l2.75,5.333L236,25.891l9.5,8l-9.5,12l4.75,6.333
	l-7.25,7.333l9.667,11l-9.667,5.334l8.333,2l-8.333,11l6,4.333l-7.667,8.333l6.833,6.334l-6.833,2.224H476V0H236z"/>
<path fill="#FFFFFF" d="M134.315,92.856c0,0-11.766-3.967-16.251-5.731c-2.877-1.132-5.28-3.142-5.386-6.187
	c0.555-0.558,1.053-1.168,1.479-1.828l2.981-4.644c1.676-2.604,2.675-5.508,2.954-8.491c0.774-0.192,1.195-0.662,1.646-1.379
	c0.042-0.066,0.078-0.139,0.108-0.209l1.855-4.354c0.483-1.417-0.195-2.942-1.644-3.685l-0.185-0.094
	c-0.488-0.25-1.027-0.26-1.488-0.102c-0.027-0.211-0.033-0.414,0.013-0.604c0.169-0.688,1.073-1.253,1.159-1.971
	c0.084-0.703-0.658-1.465-0.658-2.19c0-0.726,0.742-1.488,0.658-2.19c-0.086-0.718-0.99-1.282-1.159-1.971
	c-0.172-0.7,0.366-1.619,0.114-2.284c-0.256-0.673-1.465-1.003-1.797-1.634c0-0.001-0.004-0.002-0.006-0.003
	c-2.154-3.689-6.459-6.207-11.421-6.207h-7.541c-4.963,0-9.27,2.518-11.422,6.207c-0.001,0.001-0.006,0.002-0.007,0.004
	c-0.332,0.631-1.541,0.961-1.796,1.634c-0.252,0.665,0.286,1.583,0.113,2.284c-0.169,0.689-1.073,1.253-1.159,1.971
	c-0.084,0.703,0.658,1.465,0.658,2.19s-0.743,1.488-0.658,2.19c0.086,0.718,0.99,1.282,1.159,1.971
	c0.046,0.188,0.04,0.395,0.013,0.604c-0.46-0.157-0.999-0.147-1.485,0.103l-0.187,0.095c-1.445,0.739-2.127,2.267-1.642,3.684
	l1.854,4.354c0.031,0.071,0.067,0.144,0.109,0.209c0.455,0.723,0.876,1.191,1.658,1.383c0.301,3.014,1.333,5.938,3.054,8.556
	l3.068,4.669c0.574,0.873,1.273,1.656,2.07,2.34c-0.396,2.695-2.628,4.542-5.346,5.532C85.6,88.61,72.85,92.91,72.85,92.91
	c-6.47,2.228-10.812,8.312-10.812,15.153v2.052h82.973v-2.146C145.01,101.176,140.724,95.119,134.315,92.856z"/>
<path fill="#FFFFFF" d="M353.013,92.438c-0.028,0.076-0.047,0.158-0.071,0.235c-1.805,0.729-3.07,1.235-3.07,1.235
	c-5.441,2.226-9.098,8.312-9.098,15.152v2.053h69.812v-2.146c0-6.795-3.606-12.852-8.999-15.111c0,0-1.332-0.533-3.203-1.297
	c-0.016-0.039-0.022-0.082-0.037-0.123c-0.632-1.709-2.009-3.023-2.425-4.519c-0.492-1.771,0.038-3.591-0.204-5.112
	c-0.287-1.808-1.318-3.386-1.342-4.945c-0.025-1.773,0.989-3.381,1.177-4.986c0.191-1.682-0.436-3.439-0.165-5.115
	c0.257-1.602,1.408-3.123,1.592-4.88c0.162-1.567-0.635-3.274-0.635-5.085c0-1.477,0.752-3.008,0.477-4.404
	c-0.285-1.438-1.571-2.565-2.12-3.889c-0.559-1.346-0.449-3.051-1.253-4.248c-0.807-1.206-2.427-1.756-3.447-2.779
	c-1.022-1.022-1.572-2.642-2.778-3.449c-1.196-0.801-2.901-0.694-4.248-1.252c-1.323-0.549-2.45-1.835-3.889-2.12
	c-0.903-0.179-1.864,0.069-2.83,0.267c-0.378,0.078-0.771,0.078-1.147,0c-0.966-0.198-1.926-0.446-2.83-0.267
	c-1.438,0.285-2.563,1.571-3.889,2.12c-1.347,0.559-3.052,0.451-4.248,1.252c-1.206,0.808-1.756,2.427-2.778,3.449
	c-1.021,1.023-2.643,1.573-3.449,2.779c-0.802,1.196-0.692,2.901-1.253,4.248c-0.549,1.323-1.835,2.45-2.117,3.889
	c-0.276,1.396,0.476,2.927,0.476,4.404c0,1.811-0.797,3.518-0.634,5.085c0.183,1.757,1.334,3.278,1.591,4.88
	c0.269,1.676-0.358,3.434-0.165,5.115c0.186,1.605,1.202,3.213,1.177,4.986c-0.021,1.562-1.055,3.14-1.342,4.945
	c-0.242,1.521,0.288,3.346-0.204,5.112C355.022,89.413,353.645,90.728,353.013,92.438z"/>
</svg>
