<?xml version="1.0" encoding="utf-8"?>
<!-- Generator: Adobe Illustrator 16.0.4, SVG Export Plug-In . SVG Version: 6.00 Build 0)  -->
<!DOCTYPE svg PUBLIC "-//W3C//DTD SVG 1.1//EN" "http://www.w3.org/Graphics/SVG/1.1/DTD/svg11.dtd">
<svg version="1.1" id="Layer_1" xmlns="http://www.w3.org/2000/svg" xmlns:xlink="http://www.w3.org/1999/xlink" x="0px" y="0px"
	 width="476px" height="110.115px" viewBox="0 0 476 110.115" enable-background="new 0 0 476 110.115" xml:space="preserve">
<linearGradient id="SVGID_1_" gradientUnits="userSpaceOnUse" x1="237.7751" y1="-732.9155" x2="237.7751" y2="-622.8008" gradientTransform="matrix(1 0 0 -1 0.2251 -622.8008)">
	<stop  offset="0" style="stop-color:#4B3189"/>
	<stop  offset="1" style="stop-color:#4F4797"/>
</linearGradient>
<rect x="0" fill="url(#SVGID_1_)" width="476" height="110.115"/>
<g>
	<polygon fill-rule="evenodd" clip-rule="evenodd" fill="#FFFFFF" points="376.483,19.017 380.597,21.636 382.239,47.718 
		393.121,50.119 400.031,51.97 404.548,55.424 413.052,55.424 417.038,61.006 414.912,87.049 409.066,107.776 375.049,107.776 
		372.443,92.895 357.244,71.369 355.118,63.396 360.965,61.802 364.686,63.396 367.609,66.32 370.819,67.118 370.633,24.331 
		372.846,19.017 	"/>
	<g>
		<path fill-rule="evenodd" clip-rule="evenodd" fill="#050505" d="M372.627,110.115c0.499-11.632-3.405-21.74-10.717-30.627
			c-1.919-2.332-4.01-4.525-6.072-6.735c-3.2-3.431-3.307-8.163-0.2-11.096c2.555-2.41,6.57-2.552,9.889-0.238
			c1.185,0.826,2.211,1.88,3.266,2.791c0-6.024,0-12.191,0-18.356c1.28-1.238,2.559-2.476,3.838-3.713
			c0.006,0.107,0.017,0.215,0.017,0.323c0,10.667,0,21.333,0,32c0,0.087-0.011,0.172-0.017,0.251c-1.293,0-2.549,0-3.594,0
			c-0.434-1.541-0.711-3.054-1.283-4.444c-1.161-2.814-2.841-5.261-5.845-6.395c-2.176-0.821-4.245,0.291-4.616,2.434
			c-0.28,1.622,0.525,2.849,1.552,4.023c2.839,3.249,5.823,6.397,8.393,9.85c5.665,7.613,8.832,16.197,9.216,25.742
			c0.005,0.117,0.271,0.32,0.416,0.32c10.049,0.016,20.099,0.017,30.146-0.002c0.148,0,0.393-0.215,0.43-0.37
			c0.862-3.536,1.391-7.191,2.615-10.596c2.153-5.989,3.916-12.06,4.4-18.393c0.394-5.144,0.364-10.325,0.324-15.488
			c-0.007-0.951-0.756-2.132-1.52-2.793c-1.711-1.479-3.93-1.577-6.046-1.654c0,3.526,0.003,6.997-0.01,10.47
			c0,0.116-0.138,0.336-0.215,0.337c-1.198,0.021-2.396,0.015-3.624,0.015c0-3.203,0.093-6.354-0.052-9.495
			c-0.049-1.062-0.433-2.337-1.124-3.095c-1.728-1.893-4.183-1.961-6.538-2.066c0,3.637,0,7.195,0,10.772c-1.255,0-2.513,0-3.796,0
			c0-3.044,0.012-6.066-0.01-9.088c-0.006-0.626-0.076-1.265-0.22-1.873c-0.686-2.906-4.841-3.729-7.473-3.585
			c0,4.87,0,9.743,0,14.623c-1.292,0-2.55,0-3.8,0c-0.019-0.052-0.036-0.08-0.036-0.107c0.001-7.394,0.004-14.787,0.007-22.181
			c1.579,1.508,3.079,3.109,4.755,4.5c2.191,1.822,4.729,3.071,7.485,3.925c0.129-0.692,0.248-1.34,0.368-1.988
			c0.324,0.327,0.641,0.663,0.979,0.976c0.108,0.1,0.271,0.193,0.412,0.198c1.062,0.036,2.133-0.02,3.188,0.084
			c3.058,0.304,5.9,1.122,7.979,3.618c0.092,0.109,0.314,0.139,0.479,0.154c1.852,0.163,3.744,0.127,5.548,0.51
			c4.823,1.024,7.23,4.147,7.23,9.066c0,2.776,0.043,5.555-0.009,8.331c-0.158,8.197-1.604,16.169-4.504,23.84
			c-1.862,4.924-3.035,9.968-3.269,15.227C398.19,110.115,385.409,110.115,372.627,110.115z"/>
		<path fill-rule="evenodd" clip-rule="evenodd" fill="#E3151D" d="M384.121,24.448c2.462-1.29,4.953-2.454,7.781-2.752
			c6.919-0.731,12.472,5.369,10.64,11.735c-1.472,5.113-7.177,8.042-12.631,6.294c-1.985-0.637-3.812-1.768-5.713-2.674
			c-1.202-0.651-2.404-1.303-3.607-1.955c-0.016-0.016-0.032-0.032-0.049-0.048c-0.001,0.012-0.003,0.024-0.006,0.037
			c0.02,0.001,0.04,0.002,0.061,0.004c1.188,1.366,2.378,2.731,3.567,4.097c2.668,2.151,5.762,3.453,8.971,4.54
			c0.197,0.067,0.44,0.449,0.414,0.651c-0.164,1.25-0.399,2.491-0.611,3.735c-0.12,0.648-0.239,1.296-0.368,1.988
			c-2.756-0.854-5.294-2.104-7.485-3.925c-1.676-1.391-3.176-2.992-4.755-4.5c-1.241-1.73-2.48-3.46-3.625-5.054
			c-1.307,1.772-2.69,3.646-4.074,5.52c-1.279,1.238-2.558,2.476-3.838,3.713c-2.416,1.871-5.035,3.358-8.013,4.265
			c-0.346-2.011-0.695-3.995-1.009-5.985c-0.018-0.113,0.234-0.345,0.399-0.4c3.082-1.022,6.07-2.229,8.659-4.254
			c1.339-1.38,2.678-2.76,4.017-4.14c-0.097-0.102-0.19-0.204-0.286-0.306c-1.256,0.69-2.512,1.38-3.768,2.07
			c-2.097,0.858-4.125,2.007-6.304,2.514c-4.702,1.093-9.754-1.519-11.421-5.6c-0.236-0.58-0.387-1.195-0.576-1.794
			c0-0.71,0-1.42,0-2.13c0.128-0.599,0.211-1.211,0.394-1.793c1.256-4.013,5.847-6.798,10.432-6.414
			c2.745,0.229,5.152,1.361,7.527,2.62c1.264,0.727,2.528,1.454,3.792,2.18c1.177,0.666,2.351,1.338,3.535,1.99
			c0.117,0.064,0.333,0.059,0.452-0.007c1.242-0.676,2.473-1.371,3.706-2.062C381.594,25.888,382.858,25.168,384.121,24.448z
			 M368.823,32.717c1.18-0.612,2.359-1.224,3.619-1.877c-1.264-0.668-2.442-1.292-3.619-1.914c-0.353-0.189-0.702-0.385-1.059-0.567
			c-2.591-1.326-5.197-2.615-8.244-2.24c-1.988,0.244-3.671,1.011-4.297,3.092c-0.576,1.911-0.455,3.778,1.185,5.171
			c1.482,1.26,3.309,1.437,5.161,1.204C364.225,35.254,366.507,33.934,368.823,32.717z M384.169,32.893
			c0.83,0.439,1.649,0.899,2.49,1.313c2.171,1.068,4.395,1.942,6.887,1.808c2.825-0.152,4.592-1.7,4.829-4.265
			c0.286-3.088-0.953-5.122-3.559-5.667c-0.892-0.187-1.842-0.242-2.751-0.173c-2.905,0.218-5.397,1.608-7.897,2.947
			c-1.26,0.653-2.52,1.306-3.86,2.001C381.655,31.568,382.912,32.23,384.169,32.893z"/>
		<path fill-rule="evenodd" clip-rule="evenodd" fill="#050505" d="M368.844,24.506c0.43-2.964,1.856-5.21,4.681-6.417
			c0.603-0.257,1.254-0.398,1.882-0.592c0.709,0,1.42,0,2.13,0c0.646,0.198,1.316,0.338,1.935,0.603
			c2.793,1.195,4.22,3.413,4.65,6.349c-1.264,0.72-2.527,1.439-3.792,2.159c-0.007-0.463-0.001-0.926-0.025-1.388
			c-0.107-2.069-1.449-3.63-3.278-3.83c-2.012-0.219-3.655,0.811-4.146,2.731c-0.21,0.822-0.17,1.708-0.243,2.565
			C371.372,25.959,370.108,25.233,368.844,24.506z"/>
		<path fill-rule="evenodd" clip-rule="evenodd" fill="#050505" d="M368.792,37.104c1.256-0.69,2.512-1.38,3.768-2.07
			c0.096,0.102,0.189,0.204,0.286,0.306c-1.339,1.38-2.678,2.76-4.017,4.14C368.818,38.688,368.804,37.896,368.792,37.104z"/>
		<path fill-rule="evenodd" clip-rule="evenodd" fill="#050505" d="M384.164,39.187c-1.189-1.366-2.379-2.731-3.567-4.097
			l-0.006,0.007c1.203,0.652,2.405,1.304,3.607,1.955C384.188,37.763,384.175,38.475,384.164,39.187z"/>
		<path fill-rule="evenodd" clip-rule="evenodd" fill="#050505" d="M384.168,28.857c0,1.346,0.001,2.691,0.001,4.036
			c-1.257-0.663-2.515-1.325-3.861-2.035C381.649,30.163,382.908,29.51,384.168,28.857z"/>
		<path fill-rule="evenodd" clip-rule="evenodd" fill="#050505" d="M368.823,32.717c0-1.264,0-2.527,0-3.791
			c1.177,0.622,2.355,1.245,3.619,1.914C371.183,31.494,370.003,32.105,368.823,32.717z"/>
		<path fill-rule="evenodd" clip-rule="evenodd" fill="#050505" d="M380.597,35.089c-0.021-0.001-0.041-0.002-0.061-0.004
			c0.003-0.013,0.005-0.025,0.006-0.037c0.017,0.016,0.033,0.032,0.049,0.048L380.597,35.089z"/>
	</g>
</g>
</svg>
