<?xml version="1.0" encoding="utf-8"?>
<!-- Generator: Adobe Illustrator 16.0.4, SVG Export Plug-In . SVG Version: 6.00 Build 0)  -->
<!DOCTYPE svg PUBLIC "-//W3C//DTD SVG 1.1//EN" "http://www.w3.org/Graphics/SVG/1.1/DTD/svg11.dtd">
<svg version="1.1" id="Layer_1" xmlns="http://www.w3.org/2000/svg" xmlns:xlink="http://www.w3.org/1999/xlink" x="0px" y="0px"
	 width="511.859px" height="220px" viewBox="0 0 511.859 220" enable-background="new 0 0 511.859 220" xml:space="preserve">
<rect fill="#95CBE8" width="511.859" height="110"/>
<path fill="#6B90B2" d="M287.359,105.767c2.5,0,176.5,0,176.5,0V220H0V105.767H287.359z"/>
<path fill="#263F15" d="M0,220c0,0,32.03-26.977,68.359-30.008c36.33-3.029,84.304-31.023,109.5-43.523
	c25.196-12.499,81.556-24.408,101.479-28.575c19.923-4.166,44.021-12.127,44.021-12.127s-183.48-8.326-209.262-4.538
	s-82.034,3.409-93.753,2.272S0,100.036,0,100.036"/>
<path fill="#263F15" d="M511.859,104.822V220h-221.5c0,0,31.363-26.999,48.221-34.018c16.857-7.02,94.872-36.766,103.105-45.455
	c8.232-8.69,11.401-32.755,17.674-34.76c6.272-2.005,37.995-0.196,37.995-0.196L511.859,104.822z"/>
<path fill="#4F443B" d="M290.359,168.109c0,0-11.5,6.5-10.5,10.5s2.5,8.5,10.5,7.5s10-7.859,13.5-8.93s4-9.07,0-9.07
	S290.359,168.109,290.359,168.109z"/>
<path fill="#4F443B" d="M295.175,144.93c0,0-5.243,5.246-4.787,8.475c0.456,3.228,1.14,6.859,4.787,6.053
	c3.647-0.808,4.56-6.343,6.155-7.207c1.596-0.863,1.823-7.32,0-7.32C299.506,144.93,295.175,144.93,295.175,144.93z"/>
<path fill="#4F443B" d="M277.627,136.43c0,0-6.715,4.465-6.131,7.213c0.584,2.747,1.46,5.838,6.131,5.151s5.839-5.398,7.882-6.134
	c2.044-0.734,2.335-6.23,0-6.23C283.173,136.43,277.627,136.43,277.627,136.43z"/>
<path fill="#4F443B" d="M289.691,117.536c0,0-4.737,3.315-4.325,5.356c0.412,2.04,1.03,4.336,4.325,3.825
	c3.295-0.51,4.118-4.009,5.56-4.555c1.441-0.545,1.647-4.627,0-4.627S289.691,117.536,289.691,117.536z"/>
<g>
	<g>
		<path fill="none" stroke="#FFFFFF" stroke-width="3" stroke-miterlimit="10" d="M511.859,206.609c0,0-1.444,0.036-3.995,0.094"/>
		<path fill="none" stroke="#FFFFFF" stroke-width="3" stroke-miterlimit="10" stroke-dasharray="7.9045,7.9045" d="
			M499.964,206.872c-23.078,0.467-73.024,1.257-88.604-0.263c-20.5-2-118.246-20.359-118.123-29.43s7.928-21.813,3.25-24.93
			s-22.232,0.461-17.18-9.59s29.053-10.443,11.053-20.497s-95.5-13.054-113-9.554s-75.5,22.641-100,23.82
			c-18.687,0.899-53.952-3.831-69.636-6.127"/>
		<path fill="none" stroke="#FFFFFF" stroke-width="3" stroke-miterlimit="10" d="M3.81,129.72c-2.512-0.38-3.95-0.61-3.95-0.61"/>
	</g>
</g>
</svg>
