<?xml version="1.0" encoding="utf-8"?>
<!-- Generator: Adobe Illustrator 16.0.4, SVG Export Plug-In . SVG Version: 6.00 Build 0)  -->
<!DOCTYPE svg PUBLIC "-//W3C//DTD SVG 1.1//EN" "http://www.w3.org/Graphics/SVG/1.1/DTD/svg11.dtd">
<svg version="1.1" id="Layer_1" xmlns="http://www.w3.org/2000/svg" xmlns:xlink="http://www.w3.org/1999/xlink" x="0px" y="0px"
	 width="187.967px" height="197.631px" viewBox="0 0 187.967 197.631" enable-background="new 0 0 187.967 197.631"
	 xml:space="preserve">
<rect x="158.81" y="121.964" fill="#717171" width="9.082" height="75.667"/>
<rect x="21.525" y="121.964" fill="#717171" width="9.082" height="75.667"/>
<path fill-rule="evenodd" clip-rule="evenodd" fill="#1A1A18" d="M179.924,0c4.434,0,8.043,3.61,8.043,8.04v108.479
	c0,4.455-3.609,8.043-8.043,8.043H8.042c-4.432,0-8.042-3.588-8.042-8.043V8.072V8.04C0,3.602,3.602,0,8.042,0H179.924"/>
<path fill-rule="evenodd" clip-rule="evenodd" fill="#FFE400" d="M179.924,4.021c2.214,0,4.014,1.805,4.014,4.021v108.476
	c0,2.217-1.8,4.021-4.014,4.021H8.042c-2.217,0-4.021-1.805-4.021-4.021V8.064V8.043c0-2.222,1.8-4.021,4.021-4.021H179.924"/>
<path fill-rule="evenodd" clip-rule="evenodd" fill="#1A1A18" d="M73.02,81.725c3.538,0,6.42,2.882,6.42,6.418v19.353
	c0,3.541-2.882,6.422-6.42,6.422H21.978c-3.54,0-6.42-2.881-6.42-6.422V88.143c0-3.536,2.877-6.418,6.42-6.418H73.02"/>
<path fill-rule="evenodd" clip-rule="evenodd" fill="#FFFFFF" d="M21.978,110.719c-1.759,0-3.2-1.44-3.2-3.224V88.143v-0.021
	c0-1.763,1.436-3.198,3.2-3.198H73.02c1.781,0,3.195,1.441,3.195,3.22v19.353c0,1.783-1.415,3.224-3.195,3.224H21.978"/>
<path fill-rule="evenodd" clip-rule="evenodd" fill="#E20614" d="M15.901,75.033c-2.672,0-4.82-2.127-4.82-4.803
	c0-0.934,0.181-1.62,0.64-2.422l31.689-54.853c0.842-1.509,2.443-2.425,4.18-2.425c1.739,0,3.335,0.916,4.18,2.425l31.691,54.853
	c0.456,0.802,0.638,1.488,0.638,2.422c0,2.676-2.148,4.845-4.818,4.845h-0.026L15.901,75.033"/>
<polygon fill-rule="evenodd" clip-rule="evenodd" fill="#FFFFFF" points="76.469,68.632 18.735,68.632 47.59,18.598 "/>
<path fill-rule="evenodd" clip-rule="evenodd" fill="#1A1A18" d="M48.87,48.278c-0.939-1.303-1.232-1.623-2.538-2.515
	c-0.114-0.09-0.319-0.045-0.319,0.116c0.047,0.43,0.068,0.842,0.116,1.277c0,1.328-0.116,1.918-0.641,3.13l-1.28,2.24
	c-0.089,0.113,0.071,0.319,0.229,0.229l3.61-2.288l0.868-1.826C48.936,48.505,48.936,48.368,48.87,48.278 M55.013,39.731
	c0.137,0,0.229,0.092,0.253,0.206l1.462,5.095l-0.501,0.319l-3.425-5.301c-0.116-0.161,0-0.388,0.18-0.412L55.013,39.731z
	 M53.372,51.771c-0.024,0,2.1,5.573,2.124,5.645c0.069,0.182,0.203,0.34,0.364,0.478l5.963,4.823
	c0.182,0.158,0.295,0.343,0.322,0.591c0,0.111,0,0.23,0.021,0.367c0,0.894-0.343,1.69-1.002,2.281
	c-0.071,0.048-0.092,0.143-0.092,0.211c0,0.158,0.113,0.296,0.271,0.296h0.802c0.708,0,1.322-0.364,1.691-0.961l1.984-3.429
	c0.047-0.063,0.071-0.158,0.071-0.251c0-0.182-0.116-0.343-0.277-0.433l-1.188-0.546l-4.18-4.779
	c-0.161-0.205-0.367-0.295-0.62-0.295c-0.135,0-0.248,0.023-0.385,0.09c-0.274-0.341-0.391-0.592-0.457-0.958l-2.035-8.317
	l0.615-0.391h0.024c0.227,0.185,0.528,0.28,0.847,0.301c0.158,0,0.298-0.045,0.433-0.137c0.388-0.227,0.525-0.391,0.8-0.731
	c0.068-0.113,0.092-0.229,0.092-0.343v-0.045c-0.048-0.367-0.251-0.684-0.57-0.847c-0.345-0.203-0.549-0.57-0.572-0.958
	c0-1.533-0.319-3.061-0.916-4.457c-0.251-0.615-0.663-1.05-1.256-1.349c-1.62-0.778-3.38-1.188-5.188-1.188
	c-0.248,0-0.501,0.024-0.776,0.045c-0.522,0-0.913,0.137-1.349,0.436l-2.011,1.349c-0.066,0.042-0.137,0.068-0.227,0.068
	c-0.229,0-0.388-0.185-0.388-0.412v-0.25c0-1.304-0.731-2.515-1.874-3.13c-0.409-0.253-0.778-0.343-1.233-0.343
	c-0.433,0-0.688,0.045-1.052,0.227c-0.57,0.251-1.051,0.665-1.416,1.164c-0.254,0.393-0.386,0.847-0.386,1.303
	c0,1.28,1.049,2.47,2.237,2.903l1.349,0.203c0.227,0.026,0.409,0.208,0.409,0.436c0,0.137-0.066,0.253-0.158,0.343l-1.395,1.372
	c-0.091,0.137-0.116,0.251-0.137,0.412v0.388c0,1.53,0.229,3.198,0.64,4.684c0.048,0.182,0.069,0.343,0.069,0.525
	c0,0.251-0.069,0.528-0.16,0.755l-1.874,4.615c-0.091,0.182-0.137,0.367-0.137,0.546c0,0.205,0.067,0.411,0.137,0.596l-2.285,1.462
	c-0.138-0.343-0.297-0.569-0.57-0.799l-0.319-0.161l-1.464-0.436c-0.319-0.113-0.595-0.343-0.73-0.639l-1.075-1.689
	c-0.022-0.068-0.067-0.092-0.113-0.116l-0.799-0.296l-1.647-0.229h-0.134c-0.526,0-1.008,0.274-1.281,0.755l-8.062,13.937h18.62
	c0.157,0,0.294-0.138,0.294-0.296c0-0.026,0-0.048-2.4-8.661l2.583-1.626c0.139,0.095,0.276,0.119,0.436,0.119
	s0.25-0.024,0.389-0.093l1.165-0.546c0.25-0.138,0.409-0.391,0.409-0.665c0-0.138-0.023-0.158-0.044-0.271l3.04-1.897l-0.436,1.119
	c-0.388,0.982-0.594,2.008-0.638,3.064l-0.367,7.284l-0.092,0.712c-0.021,0.063-0.042,0.111-0.113,0.132l-2.351,0.665
	c-0.207,0.048-0.345,0.254-0.345,0.454c0,0.274,0.23,0.507,0.503,0.507h5.394c0.319,0,0.57-0.232,0.591-0.549
	c1.05-7.881,1.05-7.929,1.05-7.929c0-0.045-0.021-0.092-0.066-0.137l-0.137-0.045c-0.113-0.048-0.182-0.161-0.182-0.274
	c0-0.707-0.023-0.755-0.023-0.755c0-0.137,0.066-0.274,0.137-0.388c1.712-2.011,1.805-2.146,2.831-4.57
	c0.024-0.068,0.069-0.113,0.137-0.113C53.301,51.703,53.348,51.748,53.372,51.771"/>
<g>
	<path fill="#1D1D1B" d="M103.229,21.378h0.176h0.141h0.176h0.141h0.176h0.457h0.141h0.598h0.105h0.422h0.141h0.141h0.457h0.141
		h0.141h0.352h0.387h0.105h0.387h0.281h0.176l0.105,0.035h0.141h0.141l0.07,0.035l0.562,0.07c3.568,1.178,5.115,3.768,4.641,7.77
		c-0.715,4.148-3.504,6-8.367,5.555h-0.141h-0.176h-0.141h-0.176h-0.141h-0.176h-0.457h-0.141h-0.598h-0.105h-0.422v-0.141v-0.633
		v-0.281v-0.281v-0.105v-0.141v-0.633v-0.105v-0.703v-0.281v-0.141v-0.633v-0.105v-0.105v-1.09v-0.246v-0.105v-0.141v-0.633v-0.492
		v-0.105v-0.176V27.46v-0.141v-0.105v-0.703v-0.598v-0.105v-0.422v-0.457v-0.141V24.19v-0.105v-0.422v-0.387v-0.176v-0.457v-0.141
		v-0.598V21.8v-0.422H103.229z M105.83,32.101h0.492h0.105h0.281h0.105h0.105h0.457h0.141h0.105h0.703l0.246-0.035
		c0.217-0.023,0.404-0.07,0.562-0.141l0.211-0.035c1.547-0.861,2.238-2.209,2.074-4.043c-0.229-2.719-1.658-3.961-4.289-3.727
		h-0.105h-0.105h-1.09V32.101z"/>
	<path fill="#1D1D1B" d="M124.673,29.183l0.105,0.457v0.246c0.047,0.416,0.059,0.756,0.035,1.02l-0.105-0.035h-0.105H123.9h-0.105
		h-0.105h-1.09h-0.246h-0.211h-0.246h-0.211h-0.176h-0.211h-0.141h-0.633h-0.387h-0.141h-0.141h-0.141h-0.141h-0.598h-0.105h-0.421
		c0.129,1.02,0.656,1.629,1.582,1.828c1.154,0.176,2.115-0.117,2.883-0.879l0.281,0.316c0.111,0.076,0.193,0.158,0.246,0.246
		l0.07,0.035l0.035,0.07c0.117,0.088,0.211,0.17,0.281,0.246l0.07,0.105c0.041,0.023,0.064,0.047,0.07,0.07l0.07,0.035l0.07,0.07
		l0.035,0.07l0.07,0.035l0.035,0.07c0.117,0.088,0.211,0.17,0.281,0.246c-1.107,1.406-2.631,1.934-4.57,1.582
		c-2.373-0.404-3.72-1.846-4.042-4.324c-0.211-3.141,1.078-5.039,3.867-5.695C122.652,24.958,124.281,26.353,124.673,29.183z
		 M118.486,28.901h0.211h0.246h0.457h1.09h0.492h0.105h0.176h0.105h0.141h0.105h0.703c-0.264-1.055-0.908-1.629-1.934-1.723
		C119.306,27.349,118.674,27.923,118.486,28.901z"/>
	<path fill="#1D1D1B" d="M126.958,21.413h0.176h0.141h0.176h0.141h0.176h0.457h0.141h0.598h0.281h0.246v10.688
		c0.363,0.428,0.879,0.521,1.547,0.281l0.035,0.141v0.176c0.029,0.129,0.041,0.258,0.035,0.387c0.041,0.146,0.064,0.275,0.07,0.387
		l0.035,0.316v0.141c0.023,0.035,0.035,0.07,0.035,0.105l0.07,0.703h-0.141l-0.105,0.035l-0.141,0.035l-0.246,0.035h-0.105
		c-0.264,0.064-0.486,0.1-0.668,0.105c-1.564,0.316-2.584-0.188-3.059-1.512c-0.006-0.117-0.018-0.211-0.035-0.281V33.05v-0.703
		v-0.141V32.03V31.89v-0.176v-0.457v-0.141v-0.598v-0.105v-0.422v-0.141v-0.176v-0.457v-0.141v-0.598v-0.105v-0.422v-0.246v-0.281
		v-0.281v-0.281v-0.105v-0.105v-1.09v-0.246v-0.211v-0.246v-0.211v-0.176v-0.211V24.12v-0.633v-0.387V22.96v-0.141v-0.141v-0.141
		V21.94v-0.105v-0.422H126.958z"/>
	<path fill="#1D1D1B" d="M140.107,26.019l0.035,0.07c0.094,0.117,0.164,0.234,0.211,0.352c0.123,0.182,0.205,0.346,0.246,0.492
		v0.141c0.07,0.229,0.105,0.428,0.105,0.598v3.445c-0.023,0.58,0,1.061,0.07,1.441c0.287,0.299,0.615,0.486,0.984,0.562l-0.07,0.105
		l-0.07,0.176l-0.07,0.141l-0.035,0.105l-0.035,0.105l-0.07,0.105l-0.141,0.352l-0.07,0.105l-0.035,0.105l-0.035,0.105l-0.035,0.07
		l-0.246,0.527c-1.043,0.006-1.828-0.322-2.355-0.984c-1.002,0.996-2.244,1.242-3.727,0.738c-1.365-0.375-2.162-1.207-2.391-2.496
		c0.012-1.893,0.902-2.994,2.672-3.305c0.094-0.059,0.188-0.094,0.281-0.105h0.105c0.035-0.023,0.07-0.035,0.105-0.035l0.105-0.035
		l0.633-0.105l0.281-0.035l0.105-0.035l0.598-0.035c0.316-0.047,0.574-0.059,0.773-0.035c0.088-1.307-0.627-1.752-2.145-1.336
		l-0.105,0.035l-0.281,0.035l-0.246,0.105l-0.105,0.035l-0.352,0.105c-0.182,0.123-0.346,0.205-0.492,0.246
		c-0.199,0.152-0.398,0.258-0.598,0.316l-0.246-0.457l-0.07-0.035l-0.035-0.105l-0.07-0.07l-0.035-0.105
		c-0.152-0.176-0.258-0.34-0.316-0.492c-0.094-0.088-0.152-0.182-0.176-0.281c-0.152-0.146-0.246-0.299-0.281-0.457l0.07-0.035
		l0.105-0.07l0.07-0.035c0.158-0.105,0.299-0.188,0.422-0.246c0.094-0.064,0.188-0.1,0.281-0.105l0.07-0.07
		c0.217-0.1,0.404-0.17,0.562-0.211l0.07-0.07h0.105c0.111-0.07,0.205-0.117,0.281-0.141h0.105c0.158-0.082,0.311-0.129,0.457-0.141
		c0.322-0.135,0.627-0.205,0.914-0.211l0.105-0.035C137.705,24.718,139.041,25.116,140.107,26.019z M137.787,30.624h-0.105
		c-0.141,0.041-0.258,0.064-0.352,0.07h-0.105c-0.035,0.023-0.07,0.035-0.105,0.035l-0.141,0.035h-0.105l-0.141,0.035l-0.211,0.035
		c-0.035,0.023-0.07,0.035-0.105,0.035l-0.141,0.035l-0.105,0.035c-0.328,0.082-0.586,0.164-0.773,0.246
		c-0.246,0.328-0.316,0.668-0.211,1.02c0.586,0.82,1.43,0.961,2.531,0.422l0.281-0.422l0.035-0.141v-0.141v-0.105v-0.176v-0.105
		v-0.141v-0.105v-0.703h-0.105L137.787,30.624z"/>
	<path fill="#1D1D1B" d="M142.603,25.245h0.176h0.141h0.633h0.141h0.141h0.141h0.598h0.105h0.422l0.07,0.246l0.281,0.773
		l0.035,0.105l0.035,0.141l0.035,0.07l0.035,0.105l0.105,0.281c0.07,0.176,0.117,0.316,0.141,0.422
		c0.094,0.193,0.152,0.369,0.176,0.527c0.094,0.176,0.152,0.34,0.176,0.492l0.07,0.105l0.176,0.562l0.07,0.105v0.105
		c0.094,0.158,0.152,0.311,0.176,0.457l0.035,0.105l0.035,0.105c0.023,0.035,0.035,0.07,0.035,0.105
		c0.035,0.07,0.059,0.141,0.07,0.211c0.047,0.059,0.082,0.152,0.105,0.281c0.076,0.129,0.123,0.258,0.141,0.387l0.105-0.246
		l0.105-0.211l0.07-0.246l0.246-0.668l0.07-0.246l0.07-0.211c0.076-0.141,0.123-0.27,0.141-0.387l0.07-0.141l0.035-0.141
		c0.064-0.135,0.111-0.264,0.141-0.387l0.176-0.422l0.105-0.387l0.07-0.176c0.082-0.182,0.141-0.346,0.176-0.492l0.07-0.141
		l0.105-0.246c0.035-0.164,0.07-0.293,0.105-0.387l0.035-0.105l0.176-0.457h0.211h0.176h0.141h0.633h0.141h0.141h0.141h0.598h0.105
		h0.422c-0.029,0.094-0.064,0.176-0.105,0.246c-0.018,0.135-0.053,0.264-0.105,0.387l-0.07,0.105v0.105l-0.141,0.281l-0.035,0.105
		l-0.035,0.211l-0.035,0.07l-0.035,0.105l-0.176,0.457l-0.035,0.141l-0.07,0.141l-0.035,0.105l-0.035,0.105l-0.035,0.105
		l-0.035,0.105l-0.035,0.105l-0.176,0.422l-0.105,0.387l-0.105,0.246l-0.105,0.246l-0.035,0.105l-0.141,0.457l-0.035,0.105
		c-0.1,0.217-0.17,0.404-0.211,0.562l-0.105,0.246l-0.035,0.105c-0.129,0.434-0.258,0.773-0.387,1.02
		c-0.047,0.223-0.105,0.41-0.176,0.562l-0.07,0.211l-0.211,0.598l-0.07,0.211l-0.07,0.176l-0.07,0.141l-0.035,0.176
		c-0.088,0.182-0.146,0.346-0.176,0.492l-0.07,0.141l-0.035,0.07c-0.029,0.123-0.064,0.229-0.105,0.316l-0.035,0.141l-0.07,0.141
		l-0.105,0.352l-0.035,0.07l-0.105,0.246l-0.035,0.07l-0.07,0.246l-0.176,0.457l-0.035,0.07l-0.07,0.07
		c-0.129,0.211-0.258,0.375-0.387,0.492l-0.105,0.035c-0.24,0.193-0.475,0.322-0.703,0.387h-0.105
		c-0.275,0.053-0.51,0.076-0.703,0.07h-0.176h-0.105c-0.094-0.035-0.188-0.047-0.281-0.035h-0.141h-0.141l-0.141-0.035h-0.176
		h-0.105l-0.176-0.035h-0.105l-0.105-0.035h-0.105h-0.105c-0.234-0.064-0.445-0.1-0.633-0.105v-0.141l0.035-0.176v-0.141
		l0.105-0.633V36.46l0.035-0.07v-0.141l0.035-0.105v-0.141l0.105-0.633c1.295,0.328,2.057,0.152,2.285-0.527
		c0.006-0.27-0.029-0.504-0.105-0.703l-0.105-0.246l-0.035-0.07l-0.07-0.316c-0.029-0.023-0.041-0.047-0.035-0.07
		c-0.129-0.264-0.211-0.498-0.246-0.703c-0.064-0.088-0.1-0.182-0.105-0.281c-0.088-0.17-0.146-0.322-0.176-0.457l-0.035-0.07
		l-0.105-0.246c-0.041-0.193-0.1-0.357-0.176-0.492l-0.035-0.176l-0.105-0.246l-0.07-0.246c-0.053-0.117-0.088-0.211-0.105-0.281
		c-0.076-0.176-0.123-0.316-0.141-0.422l-0.246-0.598l-0.035-0.211l-0.07-0.07l-0.035-0.141l-0.281-0.773l-0.07-0.211l-0.07-0.141
		l-0.035-0.176l-0.07-0.176l-0.07-0.141l-0.07-0.316l-0.07-0.105l-0.105-0.352l-0.035-0.105l-0.07-0.105l-0.035-0.105l-0.035-0.105
		l-0.035-0.141l-0.211-0.598H142.603z"/>
	<path fill="#1D1D1B" d="M161.095,26.37l-0.105,0.105l-0.105,0.105c-0.076,0.105-0.146,0.188-0.211,0.246l-0.141,0.141l-0.105,0.105
		c-0.105,0.141-0.211,0.246-0.316,0.316l-0.035,0.07l-0.07,0.105l-0.07,0.035l-0.457,0.527c-1.529-1.271-2.713-1.4-3.551-0.387
		c-0.006,0.27,0.053,0.504,0.176,0.703l0.141,0.035l0.105,0.07h0.105l0.105,0.035l0.281,0.035l0.562,0.141
		c1.283,0.012,2.326,0.41,3.129,1.195c0.674,1.002,0.814,2.01,0.422,3.023c-0.387,0.879-0.984,1.465-1.793,1.758
		c-2.631,0.744-4.834,0.275-6.609-1.406c0.111-0.146,0.217-0.264,0.316-0.352l0.141-0.07c0.146-0.199,0.311-0.352,0.492-0.457
		l0.105-0.141l0.07-0.07l0.07-0.07l0.07-0.07l0.07-0.035l0.07-0.035c0.17-0.217,0.334-0.381,0.492-0.492
		c1.172,1.154,2.355,1.553,3.551,1.195l0.035-0.07c0.164-0.105,0.293-0.234,0.387-0.387c0.023-0.357-0.094-0.627-0.352-0.809h-0.105
		l-0.07-0.07h-0.105l-0.105-0.035l-0.07-0.07c-0.357-0.059-0.65-0.129-0.879-0.211c-2.068-0.094-3.229-1.008-3.48-2.742
		c0.029-2.086,1.154-3.223,3.375-3.41C158.423,24.823,159.912,25.304,161.095,26.37z"/>
	<path fill="#1D1D1B" d="M104.564,52.294c-0.193,2.056-1.131,3.427-2.812,4.113c-1.541,0.48-2.889,0.281-4.043-0.598v3.48h-0.598
		h-0.141h-0.176h-0.457h-0.141H95.6h-0.105h-0.422v-0.281v-0.281v-0.281v-0.281v-0.246v-0.281v-0.246v-0.105V57.11v-0.105v-0.141
		v-0.105v-0.703v-0.141v-0.633v-0.211v-0.246v-0.703v-0.281V53.56v-0.281v-0.281v-0.703v-0.105v-0.105v-1.09v-0.246v-0.211v-0.246
		V50.08v-0.176v-0.211v-0.141v-0.633v-0.387v-0.141v-0.141v-0.141V47.97v-0.598v-0.105v-0.422h0.598h0.141h0.176h0.457h0.141h0.598
		h0.281h0.246v0.387c0.68-0.451,1.371-0.721,2.074-0.809C103.176,46.453,104.77,48.41,104.564,52.294z M97.814,49.974v0.105
		l-0.07,0.281l-0.07,0.246v2.004c0.287,0.996,0.908,1.558,1.863,1.687c1.078,0.076,1.781-0.345,2.109-1.265
		c0.328-0.99,0.34-1.928,0.035-2.812c-0.311-1.066-1.072-1.547-2.285-1.441C98.682,48.996,98.154,49.394,97.814,49.974z"/>
	<path fill="#1D1D1B" d="M114.865,49.306c0.082,0.105,0.141,0.211,0.176,0.316c0.504,2.039,0.258,3.832-0.738,5.378
		c-1.4,1.611-3.064,2.139-4.992,1.582c-2.027-0.691-3.129-2.133-3.305-4.324c-0.176-3.352,1.23-5.297,4.219-5.836
		C112.533,46.406,114.08,47.367,114.865,49.306z M108.678,51.732c-0.035,1.506,0.586,2.396,1.863,2.671
		c1.535-0.105,2.227-1.23,2.074-3.375c-0.182-1.482-0.932-2.232-2.25-2.25C109.088,49.33,108.525,50.314,108.678,51.732z"/>
	<path fill="#1D1D1B" d="M125.13,47.97l-0.105,0.105l-0.105,0.105c-0.076,0.105-0.146,0.188-0.211,0.246l-0.141,0.141l-0.105,0.105
		c-0.105,0.141-0.211,0.246-0.316,0.316l-0.035,0.07l-0.07,0.105l-0.07,0.035l-0.457,0.527c-1.529-1.271-2.713-1.4-3.551-0.387
		c-0.006,0.27,0.053,0.504,0.176,0.703l0.141,0.035l0.105,0.07h0.105l0.105,0.035l0.281,0.035l0.562,0.141
		c1.283,0.012,2.326,0.41,3.129,1.195c0.674,1.002,0.814,2.01,0.422,3.023c-0.387,0.879-0.984,1.465-1.793,1.758
		c-2.631,0.744-4.833,0.275-6.609-1.406c0.111-0.146,0.217-0.264,0.316-0.352l0.141-0.07c0.146-0.199,0.311-0.352,0.492-0.457
		l0.105-0.14l0.07-0.07l0.07-0.07l0.07-0.07l0.07-0.035l0.07-0.035c0.17-0.217,0.334-0.381,0.492-0.492
		c1.171,1.154,2.355,1.552,3.55,1.195l0.035-0.07c0.164-0.105,0.293-0.234,0.387-0.386c0.023-0.357-0.094-0.627-0.352-0.809h-0.105
		l-0.07-0.07h-0.105l-0.105-0.035l-0.07-0.07c-0.357-0.059-0.65-0.129-0.879-0.211c-2.068-0.094-3.228-1.008-3.48-2.742
		c0.029-2.086,1.154-3.223,3.375-3.41C122.458,46.423,123.947,46.904,125.13,47.97z"/>
	<path fill="#1D1D1B" d="M134.658,47.97l-0.105,0.105l-0.105,0.105c-0.076,0.105-0.146,0.188-0.211,0.246l-0.141,0.141l-0.105,0.105
		c-0.105,0.141-0.211,0.246-0.316,0.316l-0.035,0.07l-0.07,0.105l-0.07,0.035l-0.457,0.527c-1.529-1.271-2.713-1.4-3.551-0.387
		c-0.006,0.27,0.053,0.504,0.176,0.703l0.141,0.035l0.105,0.07h0.105l0.105,0.035l0.281,0.035l0.562,0.141
		c1.283,0.012,2.326,0.41,3.129,1.195c0.674,1.002,0.814,2.01,0.422,3.023c-0.387,0.879-0.984,1.465-1.793,1.758
		c-2.631,0.744-4.834,0.275-6.609-1.406c0.111-0.146,0.217-0.264,0.316-0.352l0.141-0.07c0.146-0.199,0.311-0.352,0.492-0.457
		l0.105-0.14l0.07-0.07l0.07-0.07l0.07-0.07l0.07-0.035l0.07-0.035c0.17-0.217,0.334-0.381,0.492-0.492
		c1.172,1.154,2.355,1.552,3.551,1.195l0.035-0.07c0.164-0.105,0.293-0.234,0.387-0.386c0.023-0.357-0.094-0.627-0.352-0.809h-0.105
		l-0.07-0.07h-0.105l-0.105-0.035l-0.07-0.07c-0.357-0.059-0.65-0.129-0.879-0.211c-2.068-0.094-3.229-1.008-3.48-2.742
		c0.029-2.086,1.154-3.223,3.375-3.41C131.986,46.423,133.474,46.904,134.658,47.97z"/>
	<path fill="#1D1D1B" d="M139.404,44.173c0.018,0.662-0.205,1.178-0.668,1.547c-1.061,0.422-1.811,0.164-2.25-0.773
		c-0.234-1.055,0.141-1.734,1.125-2.039C138.578,42.89,139.175,43.312,139.404,44.173z M137.189,46.845h0.141h0.176h0.457h0.141
		h0.598h0.281h0.246v9.597h-0.492h-0.387h-0.176h-0.105h-0.141h-0.105h-0.703h-0.105h-0.422v-0.105v-0.176v-0.105v-0.141V55.81
		v-0.703V54.86V54.72v-0.176v-0.141v-0.176v-0.457V53.63v-0.598v-0.105v-0.422v-0.246v-0.246v-0.211v-0.246v-0.211v-0.246v-0.211
		v-0.598V50.08v-0.176v-0.211v-0.141v-0.633v-0.387v-0.141v-0.141v-0.141V47.97v-0.598v-0.105v-0.422H137.189z"/>
	<path fill="#1D1D1B" d="M142.533,43.013h0.141h0.176h0.457h0.141h0.598h0.281h0.246v4.184c1.846-1.061,3.557-1.025,5.133,0.105
		c0.164,0.082,0.281,0.164,0.352,0.246l0.387,0.422c1.102,2.01,1.301,4.002,0.598,5.977c-0.621,1.558-1.688,2.449-3.199,2.671
		c-1.277,0.205-2.355-0.064-3.234-0.809c-0.047,0.217-0.059,0.416-0.035,0.598h-0.598h-0.141h-0.176h-0.457h-0.141h-0.598h-0.105
		h-0.422v-0.281v-0.703v-0.281v-0.105v-0.141v-0.633v-0.105v-0.703v-0.281v-0.141V52.4v-0.105v-0.105v-1.09v-0.246v-0.105v-0.141
		v-0.633v-0.492v-0.105v-0.176v-0.105v-0.141v-0.105v-0.703v-0.598v-0.105v-0.422v-0.457v-0.141v-0.598V45.72v-0.422v-0.387v-0.176
		v-0.457v-0.141v-0.598v-0.105v-0.422H142.533z M144.712,49.939l-0.141,0.598v2.18c0.434,1.154,1.219,1.681,2.355,1.582
		c1.213-0.258,1.822-1.007,1.828-2.25c0.223-2.15-0.598-3.24-2.461-3.27C145.58,48.978,145.052,49.365,144.712,49.939z"/>
	<path fill="#1D1D1B" d="M153.572,43.013h0.176h0.141h0.176h0.141h0.176h0.457h0.141h0.598h0.281h0.246v10.688
		c0.363,0.427,0.879,0.521,1.547,0.281l0.035,0.141v0.176c0.029,0.129,0.041,0.258,0.035,0.387c0.041,0.146,0.064,0.275,0.07,0.387
		l0.035,0.316v0.141c0.023,0.035,0.035,0.07,0.035,0.105l0.07,0.703h-0.141l-0.105,0.035l-0.141,0.035l-0.246,0.035h-0.105
		c-0.264,0.064-0.486,0.1-0.668,0.105c-1.564,0.316-2.584-0.188-3.059-1.512c-0.006-0.117-0.018-0.211-0.035-0.281v-0.105v-0.703
		v-0.141V53.63V53.49v-0.176v-0.457v-0.141v-0.598v-0.105v-0.422v-0.141v-0.176v-0.457v-0.141V50.08v-0.105v-0.422v-0.246v-0.281
		v-0.281v-0.281v-0.105v-0.105v-1.09v-0.246v-0.211v-0.246v-0.211v-0.176v-0.211V45.72v-0.633v-0.387V44.56v-0.141v-0.141v-0.141
		v-0.598v-0.105v-0.422H153.572z"/>
	<path fill="#1D1D1B" d="M167.74,50.783l0.105,0.457v0.246c0.047,0.416,0.059,0.756,0.035,1.02l-0.105-0.035h-0.105h-0.703h-0.105
		h-0.105h-1.09h-0.246h-0.211h-0.246h-0.211h-0.176h-0.211h-0.141h-0.633h-0.387h-0.141h-0.141h-0.141h-0.141h-0.598h-0.105h-0.422
		c0.129,1.02,0.656,1.628,1.582,1.828c1.154,0.176,2.115-0.117,2.883-0.878l0.281,0.316c0.111,0.076,0.193,0.158,0.246,0.246
		l0.07,0.035l0.035,0.07c0.117,0.088,0.211,0.17,0.281,0.246l0.07,0.105c0.041,0.023,0.064,0.047,0.07,0.07l0.07,0.035l0.07,0.07
		l0.035,0.07l0.07,0.035l0.035,0.07c0.117,0.088,0.211,0.17,0.281,0.246c-1.107,1.406-2.631,1.934-4.57,1.582
		c-2.373-0.404-3.721-1.846-4.043-4.324c-0.211-3.141,1.078-5.039,3.867-5.695C165.718,46.558,167.347,47.953,167.74,50.783z
		 M161.552,50.501h0.211h0.246h0.457h1.09h0.492h0.105h0.176h0.105h0.141h0.105h0.703c-0.264-1.055-0.908-1.629-1.934-1.723
		C162.373,48.949,161.74,49.523,161.552,50.501z"/>
	<path fill="#1D1D1B" d="M111.684,68.41h0.176H112h0.176h0.141h0.176h0.457h0.141h0.598h0.281h0.246l0.035,6.293
		c0.615,1.184,1.506,1.441,2.672,0.773c0.352-0.281,0.598-0.609,0.738-0.984v-0.105v-0.703v-0.246v-0.246v-0.141v-0.176v-0.457
		v-0.141V71.68v-0.105v-0.422v-0.141v-0.141v-0.105v-0.633v-0.457v-0.141v-0.598v-0.105V68.41h0.703h0.176h0.105h0.14h0.141h0.141
		h0.141h0.598h0.105h0.422v9.598h-0.703h-0.176h-0.105h-0.141h-0.141h-0.141h-0.141h-0.597h-0.105h-0.422v-0.633
		c-1.395,1.008-2.789,1.125-4.184,0.352c-0.633-0.404-1.102-0.885-1.406-1.441L112,76.25l-0.035-0.105l-0.035-0.105
		c-0.053-0.117-0.088-0.211-0.105-0.281l-0.035-0.105c-0.111-0.363-0.182-0.656-0.211-0.879L111.543,74v-0.246v-0.211v-0.598V72.84
		v-0.422v-0.457V71.82v-0.598v-0.105v-0.422v-0.387v-0.176v-0.457v-0.141v-0.598v-0.105V68.41H111.684z"/>
	<path fill="#1D1D1B" d="M131.335,70.133l0.035,0.105l0.035,0.105l0.035,0.105c0.059,0.1,0.094,0.193,0.105,0.281l0.141,0.422v0.105
		c0.082,0.422,0.117,0.762,0.105,1.02v5.73h-0.703h-0.176h-0.105h-0.141h-0.141h-0.141h-0.141h-0.598h-0.105h-0.422v-0.105v-0.176
		v-0.105V77.48v-0.105v-0.703V76.18v-0.387v-0.176v-0.105v-0.141v-0.105v-0.703v-0.141v-0.387v-0.352v-0.633v-0.105V72.84v-0.141
		v-0.633v-0.141c-0.059-0.146-0.094-0.275-0.105-0.387c-0.281-0.492-0.656-0.809-1.125-0.949c-0.973-0.023-1.688,0.352-2.145,1.125
		l-0.07,0.246v6.047h-0.703h-0.176h-0.105h-0.141h-0.141h-0.141h-0.141h-0.598h-0.105h-0.422v-0.105v-0.176v-0.105V77.48v-0.105
		v-0.703v-0.246v-0.141v-0.176v-0.141v-0.176v-0.457v-0.141v-0.598v-0.105V74.07v-0.246v-0.246v-0.211v-0.246V72.91v-0.246v-0.211
		v-0.598v-0.211v-0.176v-0.211v-0.141v-0.633v-0.387v-0.141v-0.141v-0.141v-0.141v-0.598v-0.105V68.41h0.703h0.176h0.105h0.141
		h0.141h0.141h0.141h0.598h0.105h0.422c-0.012,0.24,0,0.439,0.035,0.598c0.586-0.463,1.207-0.744,1.863-0.844
		C129.179,68.111,130.433,68.768,131.335,70.133z"/>
	<path fill="#1D1D1B" d="M137.91,64.754v3.586h0.141h0.387h0.176h0.457h0.141h0.598h0.281h0.246v2.215h-0.141h-0.387h-0.176h-0.457
		h-0.141h-0.598h-0.105h-0.422v4.781l0.07,0.211c0.451,0.457,1.166,0.504,2.145,0.141l0.035,0.141l0.176,0.562l0.035,0.105
		l0.035,0.281l0.105,0.246v0.105c0.053,0.146,0.088,0.275,0.105,0.387l0.105,0.352c-1.459,0.457-2.842,0.551-4.148,0.281
		c-0.398-0.199-0.715-0.434-0.949-0.703c-0.17-0.305-0.287-0.562-0.352-0.773v-0.246c-0.041-0.129-0.053-0.246-0.035-0.352v-0.141
		v-0.141v-0.105v-0.633v-0.457v-0.141v-0.598v-0.105v-0.422v-0.457v-0.141v-0.633v-0.141V71.82V71.68v-0.598v-0.105v-0.422h-0.141
		h-0.141h-0.141h-0.598h-0.105h-0.422v-0.176v-0.141v-0.176v-0.457v-0.141v-0.598v-0.105V68.34h0.141h0.141h0.141h0.598h0.281h0.246
		v-0.598v-0.141v-0.598v-0.387v-0.141v-0.598v-0.105v-0.422l0.141-0.035l0.07-0.035l0.316-0.07c0.135-0.059,0.252-0.094,0.352-0.105
		l0.457-0.141l0.176-0.035l0.352-0.141c0.299-0.059,0.545-0.129,0.738-0.211C137.886,64.631,137.91,64.689,137.91,64.754z"/>
	<path fill="#1D1D1B" d="M145.152,65.773c0.018,0.662-0.205,1.178-0.668,1.547c-1.061,0.422-1.811,0.164-2.25-0.773
		c-0.234-1.055,0.141-1.734,1.125-2.039C144.326,64.49,144.923,64.912,145.152,65.773z M142.937,68.445h0.141h0.176h0.457h0.141
		h0.598h0.281h0.246v9.598h-0.492h-0.387h-0.176h-0.105h-0.141h-0.105h-0.703h-0.105h-0.422v-0.105v-0.176v-0.105v-0.141V77.41
		v-0.703v-0.246V76.32v-0.176v-0.141v-0.176v-0.457V75.23v-0.598v-0.105v-0.422v-0.246v-0.246v-0.211v-0.246v-0.211v-0.246v-0.211
		v-0.598V71.68v-0.176v-0.211v-0.141V70.52v-0.387v-0.141v-0.141v-0.141V69.57v-0.598v-0.105v-0.422H142.937z"/>
	<path fill="#1D1D1B" d="M147.683,64.613h0.176H148h0.176h0.141h0.176h0.457h0.141h0.598h0.281h0.246v10.688
		c0.363,0.428,0.879,0.521,1.547,0.281l0.035,0.141v0.176c0.029,0.129,0.041,0.258,0.035,0.387c0.041,0.146,0.064,0.275,0.07,0.387
		l0.035,0.316v0.141c0.023,0.035,0.035,0.07,0.035,0.105l0.07,0.703h-0.141l-0.105,0.035l-0.141,0.035l-0.246,0.035h-0.105
		c-0.264,0.064-0.486,0.1-0.668,0.105c-1.564,0.316-2.584-0.188-3.059-1.512c-0.006-0.117-0.018-0.211-0.035-0.281V76.25v-0.703
		v-0.141V75.23V75.09v-0.176v-0.457v-0.141v-0.598v-0.105v-0.422v-0.141v-0.176v-0.457v-0.141V71.68v-0.105v-0.422v-0.246v-0.281
		v-0.281v-0.281v-0.105v-0.105v-1.09v-0.246v-0.211v-0.246v-0.211v-0.176v-0.211V67.32v-0.633v-0.387V66.16V66.02v-0.141v-0.141
		v-0.598v-0.105v-0.422H147.683z"/>
	<path fill="#1D1D1B" d="M102.666,91.943c0.252,3.633-1.025,6.117-3.832,7.453c-2.713,0.984-5.021,0.598-6.926-1.16
		c-2.027-2.285-2.59-4.91-1.688-7.875c0.984-2.818,2.859-4.33,5.625-4.535C99.824,85.855,102.098,87.895,102.666,91.943z
		 M92.822,93.42c0.088,1.688,0.779,2.883,2.074,3.586h0.105c0.111,0.064,0.217,0.1,0.316,0.105l0.07,0.035l0.422,0.105
		c2.473-0.023,3.762-1.289,3.867-3.797c0.217-3.223-1.037-4.875-3.762-4.957C93.666,88.926,92.635,90.566,92.822,93.42z"/>
	<path fill="#1D1D1B" d="M113.354,92.787l-0.141,0.07c-0.152,0.035-0.281,0.082-0.387,0.141l-0.141,0.035l-0.141,0.035
		c-0.129,0.07-0.258,0.117-0.387,0.141c-0.035,0.023-0.07,0.035-0.105,0.035c-0.094,0.059-0.188,0.094-0.281,0.105l-0.246,0.105
		c-0.258,0.111-0.48,0.182-0.668,0.211c-0.357-1.119-1.072-1.682-2.145-1.688c-1.154,0.486-1.717,1.318-1.688,2.496
		c-0.123,1.037,0.123,1.904,0.738,2.602c0.598,0.557,1.23,0.686,1.898,0.387c0.639-0.357,1.037-0.861,1.195-1.512h0.105l0.141,0.07
		l0.246,0.07l0.07,0.07c0.24,0.053,0.439,0.123,0.598,0.211l0.105,0.035l0.141,0.035l0.105,0.035
		c0.088,0.053,0.182,0.088,0.281,0.105l0.105,0.035l0.07,0.07c0.211,0.047,0.387,0.105,0.527,0.176
		c-0.973,2.279-2.613,3.311-4.922,3.094c-2.508-0.463-3.867-1.975-4.078-4.535c-0.152-3.311,1.242-5.244,4.184-5.801
		C110.963,89.6,112.568,90.654,113.354,92.787z"/>
	<path fill="#1D1D1B" d="M118.697,86.354v3.586h0.14h0.387h0.176h0.457h0.141h0.598h0.281h0.246v2.215h-0.141h-0.387h-0.176h-0.457
		h-0.141h-0.598h-0.105h-0.421v4.781l0.07,0.211c0.451,0.457,1.166,0.504,2.144,0.141l0.035,0.141l0.176,0.562l0.035,0.105
		l0.035,0.281l0.105,0.246v0.105c0.053,0.146,0.088,0.275,0.105,0.387l0.105,0.352c-1.459,0.457-2.841,0.551-4.148,0.281
		c-0.398-0.199-0.715-0.434-0.949-0.703c-0.17-0.305-0.287-0.562-0.352-0.773v-0.246c-0.041-0.129-0.053-0.246-0.035-0.352v-0.141
		v-0.141v-0.105v-0.633v-0.457v-0.141v-0.598v-0.105v-0.422v-0.457v-0.141v-0.633v-0.141V93.42v-0.141v-0.598v-0.105v-0.422h-0.141
		h-0.141h-0.141h-0.598H114.9h-0.422v-0.176v-0.141v-0.176v-0.457v-0.141v-0.598v-0.105v-0.422h0.141h0.141h0.141h0.598h0.281h0.246
		v-0.598v-0.141v-0.598v-0.387v-0.141v-0.598v-0.105v-0.422l0.141-0.035l0.07-0.035l0.316-0.07c0.135-0.059,0.252-0.094,0.352-0.105
		l0.457-0.141l0.176-0.035l0.352-0.141c0.299-0.059,0.545-0.129,0.738-0.211C118.674,86.23,118.697,86.289,118.697,86.354z"/>
	<path fill="#1D1D1B" d="M137.787,89.623c0.246,1.857-0.188,3.416-1.301,4.676c-0.041,0.076-0.088,0.135-0.141,0.176l-0.035,0.07
		c-0.205,0.264-0.393,0.463-0.562,0.598c-0.188,0.246-0.398,0.422-0.633,0.527l-0.035,0.07c-0.275,0.205-0.51,0.357-0.703,0.457
		l-0.105,0.105l-0.141,0.07l-0.105,0.07l-0.105,0.07l-0.07,0.07l-0.105,0.035c-0.023,0.041-0.047,0.064-0.07,0.07l-0.07,0.07
		l-0.246,0.141c-0.141,0.064-0.258,0.135-0.352,0.211h0.246h0.105h0.141h0.105h0.176h0.105h0.141h0.105h0.703h0.141h0.141h0.105
		h0.633h0.457h0.141h0.598h0.105h0.422v2.145c0.006,0.135-0.018,0.264-0.07,0.387H137.4h-0.105h-1.09h-0.141h-0.176h-0.141h-0.176
		h-0.457h-0.141h-0.598h-0.105h-0.422h-0.246h-0.246h-0.211H132.9h-0.211h-0.246h-0.211h-0.598h-0.211h-0.176h-0.211h-0.141h-0.633
		h-0.387h-0.141h-0.141h-0.141h-0.141h-0.598h-0.105h-0.422v-0.176v-0.141V99.15V99.01v-0.176v-0.457v-0.141v-0.598v-0.105v-0.422
		l0.422-0.281l0.141-0.07l0.176-0.07l0.176-0.141l0.07-0.035c0.105-0.082,0.199-0.141,0.281-0.176l0.141-0.105l0.387-0.211
		l0.105-0.105l0.07-0.07l0.07-0.035c0.117-0.076,0.211-0.146,0.281-0.211l0.105-0.035c0.029-0.035,0.064-0.059,0.105-0.07
		c0.229-0.205,0.428-0.357,0.598-0.457l0.141-0.105l0.141-0.07l0.07-0.07c0.129-0.082,0.234-0.164,0.316-0.246l0.105-0.07
		l0.105-0.07l0.105-0.035l0.105-0.105l0.105-0.035l0.07-0.105l0.105-0.035l0.07-0.07l0.246-0.141
		c0.199-0.205,0.387-0.357,0.562-0.457l0.07-0.105l0.141-0.141l0.668-0.633l0.035-0.105l0.176-0.281l0.246-0.422
		c0.199-0.662,0.246-1.283,0.141-1.863l-0.352-0.633c-0.041-0.023-0.064-0.047-0.07-0.07l-0.07-0.035l-0.07-0.105
		c-0.041-0.023-0.064-0.047-0.07-0.07c-0.205-0.088-0.369-0.193-0.492-0.316c-2.244-0.457-3.357,0.445-3.34,2.707h-0.141h-0.633
		h-0.141h-0.141h-0.141h-0.105h-0.141h-0.105h-0.141h-0.633h-0.457c-0.076-3.246,1.365-5.039,4.324-5.379
		C135.337,85.656,137.224,86.875,137.787,89.623z"/>
	<path fill="#1D1D1B" d="M151.708,92.295c0.082,2.209-0.41,4.143-1.477,5.801l-0.105,0.07c-0.023,0.041-0.047,0.064-0.07,0.07
		c-0.082,0.111-0.152,0.193-0.211,0.246l-0.07,0.035c-0.158,0.17-0.299,0.299-0.422,0.387c-1.857,1.113-3.709,1.301-5.555,0.562
		c-1.91-0.844-2.988-2.332-3.234-4.465c-0.387-2.08-0.246-4.002,0.422-5.766c0.885-2.227,2.514-3.363,4.887-3.41
		C149.564,85.967,151.509,88.123,151.708,92.295z M143.306,91.873l-0.035,0.105v0.211c-0.029,0.258-0.041,0.469-0.035,0.633v0.105
		v0.387l0.035,0.07c0,0.223,0.012,0.41,0.035,0.562l0.035,0.527l-0.035,0.105l0.035,0.105c0.023,0.135,0.035,0.229,0.035,0.281
		c0.023,0.035,0.035,0.07,0.035,0.105c0.076,0.17,0.123,0.322,0.141,0.457c0.029,0.023,0.041,0.047,0.035,0.07
		c0.082,0.176,0.141,0.328,0.176,0.457c0.041,0.023,0.064,0.047,0.07,0.07c0.135,0.229,0.275,0.404,0.422,0.527l0.07,0.07l0.07,0.07
		l0.07,0.035l0.105,0.07l0.035,0.07c0.188,0.082,0.34,0.164,0.457,0.246c2.965,0.639,4.195-1.424,3.691-6.188
		c-0.375-1.822-1.418-2.701-3.129-2.637C144.003,88.879,143.23,90.039,143.306,91.873z"/>
	<path fill="#1D1D1B" d="M156.455,86.213h0.633h0.457h0.141h0.598h0.105h0.422v13.43h-0.457h-0.141h-0.633h-0.141h-0.141h-0.141
		h-0.598h-0.105h-0.422v-0.246v-0.105v-0.105v-0.457v-0.105v-0.176v-0.105v-0.141v-0.105v-0.703v-0.281v-0.492v-0.105v-0.176v-0.105
		v-0.141v-0.105v-0.703v-0.598V94.58v-0.422v-0.141v-0.105v-0.703v-0.141v-0.105V92.33v-0.457v-0.141v-0.598v-0.105v-0.422h-0.598
		h-0.387h-0.141h-0.598h-0.105h-0.422v-0.141v-0.176V90.15v-0.176v-0.457v-0.141v-0.598v-0.105v-0.422
		c0.762,0.018,1.418-0.146,1.969-0.492l0.035-0.07c0.141-0.188,0.246-0.352,0.316-0.492v-0.105l0.07-0.246l0.176-0.633H156.455z"/>
	<path fill="#1D1D1B" d="M172.345,88.709c0.568,1.77,0.123,3.07-1.336,3.902c1.219,0.656,1.816,1.617,1.793,2.883
		c0.041,1.377-0.416,2.467-1.371,3.27c-1.699,1.148-3.516,1.441-5.449,0.879c-1.91-0.492-2.988-1.652-3.234-3.48
		c-0.17-1.705,0.428-2.865,1.793-3.48c-1.395-0.932-1.875-2.15-1.441-3.656c0.662-1.904,2.068-2.936,4.219-3.094
		C169.82,85.826,171.496,86.752,172.345,88.709z M165.56,95.846c0.205,1.02,0.838,1.523,1.898,1.512
		c1.781,0.158,2.625-0.557,2.531-2.145c-0.41-0.955-1.266-1.377-2.566-1.266C166.152,94.082,165.531,94.715,165.56,95.846z
		 M165.912,89.412c-0.264,1.354,0.287,2.08,1.652,2.18c1.43,0.082,2.156-0.527,2.18-1.828c-0.393-0.984-1.143-1.418-2.25-1.301
		C166.785,88.562,166.257,88.879,165.912,89.412z"/>
</g>
<g>
	<path d="M21.864,93.048h0.188h0.07h0.07h0.727h0.164h0.141h0.164h0.141h0.117h0.141h0.094h0.422h0.258h0.094h0.094h0.094h0.094
		h0.398h0.07h0.281h0.07l0.047,0.023h0.07l0.164,0.023l0.07,0.023l0.328,0.07c1.465,0.703,2.082,1.812,1.852,3.328
		c-0.523,1.793-1.719,2.574-3.586,2.344h-0.094h-0.258h-0.117h-0.07h-0.094h-0.07h-0.469v3.141h-0.305H23.13h-0.422h-0.094h-0.094
		h-0.094h-0.398h-0.07h-0.281v-0.07v-0.094v-0.07v-0.094v-0.422v-0.188v-0.188v-0.07v-0.469v-0.094v-0.117v-0.094v-0.117V99.61
		v-0.094v-0.398v-0.07v-0.281v-0.094v-0.117v-0.305v-0.094v-0.398v-0.07v-0.281v-0.164v-0.188v-0.188v-0.188v-0.07v-0.07v-0.727
		v-0.164v-0.141v-0.164v-0.141v-0.117v-0.141v-0.094v-0.422v-0.258v-0.094v-0.094v-0.094v-0.094v-0.398v-0.07v-0.281H21.864z
		 M23.528,97.173h0.094h0.094h0.094h0.258h0.258h0.422h0.07h0.07h0.094h0.422h0.094c0.098-0.039,0.184-0.062,0.258-0.07
		c0.652-0.387,0.871-0.918,0.656-1.594c-0.145-0.336-0.371-0.57-0.68-0.703h-0.07c-0.242-0.07-0.461-0.094-0.656-0.07h-0.117h-0.094
		h-0.117h-0.305h-0.094H23.88h-0.07h-0.281V97.173z"/>
	<path d="M29.974,93.095h0.094h0.117h0.305h0.094h0.398h0.07h0.281v2.977c0.773-0.594,1.578-0.734,2.414-0.422
		c0.75,0.328,1.258,0.844,1.523,1.547v0.094c0.098,0.25,0.145,0.484,0.141,0.703v4.055h-0.398h-0.094h-0.117h-0.305h-0.094h-0.398
		h-0.07h-0.281v-0.164v-0.07v-0.07v-0.727v-0.07v-0.07v-0.305v-0.117v-0.141v-0.07v-0.469v-0.141v-0.07V99.47v-0.07v-0.117v-0.258
		v-0.258v-0.094v-0.07v-0.164v-0.07v-0.07v-0.07v-0.164l-0.023-0.141c-0.051-0.105-0.082-0.199-0.094-0.281
		c-0.301-0.418-0.691-0.59-1.172-0.516c-0.359,0.105-0.648,0.285-0.867,0.539l-0.023,0.094c-0.074,0.145-0.121,0.277-0.141,0.398
		v3.891h-0.398h-0.094h-0.117h-0.305h-0.094h-0.398h-0.07h-0.281v-0.07v-0.094v-0.07v-0.094v-0.422v-0.188v-0.188v-0.07v-0.469
		v-0.094v-0.117v-0.094v-0.117v-0.305v-0.094v-0.398v-0.07v-0.281V98.72v-0.117v-0.305v-0.094v-0.398v-0.07v-0.281V97.29v-0.188
		v-0.188v-0.188v-0.07v-0.07V95.86v-0.164v-0.141v-0.164v-0.141v-0.117v-0.141v-0.094v-0.422V94.22v-0.094v-0.094v-0.094v-0.094
		v-0.398v-0.07v-0.281H29.974z"/>
	<path d="M37.896,93.071h0.117h0.094h0.117h0.094h0.117h0.305h0.094h0.398h0.07h0.281h0.094h0.094h0.305h0.094h0.094h0.234h0.258
		h0.07h0.258h0.188h0.117l0.07,0.023h0.094h0.094l0.047,0.023l0.375,0.047c2.379,0.785,3.41,2.512,3.094,5.18
		c-0.477,2.766-2.336,4-5.578,3.703h-0.094h-0.117h-0.094h-0.117h-0.094H38.95h-0.305h-0.094h-0.398h-0.07h-0.281v-0.094v-0.422
		v-0.188v-0.188v-0.07v-0.094v-0.422v-0.07v-0.469v-0.188v-0.094v-0.422v-0.07v-0.07v-0.727v-0.164v-0.07v-0.094v-0.422v-0.328
		v-0.07v-0.117v-0.07v-0.094v-0.07v-0.469v-0.398v-0.07v-0.281v-0.305v-0.094v-0.398v-0.07v-0.281v-0.258V94.22v-0.305v-0.094
		v-0.398v-0.07v-0.281H37.896z M39.63,100.22h0.328h0.07h0.188h0.07h0.07h0.305h0.094h0.07h0.469l0.164-0.023
		c0.145-0.016,0.27-0.047,0.375-0.094l0.141-0.023c1.031-0.574,1.492-1.473,1.383-2.695c-0.152-1.812-1.105-2.641-2.859-2.484h-0.07
		h-0.07H39.63V100.22z"/>
	<path d="M51.161,93.095h0.094h0.422h0.094h0.094h0.094h0.398h0.07h0.281v3.398h0.258h0.094h0.07h0.117h0.07h0.094h0.07h0.469h0.469
		h0.117h0.398h0.094h0.117h0.305h0.094h0.398h0.07h0.281v-0.164v-0.141v-0.164v-0.469v-0.164v-0.141v-0.117v-0.141v-0.094v-0.422
		V94.22v-0.094v-0.094v-0.094v-0.094v-0.398v-0.07v-0.281h0.305h0.094h0.422h0.094h0.094h0.094h0.398h0.188h0.164v8.953h-0.305
		h-0.094h-0.422h-0.094h-0.094h-0.094h-0.398h-0.07h-0.281v-0.164v-0.07v-0.07v-0.727v-0.164v-0.141v-0.164v-0.141v-0.117v-0.141
		v-0.094v-0.422v-0.258v-0.094v-0.094v-0.094v-0.094v-0.398v-0.07v-0.281h-0.141h-0.164h-0.141H55.45H55.31h-0.117h-0.141h-0.094
		h-0.422h-0.258h-0.094h-0.094h-0.094h-0.094h-0.398h-0.07h-0.281h-0.07h-0.07h-0.305v3.797h-0.305H52.31h-0.422h-0.094H51.7h-0.094
		h-0.398h-0.07h-0.281v-0.07v-0.094v-0.07v-0.094v-0.422v-0.188v-0.188v-0.07v-0.469v-0.094v-0.117v-0.094v-0.117v-0.305v-0.094
		v-0.398v-0.07v-0.281V98.72v-0.117v-0.305v-0.094v-0.398v-0.07v-0.281V97.29v-0.188v-0.188v-0.188v-0.07v-0.07V95.86v-0.164v-0.141
		v-0.164v-0.141v-0.117v-0.141v-0.094v-0.422V94.22v-0.094v-0.094v-0.094v-0.094v-0.398v-0.07v-0.281H51.161z"/>
	<path d="M65.81,98.274l0.07,0.305v0.164c0.031,0.277,0.039,0.504,0.023,0.68l-0.07-0.023h-0.07h-0.469h-0.07h-0.07h-0.727h-0.164
		h-0.141h-0.164h-0.141H63.7H63.56h-0.094h-0.422h-0.258h-0.094h-0.094h-0.094h-0.094h-0.398h-0.07h-0.281
		c0.086,0.68,0.438,1.086,1.055,1.219c0.77,0.117,1.41-0.078,1.922-0.586l0.188,0.211c0.074,0.051,0.129,0.105,0.164,0.164
		l0.047,0.023l0.023,0.047c0.078,0.059,0.141,0.113,0.188,0.164l0.047,0.07c0.027,0.016,0.043,0.031,0.047,0.047l0.047,0.023
		l0.047,0.047l0.023,0.047l0.047,0.023l0.023,0.047c0.078,0.059,0.141,0.113,0.188,0.164c-0.738,0.938-1.754,1.289-3.047,1.055
		c-1.582-0.27-2.48-1.23-2.695-2.883c-0.141-2.094,0.719-3.359,2.578-3.797C64.462,95.458,65.548,96.388,65.81,98.274z
		 M61.685,98.087h0.141h0.164h0.305h0.727h0.328h0.07h0.117h0.07H63.7h0.07h0.469c-0.176-0.703-0.605-1.086-1.289-1.148
		C62.231,97.052,61.81,97.435,61.685,98.087z"/>
	<path d="M67.333,93.095h0.117h0.094h0.117h0.094h0.117h0.305h0.094h0.398h0.188h0.164v7.125c0.242,0.285,0.586,0.348,1.031,0.188
		l0.023,0.094v0.117c0.02,0.086,0.027,0.172,0.023,0.258c0.027,0.098,0.043,0.184,0.047,0.258l0.023,0.211v0.094
		c0.016,0.023,0.023,0.047,0.023,0.07l0.047,0.469h-0.094l-0.07,0.023l-0.094,0.023l-0.164,0.023h-0.07
		c-0.176,0.043-0.324,0.066-0.445,0.07c-1.043,0.211-1.723-0.125-2.039-1.008c-0.004-0.078-0.012-0.141-0.023-0.188v-0.07v-0.469
		v-0.094v-0.117v-0.094v-0.117v-0.305v-0.094v-0.398v-0.07v-0.281V98.72v-0.117v-0.305v-0.094v-0.398v-0.07v-0.281V97.29v-0.188
		v-0.188v-0.188v-0.07v-0.07V95.86v-0.164v-0.141v-0.164v-0.141v-0.117v-0.141v-0.094v-0.422V94.22v-0.094v-0.094v-0.094v-0.094
		v-0.398v-0.07v-0.281H67.333z"/>
	<path d="M71.317,93.095h0.117h0.094h0.117h0.094h0.117h0.305h0.094h0.398h0.188h0.164v7.125c0.242,0.285,0.586,0.348,1.031,0.188
		l0.023,0.094v0.117c0.02,0.086,0.027,0.172,0.023,0.258c0.027,0.098,0.043,0.184,0.047,0.258l0.023,0.211v0.094
		c0.016,0.023,0.023,0.047,0.023,0.07l0.047,0.469H74.13l-0.07,0.023l-0.094,0.023l-0.164,0.023h-0.07
		c-0.176,0.043-0.324,0.066-0.445,0.07c-1.043,0.211-1.723-0.125-2.039-1.008c-0.004-0.078-0.012-0.141-0.023-0.188v-0.07v-0.469
		v-0.094v-0.117v-0.094v-0.117v-0.305v-0.094v-0.398v-0.07v-0.281V98.72v-0.117v-0.305v-0.094v-0.398v-0.07v-0.281V97.29v-0.188
		v-0.188v-0.188v-0.07v-0.07V95.86v-0.164v-0.141v-0.164v-0.141v-0.117v-0.141v-0.094v-0.422V94.22v-0.094v-0.094v-0.094v-0.094
		v-0.398v-0.07v-0.281H71.317z"/>
</g>
</svg>
