<?xml version="1.0" encoding="utf-8"?>
<!-- Generator: Adobe Illustrator 16.0.4, SVG Export Plug-In . SVG Version: 6.00 Build 0)  -->
<!DOCTYPE svg PUBLIC "-//W3C//DTD SVG 1.1//EN" "http://www.w3.org/Graphics/SVG/1.1/DTD/svg11.dtd">
<svg version="1.1" id="Layer_1" xmlns="http://www.w3.org/2000/svg" xmlns:xlink="http://www.w3.org/1999/xlink" x="0px" y="0px"
	 width="864.859px" height="367.244px" viewBox="0 0 864.859 367.244" enable-background="new 0 0 864.859 367.244"
	 xml:space="preserve">
<linearGradient id="SVGID_1_" gradientUnits="userSpaceOnUse" x1="432.5168" y1="108.5093" x2="432.5168" y2="366.4604" gradientTransform="matrix(1 0 0 -1 0.1401 366.2988)">
	<stop  offset="0" style="stop-color:#B4DBCF"/>
	<stop  offset="0.9987" style="stop-color:#008ED1"/>
</linearGradient>
<rect x="0.456" y="-0.162" fill="url(#SVGID_1_)" width="864.403" height="257.952"/>
<g>
	<path fill="#416C2B" d="M864.859,140.281c0,0.854,0,2.56,0,3.413c-6.04,0.853-12.081,2.56-18.121,4.266
		c-56.957,14.503-113.049,31.566-170.868,41.805c-75.938,14.502-160.51,11.943-236.449-0.854
		c-81.981-13.651-157.06-48.629-239.041-63.133c-44.011-6.826-70.833-16.813-115.679-15.241
		c-45.842,1.607-62.386,0.747-84.245,28.967v227.741h864.403v-223.55"/>
</g>
<g>
	<g>
		<path fill="#6E482B" d="M74.918,212.694c0,0,4.675-0.701,5.027-4.438c0.349-3.741,0.818-16.25-0.938-18.002
			c-1.75-1.752-6.074-4.207-6.309-4.792c-0.234-0.584-2.456-6.775-2.456-6.775h0.935c0,0,3.257,5.841,4.081,6.427
			c0.829,0.583,5.035,2.805,5.854,2.572c0.817-0.236-2.105-5.845-2.105-5.845v-6.546h0.821c0,0,0,6.075,0.583,6.66
			c0.586,0.584,2.922,5.465,4.092,4.836c1.167-0.625,8.999-9.744,8.999-9.744l0.936,0.819c0,0-7.247,8.387-7.013,8.924
			c0.233,0.544,9.232,0.776,9.232,0.776l7.014-5.261l0.466,0.818c0,0-6.428,5.844-7.247,6.077c-0.817,0.235-8.648,0.704-8.881,1.284
			c-0.235,0.587-0.055,16.229,0.173,17.58c0.43,2.521,4.97,4.629,4.97,4.629S84.969,211.41,74.918,212.694z"/>
		<path fill="#80563E" d="M80.158,190.208c0,0,1.192,2.139,1.192,7.204c0,5.067,0.098,13.015-1.863,14.008
			c0,0,3.727-0.596,5.214-0.521l-1.265-22.428C83.436,188.472,81.303,190.157,80.158,190.208z"/>
	</g>
	<g>
		<g>
			<path fill="#96C33B" d="M54.878,179.036c0,0,2.157,5.959,8.703,4.557c6.458-1.383,7.789-5.222,7.789-5.222
				s3.264,3.388,9.163,1.884c5.901-1.506,7.407-5.651,7.407-5.651s-0.422,5.039,4.621,7.351c5.046,2.317,8.435,0.935,8.435,0.935
				s-0.627,4.366,6.024,5.825c6.653,1.458,11.952-5.572,10.819-11.722c-1.126-6.153-6.049-8.538-6.049-8.538
				s4.972-4.196,2.082-10.633c-2.887-6.439-9.238-5.56-9.238-5.56s2.66-5.836-1.757-10.545c-4.59-4.893-9.916-3.214-11.548-2.838
				c0,0-2.469-7.461-11.623-5.571c-8.062,1.665-8.962,8.965-7.459,12.354c0,0-8.814-0.626-11.422,6.098
				c-3.322,8.575,3.14,13.305,3.14,13.305S50.725,166.879,54.878,179.036z"/>
			<path fill="#A9CA4B" d="M75.313,139.072c0.437-1.363,3.875-3.502,7.526-3.502c3.652,0,6.855,4.396,7.153,5.364
				c0,0,4.097-1.115,7.674,0c3.575,1.119,6.11,7.155,5.661,10.059c-0.447,2.906-3.798,2.608-3.647,0
				c0.147-2.607-1.27-6.259-4.023-7.302c-2.757-1.042-5.887,0.672-7.378-1.638c-1.49-2.311-4.396-3.875-6.854-3.353
				C78.964,139.223,74.643,141.159,75.313,139.072z"/>
		</g>
		<g>
			<path fill="#A8CB58" d="M99.796,183.235c0,0-1.522,4.208-6.147,3.217c-4.561-0.977-5.5-3.685-5.5-3.685s-2.306,2.391-6.472,1.33
				c-4.167-1.065-5.229-3.99-5.229-3.99s0.298,3.554-3.265,5.189s-5.955,0.662-5.955,0.662s0.443,3.08-4.256,4.111
				c-4.698,1.029-8.441-3.935-7.642-8.278c0.797-4.344,4.271-6.028,4.271-6.028s-3.51-2.965-1.472-7.509
				c2.041-4.546,6.526-3.928,6.526-3.928s-1.878-4.121,1.24-7.446c3.241-3.456,7.002-2.27,8.154-2.004c0,0,1.743-5.27,8.207-3.935
				c5.693,1.176,6.333,6.331,5.269,8.725c0,0,6.228-0.443,8.069,4.308c2.346,6.056-2.219,9.394-2.219,9.394
				S102.729,174.649,99.796,183.235z"/>
			<path fill="#B5D060" d="M85.364,155.015c-0.31-0.961-2.737-2.473-5.315-2.473c-2.576,0-4.839,3.104-5.051,3.787
				c0,0-2.894-0.788-5.42,0c-2.526,0.789-4.314,5.051-3.998,7.104c0.316,2.05,2.686,1.841,2.58,0
				c-0.108-1.841,0.895-4.419,2.84-5.156c1.946-0.736,4.157,0.473,5.209-1.158c1.051-1.63,3.104-2.736,4.842-2.367
				C82.785,155.118,85.837,156.487,85.364,155.015z"/>
		</g>
	</g>
</g>
<g>
	<path fill="#50953A" d="M864.859,205.12c-6.23,6.824-21.364,6.824-31.157,9.385c-52.522,11.092-101.484,12.797-154.897,6.825
		c-79.229-10.238-146.888-40.951-220.774-66.545c-62.314-22.182-133.533-20.476-192.288,6.825
		c-45.401,21.329-40.95,42.366-132.643,50.017l-25.816-3.094c-10.683-0.853-18.696,0-31.158-3.413
		c-23.146-5.119-55.192-21.329-75.669-18.77v180.894h864.403V205.12L864.859,205.12z"/>
</g>
<g>
	<g>
		<path fill="#6E482B" d="M753.849,264.444c0,0,7.055-1.058,7.584-6.7c0.528-5.646,1.233-24.517-1.414-27.163
			c-2.644-2.643-9.168-6.348-9.521-7.232c-0.354-0.877-3.705-10.223-3.705-10.223h1.409c0,0,4.911,8.814,6.16,9.697
			c1.247,0.882,7.599,4.234,8.83,3.882c1.234-0.354-3.175-8.822-3.175-8.822v-9.874h1.237c0,0,0,9.167,0.881,10.053
			c0.885,0.879,4.412,8.246,6.174,7.295c1.763-0.945,13.579-14.705,13.579-14.705l1.409,1.236c0,0-10.934,12.657-10.58,13.467
			c0.354,0.818,13.933,1.17,13.933,1.17l10.582-7.936l0.704,1.234c0,0-9.7,8.816-10.936,9.169
			c-1.233,0.354-13.052,1.062-13.398,1.938c-0.357,0.885-0.085,24.49,0.261,26.522c0.646,3.81,7.497,6.987,7.497,6.987
			S769.013,262.505,753.849,264.444z"/>
		<path fill="#80563E" d="M761.755,230.512c0,0,1.797,3.226,1.797,10.874c0,7.645,0.15,19.637-2.812,21.135
			c0,0,5.623-0.901,7.87-0.787l-1.912-33.842C766.698,227.89,763.483,230.438,761.755,230.512z"/>
	</g>
	<g>
		<g>
			<path fill="#96C33B" d="M723.608,213.653c0,0,3.256,8.992,13.132,6.879c9.744-2.088,11.754-7.881,11.754-7.881
				s4.927,5.113,13.827,2.84c8.903-2.27,11.176-8.523,11.176-8.523s-0.637,7.6,6.975,11.094c7.612,3.496,12.727,1.408,12.727,1.408
				s-0.946,6.588,9.092,8.789c10.037,2.199,18.034-8.408,16.326-17.689c-1.702-9.281-9.128-12.881-9.128-12.881
				s7.5-6.332,3.144-16.043c-4.357-9.717-13.942-8.39-13.942-8.39s4.014-8.805-2.652-15.911c-6.925-7.382-14.959-4.852-17.424-4.286
				c0,0-3.725-11.259-17.537-8.405c-12.165,2.513-13.525,13.527-11.255,18.64c0,0-13.304-0.942-17.234,9.204
				c-5.015,12.939,4.736,20.079,4.736,20.079S717.343,195.312,723.608,213.653z"/>
			<path fill="#A9CA4B" d="M754.443,153.352c0.659-2.056,5.849-5.285,11.355-5.285c5.511,0,10.345,6.636,10.796,8.096
				c0,0,6.181-1.682,11.577,0c5.396,1.688,9.221,10.794,8.545,15.179c-0.677,4.386-5.732,3.934-5.509,0
				c0.226-3.936-1.911-9.446-6.069-11.02c-4.159-1.57-8.885,1.014-11.131-2.471c-2.25-3.488-6.634-5.847-10.342-5.059
				C759.954,153.581,753.431,156.5,754.443,153.352z"/>
		</g>
		<g>
			<path fill="#A8CB58" d="M791.386,219.991c0,0-2.299,6.35-9.275,4.857c-6.881-1.472-8.301-5.564-8.301-5.564
				s-3.479,3.607-9.762,2.007c-6.29-1.606-7.895-6.021-7.895-6.021s0.451,5.366-4.924,7.832c-5.377,2.467-8.987,0.996-8.987,0.996
				s0.67,4.649-6.421,6.204c-7.091,1.554-12.736-5.938-11.531-12.491c1.203-6.553,6.447-9.095,6.447-9.095s-5.295-4.473-2.22-11.332
				c3.078-6.86,9.847-5.925,9.847-5.925s-2.835-6.217,1.871-11.237c4.892-5.215,10.563-3.424,12.306-3.025
				c0,0,2.631-7.951,12.386-5.938c8.59,1.776,9.552,9.555,7.946,13.166c0,0,9.397-0.668,12.175,6.5
				c3.542,9.137-3.347,14.178-3.347,14.178S795.814,207.038,791.386,219.991z"/>
			<path fill="#B5D060" d="M769.609,177.41c-0.467-1.451-4.129-3.731-8.021-3.731c-3.889,0-7.305,4.682-7.62,5.715
				c0,0-4.368-1.191-8.181,0c-3.81,1.189-6.511,7.621-6.032,10.718c0.477,3.095,4.05,2.779,3.892,0
				c-0.16-2.78,1.352-6.668,4.286-7.781c2.938-1.111,6.272,0.712,7.862-1.749c1.587-2.459,4.683-4.126,7.304-3.57
				C765.719,177.565,770.326,179.63,769.609,177.41z"/>
		</g>
	</g>
</g>
<g>
	<g>
		<path fill="#6E482B" d="M173.629,124.322c0,0,1.349-0.202,1.45-1.28c0.102-1.079,0.236-4.687-0.271-5.192
			c-0.504-0.505-1.752-1.213-1.819-1.382c-0.067-0.168-0.708-1.953-0.708-1.953h0.269c0,0,0.939,1.684,1.178,1.853
			c0.238,0.168,1.452,0.809,1.688,0.742c0.236-0.069-0.606-1.686-0.606-1.686v-1.888h0.236c0,0,0,1.752,0.168,1.921
			c0.169,0.168,0.844,1.576,1.181,1.395c0.336-0.181,2.595-2.81,2.595-2.81l0.27,0.236c0,0-2.09,2.418-2.021,2.574
			c0.066,0.157,2.662,0.224,2.662,0.224l2.022-1.518l0.136,0.236c0,0-1.854,1.685-2.091,1.752c-0.235,0.068-2.493,0.203-2.561,0.371
			c-0.068,0.169-0.016,4.68,0.05,5.069c0.124,0.727,1.435,1.335,1.435,1.335S176.528,123.952,173.629,124.322z"/>
		<path fill="#80563E" d="M175.141,117.837c0,0,0.343,0.617,0.343,2.077c0,1.461,0.028,3.753-0.537,4.04c0,0,1.075-0.172,1.503-0.15
			l-0.365-6.468C176.085,117.336,175.471,117.823,175.141,117.837z"/>
	</g>
	<g>
		<g>
			<path fill="#96C33B" d="M167.85,114.615c0,0,0.623,1.719,2.51,1.314c1.862-0.399,2.246-1.506,2.246-1.506
				s0.941,0.978,2.642,0.543c1.702-0.434,2.137-1.629,2.137-1.629s-0.121,1.453,1.333,2.12c1.455,0.668,2.433,0.27,2.433,0.27
				s-0.181,1.259,1.737,1.68c1.919,0.42,3.446-1.607,3.12-3.38c-0.323-1.774-1.744-2.462-1.744-2.462s1.434-1.21,0.601-3.066
				c-0.833-1.857-2.665-1.604-2.665-1.604s0.767-1.683-0.506-3.041c-1.324-1.411-2.86-0.926-3.331-0.818
				c0,0-0.712-2.151-3.352-1.606c-2.325,0.479-2.586,2.585-2.151,3.562c0,0-2.542-0.181-3.294,1.759
				c-0.958,2.473,0.906,3.837,0.906,3.837S166.652,111.109,167.85,114.615z"/>
			<path fill="#A9CA4B" d="M173.743,103.09c0.126-0.393,1.118-1.01,2.171-1.01s1.978,1.268,2.063,1.547c0,0,1.181-0.322,2.213,0
				c1.031,0.323,1.762,2.063,1.632,2.901c-0.128,0.838-1.095,0.752-1.052,0s-0.366-1.805-1.161-2.106
				c-0.795-0.3-1.697,0.194-2.127-0.472c-0.43-0.667-1.269-1.118-1.978-0.967S173.55,103.692,173.743,103.09z"/>
		</g>
		<g>
			<path fill="#A8CB58" d="M180.804,115.826c0,0-0.439,1.213-1.773,0.928c-1.314-0.281-1.586-1.062-1.586-1.062
				s-0.665,0.689-1.867,0.383c-1.201-0.307-1.507-1.15-1.507-1.15s0.085,1.025-0.942,1.497c-1.026,0.472-1.717,0.19-1.717,0.19
				s0.128,0.889-1.228,1.186c-1.354,0.296-2.435-1.135-2.203-2.388c0.229-1.253,1.231-1.738,1.231-1.738s-1.012-0.855-0.424-2.166
				s1.882-1.133,1.882-1.133s-0.542-1.188,0.357-2.147c0.935-0.997,2.02-0.654,2.352-0.578c0,0,0.503-1.52,2.367-1.134
				c1.643,0.339,1.826,1.825,1.52,2.516c0,0,1.796-0.128,2.326,1.242c0.677,1.747-0.64,2.709-0.64,2.709
				S181.65,113.35,180.804,115.826z"/>
			<path fill="#B5D060" d="M176.642,107.688c-0.089-0.277-0.79-0.713-1.533-0.713c-0.744,0-1.396,0.895-1.457,1.092
				c0,0-0.834-0.227-1.562,0c-0.729,0.228-1.244,1.457-1.152,2.048c0.091,0.592,0.773,0.531,0.744,0
				c-0.031-0.53,0.258-1.274,0.818-1.487c0.562-0.212,1.199,0.137,1.502-0.333c0.304-0.47,0.896-0.79,1.396-0.683
				C175.898,107.718,176.778,108.113,176.642,107.688z"/>
		</g>
	</g>
</g>
<g>
	<g>
		<path fill="#EDA473" stroke="#1D1D1B" stroke-miterlimit="10" d="M438.446,265.31l6.111,31.438l-14.061-5.59l-0.846-1.786
			l-8.411-13.885l-17.217-4.193l-9.71-21.282l-2.501-8.958h8.514l1.475,4.082l9.198,20.18c0,0,7.277-1.859,9.893-1.859h3.246
			L438.446,265.31z"/>
	</g>
	<g>
		<g>
			<g>
				<path fill="#EB7406" stroke="#1D1D1B" stroke-miterlimit="10" d="M355.211,239.892h103.483c3.152,0,5.822,0.453,6.753,1.08
					c0.129,0.086,0.226,0.17,0.281,0.258c0.055,0.076,0.084,0.158,0.084,0.238v0.032c0,0.035-0.006,0.069-0.018,0.101
					c-0.023,0.088-0.082,0.178-0.177,0.262c-0.02,0.021-0.047,0.045-0.075,0.068c-0.13,0.104-0.306,0.198-0.519,0.289
					c-1.183,0.51-3.574,0.856-6.332,0.856H355.211V239.892z"/>
			</g>
			<g>
				<path fill="#CD4B16" stroke="#1D1D1B" stroke-miterlimit="10" d="M428.185,240.167c-6.743,0.045-13.719,0.091-20.896,0.083
					c-13.36-0.021-39.09,0-52.079,0.009v0.262c0.821-0.002,1.688-0.002,2.604-0.002c-0.206,0.021-0.359,0.062-0.336,0.123
					c0.012,0.189,0.012,0.198,24.585,0.478c12.433,0.14,26.522,0.301,32.341,0.442c10.265,0.246,25.507,0.127,30.789,0.073
					c-2.13,0.3-6.766,0.748-14.681,0.599c-8.186-0.156-57.889-0.078-75.303-0.041v0.256c17.396-0.031,67.066-0.112,75.195,0.043
					c12.03,0.232,16.859-0.871,17.059-0.917l1.008-0.238l-1.471,0.021c-0.199,0.004-20.045,0.244-32.465-0.055
					c-5.855-0.141-19.962-0.298-32.405-0.445c-2.948-0.031-5.916-0.064-8.717-0.097c4.867,0.021,10.575,0.048,16.607,0.081
					c15.045,0.074,32.088,0.164,45.743,0.182c24.076,0.039,24.233-0.137,24.381-0.309c0.129-0.145-0.623-0.204-0.873-0.227
					C453.438,239.995,441.731,240.072,428.185,240.167z M458.057,240.67c-6.996,0.215-43.344,0.031-68.007-0.089
					c-5.42-0.028-10.449-0.055-14.837-0.075c11.517-0.005,24.031-0.008,32.064,0.006c7.205,0.009,14.188-0.036,20.941-0.086
					C441.04,240.339,452.187,240.269,458.057,240.67z M463.096,241.069c-6.62,0.271-8.984,0.377-9.495,0.529
					c-0.175,0.053-0.198,0.114-0.064,0.172c0.412,0.17,2.431,0.192,12.082,0.093c0.095-0.085,0.152-0.173,0.177-0.263
					c-3.75,0.041-7.846,0.078-9.97,0.059c1.702-0.098,4.725-0.221,7.481-0.333c0.833-0.035,1.638-0.067,2.421-0.095
					c-0.057-0.09-0.152-0.172-0.281-0.258C464.65,241.009,463.865,241.041,463.096,241.069z M355.211,242.589v0.262
					c19.901,0.133,93.146,0.553,104.552-0.299c1.809-0.135,3.574-0.244,5.263-0.33c0.213-0.092,0.389-0.188,0.519-0.289
					c-1.973,0.092-4.041,0.215-6.162,0.373C448.309,243.138,374.865,242.719,355.211,242.589z"/>
			</g>
		</g>
		<g>
			<path fill="#E4A220" stroke="#1D1D1B" stroke-miterlimit="10" d="M371.685,239.406h0.022c0.731,0,1.322,0.227,1.322,0.499v3.357
				c0,0.273-0.59,0.498-1.322,0.498h-0.022c-0.121,0-0.242-0.006-0.35-0.018c-0.563-0.059-0.975-0.25-0.975-0.48v-3.357
				c0-0.229,0.411-0.422,0.975-0.479C371.443,239.415,371.564,239.406,371.685,239.406z"/>
			<path fill="#FAB82A" stroke="#1D1D1B" stroke-miterlimit="10" d="M371.335,239.426c0.556,0.058,0.964,0.25,0.964,0.479v3.357
				c0,0.229-0.408,0.422-0.964,0.48c-0.563-0.059-0.975-0.25-0.975-0.48v-3.357C370.36,239.676,370.771,239.483,371.335,239.426z"/>
		</g>
		<g>
			<path fill="#E4A220" stroke="#1D1D1B" stroke-miterlimit="10" d="M369.203,239.406h0.023c0.729,0,1.322,0.227,1.322,0.499v3.357
				c0,0.273-0.594,0.498-1.322,0.498h-0.023c-0.122,0-0.24-0.006-0.354-0.018c-0.561-0.059-0.969-0.25-0.969-0.48v-3.357
				c0-0.229,0.409-0.422,0.969-0.479C368.963,239.415,369.081,239.406,369.203,239.406z"/>
			<path fill="#FAB82A" stroke="#1D1D1B" stroke-miterlimit="10" d="M368.849,239.426c0.559,0.058,0.965,0.25,0.965,0.479v3.357
				c0,0.229-0.406,0.422-0.965,0.48c-0.561-0.059-0.969-0.25-0.969-0.48v-3.357C367.881,239.676,368.29,239.483,368.849,239.426z"/>
		</g>
		<g>
			<path fill="#E4A220" stroke="#1D1D1B" stroke-miterlimit="10" d="M366.719,239.406h0.024c0.729,0,1.321,0.227,1.321,0.499v3.357
				c0,0.273-0.592,0.498-1.321,0.498h-0.024c-0.119,0-0.241-0.006-0.352-0.018c-0.562-0.059-0.972-0.25-0.972-0.48v-3.357
				c0-0.229,0.411-0.422,0.972-0.479C366.478,239.415,366.6,239.406,366.719,239.406z"/>
			<path fill="#FAB82A" stroke="#1D1D1B" stroke-miterlimit="10" d="M366.369,239.426c0.559,0.058,0.964,0.25,0.964,0.479v3.357
				c0,0.229-0.405,0.422-0.964,0.48c-0.562-0.059-0.972-0.25-0.972-0.48v-3.357C365.396,239.676,365.807,239.483,366.369,239.426z"
				/>
		</g>
		<g>
			<path fill="#E4A220" stroke="#1D1D1B" stroke-miterlimit="10" d="M364.237,239.406h0.023c0.73,0,1.322,0.227,1.322,0.499v3.357
				c0,0.273-0.592,0.498-1.322,0.498h-0.023c-0.121,0-0.241-0.006-0.352-0.018c-0.562-0.059-0.972-0.25-0.972-0.48v-3.357
				c0-0.229,0.41-0.422,0.972-0.479C363.996,239.415,364.116,239.406,364.237,239.406z"/>
			<path fill="#FAB82A" stroke="#1D1D1B" stroke-miterlimit="10" d="M363.885,239.426c0.557,0.058,0.964,0.25,0.964,0.479v3.357
				c0,0.229-0.407,0.422-0.964,0.48c-0.562-0.059-0.972-0.25-0.972-0.48v-3.357C362.914,239.676,363.324,239.483,363.885,239.426z"
				/>
		</g>
		<g>
			<polygon fill="#ACACAC" stroke="#1D1D1B" stroke-miterlimit="10" points="344.565,241.882 349.645,239.812 349.846,243.422 			
				"/>
			<g>
				<polygon fill="#ACACAC" stroke="#1D1D1B" stroke-miterlimit="10" points="339.528,243.253 334.201,241.124 334.236,241.078 
					344.565,241.882 				"/>
			</g>
			<g>
				<polygon fill="#DDDEDE" stroke="#1D1D1B" stroke-miterlimit="10" points="354.754,242.828 356.878,244.447 346.478,245.013 
					349.846,243.422 				"/>
			</g>
			<polygon fill="#939393" stroke="#1D1D1B" stroke-miterlimit="10" points="356.119,238.53 358.098,241.556 354.903,241.544 			"/>
			<polygon fill="#939393" stroke="#1D1D1B" stroke-miterlimit="10" points="352.165,240.39 347.12,237.657 356.119,238.53 			"/>
			<g>
				<polygon fill="#777676" stroke="#1D1D1B" stroke-miterlimit="10" points="339.885,238.574 347.12,237.657 344.565,241.882 				
					"/>
			</g>
			<polygon fill="#939393" stroke="#1D1D1B" stroke-miterlimit="10" points="352.165,240.39 356.119,238.53 354.903,241.544 			"/>
			<polygon fill="#B6B5B6" stroke="#1D1D1B" stroke-miterlimit="10" points="349.846,243.422 346.478,245.013 346.257,245.024 
				339.528,243.253 344.565,241.882 			"/>
			<g>
				<polygon fill="#ACACAC" stroke="#1D1D1B" stroke-miterlimit="10" points="354.903,241.544 358.098,241.556 358.232,241.761 
					357.057,244.437 356.878,244.447 354.754,242.828 				"/>
			</g>
			<polygon fill="#939393" stroke="#1D1D1B" stroke-miterlimit="10" points="349.645,239.812 344.565,241.882 347.12,237.657 
				352.165,240.39 			"/>
			<polygon fill="#939393" stroke="#1D1D1B" stroke-miterlimit="10" points="334.236,241.078 339.885,238.574 344.565,241.882 			
				"/>
			<polygon fill="#B6B5B6" stroke="#1D1D1B" stroke-miterlimit="10" points="354.754,242.828 349.846,243.422 349.645,239.812 
				352.165,240.39 354.903,241.544 			"/>
		</g>
		<g>
			<path fill="#E4A220" stroke="#1D1D1B" stroke-miterlimit="10" d="M357.626,243.649l-0.004-0.008
				c-0.129-0.236,0.076-0.645,0.46-0.914l4.681-3.295c0.385-0.267,0.801-0.299,0.93-0.065l0.006,0.008
				c0.021,0.041,0.032,0.084,0.035,0.13c0.02,0.239-0.177,0.559-0.498,0.785l-4.68,3.292c-0.322,0.228-0.661,0.284-0.841,0.164
				C357.677,243.719,357.649,243.687,357.626,243.649z"/>
			<path fill="#FAB82A" stroke="#1D1D1B" stroke-miterlimit="10" d="M357.716,243.744c-0.018-0.238,0.179-0.562,0.498-0.784
				l4.682-3.293c0.317-0.225,0.66-0.284,0.839-0.163c0.02,0.239-0.177,0.558-0.498,0.785l-4.68,3.292
				C358.234,243.808,357.895,243.864,357.716,243.744z"/>
		</g>
		<g>
			<path fill="#E4A220" stroke="#1D1D1B" stroke-miterlimit="10" d="M363.844,243.687l0.004-0.009
				c0.12-0.228-0.086-0.635-0.464-0.913l-4.593-3.354c-0.377-0.271-0.781-0.312-0.902-0.085l-0.004,0.011
				c-0.022,0.037-0.033,0.08-0.033,0.126c-0.014,0.229,0.181,0.556,0.496,0.785l4.592,3.356c0.316,0.226,0.646,0.293,0.82,0.176
				C363.794,243.755,363.822,243.724,363.844,243.687z"/>
			<path fill="#FAB82A" stroke="#1D1D1B" stroke-miterlimit="10" d="M363.76,243.778c0.013-0.233-0.186-0.555-0.499-0.781
				l-4.592-3.355c-0.312-0.227-0.646-0.293-0.817-0.179c-0.014,0.229,0.181,0.556,0.496,0.785l4.592,3.356
				C363.257,243.83,363.587,243.896,363.76,243.778z"/>
		</g>
	</g>
	<path fill="#F7BC91" stroke="#1D1D1B" stroke-miterlimit="10" d="M396.501,248.421c0.379,1.805,2.521,2.574,3.962,1.428
		c1.545-1.234,3.099-2.488,3.193-2.629c0.134-0.195,1.582-3.514,2.396-5.394c0.263-0.607-0.179-1.279-0.841-1.288h-0.02
		c-0.334-0.002-0.646,0.175-0.811,0.466l-0.879,1.542c-0.99,1.732-2.826,2.803-4.819,2.818l-0.339,0.08
		c-1.311,0.303-2.134,1.601-1.857,2.916L396.501,248.421z"/>
	<path fill="#F7BC91" stroke="#1D1D1B" stroke-miterlimit="10" d="M401.28,240.176c0.021-0.425-0.422-0.784-0.994-0.802h-0.052
		c-0.529-0.018-0.981,0.266-1.061,0.65l-0.752,3.599c-0.123,0.581,0.457,1.112,1.242,1.144h0.027
		c0.742,0.029,1.368-0.399,1.396-0.951L401.28,240.176z"/>
	<path fill="#F7BC91" stroke="#1D1D1B" stroke-miterlimit="10" d="M393.638,239.397h-0.021c-0.571-0.016-1.053,0.315-1.073,0.744
		l-0.193,3.642c-0.027,0.505,0.493,0.928,1.167,0.957h0.026c0.727,0.028,1.325-0.417,1.295-0.959l-0.211-3.64
		C394.612,239.74,394.175,239.415,393.638,239.397z"/>
	<path fill="#F7BC91" stroke="#1D1D1B" stroke-miterlimit="10" d="M397.025,239.39l-0.103-0.007
		c-0.537-0.014-1.007,0.279-1.072,0.685l-0.571,3.461c-0.105,0.629,0.528,1.193,1.379,1.225h0.031
		c0.863,0.035,1.577-0.494,1.54-1.138l-0.206-3.484C397.999,239.726,397.561,239.406,397.025,239.39z"/>
	<g>
		<path fill="#EDA473" stroke="#1D1D1B" stroke-miterlimit="10" d="M422.776,307.998l3.261,12.278c0,0-3.758,3.377-8.778,4.758
			c-1.334,0.363-0.049,2.686,1.333,2.686h7.411h3.42c2.231,0,1.729-4.304,1.729-6.535l0.035-13.293
			c0.006-2.004-3.711-9.234-5.475-8.283L422.776,307.998z"/>
	</g>
	<path fill="#EDA473" stroke="#1D1D1B" stroke-miterlimit="10" d="M474.152,320.136c0.435,0.928,1.601,1.262,2.441,0.68
		c0.938-0.652,1.903-1.658,1.848-3.028c-0.115-2.636-1.121-5.427-1.121-5.427l-0.1-2.268c-0.074-1.652-1.355-3.002-3.004-3.158
		l-0.541-0.051c-0.656-0.062-1.312,0.069-1.894,0.383l-1.721,0.924l-7.525,0.99l-1.899-8.529l-9.027,4.837l6.094,12.413l13.63-3.803
		L474.152,320.136z"/>
	<path fill="#EDA473" stroke="#1D1D1B" stroke-miterlimit="10" d="M438.446,265.31l6.111,31.438h7.228l5.984-6.698l-2.117-14.562
		l9.842,3.654l12.662,29.965c0.201,0.537,0.799,0.808,1.334,0.605l0.021-0.008c0.504-0.188,0.781-0.738,0.627-1.253l-1.726-6.085
		l0.752-0.284l2.707,5.72c0.232,0.491,0.802,0.719,1.306,0.526l0.098-0.035c0.5-0.188,0.781-0.729,0.634-1.255l-1.718-6.09
		l0.521-0.193l2.916,5.678c0.237,0.465,0.788,0.681,1.284,0.498l0.05-0.019c0.532-0.201,0.805-0.795,0.604-1.333l-2.186-5.823
		l-1.611-3.051l-2.291-4.351l-0.211-0.398l-4.982-4.444l-1.735-6.778c-1.182-4.616-4.285-8.504-8.523-10.678l-4.478-2.3
		c-0.647-2.526-2.929-4.301-5.54-4.301h-3.25L438.446,265.31z"/>
	<path fill="#EC9302" stroke="#1D1D1B" stroke-miterlimit="10" d="M457.769,290.05c0,0-5.576-9.378-6.113-16.298
		c-0.61-7.922,4.35-10.296,4.35-10.296l-5.603-1.393c0,0-3.742,16.142-11.198,21.09c-7.896,5.238-8.708,8.005-8.708,8.005
		l-0.078,0.062c-4.969,3.939-7.881,9.917-7.914,16.26l-0.021,3.226l2.724-5.224l2.731,5.224l1.779-6.513l3.674,6.513l3.268-6.513
		l2.189,6.513l2.72-5.224l2.731,5.224l3.106-6.085l2.348,6.085l3.492-5.278l1.969,5.278l2.731-5.224l0,0l2.742,5.224
		c0,0,1.869-2.115,2.27-4.979C463.147,304.384,457.769,290.05,457.769,290.05z"/>
	<g>
		<path fill="#F7BC91" stroke="#1D1D1B" stroke-miterlimit="10" d="M437.583,264.938h-0.275c-7.54,0-14.749-5.852-14.749-13.39
			l1.099-3.178c0-7.541,6.11-13.649,13.65-13.649h0.275c7.538,0,13.651,6.108,13.651,13.649l1.096,3.178
			C452.33,259.087,445.121,264.938,437.583,264.938z"/>
		<path fill="#502B12" stroke="#1D1D1B" stroke-miterlimit="10" d="M437.417,237.367c0,0-2.257,6.256-6.033,6.256
			c-3.777,0,1.524-5.603,1.524-5.603s-5.159,5.285-6.448,7.563c-2.163,3.83-4.43,16.837-4.43,16.837s-0.021-12.188,0.959-17.975
			c1.528-8.997,6.796-8.997,6.796-8.997h-6.883c0,0,0.376-7.935,5.288-6.044c4.91,1.888,7.556,4.154,7.556,4.154
			s-3.401-2.471,0.376-4.444c3.779-1.98,2.457,4.821,2.457,4.821s5.854-7.554,13.788-2.265c7.934,5.288,1.03,29.968,1.03,29.968
			s0.065-10.277-5.671-16.371C444.554,241.901,441.048,237.899,437.417,237.367z"/>
		<g>
			<g>
				<circle fill="#0F0906" stroke="#1D1D1B" stroke-miterlimit="10" cx="430.57" cy="250.296" r="1.189"/>
			</g>
			<g>
				<circle fill="#0F0906" stroke="#1D1D1B" stroke-miterlimit="10" cx="437.072" cy="249.937" r="1.188"/>
			</g>
		</g>
		<path fill="#502B12" stroke="#1D1D1B" stroke-miterlimit="10" d="M452.33,251.549l-0.577,0.614
			c-3.352,3.57-1.49,5.597-6.388,5.597l-7.938-0.829l-7.902,0.829c-4.898,0-3.037-2.026-6.388-5.597l-0.579-0.614l-1.354,6.769
			c-1.398,7.004,2.022,14.082,8.377,17.334l0.18,0.093c4.422,2.259,9.645,2.338,14.127,0.196l0.938-0.441
			c6.6-3.145,10.219-10.367,8.785-17.535L452.33,251.549z"/>
		<g>
			<g>
				<path fill="#FBD7C0" stroke="#1D1D1B" stroke-miterlimit="10" d="M433.007,249.642c0,0-2.015,0.625-1.659,2.283
					c0.354,1.664-0.042,2.137-0.042,2.137s-1.146,0.476-1.381,0.832c-0.237,0.354-1.066,2.252,0,2.014
					c1.068-0.236,0.533-1.184,1.275-0.945c0.741,0.236,1.808,0.969,1.808,0.969L433.007,249.642L433.007,249.642z"/>
			</g>
			<g>
				<path fill="#FBD7C0" stroke="#1D1D1B" stroke-miterlimit="10" d="M433.007,249.642c0,0,2.017,0.625,1.66,2.283
					c-0.356,1.664,0.043,2.137,0.043,2.137s1.143,0.476,1.378,0.832c0.237,0.354,1.065,2.252,0,2.014
					c-1.065-0.236-0.534-1.184-1.275-0.945c-0.738,0.236-1.807,0.969-1.807,0.969L433.007,249.642L433.007,249.642z"/>
			</g>
		</g>
		<path fill="#502B12" stroke="#1D1D1B" stroke-miterlimit="10" d="M428.983,246.465l4.032,1.397l5.432-1.633
			c3.169,0,8.868,0.654,8.868,2.099v0.052c0,1.445-5.698,0.521-8.868,0.521l-6.411,1.461l-3.053-1.228
			c-3.171,0-3.055,0.689-3.055-0.756v-0.052C425.928,246.884,425.812,246.465,428.983,246.465z"/>
	</g>
	<g opacity="0.5">
		<path fill="#502B12" stroke="#1D1D1B" stroke-miterlimit="10" d="M434.042,281.793c0,0,0.017,0.056,0.045,0.155
			c0.017,0.104,0.101,0.24,0.092,0.445c0.025,0.203,0.01,0.453-0.049,0.731c-0.066,0.28-0.192,0.584-0.408,0.874
			c-0.445,0.555-1.229,1.1-2.238,0.915c-0.471-0.095-0.935-0.354-1.251-0.765c-0.157-0.205-0.274-0.436-0.354-0.683
			c-0.057-0.187-0.049-0.241-0.075-0.364c-0.006-0.139-0.009-0.299,0.012-0.439c0.089-0.538,0.434-1.018,0.899-1.275
			c0.11-0.072,0.243-0.104,0.365-0.152c0.24-0.049,0.251-0.021,0.39-0.037c0.177-0.049,0.535,0.096,0.773,0.189
			c0.41,0.299,0.727,0.777,0.662,1.232c-0.04,0.471-0.364,0.922-0.755,1.009c-0.061,0.021-0.058,0.038-0.167,0.054l-0.124,0.002
			c-0.083-0.004-0.146,0.02-0.252-0.027c-0.207-0.049-0.342-0.158-0.442-0.281c-0.113-0.115-0.137-0.253-0.193-0.398
			c0.009-0.121-0.02-0.222,0.042-0.336c0.033-0.113,0.086-0.188,0.154-0.238c0.055-0.062,0.109-0.098,0.165-0.108
			c0.1-0.037,0.15-0.06,0.15-0.06s-0.045,0.033-0.132,0.088c-0.081,0.046-0.192,0.184-0.215,0.342
			c-0.041,0.064,0.005,0.188,0.016,0.302c0.056,0.048,0.091,0.188,0.188,0.241c0.089,0.083,0.191,0.125,0.293,0.139
			c0.064,0.021,0.361,0.006,0.382-0.059l0.175-0.102c0.047-0.052,0.083-0.111,0.127-0.162c0.057-0.054,0.062-0.118,0.077-0.174
			c0.008-0.062,0.063-0.086,0.035-0.201l-0.027-0.237l-0.122-0.198c-0.047-0.154-0.223-0.207-0.322-0.324
			c-0.201-0.09-0.667-0.149-0.935,0.053c-0.295,0.172-0.511,0.484-0.562,0.826l-0.02,0.228c0.017,0.092,0.035,0.262,0.052,0.288
			c0.055,0.178,0.135,0.338,0.242,0.488c0.219,0.285,0.532,0.498,0.875,0.582c0.306,0.078,0.702,0.08,1.017-0.061
			c0.329-0.109,0.595-0.312,0.814-0.525c0.201-0.232,0.357-0.478,0.459-0.715c0.093-0.242,0.146-0.46,0.153-0.65
			c0.037-0.185-0.003-0.344,0-0.443C434.047,281.853,434.042,281.793,434.042,281.793z"/>
	</g>
	<g opacity="0.5">
		<path fill="#502B12" stroke="#1D1D1B" stroke-miterlimit="10" d="M429.166,277.269c0,0,0.016,0.055,0.045,0.156
			c0.015,0.1,0.099,0.238,0.092,0.444c0.024,0.203,0.01,0.45-0.047,0.729c-0.069,0.281-0.193,0.586-0.41,0.875
			c-0.447,0.553-1.229,1.099-2.239,0.911c-0.469-0.093-0.934-0.354-1.25-0.761c-0.155-0.208-0.276-0.438-0.353-0.686
			c-0.059-0.184-0.05-0.24-0.077-0.366c-0.004-0.136-0.008-0.3,0.013-0.438c0.089-0.535,0.433-1.02,0.9-1.273
			c0.111-0.072,0.243-0.102,0.363-0.152c0.242-0.05,0.254-0.02,0.392-0.035c0.175-0.049,0.533,0.092,0.772,0.188
			c0.407,0.298,0.727,0.78,0.661,1.23c-0.042,0.474-0.363,0.919-0.754,1.011c-0.06,0.02-0.057,0.039-0.169,0.054l-0.121,0.005
			c-0.083-0.008-0.149,0.018-0.254-0.028c-0.208-0.052-0.344-0.157-0.445-0.284c-0.11-0.115-0.134-0.25-0.19-0.398
			c0.009-0.12-0.018-0.219,0.041-0.333c0.031-0.113,0.088-0.188,0.155-0.238c0.057-0.062,0.109-0.1,0.166-0.112
			c0.1-0.033,0.152-0.058,0.152-0.058s-0.046,0.031-0.136,0.09c-0.081,0.045-0.191,0.181-0.212,0.335
			c-0.04,0.069,0.003,0.193,0.015,0.307c0.057,0.048,0.091,0.188,0.188,0.244c0.089,0.08,0.193,0.123,0.292,0.138
			c0.068,0.02,0.36,0.003,0.383-0.062l0.177-0.098c0.046-0.055,0.081-0.115,0.127-0.167c0.059-0.052,0.062-0.114,0.076-0.169
			c0.007-0.066,0.063-0.087,0.036-0.204l-0.027-0.236l-0.122-0.2c-0.048-0.153-0.225-0.207-0.325-0.32
			c-0.197-0.092-0.667-0.149-0.931,0.048c-0.299,0.173-0.511,0.485-0.565,0.827l-0.02,0.229c0.018,0.089,0.037,0.259,0.053,0.283
			c0.052,0.183,0.136,0.34,0.239,0.488c0.221,0.289,0.534,0.501,0.875,0.587c0.304,0.074,0.701,0.078,1.017-0.062
			c0.33-0.105,0.596-0.312,0.816-0.525c0.198-0.234,0.354-0.475,0.458-0.711c0.092-0.242,0.146-0.465,0.152-0.65
			c0.039-0.188-0.004-0.347,0-0.449C429.169,277.322,429.166,277.269,429.166,277.269z"/>
	</g>
	<g opacity="0.5">
		<path fill="#502B12" stroke="#1D1D1B" stroke-miterlimit="10" d="M439.49,278.584c0,0,0.019,0.056,0.046,0.155
			c0.017,0.104,0.099,0.242,0.093,0.447c0.024,0.201,0.009,0.449-0.049,0.729c-0.067,0.278-0.193,0.586-0.408,0.874
			c-0.447,0.551-1.229,1.098-2.238,0.913c-0.469-0.093-0.936-0.353-1.251-0.761c-0.155-0.207-0.275-0.438-0.354-0.688
			c-0.054-0.181-0.048-0.237-0.075-0.36c-0.005-0.139-0.009-0.303,0.012-0.438c0.09-0.54,0.434-1.02,0.899-1.279
			c0.113-0.072,0.245-0.103,0.365-0.15c0.241-0.053,0.253-0.024,0.391-0.037c0.175-0.051,0.533,0.092,0.772,0.188
			c0.41,0.297,0.729,0.777,0.664,1.229c-0.04,0.476-0.364,0.926-0.755,1.013c-0.062,0.018-0.057,0.039-0.169,0.055l-0.12,0.002
			c-0.083-0.002-0.147,0.018-0.253-0.025c-0.21-0.051-0.344-0.16-0.445-0.284c-0.111-0.117-0.135-0.252-0.192-0.401
			c0.012-0.121-0.02-0.219,0.042-0.33c0.031-0.115,0.087-0.193,0.154-0.242c0.057-0.061,0.109-0.098,0.165-0.111
			c0.102-0.034,0.152-0.052,0.152-0.052s-0.046,0.028-0.135,0.087c-0.077,0.045-0.193,0.178-0.212,0.34
			c-0.04,0.064,0.004,0.188,0.014,0.298c0.057,0.05,0.092,0.188,0.188,0.243c0.09,0.084,0.192,0.127,0.292,0.141
			c0.067,0.02,0.363,0.004,0.381-0.06l0.178-0.101c0.046-0.052,0.082-0.112,0.126-0.168c0.058-0.051,0.062-0.113,0.075-0.168
			c0.009-0.062,0.065-0.086,0.038-0.201l-0.026-0.236l-0.124-0.199c-0.046-0.156-0.223-0.211-0.325-0.324
			c-0.199-0.09-0.665-0.147-0.93,0.047c-0.298,0.174-0.512,0.486-0.565,0.828l-0.019,0.229c0.018,0.089,0.034,0.262,0.052,0.286
			c0.055,0.177,0.135,0.34,0.24,0.488c0.221,0.285,0.533,0.5,0.876,0.584c0.305,0.076,0.701,0.08,1.016-0.062
			c0.33-0.104,0.595-0.312,0.815-0.523c0.201-0.233,0.355-0.477,0.458-0.711c0.093-0.246,0.145-0.463,0.154-0.652
			c0.036-0.188-0.006-0.346-0.003-0.448C439.494,278.64,439.49,278.584,439.49,278.584z"/>
	</g>
	<g>
		<path fill="#EDA473" stroke="#1D1D1B" stroke-miterlimit="10" d="M473.802,292.744c0,0-3.687,6.601-3.728,6.932
			c-0.03,0.239,0.181,3.855,0.304,5.9c0.041,0.659,0.739,1.061,1.332,0.768l0.016-0.012c0.301-0.146,0.496-0.444,0.516-0.781
			l0.084-1.772c0.101-1.989,1.25-3.777,3.023-4.693l2.512-1.289L473.802,292.744z"/>
	</g>
	<path fill="#CD4B16" stroke="#1D1D1B" stroke-miterlimit="10" d="M444.77,295.519c0,0-2.381-1.326-1.81,0.609
		c0.569,1.936,0.734,1.796,0,2.848c-0.739,1.055-1.512,2.472-0.091,2.904c1.424,0.439,1.642-0.98,2.731,0
		c1.09,0.979,5.931,1.092,4.438-1.311c-1.494-2.394-3.457-0.445-2.367-2.891c1.09-2.447,0.709-4.955-0.79-3.863
		C445.385,294.907,445.87,295.937,444.77,295.519z"/>
	<path fill="#CD4B16" stroke="#1D1D1B" stroke-miterlimit="10" d="M438.626,290.452c0,0-0.37,2.064,1.135,0.787
		c1.502-1.279,1.324-1.312,2.49-1.381c1.162-0.069,2.657-0.295,2.568-1.354c-0.092-1.065-0.721-0.911-0.226-2.039
		c0.496-1.126-1.696-3.672-3.296-1.616c-1.602,2.06-1.95,0.731-3.606,2.797c-1.553,1.936-2.708,2-1.257,2.371
		C437.885,290.383,438.624,289.59,438.626,290.452z"/>
	<path fill="#CD4B16" stroke="#1D1D1B" stroke-miterlimit="10" d="M448.238,287.248c0.686,1.765-1.747,3.555,0.486,3.571
		c2.231,0.021,2.231,0.021,2.476,1.854c0.207,1.568-0.204,3.673,1.228,2.394c1.433-1.281,1.517-3.616,2.416-2.875
		c0.898,0.735,3.379-0.235,1.165-2.543c-2.213-2.303-4.582-0.145-4.487-2.823C451.615,284.146,446.843,283.657,448.238,287.248z"/>
	<path fill="#CD4B16" stroke="#1D1D1B" stroke-miterlimit="10" d="M446.751,277.364c0,0-1.535,3.013,0.516,3.146
		c2.05,0.133,1.268-1.436,2.306,0.486c1.039,1.922,2.806,1.458,1.674-0.146c-1.688-2.396-0.321-4.941-1.882-5.121
		c-1.56-0.184-1.092-1.485-2.031-0.522C446.393,276.171,448.057,276.163,446.751,277.364z"/>
	<path fill="#CD4B16" stroke="#1D1D1B" stroke-miterlimit="10" d="M458.936,299.153c0,0-1.704-2.928-2.926-1.272
		c-1.224,1.651,0.52,1.845-1.658,1.675c-2.177-0.166-2.64,2.737-0.676,2.657c2.93-0.123,4.219,1.236,5.22,0.021
		c0.996-1.217,2.745,0.522,2.44-0.789C461.036,300.13,459.24,300.899,458.936,299.153z"/>
	<path fill="#CD4B16" stroke="#1D1D1B" stroke-miterlimit="10" d="M427.377,298.038c0,0-1.607,1.161-1.412,2.248
		c0.193,1.082-1.721,1.951,0,2.39c1.719,0.433,3.025-0.876,3.897-0.438c0.873,0.438,3.017-0.511,1.944-1.839
		c-1.071-1.321-2.693-0.342-3.135-0.889C428.229,298.97,428.186,297.286,427.377,298.038z"/>
	<path fill="#CD4B16" stroke="#1D1D1B" stroke-miterlimit="10" d="M430.987,297.409c-0.178-1.903-1.781-3.854-0.371-4.073
		c1.41-0.216,1.195,2.218,2.722,2.037c1.524-0.183,3.539-0.035,3.785,1.528c0.246,1.56,1.555,1.283,2.862,1.365
		c1.308,0.084,1.635,0.955,0,2.809c-1.635,1.855-0.437,1.891-2.862,1.47c-1.826-0.313,0.22-1.637-1.96-3.05
		C432.982,298.076,431.146,299.081,430.987,297.409z"/>
</g>
<g>
	<path fill="#462110" d="M226.815,324.203c-0.159-1.566,1.115-2.94,2.682-2.815c0.473,0.035,1.005,0.133,1.596,0.321
		c3.081,0.979,3.547,2.672,3.547,2.672s-2.981-0.412-4.732-0.35c-1.751,0.062-3.087,0.187-3.087,0.187L226.815,324.203z"/>
	<g>
		<path fill="#DDDEDE" d="M225.2,198.252l3.222,2.216l0.07-0.26c0.632-2.344-1.129-4.646-3.554-4.646h-0.049L225.2,198.252z"/>
	</g>
	<g>
		<path fill="#783F14" d="M195.016,197.161c0,0-24.396,15.342-27.663,22.382c-3.271,7.042,3.016,4.78,3.016,4.78l-7.795,35.453
			l-2.515,32.19c0,0-9.556,34.565-5.529,35.319c4.021,0.757,20.87-0.114,25.396-1.881c4.528-1.754-5.646-5.525-5.646-5.525
			s11.485-17.674,16.013-29.743c4.525-12.069,20.314-21.051,20.063-46.704c-0.253-25.65,0.007-21.375,0.005-22.881
			C210.355,219.04,195.016,197.161,195.016,197.161z"/>
		<path fill="#783F14" d="M203.061,266.317c0,0,1.396,12.32,8.188,19.867c6.788,7.539,5.03,22.881,7.543,28.916
			c1.004,2.414,2.898,3.578,4.807,4.11c3.083,0.858,5.104,3.79,4.541,6.942l-0.043,0.236c0,0-23.135,3.295-25.4-2.738
			c-2.262-6.037-5.669-22.129-13.464-24.896C181.436,295.991,203.061,266.317,203.061,266.317z"/>
		<path fill="#783F14" d="M192.753,193.337c0,0-7.06-3.387-7.797,4.523c-0.53,5.69,10.061,1.261,10.061,1.261l12.795,17.837
			l17.681-8.062c2.705-1.23,4.583-3.768,4.972-6.711l0.007-0.045l-11.314,3.006l6.043-6.896l1.703-0.776
			c2.105-0.957,3.318-3.207,2.95-5.5l-0.499-1.781l-0.865-3.118c0,0-11.115,3.364-12.273,1.075
			C214.475,184.707,202.811,183.023,192.753,193.337z"/>
		<path fill="#783F14" d="M195.697,228.617c0,0,8.801,12.888,17.854,11.094c6.136-1.213,13.543-3.288,17.68-4.502
			c2.125-0.625,4.364-0.692,6.521-0.203l8.782,3.261l-1.378,6.979c0,0-10.982-2.794-17.773,0.723
			c-6.789,3.523-10.059,14.332-19.612,8.551c-9.558-5.785-17.098-12.117-17.098-12.117L195.697,228.617z"/>
		<path fill="#783F14" d="M184.007,232.293c0,0,14.659,5.367,20.98-1.353c1.975-2.104,3.681-4.52,5.098-6.852
			c3.952-6.504,10.025-11.458,17.295-13.715l3.541-1.104l3.003,6.213c0,0-10.572,5.689-14.05,12.5
			c-3.479,6.813,0.152,17.511-10.985,18.358c-11.138,0.854-20.956,0.086-20.956,0.086L184.007,232.293z"/>
	</g>
	<path fill="#462110" d="M227.75,324.271c0,0,1.548-1.287,4.512,0c2.964,1.295,3.253,3.016,3.253,3.016s-2.92-0.708-4.673-0.823
		c-1.745-0.116-3.092-0.128-3.092-0.128V324.271L227.75,324.271z"/>
	<path fill="#462110" d="M177.123,324.271c0,0,1.543-1.287,4.509,0c2.964,1.295,3.254,3.016,3.254,3.016s-2.925-0.708-4.671-0.823
		c-1.749-0.116-12.166,0.823-12.166,0.823L177.123,324.271z"/>
	<path fill="#462110" d="M176.188,324.203c-0.162-1.566,1.109-2.94,2.681-2.815c0.471,0.035,1,0.133,1.594,0.321
		c3.079,0.979,3.544,2.672,3.544,2.672s-2.979-0.412-4.729-0.35c-1.753,0.062-3.089,0.187-3.089,0.187V324.203z"/>
	<path fill="#462110" d="M229.547,186.118c-0.193-0.496,0.679,4.492-0.193,4.076c-0.865-0.42-1.154-1.188-2.028-1.188
		c-0.87,0-2.029-0.065-2.415-0.854C224.525,187.36,229.547,186.118,229.547,186.118z"/>
	<path fill="#462110" d="M214.152,190.322c0,0,1.932,2.413-0.174,2.717c-2.102,0.306-3.277-1.881-3.277-1.881L214.152,190.322z"/>
	<path fill="#9E5C2E" d="M194.089,196.638c0,0-3.866-2.802-6.667,0c-2.802,2.799-2.481,1.741-2.481,1.741s-1.1-3.812,2.431-5.241
		c3.529-1.426,5.382,0.199,5.382,0.199L194.089,196.638z"/>
	<g>
		<path fill="#462110" d="M192.426,197.753c0,0-1.931-2.189-3.187-0.592c-1.255,1.602,1.353,2.738,3.187,1.062V197.753z"/>
	</g>
	<g>
		<path fill="#462110" d="M229.674,210.392c0,0,1.449-2.606,4.059-2.606c2.607,0,2.897,0.771,2.897,0.771s-2.897,0.387-3.479,1.353
			c-0.581,0.968-0.481,2.307-1.737,2.071C230.158,211.748,229.674,210.392,229.674,210.392z"/>
		<path fill="#462110" d="M231.376,211.228c0,0,2.272-1.933,4.714-1.022c2.447,0.916,2.447,1.739,2.447,1.739
			s-2.853-0.65-3.732,0.051c-0.881,0.702-1.261,1.99-2.354,1.331C231.356,212.663,231.376,211.228,231.376,211.228z"/>
		<path fill="#462110" d="M232.746,213.272c0,0,2.759-1.139,4.8,0.489c2.04,1.63,1.784,2.411,1.784,2.411s-2.508-1.504-3.562-1.109
			c-1.056,0.396-1.816,1.5-2.649,0.535C232.28,214.632,232.746,213.272,232.746,213.272z"/>
	</g>
	<g>
		<path fill="#462110" d="M245.146,238.151c0,0,2.825-0.969,4.758,0.783c1.938,1.748,1.633,2.517,1.633,2.517
			s-2.41-1.658-3.488-1.33c-1.078,0.33-1.901,1.387-2.677,0.372C244.597,239.476,245.146,238.151,245.146,238.151z"/>
		<path fill="#462110" d="M245.848,239.911c0,0,2.982,0.088,4.181,2.406c1.203,2.314,0.651,2.928,0.651,2.928
			s-1.679-2.396-2.804-2.467c-1.124-0.07-2.27,0.63-2.637-0.594C244.87,240.959,245.848,239.911,245.848,239.911z"/>
		<path fill="#462110" d="M245.494,242.344c0,0,2.809,1.009,3.233,3.583c0.42,2.573-0.296,2.983-0.296,2.983
			s-0.853-2.795-1.898-3.211c-1.046-0.415-2.35-0.101-2.323-1.38C244.235,243.043,245.494,242.344,245.494,242.344z"/>
	</g>
	<g>
		<path fill="#783F14" d="M172.975,214.606l4.203-4.955c0,0-8.061,3.709-11.938,12.271c-3.879,8.564-4.651,16.758-4.651,16.758
			s3.7-5.961,5.778-7.533c2.073-1.569,2.073-1.569,2.073-1.569s-2.912,4.175-4.572,6.606c-2.653,3.871-3.602,11.573-3.602,11.573
			s1.987-4.282,2.783-4.833c0.792-0.55,3.894-3.537,3.894-3.537s-5.458,9.473-6.423,12.193c-0.969,2.729-1.956,8.879-1.956,8.879
			s1.604-4.087,3.449-5.884c1.848-1.793,7.184-2.345,8.745-8.188c1.558-5.843,6.78-36.998,6.78-36.998L172.975,214.606z"/>
	</g>
	<path fill="#835024" d="M186.675,211.791c0,0-5.811-0.05-10.965,4.224c-5.153,4.273-5.153,8.877-5.153,8.877s4.492-5.014,7.4-5.918
		c2.907-0.898,5.585-1.459,5.585-1.459s-4.813,3.125-6.544,7.379c-1.728,4.25-1.288,9.793-1.288,9.793s2.963-7.354,6.956-9.793
		c3.995-2.441,6.312-3.93,6.312-3.93s-3.087,5.1-3.539,7.545c-0.456,2.446,0,10.422,0,10.422s1.623-8.488,7.921-10.422
		c2.919-0.898,2.964-8.271,1.675-13.783c-1.288-5.517-2.32-7.86-2.32-7.86S189.164,210.637,186.675,211.791z"/>
</g>
<path fill="#BCBBBB" d="M578.98,184.815c0.785-9.714-6.462-19.996-14.26-24.962c-8.881-5.657-22.197-6.542-31.165-0.486
	c-2.769-8.543-11.624-14.811-20.576-15.369c-8.245-0.509-18.258,4.216-22.388,11.855c-7.084-3.996-17.292-2.119-23.031,3.374
	c-2.732,2.609-4.618,6.429-4.961,10.235c-14.051-0.476-22.994,16.403-21.304,28.793c1.767,12.973,13.455,27.253,27.615,24.403
	c2.312,17.938,23.558,25.567,37.113,14.063c1.849,2.952,4.903,4.739,8.613,5c5.585,0.394,10.291-3.064,14.146-6.746
	c3.936,2.873,8.316,3.194,13.112,1.75c2.909-0.873,3.543-0.387,6.482,0.536c3.472,1.089,7.192,1.69,10.838,1.483
	c11.448-0.637,21.592-9.909,19.241-21.652c5.407-3.203,8.948-11.639,8.887-16.924C587.273,194.222,583.977,188.085,578.98,184.815z"
	/>
<path fill="#FFFFFF" d="M579.945,211.56c-1.153,1.284-2.521,2.248-3.9,3.188c-0.195,0.083-0.37,0.203-0.52,0.354
	c-1.257,0.862-2.495,1.734-3.565,2.855c-0.059,0.059-0.031,0.16,0.045,0.182c1.253,0.313,2.453,0.313,3.601,0.079
	c2.033,11.941-10.749,18.729-21.45,17.214c-2.285-0.328-4.476-0.895-6.64-1.697c-1.364-0.506-2.607-1.506-4.076-1.375
	c-1.912,0.166-3.694,2.142-5.956,2.291c-2.938,0.189-5.55-0.856-7.725-2.783c-0.622-0.549-1.55-0.613-2.161,0
	c-4.583,4.562-15.908,11.824-19.683,2.007c-0.395-1.03-1.674-1.546-2.536-0.672c-12.102,12.293-32.098,4.907-33.927-12.081
	c-0.058-0.51-0.336-0.869-0.691-1.077c-0.298-0.313-0.741-0.483-1.289-0.337c-13.854,3.773-24.901-11.497-25.634-23.816
	c-0.768-12.833,7.669-20.619,18.743-24.221c0.219,2.773,1.358,5.404,3.733,7.396c0.435,0.36,1.304,0.034,1.058-0.615
	c-2.572-6.738-2.322-13.725,3.977-18.312c5.876-4.285,11.876-3.04,18.339-2.322c-0.701,1.838-1.076,3.812-1.021,5.904
	c0.025,0.862,1.26,1.284,1.691,0.457c2.121-4.025,3.55-7.986,6.987-11.184c4.023-3.744,9.308-5.757,14.81-5.598
	c11.699,0.345,18.15,9.053,21.263,19.309c0.16,0.543,0.896,0.403,0.946-0.126c0.175-1.83,0.059-3.604-0.299-5.308
	c9.518-3.583,19.292-4.837,28.521,0.711c4.222,2.537,7.667,6.248,10.051,10.543c1.959,3.521,2.614,7.063,3.371,10.782
	c-1.45-0.545-2.994-0.863-4.612-0.885c-0.377-0.005-0.546,0.551-0.197,0.73c6.69,3.418,13.095,8.843,13.188,17.015
	C584.43,204.36,582.737,208.456,579.945,211.56z"/>
<rect x="442.903" y="177.474" fill="none" width="143.374" height="40.651"/>
<g enable-background="new    ">
	<path fill="#811A1B" d="M491.747,207.169c0,1.072-0.384,1.992-1.149,2.758s-1.686,1.148-2.758,1.148s-1.992-0.383-2.758-1.148
		c-0.767-0.766-1.149-1.686-1.149-2.758s0.383-1.992,1.149-2.759c0.766-0.766,1.686-1.148,2.758-1.148s1.992,0.383,2.758,1.148
		C491.363,205.177,491.747,206.097,491.747,207.169z M491.379,180.094l-0.965,21.742h-5.103l-0.966-21.742H491.379z"/>
	<path fill="#811A1B" d="M509.582,207.169c0,1.072-0.385,1.992-1.15,2.758s-1.686,1.148-2.758,1.148s-1.992-0.383-2.758-1.148
		s-1.148-1.686-1.148-2.758s0.383-1.992,1.148-2.759c0.766-0.766,1.686-1.148,2.758-1.148s1.992,0.383,2.758,1.148
		C509.197,205.177,509.582,206.097,509.582,207.169z M509.214,180.094l-0.966,21.742h-5.102l-0.966-21.742H509.214z"/>
	<path fill="#811A1B" d="M527.416,207.169c0,1.072-0.384,1.992-1.149,2.758c-0.767,0.766-1.686,1.148-2.758,1.148
		c-1.073,0-1.992-0.383-2.758-1.148c-0.767-0.766-1.149-1.686-1.149-2.758s0.383-1.992,1.149-2.759
		c0.766-0.766,1.685-1.148,2.758-1.148c1.072,0,1.991,0.383,2.758,1.148C527.032,205.177,527.416,206.097,527.416,207.169z
		 M527.049,180.094l-0.966,21.742h-5.103l-0.965-21.742H527.049z"/>
	<path fill="#811A1B" d="M545.25,207.169c0,1.072-0.384,1.992-1.149,2.758c-0.767,0.766-1.686,1.148-2.758,1.148
		c-1.073,0-1.992-0.383-2.758-1.148c-0.767-0.766-1.149-1.686-1.149-2.758s0.383-1.992,1.149-2.759
		c0.766-0.766,1.685-1.148,2.758-1.148c1.072,0,1.991,0.383,2.758,1.148C544.866,205.177,545.25,206.097,545.25,207.169z
		 M544.883,180.094l-0.966,21.742h-5.103l-0.965-21.742H544.883z"/>
</g>
</svg>
