<?xml version="1.0" encoding="utf-8"?>
<!-- Generator: Adobe Illustrator 16.0.4, SVG Export Plug-In . SVG Version: 6.00 Build 0)  -->
<!DOCTYPE svg PUBLIC "-//W3C//DTD SVG 1.1//EN" "http://www.w3.org/Graphics/SVG/1.1/DTD/svg11.dtd">
<svg version="1.1" id="Layer_1" xmlns="http://www.w3.org/2000/svg" xmlns:xlink="http://www.w3.org/1999/xlink" x="0px" y="0px"
	 width="640.499px" height="341.383px" viewBox="-42.234 -34.872 640.499 341.383"
	 enable-background="new -42.234 -34.872 640.499 341.383" xml:space="preserve">
<rect x="480.265" y="-32" opacity="0.4" fill="#558B2F" width="115.923" height="297.992"/>
<rect x="290.836" y="283.188" fill="#558B2F" width="50.704" height="23.323"/>
<g enable-background="new    ">
	<path fill="#FFFFFF" d="M304.752,288.829h-3.776v11.459h-2.318v-11.459h-3.776v-1.88h9.871V288.829z"/>
	<path fill="#FFFFFF" d="M308.988,287.609c0,0.359-0.124,0.663-0.37,0.91c-0.247,0.246-0.55,0.369-0.909,0.369
		s-0.667-0.123-0.919-0.369c-0.253-0.247-0.379-0.551-0.379-0.91s0.126-0.667,0.379-0.92c0.253-0.254,0.561-0.381,0.919-0.381
		c0.359,0,0.663,0.127,0.909,0.381C308.864,286.942,308.988,287.249,308.988,287.609z M308.808,300.288h-2.198v-9.76h2.198V300.288z
		"/>
	<path fill="#FFFFFF" d="M325.214,300.288h-2.198v-5.52c0-1.121-0.134-1.84-0.398-2.16c-0.268-0.319-0.667-0.479-1.199-0.479
		c-0.68,0-1.405,0.254-2.178,0.76c0.093,0.269,0.14,1.008,0.14,2.221v5.18h-2.18v-5.379c0-1.268-0.153-2.061-0.46-2.381
		c-0.253-0.267-0.619-0.399-1.099-0.399c-0.721,0-1.419,0.227-2.099,0.68v7.479h-2.197v-9.76h1.918v0.721
		c0.905-0.667,1.857-1,2.856-1c1.012,0,1.812,0.366,2.397,1.101c1.119-0.733,2.197-1.101,3.237-1.101
		c1.025,0,1.831,0.294,2.418,0.88c0.466,0.467,0.771,1.074,0.918,1.82c0.08,0.467,0.121,1.286,0.121,2.46v4.878H325.214z"/>
	<path fill="#FFFFFF" d="M335.983,295.289c0,0.12-0.007,0.27-0.021,0.449c-0.014,0.181-0.021,0.29-0.021,0.329h-6.614
		c0,0.694,0.207,1.294,0.619,1.802c0.507,0.6,1.227,0.899,2.158,0.899c0.8,0,1.69-0.247,2.678-0.74l0.76,1.439
		c-1,0.707-2.205,1.061-3.617,1.061c-1.491,0-2.663-0.485-3.517-1.46c-0.826-0.921-1.239-2.119-1.239-3.601
		c0-1.533,0.428-2.786,1.279-3.76c0.853-0.974,1.965-1.46,3.337-1.46c1.319,0,2.349,0.445,3.087,1.34
		C335.614,292.482,335.983,293.716,335.983,295.289z M333.905,294.429c0-0.601-0.127-1.121-0.38-1.561
		c-0.373-0.628-0.938-0.939-1.698-0.939c-0.68,0-1.242,0.229-1.688,0.689c-0.446,0.46-0.717,1.062-0.811,1.811H333.905z"/>
</g>
<rect x="-42.234" y="-21.341" fill="#558B2F" width="23.321" height="278.259"/>
<g enable-background="new    ">
	<path fill="#FFFFFF" d="M-31.02,238.85c2.013,0,3.64,0.62,4.88,1.862c0.812,0.812,1.354,1.82,1.62,3.021
		c0.187,0.802,0.279,1.982,0.279,3.544v2.942h-13.34v-3.423c0-1.508,0.08-2.616,0.24-3.323c0.24-1.081,0.74-2.002,1.5-2.762
		C-34.6,239.47-32.993,238.85-31.02,238.85z M-31.08,241.173c-1.479,0-2.646,0.427-3.5,1.28c-0.52,0.521-0.859,1.154-1.02,1.901
		c-0.107,0.508-0.16,1.334-0.16,2.482v1.061h9.66v-1.581c0-1.788-0.447-3.103-1.34-3.943
		C-28.294,241.573-29.507,241.173-31.08,241.173z"/>
	<path fill="#FFFFFF" d="M-36.921,234.207c0.36,0,0.664,0.123,0.91,0.369c0.247,0.248,0.37,0.551,0.37,0.91
		c0,0.36-0.123,0.667-0.37,0.922c-0.247,0.254-0.55,0.381-0.91,0.381c-0.359,0-0.667-0.127-0.92-0.381
		c-0.253-0.255-0.38-0.562-0.38-0.922c0-0.359,0.127-0.662,0.38-0.91C-37.587,234.33-37.281,234.207-36.921,234.207z
		 M-24.24,234.386v2.201H-34v-2.201H-24.24z"/>
	<path fill="#FFFFFF" d="M-34.06,225.658l1.7,0.501c-0.04,0.187-0.061,0.406-0.061,0.66c0,1.188,0.5,2.13,1.5,2.822h6.68v2.201H-34
		v-1.921h1.24c-0.253-0.16-0.52-0.454-0.8-0.881c-0.48-0.708-0.72-1.476-0.72-2.303C-34.281,226.353-34.207,225.992-34.06,225.658z"
		/>
	<path fill="#FFFFFF" d="M-29.24,216.351c0.12,0,0.271,0.006,0.45,0.021c0.181,0.014,0.29,0.02,0.33,0.02v6.626
		c0.694,0,1.293-0.206,1.8-0.62c0.601-0.508,0.9-1.229,0.9-2.162c0-0.801-0.247-1.694-0.74-2.683l1.44-0.761
		c0.707,1.001,1.06,2.209,1.06,3.623c0,1.495-0.486,2.67-1.46,3.522c-0.92,0.828-2.12,1.241-3.6,1.241
		c-1.533,0-2.787-0.427-3.76-1.281c-0.974-0.854-1.46-1.968-1.46-3.343c0-1.321,0.446-2.352,1.34-3.093
		C-32.047,216.72-30.814,216.351-29.24,216.351z M-30.1,218.432c-0.601,0-1.12,0.127-1.561,0.38
		c-0.626,0.375-0.939,0.941-0.939,1.702c0,0.681,0.229,1.245,0.689,1.691s1.063,0.718,1.811,0.811V218.432z"/>
	<path fill="#FFFFFF" d="M-25.14,206.242c0.16,0.146,0.36,0.479,0.6,1c0.36,0.813,0.54,1.676,0.54,2.583
		c0,1.453-0.463,2.632-1.39,3.532c-0.927,0.901-2.13,1.352-3.61,1.352c-1.533,0-2.797-0.48-3.79-1.441
		c-0.993-0.96-1.489-2.174-1.489-3.643c0-0.827,0.167-1.596,0.5-2.304c0.227-0.479,0.434-0.793,0.619-0.939l1.381,0.901
		c-0.453,0.68-0.681,1.413-0.681,2.2c0,0.908,0.34,1.648,1.021,2.224c0.627,0.521,1.387,0.779,2.279,0.779
		c0.987,0,1.787-0.257,2.4-0.771s0.92-1.225,0.92-2.132c0-0.733-0.247-1.562-0.74-2.482L-25.14,206.242z"/>
	<path fill="#FFFFFF" d="M-24.56,197.854c0.386,0.614,0.58,1.375,0.58,2.282c0,1.027-0.273,1.814-0.82,2.361
		c-0.347,0.348-0.787,0.567-1.32,0.661c-0.293,0.054-0.853,0.079-1.68,0.079h-4.4v1.702H-34v-1.702h-2.74v-2.201H-34v-2.884h1.8
		v2.884h4.601c0.573,0,0.973-0.061,1.2-0.181c0.374-0.188,0.56-0.566,0.56-1.141c0-0.334-0.086-0.769-0.26-1.302L-24.56,197.854z"/>
	<path fill="#FFFFFF" d="M-28.06,182.661c1.227,0,2.22,0.409,2.979,1.23c0.761,0.82,1.141,1.938,1.141,3.354
		c0,1.066-0.233,2.081-0.7,3.042c-0.293,0.602-0.561,1.016-0.8,1.241l-1.601-1.041c0.747-1.135,1.12-2.176,1.12-3.123
		c0-0.747-0.176-1.327-0.53-1.741c-0.353-0.413-0.829-0.62-1.43-0.62c-0.586,0-1.08,0.3-1.479,0.9
		c-0.12,0.188-0.413,0.808-0.881,1.861c-0.439,0.988-0.819,1.675-1.14,2.062c-0.72,0.867-1.626,1.302-2.72,1.302
		c-1.12,0-2.03-0.407-2.73-1.223c-0.699-0.812-1.05-1.867-1.05-3.162c0-1.041,0.228-2.002,0.68-2.884
		c0.24-0.467,0.487-0.825,0.74-1.08l1.48,1.08c-0.667,0.843-1,1.749-1,2.724c0,0.668,0.157,1.215,0.47,1.643
		c0.313,0.427,0.724,0.642,1.23,0.642c0.467,0,0.847-0.193,1.14-0.581c0.2-0.268,0.513-0.895,0.939-1.883
		c0.521-1.215,1.008-2.074,1.46-2.581C-30.033,183.049-29.14,182.661-28.06,182.661z"/>
	<path fill="#FFFFFF" d="M-24.24,172.172v1.922h-0.739c0.667,0.895,1,1.861,1,2.902c0,1.026-0.3,1.842-0.9,2.44
		c-0.453,0.455-1.013,0.748-1.68,0.881c-0.4,0.08-1.067,0.121-2,0.121H-34v-2.202h5.32c0.667,0,1.106-0.013,1.32-0.04
		c0.547-0.065,0.934-0.235,1.159-0.511c0.228-0.272,0.341-0.663,0.341-1.171c0-0.561-0.24-1.274-0.721-2.143H-34v-2.201
		L-24.24,172.172L-24.24,172.172z"/>
	<path fill="#FFFFFF" d="M-29.281,160.621c1.547,0,2.812,0.46,3.8,1.381c0.986,0.921,1.479,2.042,1.479,3.362
		c0,0.734-0.16,1.415-0.479,2.043h4.54v2.201H-34v-1.94h0.66c-0.626-0.761-0.939-1.655-0.939-2.684c0-1.308,0.463-2.361,1.39-3.163
		C-31.964,161.022-30.76,160.621-29.281,160.621z M-29.24,162.843c-0.973,0-1.76,0.254-2.359,0.761
		c-0.561,0.48-0.84,1.096-0.84,1.842c0,0.774,0.227,1.429,0.68,1.963h5.42c0.347-0.534,0.521-1.108,0.521-1.723
		c0-0.841-0.304-1.523-0.91-2.052C-27.337,163.107-28.174,162.843-29.24,162.843z"/>
	<path fill="#FFFFFF" d="M-29.24,150.132c0.12,0,0.271,0.007,0.45,0.02c0.181,0.014,0.29,0.021,0.33,0.021v6.625
		c0.694,0,1.293-0.207,1.8-0.62c0.601-0.507,0.9-1.228,0.9-2.162c0-0.801-0.247-1.695-0.74-2.683l1.44-0.762
		c0.707,1.001,1.06,2.209,1.06,3.624c0,1.495-0.486,2.669-1.46,3.523c-0.92,0.828-2.12,1.241-3.6,1.241
		c-1.533,0-2.787-0.428-3.76-1.281c-0.974-0.854-1.46-1.968-1.46-3.343c0-1.321,0.446-2.353,1.34-3.093
		C-32.047,150.502-30.814,150.132-29.24,150.132z M-30.1,152.214c-0.601,0-1.12,0.127-1.561,0.38
		c-0.626,0.374-0.939,0.941-0.939,1.702c0,0.681,0.229,1.245,0.689,1.69c0.46,0.447,1.063,0.719,1.811,0.812V152.214z"/>
	<path fill="#FFFFFF" d="M-34.06,141.844l1.7,0.5c-0.04,0.187-0.061,0.407-0.061,0.661c0,1.188,0.5,2.129,1.5,2.823h6.68v2.201H-34
		v-1.921h1.24c-0.253-0.16-0.52-0.454-0.8-0.881c-0.48-0.708-0.72-1.475-0.72-2.302C-34.281,142.539-34.207,142.178-34.06,141.844z"
		/>
	<path fill="#FFFFFF" d="M-34,130.856l9.76,3.764v2.201l-9.76,3.743v-2.302l7.36-2.642l-7.36-2.623V130.856z"/>
	<path fill="#FFFFFF" d="M-36.921,126.772c0.36,0,0.664,0.124,0.91,0.37c0.247,0.247,0.37,0.55,0.37,0.911s-0.123,0.667-0.37,0.921
		s-0.55,0.38-0.91,0.38c-0.359,0-0.667-0.126-0.92-0.38c-0.253-0.253-0.38-0.561-0.38-0.921s0.127-0.664,0.38-0.911
		C-37.587,126.896-37.281,126.772-36.921,126.772z M-24.24,126.952v2.201H-34v-2.201H-24.24z"/>
	<path fill="#FFFFFF" d="M-27.04,117.823c0.947,0,1.693,0.348,2.24,1.041c0.547,0.694,0.82,1.589,0.82,2.684
		c0,0.881-0.16,1.721-0.48,2.521c-0.2,0.494-0.386,0.842-0.56,1.041l-1.44-0.78c0.507-0.975,0.76-1.828,0.76-2.562
		c0-0.547-0.112-0.968-0.34-1.261c-0.227-0.293-0.513-0.44-0.859-0.44s-0.634,0.188-0.86,0.562c-0.12,0.173-0.36,0.688-0.72,1.542
		c-0.333,0.788-0.646,1.354-0.94,1.701c-0.506,0.587-1.153,0.881-1.939,0.881c-0.881,0-1.586-0.333-2.12-1.001
		c-0.533-0.667-0.8-1.541-0.8-2.622c0-1.375,0.293-2.43,0.88-3.163l1.399,0.761c-0.439,0.774-0.66,1.528-0.66,2.262
		c0,1.041,0.367,1.562,1.101,1.562c0.319,0,0.593-0.167,0.819-0.5c0.134-0.2,0.333-0.614,0.601-1.241
		c0.414-0.988,0.76-1.655,1.04-2.002C-28.58,118.151-27.894,117.823-27.04,117.823z"/>
	<path fill="#FFFFFF" d="M-29.18,106.374c1.547,0,2.797,0.454,3.75,1.36c0.954,0.908,1.43,2.09,1.43,3.543
		c0,1.401-0.47,2.539-1.41,3.413c-0.939,0.874-2.17,1.312-3.689,1.312c-1.533,0-2.78-0.454-3.74-1.361s-1.439-2.088-1.439-3.543
		c0-1.401,0.47-2.539,1.409-3.413C-31.93,106.811-30.7,106.374-29.18,106.374z M-29.1,108.595c-1,0-1.811,0.247-2.43,0.741
		c-0.62,0.494-0.931,1.121-0.931,1.882c0,0.774,0.3,1.395,0.9,1.862c0.6,0.467,1.393,0.699,2.38,0.699c1,0,1.81-0.246,2.43-0.739
		c0.62-0.494,0.931-1.128,0.931-1.902c0-0.801-0.297-1.424-0.891-1.872C-27.303,108.819-28.1,108.595-29.1,108.595z"/>
	<path fill="#FFFFFF" d="M-34.06,98.086l1.7,0.5c-0.04,0.187-0.061,0.407-0.061,0.661c0,1.188,0.5,2.129,1.5,2.822h6.68v2.202H-34
		v-1.921h1.24c-0.253-0.16-0.52-0.454-0.8-0.881c-0.48-0.708-0.72-1.475-0.72-2.302C-34.281,98.781-34.207,98.42-34.06,98.086z"/>
	<path fill="#FFFFFF" d="M-24.24,88.919v2.322h-13.34v-2.322H-24.24z"/>
	<path fill="#FFFFFF" d="M-24.24,77.849v2.202h-5.34c-1.293,0-2.087,0.146-2.38,0.44s-0.439,0.707-0.439,1.24
		c0,0.682,0.239,1.408,0.72,2.183h7.439v2.202H-34v-1.922h0.721c-0.667-0.921-1-1.889-1-2.902c0-1.027,0.3-1.842,0.899-2.442
		c0.454-0.453,1.014-0.747,1.68-0.881c0.4-0.08,1.067-0.12,2-0.12H-24.24z"/>
	<path fill="#FFFFFF" d="M-34,66.679l9.76,3.763v2.202L-34,76.387v-2.302l7.36-2.643L-34,68.821V66.679z"/>
	<path fill="#FFFFFF" d="M-29.18,56.11c1.547,0,2.797,0.454,3.75,1.361c0.954,0.908,1.43,2.089,1.43,3.543
		c0,1.401-0.47,2.539-1.41,3.413c-0.939,0.874-2.17,1.311-3.689,1.311c-1.533,0-2.78-0.453-3.74-1.36s-1.439-2.088-1.439-3.543
		c0-1.401,0.47-2.539,1.409-3.413C-31.93,56.547-30.7,56.11-29.18,56.11z M-29.1,58.331c-1,0-1.811,0.247-2.43,0.74
		c-0.62,0.494-0.931,1.121-0.931,1.883c0,0.773,0.3,1.395,0.9,1.861c0.6,0.468,1.393,0.7,2.38,0.7c1,0,1.81-0.247,2.43-0.74
		c0.62-0.494,0.931-1.128,0.931-1.901c0-0.802-0.297-1.424-0.891-1.872C-27.303,58.555-28.1,58.331-29.1,58.331z"/>
	<path fill="#FFFFFF" d="M-24.24,51.806v2.202H-38.7v-2.202H-24.24z"/>
	<path fill="#FFFFFF" d="M-34,40.496l9.76,3.763v2.202L-34,50.205v-2.303l7.36-2.642L-34,42.638V40.496z"/>
	<path fill="#FFFFFF" d="M-29.24,30.628c0.12,0,0.271,0.007,0.45,0.02c0.181,0.014,0.29,0.021,0.33,0.021v6.625
		c0.694,0,1.293-0.207,1.8-0.62c0.601-0.507,0.9-1.229,0.9-2.162c0-0.801-0.247-1.695-0.74-2.683l1.44-0.762
		c0.707,1.001,1.06,2.209,1.06,3.624c0,1.495-0.486,2.669-1.46,3.523c-0.92,0.828-2.12,1.241-3.6,1.241
		c-1.533,0-2.787-0.428-3.76-1.281c-0.974-0.854-1.46-1.968-1.46-3.343c0-1.321,0.446-2.353,1.34-3.094
		C-32.047,30.998-30.814,30.628-29.24,30.628z M-30.1,32.709c-0.601,0-1.12,0.127-1.561,0.38c-0.626,0.374-0.939,0.94-0.939,1.702
		c0,0.681,0.229,1.245,0.689,1.69c0.46,0.447,1.063,0.719,1.811,0.812V32.709z"/>
	<path fill="#FFFFFF" d="M-24.24,14.633v2.202h-5.52c-1.12,0-1.84,0.134-2.16,0.399c-0.32,0.268-0.479,0.667-0.479,1.201
		c0,0.682,0.253,1.408,0.76,2.183c0.267-0.094,1.007-0.141,2.22-0.141h5.18v2.183h-5.38c-1.267,0-2.06,0.153-2.38,0.46
		c-0.267,0.254-0.399,0.621-0.399,1.101c0,0.721,0.227,1.421,0.68,2.102h7.479v2.202H-34v-1.921h0.721c-0.667-0.908-1-1.861-1-2.863
		c0-1.014,0.366-1.814,1.1-2.401c-0.733-1.121-1.1-2.202-1.1-3.243c0-1.027,0.293-1.835,0.88-2.422
		c0.467-0.467,1.073-0.774,1.819-0.921c0.468-0.08,1.287-0.12,2.46-0.12H-24.24z"/>
	<path fill="#FFFFFF" d="M-29.24,3.844c0.12,0,0.271,0.007,0.45,0.02c0.181,0.014,0.29,0.021,0.33,0.021v6.625
		c0.694,0,1.293-0.207,1.8-0.62c0.601-0.507,0.9-1.228,0.9-2.162c0-0.801-0.247-1.695-0.74-2.683l1.44-0.761
		C-24.354,5.285-24,6.493-24,7.906c0,1.495-0.486,2.67-1.46,3.523c-0.92,0.828-2.12,1.241-3.6,1.241
		c-1.533,0-2.787-0.427-3.76-1.281c-0.974-0.854-1.46-1.968-1.46-3.343c0-1.321,0.446-2.353,1.34-3.093
		C-32.047,4.214-30.814,3.844-29.24,3.844z M-30.1,5.926c-0.601,0-1.12,0.127-1.561,0.38C-32.286,6.68-32.6,7.247-32.6,8.008
		c0,0.681,0.229,1.245,0.689,1.69c0.46,0.447,1.063,0.719,1.811,0.812V5.926z"/>
	<path fill="#FFFFFF" d="M-24.24-6.526v2.202h-5.34c-1.293,0-2.087,0.146-2.38,0.44S-32.4-3.177-32.4-2.643
		c0,0.682,0.239,1.408,0.72,2.183h7.439v2.202H-34V-0.18h0.721c-0.667-0.921-1-1.889-1-2.902c0-1.027,0.3-1.842,0.899-2.442
		c0.454-0.453,1.014-0.747,1.68-0.881c0.4-0.08,1.067-0.12,2-0.12H-24.24z"/>
	<path fill="#FFFFFF" d="M-24.56-15.174c0.386,0.613,0.58,1.375,0.58,2.281c0,1.028-0.273,1.815-0.82,2.362
		c-0.347,0.347-0.787,0.567-1.32,0.661c-0.293,0.054-0.853,0.08-1.68,0.08h-4.4v1.702H-34v-1.702h-2.74v-2.202H-34v-2.883h1.8v2.883
		h4.601c0.573,0,0.973-0.061,1.2-0.18c0.374-0.188,0.56-0.567,0.56-1.142c0-0.333-0.086-0.767-0.26-1.301L-24.56-15.174z"/>
</g>
<line fill="none" stroke="#000000" stroke-width="3" stroke-linecap="square" stroke-linejoin="round" stroke-miterlimit="10" x1="-9.078" y1="265.992" x2="596.188" y2="265.992"/>
<line fill="none" stroke="#1B3449" stroke-width="3" stroke-linecap="square" stroke-linejoin="round" stroke-miterlimit="10" x1="-9.078" y1="265.992" x2="-9.078" y2="260.373"/>
<line fill="none" stroke="#000000" stroke-width="3" stroke-linecap="square" stroke-linejoin="round" stroke-miterlimit="10" x1="596.188" y1="265.992" x2="596.188" y2="260.373"/>
<line fill="none" stroke="#000000" stroke-width="3" stroke-linecap="square" stroke-linejoin="round" stroke-miterlimit="10" x1="-9.078" y1="265.992" x2="-9.078" y2="-32"/>
<line fill="none" stroke="#000000" stroke-width="3" stroke-linecap="square" stroke-linejoin="round" stroke-miterlimit="10" x1="-9.078" y1="-32" x2="-3.465" y2="-32"/>
<path fill="none" stroke="#0072C6" stroke-width="7" stroke-miterlimit="10" d="M14.189,5.325c0,0,89.058,145.947,234,183.333
	c170.954,44.094,170.954,44.094,203.574,41.334c85.393-7.226,55.102-32.669,70.012-45.334
	c14.911-12.666,42.081,52.667,55.751,51.334"/>
<g>
	<path d="M506.992-24.1l-3.339,14.007h-2.667l-2.604-11.298l-2.73,11.298h-2.688L489.667-24.1h2.394l2.311,11.193l2.751-11.193
		h2.646l2.646,11.193l2.373-11.193H506.992z"/>
	<path d="M515.245-20.405l-0.524,1.785c-0.197-0.042-0.428-0.063-0.693-0.063c-1.246,0-2.233,0.525-2.961,1.575v7.014h-2.311
		v-10.248h2.016v1.302c0.168-0.266,0.477-0.546,0.925-0.84c0.741-0.504,1.546-0.756,2.415-0.756
		C514.517-20.635,514.894-20.558,515.245-20.405z"/>
	<path d="M519.298-23.407c0,0.378-0.13,0.697-0.388,0.956c-0.26,0.259-0.578,0.388-0.956,0.388s-0.7-0.129-0.966-0.388
		c-0.266-0.259-0.399-0.578-0.399-0.956s0.134-0.7,0.399-0.966s0.588-0.399,0.966-0.399s0.696,0.133,0.956,0.399
		C519.168-24.107,519.298-23.785,519.298-23.407z M519.109-10.094h-2.311v-10.248h2.311V-10.094z"/>
	<path d="M528.306-10.429c-0.644,0.406-1.441,0.609-2.394,0.609c-1.078,0-1.904-0.287-2.478-0.861
		c-0.365-0.364-0.596-0.826-0.693-1.386c-0.057-0.308-0.084-0.896-0.084-1.764v-4.62h-1.785v-1.89h1.785v-2.877h2.311v2.877h3.023
		v1.89h-3.023v4.83c0,0.602,0.062,1.022,0.188,1.26c0.196,0.392,0.595,0.588,1.196,0.588c0.351,0,0.806-0.091,1.365-0.273
		L528.306-10.429z"/>
	<path d="M532.99-23.407c0,0.378-0.13,0.697-0.389,0.956c-0.26,0.259-0.578,0.388-0.955,0.388c-0.379,0-0.701-0.129-0.967-0.388
		c-0.266-0.259-0.398-0.578-0.398-0.956s0.133-0.7,0.398-0.966s0.588-0.399,0.967-0.399c0.377,0,0.695,0.133,0.955,0.399
		C532.86-24.107,532.99-23.785,532.99-23.407z M532.801-10.094h-2.31v-10.248h2.31V-10.094z"/>
	<path d="M544.14-10.094h-2.31V-15.7c0-1.358-0.154-2.191-0.462-2.499c-0.309-0.308-0.742-0.462-1.303-0.462
		c-0.713,0-1.477,0.252-2.289,0.756v7.812h-2.309v-10.248h2.016v0.756c0.966-0.7,1.98-1.05,3.045-1.05
		c1.078,0,1.932,0.315,2.562,0.945c0.476,0.476,0.784,1.064,0.925,1.764c0.084,0.42,0.125,1.12,0.125,2.1V-10.094z"/>
	<path d="M555.607-10.156c0,0.91-0.05,1.582-0.147,2.016c-0.154,0.616-0.455,1.155-0.903,1.617
		c-0.854,0.854-2.064,1.281-3.633,1.281c-1.134,0-2.178-0.224-3.129-0.672c-0.602-0.266-1.016-0.525-1.239-0.777l0.966-1.512
		c1.204,0.686,2.254,1.029,3.15,1.029c0.854,0,1.508-0.199,1.963-0.599c0.455-0.399,0.684-1.179,0.684-2.341v-0.693
		c-0.84,0.476-1.701,0.714-2.584,0.714c-1.414,0-2.533-0.504-3.359-1.512c-0.784-0.938-1.176-2.114-1.176-3.528
		c0-1.568,0.5-2.877,1.501-3.927c1.001-1.05,2.292-1.575,3.874-1.575c1.246,0,2.59,0.343,4.033,1.029V-10.156z M553.318-12.656
		v-5.712c-0.588-0.252-1.184-0.378-1.785-0.378c-0.883,0-1.604,0.318-2.163,0.956c-0.561,0.637-0.841,1.487-0.841,2.551
		c0,0.994,0.256,1.789,0.768,2.383c0.51,0.595,1.15,0.893,1.921,0.893C552.002-11.963,552.701-12.194,553.318-12.656z"/>
	<path d="M574.003-16.603c0,1.47-0.063,2.527-0.188,3.171c-0.183,0.882-0.554,1.603-1.113,2.163c-0.98,0.98-2.318,1.47-4.012,1.47
		s-3.037-0.497-4.031-1.491c-0.561-0.56-0.924-1.267-1.092-2.121c-0.113-0.518-0.168-1.344-0.168-2.478V-24.1h2.436v8.757
		c0,0.658,0.027,1.127,0.084,1.407c0.098,0.504,0.308,0.917,0.63,1.239c0.532,0.532,1.273,0.798,2.226,0.798
		c0.854,0,1.54-0.259,2.059-0.777c0.378-0.378,0.609-0.875,0.693-1.491c0.055-0.336,0.084-1.147,0.084-2.436V-24.1h2.394V-16.603z"
		/>
	<path d="M586.224-15.385c0,1.624-0.482,2.954-1.449,3.99c-0.966,1.036-2.142,1.554-3.527,1.554c-0.771,0-1.484-0.168-2.143-0.504
		v4.767h-2.31v-14.763h2.036v0.693c0.799-0.658,1.736-0.987,2.814-0.987c1.372,0,2.479,0.487,3.318,1.459
		C585.804-18.203,586.224-16.94,586.224-15.385z M583.893-15.344c0-1.022-0.267-1.848-0.798-2.478
		c-0.504-0.588-1.148-0.882-1.932-0.882c-0.812,0-1.498,0.238-2.059,0.714v5.691c0.561,0.364,1.162,0.546,1.807,0.546
		c0.881,0,1.599-0.318,2.152-0.955C583.617-13.345,583.893-14.223,583.893-15.344z"/>
</g>
</svg>
