<?xml version="1.0" encoding="utf-8"?>
<!-- Generator: Adobe Illustrator 16.0.4, SVG Export Plug-In . SVG Version: 6.00 Build 0)  -->
<!DOCTYPE svg PUBLIC "-//W3C//DTD SVG 1.1//EN" "http://www.w3.org/Graphics/SVG/1.1/DTD/svg11.dtd">
<svg version="1.1" id="Layer_1" xmlns="http://www.w3.org/2000/svg" xmlns:xlink="http://www.w3.org/1999/xlink" x="0px" y="0px"
	 width="724px" height="91.041px" viewBox="0 0 724 91.041" enable-background="new 0 0 724 91.041" xml:space="preserve">
<linearGradient id="SVGID_1_" gradientUnits="userSpaceOnUse" x1="0.1658" y1="-459.9609" x2="722.9358" y2="-459.9609" gradientTransform="matrix(1 0 0 -1 -0.1655 -413.3398)">
	<stop  offset="0" style="stop-color:#E53624"/>
	<stop  offset="1" style="stop-color:#4DAD3D"/>
</linearGradient>
<line fill="none" stroke="url(#SVGID_1_)" stroke-width="7" stroke-miterlimit="10" x1="0" y1="46.621" x2="722.771" y2="46.621"/>
<rect x="1" y="61.794" fill="none" width="131.333" height="20.895"/>
<g enable-background="new    ">
	<path fill="#FFFFFF" d="M6.764,62.96L4.3,77.634H2.892L5.356,62.96H6.764z"/>
	<path fill="#FFFFFF" d="M23.462,69.406c0,0.293-0.081,0.916-0.242,1.869l-1.078,6.358h-1.32l1.078-6.16
		c0.176-1.012,0.264-1.635,0.264-1.87c0-1.1-0.624-1.649-1.87-1.649c-1.115,0-2.237,0.47-3.366,1.407
		c0,0.323-0.081,0.961-0.242,1.914l-1.078,6.358h-1.32l1.078-6.16c0.176-1.012,0.264-1.635,0.264-1.87
		c0-0.542-0.176-0.953-0.528-1.231s-0.8-0.418-1.342-0.418c-1.085,0-2.186,0.454-3.3,1.363l-1.43,8.316H7.71l1.804-10.56h1.254
		l-0.176,0.989c1.144-0.836,2.281-1.254,3.41-1.254c1.276,0,2.178,0.484,2.706,1.452c1.261-0.968,2.537-1.452,3.828-1.452
		c0.997,0,1.76,0.294,2.288,0.88C23.249,68.174,23.462,68.746,23.462,69.406z"/>
	<path fill="#FFFFFF" d="M35.099,70.88c0,1.862-0.521,3.469-1.562,4.818c-1.115,1.438-2.53,2.155-4.246,2.155
		c-1.027,0-1.922-0.315-2.684-0.945l-0.946,5.411h-1.32l2.596-15.245h1.254l-0.176,0.989c1.085-0.836,2.178-1.254,3.278-1.254
		c1.129,0,2.046,0.378,2.75,1.133C34.747,68.698,35.099,69.678,35.099,70.88z M33.736,71.034c0-0.909-0.242-1.646-0.726-2.211
		s-1.173-0.848-2.068-0.848c-1.042,0-2.061,0.448-3.058,1.342l-1.078,6.336c0.821,0.69,1.687,1.034,2.596,1.034
		c1.334,0,2.412-0.608,3.234-1.826C33.369,73.762,33.736,72.485,33.736,71.034z"/>
	<path fill="#FFFFFF" d="M44.119,67.052l-0.44,1.1c-0.337-0.073-0.631-0.109-0.88-0.109c-1.35,0-2.582,0.777-3.696,2.332
		l-1.232,7.26h-1.32l1.782-10.56h1.254l-0.264,1.605c1.1-1.261,2.317-1.892,3.652-1.892C43.517,66.788,43.899,66.876,44.119,67.052z
		"/>
	<path fill="#FFFFFF" d="M53.579,71.034c0,1.833-0.521,3.402-1.562,4.708c-1.115,1.407-2.538,2.111-4.268,2.111
		c-1.203,0-2.171-0.381-2.904-1.144s-1.1-1.789-1.1-3.08c0-1.833,0.521-3.402,1.562-4.708c1.115-1.408,2.538-2.112,4.268-2.112
		c1.203,0,2.17,0.382,2.904,1.145C53.212,68.717,53.579,69.743,53.579,71.034z M52.215,71.188c0-0.938-0.22-1.693-0.66-2.266
		c-0.484-0.646-1.181-0.968-2.09-0.968c-1.32,0-2.398,0.608-3.234,1.826c-0.748,1.07-1.122,2.303-1.122,3.695
		c0,0.939,0.22,1.694,0.66,2.267c0.484,0.646,1.18,0.968,2.09,0.968c1.32,0,2.398-0.608,3.234-1.826
		C51.841,73.813,52.215,72.581,52.215,71.188z"/>
	<path fill="#FFFFFF" d="M65.547,67.074l-5.94,10.56h-1.562l-2.31-10.56h1.408l1.914,9.174l5.104-9.174H65.547z"/>
	<path fill="#FFFFFF" d="M75.051,69.273c0,0.852-0.345,1.621-1.034,2.311c-1.188,1.188-3.417,1.885-6.688,2.09
		c0.029,0.909,0.319,1.643,0.869,2.2c0.55,0.558,1.294,0.836,2.233,0.836c0.806,0,1.701-0.271,2.684-0.814l0.572,0.924
		c-0.235,0.221-0.646,0.434-1.232,0.639c-0.734,0.278-1.452,0.418-2.156,0.418c-1.305,0-2.351-0.385-3.135-1.155
		c-0.785-0.77-1.177-1.822-1.177-3.157c0-1.848,0.568-3.436,1.705-4.763s2.57-1.991,4.301-1.991c0.865,0,1.591,0.221,2.178,0.66
		C74.757,67.91,75.051,68.512,75.051,69.273z M73.775,69.361c0-0.454-0.172-0.81-0.517-1.066s-0.781-0.385-1.309-0.385
		c-1.291,0-2.384,0.564-3.278,1.693c-0.733,0.924-1.166,1.937-1.298,3.036c0.895-0.044,1.833-0.198,2.816-0.462
		c1.378-0.366,2.361-0.843,2.948-1.43C73.562,70.322,73.775,69.86,73.775,69.361z"/>
	<path fill="#FFFFFF" d="M92.079,69.406c0,0.293-0.081,0.916-0.242,1.869l-1.078,6.358h-1.32l1.078-6.16
		c0.176-1.012,0.264-1.635,0.264-1.87c0-1.1-0.624-1.649-1.87-1.649c-1.115,0-2.237,0.47-3.366,1.407
		c0,0.323-0.081,0.961-0.242,1.914l-1.078,6.358h-1.32l1.078-6.16c0.176-1.012,0.264-1.635,0.264-1.87
		c0-0.542-0.176-0.953-0.528-1.231s-0.8-0.418-1.342-0.418c-1.085,0-2.186,0.454-3.3,1.363l-1.43,8.316h-1.32l1.804-10.56h1.254
		l-0.176,0.989c1.144-0.836,2.281-1.254,3.41-1.254c1.276,0,2.178,0.484,2.706,1.452c1.261-0.968,2.537-1.452,3.828-1.452
		c0.997,0,1.76,0.294,2.288,0.88C91.866,68.174,92.079,68.746,92.079,69.406z"/>
	<path fill="#FFFFFF" d="M102.99,69.273c0,0.852-0.345,1.621-1.034,2.311c-1.188,1.188-3.417,1.885-6.688,2.09
		c0.029,0.909,0.319,1.643,0.869,2.2c0.55,0.558,1.294,0.836,2.233,0.836c0.806,0,1.701-0.271,2.684-0.814l0.572,0.924
		c-0.235,0.221-0.646,0.434-1.232,0.639c-0.734,0.278-1.452,0.418-2.156,0.418c-1.305,0-2.351-0.385-3.135-1.155
		c-0.785-0.77-1.177-1.822-1.177-3.157c0-1.848,0.568-3.436,1.705-4.763s2.57-1.991,4.301-1.991c0.865,0,1.591,0.221,2.178,0.66
		C102.697,67.91,102.99,68.512,102.99,69.273z M101.715,69.361c0-0.454-0.172-0.81-0.517-1.066s-0.781-0.385-1.309-0.385
		c-1.291,0-2.384,0.564-3.278,1.693c-0.733,0.924-1.166,1.937-1.298,3.036c0.895-0.044,1.833-0.198,2.816-0.462
		c1.378-0.366,2.361-0.843,2.948-1.43C101.502,70.322,101.715,69.86,101.715,69.361z"/>
	<path fill="#FFFFFF" d="M113.727,69.406c0,0.293-0.081,0.916-0.242,1.869l-1.078,6.358h-1.32l1.078-6.16
		c0.176-1.012,0.264-1.635,0.264-1.87c0-1.1-0.682-1.649-2.046-1.649c-1.159,0-2.281,0.454-3.366,1.363l-1.43,8.316h-1.32
		l1.804-10.56h1.254l-0.176,0.989c1.144-0.836,2.317-1.254,3.52-1.254c0.909,0,1.646,0.231,2.211,0.693S113.727,68.6,113.727,69.406
		z"/>
	<path fill="#FFFFFF" d="M122.658,67.074l-0.176,1.077h-3.388l-0.99,5.742c-0.162,0.939-0.242,1.504-0.242,1.694
		c0,0.763,0.433,1.144,1.298,1.144c0.381,0,0.902-0.146,1.562-0.439l0.44,0.945c-0.851,0.426-1.599,0.639-2.244,0.639
		c-0.66,0-1.21-0.154-1.65-0.462c-0.514-0.367-0.77-0.88-0.77-1.54c0-0.19,0.081-0.756,0.242-1.694l1.034-6.028h-1.848l0.176-1.077
		h1.848l0.506-2.992h1.32l-0.506,2.992H122.658z"/>
	<path fill="#FFFFFF" d="M131.106,67.866l-0.704,0.88c-0.675-0.543-1.422-0.814-2.244-0.814c-0.836,0-1.482,0.228-1.936,0.683
		c-0.293,0.293-0.44,0.659-0.44,1.1c0,0.352,0.125,0.652,0.374,0.902c0.249,0.249,0.773,0.598,1.573,1.045s1.368,0.832,1.705,1.154
		c0.528,0.528,0.792,1.13,0.792,1.805c0,0.953-0.352,1.734-1.056,2.343c-0.704,0.608-1.665,0.913-2.882,0.913
		c-1.335,0-2.494-0.389-3.476-1.166l0.682-0.946c0.924,0.631,1.855,0.946,2.794,0.946c0.63,0,1.173-0.125,1.628-0.374
		c0.601-0.353,0.902-0.88,0.902-1.584c0-0.572-0.381-1.107-1.144-1.606c-0.719-0.425-1.438-0.851-2.156-1.275
		c-0.763-0.587-1.144-1.269-1.144-2.046c0-0.909,0.355-1.643,1.067-2.2s1.587-0.836,2.629-0.836
		C129.464,66.788,130.475,67.147,131.106,67.866z"/>
</g>
<rect x="590.101" y="61.795" fill="none" width="131.334" height="20.896"/>
<g enable-background="new    ">
	<path fill="#FFFFFF" d="M659.198,62.96L659,64.147h-6.139l-0.88,5.214h5.742l-0.198,1.166h-5.742l-1.188,7.106h-1.408l2.464-14.674
		H659.198z"/>
	<path fill="#FFFFFF" d="M663.026,61.794l-2.684,15.84h-1.32l2.684-15.84H663.026z"/>
	<path fill="#FFFFFF" d="M672.948,67.777l-1.584,9.856h-1.21l0.198-1.166c-1.027,0.924-2.076,1.386-3.146,1.386
		c-1.086,0-1.957-0.377-2.617-1.133c-0.66-0.755-0.99-1.734-0.99-2.937c0-1.937,0.52-3.564,1.562-4.885
		c1.101-1.393,2.522-2.09,4.269-2.09C670.865,66.81,672.037,67.133,672.948,67.777z M671.539,68.504
		c-0.615-0.353-1.371-0.528-2.266-0.528c-1.291,0-2.336,0.543-3.135,1.628c-0.8,1.086-1.199,2.398-1.199,3.938
		c0,0.836,0.184,1.54,0.55,2.111c0.454,0.69,1.122,1.034,2.002,1.034c1.114,0,2.097-0.469,2.948-1.407L671.539,68.504z"/>
	<path fill="#FFFFFF" d="M689.778,67.074l-4.885,10.56h-1.627l-1.013-9.108l-4.18,9.108h-1.628l-1.145-10.56h1.364l0.901,9.107
		l4.158-9.107h1.629l1.012,9.107l4.048-9.107H689.778z"/>
	<path fill="#FFFFFF" d="M694.397,61.794l-2.684,15.84h-1.32l2.685-15.84H694.397z"/>
	<path fill="#FFFFFF" d="M704.033,69.273c0,0.852-0.346,1.621-1.034,2.311c-1.188,1.188-3.417,1.885-6.688,2.09
		c0.029,0.909,0.319,1.643,0.869,2.2c0.551,0.558,1.295,0.836,2.233,0.836c0.806,0,1.701-0.271,2.685-0.814l0.571,0.924
		c-0.235,0.221-0.646,0.434-1.231,0.639c-0.734,0.278-1.453,0.418-2.156,0.418c-1.306,0-2.352-0.385-3.135-1.155
		c-0.785-0.77-1.178-1.822-1.178-3.157c0-1.848,0.568-3.436,1.705-4.763s2.57-1.991,4.301-1.991c0.865,0,1.592,0.221,2.178,0.66
		C703.74,67.91,704.033,68.512,704.033,69.273z M702.757,69.361c0-0.454-0.173-0.81-0.517-1.066
		c-0.346-0.257-0.781-0.385-1.309-0.385c-1.291,0-2.385,0.564-3.279,1.693c-0.732,0.924-1.166,1.937-1.297,3.036
		c0.895-0.044,1.832-0.198,2.815-0.462c1.378-0.366,2.361-0.843,2.948-1.43C702.544,70.322,702.757,69.86,702.757,69.361z"/>
	<path fill="#FFFFFF" d="M712.899,67.866l-0.704,0.88c-0.675-0.543-1.423-0.814-2.243-0.814c-0.836,0-1.482,0.228-1.937,0.683
		c-0.294,0.293-0.44,0.659-0.44,1.1c0,0.352,0.125,0.652,0.375,0.902c0.248,0.249,0.773,0.598,1.572,1.045s1.367,0.832,1.705,1.154
		c0.527,0.528,0.792,1.13,0.792,1.805c0,0.953-0.353,1.734-1.056,2.343c-0.704,0.608-1.665,0.913-2.883,0.913
		c-1.334,0-2.493-0.389-3.476-1.166l0.683-0.946c0.924,0.631,1.854,0.946,2.793,0.946c0.631,0,1.174-0.125,1.629-0.374
		c0.601-0.353,0.901-0.88,0.901-1.584c0-0.572-0.382-1.107-1.144-1.606c-0.719-0.425-1.438-0.851-2.156-1.275
		c-0.763-0.587-1.145-1.269-1.145-2.046c0-0.909,0.355-1.643,1.067-2.2s1.587-0.836,2.63-0.836
		C711.256,66.788,712.268,67.147,712.899,67.866z"/>
	<path fill="#FFFFFF" d="M721.567,67.866l-0.704,0.88c-0.675-0.543-1.423-0.814-2.243-0.814c-0.836,0-1.482,0.228-1.937,0.683
		c-0.294,0.293-0.44,0.659-0.44,1.1c0,0.352,0.125,0.652,0.375,0.902c0.248,0.249,0.773,0.598,1.572,1.045s1.367,0.832,1.705,1.154
		c0.527,0.528,0.792,1.13,0.792,1.805c0,0.953-0.353,1.734-1.056,2.343c-0.704,0.608-1.665,0.913-2.883,0.913
		c-1.334,0-2.493-0.389-3.476-1.166l0.683-0.946c0.924,0.631,1.854,0.946,2.793,0.946c0.631,0,1.174-0.125,1.629-0.374
		c0.601-0.353,0.901-0.88,0.901-1.584c0-0.572-0.382-1.107-1.144-1.606c-0.719-0.425-1.438-0.851-2.156-1.275
		c-0.763-0.587-1.145-1.269-1.145-2.046c0-0.909,0.355-1.643,1.067-2.2s1.587-0.836,2.63-0.836
		C719.924,66.788,720.936,67.147,721.567,67.866z"/>
</g>
<rect x="7.437" y="27.3" fill="none" width="177.854" height="19.321"/>
<g enable-background="new    ">
	<path fill="#FFFFFF" d="M14.379,34.138c0,0.719-0.217,1.295-0.65,1.729c-0.373,0.373-0.854,0.615-1.443,0.729
		c-0.373,0.069-0.997,0.104-1.872,0.104H8.425v-8.671h2.613c0.572,0,1.009,0.034,1.313,0.104c0.424,0.096,0.78,0.286,1.066,0.572
		c0.442,0.442,0.663,0.997,0.663,1.664c0,0.979-0.438,1.607-1.313,1.885C13.842,32.478,14.379,33.106,14.379,34.138z M12.611,30.445
		c0-0.338-0.1-0.615-0.299-0.832c-0.182-0.19-0.446-0.312-0.793-0.364c-0.156-0.025-0.473-0.039-0.949-0.039H9.868v2.522h0.624
		c0.875,0,1.464-0.139,1.768-0.416C12.494,31.1,12.611,30.81,12.611,30.445z M12.858,34.15c0-0.338-0.117-0.624-0.351-0.858
		c-0.199-0.199-0.49-0.325-0.871-0.377c-0.182-0.025-0.551-0.039-1.105-0.039H9.868v2.626h0.884c0.858,0,1.447-0.16,1.768-0.48
		C12.745,34.796,12.858,34.506,12.858,34.15z"/>
	<path fill="#FFFFFF" d="M21.295,33.448c0,0.078-0.004,0.176-0.013,0.293c-0.009,0.116-0.013,0.188-0.013,0.214h-4.303
		c0,0.451,0.134,0.841,0.403,1.17c0.33,0.391,0.797,0.585,1.404,0.585c0.52,0,1.101-0.16,1.742-0.48l0.494,0.936
		c-0.65,0.46-1.435,0.689-2.353,0.689c-0.971,0-1.733-0.316-2.288-0.949c-0.537-0.598-0.806-1.378-0.806-2.34
		c0-0.997,0.277-1.812,0.832-2.444c0.554-0.633,1.278-0.949,2.171-0.949c0.858,0,1.527,0.291,2.008,0.871
		C21.054,31.624,21.295,32.426,21.295,33.448z M19.943,32.89c0-0.391-0.083-0.729-0.247-1.015c-0.243-0.407-0.611-0.61-1.105-0.61
		c-0.442,0-0.808,0.149-1.099,0.448s-0.466,0.691-0.526,1.177H19.943z"/>
	<path fill="#FFFFFF" d="M26.625,36.49c-0.399,0.251-0.893,0.377-1.482,0.377c-0.667,0-1.179-0.178-1.534-0.533
		c-0.226-0.225-0.368-0.511-0.429-0.857c-0.035-0.19-0.052-0.555-0.052-1.093v-2.859h-1.105v-1.17h1.105v-1.781h1.43v1.781h1.872
		v1.17h-1.872v2.99c0,0.372,0.039,0.633,0.117,0.779c0.122,0.243,0.369,0.364,0.741,0.364c0.216,0,0.498-0.057,0.845-0.169
		L26.625,36.49z"/>
	<path fill="#FFFFFF" d="M32.02,36.49c-0.399,0.251-0.893,0.377-1.482,0.377c-0.667,0-1.179-0.178-1.534-0.533
		c-0.226-0.225-0.368-0.511-0.429-0.857c-0.035-0.19-0.052-0.555-0.052-1.093v-2.859h-1.105v-1.17h1.105v-1.781h1.43v1.781h1.872
		v1.17h-1.872v2.99c0,0.372,0.039,0.633,0.117,0.779c0.122,0.243,0.369,0.364,0.741,0.364c0.216,0,0.498-0.057,0.845-0.169
		L32.02,36.49z"/>
	<path fill="#FFFFFF" d="M38.546,33.448c0,0.078-0.004,0.176-0.013,0.293c-0.009,0.116-0.013,0.188-0.013,0.214h-4.303
		c0,0.451,0.134,0.841,0.403,1.17c0.33,0.391,0.797,0.585,1.404,0.585c0.52,0,1.101-0.16,1.742-0.48l0.494,0.936
		c-0.65,0.46-1.435,0.689-2.353,0.689c-0.971,0-1.733-0.316-2.288-0.949c-0.537-0.598-0.806-1.378-0.806-2.34
		c0-0.997,0.277-1.812,0.832-2.444c0.554-0.633,1.278-0.949,2.171-0.949c0.858,0,1.527,0.291,2.008,0.871
		C38.305,31.624,38.546,32.426,38.546,33.448z M37.194,32.89c0-0.391-0.083-0.729-0.247-1.015c-0.243-0.407-0.611-0.61-1.105-0.61
		c-0.442,0-0.808,0.149-1.099,0.448s-0.466,0.691-0.526,1.177H37.194z"/>
	<path fill="#FFFFFF" d="M43.928,30.315l-0.325,1.104c-0.122-0.025-0.264-0.039-0.429-0.039c-0.771,0-1.383,0.325-1.833,0.976v4.342
		h-1.43v-6.344h1.248v0.806c0.104-0.164,0.294-0.338,0.572-0.52c0.459-0.312,0.958-0.469,1.495-0.469
		C43.478,30.172,43.712,30.22,43.928,30.315z"/>
	<path fill="#FFFFFF" d="M53.418,36.113c-0.096,0.104-0.312,0.234-0.65,0.39c-0.529,0.234-1.087,0.352-1.677,0.352
		c-0.945,0-1.709-0.302-2.294-0.903c-0.585-0.603-0.877-1.385-0.877-2.347c0-0.997,0.312-1.818,0.936-2.464
		c0.624-0.646,1.412-0.969,2.366-0.969c0.537,0,1.036,0.108,1.495,0.325c0.312,0.147,0.516,0.282,0.611,0.403l-0.585,0.896
		c-0.442-0.294-0.918-0.441-1.43-0.441c-0.589,0-1.07,0.221-1.443,0.663c-0.338,0.407-0.507,0.901-0.507,1.481
		c0,0.642,0.167,1.162,0.5,1.561c0.333,0.398,0.795,0.598,1.384,0.598c0.477,0,1.014-0.16,1.612-0.481L53.418,36.113z"/>
	<path fill="#FFFFFF" d="M60.308,33.487c0,1.006-0.295,1.818-0.884,2.438c-0.589,0.62-1.356,0.93-2.301,0.93
		c-0.91,0-1.649-0.306-2.217-0.917c-0.567-0.61-0.851-1.41-0.851-2.398c0-0.996,0.294-1.807,0.884-2.431s1.356-0.937,2.301-0.937
		c0.91,0,1.649,0.306,2.217,0.917C60.024,31.7,60.308,32.499,60.308,33.487z M58.865,33.539c0-0.649-0.16-1.177-0.481-1.579
		c-0.32-0.403-0.728-0.604-1.222-0.604c-0.503,0-0.906,0.194-1.209,0.585c-0.304,0.39-0.455,0.905-0.455,1.547
		c0,0.65,0.16,1.177,0.481,1.579c0.32,0.403,0.732,0.604,1.235,0.604c0.52,0,0.925-0.192,1.216-0.578
		C58.719,34.707,58.865,34.189,58.865,33.539z"/>
	<path fill="#FFFFFF" d="M70.695,36.698h-1.43V33.11c0-0.729-0.086-1.196-0.26-1.404s-0.434-0.312-0.78-0.312
		c-0.442,0-0.914,0.164-1.417,0.494c0.061,0.173,0.091,0.654,0.091,1.442v3.367h-1.417v-3.497c0-0.823-0.1-1.339-0.299-1.547
		c-0.165-0.173-0.403-0.26-0.715-0.26c-0.468,0-0.923,0.147-1.365,0.441v4.862h-1.43v-6.344h1.248v0.468
		c0.589-0.434,1.209-0.65,1.859-0.65c0.659,0,1.179,0.239,1.56,0.716c0.728-0.477,1.43-0.716,2.106-0.716
		c0.667,0,1.191,0.191,1.573,0.572c0.303,0.304,0.502,0.698,0.598,1.183c0.052,0.304,0.078,0.837,0.078,1.6V36.698z"/>
	<path fill="#FFFFFF" d="M81.289,36.698h-1.43V33.11c0-0.729-0.086-1.196-0.26-1.404s-0.434-0.312-0.78-0.312
		c-0.442,0-0.914,0.164-1.417,0.494c0.061,0.173,0.091,0.654,0.091,1.442v3.367h-1.417v-3.497c0-0.823-0.1-1.339-0.299-1.547
		c-0.165-0.173-0.403-0.26-0.715-0.26c-0.468,0-0.923,0.147-1.365,0.441v4.862h-1.43v-6.344h1.248v0.468
		c0.589-0.434,1.209-0.65,1.859-0.65c0.659,0,1.179,0.239,1.56,0.716c0.728-0.477,1.43-0.716,2.106-0.716
		c0.667,0,1.191,0.191,1.573,0.572c0.303,0.304,0.502,0.698,0.598,1.183c0.052,0.304,0.078,0.837,0.078,1.6V36.698z"/>
	<path fill="#FFFFFF" d="M88.14,36.698h-1.248v-0.481c-0.581,0.434-1.209,0.65-1.885,0.65c-0.667,0-1.196-0.195-1.586-0.585
		c-0.295-0.295-0.485-0.658-0.572-1.092c-0.052-0.26-0.078-0.693-0.078-1.3v-3.536h1.43v3.458c0,0.434,0.009,0.719,0.026,0.857
		c0.043,0.355,0.154,0.607,0.332,0.754c0.178,0.147,0.431,0.222,0.761,0.222c0.364,0,0.828-0.156,1.391-0.469v-4.822h1.43V36.698z"
		/>
	<path fill="#FFFFFF" d="M95.174,36.698h-1.43v-3.471c0-0.841-0.096-1.356-0.286-1.547c-0.19-0.191-0.459-0.286-0.806-0.286
		c-0.442,0-0.915,0.155-1.417,0.468v4.836h-1.43v-6.344h1.248v0.468c0.598-0.434,1.226-0.65,1.885-0.65
		c0.667,0,1.196,0.195,1.586,0.585c0.295,0.295,0.485,0.659,0.572,1.093c0.052,0.26,0.078,0.693,0.078,1.3V36.698z"/>
	<path fill="#FFFFFF" d="M98.293,28.456c0,0.234-0.08,0.432-0.24,0.592c-0.161,0.16-0.358,0.24-0.592,0.24s-0.433-0.08-0.598-0.24
		c-0.165-0.16-0.247-0.357-0.247-0.592c0-0.233,0.082-0.433,0.247-0.598c0.165-0.165,0.364-0.247,0.598-0.247
		s0.431,0.082,0.592,0.247C98.213,28.023,98.293,28.223,98.293,28.456z M98.177,36.698h-1.43v-6.344h1.43V36.698z"/>
	<path fill="#FFFFFF" d="M105.028,36.113c-0.096,0.104-0.312,0.234-0.65,0.39c-0.529,0.234-1.087,0.352-1.677,0.352
		c-0.945,0-1.709-0.302-2.294-0.903c-0.585-0.603-0.877-1.385-0.877-2.347c0-0.997,0.312-1.818,0.936-2.464
		c0.624-0.646,1.412-0.969,2.366-0.969c0.537,0,1.036,0.108,1.495,0.325c0.312,0.147,0.516,0.282,0.611,0.403l-0.585,0.896
		c-0.442-0.294-0.918-0.441-1.43-0.441c-0.589,0-1.07,0.221-1.443,0.663c-0.338,0.407-0.507,0.901-0.507,1.481
		c0,0.642,0.167,1.162,0.5,1.561c0.333,0.398,0.795,0.598,1.384,0.598c0.477,0,1.014-0.16,1.612-0.481L105.028,36.113z"/>
	<path fill="#FFFFFF" d="M110.943,36.698h-1.248V36.23c-0.624,0.398-1.248,0.598-1.872,0.598c-0.616,0-1.109-0.184-1.482-0.553
		c-0.373-0.368-0.559-0.852-0.559-1.449c0-1.481,1.191-2.223,3.575-2.223h0.234v-0.247c0-0.391-0.069-0.654-0.208-0.793
		c-0.191-0.19-0.533-0.286-1.027-0.286c-0.563,0-1.136,0.165-1.716,0.494l-0.494-0.923c0.147-0.131,0.373-0.256,0.676-0.377
		c0.502-0.208,1.053-0.312,1.651-0.312c0.867,0,1.525,0.226,1.976,0.676c0.225,0.226,0.368,0.507,0.429,0.846
		c0.043,0.217,0.065,0.589,0.065,1.117V36.698z M109.591,35.294v-1.677h-0.299c-0.997,0-1.655,0.165-1.976,0.494
		c-0.165,0.165-0.247,0.382-0.247,0.65c0,0.312,0.106,0.55,0.318,0.715c0.212,0.164,0.479,0.247,0.799,0.247
		C108.594,35.724,109.062,35.58,109.591,35.294z"/>
	<path fill="#FFFFFF" d="M116.558,36.49c-0.399,0.251-0.893,0.377-1.482,0.377c-0.667,0-1.179-0.178-1.534-0.533
		c-0.226-0.225-0.368-0.511-0.429-0.857c-0.035-0.19-0.052-0.555-0.052-1.093v-2.859h-1.105v-1.17h1.105v-1.781h1.43v1.781h1.872
		v1.17h-1.872v2.99c0,0.372,0.039,0.633,0.117,0.779c0.122,0.243,0.369,0.364,0.741,0.364c0.216,0,0.498-0.057,0.845-0.169
		L116.558,36.49z"/>
	<path fill="#FFFFFF" d="M119.457,28.456c0,0.234-0.08,0.432-0.24,0.592c-0.161,0.16-0.358,0.24-0.592,0.24s-0.433-0.08-0.598-0.24
		c-0.165-0.16-0.247-0.357-0.247-0.592c0-0.233,0.082-0.433,0.247-0.598c0.165-0.165,0.364-0.247,0.598-0.247
		s0.431,0.082,0.592,0.247C119.377,28.023,119.457,28.223,119.457,28.456z M119.341,36.698h-1.43v-6.344h1.43V36.698z"/>
	<path fill="#FFFFFF" d="M126.945,33.487c0,1.006-0.295,1.818-0.884,2.438c-0.589,0.62-1.356,0.93-2.301,0.93
		c-0.91,0-1.649-0.306-2.217-0.917c-0.567-0.61-0.851-1.41-0.851-2.398c0-0.996,0.294-1.807,0.884-2.431s1.356-0.937,2.301-0.937
		c0.91,0,1.649,0.306,2.217,0.917C126.661,31.7,126.945,32.499,126.945,33.487z M125.502,33.539c0-0.649-0.16-1.177-0.481-1.579
		c-0.32-0.403-0.728-0.604-1.222-0.604c-0.503,0-0.906,0.194-1.209,0.585c-0.304,0.39-0.455,0.905-0.455,1.547
		c0,0.65,0.16,1.177,0.481,1.579c0.32,0.403,0.732,0.604,1.235,0.604c0.52,0,0.925-0.192,1.216-0.578
		C125.357,34.707,125.502,34.189,125.502,33.539z"/>
	<path fill="#FFFFFF" d="M133.679,36.698h-1.43v-3.471c0-0.841-0.096-1.356-0.286-1.547c-0.19-0.191-0.459-0.286-0.806-0.286
		c-0.442,0-0.915,0.155-1.417,0.468v4.836h-1.43v-6.344h1.248v0.468c0.598-0.434,1.226-0.65,1.885-0.65
		c0.667,0,1.196,0.195,1.586,0.585c0.295,0.295,0.485,0.659,0.572,1.093c0.052,0.26,0.078,0.693,0.078,1.3V36.698z"/>
</g>
<rect x="16.104" y="4.632" fill="none" width="177.854" height="19.321"/>
<g enable-background="new    ">
	<path fill="#FFFFFF" d="M23.619,12.597c0,0.78-0.25,1.42-0.75,1.92c-0.44,0.44-1.02,0.715-1.74,0.825
		c-0.39,0.06-1.22,0.09-2.49,0.09h-1.245V5.427h2.52c0.63,0,1.105,0.035,1.425,0.104c0.47,0.11,0.86,0.32,1.17,0.631
		c0.52,0.52,0.78,1.165,0.78,1.935c0,0.57-0.155,1.055-0.465,1.455c-0.31,0.4-0.72,0.65-1.23,0.75
		C22.944,10.512,23.619,11.276,23.619,12.597z M22.314,8.052c0-0.52-0.165-0.945-0.495-1.275c-0.28-0.279-0.69-0.455-1.23-0.524
		c-0.22-0.03-0.715-0.045-1.485-0.045h-0.75v3.765h0.99c1.2,0,2.025-0.225,2.475-0.675C22.149,8.967,22.314,8.552,22.314,8.052z
		 M22.644,12.627c0-0.49-0.175-0.91-0.525-1.261c-0.31-0.31-0.771-0.499-1.38-0.569c-0.23-0.03-0.775-0.045-1.635-0.045h-0.75v3.885
		h1.095c0.72,0,1.25-0.04,1.59-0.12c0.44-0.1,0.817-0.308,1.132-0.622C22.486,13.579,22.644,13.157,22.644,12.627z"/>
	<path fill="#FFFFFF" d="M31.209,11.531c0,0.021-0.005,0.091-0.015,0.21c-0.01,0.12-0.015,0.21-0.015,0.271h-5.16
		c0,0.82,0.215,1.48,0.645,1.979c0.43,0.501,1.04,0.75,1.83,0.75c0.61,0,1.305-0.194,2.085-0.585l0.405,0.69
		c-0.06,0.08-0.305,0.21-0.735,0.39c-0.6,0.23-1.21,0.346-1.83,0.346c-1.03,0-1.843-0.34-2.438-1.021
		c-0.595-0.68-0.893-1.575-0.893-2.685c0-1.16,0.297-2.088,0.893-2.783c0.595-0.694,1.392-1.042,2.393-1.042
		c0.85,0,1.53,0.3,2.04,0.899C30.944,9.582,31.209,10.441,31.209,11.531z M30.294,11.247c0-0.631-0.14-1.171-0.42-1.62
		c-0.35-0.54-0.845-0.811-1.485-0.811s-1.18,0.221-1.62,0.66c-0.44,0.44-0.68,1.03-0.72,1.771H30.294z"/>
	<path fill="#FFFFFF" d="M36.624,15.252c-0.46,0.229-0.935,0.345-1.425,0.345c-0.65,0-1.146-0.17-1.485-0.51
		c-0.19-0.19-0.31-0.445-0.36-0.766c-0.04-0.21-0.06-0.574-0.06-1.095v-4.26h-1.26V8.231h1.26v-2.04h0.9v2.04h2.31v0.735h-2.31v4.08
		c0,0.65,0.04,1.064,0.12,1.245c0.14,0.33,0.475,0.495,1.005,0.495c0.229,0,0.47-0.035,0.72-0.105c0.11-0.04,0.225-0.08,0.345-0.12
		L36.624,15.252z"/>
	<path fill="#FFFFFF" d="M42.174,15.252c-0.46,0.229-0.935,0.345-1.425,0.345c-0.65,0-1.146-0.17-1.485-0.51
		c-0.19-0.19-0.31-0.445-0.36-0.766c-0.04-0.21-0.06-0.574-0.06-1.095v-4.26h-1.26V8.231h1.26v-2.04h0.9v2.04h2.31v0.735h-2.31v4.08
		c0,0.65,0.04,1.064,0.12,1.245c0.14,0.33,0.475,0.495,1.005,0.495c0.229,0,0.47-0.035,0.72-0.105c0.11-0.04,0.225-0.08,0.345-0.12
		L42.174,15.252z"/>
	<path fill="#FFFFFF" d="M49.269,11.531c0,0.021-0.005,0.091-0.015,0.21c-0.01,0.12-0.015,0.21-0.015,0.271h-5.16
		c0,0.82,0.215,1.48,0.645,1.979c0.43,0.501,1.04,0.75,1.83,0.75c0.61,0,1.305-0.194,2.085-0.585l0.405,0.69
		c-0.06,0.08-0.305,0.21-0.735,0.39c-0.6,0.23-1.21,0.346-1.83,0.346c-1.03,0-1.843-0.34-2.438-1.021
		c-0.595-0.68-0.893-1.575-0.893-2.685c0-1.16,0.297-2.088,0.893-2.783c0.595-0.694,1.392-1.042,2.393-1.042
		c0.85,0,1.53,0.3,2.04,0.899C49.004,9.582,49.269,10.441,49.269,11.531z M48.354,11.247c0-0.631-0.14-1.171-0.42-1.62
		c-0.35-0.54-0.845-0.811-1.485-0.811s-1.18,0.221-1.62,0.66c-0.44,0.44-0.68,1.03-0.72,1.771H48.354z"/>
	<path fill="#FFFFFF" d="M54.848,8.156l-0.21,0.75c-0.21-0.029-0.405-0.045-0.585-0.045c-0.45,0-0.86,0.105-1.23,0.315
		c-0.27,0.149-0.505,0.345-0.705,0.585c-0.09,0.12-0.175,0.24-0.255,0.36v5.31h-0.9v-7.2h0.855v0.945c0.63-0.76,1.39-1.14,2.28-1.14
		C54.358,8.037,54.608,8.077,54.848,8.156z"/>
	<path fill="#FFFFFF" d="M65.873,11.682c0,1.15-0.33,2.088-0.99,2.812c-0.66,0.726-1.51,1.088-2.55,1.088
		c-0.66,0-1.205-0.136-1.635-0.405v3.45h-0.9V8.231h0.855v0.495c0.6-0.45,1.29-0.675,2.07-0.675c0.94,0,1.7,0.332,2.28,0.997
		S65.873,10.592,65.873,11.682z M64.943,11.651c0-0.83-0.215-1.505-0.645-2.024c-0.43-0.521-0.985-0.78-1.665-0.78
		c-0.73,0-1.375,0.235-1.935,0.705v4.755c0.58,0.32,1.13,0.48,1.65,0.48c0.78,0,1.407-0.288,1.882-0.863
		C64.706,13.35,64.943,12.592,64.943,11.651z"/>
	<path fill="#FFFFFF" d="M68.469,15.432h-0.9v-10.8h0.9V15.432z"/>
	<path fill="#FFFFFF" d="M75.533,15.432h-0.825v-0.54c-0.23,0.12-0.46,0.24-0.69,0.36c-0.54,0.22-1.075,0.33-1.605,0.33
		c-0.69,0-1.248-0.203-1.672-0.607c-0.425-0.405-0.638-0.933-0.638-1.583c0-1.569,1.385-2.354,4.155-2.354h0.375v-0.271
		c0-0.76-0.12-1.265-0.36-1.515c-0.27-0.28-0.725-0.42-1.365-0.42c-0.66,0-1.325,0.189-1.995,0.569l-0.375-0.63
		c0.11-0.109,0.345-0.24,0.705-0.39c0.55-0.23,1.14-0.345,1.77-0.345c0.84,0,1.49,0.229,1.95,0.689c0.26,0.26,0.425,0.58,0.495,0.96
		c0.05,0.23,0.075,0.601,0.075,1.11V15.432z M74.634,14.201v-2.43h-0.405c-2.13,0-3.195,0.545-3.195,1.635
		c0,0.391,0.125,0.711,0.375,0.96c0.28,0.28,0.685,0.421,1.215,0.421C73.123,14.787,73.793,14.592,74.634,14.201z"/>
	<path fill="#FFFFFF" d="M83.078,15.432h-0.9v-4.2c0-0.569-0.015-0.96-0.045-1.17c-0.06-0.35-0.185-0.62-0.375-0.81
		c-0.27-0.271-0.645-0.405-1.125-0.405c-0.45,0-0.945,0.115-1.485,0.345c-0.4,0.16-0.64,0.28-0.72,0.36v5.88h-0.9v-7.2h0.855v0.525
		c0.75-0.47,1.54-0.705,2.37-0.705c0.71,0,1.265,0.2,1.665,0.6c0.3,0.3,0.495,0.681,0.585,1.141c0.05,0.26,0.075,0.694,0.075,1.305
		V15.432z"/>
	<path fill="#FFFFFF" d="M90.623,15.432h-0.9v-4.2c0-0.569-0.015-0.96-0.045-1.17c-0.06-0.35-0.185-0.62-0.375-0.81
		c-0.27-0.271-0.645-0.405-1.125-0.405c-0.45,0-0.945,0.115-1.485,0.345c-0.4,0.16-0.64,0.28-0.72,0.36v5.88h-0.9v-7.2h0.855v0.525
		c0.75-0.47,1.54-0.705,2.37-0.705c0.71,0,1.265,0.2,1.665,0.6c0.3,0.3,0.495,0.681,0.585,1.141c0.05,0.26,0.075,0.694,0.075,1.305
		V15.432z"/>
	<path fill="#FFFFFF" d="M93.668,5.802c0,0.16-0.058,0.3-0.172,0.42c-0.115,0.12-0.258,0.18-0.428,0.18c-0.16,0-0.3-0.06-0.42-0.18
		s-0.18-0.26-0.18-0.42c0-0.17,0.06-0.312,0.18-0.428c0.12-0.114,0.26-0.173,0.42-0.173c0.17,0,0.312,0.059,0.428,0.173
		C93.61,5.489,93.668,5.632,93.668,5.802z M93.518,15.432h-0.9v-7.2h0.9V15.432z"/>
	<path fill="#FFFFFF" d="M101.168,15.432h-0.9v-4.2c0-0.569-0.015-0.96-0.045-1.17c-0.06-0.35-0.185-0.62-0.375-0.81
		c-0.27-0.271-0.645-0.405-1.125-0.405c-0.45,0-0.945,0.115-1.485,0.345c-0.4,0.16-0.64,0.28-0.72,0.36v5.88h-0.9v-7.2h0.855v0.525
		c0.75-0.47,1.54-0.705,2.37-0.705c0.71,0,1.265,0.2,1.665,0.6c0.3,0.3,0.495,0.681,0.585,1.141c0.05,0.26,0.075,0.694,0.075,1.305
		V15.432z"/>
	<path fill="#FFFFFF" d="M108.847,15.537c0,1.209-0.225,2.045-0.675,2.505c-0.52,0.529-1.3,0.795-2.34,0.795
		c-0.68,0-1.315-0.141-1.905-0.42c-0.36-0.16-0.615-0.315-0.765-0.466l0.405-0.63c0.42,0.24,0.645,0.37,0.675,0.391
		c0.51,0.22,1.02,0.33,1.53,0.33c0.77,0,1.335-0.186,1.695-0.556c0.21-0.21,0.345-0.47,0.405-0.779c0.04-0.24,0.06-0.681,0.06-1.32
		v-0.555c-0.74,0.41-1.44,0.614-2.1,0.614c-0.9,0-1.638-0.332-2.213-0.997s-0.862-1.518-0.862-2.558c0-1.11,0.337-2.027,1.013-2.753
		c0.675-0.725,1.532-1.087,2.572-1.087c0.65,0,1.485,0.205,2.505,0.615V15.537z M107.932,13.962V9.191
		c-0.54-0.229-1.085-0.345-1.635-0.345c-0.78,0-1.41,0.28-1.89,0.84c-0.48,0.561-0.72,1.29-0.72,2.19c0,0.83,0.205,1.5,0.615,2.01
		s0.95,0.765,1.62,0.765C106.463,14.651,107.133,14.422,107.932,13.962z"/>
</g>
<rect x="121.313" y="10.979" fill="none" width="177.854" height="19.321"/>
<g enable-background="new    ">
	<path fill="#FFFFFF" d="M129.323,18.868c0,0.83-0.25,1.495-0.75,1.995c-0.43,0.43-0.985,0.71-1.665,0.84
		c-0.43,0.08-1.15,0.12-2.16,0.12h-2.295V11.818h3.015c0.66,0,1.165,0.04,1.515,0.12c0.49,0.11,0.9,0.33,1.23,0.66
		c0.51,0.51,0.765,1.149,0.765,1.92c0,1.13-0.505,1.854-1.515,2.175C128.703,16.953,129.323,17.679,129.323,18.868z M127.283,14.608
		c0-0.391-0.115-0.71-0.345-0.96c-0.21-0.22-0.515-0.36-0.915-0.42c-0.18-0.03-0.545-0.045-1.095-0.045h-0.81v2.909h0.72
		c1.01,0,1.69-0.159,2.04-0.479C127.148,15.363,127.283,15.028,127.283,14.608z M127.568,18.883c0-0.39-0.135-0.72-0.405-0.989
		c-0.23-0.23-0.565-0.375-1.005-0.436c-0.21-0.029-0.635-0.045-1.275-0.045h-0.765v3.03h1.02c0.99,0,1.67-0.185,2.04-0.555
		C127.438,19.628,127.568,19.293,127.568,18.883z"/>
	<path fill="#FFFFFF" d="M137.303,18.073c0,0.09-0.005,0.202-0.015,0.338c-0.01,0.135-0.015,0.217-0.015,0.247h-4.965
		c0,0.521,0.155,0.97,0.465,1.35c0.38,0.45,0.92,0.676,1.62,0.676c0.6,0,1.27-0.186,2.01-0.556l0.57,1.08
		c-0.75,0.53-1.655,0.795-2.715,0.795c-1.12,0-2-0.364-2.64-1.095c-0.62-0.69-0.93-1.59-0.93-2.7c0-1.149,0.32-2.09,0.96-2.819
		c0.64-0.73,1.475-1.096,2.505-1.096c0.99,0,1.762,0.335,2.317,1.005C137.026,15.969,137.303,16.894,137.303,18.073z
		 M135.743,17.429c0-0.45-0.095-0.841-0.285-1.171c-0.28-0.47-0.705-0.704-1.275-0.704c-0.51,0-0.933,0.172-1.268,0.517
		c-0.335,0.346-0.538,0.798-0.607,1.358H135.743z"/>
	<path fill="#FFFFFF" d="M143.453,21.583c-0.46,0.29-1.03,0.436-1.71,0.436c-0.77,0-1.36-0.205-1.77-0.615
		c-0.26-0.26-0.425-0.59-0.495-0.99c-0.04-0.22-0.06-0.64-0.06-1.26v-3.3h-1.275v-1.351h1.275v-2.055h1.65v2.055h2.16v1.351h-2.16
		v3.45c0,0.43,0.045,0.729,0.135,0.899c0.14,0.28,0.425,0.42,0.855,0.42c0.25,0,0.575-0.064,0.975-0.194L143.453,21.583z"/>
	<path fill="#FFFFFF" d="M149.678,21.583c-0.46,0.29-1.03,0.436-1.71,0.436c-0.77,0-1.36-0.205-1.77-0.615
		c-0.26-0.26-0.425-0.59-0.495-0.99c-0.04-0.22-0.06-0.64-0.06-1.26v-3.3h-1.275v-1.351h1.275v-2.055h1.65v2.055h2.16v1.351h-2.16
		v3.45c0,0.43,0.045,0.729,0.135,0.899c0.14,0.28,0.425,0.42,0.855,0.42c0.25,0,0.575-0.064,0.975-0.194L149.678,21.583z"/>
	<path fill="#FFFFFF" d="M157.208,18.073c0,0.09-0.005,0.202-0.015,0.338c-0.01,0.135-0.015,0.217-0.015,0.247h-4.965
		c0,0.521,0.155,0.97,0.465,1.35c0.38,0.45,0.92,0.676,1.62,0.676c0.6,0,1.27-0.186,2.01-0.556l0.57,1.08
		c-0.75,0.53-1.655,0.795-2.715,0.795c-1.12,0-2-0.364-2.64-1.095c-0.62-0.69-0.93-1.59-0.93-2.7c0-1.149,0.32-2.09,0.96-2.819
		c0.64-0.73,1.475-1.096,2.505-1.096c0.99,0,1.762,0.335,2.317,1.005C156.931,15.969,157.208,16.894,157.208,18.073z
		 M155.648,17.429c0-0.45-0.095-0.841-0.285-1.171c-0.28-0.47-0.705-0.704-1.275-0.704c-0.51,0-0.933,0.172-1.268,0.517
		c-0.335,0.346-0.538,0.798-0.607,1.358H155.648z"/>
	<path fill="#FFFFFF" d="M163.418,14.458l-0.375,1.275c-0.14-0.03-0.305-0.045-0.495-0.045c-0.89,0-1.595,0.375-2.115,1.125v5.01
		h-1.65v-7.32h1.44v0.931c0.12-0.19,0.34-0.391,0.66-0.601c0.53-0.359,1.105-0.54,1.725-0.54
		C162.898,14.293,163.168,14.349,163.418,14.458z"/>
	<path fill="#FFFFFF" d="M174.368,21.148c-0.11,0.12-0.36,0.27-0.75,0.45c-0.61,0.27-1.255,0.404-1.935,0.404
		c-1.09,0-1.972-0.347-2.647-1.042c-0.675-0.695-1.012-1.598-1.012-2.708c0-1.149,0.36-2.097,1.08-2.842
		c0.72-0.745,1.63-1.118,2.73-1.118c0.62,0,1.195,0.125,1.725,0.375c0.36,0.171,0.595,0.325,0.705,0.465l-0.675,1.035
		c-0.51-0.34-1.06-0.51-1.65-0.51c-0.68,0-1.235,0.255-1.665,0.765c-0.39,0.471-0.585,1.041-0.585,1.71
		c0,0.74,0.193,1.341,0.578,1.801s0.917,0.689,1.598,0.689c0.55,0,1.17-0.185,1.86-0.555L174.368,21.148z"/>
	<path fill="#FFFFFF" d="M182.318,18.118c0,1.16-0.34,2.098-1.02,2.812c-0.68,0.715-1.565,1.072-2.655,1.072
		c-1.05,0-1.902-0.353-2.557-1.058c-0.655-0.704-0.982-1.627-0.982-2.767c0-1.15,0.34-2.086,1.02-2.806
		c0.68-0.72,1.565-1.08,2.655-1.08c1.05,0,1.902,0.353,2.558,1.058C181.99,16.056,182.318,16.979,182.318,18.118z M180.653,18.179
		c0-0.75-0.185-1.358-0.555-1.823s-0.84-0.697-1.41-0.697c-0.58,0-1.045,0.225-1.395,0.675c-0.35,0.45-0.525,1.045-0.525,1.785
		c0,0.75,0.185,1.357,0.555,1.822s0.845,0.698,1.425,0.698c0.6,0,1.067-0.223,1.403-0.668
		C180.485,19.526,180.653,18.929,180.653,18.179z"/>
	<path fill="#FFFFFF" d="M190.627,18.043c0,1.16-0.345,2.11-1.035,2.851s-1.53,1.109-2.52,1.109c-0.55,0-1.06-0.12-1.53-0.359v3.404
		h-1.65V14.503h1.455v0.495c0.57-0.47,1.24-0.705,2.01-0.705c0.98,0,1.77,0.348,2.37,1.043S190.627,16.934,190.627,18.043z
		 M188.962,18.073c0-0.729-0.19-1.32-0.57-1.77c-0.36-0.421-0.82-0.631-1.38-0.631c-0.58,0-1.07,0.171-1.47,0.511v4.064
		c0.4,0.261,0.83,0.391,1.29,0.391c0.63,0,1.143-0.228,1.538-0.683S188.962,18.873,188.962,18.073z"/>
	<path fill="#FFFFFF" d="M194.003,12.313c0,0.27-0.093,0.497-0.278,0.683c-0.185,0.185-0.412,0.277-0.682,0.277
		s-0.5-0.093-0.69-0.277c-0.19-0.186-0.285-0.413-0.285-0.683c0-0.271,0.095-0.5,0.285-0.69c0.189-0.189,0.42-0.285,0.69-0.285
		s0.497,0.096,0.682,0.285C193.91,11.813,194.003,12.043,194.003,12.313z M193.867,21.823h-1.65v-7.32h1.65V21.823z"/>
	<path fill="#FFFFFF" d="M201.967,21.823h-1.65v-4.005c0-0.97-0.11-1.565-0.33-1.785c-0.22-0.22-0.53-0.33-0.93-0.33
		c-0.51,0-1.055,0.18-1.635,0.54v5.58h-1.65v-7.32h1.44v0.54c0.69-0.5,1.415-0.75,2.175-0.75c0.77,0,1.38,0.226,1.83,0.675
		c0.34,0.341,0.56,0.761,0.66,1.261c0.06,0.3,0.09,0.8,0.09,1.5V21.823z"/>
	<path fill="#FFFFFF" d="M210.157,21.778c0,0.649-0.035,1.13-0.105,1.439c-0.11,0.44-0.325,0.825-0.645,1.155
		c-0.61,0.61-1.475,0.915-2.595,0.915c-0.81,0-1.555-0.16-2.235-0.479c-0.43-0.19-0.725-0.375-0.885-0.556l0.69-1.08
		c0.86,0.49,1.61,0.735,2.25,0.735c0.61,0,1.077-0.143,1.402-0.428c0.325-0.285,0.488-0.843,0.488-1.672v-0.495
		c-0.6,0.34-1.215,0.51-1.845,0.51c-1.01,0-1.81-0.36-2.4-1.08c-0.56-0.67-0.84-1.51-0.84-2.52c0-1.12,0.357-2.056,1.072-2.806
		s1.637-1.125,2.768-1.125c0.89,0,1.85,0.245,2.88,0.735V21.778z M208.523,19.993v-4.08c-0.42-0.18-0.845-0.27-1.275-0.27
		c-0.63,0-1.145,0.228-1.545,0.683s-0.6,1.062-0.6,1.822c0,0.71,0.183,1.277,0.548,1.702c0.365,0.426,0.822,0.638,1.373,0.638
		C207.582,20.488,208.082,20.323,208.523,19.993z"/>
	<path fill="#FFFFFF" d="M220.312,21.583c-0.46,0.29-1.03,0.436-1.71,0.436c-0.77,0-1.36-0.205-1.77-0.615
		c-0.26-0.26-0.425-0.59-0.495-0.99c-0.04-0.22-0.06-0.64-0.06-1.26v-3.3h-1.275v-1.351h1.275v-2.055h1.65v2.055h2.16v1.351h-2.16
		v3.45c0,0.43,0.045,0.729,0.135,0.899c0.14,0.28,0.425,0.42,0.855,0.42c0.25,0,0.575-0.064,0.975-0.194L220.312,21.583z"/>
	<path fill="#FFFFFF" d="M227.842,18.073c0,0.09-0.005,0.202-0.015,0.338c-0.01,0.135-0.015,0.217-0.015,0.247h-4.965
		c0,0.521,0.155,0.97,0.465,1.35c0.38,0.45,0.92,0.676,1.62,0.676c0.6,0,1.27-0.186,2.01-0.556l0.57,1.08
		c-0.75,0.53-1.655,0.795-2.715,0.795c-1.12,0-2-0.364-2.64-1.095c-0.62-0.69-0.93-1.59-0.93-2.7c0-1.149,0.32-2.09,0.96-2.819
		c0.64-0.73,1.475-1.096,2.505-1.096c0.99,0,1.762,0.335,2.317,1.005C227.565,15.969,227.842,16.894,227.842,18.073z
		 M226.282,17.429c0-0.45-0.095-0.841-0.285-1.171c-0.28-0.47-0.705-0.704-1.275-0.704c-0.51,0-0.933,0.172-1.268,0.517
		c-0.335,0.346-0.538,0.798-0.607,1.358H226.282z"/>
	<path fill="#FFFFFF" d="M235.417,21.148c-0.11,0.12-0.36,0.27-0.75,0.45c-0.61,0.27-1.255,0.404-1.935,0.404
		c-1.09,0-1.972-0.347-2.647-1.042c-0.675-0.695-1.012-1.598-1.012-2.708c0-1.149,0.36-2.097,1.08-2.842
		c0.72-0.745,1.63-1.118,2.73-1.118c0.62,0,1.195,0.125,1.725,0.375c0.36,0.171,0.595,0.325,0.705,0.465l-0.675,1.035
		c-0.51-0.34-1.06-0.51-1.65-0.51c-0.68,0-1.235,0.255-1.665,0.765c-0.39,0.471-0.585,1.041-0.585,1.71
		c0,0.74,0.193,1.341,0.578,1.801s0.917,0.689,1.598,0.689c0.55,0,1.17-0.185,1.86-0.555L235.417,21.148z"/>
	<path fill="#FFFFFF" d="M242.917,21.823h-1.65v-4.005c0-0.97-0.11-1.565-0.33-1.785c-0.22-0.22-0.53-0.33-0.93-0.33
		c-0.51,0-1.055,0.18-1.635,0.54v5.58h-1.65V10.979h1.65v3.93c0.65-0.41,1.305-0.615,1.965-0.615c0.77,0,1.38,0.226,1.83,0.675
		c0.34,0.341,0.56,0.761,0.66,1.261c0.06,0.3,0.09,0.8,0.09,1.5V21.823z"/>
	<path fill="#FFFFFF" d="M250.912,21.823h-1.65v-4.005c0-0.97-0.11-1.565-0.33-1.785c-0.22-0.22-0.53-0.33-0.93-0.33
		c-0.51,0-1.055,0.18-1.635,0.54v5.58h-1.65v-7.32h1.44v0.54c0.69-0.5,1.415-0.75,2.175-0.75c0.77,0,1.38,0.226,1.83,0.675
		c0.34,0.341,0.56,0.761,0.66,1.261c0.06,0.3,0.09,0.8,0.09,1.5V21.823z"/>
	<path fill="#FFFFFF" d="M254.512,12.313c0,0.27-0.093,0.497-0.278,0.683c-0.185,0.185-0.412,0.277-0.682,0.277
		s-0.5-0.093-0.69-0.277c-0.19-0.186-0.285-0.413-0.285-0.683c0-0.271,0.095-0.5,0.285-0.69c0.189-0.189,0.42-0.285,0.69-0.285
		s0.497,0.096,0.682,0.285C254.419,11.813,254.512,12.043,254.512,12.313z M254.377,21.823h-1.65v-7.32h1.65V21.823z"/>
	<path fill="#FFFFFF" d="M262.657,25.048h-1.65v-3.614c-0.57,0.38-1.185,0.569-1.845,0.569c-0.93,0-1.7-0.345-2.31-1.035
		c-0.61-0.689-0.915-1.574-0.915-2.654c0-1.18,0.35-2.146,1.05-2.896c0.7-0.75,1.62-1.125,2.76-1.125c0.99,0,1.96,0.216,2.91,0.646
		V25.048z M261.007,20.113v-4.23c-0.4-0.149-0.825-0.225-1.275-0.225c-0.64,0-1.155,0.237-1.545,0.713
		c-0.39,0.475-0.585,1.112-0.585,1.912c0,0.73,0.195,1.315,0.585,1.755c0.36,0.4,0.8,0.601,1.32,0.601
		C260.087,20.639,260.587,20.464,261.007,20.113z"/>
	<path fill="#FFFFFF" d="M270.667,21.823h-1.44v-0.555c-0.67,0.5-1.395,0.75-2.175,0.75c-0.77,0-1.38-0.226-1.83-0.676
		c-0.34-0.34-0.56-0.76-0.66-1.26c-0.06-0.3-0.09-0.8-0.09-1.5v-4.08h1.65v3.99c0,0.5,0.01,0.83,0.03,0.99
		c0.05,0.41,0.177,0.7,0.382,0.87s0.498,0.255,0.877,0.255c0.42,0,0.955-0.18,1.605-0.54v-5.565h1.65V21.823z"/>
	<path fill="#FFFFFF" d="M278.857,18.073c0,0.09-0.005,0.202-0.015,0.338c-0.01,0.135-0.015,0.217-0.015,0.247h-4.965
		c0,0.521,0.155,0.97,0.465,1.35c0.38,0.45,0.92,0.676,1.62,0.676c0.6,0,1.27-0.186,2.01-0.556l0.57,1.08
		c-0.75,0.53-1.655,0.795-2.715,0.795c-1.12,0-2-0.364-2.64-1.095c-0.62-0.69-0.93-1.59-0.93-2.7c0-1.149,0.32-2.09,0.96-2.819
		c0.64-0.73,1.475-1.096,2.505-1.096c0.99,0,1.762,0.335,2.317,1.005C278.579,15.969,278.857,16.894,278.857,18.073z
		 M277.297,17.429c0-0.45-0.095-0.841-0.285-1.171c-0.28-0.47-0.705-0.704-1.275-0.704c-0.51,0-0.933,0.172-1.268,0.517
		c-0.335,0.346-0.538,0.798-0.607,1.358H277.297z"/>
	<path fill="#FFFFFF" d="M285.367,19.724c0,0.71-0.26,1.27-0.78,1.68c-0.521,0.41-1.19,0.615-2.01,0.615
		c-0.66,0-1.29-0.12-1.89-0.36c-0.37-0.15-0.63-0.29-0.78-0.42l0.585-1.08c0.73,0.38,1.37,0.57,1.92,0.57
		c0.41,0,0.725-0.085,0.945-0.255c0.22-0.17,0.33-0.385,0.33-0.646c0-0.26-0.14-0.475-0.42-0.645
		c-0.13-0.091-0.515-0.271-1.155-0.54c-0.59-0.25-1.015-0.485-1.275-0.705c-0.44-0.38-0.66-0.865-0.66-1.455
		c0-0.66,0.25-1.19,0.75-1.59c0.5-0.4,1.155-0.601,1.965-0.601c1.03,0,1.82,0.221,2.37,0.66l-0.57,1.05
		c-0.58-0.33-1.146-0.495-1.695-0.495c-0.78,0-1.17,0.275-1.17,0.825c0,0.24,0.125,0.445,0.375,0.615c0.15,0.1,0.46,0.25,0.93,0.45
		c0.74,0.31,1.24,0.569,1.5,0.78C285.122,18.568,285.367,19.083,285.367,19.724z"/>
</g>
<rect x="158.271" y="56.603" fill="none" width="177.855" height="19.32"/>
<g enable-background="new    ">
	<path fill="#FFFFFF" d="M164.524,63.519c0,0.798-0.267,1.443-0.799,1.938c-0.533,0.494-1.259,0.741-2.178,0.741
		c-0.693,0-1.352-0.152-1.976-0.455c-0.39-0.19-0.659-0.364-0.806-0.521l0.676-1.04c0.737,0.485,1.413,0.729,2.028,0.729
		c0.485,0,0.862-0.115,1.131-0.345c0.269-0.229,0.403-0.539,0.403-0.93c0-0.381-0.195-0.702-0.585-0.962
		c-0.122-0.078-0.524-0.269-1.209-0.572c-0.642-0.285-1.088-0.532-1.339-0.74c-0.563-0.469-0.845-1.058-0.845-1.769
		c0-0.728,0.264-1.319,0.793-1.774s1.213-0.683,2.054-0.683c0.676,0,1.3,0.147,1.872,0.442c0.303,0.156,0.537,0.316,0.702,0.48
		l-0.702,0.962c-0.546-0.433-1.136-0.649-1.768-0.649c-0.434,0-0.789,0.102-1.066,0.306c-0.278,0.203-0.416,0.47-0.416,0.799
		c0,0.304,0.125,0.551,0.377,0.741c0.173,0.13,0.581,0.334,1.222,0.611c0.789,0.338,1.348,0.654,1.677,0.949
		C164.272,62.236,164.524,62.817,164.524,63.519z"/>
	<path fill="#FFFFFF" d="M169.945,65.794c-0.399,0.251-0.893,0.377-1.482,0.377c-0.667,0-1.179-0.178-1.534-0.533
		c-0.226-0.225-0.368-0.511-0.429-0.857c-0.035-0.19-0.052-0.555-0.052-1.093v-2.859h-1.105v-1.17h1.105v-1.781h1.43v1.781h1.872
		v1.17h-1.872v2.99c0,0.372,0.039,0.633,0.117,0.779c0.122,0.243,0.369,0.364,0.741,0.364c0.216,0,0.498-0.057,0.845-0.169
		L169.945,65.794z"/>
	<path fill="#FFFFFF" d="M175.977,66.002h-1.248v-0.468c-0.624,0.398-1.248,0.598-1.872,0.598c-0.616,0-1.109-0.184-1.482-0.553
		c-0.373-0.368-0.559-0.852-0.559-1.449c0-1.481,1.191-2.223,3.575-2.223h0.234V61.66c0-0.391-0.069-0.654-0.208-0.793
		c-0.191-0.19-0.533-0.286-1.027-0.286c-0.563,0-1.136,0.165-1.716,0.494l-0.494-0.923c0.147-0.131,0.373-0.256,0.676-0.377
		c0.502-0.208,1.053-0.312,1.651-0.312c0.867,0,1.525,0.226,1.976,0.676c0.225,0.226,0.368,0.507,0.429,0.846
		c0.043,0.217,0.065,0.589,0.065,1.117V66.002z M174.625,64.598v-1.677h-0.299c-0.997,0-1.655,0.165-1.976,0.494
		c-0.165,0.165-0.247,0.382-0.247,0.65c0,0.312,0.106,0.55,0.318,0.715c0.212,0.164,0.479,0.247,0.799,0.247
		C173.628,65.027,174.096,64.884,174.625,64.598z"/>
	<path fill="#FFFFFF" d="M181.567,59.619l-0.325,1.104c-0.122-0.025-0.264-0.039-0.429-0.039c-0.771,0-1.383,0.325-1.833,0.976
		v4.342h-1.43v-6.344h1.248v0.806c0.104-0.164,0.294-0.338,0.572-0.52c0.459-0.312,0.958-0.469,1.495-0.469
		C181.116,59.476,181.35,59.523,181.567,59.619z"/>
	<path fill="#FFFFFF" d="M186.922,65.794c-0.399,0.251-0.893,0.377-1.482,0.377c-0.667,0-1.179-0.178-1.534-0.533
		c-0.226-0.225-0.368-0.511-0.429-0.857c-0.035-0.19-0.052-0.555-0.052-1.093v-2.859h-1.105v-1.17h1.105v-1.781h1.43v1.781h1.872
		v1.17h-1.872v2.99c0,0.372,0.039,0.633,0.117,0.779c0.122,0.243,0.369,0.364,0.741,0.364c0.216,0,0.498-0.057,0.845-0.169
		L186.922,65.794z"/>
	<path fill="#FFFFFF" d="M189.821,57.76c0,0.234-0.08,0.432-0.24,0.592c-0.161,0.16-0.358,0.24-0.592,0.24s-0.433-0.08-0.598-0.24
		c-0.165-0.16-0.247-0.357-0.247-0.592c0-0.233,0.082-0.433,0.247-0.598c0.165-0.165,0.364-0.247,0.598-0.247
		s0.431,0.082,0.592,0.247C189.741,57.327,189.821,57.526,189.821,57.76z M189.704,66.002h-1.43v-6.344h1.43V66.002z"/>
	<path fill="#FFFFFF" d="M196.724,66.002h-1.43v-3.471c0-0.841-0.096-1.356-0.286-1.547c-0.19-0.191-0.459-0.286-0.806-0.286
		c-0.442,0-0.915,0.155-1.417,0.468v4.836h-1.43v-6.344h1.248v0.468c0.598-0.434,1.226-0.65,1.885-0.65
		c0.667,0,1.196,0.195,1.586,0.585c0.295,0.295,0.485,0.659,0.572,1.093c0.052,0.26,0.078,0.693,0.078,1.3V66.002z"/>
	<path fill="#FFFFFF" d="M203.822,65.963c0,0.563-0.03,0.979-0.091,1.248c-0.096,0.381-0.282,0.715-0.559,1.001
		c-0.529,0.528-1.278,0.793-2.249,0.793c-0.702,0-1.348-0.139-1.937-0.416c-0.373-0.165-0.628-0.325-0.767-0.48l0.598-0.937
		c0.745,0.425,1.395,0.637,1.95,0.637c0.529,0,0.934-0.123,1.216-0.37c0.281-0.247,0.422-0.73,0.422-1.449v-0.43
		c-0.52,0.295-1.053,0.442-1.599,0.442c-0.875,0-1.568-0.312-2.08-0.936c-0.486-0.581-0.728-1.309-0.728-2.185
		c0-0.971,0.31-1.781,0.929-2.431c0.62-0.65,1.419-0.976,2.398-0.976c0.771,0,1.604,0.213,2.496,0.638V65.963z M202.405,64.416
		V60.88c-0.364-0.156-0.732-0.234-1.105-0.234c-0.546,0-0.992,0.197-1.339,0.592s-0.52,0.921-0.52,1.58
		c0,0.615,0.158,1.106,0.475,1.475c0.316,0.369,0.712,0.553,1.189,0.553C201.591,64.845,202.024,64.702,202.405,64.416z"/>
	<path fill="#FFFFFF" d="M217.602,66.002h-1.43v-3.588c0-0.729-0.086-1.196-0.26-1.404s-0.434-0.312-0.78-0.312
		c-0.442,0-0.914,0.164-1.417,0.494c0.061,0.173,0.091,0.654,0.091,1.442v3.367h-1.417v-3.497c0-0.823-0.1-1.339-0.299-1.547
		c-0.165-0.173-0.403-0.26-0.715-0.26c-0.468,0-0.923,0.147-1.365,0.441v4.862h-1.43v-6.344h1.248v0.468
		c0.589-0.434,1.209-0.65,1.859-0.65c0.659,0,1.179,0.239,1.56,0.716c0.728-0.477,1.43-0.716,2.106-0.716
		c0.667,0,1.191,0.191,1.573,0.572c0.303,0.304,0.502,0.698,0.598,1.183c0.052,0.304,0.078,0.837,0.078,1.6V66.002z"/>
	<path fill="#FFFFFF" d="M225.09,59.658l-2.509,6.525c-0.407,1.066-0.806,1.794-1.196,2.185c-0.425,0.425-1.01,0.637-1.755,0.637
		c-0.485,0-0.962-0.117-1.43-0.351l0.416-1.04c0.364,0.139,0.68,0.208,0.949,0.208c0.381,0,0.689-0.117,0.923-0.352
		c0.199-0.199,0.442-0.672,0.728-1.417l-2.639-6.396h1.521l1.859,4.784l1.716-4.784H225.09z"/>
	<path fill="#FFFFFF" d="M238.025,59.658l-1.781,6.344h-1.534l-1.287-4.771l-1.261,4.771h-1.495l-1.729-6.344h1.378l1.183,4.81
		l1.287-4.81h1.391l1.274,4.81l1.235-4.81H238.025z"/>
	<path fill="#FFFFFF" d="M243.381,59.619l-0.325,1.104c-0.122-0.025-0.264-0.039-0.429-0.039c-0.771,0-1.383,0.325-1.833,0.976
		v4.342h-1.43v-6.344h1.248v0.806c0.104-0.164,0.294-0.338,0.572-0.52c0.459-0.312,0.958-0.469,1.495-0.469
		C242.93,59.476,243.164,59.523,243.381,59.619z"/>
	<path fill="#FFFFFF" d="M245.889,57.76c0,0.234-0.08,0.432-0.24,0.592c-0.161,0.16-0.358,0.24-0.592,0.24s-0.433-0.08-0.598-0.24
		c-0.165-0.16-0.247-0.357-0.247-0.592c0-0.233,0.082-0.433,0.247-0.598c0.165-0.165,0.364-0.247,0.598-0.247
		s0.431,0.082,0.592,0.247C245.809,57.327,245.889,57.526,245.889,57.76z M245.773,66.002h-1.43v-6.344h1.43V66.002z"/>
	<path fill="#FFFFFF" d="M251.467,65.794c-0.399,0.251-0.893,0.377-1.482,0.377c-0.667,0-1.179-0.178-1.534-0.533
		c-0.226-0.225-0.368-0.511-0.429-0.857c-0.035-0.19-0.052-0.555-0.052-1.093v-2.859h-1.105v-1.17h1.105v-1.781h1.43v1.781h1.872
		v1.17H249.4v2.99c0,0.372,0.039,0.633,0.117,0.779c0.122,0.243,0.369,0.364,0.741,0.364c0.216,0,0.498-0.057,0.845-0.169
		L251.467,65.794z"/>
	<path fill="#FFFFFF" d="M254.365,57.76c0,0.234-0.08,0.432-0.24,0.592c-0.161,0.16-0.358,0.24-0.592,0.24s-0.433-0.08-0.598-0.24
		c-0.165-0.16-0.247-0.357-0.247-0.592c0-0.233,0.082-0.433,0.247-0.598c0.165-0.165,0.364-0.247,0.598-0.247
		s0.431,0.082,0.592,0.247C254.285,57.327,254.365,57.526,254.365,57.76z M254.249,66.002h-1.43v-6.344h1.43V66.002z"/>
	<path fill="#FFFFFF" d="M261.268,66.002h-1.43v-3.471c0-0.841-0.096-1.356-0.286-1.547c-0.19-0.191-0.459-0.286-0.806-0.286
		c-0.442,0-0.915,0.155-1.417,0.468v4.836h-1.43v-6.344h1.248v0.468c0.598-0.434,1.226-0.65,1.885-0.65
		c0.667,0,1.196,0.195,1.586,0.585c0.295,0.295,0.485,0.659,0.572,1.093c0.052,0.26,0.078,0.693,0.078,1.3V66.002z"/>
	<path fill="#FFFFFF" d="M268.366,65.963c0,0.563-0.03,0.979-0.091,1.248c-0.096,0.381-0.282,0.715-0.559,1.001
		c-0.529,0.528-1.278,0.793-2.249,0.793c-0.702,0-1.348-0.139-1.937-0.416c-0.373-0.165-0.628-0.325-0.767-0.48l0.598-0.937
		c0.745,0.425,1.395,0.637,1.95,0.637c0.529,0,0.934-0.123,1.216-0.37c0.281-0.247,0.422-0.73,0.422-1.449v-0.43
		c-0.52,0.295-1.053,0.442-1.599,0.442c-0.875,0-1.568-0.312-2.08-0.936c-0.486-0.581-0.728-1.309-0.728-2.185
		c0-0.971,0.31-1.781,0.929-2.431c0.62-0.65,1.419-0.976,2.398-0.976c0.771,0,1.604,0.213,2.496,0.638V65.963z M266.949,64.416
		V60.88c-0.364-0.156-0.732-0.234-1.105-0.234c-0.546,0-0.992,0.197-1.339,0.592s-0.52,0.921-0.52,1.58
		c0,0.615,0.158,1.106,0.475,1.475c0.316,0.369,0.712,0.553,1.189,0.553C266.135,64.845,266.568,64.702,266.949,64.416z"/>
	<path fill="#FFFFFF" d="M278.558,62.752c0,0.078-0.004,0.176-0.013,0.293c-0.009,0.116-0.013,0.188-0.013,0.214h-4.303
		c0,0.451,0.134,0.841,0.403,1.17c0.33,0.391,0.797,0.585,1.404,0.585c0.52,0,1.101-0.16,1.742-0.48l0.494,0.936
		c-0.65,0.46-1.435,0.689-2.353,0.689c-0.971,0-1.733-0.316-2.288-0.949c-0.537-0.598-0.806-1.378-0.806-2.34
		c0-0.997,0.277-1.812,0.832-2.444c0.554-0.633,1.278-0.949,2.171-0.949c0.858,0,1.527,0.291,2.008,0.871
		C278.318,60.928,278.558,61.729,278.558,62.752z M277.206,62.193c0-0.391-0.083-0.729-0.247-1.015
		c-0.243-0.407-0.611-0.61-1.105-0.61c-0.442,0-0.808,0.149-1.099,0.448s-0.466,0.691-0.526,1.177H277.206z"/>
	<path fill="#FFFFFF" d="M284.707,66.002h-1.248v-0.468c-0.624,0.398-1.248,0.598-1.872,0.598c-0.616,0-1.109-0.184-1.482-0.553
		c-0.373-0.368-0.559-0.852-0.559-1.449c0-1.481,1.191-2.223,3.575-2.223h0.234V61.66c0-0.391-0.069-0.654-0.208-0.793
		c-0.191-0.19-0.533-0.286-1.027-0.286c-0.563,0-1.136,0.165-1.716,0.494l-0.494-0.923c0.147-0.131,0.373-0.256,0.676-0.377
		c0.502-0.208,1.053-0.312,1.651-0.312c0.867,0,1.525,0.226,1.976,0.676c0.225,0.226,0.368,0.507,0.429,0.846
		c0.043,0.217,0.065,0.589,0.065,1.117V66.002z M283.355,64.598v-1.677h-0.299c-0.997,0-1.655,0.165-1.976,0.494
		c-0.165,0.165-0.247,0.382-0.247,0.65c0,0.312,0.106,0.55,0.318,0.715c0.212,0.164,0.479,0.247,0.799,0.247
		C282.358,65.027,282.826,64.884,283.355,64.598z"/>
	<path fill="#FFFFFF" d="M290.297,59.619l-0.325,1.104c-0.122-0.025-0.264-0.039-0.429-0.039c-0.771,0-1.383,0.325-1.833,0.976
		v4.342h-1.43v-6.344h1.248v0.806c0.104-0.164,0.294-0.338,0.572-0.52c0.459-0.312,0.958-0.469,1.495-0.469
		C289.846,59.476,290.08,59.523,290.297,59.619z"/>
	<path fill="#FFFFFF" d="M292.689,66.002h-1.43v-9.399h1.43V66.002z"/>
	<path fill="#FFFFFF" d="M295.9,57.76c0,0.234-0.08,0.432-0.24,0.592c-0.161,0.16-0.358,0.24-0.592,0.24s-0.433-0.08-0.598-0.24
		c-0.165-0.16-0.247-0.357-0.247-0.592c0-0.233,0.082-0.433,0.247-0.598c0.165-0.165,0.364-0.247,0.598-0.247
		s0.431,0.082,0.592,0.247C295.82,57.327,295.9,57.526,295.9,57.76z M295.783,66.002h-1.43v-6.344h1.43V66.002z"/>
	<path fill="#FFFFFF" d="M302.868,62.752c0,0.078-0.004,0.176-0.013,0.293c-0.009,0.116-0.013,0.188-0.013,0.214h-4.303
		c0,0.451,0.134,0.841,0.403,1.17c0.33,0.391,0.797,0.585,1.404,0.585c0.52,0,1.101-0.16,1.742-0.48l0.494,0.936
		c-0.65,0.46-1.435,0.689-2.353,0.689c-0.971,0-1.733-0.316-2.288-0.949c-0.537-0.598-0.806-1.378-0.806-2.34
		c0-0.997,0.277-1.812,0.832-2.444c0.554-0.633,1.278-0.949,2.171-0.949c0.858,0,1.527,0.291,2.008,0.871
		C302.627,60.928,302.868,61.729,302.868,62.752z M301.516,62.193c0-0.391-0.083-0.729-0.247-1.015
		c-0.243-0.407-0.611-0.61-1.105-0.61c-0.442,0-0.808,0.149-1.099,0.448s-0.466,0.691-0.526,1.177H301.516z"/>
	<path fill="#FFFFFF" d="M308.25,59.619l-0.325,1.104c-0.122-0.025-0.264-0.039-0.429-0.039c-0.771,0-1.383,0.325-1.833,0.976v4.342
		h-1.43v-6.344h1.248v0.806c0.104-0.164,0.294-0.338,0.572-0.52c0.459-0.312,0.958-0.469,1.495-0.469
		C307.799,59.476,308.033,59.523,308.25,59.619z"/>
</g>
<rect x="149.041" y="27.3" fill="none" width="177.854" height="19.32"/>
<g enable-background="new    ">
	<path fill="#FFFFFF" d="M155.785,29.663c0,0.713-0.232,1.301-0.696,1.765c-0.392,0.392-0.944,0.628-1.656,0.708
		c0.12,0.032,0.212,0.063,0.276,0.096c0.144,0.072,0.272,0.164,0.384,0.276c0.24,0.239,0.452,0.68,0.636,1.319l0.6,2.112h-0.792
		l-0.468-1.752c-0.088-0.32-0.156-0.552-0.204-0.696c-0.12-0.319-0.256-0.556-0.408-0.708c-0.272-0.271-0.704-0.408-1.296-0.408
		h-0.732l-0.6,3.564h-0.756l1.344-8.004h1.584c0.592,0,1.024,0.023,1.296,0.072c0.424,0.08,0.752,0.235,0.984,0.468
		C155.617,28.812,155.785,29.207,155.785,29.663z M155.029,29.771c0-0.368-0.11-0.662-0.33-0.882c-0.22-0.22-0.666-0.33-1.338-0.33
		h-1.284l-0.54,3.191h0.852c0.96,0,1.656-0.216,2.088-0.647C154.845,30.735,155.029,30.292,155.029,29.771z"/>
	<path fill="#FFFFFF" d="M161.269,31.38c0,0.464-0.188,0.884-0.564,1.26c-0.648,0.647-1.864,1.028-3.648,1.14
		c0.016,0.496,0.174,0.896,0.474,1.2c0.3,0.304,0.706,0.456,1.218,0.456c0.44,0,0.928-0.148,1.464-0.444l0.312,0.504
		c-0.128,0.12-0.353,0.236-0.672,0.349c-0.4,0.151-0.792,0.228-1.176,0.228c-0.712,0-1.282-0.21-1.71-0.63
		c-0.428-0.42-0.642-0.994-0.642-1.722c0-1.008,0.31-1.874,0.93-2.599c0.62-0.724,1.402-1.086,2.346-1.086
		c0.472,0,0.868,0.12,1.188,0.36S161.269,30.964,161.269,31.38z M160.573,31.428c0-0.248-0.094-0.442-0.282-0.582
		s-0.426-0.21-0.714-0.21c-0.704,0-1.3,0.308-1.788,0.924c-0.4,0.504-0.636,1.056-0.708,1.656c0.488-0.024,1-0.108,1.536-0.252
		c0.752-0.2,1.288-0.46,1.608-0.78C160.457,31.951,160.573,31.699,160.573,31.428z"/>
	<path fill="#FFFFFF" d="M167.161,30.563l-0.864,5.376h-0.66l0.108-0.636c-0.56,0.504-1.132,0.756-1.716,0.756
		c-0.592,0-1.068-0.206-1.428-0.618s-0.54-0.946-0.54-1.602c0-1.057,0.284-1.944,0.852-2.664c0.6-0.761,1.376-1.141,2.328-1.141
		C166.025,30.035,166.665,30.212,167.161,30.563z M166.393,30.959c-0.336-0.191-0.748-0.287-1.236-0.287
		c-0.704,0-1.274,0.296-1.71,0.888s-0.654,1.308-0.654,2.147c0,0.456,0.1,0.841,0.3,1.152c0.248,0.376,0.612,0.564,1.092,0.564
		c0.608,0,1.144-0.256,1.608-0.769L166.393,30.959z"/>
	<path fill="#FFFFFF" d="M170.041,27.3l-1.464,8.64h-0.72l1.464-8.64H170.041z"/>
	<path fill="#FFFFFF" d="M171.961,30.18l-0.984,5.76h-0.72l0.984-5.76H171.961z M172.405,28.235c0,0.128-0.046,0.24-0.138,0.336
		c-0.092,0.096-0.206,0.145-0.342,0.145c-0.128,0-0.24-0.049-0.336-0.145c-0.096-0.096-0.144-0.208-0.144-0.336
		c0-0.136,0.048-0.25,0.144-0.342c0.096-0.092,0.208-0.138,0.336-0.138c0.136,0,0.25,0.046,0.342,0.138
		C172.359,27.985,172.405,28.1,172.405,28.235z"/>
	<path fill="#FFFFFF" d="M176.797,30.611l-0.384,0.48c-0.368-0.296-0.776-0.444-1.224-0.444c-0.456,0-0.808,0.124-1.056,0.372
		c-0.16,0.16-0.24,0.36-0.24,0.6c0,0.192,0.068,0.356,0.204,0.492c0.136,0.137,0.422,0.326,0.858,0.57
		c0.436,0.244,0.746,0.454,0.93,0.63c0.288,0.288,0.432,0.616,0.432,0.984c0,0.52-0.192,0.945-0.576,1.277
		c-0.384,0.332-0.908,0.498-1.572,0.498c-0.728,0-1.36-0.212-1.896-0.636l0.372-0.516c0.504,0.344,1.012,0.516,1.524,0.516
		c0.344,0,0.64-0.068,0.888-0.204c0.328-0.192,0.492-0.48,0.492-0.864c0-0.312-0.208-0.604-0.624-0.876
		c-0.392-0.231-0.784-0.464-1.176-0.695c-0.416-0.32-0.624-0.692-0.624-1.116c0-0.496,0.194-0.896,0.582-1.2
		c0.388-0.304,0.866-0.456,1.434-0.456C175.901,30.023,176.453,30.22,176.797,30.611z"/>
	<path fill="#FFFFFF" d="M179.149,30.18l-0.984,5.76h-0.72l0.984-5.76H179.149z M179.593,28.235c0,0.128-0.046,0.24-0.138,0.336
		c-0.092,0.096-0.206,0.145-0.342,0.145c-0.128,0-0.24-0.049-0.336-0.145c-0.096-0.096-0.144-0.208-0.144-0.336
		c0-0.136,0.048-0.25,0.144-0.342c0.096-0.092,0.208-0.138,0.336-0.138c0.136,0,0.25,0.046,0.342,0.138
		C179.547,27.985,179.593,28.1,179.593,28.235z"/>
	<path fill="#FFFFFF" d="M185.005,31.451c0,0.16-0.044,0.5-0.132,1.021l-0.588,3.468h-0.72l0.588-3.36
		c0.096-0.552,0.144-0.892,0.144-1.02c0-0.601-0.372-0.9-1.116-0.9c-0.632,0-1.244,0.248-1.836,0.744l-0.78,4.536h-0.72l0.984-5.76
		h0.684l-0.096,0.54c0.624-0.456,1.264-0.685,1.92-0.685c0.496,0,0.898,0.126,1.206,0.378
		C184.851,30.665,185.005,31.012,185.005,31.451z"/>
	<path fill="#FFFFFF" d="M191.341,30.695l-0.9,5.328c-0.088,0.504-0.176,0.876-0.264,1.116c-0.112,0.304-0.28,0.567-0.504,0.792
		c-0.488,0.487-1.136,0.731-1.944,0.731c-0.536,0-1.04-0.124-1.512-0.372c-0.288-0.151-0.504-0.304-0.648-0.455l0.408-0.505
		c0.6,0.464,1.192,0.696,1.776,0.696s1.048-0.172,1.392-0.516c0.256-0.257,0.448-0.74,0.576-1.452l0.132-0.72
		c-0.512,0.407-1.1,0.611-1.764,0.611c-0.616,0-1.116-0.197-1.5-0.594c-0.384-0.396-0.576-0.922-0.576-1.578
		c0-1,0.284-1.859,0.852-2.58c0.608-0.775,1.4-1.164,2.376-1.164C190.025,30.035,190.724,30.256,191.341,30.695z M190.561,31.079
		c-0.408-0.271-0.876-0.407-1.404-0.407c-0.744,0-1.344,0.332-1.8,0.995c-0.4,0.585-0.6,1.261-0.6,2.028
		c0,0.488,0.132,0.88,0.396,1.176c0.264,0.297,0.64,0.444,1.128,0.444c0.336,0,0.692-0.096,1.068-0.288
		c0.256-0.128,0.46-0.26,0.612-0.396L190.561,31.079z"/>
	<path fill="#FFFFFF" d="M198.961,30.18l-0.096,0.588h-1.848l-0.54,3.132c-0.088,0.512-0.132,0.82-0.132,0.924
		c0,0.416,0.236,0.624,0.708,0.624c0.208,0,0.492-0.08,0.852-0.24l0.24,0.517c-0.464,0.231-0.872,0.348-1.224,0.348
		c-0.36,0-0.66-0.084-0.9-0.252c-0.28-0.2-0.42-0.479-0.42-0.84c0-0.104,0.044-0.412,0.132-0.924l0.564-3.288h-1.008l0.096-0.588
		h1.008l0.276-1.632h0.72l-0.276,1.632H198.961z"/>
	<path fill="#FFFFFF" d="M204.589,31.451c0,0.16-0.044,0.5-0.132,1.021l-0.588,3.468h-0.72l0.588-3.36
		c0.096-0.552,0.144-0.892,0.144-1.02c0-0.601-0.372-0.9-1.116-0.9c-0.632,0-1.244,0.248-1.836,0.744l-0.78,4.536h-0.72l1.476-8.64
		h0.72l-0.588,3.396c0.552-0.439,1.18-0.66,1.884-0.66c0.496,0,0.898,0.126,1.206,0.378
		C204.434,30.665,204.589,31.012,204.589,31.451z"/>
	<path fill="#FFFFFF" d="M207.18,30.18l-0.984,5.76h-0.72l0.984-5.76H207.18z M207.624,28.235c0,0.128-0.046,0.24-0.138,0.336
		c-0.092,0.096-0.206,0.145-0.342,0.145c-0.128,0-0.24-0.049-0.336-0.145c-0.096-0.096-0.144-0.208-0.144-0.336
		c0-0.136,0.048-0.25,0.144-0.342c0.096-0.092,0.208-0.138,0.336-0.138c0.136,0,0.25,0.046,0.342,0.138
		C207.578,27.985,207.624,28.1,207.624,28.235z"/>
	<path fill="#FFFFFF" d="M213.036,31.451c0,0.16-0.044,0.5-0.132,1.021l-0.588,3.468h-0.72l0.588-3.36
		c0.096-0.552,0.144-0.892,0.144-1.02c0-0.601-0.372-0.9-1.116-0.9c-0.632,0-1.244,0.248-1.836,0.744l-0.78,4.536h-0.72l0.984-5.76
		h0.684l-0.096,0.54c0.624-0.456,1.264-0.685,1.92-0.685c0.496,0,0.898,0.126,1.206,0.378
		C212.882,30.665,213.036,31.012,213.036,31.451z"/>
	<path fill="#FFFFFF" d="M219.372,30.695l-0.9,5.328c-0.088,0.504-0.176,0.876-0.264,1.116c-0.112,0.304-0.28,0.567-0.504,0.792
		c-0.488,0.487-1.136,0.731-1.944,0.731c-0.536,0-1.04-0.124-1.512-0.372c-0.288-0.151-0.504-0.304-0.648-0.455l0.408-0.505
		c0.6,0.464,1.192,0.696,1.776,0.696s1.048-0.172,1.392-0.516c0.256-0.257,0.448-0.74,0.576-1.452l0.132-0.72
		c-0.512,0.407-1.1,0.611-1.764,0.611c-0.616,0-1.116-0.197-1.5-0.594c-0.384-0.396-0.576-0.922-0.576-1.578
		c0-1,0.284-1.859,0.852-2.58c0.608-0.775,1.4-1.164,2.376-1.164C218.056,30.035,218.756,30.256,219.372,30.695z M218.593,31.079
		c-0.408-0.271-0.876-0.407-1.404-0.407c-0.744,0-1.344,0.332-1.8,0.995c-0.4,0.585-0.6,1.261-0.6,2.028
		c0,0.488,0.132,0.88,0.396,1.176c0.264,0.297,0.64,0.444,1.128,0.444c0.336,0,0.692-0.096,1.068-0.288
		c0.256-0.128,0.46-0.26,0.612-0.396L218.593,31.079z"/>
	<path fill="#FFFFFF" d="M224.281,30.611l-0.384,0.48c-0.368-0.296-0.776-0.444-1.224-0.444c-0.456,0-0.808,0.124-1.056,0.372
		c-0.16,0.16-0.24,0.36-0.24,0.6c0,0.192,0.068,0.356,0.204,0.492c0.136,0.137,0.422,0.326,0.858,0.57
		c0.436,0.244,0.746,0.454,0.93,0.63c0.288,0.288,0.432,0.616,0.432,0.984c0,0.52-0.192,0.945-0.576,1.277
		c-0.384,0.332-0.908,0.498-1.572,0.498c-0.728,0-1.36-0.212-1.896-0.636l0.372-0.516c0.504,0.344,1.012,0.516,1.524,0.516
		c0.344,0,0.64-0.068,0.888-0.204c0.328-0.192,0.492-0.48,0.492-0.864c0-0.312-0.208-0.604-0.624-0.876
		c-0.392-0.231-0.784-0.464-1.176-0.695c-0.416-0.32-0.624-0.692-0.624-1.116c0-0.496,0.194-0.896,0.582-1.2
		c0.388-0.304,0.866-0.456,1.434-0.456C223.385,30.023,223.936,30.22,224.281,30.611z"/>
	<path fill="#FFFFFF" d="M232.848,31.38c0,0.464-0.188,0.884-0.564,1.26c-0.648,0.647-1.864,1.028-3.648,1.14
		c0.016,0.496,0.174,0.896,0.474,1.2c0.3,0.304,0.706,0.456,1.218,0.456c0.44,0,0.928-0.148,1.464-0.444l0.312,0.504
		c-0.128,0.12-0.353,0.236-0.672,0.349c-0.4,0.151-0.792,0.228-1.176,0.228c-0.712,0-1.282-0.21-1.71-0.63
		c-0.428-0.42-0.642-0.994-0.642-1.722c0-1.008,0.31-1.874,0.93-2.599c0.62-0.724,1.402-1.086,2.346-1.086
		c0.472,0,0.868,0.12,1.188,0.36S232.848,30.964,232.848,31.38z M232.152,31.428c0-0.248-0.094-0.442-0.282-0.582
		s-0.426-0.21-0.714-0.21c-0.704,0-1.3,0.308-1.788,0.924c-0.4,0.504-0.636,1.056-0.708,1.656c0.488-0.024,1-0.108,1.536-0.252
		c0.752-0.2,1.288-0.46,1.608-0.78C232.036,31.951,232.152,31.699,232.152,31.428z"/>
	<path fill="#FFFFFF" d="M238.74,30.563l-0.864,5.376h-0.66l0.108-0.636c-0.56,0.504-1.132,0.756-1.716,0.756
		c-0.592,0-1.068-0.206-1.428-0.618s-0.54-0.946-0.54-1.602c0-1.057,0.284-1.944,0.852-2.664c0.6-0.761,1.376-1.141,2.328-1.141
		C237.604,30.035,238.244,30.212,238.74,30.563z M237.972,30.959c-0.336-0.191-0.748-0.287-1.236-0.287
		c-0.704,0-1.274,0.296-1.71,0.888s-0.654,1.308-0.654,2.147c0,0.456,0.1,0.841,0.3,1.152c0.248,0.376,0.612,0.564,1.092,0.564
		c0.608,0,1.144-0.256,1.608-0.769L237.972,30.959z"/>
	<path fill="#FFFFFF" d="M243.564,30.167l-0.24,0.601c-0.184-0.04-0.344-0.061-0.48-0.061c-0.736,0-1.408,0.425-2.016,1.272
		l-0.672,3.96h-0.72l0.972-5.76h0.684l-0.144,0.876c0.6-0.688,1.264-1.032,1.992-1.032
		C243.236,30.023,243.444,30.071,243.564,30.167z"/>
	<path fill="#FFFFFF" d="M245.844,27.3l-1.464,8.64h-0.72l1.464-8.64H245.844z"/>
	<path fill="#FFFFFF" d="M247.764,30.18l-0.984,5.76h-0.72l0.984-5.76H247.764z M248.208,28.235c0,0.128-0.046,0.24-0.138,0.336
		c-0.092,0.096-0.206,0.145-0.342,0.145c-0.128,0-0.24-0.049-0.336-0.145c-0.096-0.096-0.144-0.208-0.144-0.336
		c0-0.136,0.048-0.25,0.144-0.342c0.096-0.092,0.208-0.138,0.336-0.138c0.136,0,0.25,0.046,0.342,0.138
		C248.162,27.985,248.208,28.1,248.208,28.235z"/>
	<path fill="#FFFFFF" d="M253.5,31.38c0,0.464-0.188,0.884-0.564,1.26c-0.648,0.647-1.864,1.028-3.648,1.14
		c0.016,0.496,0.174,0.896,0.474,1.2c0.3,0.304,0.706,0.456,1.218,0.456c0.44,0,0.928-0.148,1.464-0.444l0.312,0.504
		c-0.128,0.12-0.353,0.236-0.672,0.349c-0.4,0.151-0.792,0.228-1.176,0.228c-0.712,0-1.282-0.21-1.71-0.63
		c-0.428-0.42-0.642-0.994-0.642-1.722c0-1.008,0.31-1.874,0.93-2.599c0.62-0.724,1.402-1.086,2.346-1.086
		c0.472,0,0.868,0.12,1.188,0.36S253.5,30.964,253.5,31.38z M252.804,31.428c0-0.248-0.094-0.442-0.282-0.582
		s-0.426-0.21-0.714-0.21c-0.704,0-1.3,0.308-1.788,0.924c-0.4,0.504-0.636,1.056-0.708,1.656c0.488-0.024,1-0.108,1.536-0.252
		c0.752-0.2,1.288-0.46,1.608-0.78C252.688,31.951,252.804,31.699,252.804,31.428z"/>
	<path fill="#FFFFFF" d="M258.323,30.167l-0.24,0.601c-0.184-0.04-0.344-0.061-0.48-0.061c-0.736,0-1.408,0.425-2.016,1.272
		l-0.672,3.96h-0.72l0.972-5.76h0.684l-0.144,0.876c0.6-0.688,1.264-1.032,1.992-1.032
		C257.995,30.023,258.204,30.071,258.323,30.167z"/>
</g>
<rect x="149.041" y="73.028" fill="none" width="177.854" height="19.32"/>
<g enable-background="new    ">
	<path fill="#FFFFFF" d="M155.036,74.271l-0.44,0.418c-0.433-0.403-0.942-0.605-1.529-0.605c-0.433,0-0.81,0.121-1.133,0.363
		c-0.352,0.264-0.528,0.602-0.528,1.012c0,0.396,0.249,0.748,0.748,1.057c0.469,0.271,0.939,0.542,1.408,0.813
		c0.499,0.382,0.748,0.858,0.748,1.43c0,0.646-0.228,1.196-0.682,1.65c-0.455,0.455-1.089,0.682-1.903,0.682
		c-0.865,0-1.555-0.3-2.068-0.901l0.418-0.462c0.256,0.228,0.44,0.374,0.55,0.439c0.345,0.206,0.733,0.309,1.166,0.309
		c0.586,0,1.032-0.152,1.336-0.457c0.304-0.304,0.457-0.68,0.457-1.127c0-0.359-0.147-0.671-0.44-0.936
		c-0.154-0.139-0.479-0.347-0.974-0.621c-0.495-0.275-0.853-0.522-1.072-0.743c-0.257-0.256-0.385-0.579-0.385-0.968
		c0-0.631,0.253-1.151,0.759-1.562c0.469-0.389,1.019-0.583,1.65-0.583C153.973,73.479,154.611,73.742,155.036,74.271z"/>
	<path fill="#FFFFFF" d="M158.908,75.667l-0.088,0.539h-1.694l-0.495,2.871c-0.081,0.47-0.121,0.752-0.121,0.847
		c0,0.382,0.216,0.572,0.649,0.572c0.19,0,0.451-0.073,0.781-0.22l0.22,0.473c-0.425,0.213-0.799,0.319-1.122,0.319
		c-0.33,0-0.605-0.077-0.825-0.231c-0.257-0.183-0.385-0.439-0.385-0.77c0-0.096,0.04-0.378,0.121-0.847l0.517-3.015h-0.924
		l0.088-0.539h0.924l0.253-1.496h0.66l-0.253,1.496H158.908z"/>
	<path fill="#FFFFFF" d="M163.935,76.02l-0.792,4.928h-0.605l0.099-0.583c-0.513,0.462-1.038,0.693-1.573,0.693
		c-0.543,0-0.979-0.189-1.309-0.566c-0.33-0.378-0.495-0.867-0.495-1.469c0-0.968,0.26-1.782,0.781-2.442
		c0.55-0.696,1.261-1.045,2.134-1.045C162.894,75.535,163.48,75.696,163.935,76.02z M163.231,76.382
		c-0.308-0.176-0.686-0.264-1.133-0.264c-0.645,0-1.167,0.271-1.567,0.814c-0.4,0.542-0.6,1.198-0.6,1.969
		c0,0.418,0.092,0.77,0.275,1.056c0.227,0.345,0.561,0.518,1.001,0.518c0.557,0,1.048-0.235,1.474-0.704L163.231,76.382z"/>
	<path fill="#FFFFFF" d="M169.303,76.833c0,0.147-0.041,0.459-0.121,0.936l-0.539,3.179h-0.66l0.539-3.08
		c0.088-0.506,0.132-0.817,0.132-0.935c0-0.551-0.341-0.825-1.023-0.825c-0.58,0-1.141,0.228-1.683,0.682l-0.715,4.158h-0.66
		l0.902-5.28h0.627l-0.088,0.495c0.572-0.418,1.159-0.627,1.76-0.627c0.455,0,0.823,0.115,1.105,0.347
		C169.162,76.112,169.303,76.43,169.303,76.833z"/>
	<path fill="#FFFFFF" d="M175.628,73.027l-1.342,7.92h-0.583l0.099-0.583c-0.491,0.462-1.056,0.693-1.694,0.693
		c-0.565,0-1.023-0.189-1.375-0.566c-0.352-0.378-0.528-0.867-0.528-1.469c0-0.932,0.26-1.734,0.781-2.409
		c0.557-0.719,1.265-1.078,2.123-1.078c0.572,0,1.023,0.165,1.353,0.495l0.506-3.003H175.628z M174.352,76.646
		c-0.323-0.353-0.755-0.528-1.298-0.528c-0.667,0-1.206,0.305-1.617,0.913c-0.367,0.55-0.55,1.188-0.55,1.914
		c0,0.455,0.117,0.817,0.352,1.089c0.25,0.294,0.598,0.44,1.045,0.44c0.484,0,0.994-0.224,1.529-0.671L174.352,76.646z"/>
	<path fill="#FFFFFF" d="M177.388,75.667l-0.902,5.28h-0.66l0.902-5.28H177.388z M177.795,73.886c0,0.117-0.042,0.22-0.126,0.308
		c-0.084,0.088-0.188,0.132-0.313,0.132c-0.117,0-0.22-0.044-0.308-0.132c-0.088-0.088-0.132-0.19-0.132-0.308
		c0-0.125,0.044-0.229,0.132-0.314c0.088-0.084,0.19-0.126,0.308-0.126c0.125,0,0.229,0.042,0.313,0.126
		C177.753,73.656,177.795,73.761,177.795,73.886z"/>
	<path fill="#FFFFFF" d="M182.756,76.833c0,0.147-0.041,0.459-0.121,0.936l-0.539,3.179h-0.66l0.539-3.08
		c0.088-0.506,0.132-0.817,0.132-0.935c0-0.551-0.341-0.825-1.023-0.825c-0.58,0-1.141,0.228-1.683,0.682l-0.715,4.158h-0.66
		l0.902-5.28h0.627l-0.088,0.495c0.572-0.418,1.159-0.627,1.76-0.627c0.455,0,0.823,0.115,1.105,0.347
		C182.615,76.112,182.756,76.43,182.756,76.833z"/>
	<path fill="#FFFFFF" d="M188.564,76.141l-0.825,4.884c-0.081,0.462-0.162,0.803-0.242,1.022c-0.103,0.279-0.257,0.521-0.462,0.727
		c-0.448,0.447-1.042,0.671-1.782,0.671c-0.491,0-0.953-0.114-1.386-0.341c-0.264-0.14-0.462-0.279-0.594-0.418l0.374-0.462
		c0.55,0.425,1.093,0.638,1.628,0.638s0.961-0.158,1.276-0.473c0.234-0.235,0.41-0.679,0.528-1.331l0.121-0.66
		c-0.47,0.374-1.009,0.561-1.617,0.561c-0.565,0-1.023-0.182-1.375-0.544c-0.352-0.363-0.528-0.846-0.528-1.447
		c0-0.916,0.26-1.704,0.781-2.364c0.557-0.712,1.283-1.067,2.178-1.067C187.357,75.535,187.999,75.737,188.564,76.141z
		 M187.849,76.492c-0.374-0.249-0.803-0.374-1.287-0.374c-0.682,0-1.232,0.305-1.65,0.913c-0.367,0.535-0.55,1.155-0.55,1.859
		c0,0.447,0.121,0.807,0.363,1.078c0.242,0.271,0.586,0.406,1.034,0.406c0.308,0,0.634-0.088,0.979-0.264
		c0.235-0.117,0.422-0.238,0.561-0.363L187.849,76.492z"/>
	<path fill="#FFFFFF" d="M196.813,75.667l-0.902,5.28h-0.583l0.099-0.561c-0.558,0.447-1.163,0.671-1.815,0.671
		c-0.455,0-0.818-0.114-1.089-0.342c-0.293-0.234-0.44-0.553-0.44-0.957c0-0.153,0.041-0.465,0.121-0.935l0.539-3.157h0.66
		l-0.539,3.059c-0.088,0.498-0.132,0.811-0.132,0.935c0,0.55,0.341,0.825,1.023,0.825c0.579,0,1.14-0.228,1.683-0.682l0.715-4.137
		H196.813z"/>
	<path fill="#FFFFFF" d="M202.446,77.57c0,0.932-0.26,1.734-0.781,2.409c-0.558,0.719-1.265,1.078-2.123,1.078
		c-0.514,0-0.961-0.158-1.342-0.474l-0.473,2.706h-0.66l1.298-7.623h0.627l-0.088,0.495c0.542-0.418,1.089-0.627,1.639-0.627
		c0.564,0,1.023,0.189,1.375,0.566C202.27,76.479,202.446,76.969,202.446,77.57z M201.763,77.647c0-0.455-0.121-0.823-0.363-1.105
		s-0.587-0.424-1.034-0.424c-0.521,0-1.03,0.224-1.529,0.671l-0.539,3.168c0.411,0.345,0.843,0.518,1.298,0.518
		c0.667,0,1.207-0.305,1.617-0.913C201.58,79.012,201.763,78.373,201.763,77.647z"/>
	<path fill="#FFFFFF" d="M209.452,75.667l-0.088,0.539h-1.694l-0.495,2.871c-0.081,0.47-0.121,0.752-0.121,0.847
		c0,0.382,0.216,0.572,0.649,0.572c0.19,0,0.451-0.073,0.781-0.22l0.22,0.473c-0.425,0.213-0.799,0.319-1.122,0.319
		c-0.33,0-0.605-0.077-0.825-0.231c-0.257-0.183-0.385-0.439-0.385-0.77c0-0.096,0.04-0.378,0.121-0.847l0.517-3.015h-0.924
		l0.088-0.539h0.924l0.253-1.496h0.66l-0.253,1.496H209.452z"/>
	<path fill="#FFFFFF" d="M214.666,77.647c0,0.917-0.26,1.701-0.781,2.354c-0.558,0.704-1.269,1.057-2.134,1.057
		c-0.601,0-1.085-0.191-1.452-0.572c-0.367-0.381-0.55-0.895-0.55-1.54c0-0.917,0.26-1.701,0.781-2.354
		c0.557-0.703,1.269-1.056,2.134-1.056c0.601,0,1.085,0.19,1.452,0.572C214.483,76.488,214.666,77.002,214.666,77.647z
		 M213.984,77.725c0-0.47-0.11-0.848-0.33-1.134c-0.242-0.322-0.59-0.483-1.045-0.483c-0.66,0-1.199,0.305-1.617,0.913
		c-0.374,0.535-0.561,1.151-0.561,1.848c0,0.47,0.11,0.847,0.33,1.133c0.242,0.323,0.59,0.484,1.045,0.484
		c0.66,0,1.199-0.305,1.617-0.913C213.797,79.037,213.984,78.421,213.984,77.725z"/>
	<path fill="#FFFFFF" d="M225.919,76.833c0,0.147-0.041,0.459-0.121,0.936l-0.539,3.179h-0.66l0.539-3.08
		c0.088-0.506,0.132-0.817,0.132-0.935c0-0.551-0.312-0.825-0.935-0.825c-0.558,0-1.118,0.234-1.683,0.704
		c0,0.161-0.041,0.48-0.121,0.957l-0.539,3.179h-0.66l0.539-3.08c0.088-0.506,0.132-0.817,0.132-0.935
		c0-0.271-0.088-0.477-0.264-0.616c-0.176-0.14-0.399-0.209-0.671-0.209c-0.542,0-1.093,0.228-1.65,0.682l-0.715,4.158h-0.66
		l0.902-5.28h0.627l-0.088,0.495c0.572-0.418,1.14-0.627,1.705-0.627c0.638,0,1.089,0.242,1.353,0.727
		c0.63-0.484,1.269-0.727,1.914-0.727c0.499,0,0.88,0.146,1.144,0.44C225.813,76.217,225.919,76.503,225.919,76.833z"/>
	<path fill="#FFFFFF" d="M231.881,75.667l-3.047,5.654c-0.374,0.696-0.711,1.195-1.012,1.496c-0.418,0.418-0.909,0.627-1.474,0.627
		c-0.301,0-0.627-0.088-0.979-0.264l0.242-0.495c0.271,0.117,0.517,0.176,0.737,0.176c0.389,0,0.737-0.154,1.045-0.462
		c0.212-0.213,0.506-0.656,0.88-1.331l-1.254-5.401h0.704l1.045,4.587l2.42-4.587H231.881z"/>
	<path fill="#FFFFFF" d="M238.47,76.063l-0.352,0.439c-0.337-0.271-0.711-0.406-1.122-0.406c-0.418,0-0.741,0.113-0.968,0.341
		c-0.147,0.146-0.22,0.33-0.22,0.55c0,0.176,0.062,0.326,0.187,0.451c0.125,0.125,0.387,0.299,0.787,0.522
		c0.399,0.224,0.684,0.416,0.853,0.577c0.264,0.265,0.396,0.565,0.396,0.902c0,0.477-0.176,0.867-0.528,1.171
		c-0.352,0.305-0.833,0.457-1.441,0.457c-0.667,0-1.247-0.194-1.738-0.583l0.341-0.473c0.462,0.315,0.928,0.473,1.397,0.473
		c0.315,0,0.587-0.062,0.814-0.188c0.3-0.176,0.451-0.439,0.451-0.792c0-0.285-0.191-0.553-0.572-0.803
		c-0.359-0.213-0.719-0.425-1.078-0.638c-0.381-0.293-0.572-0.635-0.572-1.023c0-0.454,0.178-0.821,0.533-1.1
		s0.794-0.418,1.314-0.418C237.649,75.524,238.155,75.704,238.47,76.063z"/>
	<path fill="#FFFFFF" d="M243.969,75.667l-0.902,5.28h-0.583l0.099-0.561c-0.558,0.447-1.163,0.671-1.815,0.671
		c-0.455,0-0.818-0.114-1.089-0.342c-0.293-0.234-0.44-0.553-0.44-0.957c0-0.153,0.041-0.465,0.121-0.935l0.539-3.157h0.66
		l-0.539,3.059c-0.088,0.498-0.132,0.811-0.132,0.935c0,0.55,0.341,0.825,1.023,0.825c0.579,0,1.14-0.228,1.683-0.682l0.715-4.137
		H243.969z"/>
	<path fill="#FFFFFF" d="M249.601,77.57c0,0.932-0.26,1.734-0.781,2.409c-0.558,0.719-1.265,1.078-2.123,1.078
		c-0.514,0-0.961-0.158-1.342-0.474l-0.473,2.706h-0.66l1.298-7.623h0.627l-0.088,0.495c0.542-0.418,1.089-0.627,1.639-0.627
		c0.564,0,1.023,0.189,1.375,0.566C249.426,76.479,249.601,76.969,249.601,77.57z M248.919,77.647c0-0.455-0.121-0.823-0.363-1.105
		s-0.587-0.424-1.034-0.424c-0.521,0-1.03,0.224-1.529,0.671l-0.539,3.168c0.411,0.345,0.843,0.518,1.298,0.518
		c0.667,0,1.207-0.305,1.617-0.913C248.736,79.012,248.919,78.373,248.919,77.647z"/>
	<path fill="#FFFFFF" d="M254.948,76.768c0,0.425-0.172,0.811-0.517,1.154c-0.594,0.595-1.709,0.942-3.344,1.045
		c0.015,0.455,0.16,0.822,0.435,1.101s0.647,0.418,1.117,0.418c0.403,0,0.851-0.136,1.342-0.407l0.286,0.462
		c-0.117,0.11-0.323,0.217-0.616,0.319c-0.367,0.139-0.726,0.209-1.078,0.209c-0.653,0-1.175-0.192-1.568-0.577
		c-0.392-0.386-0.588-0.911-0.588-1.579c0-0.924,0.284-1.718,0.853-2.381c0.568-0.664,1.285-0.996,2.15-0.996
		c0.433,0,0.796,0.11,1.089,0.33C254.801,76.085,254.948,76.386,254.948,76.768z M254.309,76.812c0-0.228-0.086-0.405-0.258-0.534
		c-0.172-0.128-0.391-0.192-0.655-0.192c-0.645,0-1.191,0.282-1.639,0.848c-0.367,0.462-0.583,0.968-0.649,1.518
		c0.447-0.021,0.917-0.099,1.408-0.23c0.689-0.184,1.181-0.422,1.474-0.716C254.203,77.292,254.309,77.061,254.309,76.812z"/>
	<path fill="#FFFFFF" d="M259.37,75.656l-0.22,0.55c-0.169-0.036-0.315-0.055-0.44-0.055c-0.675,0-1.291,0.389-1.848,1.166
		l-0.616,3.63h-0.66l0.891-5.28h0.627l-0.132,0.804c0.55-0.631,1.159-0.946,1.826-0.946C259.069,75.524,259.26,75.568,259.37,75.656
		z"/>
	<path fill="#FFFFFF" d="M265.034,75.667l-2.97,5.28h-0.781l-1.155-5.28h0.704l0.957,4.587l2.552-4.587H265.034z"/>
	<path fill="#FFFFFF" d="M266.783,75.667l-0.902,5.28h-0.66l0.902-5.28H266.783z M267.19,73.886c0,0.117-0.042,0.22-0.126,0.308
		c-0.084,0.088-0.188,0.132-0.313,0.132c-0.117,0-0.22-0.044-0.308-0.132c-0.088-0.088-0.132-0.19-0.132-0.308
		c0-0.125,0.044-0.229,0.132-0.314c0.088-0.084,0.19-0.126,0.308-0.126c0.125,0,0.229,0.042,0.313,0.126
		C267.148,73.656,267.19,73.761,267.19,73.886z"/>
	<path fill="#FFFFFF" d="M271.216,76.063l-0.352,0.439c-0.337-0.271-0.711-0.406-1.122-0.406c-0.418,0-0.741,0.113-0.968,0.341
		c-0.147,0.146-0.22,0.33-0.22,0.55c0,0.176,0.062,0.326,0.187,0.451c0.125,0.125,0.387,0.299,0.787,0.522
		c0.399,0.224,0.684,0.416,0.853,0.577c0.264,0.265,0.396,0.565,0.396,0.902c0,0.477-0.176,0.867-0.528,1.171
		c-0.352,0.305-0.833,0.457-1.441,0.457c-0.667,0-1.247-0.194-1.738-0.583l0.341-0.473c0.462,0.315,0.928,0.473,1.397,0.473
		c0.315,0,0.587-0.062,0.814-0.188c0.3-0.176,0.451-0.439,0.451-0.792c0-0.285-0.191-0.553-0.572-0.803
		c-0.359-0.213-0.719-0.425-1.078-0.638c-0.381-0.293-0.572-0.635-0.572-1.023c0-0.454,0.178-0.821,0.533-1.1
		s0.794-0.418,1.314-0.418C270.395,75.524,270.901,75.704,271.216,76.063z"/>
	<path fill="#FFFFFF" d="M276.815,77.647c0,0.917-0.26,1.701-0.781,2.354c-0.558,0.704-1.269,1.057-2.134,1.057
		c-0.601,0-1.085-0.191-1.452-0.572c-0.367-0.381-0.55-0.895-0.55-1.54c0-0.917,0.26-1.701,0.781-2.354
		c0.557-0.703,1.269-1.056,2.134-1.056c0.601,0,1.085,0.19,1.452,0.572C276.632,76.488,276.815,77.002,276.815,77.647z
		 M276.133,77.725c0-0.47-0.11-0.848-0.33-1.134c-0.242-0.322-0.59-0.483-1.045-0.483c-0.66,0-1.199,0.305-1.617,0.913
		c-0.374,0.535-0.561,1.151-0.561,1.848c0,0.47,0.11,0.847,0.33,1.133c0.242,0.323,0.59,0.484,1.045,0.484
		c0.66,0,1.199-0.305,1.617-0.913C275.946,79.037,276.133,78.421,276.133,77.725z"/>
	<path fill="#FFFFFF" d="M281.336,75.656l-0.22,0.55c-0.169-0.036-0.315-0.055-0.44-0.055c-0.675,0-1.291,0.389-1.848,1.166
		l-0.616,3.63h-0.66l0.891-5.28h0.627l-0.132,0.804c0.55-0.631,1.159-0.946,1.826-0.946
		C281.035,75.524,281.226,75.568,281.336,75.656z"/>
	<path fill="#FFFFFF" d="M283.085,80.54c0,0.14-0.047,0.257-0.143,0.353c-0.096,0.095-0.213,0.143-0.352,0.143
		c-0.14,0-0.257-0.048-0.352-0.143c-0.096-0.096-0.143-0.213-0.143-0.353c0-0.139,0.047-0.257,0.143-0.352
		c0.095-0.096,0.212-0.144,0.352-0.144c0.139,0,0.256,0.048,0.352,0.144C283.037,80.283,283.085,80.401,283.085,80.54z
		 M284.174,73.61l-1.045,5.555h-0.594l0.792-5.555H284.174z"/>
</g>
<rect x="543.579" y="27.3" fill="none" width="177.854" height="19.32"/>
<g enable-background="new    ">
	<path fill="#FFFFFF" d="M659.881,36.698h-1.508v-8.671h1.508V36.698z"/>
	<path fill="#FFFFFF" d="M665.744,36.49c-0.399,0.251-0.893,0.377-1.482,0.377c-0.668,0-1.179-0.178-1.534-0.533
		c-0.226-0.225-0.368-0.511-0.429-0.857c-0.035-0.19-0.053-0.555-0.053-1.093v-2.859h-1.104v-1.17h1.104v-1.781h1.431v1.781h1.872
		v1.17h-1.872v2.99c0,0.372,0.039,0.633,0.116,0.779c0.122,0.243,0.369,0.364,0.742,0.364c0.216,0,0.498-0.057,0.845-0.169
		L665.744,36.49z"/>
	<path fill="#FFFFFF" d="M678.848,30.354l-1.781,6.344h-1.534l-1.286-4.771l-1.262,4.771h-1.495l-1.729-6.344h1.379l1.183,4.81
		l1.287-4.81H675l1.273,4.81l1.234-4.81H678.848z"/>
	<path fill="#FFFFFF" d="M684.867,36.698h-1.248V36.23c-0.625,0.398-1.248,0.598-1.873,0.598c-0.615,0-1.109-0.184-1.481-0.553
		c-0.373-0.368-0.56-0.852-0.56-1.449c0-1.481,1.191-2.223,3.576-2.223h0.233v-0.247c0-0.391-0.069-0.654-0.208-0.793
		c-0.191-0.19-0.533-0.286-1.027-0.286c-0.562,0-1.135,0.165-1.716,0.494l-0.494-0.923c0.147-0.131,0.372-0.256,0.677-0.377
		c0.502-0.208,1.053-0.312,1.65-0.312c0.867,0,1.525,0.226,1.977,0.676c0.225,0.226,0.367,0.507,0.429,0.846
		c0.043,0.217,0.065,0.589,0.065,1.117V36.698z M683.515,35.294v-1.677h-0.3c-0.996,0-1.654,0.165-1.975,0.494
		c-0.166,0.165-0.248,0.382-0.248,0.65c0,0.312,0.106,0.55,0.318,0.715c0.213,0.164,0.479,0.247,0.8,0.247
		C682.518,35.724,682.987,35.58,683.515,35.294z"/>
	<path fill="#FFFFFF" d="M690.717,34.878c0,0.616-0.227,1.101-0.676,1.456c-0.451,0.355-1.032,0.533-1.742,0.533
		c-0.572,0-1.118-0.104-1.639-0.312c-0.32-0.131-0.546-0.252-0.676-0.364l0.507-0.937c0.633,0.33,1.188,0.494,1.664,0.494
		c0.355,0,0.628-0.073,0.819-0.221c0.19-0.147,0.285-0.334,0.285-0.559c0-0.226-0.121-0.412-0.363-0.56
		c-0.113-0.078-0.446-0.234-1.001-0.468c-0.512-0.217-0.88-0.42-1.104-0.611c-0.382-0.329-0.572-0.749-0.572-1.261
		c0-0.572,0.217-1.031,0.65-1.378c0.433-0.347,1-0.521,1.702-0.521c0.893,0,1.577,0.191,2.054,0.572l-0.494,0.91
		c-0.502-0.286-0.992-0.429-1.469-0.429c-0.676,0-1.014,0.238-1.014,0.715c0,0.208,0.108,0.386,0.325,0.533
		c0.13,0.086,0.398,0.217,0.806,0.39c0.642,0.269,1.074,0.494,1.301,0.676C690.504,33.877,690.717,34.323,690.717,34.878z"/>
	<path fill="#FFFFFF" d="M699.881,27.689l-0.545,0.936c-0.305-0.19-0.611-0.286-0.924-0.286c-0.32,0-0.562,0.083-0.728,0.247
		c-0.208,0.208-0.312,0.611-0.312,1.209v0.56h1.924v1.17h-1.924v5.174h-1.431v-5.174h-1.065v-1.17h1.065v-0.546
		c0-0.954,0.217-1.646,0.649-2.08c0.391-0.391,0.932-0.585,1.625-0.585c0.426,0,0.824,0.086,1.197,0.26
		C699.664,27.516,699.821,27.611,699.881,27.689z"/>
	<path fill="#FFFFFF" d="M702.208,28.456c0,0.234-0.08,0.432-0.24,0.592c-0.161,0.16-0.358,0.24-0.592,0.24s-0.433-0.08-0.598-0.24
		s-0.247-0.357-0.247-0.592c0-0.233,0.082-0.433,0.247-0.598s0.364-0.247,0.598-0.247s0.431,0.082,0.592,0.247
		C702.128,28.023,702.208,28.223,702.208,28.456z M702.092,36.698h-1.431v-6.344h1.431V36.698z"/>
	<path fill="#FFFFFF" d="M709.112,36.698h-1.43v-3.471c0-0.841-0.096-1.356-0.287-1.547c-0.189-0.191-0.459-0.286-0.805-0.286
		c-0.443,0-0.915,0.155-1.418,0.468v4.836h-1.43v-6.344h1.248v0.468c0.598-0.434,1.227-0.65,1.885-0.65
		c0.668,0,1.196,0.195,1.586,0.585c0.295,0.295,0.485,0.659,0.572,1.093c0.052,0.26,0.078,0.693,0.078,1.3V36.698z"/>
	<path fill="#FFFFFF" d="M716.118,33.448c0,0.078-0.005,0.176-0.013,0.293c-0.01,0.116-0.014,0.188-0.014,0.214h-4.303
		c0,0.451,0.135,0.841,0.402,1.17c0.33,0.391,0.798,0.585,1.404,0.585c0.521,0,1.102-0.16,1.742-0.48l0.494,0.936
		c-0.65,0.46-1.435,0.689-2.354,0.689c-0.971,0-1.732-0.316-2.287-0.949c-0.537-0.598-0.807-1.378-0.807-2.34
		c0-0.997,0.277-1.812,0.832-2.444s1.278-0.949,2.172-0.949c0.857,0,1.527,0.291,2.008,0.871
		C715.877,31.624,716.118,32.426,716.118,33.448z M714.766,32.89c0-0.391-0.082-0.729-0.246-1.015
		c-0.243-0.407-0.611-0.61-1.105-0.61c-0.441,0-0.809,0.149-1.099,0.448s-0.466,0.691-0.526,1.177H714.766z"/>
	<path fill="#FFFFFF" d="M719.875,35.879c0,0.252-0.089,0.466-0.267,0.644s-0.392,0.267-0.644,0.267s-0.466-0.089-0.644-0.267
		s-0.267-0.392-0.267-0.644c0-0.251,0.089-0.466,0.267-0.644c0.178-0.177,0.392-0.266,0.644-0.266s0.466,0.089,0.644,0.266
		C719.786,35.413,719.875,35.628,719.875,35.879z M719.783,28.027l-0.221,6.201h-1.195l-0.234-6.201H719.783z"/>
</g>
</svg>
