<?xml version="1.0" encoding="utf-8"?>
<!-- Generator: Adobe Illustrator 16.0.4, SVG Export Plug-In . SVG Version: 6.00 Build 0)  -->
<!DOCTYPE svg PUBLIC "-//W3C//DTD SVG 1.1//EN" "http://www.w3.org/Graphics/SVG/1.1/DTD/svg11.dtd">
<svg version="1.1" id="Layer_1" xmlns="http://www.w3.org/2000/svg" xmlns:xlink="http://www.w3.org/1999/xlink" x="0px" y="0px"
	 width="724px" height="91.041px" viewBox="0 0 724 91.041" enable-background="new 0 0 724 91.041" xml:space="preserve">
<linearGradient id="SVGID_1_" gradientUnits="userSpaceOnUse" x1="0.2209" y1="1055.1006" x2="722.9915" y2="1055.1006" gradientTransform="matrix(1 0 0 1 -0.2207 -1008.4805)">
	<stop  offset="0" style="stop-color:#E53624"/>
	<stop  offset="1" style="stop-color:#4DAD3D"/>
</linearGradient>
<line fill="none" stroke="url(#SVGID_1_)" stroke-width="7" stroke-miterlimit="10" x1="0" y1="46.621" x2="722.771" y2="46.621"/>
<g>
	<path fill="none" stroke="#373773" stroke-width="1.5" stroke-linecap="round" stroke-linejoin="round" stroke-miterlimit="10" d="
		M656.096,20.735c-5.342,2.194-8.918,7.2-9.193,12.861l0.05,6.031c-0.021,1.543,0.688,3.01,1.915,3.977
		c0.585,0.549,1.453,0.689,2.188,0.359c0.081,0.809,0.548,1.533,1.259,1.955 M652.315,45.919c5.202,2.633,10.986,3.973,16.845,3.902
		c1.898-0.025,3.765-0.512,5.427-1.412c0.567,0.564,1.444,0.705,2.174,0.348c1.617-0.787,2.906-2.104,3.635-3.725V34.394
		c-0.297-5.586-3.871-10.499-9.168-12.605"/>
	<path fill="none" stroke="#555555" stroke-width="1.5" stroke-linecap="round" stroke-linejoin="round" stroke-miterlimit="10" d="
		M674.052,14.895c0-5.386-4.459-9.751-9.962-9.751s-9.963,4.365-9.963,9.751c0,5.385,4.46,9.75,9.963,9.75
		S674.052,20.279,674.052,14.895z"/>
	
		<path fill="#BBEF6F" stroke="#000000" stroke-width="1.5" stroke-linecap="round" stroke-linejoin="round" stroke-miterlimit="10" d="
		M656.096,20.735c-5.294,2.252-8.848,7.226-9.193,12.867l0.05,6.025c-0.021,1.543,0.688,3.01,1.915,3.977
		c0.585,0.549,1.453,0.689,2.188,0.359c0.081,0.809,0.548,1.533,1.259,1.955c5.202,2.634,10.986,3.974,16.845,3.901
		c1.898-0.024,3.765-0.512,5.427-1.411c0.567,0.563,1.444,0.704,2.174,0.348c1.617-0.786,2.903-2.104,3.635-3.725v-9.648
		c0.146-5.961-3.51-11.382-9.168-13.596l-0.084-0.004c3.887-3.817,3.875-9.993-0.023-13.795c-3.896-3.805-10.21-3.794-14.097,0.021
		C653.528,11.441,653.137,16.857,656.096,20.735z"/>
	<path fill="none" stroke="#555555" stroke-width="1.5" stroke-linecap="round" stroke-linejoin="round" stroke-miterlimit="10" d="
		M651.056,43.964c0.423-6.127,1.485-12.504,3.071-18.434"/>
	<path fill="none" stroke="#555555" stroke-width="1.5" stroke-linecap="round" stroke-linejoin="round" stroke-miterlimit="10" d="
		M674.585,48.411c-0.152-6.494-0.646-13.068-1.453-19.513"/>
	<path fill="none" stroke="#555555" stroke-width="1.5" stroke-linecap="round" stroke-linejoin="round" stroke-miterlimit="10" d="
		M656.116,20.571c3.31,4.316,9.563,5.193,13.977,1.956c0.379-0.277,0.735-0.58,1.069-0.909"/>
</g>
<rect x="1" y="61.794" fill="none" width="131.333" height="20.895"/>
<g enable-background="new    ">
	<path fill="#FFFFFF" d="M15.52,62.96l-2.464,14.674h-1.562L6.302,65.027l-2.09,12.606h-1.32L5.356,62.96h1.496l5.258,12.716
		L14.2,62.96H15.52z"/>
	<path fill="#FFFFFF" d="M26.475,71.034c0,1.833-0.521,3.402-1.562,4.708c-1.115,1.407-2.538,2.111-4.268,2.111
		c-1.203,0-2.171-0.381-2.904-1.144s-1.1-1.789-1.1-3.08c0-1.833,0.521-3.402,1.562-4.708c1.115-1.408,2.538-2.112,4.268-2.112
		c1.203,0,2.17,0.382,2.904,1.145C26.109,68.717,26.475,69.743,26.475,71.034z M25.112,71.188c0-0.938-0.22-1.693-0.66-2.266
		c-0.484-0.646-1.181-0.968-2.09-0.968c-1.32,0-2.398,0.608-3.234,1.826c-0.748,1.07-1.122,2.303-1.122,3.695
		c0,0.939,0.22,1.694,0.66,2.267c0.484,0.646,1.18,0.968,2.09,0.968c1.32,0,2.398-0.608,3.234-1.826
		C24.738,73.813,25.112,72.581,25.112,71.188z"/>
	<path fill="#FFFFFF" d="M29.995,75.962c-0.015,0.411-0.14,0.909-0.374,1.496c-0.352,0.865-0.88,1.649-1.584,2.354
		c-0.235,0.234-0.484,0.455-0.748,0.66l-0.704-0.704c1.085-1.041,1.694-2.31,1.826-3.806H29.995z"/>
	<path fill="#FFFFFF" d="M40.335,67.074l-1.804,10.56h-1.32l1.804-10.56H40.335z M41.149,63.51c0,0.234-0.084,0.44-0.253,0.616
		c-0.169,0.176-0.378,0.264-0.627,0.264c-0.235,0-0.44-0.088-0.616-0.264c-0.176-0.176-0.264-0.382-0.264-0.616
		c0-0.249,0.088-0.458,0.264-0.627c0.176-0.169,0.381-0.253,0.616-0.253c0.249,0,0.458,0.084,0.627,0.253
		C41.065,63.052,41.149,63.261,41.149,63.51z"/>
	<path fill="#FFFFFF" d="M48.893,67.074l-0.176,1.077h-3.388l-0.99,5.742c-0.162,0.939-0.242,1.504-0.242,1.694
		c0,0.763,0.433,1.144,1.298,1.144c0.381,0,0.902-0.146,1.562-0.439l0.44,0.945c-0.851,0.426-1.599,0.639-2.244,0.639
		c-0.66,0-1.21-0.154-1.65-0.462c-0.514-0.367-0.77-0.88-0.77-1.54c0-0.19,0.081-0.756,0.242-1.694l1.034-6.028h-1.848l0.176-1.077
		h1.848l0.506-2.992h1.32l-0.506,2.992H48.893z"/>
	<path fill="#FFFFFF" d="M54.547,62.96c-0.044,1.247-0.653,2.457-1.826,3.63c-0.235,0.234-0.484,0.455-0.748,0.66l-0.748-0.748
		c1.026-0.997,1.606-2.178,1.738-3.542H54.547z"/>
	<path fill="#FFFFFF" d="M60.553,67.866l-0.704,0.88c-0.675-0.543-1.422-0.814-2.244-0.814c-0.836,0-1.482,0.228-1.936,0.683
		c-0.293,0.293-0.44,0.659-0.44,1.1c0,0.352,0.125,0.652,0.374,0.902c0.249,0.249,0.773,0.598,1.573,1.045s1.368,0.832,1.705,1.154
		c0.528,0.528,0.792,1.13,0.792,1.805c0,0.953-0.352,1.734-1.056,2.343c-0.704,0.608-1.665,0.913-2.882,0.913
		c-1.335,0-2.494-0.389-3.476-1.166l0.682-0.946c0.924,0.631,1.855,0.946,2.794,0.946c0.63,0,1.173-0.125,1.628-0.374
		c0.601-0.353,0.902-0.88,0.902-1.584c0-0.572-0.381-1.107-1.144-1.606c-0.719-0.425-1.438-0.851-2.156-1.275
		c-0.763-0.587-1.144-1.269-1.144-2.046c0-0.909,0.355-1.643,1.067-2.2s1.587-0.836,2.629-0.836
		C58.91,66.788,59.922,67.147,60.553,67.866z"/>
	<path fill="#FFFFFF" d="M74.611,67.866l-0.704,0.88c-0.675-0.543-1.422-0.814-2.244-0.814c-0.836,0-1.482,0.228-1.936,0.683
		c-0.293,0.293-0.44,0.659-0.44,1.1c0,0.352,0.125,0.652,0.374,0.902c0.249,0.249,0.773,0.598,1.573,1.045s1.368,0.832,1.705,1.154
		c0.528,0.528,0.792,1.13,0.792,1.805c0,0.953-0.352,1.734-1.056,2.343c-0.704,0.608-1.665,0.913-2.882,0.913
		c-1.335,0-2.494-0.389-3.476-1.166l0.682-0.946c0.924,0.631,1.855,0.946,2.794,0.946c0.63,0,1.173-0.125,1.628-0.374
		c0.601-0.353,0.902-0.88,0.902-1.584c0-0.572-0.381-1.107-1.144-1.606c-0.719-0.425-1.438-0.851-2.156-1.275
		c-0.763-0.587-1.144-1.269-1.144-2.046c0-0.909,0.355-1.643,1.067-2.2s1.587-0.836,2.629-0.836
		C72.968,66.788,73.98,67.147,74.611,67.866z"/>
	<path fill="#FFFFFF" d="M82.97,67.074l-0.176,1.077h-3.388l-0.99,5.742c-0.162,0.939-0.242,1.504-0.242,1.694
		c0,0.763,0.433,1.144,1.298,1.144c0.381,0,0.902-0.146,1.562-0.439l0.44,0.945c-0.851,0.426-1.599,0.639-2.244,0.639
		c-0.66,0-1.21-0.154-1.65-0.462c-0.514-0.367-0.77-0.88-0.77-1.54c0-0.19,0.081-0.756,0.242-1.694l1.034-6.028h-1.848l0.176-1.077
		h1.848l0.506-2.992h1.32l-0.506,2.992H82.97z"/>
	<path fill="#FFFFFF" d="M86.953,67.074l-1.804,10.56h-1.32l1.804-10.56H86.953z M87.767,63.51c0,0.234-0.084,0.44-0.253,0.616
		c-0.169,0.176-0.378,0.264-0.627,0.264c-0.235,0-0.44-0.088-0.616-0.264c-0.176-0.176-0.264-0.382-0.264-0.616
		c0-0.249,0.088-0.458,0.264-0.627c0.176-0.169,0.381-0.253,0.616-0.253c0.249,0,0.458,0.084,0.627,0.253
		C87.682,63.052,87.767,63.261,87.767,63.51z"/>
	<path fill="#FFFFFF" d="M92.233,61.794l-2.684,15.84h-1.32l2.684-15.84H92.233z"/>
	<path fill="#FFFFFF" d="M96.633,61.794l-2.684,15.84h-1.32l2.684-15.84H96.633z"/>
	<path fill="#FFFFFF" d="M111.834,67.777l-1.584,9.856h-1.21l0.198-1.166c-1.027,0.924-2.076,1.386-3.146,1.386
		c-1.086,0-1.958-0.377-2.618-1.133c-0.66-0.755-0.99-1.734-0.99-2.937c0-1.937,0.521-3.564,1.562-4.885
		c1.1-1.393,2.522-2.09,4.268-2.09C109.752,66.81,110.925,67.133,111.834,67.777z M110.427,68.504
		c-0.616-0.353-1.372-0.528-2.266-0.528c-1.291,0-2.336,0.543-3.135,1.628c-0.799,1.086-1.199,2.398-1.199,3.938
		c0,0.836,0.183,1.54,0.55,2.111c0.455,0.69,1.122,1.034,2.002,1.034c1.115,0,2.097-0.469,2.948-1.407L110.427,68.504z"/>
	<path fill="#FFFFFF" d="M128.664,67.074l-4.884,10.56h-1.628l-1.012-9.108l-4.18,9.108h-1.628l-1.144-10.56h1.364l0.902,9.107
		l4.158-9.107h1.628l1.012,9.107l4.048-9.107H128.664z"/>
	<path fill="#FFFFFF" d="M138.696,62.388l-0.748,0.858c-0.426-0.367-0.917-0.551-1.474-0.551c-0.675,0-1.225,0.213-1.65,0.639
		c-0.426,0.426-0.733,1.195-0.924,2.31l-0.242,1.431h3.388l-0.176,1.077h-3.388l-1.606,9.482h-1.32l1.606-9.482h-1.87l0.176-1.077
		h1.87l0.22-1.32c0.132-0.748,0.25-1.298,0.352-1.65c0.205-0.586,0.521-1.092,0.946-1.518c0.704-0.704,1.562-1.056,2.574-1.056
		C137.368,61.53,138.123,61.815,138.696,62.388z"/>
	<path fill="#FFFFFF" d="M147.298,67.074l-1.804,10.56h-1.166l0.198-1.122c-1.115,0.895-2.325,1.342-3.63,1.342
		c-0.91,0-1.636-0.227-2.178-0.682c-0.587-0.47-0.88-1.107-0.88-1.914c0-0.308,0.081-0.932,0.242-1.87l1.078-6.313h1.32
		l-1.078,6.115c-0.176,0.998-0.264,1.621-0.264,1.87c0,1.101,0.682,1.65,2.046,1.65c1.159,0,2.281-0.455,3.366-1.364l1.43-8.271
		H147.298z"/>
	<path fill="#FFFFFF" d="M152.599,61.794l-2.684,15.84h-1.32l2.684-15.84H152.599z"/>
</g>
<rect x="590.101" y="61.795" fill="none" width="131.334" height="20.896"/>
<g enable-background="new    ">
	<path fill="#FFFFFF" d="M600.115,62.96l-6.139,8.888l-0.968,5.786h-1.386l0.968-5.786l-3.19-8.888h1.519l2.64,7.546l5.104-7.546
		H600.115z"/>
	<path fill="#FFFFFF" d="M606.781,69.273c0,0.852-0.345,1.621-1.034,2.311c-1.188,1.188-3.417,1.885-6.688,2.09
		c0.029,0.909,0.318,1.643,0.869,2.2c0.55,0.558,1.294,0.836,2.232,0.836c0.807,0,1.701-0.271,2.685-0.814l0.571,0.924
		c-0.234,0.221-0.645,0.434-1.231,0.639c-0.733,0.278-1.452,0.418-2.156,0.418c-1.306,0-2.351-0.385-3.135-1.155
		c-0.784-0.77-1.177-1.822-1.177-3.157c0-1.848,0.568-3.436,1.705-4.763s2.57-1.991,4.301-1.991c0.865,0,1.591,0.221,2.178,0.66
		C606.487,67.91,606.781,68.512,606.781,69.273z M605.504,69.361c0-0.454-0.172-0.81-0.517-1.066s-0.78-0.385-1.309-0.385
		c-1.291,0-2.384,0.564-3.278,1.693c-0.733,0.924-1.166,1.937-1.298,3.036c0.895-0.044,1.833-0.198,2.815-0.462
		c1.379-0.366,2.361-0.843,2.949-1.43C605.291,70.322,605.504,69.86,605.504,69.361z"/>
	<path fill="#FFFFFF" d="M615.647,67.866l-0.704,0.88c-0.675-0.543-1.423-0.814-2.243-0.814c-0.836,0-1.482,0.228-1.937,0.683
		c-0.294,0.293-0.44,0.659-0.44,1.1c0,0.352,0.125,0.652,0.375,0.902c0.248,0.249,0.773,0.598,1.572,1.045s1.367,0.832,1.705,1.154
		c0.527,0.528,0.792,1.13,0.792,1.805c0,0.953-0.353,1.734-1.056,2.343c-0.704,0.608-1.665,0.913-2.883,0.913
		c-1.334,0-2.493-0.389-3.476-1.166l0.683-0.946c0.924,0.631,1.854,0.946,2.793,0.946c0.631,0,1.174-0.125,1.629-0.374
		c0.601-0.353,0.901-0.88,0.901-1.584c0-0.572-0.382-1.107-1.144-1.606c-0.719-0.425-1.438-0.851-2.156-1.275
		c-0.763-0.587-1.145-1.269-1.145-2.046c0-0.909,0.355-1.643,1.067-2.2s1.587-0.836,2.63-0.836
		C614.004,66.788,615.016,67.147,615.647,67.866z"/>
	<path fill="#FFFFFF" d="M619.211,75.962c-0.016,0.411-0.141,0.909-0.375,1.496c-0.352,0.865-0.879,1.649-1.584,2.354
		c-0.234,0.234-0.483,0.455-0.748,0.66l-0.703-0.704c1.085-1.041,1.693-2.31,1.826-3.806H619.211z"/>
	<path fill="#FFFFFF" d="M635.403,62.388l-0.748,0.858c-0.426-0.367-0.917-0.551-1.475-0.551c-0.674,0-1.225,0.213-1.649,0.639
		c-0.426,0.426-0.733,1.195-0.924,2.31l-0.242,1.431h3.388l-0.176,1.077h-3.389l-1.605,9.482h-1.32l1.606-9.482h-1.87l0.176-1.077
		h1.871l0.219-1.32c0.133-0.748,0.25-1.298,0.353-1.65c0.205-0.586,0.521-1.092,0.946-1.518c0.703-0.704,1.562-1.056,2.574-1.056
		C634.074,61.53,634.83,61.815,635.403,62.388z"/>
	<path fill="#FFFFFF" d="M643.124,67.777l-1.584,9.856h-1.21l0.198-1.166c-1.026,0.924-2.075,1.386-3.146,1.386
		c-1.086,0-1.959-0.377-2.619-1.133c-0.66-0.755-0.99-1.734-0.99-2.937c0-1.937,0.521-3.564,1.562-4.885
		c1.1-1.393,2.522-2.09,4.268-2.09C641.041,66.81,642.215,67.133,643.124,67.777z M641.717,68.504
		c-0.617-0.353-1.372-0.528-2.267-0.528c-1.291,0-2.336,0.543-3.136,1.628c-0.799,1.086-1.198,2.398-1.198,3.938
		c0,0.836,0.183,1.54,0.55,2.111c0.455,0.69,1.122,1.034,2.002,1.034c1.115,0,2.098-0.469,2.948-1.407L641.717,68.504z"/>
	<path fill="#FFFFFF" d="M654.895,67.074l-5.939,10.56h-1.562l-2.311-10.56h1.408l1.914,9.174l5.104-9.174H654.895z"/>
	<path fill="#FFFFFF" d="M665.168,71.034c0,1.833-0.521,3.402-1.562,4.708c-1.114,1.407-2.537,2.111-4.268,2.111
		c-1.203,0-2.17-0.381-2.904-1.144c-0.732-0.763-1.1-1.789-1.1-3.08c0-1.833,0.521-3.402,1.562-4.708
		c1.114-1.408,2.537-2.112,4.268-2.112c1.203,0,2.17,0.382,2.904,1.145C664.801,68.717,665.168,69.743,665.168,71.034z
		 M663.805,71.188c0-0.938-0.221-1.693-0.66-2.266c-0.484-0.646-1.182-0.968-2.09-0.968c-1.32,0-2.398,0.608-3.234,1.826
		c-0.748,1.07-1.122,2.303-1.122,3.695c0,0.939,0.22,1.694,0.66,2.267c0.483,0.646,1.181,0.968,2.09,0.968
		c1.319,0,2.397-0.608,3.233-1.826C663.43,73.813,663.805,72.581,663.805,71.188z"/>
	<path fill="#FFFFFF" d="M676.453,67.074l-1.804,10.56h-1.166l0.198-1.122c-1.115,0.895-2.324,1.342-3.63,1.342
		c-0.909,0-1.636-0.227-2.179-0.682c-0.586-0.47-0.879-1.107-0.879-1.914c0-0.308,0.08-0.932,0.241-1.87l1.078-6.313h1.32
		l-1.078,6.115c-0.177,0.998-0.265,1.621-0.265,1.87c0,1.101,0.683,1.65,2.047,1.65c1.158,0,2.28-0.455,3.365-1.364l1.431-8.271
		H676.453z"/>
	<path fill="#FFFFFF" d="M685.32,67.052l-0.44,1.1c-0.337-0.073-0.631-0.109-0.879-0.109c-1.35,0-2.582,0.777-3.697,2.332
		l-1.231,7.26h-1.319l1.781-10.56h1.254l-0.264,1.605c1.1-1.261,2.317-1.892,3.652-1.892C684.718,66.788,685.1,66.876,685.32,67.052
		z"/>
	<path fill="#FFFFFF" d="M694.471,67.777l-1.584,9.856h-1.209l0.197-1.166c-1.026,0.924-2.075,1.386-3.146,1.386
		c-1.086,0-1.958-0.377-2.618-1.133c-0.66-0.755-0.99-1.734-0.99-2.937c0-1.937,0.521-3.564,1.562-4.885
		c1.1-1.393,2.521-2.09,4.268-2.09C692.389,66.81,693.562,67.133,694.471,67.777z M693.064,68.504
		c-0.616-0.353-1.372-0.528-2.267-0.528c-1.291,0-2.336,0.543-3.135,1.628c-0.799,1.086-1.199,2.398-1.199,3.938
		c0,0.836,0.184,1.54,0.551,2.111c0.454,0.69,1.121,1.034,2.002,1.034c1.114,0,2.097-0.469,2.947-1.407L693.064,68.504z"/>
	<path fill="#FFFFFF" d="M705.67,70.88c0,1.862-0.506,3.462-1.519,4.796c-1.114,1.452-2.581,2.178-4.399,2.178
		c-1.336,0-2.633-0.308-3.895-0.924l2.553-15.136h1.319l-1.078,6.226c0.88-0.807,1.95-1.21,3.212-1.21
		c1.129,0,2.047,0.378,2.75,1.133C705.318,68.698,705.67,69.678,705.67,70.88z M704.306,71.034c0-0.909-0.242-1.646-0.726-2.211
		c-0.484-0.564-1.174-0.848-2.068-0.848c-1.012,0-2.031,0.448-3.059,1.342l-1.166,6.843c0.822,0.352,1.694,0.527,2.619,0.527
		c1.363,0,2.455-0.601,3.277-1.804C703.932,73.799,704.306,72.516,704.306,71.034z"/>
	<path fill="#FFFFFF" d="M711.125,61.794l-2.684,15.84h-1.32l2.685-15.84H711.125z"/>
	<path fill="#FFFFFF" d="M721.774,67.074l-6.094,11.308c-0.748,1.394-1.423,2.391-2.024,2.992c-0.836,0.836-1.819,1.254-2.948,1.254
		c-0.602,0-1.254-0.176-1.957-0.528l0.483-0.99c0.543,0.234,1.034,0.353,1.474,0.353c0.777,0,1.475-0.309,2.09-0.924
		c0.426-0.426,1.013-1.313,1.761-2.662l-2.509-10.802h1.408l2.09,9.174l4.84-9.174H721.774z"/>
</g>
<g enable-background="new    ">
	<path fill="#FFFFFF" d="M700.143,34.747h-3.75l-3.66-5.25l-3.6,5.25h-3.6l5.34-7.38l-5.04-7.26h3.78l3.359,4.77l3.24-4.77h3.48
		l-4.92,7.17L700.143,34.747z"/>
	<path fill="#FFFFFF" d="M717.813,27.967c0,2.101-0.66,3.825-1.98,5.175c-1.32,1.351-3.04,2.025-5.16,2.025
		c-2.439,0-4.35-0.97-5.729-2.91c-1.28-1.8-1.921-4.159-1.921-7.08c0-3.199,0.69-5.77,2.07-7.71c1.5-2.119,3.61-3.18,6.33-3.18
		c1.641,0,3.09,0.3,4.35,0.9c0.74,0.359,1.261,0.71,1.561,1.05l-1.47,2.22c-1.3-0.92-2.681-1.38-4.14-1.38
		c-1.841,0-3.23,0.65-4.17,1.95c-0.82,1.12-1.281,2.63-1.381,4.529c0,0.141,0,0.36,0,0.66c0.4-0.919,1.09-1.649,2.07-2.189
		c0.979-0.54,2.01-0.811,3.09-0.811c1.939,0,3.505,0.636,4.695,1.905C717.217,24.393,717.813,26.007,717.813,27.967z
		 M714.633,28.087c0-1.2-0.336-2.17-1.006-2.91c-0.67-0.739-1.574-1.109-2.715-1.109c-1.2,0-2.175,0.39-2.925,1.17
		c-0.75,0.779-1.125,1.76-1.125,2.939c0,1.221,0.37,2.216,1.11,2.985c0.739,0.771,1.689,1.155,2.85,1.155c1.14,0,2.06-0.4,2.76-1.2
		S714.633,29.308,714.633,28.087z"/>
</g>
</svg>
