<?xml version="1.0" encoding="utf-8"?>
<!-- Generator: Adobe Illustrator 16.0.4, SVG Export Plug-In . SVG Version: 6.00 Build 0)  -->
<!DOCTYPE svg PUBLIC "-//W3C//DTD SVG 1.1//EN" "http://www.w3.org/Graphics/SVG/1.1/DTD/svg11.dtd">
<svg version="1.1" id="Layer_1" xmlns="http://www.w3.org/2000/svg" xmlns:xlink="http://www.w3.org/1999/xlink" x="0px" y="0px"
	 width="724px" height="91.041px" viewBox="0 0 724 91.041" enable-background="new 0 0 724 91.041" xml:space="preserve">
<linearGradient id="SVGID_1_" gradientUnits="userSpaceOnUse" x1="1.3953" y1="-459.9609" x2="724.1663" y2="-459.9609" gradientTransform="matrix(1 0 0 -1 -0.1655 -413.3398)">
	<stop  offset="0" style="stop-color:#E53624"/>
	<stop  offset="1" style="stop-color:#4DAD3D"/>
</linearGradient>
<line fill="none" stroke="url(#SVGID_1_)" stroke-width="7" stroke-miterlimit="10" x1="1.23" y1="46.621" x2="724" y2="46.621"/>
<g>
	<path fill="none" stroke="#373773" stroke-width="1.5" stroke-linecap="round" stroke-linejoin="round" stroke-miterlimit="10" d="
		M656.096,20.735c-5.342,2.194-8.918,7.2-9.193,12.861l0.05,6.031c-0.021,1.543,0.688,3.01,1.915,3.977
		c0.585,0.549,1.453,0.689,2.188,0.359c0.081,0.809,0.548,1.533,1.259,1.955 M652.315,45.919c5.202,2.633,10.986,3.973,16.845,3.902
		c1.898-0.025,3.764-0.512,5.426-1.412c0.568,0.564,1.445,0.705,2.174,0.348c1.617-0.787,2.906-2.104,3.635-3.725V34.394
		c-0.297-5.586-3.871-10.499-9.168-12.605"/>
	<path fill="none" stroke="#555555" stroke-width="1.5" stroke-linecap="round" stroke-linejoin="round" stroke-miterlimit="10" d="
		M674.052,14.895c0-5.386-4.459-9.751-9.962-9.751s-9.963,4.365-9.963,9.751c0,5.385,4.46,9.75,9.963,9.75
		S674.052,20.279,674.052,14.895z"/>
	
		<path fill="#BBEF6F" stroke="#000000" stroke-width="1.5" stroke-linecap="round" stroke-linejoin="round" stroke-miterlimit="10" d="
		M656.096,20.735c-5.294,2.252-8.847,7.226-9.193,12.867l0.05,6.025c-0.021,1.543,0.688,3.01,1.915,3.977
		c0.585,0.549,1.453,0.689,2.188,0.359c0.081,0.809,0.548,1.533,1.259,1.955c5.202,2.634,10.986,3.974,16.845,3.901
		c1.898-0.024,3.764-0.512,5.426-1.411c0.568,0.563,1.445,0.704,2.174,0.348c1.617-0.786,2.904-2.104,3.635-3.725v-9.648
		c0.146-5.961-3.51-11.382-9.168-13.596l-0.084-0.004c3.887-3.817,3.875-9.993-0.023-13.795c-3.896-3.805-10.21-3.794-14.097,0.021
		C653.528,11.441,653.137,16.857,656.096,20.735z"/>
	<path fill="none" stroke="#555555" stroke-width="1.5" stroke-linecap="round" stroke-linejoin="round" stroke-miterlimit="10" d="
		M651.056,43.964c0.423-6.127,1.485-12.504,3.071-18.434"/>
	<path fill="none" stroke="#555555" stroke-width="1.5" stroke-linecap="round" stroke-linejoin="round" stroke-miterlimit="10" d="
		M674.585,48.411c-0.152-6.494-0.645-13.068-1.453-19.513"/>
	<path fill="none" stroke="#555555" stroke-width="1.5" stroke-linecap="round" stroke-linejoin="round" stroke-miterlimit="10" d="
		M656.117,20.571c3.309,4.316,9.563,5.193,13.976,1.956c0.379-0.277,0.736-0.58,1.07-0.909"/>
</g>
<rect x="1" y="61.794" fill="none" width="131.333" height="20.895"/>
<g enable-background="new    ">
	<path fill="#FFFFFF" d="M22.098,62.96l-5.83,14.674h-1.936L13.078,64.06L7.446,77.634H5.51L4.344,62.96h1.452l0.858,13.53
		l5.588-13.53h2.024l1.254,13.53l5.192-13.53H22.098z"/>
	<path fill="#FFFFFF" d="M31.03,71.034c0,1.833-0.521,3.402-1.562,4.708c-1.115,1.407-2.538,2.111-4.268,2.111
		c-1.203,0-2.171-0.381-2.904-1.144s-1.1-1.789-1.1-3.08c0-1.833,0.521-3.402,1.562-4.708c1.115-1.408,2.538-2.112,4.268-2.112
		c1.203,0,2.17,0.382,2.904,1.145C30.663,68.717,31.03,69.743,31.03,71.034z M29.666,71.188c0-0.938-0.22-1.693-0.66-2.266
		c-0.484-0.646-1.181-0.968-2.09-0.968c-1.32,0-2.398,0.608-3.234,1.826c-0.748,1.07-1.122,2.303-1.122,3.695
		c0,0.939,0.22,1.694,0.66,2.267c0.484,0.646,1.18,0.968,2.09,0.968c1.32,0,2.398-0.608,3.234-1.826
		C29.292,73.813,29.666,72.581,29.666,71.188z"/>
	<path fill="#FFFFFF" d="M40.072,67.052l-0.44,1.1c-0.337-0.073-0.631-0.109-0.88-0.109c-1.35,0-2.582,0.777-3.696,2.332
		l-1.232,7.26h-1.32l1.782-10.56h1.254l-0.264,1.605c1.1-1.261,2.317-1.892,3.652-1.892C39.47,66.788,39.852,66.876,40.072,67.052z"
		/>
	<path fill="#FFFFFF" d="M47.463,67.866l-0.704,0.88c-0.675-0.543-1.422-0.814-2.244-0.814c-0.836,0-1.482,0.228-1.936,0.683
		c-0.293,0.293-0.44,0.659-0.44,1.1c0,0.352,0.125,0.652,0.374,0.902c0.249,0.249,0.773,0.598,1.573,1.045s1.368,0.832,1.705,1.154
		c0.528,0.528,0.792,1.13,0.792,1.805c0,0.953-0.352,1.734-1.056,2.343c-0.704,0.608-1.665,0.913-2.882,0.913
		c-1.335,0-2.494-0.389-3.476-1.166l0.682-0.946c0.924,0.631,1.855,0.946,2.794,0.946c0.63,0,1.173-0.125,1.628-0.374
		c0.601-0.353,0.902-0.88,0.902-1.584c0-0.572-0.381-1.107-1.144-1.606c-0.719-0.425-1.438-0.851-2.156-1.275
		c-0.763-0.587-1.144-1.269-1.144-2.046c0-0.909,0.355-1.643,1.067-2.2s1.587-0.836,2.629-0.836
		C45.821,66.788,46.832,67.147,47.463,67.866z"/>
	<path fill="#FFFFFF" d="M57.891,69.273c0,0.852-0.345,1.621-1.034,2.311c-1.188,1.188-3.417,1.885-6.688,2.09
		c0.029,0.909,0.319,1.643,0.869,2.2c0.55,0.558,1.294,0.836,2.233,0.836c0.806,0,1.701-0.271,2.684-0.814l0.572,0.924
		c-0.235,0.221-0.646,0.434-1.232,0.639c-0.734,0.278-1.452,0.418-2.156,0.418c-1.305,0-2.351-0.385-3.135-1.155
		c-0.785-0.77-1.177-1.822-1.177-3.157c0-1.848,0.568-3.436,1.705-4.763s2.57-1.991,4.301-1.991c0.865,0,1.591,0.221,2.178,0.66
		C57.597,67.91,57.891,68.512,57.891,69.273z M56.615,69.361c0-0.454-0.172-0.81-0.517-1.066s-0.781-0.385-1.309-0.385
		c-1.291,0-2.384,0.564-3.278,1.693c-0.733,0.924-1.166,1.937-1.298,3.036c0.895-0.044,1.833-0.198,2.816-0.462
		c1.378-0.366,2.361-0.843,2.948-1.43C56.402,70.322,56.615,69.86,56.615,69.361z"/>
</g>
<rect x="590.101" y="61.795" fill="none" width="131.334" height="20.896"/>
<g enable-background="new    ">
	<path fill="#FFFFFF" d="M675.803,66.128c0,1.379-0.507,2.449-1.519,3.212c-0.484,0.367-1.042,0.623-1.673,0.77
		c1.717,0.294,2.574,1.276,2.574,2.948c0,1.218-0.432,2.259-1.297,3.124c-0.969,0.968-2.772,1.452-5.412,1.452h-3.19l2.464-14.674
		h3.234c1.012,0,1.773,0.052,2.287,0.154c0.705,0.146,1.254,0.418,1.65,0.813C675.508,64.515,675.803,65.248,675.803,66.128z
		 M673.712,73.322c0-0.748-0.213-1.335-0.638-1.761c-0.528-0.527-1.394-0.792-2.596-0.792h-2.641l-0.945,5.698h2.067
		c1.849,0,3.124-0.352,3.828-1.056C673.405,74.796,673.712,74.1,673.712,73.322z M674.372,66.282c0-0.66-0.177-1.166-0.528-1.519
		c-0.439-0.439-1.32-0.66-2.64-0.66h-2.222l-0.946,5.522h2.09c1.54,0,2.647-0.338,3.322-1.012
		C674.065,67.998,674.372,67.221,674.372,66.282z"/>
	<path fill="#FFFFFF" d="M686.384,69.273c0,0.852-0.345,1.621-1.034,2.311c-1.188,1.188-3.417,1.885-6.688,2.09
		c0.029,0.909,0.318,1.643,0.869,2.2c0.55,0.558,1.294,0.836,2.232,0.836c0.807,0,1.701-0.271,2.685-0.814l0.571,0.924
		c-0.234,0.221-0.645,0.434-1.231,0.639c-0.733,0.278-1.452,0.418-2.156,0.418c-1.306,0-2.351-0.385-3.135-1.155
		c-0.784-0.77-1.177-1.822-1.177-3.157c0-1.848,0.568-3.436,1.705-4.763s2.57-1.991,4.301-1.991c0.865,0,1.591,0.221,2.178,0.66
		C686.09,67.91,686.384,68.512,686.384,69.273z M685.108,69.361c0-0.454-0.172-0.81-0.517-1.066s-0.78-0.385-1.309-0.385
		c-1.291,0-2.384,0.564-3.278,1.693c-0.733,0.924-1.166,1.937-1.298,3.036c0.895-0.044,1.833-0.198,2.815-0.462
		c1.379-0.366,2.361-0.843,2.949-1.43C684.895,70.322,685.108,69.86,685.108,69.361z"/>
	<path fill="#FFFFFF" d="M694.722,67.074l-0.176,1.077h-3.388l-0.99,5.742c-0.162,0.939-0.242,1.504-0.242,1.694
		c0,0.763,0.433,1.144,1.299,1.144c0.381,0,0.901-0.146,1.562-0.439l0.44,0.945c-0.852,0.426-1.6,0.639-2.244,0.639
		c-0.66,0-1.211-0.154-1.65-0.462c-0.514-0.367-0.77-0.88-0.77-1.54c0-0.19,0.08-0.756,0.241-1.694l1.034-6.028h-1.848l0.176-1.077
		h1.848l0.506-2.992h1.32l-0.506,2.992H694.722z"/>
	<path fill="#FFFFFF" d="M702.862,67.074l-0.176,1.077h-3.388l-0.989,5.742c-0.162,0.939-0.242,1.504-0.242,1.694
		c0,0.763,0.432,1.144,1.298,1.144c0.381,0,0.901-0.146,1.562-0.439l0.44,0.945c-0.851,0.426-1.599,0.639-2.244,0.639
		c-0.66,0-1.21-0.154-1.649-0.462c-0.514-0.367-0.771-0.88-0.771-1.54c0-0.19,0.081-0.756,0.241-1.694l1.035-6.028h-1.849
		l0.177-1.077h1.848l0.506-2.992h1.32l-0.506,2.992H702.862z"/>
	<path fill="#FFFFFF" d="M712.52,69.273c0,0.852-0.345,1.621-1.033,2.311c-1.188,1.188-3.418,1.885-6.688,2.09
		c0.029,0.909,0.319,1.643,0.868,2.2c0.551,0.558,1.295,0.836,2.234,0.836c0.806,0,1.701-0.271,2.684-0.814l0.572,0.924
		c-0.235,0.221-0.646,0.434-1.232,0.639c-0.734,0.278-1.452,0.418-2.156,0.418c-1.305,0-2.351-0.385-3.135-1.155
		c-0.785-0.77-1.178-1.822-1.178-3.157c0-1.848,0.568-3.436,1.705-4.763s2.57-1.991,4.302-1.991c0.865,0,1.591,0.221,2.178,0.66
		C712.227,67.91,712.52,68.512,712.52,69.273z M711.244,69.361c0-0.454-0.173-0.81-0.518-1.066s-0.781-0.385-1.309-0.385
		c-1.291,0-2.384,0.564-3.278,1.693c-0.733,0.924-1.166,1.937-1.298,3.036c0.895-0.044,1.833-0.198,2.816-0.462
		c1.378-0.366,2.361-0.843,2.947-1.43C711.031,70.322,711.244,69.86,711.244,69.361z"/>
	<path fill="#FFFFFF" d="M721.364,67.052l-0.439,1.1c-0.338-0.073-0.631-0.109-0.88-0.109c-1.35,0-2.581,0.777-3.696,2.332
		l-1.232,7.26h-1.319l1.782-10.56h1.254l-0.264,1.605c1.1-1.261,2.316-1.892,3.651-1.892
		C720.762,66.788,721.145,66.876,721.364,67.052z"/>
</g>
<g enable-background="new    ">
	<path fill="#FFFFFF" d="M700.143,34.747h-3.75l-3.66-5.25l-3.6,5.25h-3.6l5.34-7.38l-5.04-7.26h3.78l3.359,4.77l3.24-4.77h3.48
		l-4.92,7.17L700.143,34.747z"/>
	<path fill="#FFFFFF" d="M718.022,30.547h-2.549v4.2h-3.24v-4.2h-9.721v-2.46l9.57-13.35h3.391v13.02h2.549V30.547z M712.233,27.757
		v-8.79l-6.12,8.79H712.233z"/>
</g>
<g enable-background="new    ">
	<path fill="#FFFFFF" d="M267.906,62.96l-2.464,14.674h-1.562l-5.192-12.606l-2.09,12.606h-1.32l2.464-14.674h1.496l5.258,12.716
		l2.09-12.716H267.906z"/>
	<path fill="#FFFFFF" d="M278.862,71.034c0,1.833-0.521,3.402-1.562,4.708c-1.115,1.407-2.538,2.111-4.268,2.111
		c-1.203,0-2.171-0.381-2.904-1.144s-1.1-1.789-1.1-3.08c0-1.833,0.521-3.402,1.562-4.708c1.115-1.408,2.538-2.112,4.268-2.112
		c1.203,0,2.17,0.382,2.904,1.145C278.495,68.717,278.862,69.743,278.862,71.034z M277.498,71.188c0-0.938-0.22-1.693-0.66-2.266
		c-0.484-0.646-1.181-0.968-2.09-0.968c-1.32,0-2.398,0.608-3.234,1.826c-0.748,1.07-1.122,2.303-1.122,3.695
		c0,0.939,0.22,1.694,0.66,2.267c0.484,0.646,1.18,0.968,2.09,0.968c1.32,0,2.398-0.608,3.234-1.826
		C277.124,73.813,277.498,72.581,277.498,71.188z"/>
	<path fill="#FFFFFF" d="M295.076,69.406c0,0.293-0.081,0.916-0.242,1.869l-1.078,6.358h-1.32l1.078-6.16
		c0.176-1.012,0.264-1.635,0.264-1.87c0-1.1-0.682-1.649-2.046-1.649c-1.159,0-2.281,0.454-3.366,1.363l-1.43,8.316h-1.32
		l1.804-10.56h1.254l-0.176,0.989c1.144-0.836,2.317-1.254,3.52-1.254c0.909,0,1.646,0.231,2.211,0.693S295.076,68.6,295.076,69.406
		z"/>
	<path fill="#FFFFFF" d="M306.736,71.034c0,1.833-0.521,3.402-1.562,4.708c-1.115,1.407-2.538,2.111-4.268,2.111
		c-1.203,0-2.171-0.381-2.904-1.144s-1.1-1.789-1.1-3.08c0-1.833,0.521-3.402,1.562-4.708c1.115-1.408,2.538-2.112,4.268-2.112
		c1.203,0,2.17,0.382,2.904,1.145C306.369,68.717,306.736,69.743,306.736,71.034z M305.372,71.188c0-0.938-0.22-1.693-0.66-2.266
		c-0.484-0.646-1.181-0.968-2.09-0.968c-1.32,0-2.398,0.608-3.234,1.826c-0.748,1.07-1.122,2.303-1.122,3.695
		c0,0.939,0.22,1.694,0.66,2.267c0.484,0.646,1.18,0.968,2.09,0.968c1.32,0,2.398-0.608,3.234-1.826
		C304.998,73.813,305.372,72.581,305.372,71.188z"/>
	<path fill="#FFFFFF" d="M315.117,67.074l-0.176,1.077h-3.388l-0.99,5.742c-0.162,0.939-0.242,1.504-0.242,1.694
		c0,0.763,0.433,1.144,1.298,1.144c0.381,0,0.902-0.146,1.562-0.439l0.44,0.945c-0.851,0.426-1.599,0.639-2.244,0.639
		c-0.66,0-1.21-0.154-1.65-0.462c-0.514-0.367-0.77-0.88-0.77-1.54c0-0.19,0.081-0.756,0.242-1.694l1.034-6.028h-1.848l0.176-1.077
		h1.848l0.506-2.992h1.32l-0.506,2.992H315.117z"/>
	<path fill="#FFFFFF" d="M319.099,67.074l-1.804,10.56h-1.32l1.804-10.56H319.099z M319.913,63.51c0,0.234-0.084,0.44-0.253,0.616
		c-0.169,0.176-0.378,0.264-0.627,0.264c-0.235,0-0.44-0.088-0.616-0.264c-0.176-0.176-0.264-0.382-0.264-0.616
		c0-0.249,0.088-0.458,0.264-0.627c0.176-0.169,0.381-0.253,0.616-0.253c0.249,0,0.458,0.084,0.627,0.253
		C319.829,63.052,319.913,63.261,319.913,63.51z"/>
	<path fill="#FFFFFF" d="M329.791,68.107l-0.748,0.814c-0.836-0.631-1.702-0.946-2.596-0.946c-1.364,0-2.486,0.587-3.366,1.76
		c-0.792,1.057-1.188,2.281-1.188,3.675c0,0.997,0.275,1.789,0.825,2.376c0.55,0.587,1.302,0.88,2.255,0.88
		c0.88,0,1.848-0.315,2.904-0.946l0.594,0.924c-0.235,0.221-0.616,0.448-1.144,0.683c-0.807,0.352-1.643,0.527-2.508,0.527
		c-1.291,0-2.329-0.385-3.113-1.154c-0.785-0.771-1.177-1.815-1.177-3.136c0-1.804,0.528-3.358,1.584-4.664
		c1.115-1.393,2.53-2.09,4.246-2.09C327.958,66.81,329.102,67.242,329.791,68.107z"/>
	<path fill="#FFFFFF" d="M339.295,69.273c0,0.852-0.345,1.621-1.034,2.311c-1.188,1.188-3.417,1.885-6.688,2.09
		c0.029,0.909,0.319,1.643,0.869,2.2c0.55,0.558,1.294,0.836,2.233,0.836c0.806,0,1.701-0.271,2.684-0.814l0.572,0.924
		c-0.235,0.221-0.646,0.434-1.232,0.639c-0.734,0.278-1.452,0.418-2.156,0.418c-1.305,0-2.351-0.385-3.135-1.155
		c-0.785-0.77-1.177-1.822-1.177-3.157c0-1.848,0.568-3.436,1.705-4.763s2.57-1.991,4.301-1.991c0.865,0,1.591,0.221,2.178,0.66
		C339.002,67.91,339.295,68.512,339.295,69.273z M338.019,69.361c0-0.454-0.172-0.81-0.517-1.066s-0.781-0.385-1.309-0.385
		c-1.291,0-2.384,0.564-3.278,1.693c-0.733,0.924-1.166,1.937-1.298,3.036c0.895-0.044,1.833-0.198,2.816-0.462
		c1.378-0.366,2.361-0.843,2.948-1.43C337.806,70.322,338.019,69.86,338.019,69.361z"/>
	<path fill="#FFFFFF" d="M350.097,67.777l-1.584,9.856h-1.21l0.198-1.166c-1.027,0.924-2.076,1.386-3.146,1.386
		c-1.086,0-1.958-0.377-2.618-1.133c-0.66-0.755-0.99-1.734-0.99-2.937c0-1.937,0.521-3.564,1.562-4.885
		c1.1-1.393,2.522-2.09,4.268-2.09C348.014,66.81,349.187,67.133,350.097,67.777z M348.689,68.504
		c-0.616-0.353-1.372-0.528-2.266-0.528c-1.291,0-2.336,0.543-3.135,1.628c-0.799,1.086-1.199,2.398-1.199,3.938
		c0,0.836,0.183,1.54,0.55,2.111c0.455,0.69,1.122,1.034,2.002,1.034c1.115,0,2.097-0.469,2.948-1.407L348.689,68.504z"/>
	<path fill="#FFFFFF" d="M361.295,70.88c0,1.862-0.506,3.462-1.518,4.796c-1.115,1.452-2.582,2.178-4.4,2.178
		c-1.335,0-2.633-0.308-3.894-0.924l2.552-15.136h1.32l-1.078,6.226c0.88-0.807,1.951-1.21,3.212-1.21
		c1.129,0,2.046,0.378,2.75,1.133C360.943,68.698,361.295,69.678,361.295,70.88z M359.931,71.034c0-0.909-0.242-1.646-0.726-2.211
		s-1.174-0.848-2.068-0.848c-1.012,0-2.032,0.448-3.058,1.342l-1.166,6.843c0.821,0.352,1.694,0.527,2.618,0.527
		c1.364,0,2.456-0.601,3.278-1.804C359.557,73.799,359.931,72.516,359.931,71.034z"/>
	<path fill="#FFFFFF" d="M366.751,61.794l-2.685,15.84h-1.319l2.684-15.84H366.751z"/>
	<path fill="#FFFFFF" d="M376.387,69.273c0,0.852-0.345,1.621-1.034,2.311c-1.188,1.188-3.417,1.885-6.688,2.09
		c0.029,0.909,0.318,1.643,0.868,2.2c0.551,0.558,1.295,0.836,2.233,0.836c0.807,0,1.701-0.271,2.685-0.814l0.571,0.924
		c-0.234,0.221-0.646,0.434-1.231,0.639c-0.734,0.278-1.452,0.418-2.156,0.418c-1.306,0-2.351-0.385-3.135-1.155
		c-0.785-0.77-1.178-1.822-1.178-3.157c0-1.848,0.568-3.436,1.705-4.763s2.57-1.991,4.302-1.991c0.865,0,1.591,0.221,2.178,0.66
		C376.093,67.91,376.387,68.512,376.387,69.273z M375.111,69.361c0-0.454-0.172-0.81-0.517-1.066s-0.781-0.385-1.309-0.385
		c-1.291,0-2.384,0.564-3.278,1.693c-0.733,0.924-1.166,1.937-1.298,3.036c0.895-0.044,1.833-0.198,2.815-0.462
		c1.379-0.366,2.361-0.843,2.948-1.43C374.898,70.322,375.111,69.86,375.111,69.361z"/>
	<path fill="#FFFFFF" d="M393.943,61.794l-2.685,15.84h-1.166l0.198-1.166c-0.982,0.924-2.112,1.386-3.388,1.386
		c-1.13,0-2.046-0.377-2.75-1.133c-0.704-0.755-1.057-1.734-1.057-2.937c0-1.863,0.521-3.469,1.562-4.818
		c1.114-1.438,2.53-2.156,4.246-2.156c1.144,0,2.046,0.33,2.706,0.99l1.012-6.006H393.943z M391.39,69.032
		c-0.646-0.704-1.511-1.057-2.596-1.057c-1.335,0-2.413,0.609-3.233,1.826c-0.734,1.1-1.101,2.376-1.101,3.828
		c0,0.909,0.234,1.636,0.704,2.178c0.498,0.587,1.195,0.88,2.09,0.88c0.968,0,1.987-0.447,3.059-1.342L391.39,69.032z"/>
	<path fill="#FFFFFF" d="M397.462,67.074l-1.804,10.56h-1.32l1.805-10.56H397.462z M398.277,63.51c0,0.234-0.085,0.44-0.253,0.616
		c-0.169,0.176-0.378,0.264-0.627,0.264c-0.235,0-0.44-0.088-0.616-0.264s-0.265-0.382-0.265-0.616c0-0.249,0.089-0.458,0.265-0.627
		s0.381-0.253,0.616-0.253c0.249,0,0.458,0.084,0.627,0.253C398.192,63.052,398.277,63.261,398.277,63.51z"/>
	<path fill="#FFFFFF" d="M407.714,62.388l-0.748,0.858c-0.426-0.367-0.917-0.551-1.474-0.551c-0.675,0-1.225,0.213-1.65,0.639
		s-0.733,1.195-0.924,2.31l-0.242,1.431h3.389l-0.177,1.077H402.5l-1.606,9.482h-1.319l1.605-9.482h-1.87l0.177-1.077h1.87
		l0.22-1.32c0.132-0.748,0.249-1.298,0.352-1.65c0.205-0.586,0.521-1.092,0.946-1.518c0.704-0.704,1.562-1.056,2.574-1.056
		C406.387,61.53,407.142,61.815,407.714,62.388z"/>
	<path fill="#FFFFFF" d="M415.7,62.388l-0.748,0.858c-0.426-0.367-0.917-0.551-1.475-0.551c-0.675,0-1.225,0.213-1.649,0.639
		c-0.426,0.426-0.733,1.195-0.924,2.31l-0.242,1.431h3.388l-0.176,1.077h-3.389l-1.605,9.482h-1.32l1.606-9.482h-1.87l0.176-1.077
		h1.87l0.22-1.32c0.132-0.748,0.25-1.298,0.353-1.65c0.205-0.586,0.521-1.092,0.945-1.518c0.704-0.704,1.562-1.056,2.574-1.056
		C414.372,61.53,415.128,61.815,415.7,62.388z"/>
	<path fill="#FFFFFF" d="M423.004,69.273c0,0.852-0.345,1.621-1.034,2.311c-1.188,1.188-3.417,1.885-6.688,2.09
		c0.029,0.909,0.318,1.643,0.868,2.2c0.551,0.558,1.295,0.836,2.233,0.836c0.807,0,1.701-0.271,2.685-0.814l0.571,0.924
		c-0.234,0.221-0.646,0.434-1.231,0.639c-0.734,0.278-1.452,0.418-2.156,0.418c-1.306,0-2.351-0.385-3.135-1.155
		c-0.785-0.77-1.178-1.822-1.178-3.157c0-1.848,0.568-3.436,1.705-4.763s2.57-1.991,4.302-1.991c0.865,0,1.591,0.221,2.178,0.66
		C422.71,67.91,423.004,68.512,423.004,69.273z M421.728,69.361c0-0.454-0.172-0.81-0.517-1.066s-0.781-0.385-1.309-0.385
		c-1.291,0-2.384,0.564-3.278,1.693c-0.733,0.924-1.166,1.937-1.298,3.036c0.895-0.044,1.833-0.198,2.815-0.462
		c1.379-0.366,2.361-0.843,2.948-1.43C421.515,70.322,421.728,69.86,421.728,69.361z"/>
	<path fill="#FFFFFF" d="M431.848,67.052l-0.439,1.1c-0.338-0.073-0.631-0.109-0.88-0.109c-1.35,0-2.582,0.777-3.696,2.332
		l-1.232,7.26h-1.319l1.781-10.56h1.255l-0.265,1.605c1.101-1.261,2.317-1.892,3.652-1.892
		C431.246,66.788,431.628,66.876,431.848,67.052z"/>
	<path fill="#FFFFFF" d="M440.538,69.273c0,0.852-0.345,1.621-1.034,2.311c-1.188,1.188-3.417,1.885-6.688,2.09
		c0.029,0.909,0.318,1.643,0.868,2.2c0.551,0.558,1.295,0.836,2.233,0.836c0.807,0,1.701-0.271,2.685-0.814l0.571,0.924
		c-0.234,0.221-0.646,0.434-1.231,0.639c-0.734,0.278-1.452,0.418-2.156,0.418c-1.306,0-2.351-0.385-3.135-1.155
		c-0.785-0.77-1.178-1.822-1.178-3.157c0-1.848,0.568-3.436,1.705-4.763s2.57-1.991,4.302-1.991c0.865,0,1.591,0.221,2.178,0.66
		C440.244,67.91,440.538,68.512,440.538,69.273z M439.262,69.361c0-0.454-0.172-0.81-0.517-1.066s-0.781-0.385-1.309-0.385
		c-1.291,0-2.384,0.564-3.278,1.693c-0.733,0.924-1.166,1.937-1.298,3.036c0.895-0.044,1.833-0.198,2.815-0.462
		c1.379-0.366,2.361-0.843,2.948-1.43C439.049,70.322,439.262,69.86,439.262,69.361z"/>
	<path fill="#FFFFFF" d="M451.274,69.406c0,0.293-0.08,0.916-0.242,1.869l-1.077,6.358h-1.32l1.078-6.16
		c0.176-1.012,0.264-1.635,0.264-1.87c0-1.1-0.682-1.649-2.046-1.649c-1.159,0-2.281,0.454-3.366,1.363l-1.43,8.316h-1.32
		l1.805-10.56h1.254l-0.177,0.989c1.145-0.836,2.317-1.254,3.521-1.254c0.909,0,1.646,0.231,2.211,0.693
		S451.274,68.6,451.274,69.406z"/>
	<path fill="#FFFFFF" d="M462.34,68.107l-0.748,0.814c-0.836-0.631-1.702-0.946-2.597-0.946c-1.363,0-2.485,0.587-3.365,1.76
		c-0.792,1.057-1.188,2.281-1.188,3.675c0,0.997,0.275,1.789,0.825,2.376s1.302,0.88,2.255,0.88c0.88,0,1.848-0.315,2.904-0.946
		l0.594,0.924c-0.234,0.221-0.616,0.448-1.144,0.683c-0.808,0.352-1.644,0.527-2.509,0.527c-1.29,0-2.328-0.385-3.112-1.154
		c-0.785-0.771-1.178-1.815-1.178-3.136c0-1.804,0.528-3.358,1.584-4.664c1.115-1.393,2.53-2.09,4.246-2.09
		C460.506,66.81,461.651,67.242,462.34,68.107z"/>
	<path fill="#FFFFFF" d="M471.844,69.273c0,0.852-0.345,1.621-1.034,2.311c-1.188,1.188-3.417,1.885-6.688,2.09
		c0.029,0.909,0.318,1.643,0.868,2.2c0.551,0.558,1.295,0.836,2.233,0.836c0.807,0,1.701-0.271,2.685-0.814l0.571,0.924
		c-0.234,0.221-0.646,0.434-1.231,0.639c-0.734,0.278-1.452,0.418-2.156,0.418c-1.306,0-2.351-0.385-3.135-1.155
		c-0.785-0.77-1.178-1.822-1.178-3.157c0-1.848,0.568-3.436,1.705-4.763s2.57-1.991,4.302-1.991c0.865,0,1.591,0.221,2.178,0.66
		C471.55,67.91,471.844,68.512,471.844,69.273z M470.568,69.361c0-0.454-0.172-0.81-0.517-1.066s-0.781-0.385-1.309-0.385
		c-1.291,0-2.384,0.564-3.278,1.693c-0.733,0.924-1.166,1.937-1.298,3.036c0.895-0.044,1.833-0.198,2.815-0.462
		c1.379-0.366,2.361-0.843,2.948-1.43C470.355,70.322,470.568,69.86,470.568,69.361z"/>
</g>
<g>
	<g>
		
			<path fill="none" stroke="#373773" stroke-width="1.5" stroke-linecap="round" stroke-linejoin="round" stroke-miterlimit="10" d="
			M326.56,20.735c-5.342,2.193-8.918,7.199-9.193,12.861l0.05,6.03c-0.021,1.543,0.688,3.011,1.915,3.978
			c0.585,0.549,1.453,0.688,2.188,0.358c0.081,0.81,0.548,1.533,1.259,1.955 M322.779,45.919c5.202,2.633,10.986,3.974,16.845,3.903
			c1.898-0.025,3.764-0.512,5.426-1.413c0.568,0.564,1.445,0.705,2.174,0.348c1.617-0.787,2.906-2.104,3.635-3.725V34.394
			c-0.297-5.586-3.871-10.498-9.168-12.604"/>
		
			<path fill="none" stroke="#555555" stroke-width="1.5" stroke-linecap="round" stroke-linejoin="round" stroke-miterlimit="10" d="
			M344.516,14.896c0-5.387-4.459-9.751-9.962-9.751s-9.963,4.364-9.963,9.751c0,5.385,4.46,9.75,9.963,9.75
			S344.516,20.279,344.516,14.896z"/>
		
			<path fill="#BBEF6F" stroke="#000000" stroke-width="1.5" stroke-linecap="round" stroke-linejoin="round" stroke-miterlimit="10" d="
			M326.56,20.735c-5.294,2.252-8.847,7.226-9.193,12.867l0.05,6.024c-0.021,1.543,0.688,3.011,1.915,3.978
			c0.585,0.549,1.453,0.688,2.188,0.358c0.081,0.81,0.548,1.533,1.259,1.955c5.202,2.634,10.986,3.975,16.845,3.902
			c1.898-0.025,3.764-0.512,5.426-1.412c0.568,0.563,1.445,0.704,2.174,0.348c1.617-0.786,2.904-2.104,3.635-3.726v-9.647
			c0.146-5.961-3.51-11.382-9.168-13.596l-0.084-0.004c3.887-3.817,3.875-9.993-0.023-13.795c-3.896-3.805-10.21-3.794-14.097,0.021
			C323.992,11.441,323.601,16.857,326.56,20.735z"/>
		
			<path fill="none" stroke="#555555" stroke-width="1.5" stroke-linecap="round" stroke-linejoin="round" stroke-miterlimit="10" d="
			M321.52,43.964c0.423-6.127,1.485-12.504,3.071-18.434"/>
		
			<path fill="none" stroke="#555555" stroke-width="1.5" stroke-linecap="round" stroke-linejoin="round" stroke-miterlimit="10" d="
			M345.05,48.411c-0.152-6.494-0.645-13.068-1.453-19.514"/>
		
			<path fill="none" stroke="#555555" stroke-width="1.5" stroke-linecap="round" stroke-linejoin="round" stroke-miterlimit="10" d="
			M326.582,20.571c3.309,4.316,9.563,5.193,13.976,1.955c0.379-0.276,0.736-0.58,1.07-0.908"/>
	</g>
	<g>
		
			<path fill="none" stroke="#373773" stroke-width="1.5" stroke-linecap="round" stroke-linejoin="round" stroke-miterlimit="10" d="
			M383.56,20.734c-5.342,2.194-8.918,7.2-9.193,12.862l0.05,6.03c-0.021,1.543,0.688,3.011,1.915,3.978
			c0.585,0.549,1.453,0.688,2.188,0.358c0.081,0.81,0.548,1.533,1.259,1.955 M379.779,45.919c5.202,2.633,10.986,3.973,16.845,3.902
			c1.898-0.025,3.764-0.512,5.426-1.412c0.568,0.564,1.445,0.705,2.174,0.348c1.617-0.787,2.906-2.104,3.635-3.725V34.394
			c-0.297-5.586-3.871-10.498-9.168-12.604"/>
		
			<path fill="none" stroke="#555555" stroke-width="1.5" stroke-linecap="round" stroke-linejoin="round" stroke-miterlimit="10" d="
			M401.516,14.896c0-5.387-4.459-9.751-9.962-9.751s-9.963,4.364-9.963,9.751c0,5.385,4.46,9.75,9.963,9.75
			S401.516,20.279,401.516,14.896z"/>
		
			<path fill="#BBEF6F" stroke="#000000" stroke-width="1.5" stroke-linecap="round" stroke-linejoin="round" stroke-miterlimit="10" d="
			M383.56,20.734c-5.294,2.253-8.847,7.227-9.193,12.868l0.05,6.024c-0.021,1.543,0.688,3.011,1.915,3.978
			c0.585,0.549,1.453,0.688,2.188,0.358c0.081,0.81,0.548,1.533,1.259,1.955c5.202,2.634,10.986,3.974,16.845,3.901
			c1.898-0.024,3.764-0.512,5.426-1.411c0.568,0.563,1.445,0.704,2.174,0.348c1.617-0.786,2.904-2.104,3.635-3.726v-9.647
			c0.146-5.961-3.51-11.382-9.168-13.596l-0.084-0.004c3.887-3.817,3.875-9.993-0.023-13.795c-3.896-3.805-10.21-3.794-14.097,0.021
			C380.991,11.441,380.601,16.857,383.56,20.734z"/>
		
			<path fill="none" stroke="#555555" stroke-width="1.5" stroke-linecap="round" stroke-linejoin="round" stroke-miterlimit="10" d="
			M378.52,43.964c0.423-6.127,1.485-12.504,3.071-18.434"/>
		
			<path fill="none" stroke="#555555" stroke-width="1.5" stroke-linecap="round" stroke-linejoin="round" stroke-miterlimit="10" d="
			M402.049,48.411c-0.152-6.494-0.645-13.068-1.453-19.514"/>
		
			<path fill="none" stroke="#555555" stroke-width="1.5" stroke-linecap="round" stroke-linejoin="round" stroke-miterlimit="10" d="
			M383.581,20.571c3.309,4.316,9.563,5.193,13.976,1.955c0.379-0.276,0.736-0.58,1.07-0.908"/>
	</g>
</g>
</svg>
