<?xml version="1.0" encoding="utf-8"?>
<!-- Generator: Adobe Illustrator 16.0.4, SVG Export Plug-In . SVG Version: 6.00 Build 0)  -->
<!DOCTYPE svg PUBLIC "-//W3C//DTD SVG 1.1//EN" "http://www.w3.org/Graphics/SVG/1.1/DTD/svg11.dtd">
<svg version="1.1" id="Layer_1" xmlns="http://www.w3.org/2000/svg" xmlns:xlink="http://www.w3.org/1999/xlink" x="0px" y="0px"
	 width="724px" height="91.041px" viewBox="0 0 724 91.041" enable-background="new 0 0 724 91.041" xml:space="preserve">
<linearGradient id="SVGID_1_" gradientUnits="userSpaceOnUse" x1="0.1658" y1="-459.9609" x2="722.9358" y2="-459.9609" gradientTransform="matrix(1 0 0 -1 -0.1655 -413.3398)">
	<stop  offset="0" style="stop-color:#E53624"/>
	<stop  offset="1" style="stop-color:#4DAD3D"/>
</linearGradient>
<line fill="none" stroke="url(#SVGID_1_)" stroke-width="7" stroke-miterlimit="10" x1="0" y1="46.621" x2="722.771" y2="46.621"/>
<g>
	<path fill="none" stroke="#373773" stroke-width="1.5" stroke-linecap="round" stroke-linejoin="round" stroke-miterlimit="10" d="
		M230.201,20.735c-5.343,2.194-8.918,7.2-9.193,12.862l0.049,6.031c-0.021,1.543,0.688,3.009,1.915,3.977
		c0.585,0.548,1.453,0.69,2.188,0.359c0.082,0.808,0.548,1.533,1.259,1.956 M226.42,45.919c5.202,2.633,10.984,3.973,16.843,3.902
		c1.9-0.026,3.763-0.512,5.425-1.413c0.569,0.565,1.446,0.704,2.173,0.349c1.619-0.787,2.906-2.104,3.637-3.725V34.395
		c-0.297-5.586-3.871-10.5-9.167-12.606"/>
	<path fill="none" stroke="#555555" stroke-width="1.5" stroke-linecap="round" stroke-linejoin="round" stroke-miterlimit="10" d="
		M248.157,14.895c0-5.386-4.462-9.751-9.964-9.751c-5.503,0-9.963,4.365-9.963,9.751c0,5.384,4.46,9.75,9.963,9.75
		S248.157,20.279,248.157,14.895z"/>
	
		<path fill="#BBEF6F" stroke="#000000" stroke-width="1.5" stroke-linecap="round" stroke-linejoin="round" stroke-miterlimit="10" d="
		M230.201,20.735c-5.294,2.252-8.849,7.226-9.193,12.868l0.049,6.025c-0.021,1.543,0.688,3.009,1.915,3.977
		c0.585,0.548,1.453,0.69,2.188,0.359c0.082,0.808,0.548,1.533,1.259,1.956c5.202,2.632,10.984,3.972,16.843,3.901
		c1.9-0.025,3.763-0.512,5.425-1.412c0.569,0.564,1.446,0.705,2.173,0.349c1.619-0.786,2.906-2.104,3.637-3.725v-9.649
		c0.146-5.96-3.512-11.381-9.167-13.595l-0.084-0.004c3.886-3.817,3.875-9.993-0.024-13.795c-3.899-3.805-10.209-3.794-14.096,0.021
		C227.635,11.441,227.241,16.857,230.201,20.735z"/>
	<path fill="none" stroke="#555555" stroke-width="1.5" stroke-linecap="round" stroke-linejoin="round" stroke-miterlimit="10" d="
		M225.161,43.964c0.423-6.126,1.483-12.503,3.069-18.434"/>
	<path fill="none" stroke="#555555" stroke-width="1.5" stroke-linecap="round" stroke-linejoin="round" stroke-miterlimit="10" d="
		M248.69,48.411c-0.15-6.494-0.643-13.068-1.453-19.512"/>
	<path fill="none" stroke="#555555" stroke-width="1.5" stroke-linecap="round" stroke-linejoin="round" stroke-miterlimit="10" d="
		M230.225,20.572c3.306,4.316,9.562,5.193,13.973,1.956c0.38-0.277,0.735-0.581,1.07-0.909"/>
</g>
<g>
	<rect x="59.265" y="5.143" fill="none" width="50.047" height="30.319"/>
	<path fill="none" stroke="#373773" stroke-width="1.5" stroke-linecap="round" stroke-linejoin="round" stroke-miterlimit="10" d="
		M75.689,22.104c-5.341,2.194-8.918,7.2-9.191,12.861l0.049,6.031c-0.021,1.543,0.686,3.01,1.915,3.977
		c0.585,0.548,1.453,0.689,2.188,0.359c0.082,0.808,0.548,1.532,1.261,1.955 M71.908,47.288c5.2,2.633,10.984,3.973,16.844,3.902
		c1.897-0.026,3.763-0.512,5.424-1.414c0.57,0.564,1.447,0.705,2.174,0.35c1.618-0.787,2.906-2.104,3.635-3.725V35.763
		c-0.297-5.586-3.871-10.499-9.168-12.605"/>
	<path fill="none" stroke="#555555" stroke-width="1.5" stroke-linecap="round" stroke-linejoin="round" stroke-miterlimit="10" d="
		M93.645,16.264c0-5.386-4.46-9.751-9.962-9.751c-5.503,0-9.963,4.365-9.963,9.751c0,5.385,4.46,9.75,9.963,9.75
		C89.185,26.014,93.645,21.648,93.645,16.264z"/>
	
		<path fill="#BBEF6F" stroke="#000000" stroke-width="1.5" stroke-linecap="round" stroke-linejoin="round" stroke-miterlimit="10" d="
		M75.689,22.104c-5.294,2.252-8.847,7.226-9.191,12.867l0.049,6.025c-0.021,1.543,0.686,3.01,1.915,3.977
		c0.585,0.548,1.453,0.689,2.188,0.359c0.082,0.808,0.548,1.532,1.261,1.955c5.2,2.633,10.984,3.974,16.844,3.901
		c1.897-0.025,3.763-0.512,5.424-1.412c0.57,0.563,1.447,0.705,2.174,0.349c1.618-0.787,2.906-2.104,3.635-3.726v-9.648
		c0.146-5.96-3.51-11.381-9.168-13.595l-0.084-0.004c3.889-3.817,3.876-9.993-0.021-13.795c-3.902-3.803-10.213-3.793-14.1,0.023
		C73.122,12.811,72.729,18.227,75.689,22.104z"/>
	<path fill="none" stroke="#555555" stroke-width="1.5" stroke-linecap="round" stroke-linejoin="round" stroke-miterlimit="10" d="
		M70.649,45.333c0.423-6.127,1.485-12.504,3.071-18.434"/>
	<path fill="none" stroke="#555555" stroke-width="1.5" stroke-linecap="round" stroke-linejoin="round" stroke-miterlimit="10" d="
		M94.177,49.78c-0.152-6.494-0.643-13.068-1.453-19.513"/>
	<path fill="none" stroke="#555555" stroke-width="1.5" stroke-linecap="round" stroke-linejoin="round" stroke-miterlimit="10" d="
		M75.713,21.94c3.306,4.316,9.562,5.193,13.973,1.956c0.379-0.277,0.736-0.58,1.07-0.909"/>
</g>
<g>
	<rect x="1.737" y="5.189" fill="none" width="50.05" height="30.321"/>
	<path fill="none" stroke="#373773" stroke-width="1.5" stroke-linecap="round" stroke-linejoin="round" stroke-miterlimit="10" d="
		M19.207,20.735c-5.341,2.194-8.918,7.2-9.193,12.862l0.049,6.031c-0.021,1.543,0.688,3.01,1.915,3.977
		c0.585,0.548,1.453,0.689,2.188,0.359c0.082,0.808,0.548,1.532,1.259,1.955 M15.427,45.919c5.202,2.633,10.986,3.973,16.844,3.902
		c1.898-0.026,3.764-0.512,5.424-1.413c0.57,0.565,1.447,0.704,2.176,0.349c1.615-0.787,2.904-2.104,3.635-3.724V34.394
		c-0.297-5.586-3.871-10.499-9.168-12.606"/>
	<path fill="none" stroke="#555555" stroke-width="1.5" stroke-linecap="round" stroke-linejoin="round" stroke-miterlimit="10" d="
		M37.163,14.895c0-5.386-4.459-9.751-9.962-9.751c-5.505,0-9.965,4.365-9.965,9.751c0,5.384,4.46,9.75,9.965,9.75
		C32.704,24.645,37.163,20.279,37.163,14.895z"/>
	
		<path fill="#BBEF6F" stroke="#000000" stroke-width="1.5" stroke-linecap="round" stroke-linejoin="round" stroke-miterlimit="10" d="
		M19.207,20.735c-5.294,2.252-8.849,7.226-9.193,12.868l0.049,6.025c-0.021,1.543,0.688,3.01,1.915,3.977
		c0.585,0.548,1.453,0.689,2.188,0.359c0.082,0.808,0.548,1.532,1.259,1.955c5.202,2.633,10.986,3.973,16.844,3.902
		c1.898-0.026,3.762-0.512,5.424-1.413c0.57,0.565,1.447,0.704,2.176,0.349c1.615-0.787,2.904-2.104,3.635-3.724v-9.649
		c0.145-5.96-3.51-11.381-9.168-13.595l-0.084-0.004c3.887-3.817,3.875-9.993-0.023-13.795c-3.896-3.805-10.21-3.794-14.096,0.021
		C16.641,11.441,16.248,16.857,19.207,20.735z"/>
	<path fill="none" stroke="#555555" stroke-width="1.5" stroke-linecap="round" stroke-linejoin="round" stroke-miterlimit="10" d="
		M14.167,43.964c0.423-6.127,1.483-12.504,3.069-18.434"/>
	<path fill="none" stroke="#555555" stroke-width="1.5" stroke-linecap="round" stroke-linejoin="round" stroke-miterlimit="10" d="
		M37.697,48.411c-0.15-6.494-0.643-13.068-1.451-19.512"/>
	<path fill="none" stroke="#555555" stroke-width="1.5" stroke-linecap="round" stroke-linejoin="round" stroke-miterlimit="10" d="
		M19.231,20.572c3.308,4.316,9.563,5.193,13.975,1.956c0.379-0.277,0.734-0.581,1.068-0.909"/>
</g>
<g>
	<rect x="555.224" y="5.143" fill="none" width="50.047" height="30.319"/>
	<path fill="none" stroke="#373773" stroke-width="1.5" stroke-linecap="round" stroke-linejoin="round" stroke-miterlimit="10" d="
		M571.647,22.102c-5.342,2.194-8.918,7.2-9.193,12.862l0.052,6.031c-0.021,1.543,0.686,3.01,1.914,3.977
		c0.586,0.548,1.452,0.688,2.188,0.359c0.081,0.809,0.548,1.531,1.259,1.954 M567.865,47.285c5.202,2.633,10.986,3.973,16.845,3.901
		c1.898-0.024,3.764-0.513,5.426-1.412c0.568,0.563,1.445,0.705,2.174,0.349c1.617-0.787,2.906-2.104,3.635-3.726V35.761
		c-0.297-5.586-3.871-10.499-9.168-12.606"/>
	<path fill="none" stroke="#555555" stroke-width="1.5" stroke-linecap="round" stroke-linejoin="round" stroke-miterlimit="10" d="
		M589.603,16.262c0-5.387-4.459-9.752-9.962-9.752s-9.963,4.365-9.963,9.752c0,5.384,4.46,9.75,9.963,9.75
		S589.603,21.646,589.603,16.262z"/>
	
		<path fill="#BBEF6F" stroke="#000000" stroke-width="1.5" stroke-linecap="round" stroke-linejoin="round" stroke-miterlimit="10" d="
		M571.647,22.102c-5.294,2.253-8.847,7.227-9.193,12.868l0.052,6.025c-0.021,1.543,0.686,3.01,1.914,3.977
		c0.586,0.548,1.452,0.688,2.188,0.359c0.081,0.809,0.548,1.531,1.259,1.954c5.202,2.633,10.986,3.973,16.846,3.901
		c1.897-0.024,3.763-0.513,5.425-1.412c0.568,0.563,1.445,0.705,2.174,0.349c1.617-0.787,2.906-2.104,3.635-3.726V36.75
		c0.146-5.96-3.51-11.381-9.168-13.596l-0.084-0.004c3.887-3.817,3.875-9.992-0.022-13.795c-3.897-3.805-10.211-3.794-14.098,0.021
		C569.078,12.808,568.688,18.224,571.647,22.102z"/>
	<path fill="none" stroke="#555555" stroke-width="1.5" stroke-linecap="round" stroke-linejoin="round" stroke-miterlimit="10" d="
		M566.607,45.331c0.423-6.127,1.485-12.504,3.071-18.435"/>
	<path fill="none" stroke="#555555" stroke-width="1.5" stroke-linecap="round" stroke-linejoin="round" stroke-miterlimit="10" d="
		M590.136,49.776c-0.152-6.492-0.645-13.066-1.453-19.511"/>
	<path fill="none" stroke="#555555" stroke-width="1.5" stroke-linecap="round" stroke-linejoin="round" stroke-miterlimit="10" d="
		M571.67,21.938c3.307,4.315,9.562,5.192,13.974,1.956c0.379-0.277,0.736-0.581,1.07-0.909"/>
</g>
<g>
	<rect x="612.688" y="5.728" fill="none" width="50.047" height="30.319"/>
	<path fill="none" stroke="#373773" stroke-width="1.5" stroke-linecap="round" stroke-linejoin="round" stroke-miterlimit="10" d="
		M632.279,20.735c-5.342,2.194-8.918,7.2-9.191,12.861l0.05,6.031c-0.021,1.543,0.686,3.01,1.915,3.977
		c0.585,0.549,1.453,0.689,2.188,0.359c0.081,0.809,0.548,1.533,1.259,1.955 M628.495,45.919c5.202,2.633,10.986,3.973,16.847,3.902
		c1.896-0.025,3.762-0.512,5.424-1.412c0.57,0.564,1.447,0.705,2.174,0.348c1.617-0.787,2.906-2.104,3.635-3.725V34.394
		c-0.297-5.585-3.871-10.499-9.168-12.605"/>
	<path fill="none" stroke="#555555" stroke-width="1.5" stroke-linecap="round" stroke-linejoin="round" stroke-miterlimit="10" d="
		M650.235,14.895c0-5.386-4.459-9.751-9.962-9.751s-9.963,4.365-9.963,9.751c0,5.384,4.46,9.75,9.963,9.75
		S650.235,20.279,650.235,14.895z"/>
	
		<path fill="#BBEF6F" stroke="#000000" stroke-width="1.5" stroke-linecap="round" stroke-linejoin="round" stroke-miterlimit="10" d="
		M632.279,20.735c-5.294,2.252-8.847,7.226-9.191,12.867l0.05,6.025c-0.021,1.543,0.686,3.01,1.915,3.977
		c0.585,0.549,1.453,0.689,2.188,0.359c0.081,0.809,0.548,1.533,1.259,1.955c5.202,2.634,10.986,3.974,16.847,3.901
		c1.896-0.024,3.762-0.512,5.424-1.411c0.569,0.563,1.447,0.704,2.174,0.348c1.617-0.786,2.906-2.104,3.635-3.725v-9.648
		c0.146-5.961-3.51-11.381-9.168-13.596l-0.084-0.004c3.889-3.817,3.875-9.993-0.021-13.795c-3.898-3.805-10.21-3.794-14.099,0.021
		C629.712,11.441,629.32,16.857,632.279,20.735z"/>
	<path fill="none" stroke="#555555" stroke-width="1.5" stroke-linecap="round" stroke-linejoin="round" stroke-miterlimit="10" d="
		M627.239,43.964c0.423-6.127,1.485-12.504,3.071-18.434"/>
	<path fill="none" stroke="#555555" stroke-width="1.5" stroke-linecap="round" stroke-linejoin="round" stroke-miterlimit="10" d="
		M650.768,48.411c-0.152-6.494-0.643-13.068-1.453-19.512"/>
	<path fill="none" stroke="#555555" stroke-width="1.5" stroke-linecap="round" stroke-linejoin="round" stroke-miterlimit="10" d="
		M632.302,20.572c3.307,4.316,9.562,5.193,13.974,1.956c0.379-0.277,0.736-0.581,1.07-0.909"/>
</g>
<g>
	<path fill="none" stroke="#373773" stroke-width="1.5" stroke-linecap="round" stroke-linejoin="round" stroke-miterlimit="10" d="
		M688.101,20.735c-5.342,2.194-8.918,7.2-9.193,12.861l0.05,6.031c-0.021,1.543,0.688,3.01,1.915,3.977
		c0.585,0.549,1.453,0.689,2.188,0.359c0.081,0.809,0.548,1.533,1.259,1.955 M684.32,45.919c5.202,2.633,10.986,3.973,16.845,3.902
		c1.898-0.025,3.764-0.512,5.426-1.412c0.568,0.564,1.445,0.705,2.174,0.348c1.617-0.787,2.906-2.104,3.635-3.725V34.394
		c-0.297-5.586-3.871-10.499-9.168-12.605"/>
	<path fill="none" stroke="#555555" stroke-width="1.5" stroke-linecap="round" stroke-linejoin="round" stroke-miterlimit="10" d="
		M706.057,14.895c0-5.386-4.459-9.751-9.962-9.751s-9.963,4.365-9.963,9.751c0,5.385,4.46,9.75,9.963,9.75
		S706.057,20.279,706.057,14.895z"/>
	
		<path fill="#BBEF6F" stroke="#000000" stroke-width="1.5" stroke-linecap="round" stroke-linejoin="round" stroke-miterlimit="10" d="
		M688.101,20.735c-5.294,2.252-8.847,7.226-9.193,12.867l0.05,6.025c-0.021,1.543,0.688,3.01,1.915,3.977
		c0.585,0.549,1.453,0.689,2.188,0.359c0.081,0.809,0.548,1.533,1.259,1.955c5.202,2.634,10.986,3.974,16.845,3.901
		c1.898-0.024,3.764-0.512,5.426-1.411c0.568,0.563,1.445,0.704,2.174,0.348c1.617-0.786,2.904-2.104,3.635-3.725v-9.648
		c0.146-5.961-3.51-11.382-9.168-13.596l-0.084-0.004c3.887-3.817,3.875-9.993-0.023-13.795c-3.896-3.805-10.21-3.794-14.097,0.021
		C685.532,11.441,685.142,16.857,688.101,20.735z"/>
	<path fill="none" stroke="#555555" stroke-width="1.5" stroke-linecap="round" stroke-linejoin="round" stroke-miterlimit="10" d="
		M683.061,43.964c0.423-6.127,1.485-12.504,3.071-18.434"/>
	<path fill="none" stroke="#555555" stroke-width="1.5" stroke-linecap="round" stroke-linejoin="round" stroke-miterlimit="10" d="
		M706.59,48.411c-0.152-6.494-0.645-13.068-1.453-19.513"/>
	<path fill="none" stroke="#555555" stroke-width="1.5" stroke-linecap="round" stroke-linejoin="round" stroke-miterlimit="10" d="
		M688.122,20.571c3.309,4.316,9.563,5.193,13.976,1.956c0.379-0.277,0.736-0.58,1.07-0.909"/>
</g>
<rect x="1" y="61.794" fill="none" width="131.333" height="20.895"/>
<g enable-background="new    ">
	<path fill="#FFFFFF" d="M13.54,77.634h-1.43l-0.792-4.224H4.85l-2.2,4.224H1.242L9.074,62.96h1.54L13.54,77.634z M11.098,72.244
		l-1.474-7.92l-4.158,7.92H11.098z"/>
	<path fill="#FFFFFF" d="M30.216,67.074l-4.884,10.56h-1.628l-1.012-9.108l-4.18,9.108h-1.628l-1.144-10.56h1.364l0.902,9.107
		l4.158-9.107h1.628l1.012,9.107l4.048-9.107H30.216z"/>
	<path fill="#FFFFFF" d="M40.247,62.388l-0.748,0.858c-0.426-0.367-0.917-0.551-1.474-0.551c-0.675,0-1.225,0.213-1.65,0.639
		c-0.426,0.426-0.733,1.195-0.924,2.31l-0.242,1.431h3.388l-0.176,1.077h-3.388l-1.606,9.482h-1.32l1.606-9.482h-1.87l0.176-1.077
		h1.87l0.22-1.32c0.132-0.748,0.25-1.298,0.352-1.65c0.205-0.586,0.521-1.092,0.946-1.518c0.704-0.704,1.562-1.056,2.574-1.056
		C38.92,61.53,39.675,61.815,40.247,62.388z"/>
	<path fill="#FFFFFF" d="M48.849,67.074l-1.804,10.56h-1.166l0.198-1.122c-1.115,0.895-2.325,1.342-3.63,1.342
		c-0.91,0-1.636-0.227-2.178-0.682c-0.587-0.47-0.88-1.107-0.88-1.914c0-0.308,0.081-0.932,0.242-1.87l1.078-6.313h1.32
		l-1.078,6.115c-0.176,0.998-0.264,1.621-0.264,1.87c0,1.101,0.682,1.65,2.046,1.65c1.159,0,2.281-0.455,3.366-1.364l1.43-8.271
		H48.849z"/>
	<path fill="#FFFFFF" d="M54.151,61.794l-2.684,15.84h-1.32l2.684-15.84H54.151z"/>
</g>
<rect x="295.719" y="61.794" fill="none" width="131.334" height="20.895"/>
<g enable-background="new    ">
	<path fill="#FFFFFF" d="M319.334,62.96l-2.464,14.674h-1.408l2.464-14.674H319.334z"/>
	<path fill="#FFFFFF" d="M329.74,69.406c0,0.293-0.081,0.916-0.242,1.869l-1.078,6.358h-1.32l1.078-6.16
		c0.176-1.012,0.264-1.635,0.264-1.87c0-1.1-0.682-1.649-2.046-1.649c-1.159,0-2.281,0.454-3.366,1.363l-1.43,8.316h-1.32
		l1.804-10.56h1.254l-0.176,0.989c1.144-0.836,2.317-1.254,3.52-1.254c0.909,0,1.646,0.231,2.211,0.693S329.74,68.6,329.74,69.406z"
		/>
	<path fill="#FFFFFF" d="M342.389,61.794l-2.684,15.84h-1.166l0.198-1.166c-0.983,0.924-2.112,1.386-3.388,1.386
		c-1.129,0-2.046-0.377-2.75-1.133c-0.704-0.755-1.056-1.734-1.056-2.937c0-1.863,0.521-3.469,1.562-4.818
		c1.115-1.438,2.53-2.156,4.246-2.156c1.144,0,2.046,0.33,2.706,0.99l1.012-6.006H342.389z M339.837,69.032
		c-0.646-0.704-1.511-1.057-2.596-1.057c-1.335,0-2.413,0.609-3.234,1.826c-0.734,1.1-1.1,2.376-1.1,3.828
		c0,0.909,0.234,1.636,0.704,2.178c0.498,0.587,1.195,0.88,2.09,0.88c0.968,0,1.987-0.447,3.058-1.342L339.837,69.032z"/>
	<path fill="#FFFFFF" d="M345.909,67.074l-1.804,10.56h-1.32l1.804-10.56H345.909z M346.723,63.51c0,0.234-0.084,0.44-0.253,0.616
		c-0.169,0.176-0.378,0.264-0.627,0.264c-0.235,0-0.44-0.088-0.616-0.264c-0.176-0.176-0.264-0.382-0.264-0.616
		c0-0.249,0.088-0.458,0.264-0.627c0.176-0.169,0.381-0.253,0.616-0.253c0.249,0,0.458,0.084,0.627,0.253
		C346.638,63.052,346.723,63.261,346.723,63.51z"/>
	<path fill="#FFFFFF" d="M356.161,62.388l-0.748,0.858c-0.426-0.367-0.917-0.551-1.474-0.551c-0.675,0-1.225,0.213-1.65,0.639
		c-0.426,0.426-0.733,1.195-0.924,2.31l-0.242,1.431h3.388l-0.176,1.077h-3.388l-1.606,9.482h-1.32l1.606-9.482h-1.87l0.176-1.077
		h1.87l0.22-1.32c0.132-0.748,0.25-1.298,0.352-1.65c0.205-0.586,0.521-1.092,0.946-1.518c0.704-0.704,1.562-1.056,2.574-1.056
		C354.833,61.53,355.589,61.815,356.161,62.388z"/>
	<path fill="#FFFFFF" d="M364.147,62.388l-0.748,0.858c-0.426-0.367-0.917-0.551-1.474-0.551c-0.675,0-1.225,0.213-1.65,0.639
		c-0.426,0.426-0.733,1.195-0.924,2.31l-0.242,1.431h3.388l-0.176,1.077h-3.388l-1.606,9.482h-1.32l1.606-9.482h-1.87l0.176-1.077
		h1.87l0.22-1.32c0.132-0.748,0.25-1.298,0.352-1.65c0.205-0.586,0.521-1.092,0.946-1.518c0.704-0.704,1.562-1.056,2.574-1.056
		C362.819,61.53,363.574,61.815,364.147,62.388z"/>
	<path fill="#FFFFFF" d="M371.45,69.273c0,0.852-0.345,1.621-1.034,2.311c-1.188,1.188-3.417,1.885-6.688,2.09
		c0.029,0.909,0.318,1.643,0.869,2.2c0.55,0.558,1.294,0.836,2.232,0.836c0.807,0,1.701-0.271,2.685-0.814l0.571,0.924
		c-0.234,0.221-0.645,0.434-1.231,0.639c-0.733,0.278-1.452,0.418-2.156,0.418c-1.306,0-2.351-0.385-3.135-1.155
		c-0.784-0.77-1.177-1.822-1.177-3.157c0-1.848,0.569-3.436,1.706-4.763s2.57-1.991,4.301-1.991c0.865,0,1.591,0.221,2.178,0.66
		C371.156,67.91,371.45,68.512,371.45,69.273z M370.174,69.361c0-0.454-0.172-0.81-0.517-1.066s-0.78-0.385-1.309-0.385
		c-1.291,0-2.384,0.564-3.278,1.693c-0.733,0.924-1.166,1.937-1.298,3.036c0.895-0.044,1.833-0.198,2.815-0.462
		c1.379-0.366,2.361-0.843,2.949-1.43C369.961,70.322,370.174,69.86,370.174,69.361z"/>
	<path fill="#FFFFFF" d="M380.295,67.052l-0.44,1.1c-0.337-0.073-0.631-0.109-0.88-0.109c-1.35,0-2.582,0.777-3.696,2.332
		l-1.231,7.26h-1.32l1.781-10.56h1.255l-0.265,1.605c1.101-1.261,2.318-1.892,3.652-1.892
		C379.694,66.788,380.074,66.876,380.295,67.052z"/>
	<path fill="#FFFFFF" d="M388.985,69.273c0,0.852-0.345,1.621-1.033,2.311c-1.188,1.188-3.418,1.885-6.688,2.09
		c0.029,0.909,0.319,1.643,0.868,2.2c0.551,0.558,1.295,0.836,2.234,0.836c0.806,0,1.701-0.271,2.684-0.814l0.572,0.924
		c-0.235,0.221-0.646,0.434-1.232,0.639c-0.734,0.278-1.452,0.418-2.156,0.418c-1.305,0-2.351-0.385-3.135-1.155
		c-0.785-0.77-1.178-1.822-1.178-3.157c0-1.848,0.568-3.436,1.705-4.763s2.57-1.991,4.302-1.991c0.865,0,1.591,0.221,2.178,0.66
		C388.692,67.91,388.985,68.512,388.985,69.273z M387.709,69.361c0-0.454-0.173-0.81-0.518-1.066s-0.781-0.385-1.309-0.385
		c-1.291,0-2.384,0.564-3.278,1.693c-0.733,0.924-1.166,1.937-1.298,3.036c0.895-0.044,1.833-0.198,2.816-0.462
		c1.378-0.366,2.361-0.843,2.947-1.43C387.496,70.322,387.709,69.86,387.709,69.361z"/>
	<path fill="#FFFFFF" d="M399.721,69.406c0,0.293-0.081,0.916-0.242,1.869l-1.078,6.358h-1.32l1.078-6.16
		c0.176-1.012,0.264-1.635,0.264-1.87c0-1.1-0.682-1.649-2.046-1.649c-1.159,0-2.28,0.454-3.366,1.363l-1.43,8.316h-1.32
		l1.805-10.56h1.254l-0.176,0.989c1.144-0.836,2.316-1.254,3.52-1.254c0.909,0,1.646,0.231,2.211,0.693S399.721,68.6,399.721,69.406
		z"/>
	<path fill="#FFFFFF" d="M408.653,67.074l-0.176,1.077h-3.389l-0.99,5.742c-0.161,0.939-0.242,1.504-0.242,1.694
		c0,0.763,0.434,1.144,1.299,1.144c0.381,0,0.902-0.146,1.562-0.439l0.439,0.945c-0.852,0.426-1.6,0.639-2.244,0.639
		c-0.66,0-1.21-0.154-1.65-0.462c-0.514-0.367-0.77-0.88-0.77-1.54c0-0.19,0.08-0.756,0.242-1.694l1.033-6.028h-1.848l0.176-1.077
		h1.848l0.507-2.992h1.319l-0.506,2.992H408.653z"/>
</g>
<rect x="590.101" y="61.795" fill="none" width="131.334" height="20.896"/>
<g enable-background="new    ">
	<path fill="#FFFFFF" d="M681.132,64.302l-0.836,0.858c-0.983-0.807-2.083-1.21-3.3-1.21c-2.068,0-3.756,0.784-5.061,2.354
		c-1.217,1.496-1.826,3.33-1.826,5.5c0,1.481,0.407,2.655,1.221,3.521c0.814,0.865,1.933,1.298,3.355,1.298
		c1.086,0,2.236-0.286,3.454-0.858l0.683-4.136h-3.301l0.176-1.145h4.664l-0.99,6.007c-1.539,0.938-3.146,1.407-4.817,1.407
		c-1.819,0-3.241-0.498-4.269-1.496c-1.1-1.041-1.649-2.529-1.649-4.466c0-2.566,0.796-4.748,2.387-6.545
		c1.591-1.796,3.619-2.695,6.083-2.695c1.174,0,2.178,0.242,3.014,0.727C680.56,63.686,680.897,63.979,681.132,64.302z"/>
	<path fill="#FFFFFF" d="M692.241,71.034c0,1.833-0.521,3.402-1.562,4.708c-1.115,1.407-2.538,2.111-4.268,2.111
		c-1.203,0-2.172-0.381-2.904-1.144c-0.734-0.763-1.101-1.789-1.101-3.08c0-1.833,0.521-3.402,1.562-4.708
		c1.115-1.408,2.538-2.112,4.269-2.112c1.202,0,2.171,0.382,2.904,1.145S692.241,69.743,692.241,71.034z M690.877,71.188
		c0-0.938-0.22-1.693-0.66-2.266c-0.483-0.646-1.18-0.968-2.09-0.968c-1.319,0-2.397,0.608-3.233,1.826
		c-0.748,1.07-1.122,2.303-1.122,3.695c0,0.939,0.22,1.694,0.66,2.267c0.484,0.646,1.18,0.968,2.09,0.968
		c1.32,0,2.398-0.608,3.234-1.826C690.504,73.813,690.877,72.581,690.877,71.188z"/>
	<path fill="#FFFFFF" d="M703.725,71.034c0,1.833-0.52,3.402-1.562,4.708c-1.114,1.407-2.538,2.111-4.268,2.111
		c-1.203,0-2.171-0.381-2.904-1.144s-1.101-1.789-1.101-3.08c0-1.833,0.521-3.402,1.562-4.708c1.115-1.408,2.537-2.112,4.268-2.112
		c1.203,0,2.171,0.382,2.904,1.145S703.725,69.743,703.725,71.034z M702.362,71.188c0-0.938-0.221-1.693-0.66-2.266
		c-0.484-0.646-1.181-0.968-2.09-0.968c-1.32,0-2.398,0.608-3.234,1.826c-0.748,1.07-1.121,2.303-1.121,3.695
		c0,0.939,0.219,1.694,0.66,2.267c0.483,0.646,1.18,0.968,2.09,0.968c1.319,0,2.397-0.608,3.233-1.826
		C701.988,73.813,702.362,72.581,702.362,71.188z"/>
	<path fill="#FFFFFF" d="M716.199,61.794l-2.684,15.84h-1.166l0.197-1.166c-0.982,0.924-2.111,1.386-3.388,1.386
		c-1.13,0-2.046-0.377-2.75-1.133c-0.704-0.755-1.056-1.734-1.056-2.937c0-1.863,0.52-3.469,1.562-4.818
		c1.114-1.438,2.53-2.156,4.246-2.156c1.144,0,2.046,0.33,2.706,0.99l1.012-6.006H716.199z M713.647,69.032
		c-0.645-0.704-1.51-1.057-2.596-1.057c-1.334,0-2.412,0.609-3.233,1.826c-0.733,1.1-1.101,2.376-1.101,3.828
		c0,0.909,0.234,1.636,0.705,2.178c0.498,0.587,1.194,0.88,2.09,0.88c0.967,0,1.986-0.447,3.058-1.342L713.647,69.032z"/>
	<path fill="#FFFFFF" d="M719.367,76.819c0,0.279-0.096,0.514-0.287,0.704c-0.189,0.19-0.425,0.286-0.703,0.286
		c-0.279,0-0.514-0.096-0.704-0.286s-0.286-0.425-0.286-0.704c0-0.278,0.096-0.513,0.286-0.703s0.425-0.286,0.704-0.286
		c0.278,0,0.514,0.096,0.703,0.286C719.272,76.307,719.367,76.541,719.367,76.819z M721.545,62.96l-2.09,11.109h-1.188l1.584-11.109
		H721.545z"/>
</g>
</svg>
