<?xml version="1.0" encoding="utf-8"?>
<!-- Generator: Adobe Illustrator 16.0.4, SVG Export Plug-In . SVG Version: 6.00 Build 0)  -->
<!DOCTYPE svg PUBLIC "-//W3C//DTD SVG 1.1//EN" "http://www.w3.org/Graphics/SVG/1.1/DTD/svg11.dtd">
<svg version="1.1" id="Layer_1" xmlns="http://www.w3.org/2000/svg" xmlns:xlink="http://www.w3.org/1999/xlink" x="0px" y="0px"
	 width="724px" height="91.041px" viewBox="0 0 724 91.041" enable-background="new 0 0 724 91.041" xml:space="preserve">
<line fill="none" stroke="#558B2F" stroke-width="7" stroke-miterlimit="10" x1="0" y1="46.621" x2="722.771" y2="46.621"/>
<g>
	<path fill="none" stroke="#373773" stroke-width="1.5" stroke-linecap="round" stroke-linejoin="round" stroke-miterlimit="10" d="
		M491.199,21.292c-5.344,2.194-8.918,7.2-9.191,12.862l0.049,6.031c-0.021,1.543,0.688,3.009,1.915,3.978
		c0.585,0.548,1.453,0.69,2.188,0.358c0.082,0.809,0.549,1.535,1.261,1.957 M487.42,46.478c5.2,2.633,10.981,3.975,16.843,3.902
		c1.898-0.027,3.763-0.512,5.425-1.414c0.569,0.566,1.446,0.705,2.173,0.35c1.619-0.787,2.906-2.104,3.638-3.725V34.953
		c-0.297-5.586-3.869-10.5-9.167-12.606"/>
	<path fill="none" stroke="#555555" stroke-width="1.5" stroke-linecap="round" stroke-linejoin="round" stroke-miterlimit="10" d="
		M509.156,15.453c0-5.386-4.463-9.751-9.965-9.751c-5.503,0-9.963,4.365-9.963,9.751c0,5.384,4.46,9.75,9.963,9.75
		S509.156,20.836,509.156,15.453z"/>
	
		<path fill="#BBEF6F" stroke="#000000" stroke-width="1.5" stroke-linecap="round" stroke-linejoin="round" stroke-miterlimit="10" d="
		M491.199,21.292c-5.294,2.252-8.85,7.226-9.191,12.868l0.049,6.025c-0.021,1.543,0.688,3.009,1.915,3.978
		c0.585,0.548,1.453,0.69,2.188,0.358c0.082,0.809,0.549,1.535,1.261,1.957c5.2,2.633,10.981,3.974,16.843,3.901
		c1.898-0.024,3.763-0.512,5.425-1.412c0.569,0.564,1.446,0.705,2.173,0.349c1.619-0.784,2.906-2.104,3.638-3.726v-9.649
		c0.146-5.96-3.513-11.381-9.166-13.595l-0.085-0.004c3.888-3.817,3.875-9.993-0.022-13.795c-3.898-3.805-10.209-3.794-14.096,0.021
		C488.635,11.999,488.24,17.415,491.199,21.292z"/>
	<path fill="none" stroke="#555555" stroke-width="1.5" stroke-linecap="round" stroke-linejoin="round" stroke-miterlimit="10" d="
		M486.159,44.521c0.425-6.126,1.482-12.503,3.068-18.434"/>
	<path fill="none" stroke="#555555" stroke-width="1.5" stroke-linecap="round" stroke-linejoin="round" stroke-miterlimit="10" d="
		M509.69,48.97c-0.148-6.495-0.643-13.069-1.453-19.513"/>
	<path fill="none" stroke="#555555" stroke-width="1.5" stroke-linecap="round" stroke-linejoin="round" stroke-miterlimit="10" d="
		M491.225,21.13c3.306,4.316,9.562,5.193,13.973,1.956c0.381-0.277,0.735-0.581,1.07-0.909"/>
</g>
<g>
	<rect x="59.265" y="4.332" fill="none" width="50.047" height="30.319"/>
	<path fill="none" stroke="#373773" stroke-width="1.5" stroke-linecap="round" stroke-linejoin="round" stroke-miterlimit="10" d="
		M75.689,21.293c-5.341,2.194-8.918,7.2-9.188,12.861l0.049,6.031c-0.021,1.543,0.686,3.01,1.915,3.977
		c0.585,0.548,1.453,0.689,2.188,0.359c0.082,0.807,0.551,1.531,1.264,1.955 M71.908,46.478c5.197,2.633,10.981,3.974,16.844,3.901
		c1.896-0.024,3.763-0.512,5.424-1.414c0.57,0.563,1.447,0.705,2.174,0.351c1.618-0.787,2.906-2.104,3.635-3.726V34.952
		c-0.297-5.586-3.871-10.499-9.168-12.605"/>
	<path fill="none" stroke="#555555" stroke-width="1.5" stroke-linecap="round" stroke-linejoin="round" stroke-miterlimit="10" d="
		M93.645,15.453c0-5.386-4.46-9.751-9.962-9.751c-5.503,0-9.963,4.365-9.963,9.751c0,5.385,4.46,9.75,9.963,9.75
		C89.185,25.203,93.645,20.837,93.645,15.453z"/>
	
		<path fill="#BBEF6F" stroke="#000000" stroke-width="1.5" stroke-linecap="round" stroke-linejoin="round" stroke-miterlimit="10" d="
		M75.689,21.293c-5.294,2.252-8.847,7.226-9.188,12.867l0.049,6.025c-0.021,1.543,0.686,3.01,1.915,3.977
		c0.585,0.548,1.453,0.689,2.188,0.359c0.082,0.807,0.551,1.531,1.264,1.955c5.197,2.633,10.981,3.975,16.844,3.9
		c1.896-0.025,3.763-0.512,5.424-1.412c0.57,0.562,1.447,0.705,2.174,0.35c1.618-0.787,2.906-2.104,3.637-3.727V35.94
		c0.146-5.96-3.512-11.381-9.169-13.595l-0.084-0.004c3.891-3.817,3.877-9.993-0.021-13.795c-3.902-3.803-10.213-3.793-14.1,0.023
		C73.122,12,72.729,17.416,75.689,21.293z"/>
	<path fill="none" stroke="#555555" stroke-width="1.5" stroke-linecap="round" stroke-linejoin="round" stroke-miterlimit="10" d="
		M70.649,44.521c0.423-6.126,1.485-12.503,3.071-18.434"/>
	<path fill="none" stroke="#555555" stroke-width="1.5" stroke-linecap="round" stroke-linejoin="round" stroke-miterlimit="10" d="
		M94.177,48.969c-0.152-6.494-0.643-13.068-1.453-19.513"/>
	<path fill="none" stroke="#555555" stroke-width="1.5" stroke-linecap="round" stroke-linejoin="round" stroke-miterlimit="10" d="
		M75.713,21.129c3.306,4.316,9.562,5.193,13.973,1.956c0.379-0.277,0.736-0.58,1.07-0.909"/>
</g>
<g>
	<rect x="114.737" y="5.746" fill="none" width="50.053" height="30.321"/>
	<path fill="none" stroke="#373773" stroke-width="1.5" stroke-linecap="round" stroke-linejoin="round" stroke-miterlimit="10" d="
		M132.207,21.292c-5.341,2.194-8.918,7.2-9.193,12.862l0.049,6.031c-0.021,1.543,0.688,3.01,1.915,3.977
		c0.585,0.548,1.453,0.688,2.188,0.358c0.082,0.809,0.548,1.532,1.259,1.956 M128.427,46.478c5.202,2.633,10.986,3.974,16.844,3.901
		c1.898-0.026,3.767-0.512,5.424-1.414c0.57,0.566,1.447,0.705,2.179,0.351c1.612-0.787,2.901-2.104,3.635-3.726V34.951
		c-0.297-5.586-3.871-10.499-9.168-12.606"/>
	<path fill="none" stroke="#555555" stroke-width="1.5" stroke-linecap="round" stroke-linejoin="round" stroke-miterlimit="10" d="
		M150.163,15.452c0-5.386-4.459-9.751-9.962-9.751c-5.508,0-9.968,4.365-9.968,9.751c0,5.384,4.46,9.75,9.968,9.75
		C145.704,25.202,150.163,20.836,150.163,15.452z"/>
	
		<path fill="#BBEF6F" stroke="#000000" stroke-width="1.5" stroke-linecap="round" stroke-linejoin="round" stroke-miterlimit="10" d="
		M132.207,21.292c-5.294,2.252-8.852,7.226-9.193,12.868l0.049,6.025c-0.021,1.543,0.688,3.01,1.915,3.977
		c0.585,0.548,1.453,0.688,2.188,0.358c0.082,0.809,0.548,1.532,1.259,1.956c5.202,2.633,10.986,3.975,16.844,3.902
		c1.898-0.027,3.762-0.512,5.424-1.414c0.57,0.566,1.447,0.705,2.179,0.35c1.612-0.787,2.901-2.104,3.635-3.725V35.94
		c0.145-5.96-3.51-11.381-9.168-13.595l-0.084-0.004c3.887-3.817,3.875-9.993-0.023-13.795c-3.896-3.805-10.21-3.794-14.096,0.021
		C129.641,11.998,129.248,17.414,132.207,21.292z"/>
	<path fill="none" stroke="#555555" stroke-width="1.5" stroke-linecap="round" stroke-linejoin="round" stroke-miterlimit="10" d="
		M127.167,44.521c0.423-6.126,1.48-12.503,3.066-18.433"/>
	<path fill="none" stroke="#555555" stroke-width="1.5" stroke-linecap="round" stroke-linejoin="round" stroke-miterlimit="10" d="
		M150.697,48.969c-0.147-6.495-0.643-13.069-1.448-19.513"/>
	<path fill="none" stroke="#555555" stroke-width="1.5" stroke-linecap="round" stroke-linejoin="round" stroke-miterlimit="10" d="
		M132.231,21.129c3.311,4.316,9.563,5.193,13.978,1.956c0.379-0.277,0.731-0.581,1.065-0.909"/>
</g>
<g>
	<rect x="587.198" y="4.336" fill="none" width="50.047" height="30.319"/>
	<path fill="none" stroke="#373773" stroke-width="1.5" stroke-linecap="round" stroke-linejoin="round" stroke-miterlimit="10" d="
		M603.621,21.295c-5.342,2.194-8.918,7.2-9.191,12.862l0.053,6.031c-0.021,1.543,0.686,3.009,1.914,3.977
		c0.586,0.548,1.451,0.688,2.188,0.358c0.081,0.809,0.55,1.531,1.261,1.955 M599.841,46.478c5.202,2.633,10.984,3.975,16.845,3.901
		c1.898-0.024,3.765-0.514,5.427-1.412c0.567,0.562,1.444,0.705,2.174,0.349c1.617-0.787,2.906-2.104,3.637-3.726V34.954
		c-0.298-5.586-3.871-10.499-9.168-12.605"/>
	<path fill="none" stroke="#555555" stroke-width="1.5" stroke-linecap="round" stroke-linejoin="round" stroke-miterlimit="10" d="
		M621.577,15.455c0-5.387-4.459-9.752-9.962-9.752s-9.963,4.365-9.963,9.752c0,5.384,4.46,9.75,9.963,9.75
		S621.577,20.839,621.577,15.455z"/>
	
		<path fill="#BBEF6F" stroke="#000000" stroke-width="1.5" stroke-linecap="round" stroke-linejoin="round" stroke-miterlimit="10" d="
		M603.621,21.295c-5.294,2.253-8.847,7.227-9.191,12.868l0.053,6.025c-0.021,1.543,0.686,3.009,1.914,3.977
		c0.586,0.548,1.451,0.688,2.188,0.358c0.081,0.809,0.55,1.531,1.261,1.955c5.202,2.633,10.984,3.974,16.847,3.9
		c1.896-0.023,3.763-0.514,5.425-1.412c0.567,0.562,1.444,0.705,2.174,0.35c1.617-0.787,2.906-2.104,3.637-3.727v-9.647
		c0.146-5.96-3.512-11.381-9.168-13.596l-0.084-0.004c3.887-3.817,3.875-9.992-0.021-13.795c-3.896-3.805-10.211-3.794-14.099,0.021
		C601.054,12.001,600.662,17.417,603.621,21.295z"/>
	<path fill="none" stroke="#555555" stroke-width="1.5" stroke-linecap="round" stroke-linejoin="round" stroke-miterlimit="10" d="
		M598.581,44.523c0.425-6.126,1.485-12.503,3.071-18.435"/>
	<path fill="none" stroke="#555555" stroke-width="1.5" stroke-linecap="round" stroke-linejoin="round" stroke-miterlimit="10" d="
		M622.113,48.969c-0.15-6.492-0.646-13.066-1.453-19.511"/>
	<path fill="none" stroke="#555555" stroke-width="1.5" stroke-linecap="round" stroke-linejoin="round" stroke-miterlimit="10" d="
		M603.647,21.131c3.307,4.315,9.562,5.192,13.974,1.956c0.38-0.277,0.736-0.581,1.07-0.909"/>
</g>
<rect x="1" y="61.794" fill="none" width="131.333" height="20.895"/>
<rect x="295.719" y="61.794" fill="none" width="131.334" height="20.895"/>
<rect x="590.101" y="61.795" fill="none" width="131.334" height="20.896"/>
<g>
	<path d="M675.74,63.384l-2.352,14.008h-1.323l2.103-12.433l-3.804,2.269l-0.588-0.925l4.854-2.919H675.74z"/>
	<path d="M694.559,67.312l-5.816,10.793c-0.715,1.33-1.356,2.282-1.933,2.856c-0.798,0.798-1.736,1.196-2.813,1.196
		c-0.572,0-1.195-0.168-1.867-0.504l0.462-0.944c0.518,0.224,0.985,0.336,1.405,0.336c0.741,0,1.406-0.294,1.995-0.882
		c0.405-0.406,0.967-1.254,1.682-2.541l-2.396-10.312h1.345l1.995,8.758l4.619-8.758h1.323V67.312L694.559,67.312z"/>
	<path d="M703.463,69.41c0,0.812-0.329,1.548-0.987,2.205c-1.134,1.135-3.262,1.8-6.384,1.995c0.026,0.867,0.305,1.566,0.829,2.101
		c0.523,0.532,1.234,0.798,2.132,0.798c0.77,0,1.624-0.259,2.562-0.777l0.546,0.884c-0.225,0.21-0.614,0.411-1.177,0.608
		c-0.7,0.267-1.386,0.398-2.058,0.398c-1.246,0-2.243-0.368-2.992-1.104c-0.749-0.734-1.124-1.74-1.124-3.015
		c0-1.765,0.543-3.278,1.628-4.547s2.453-1.899,4.105-1.899c0.824,0,1.519,0.211,2.077,0.631
		C703.183,68.108,703.463,68.683,703.463,69.41z M702.243,69.494c0-0.435-0.165-0.772-0.493-1.019s-0.744-0.367-1.248-0.367
		c-1.232,0-2.275,0.539-3.131,1.617c-0.698,0.881-1.111,1.848-1.237,2.896c0.854-0.042,1.75-0.188,2.688-0.439
		c1.315-0.352,2.254-0.807,2.813-1.365C702.041,70.412,702.243,69.972,702.243,69.494z"/>
	<path d="M713.775,67.981l-1.513,9.408h-1.154l0.188-1.113c-0.98,0.883-1.981,1.324-3.003,1.324c-1.036,0-1.869-0.36-2.499-1.082
		c-0.632-0.723-0.945-1.656-0.945-2.805c0-1.849,0.497-3.4,1.491-4.662c1.05-1.328,2.408-1.994,4.072-1.994
		C711.784,67.06,712.906,67.367,713.775,67.981z M712.43,68.676c-0.588-0.336-1.311-0.504-2.163-0.504
		c-1.231,0-2.229,0.519-2.992,1.554c-0.764,1.037-1.145,2.289-1.145,3.76c0,0.799,0.175,1.472,0.523,2.018
		c0.436,0.658,1.07,0.986,1.911,0.986c1.062,0,2.001-0.447,2.812-1.346L712.43,68.676z"/>
	<path d="M722.216,67.29l-0.42,1.05c-0.322-0.069-0.604-0.104-0.843-0.104c-1.287,0-2.464,0.742-3.525,2.228l-1.176,6.931h-1.263
		l1.701-10.08h1.197l-0.252,1.533c1.05-1.203,2.212-1.807,3.483-1.807C721.642,67.038,722.006,67.122,722.216,67.29z"/>
</g>
<g>
	<path d="M13.456,66.472c0,0.965-0.268,1.875-0.798,2.729c-0.364,0.603-1.017,1.373-1.953,2.312
		c-1.357,1.357-3.145,2.926-5.354,4.703h6.825l-0.211,1.178H3.46l0.188-1.113c2.422-1.987,4.354-3.702,5.796-5.146
		c1.724-1.723,2.583-3.213,2.583-4.474c0-0.657-0.232-1.216-0.701-1.669c-0.472-0.455-1.068-0.684-1.798-0.684
		c-1.134,0-2.254,0.44-3.358,1.322l-0.692-0.798c0.252-0.294,0.65-0.597,1.196-0.903c0.952-0.546,1.946-0.818,2.98-0.818
		c1.094,0,1.998,0.314,2.722,0.945C13.096,64.687,13.456,65.491,13.456,66.472z"/>
	<path d="M35.486,69.537c0,0.278-0.075,0.875-0.229,1.784l-1.029,6.068h-1.26l1.028-5.881c0.168-0.966,0.252-1.561,0.252-1.783
		c0-1.052-0.597-1.576-1.784-1.576c-1.064,0-2.136,0.449-3.214,1.345c0,0.309-0.077,0.918-0.23,1.827L27.99,77.39H26.73l1.029-5.88
		c0.168-0.966,0.252-1.561,0.252-1.784c0-0.519-0.168-0.91-0.504-1.177c-0.336-0.266-0.764-0.399-1.281-0.399
		c-1.036,0-2.086,0.437-3.148,1.304l-1.364,7.938h-1.261l1.723-10.08h1.196l-0.17,0.945c1.093-0.798,2.177-1.195,3.255-1.195
		c1.219,0,2.079,0.461,2.583,1.385c1.204-0.924,2.422-1.385,3.652-1.385c0.952,0,1.682,0.278,2.187,0.84
		C35.282,68.36,35.486,68.906,35.486,69.537z"/>
	<path d="M46.637,71.091c0,1.75-0.497,3.248-1.491,4.494c-1.062,1.344-2.423,2.016-4.074,2.016c-1.146,0-2.07-0.362-2.771-1.092
		c-0.701-0.728-1.051-1.708-1.051-2.939c0-1.75,0.497-3.246,1.491-4.493c1.062-1.345,2.422-2.017,4.072-2.017
		c1.147,0,2.071,0.363,2.771,1.092C46.286,68.879,46.637,69.858,46.637,71.091z M45.334,71.237c0-0.896-0.21-1.616-0.63-2.163
		c-0.462-0.615-1.127-0.925-1.995-0.925c-1.26,0-2.289,0.582-3.087,1.744c-0.714,1.021-1.07,2.196-1.07,3.526
		c0,0.896,0.21,1.617,0.63,2.163c0.462,0.616,1.127,0.924,1.995,0.924c1.26,0,2.288-0.581,3.087-1.742
		C44.978,73.744,45.334,72.567,45.334,71.237z"/>
	<path d="M57.073,69.537c0,0.278-0.077,0.875-0.231,1.784l-1.028,6.068h-1.26l1.028-5.881c0.168-0.966,0.252-1.561,0.252-1.783
		c0-1.052-0.65-1.576-1.953-1.576c-1.105,0-2.177,0.436-3.213,1.303l-1.364,7.938h-1.261l1.723-10.08h1.196l-0.168,0.945
		c1.093-0.798,2.212-1.197,3.358-1.197c0.868,0,1.571,0.221,2.11,0.661C56.804,68.161,57.073,68.767,57.073,69.537z"/>
	<path d="M65.599,67.312l-0.168,1.028h-3.234l-0.942,5.479c-0.154,0.896-0.231,1.437-0.231,1.617c0,0.729,0.413,1.092,1.239,1.092
		c0.364,0,0.861-0.139,1.491-0.42l0.42,0.904c-0.812,0.404-1.526,0.607-2.145,0.607c-0.63,0-1.152-0.146-1.572-0.439
		c-0.49-0.352-0.735-0.842-0.735-1.472c0-0.183,0.077-0.724,0.231-1.617l0.984-5.754h-1.764l0.168-1.028h1.764l0.483-2.854h1.26
		l-0.483,2.854h3.234V67.312z"/>
	<path d="M75.448,69.537c0,0.278-0.075,0.875-0.229,1.784L74.19,77.39h-1.26l1.028-5.881c0.168-0.966,0.252-1.561,0.252-1.783
		c0-1.052-0.65-1.576-1.953-1.576c-1.105,0-2.177,0.436-3.213,1.303L67.68,77.39h-1.261L69,62.271h1.261l-1.029,5.943
		c0.968-0.771,2.064-1.154,3.297-1.154c0.868,0,1.571,0.222,2.11,0.66C75.178,68.161,75.448,68.767,75.448,69.537z"/>
	<path d="M84.246,68.065l-0.672,0.841c-0.646-0.519-1.358-0.776-2.144-0.776c-0.799,0-1.415,0.217-1.849,0.65
		c-0.28,0.279-0.42,0.63-0.42,1.051c0,0.336,0.119,0.623,0.355,0.859c0.237,0.237,0.738,0.572,1.501,0.998
		c0.765,0.428,1.308,0.795,1.628,1.104c0.504,0.504,0.756,1.078,0.756,1.723c0,0.909-0.336,1.654-1.008,2.235
		s-1.589,0.872-2.751,0.872c-1.272,0-2.381-0.371-3.316-1.113l0.649-0.902c0.882,0.604,1.771,0.902,2.667,0.902
		c0.604,0,1.12-0.119,1.556-0.357c0.572-0.336,0.859-0.84,0.859-1.512c0-0.546-0.364-1.057-1.092-1.533
		c-0.688-0.403-1.373-0.812-2.059-1.217c-0.729-0.561-1.094-1.212-1.094-1.953c0-0.869,0.34-1.566,1.021-2.101
		c0.679-0.532,1.516-0.798,2.51-0.798C82.678,67.038,83.645,67.381,84.246,68.065z"/>
</g>
<g>
	<path d="M338.949,64.539l-0.798,0.817c-0.742-0.729-1.631-1.092-2.667-1.092c-1.188,0-2.198,0.42-3.021,1.26
		c-1.263,1.273-2.019,3.158-2.271,5.648c0.336-0.896,0.886-1.6,1.648-2.109c0.764-0.512,1.604-0.768,2.529-0.768
		c1.105,0,1.98,0.303,2.625,0.902c0.699,0.645,1.052,1.548,1.052,2.709c0,1.566-0.479,2.904-1.431,4.012
		c-0.993,1.146-2.23,1.723-3.717,1.723c-1.134,0-2.063-0.363-2.793-1.093c-0.868-0.866-1.302-2.185-1.302-3.946
		c0-1.582,0.271-3.108,0.817-4.578c0.52-1.387,1.178-2.479,1.976-3.275c1.092-1.093,2.408-1.639,3.948-1.639
		c0.979,0,1.817,0.209,2.52,0.63C338.476,63.992,338.77,64.259,338.949,64.539z M336.726,72.015c0-0.798-0.21-1.435-0.63-1.91
		c-0.42-0.477-1.022-0.715-1.808-0.715c-1.093,0-2.013,0.433-2.762,1.291c-0.749,0.861-1.124,1.832-1.124,2.909
		c0,0.925,0.226,1.647,0.672,2.173c0.448,0.525,1.078,0.788,1.893,0.788c1.134,0,2.062-0.489,2.793-1.47
		C336.404,74.198,336.726,73.177,336.726,72.015z"/>
	<path d="M360.183,69.537c0,0.278-0.077,0.875-0.23,1.784l-1.027,6.068h-1.262l1.028-5.881c0.168-0.966,0.252-1.561,0.252-1.783
		c0-1.052-0.595-1.576-1.784-1.576c-1.062,0-2.136,0.449-3.214,1.345c0,0.309-0.077,0.918-0.229,1.827l-1.029,6.068h-1.26
		l1.027-5.881c0.169-0.966,0.254-1.561,0.254-1.783c0-0.52-0.17-0.91-0.506-1.178c-0.336-0.266-0.764-0.398-1.279-0.398
		c-1.036,0-2.086,0.436-3.15,1.303l-1.364,7.938h-1.261l1.723-10.08h1.196l-0.168,0.945c1.093-0.798,2.177-1.197,3.255-1.197
		c1.221,0,2.079,0.463,2.583,1.387c1.204-0.924,2.422-1.387,3.654-1.387c0.952,0,1.68,0.28,2.185,0.84
		C359.98,68.36,360.183,68.906,360.183,69.537z"/>
	<path d="M371.334,71.091c0,1.75-0.497,3.248-1.491,4.494c-1.064,1.344-2.423,2.016-4.074,2.016c-1.148,0-2.072-0.362-2.771-1.092
		c-0.699-0.728-1.051-1.708-1.051-2.939c0-1.75,0.497-3.246,1.491-4.493c1.063-1.345,2.422-2.017,4.074-2.017
		c1.146,0,2.071,0.363,2.771,1.092C370.984,68.879,371.334,69.858,371.334,71.091z M370.031,71.237c0-0.896-0.21-1.616-0.63-2.163
		c-0.462-0.615-1.127-0.925-1.995-0.925c-1.26,0-2.289,0.582-3.087,1.744c-0.714,1.021-1.07,2.196-1.07,3.526
		c0,0.896,0.212,1.617,0.632,2.163c0.462,0.616,1.127,0.924,1.993,0.924c1.262,0,2.288-0.581,3.089-1.742
		C369.675,73.744,370.031,72.567,370.031,71.237z"/>
	<path d="M381.771,69.537c0,0.278-0.077,0.875-0.231,1.784l-1.026,6.068h-1.26l1.026-5.881c0.168-0.966,0.252-1.561,0.252-1.783
		c0-1.052-0.648-1.576-1.953-1.576c-1.104,0-2.177,0.436-3.213,1.303l-1.362,7.938h-1.263l1.725-10.08h1.194l-0.168,0.945
		c1.095-0.798,2.212-1.197,3.36-1.197c0.868,0,1.571,0.221,2.11,0.661C381.501,68.161,381.771,68.767,381.771,69.537z"/>
	<path d="M390.296,67.312l-0.168,1.028h-3.234l-0.944,5.479c-0.152,0.896-0.229,1.437-0.229,1.617c0,0.729,0.413,1.092,1.237,1.092
		c0.364,0,0.861-0.139,1.491-0.42l0.42,0.904c-0.812,0.404-1.524,0.607-2.143,0.607c-0.63,0-1.154-0.146-1.574-0.439
		c-0.49-0.352-0.733-0.842-0.733-1.472c0-0.183,0.075-0.724,0.229-1.617l0.986-5.754h-1.766l0.168-1.028h1.766l0.481-2.854h1.262
		l-0.483,2.854h3.234V67.312L390.296,67.312z"/>
	<path d="M400.145,69.537c0,0.278-0.077,0.875-0.231,1.784l-1.026,6.068h-1.261l1.027-5.881c0.168-0.966,0.252-1.561,0.252-1.783
		c0-1.052-0.648-1.576-1.953-1.576c-1.104,0-2.177,0.436-3.213,1.303l-1.363,7.938h-1.262l2.583-15.119h1.263l-1.029,5.942
		c0.966-0.771,2.062-1.155,3.297-1.155c0.868,0,1.571,0.221,2.11,0.661C399.875,68.161,400.145,68.767,400.145,69.537z"/>
	<path d="M408.944,68.065l-0.672,0.841c-0.645-0.519-1.358-0.776-2.142-0.776c-0.801,0-1.415,0.217-1.851,0.65
		c-0.278,0.279-0.42,0.63-0.42,1.051c0,0.336,0.119,0.623,0.357,0.859c0.235,0.237,0.736,0.572,1.501,0.998
		c0.763,0.428,1.306,0.795,1.628,1.104c0.504,0.504,0.756,1.078,0.756,1.723c0,0.909-0.336,1.654-1.008,2.235
		s-1.589,0.872-2.751,0.872c-1.274,0-2.381-0.371-3.318-1.113l0.651-0.902c0.882,0.604,1.771,0.902,2.667,0.902
		c0.602,0,1.12-0.119,1.554-0.357c0.574-0.336,0.861-0.84,0.861-1.512c0-0.546-0.364-1.057-1.094-1.533
		c-0.687-0.403-1.371-0.812-2.059-1.217c-0.728-0.561-1.092-1.212-1.092-1.953c0-0.869,0.339-1.566,1.019-2.101
		c0.681-0.532,1.518-0.798,2.512-0.798C407.375,67.038,408.342,67.381,408.944,68.065z"/>
</g>
<g>
	<rect x="419.224" y="4.336" fill="none" width="50.047" height="30.319"/>
	<path fill="none" stroke="#373773" stroke-width="1.5" stroke-linecap="round" stroke-linejoin="round" stroke-miterlimit="10" d="
		M435.647,21.295c-5.342,2.194-8.918,7.2-9.193,12.862l0.055,6.031c-0.021,1.543,0.686,3.009,1.914,3.976
		c0.586,0.549,1.449,0.689,2.188,0.359c0.081,0.809,0.548,1.531,1.259,1.955 M431.865,46.479c5.202,2.633,10.986,3.973,16.847,3.898
		c1.896-0.021,3.765-0.514,5.427-1.412c0.565,0.562,1.442,0.705,2.174,0.352c1.617-0.787,2.906-2.105,3.635-3.729V34.954
		c-0.297-5.586-3.871-10.499-9.168-12.605"/>
	<path fill="none" stroke="#555555" stroke-width="1.5" stroke-linecap="round" stroke-linejoin="round" stroke-miterlimit="10" d="
		M453.603,15.455c0-5.387-4.459-9.752-9.962-9.752s-9.963,4.365-9.963,9.752c0,5.384,4.46,9.75,9.963,9.75
		S453.603,20.839,453.603,15.455z"/>
	
		<path fill="#BBEF6F" stroke="#000000" stroke-width="1.5" stroke-linecap="round" stroke-linejoin="round" stroke-miterlimit="10" d="
		M435.647,21.295c-5.294,2.253-8.847,7.227-9.193,12.868l0.055,6.025c-0.021,1.543,0.686,3.009,1.914,3.976
		c0.586,0.549,1.449,0.689,2.188,0.359c0.081,0.809,0.548,1.531,1.259,1.955c5.202,2.633,10.986,3.975,16.849,3.9
		c1.896-0.023,3.763-0.514,5.425-1.412c0.565,0.562,1.444,0.705,2.174,0.35c1.617-0.787,2.906-2.104,3.635-3.727v-9.647
		c0.146-5.96-3.51-11.381-9.168-13.596l-0.084-0.004c3.889-3.817,3.875-9.992-0.021-13.795c-3.897-3.805-10.211-3.794-14.101,0.021
		C433.075,12.001,432.688,17.417,435.647,21.295z"/>
	<path fill="none" stroke="#555555" stroke-width="1.5" stroke-linecap="round" stroke-linejoin="round" stroke-miterlimit="10" d="
		M430.607,44.523c0.423-6.126,1.485-12.503,3.071-18.435"/>
	<path fill="none" stroke="#555555" stroke-width="1.5" stroke-linecap="round" stroke-linejoin="round" stroke-miterlimit="10" d="
		M454.136,48.969c-0.152-6.492-0.646-13.066-1.453-19.511"/>
	<path fill="none" stroke="#555555" stroke-width="1.5" stroke-linecap="round" stroke-linejoin="round" stroke-miterlimit="10" d="
		M435.67,21.131c3.307,4.315,9.562,5.192,13.974,1.956c0.379-0.277,0.736-0.581,1.07-0.909"/>
</g>
<g>
	<rect x="256.18" y="5.747" fill="none" width="50.051" height="30.32"/>
	<path fill="none" stroke="#373773" stroke-width="1.5" stroke-linecap="round" stroke-linejoin="round" stroke-miterlimit="10" d="
		M273.651,21.293c-5.341,2.194-8.918,7.2-9.191,12.862l0.049,6.031c-0.021,1.543,0.688,3.01,1.915,3.977
		c0.585,0.548,1.453,0.689,2.188,0.359c0.082,0.808,0.55,1.531,1.261,1.954 M269.87,46.478c5.2,2.633,10.984,3.974,16.844,3.901
		c1.896-0.026,3.765-0.512,5.424-1.414c0.57,0.566,1.447,0.705,2.177,0.351c1.614-0.787,2.903-2.104,3.635-3.725V34.952
		c-0.297-5.586-3.869-10.499-9.166-12.606"/>
	<path fill="none" stroke="#555555" stroke-width="1.5" stroke-linecap="round" stroke-linejoin="round" stroke-miterlimit="10" d="
		M291.607,15.453c0-5.386-4.459-9.751-9.962-9.751c-5.506,0-9.966,4.365-9.966,9.751c0,5.384,4.46,9.75,9.966,9.75
		C287.148,25.203,291.607,20.837,291.607,15.453z"/>
	
		<path fill="#BBEF6F" stroke="#000000" stroke-width="1.5" stroke-linecap="round" stroke-linejoin="round" stroke-miterlimit="10" d="
		M273.651,21.293c-5.294,2.252-8.85,7.226-9.191,12.868l0.049,6.025c-0.021,1.543,0.688,3.01,1.915,3.977
		c0.585,0.548,1.453,0.689,2.188,0.359c0.082,0.808,0.55,1.531,1.261,1.954c5.2,2.633,10.984,3.975,16.844,3.902
		c1.896-0.027,3.762-0.512,5.424-1.414c0.57,0.566,1.447,0.705,2.177,0.35c1.614-0.787,2.903-2.104,3.635-3.724v-9.648
		c0.146-5.961-3.51-11.381-9.166-13.595l-0.085-0.004c3.888-3.817,3.875-9.993-0.022-13.795c-3.896-3.805-10.21-3.794-14.096,0.021
		C271.084,11.999,270.692,17.415,273.651,21.293z"/>
	<path fill="none" stroke="#555555" stroke-width="1.5" stroke-linecap="round" stroke-linejoin="round" stroke-miterlimit="10" d="
		M268.611,44.522c0.425-6.127,1.482-12.504,3.068-18.434"/>
	<path fill="none" stroke="#555555" stroke-width="1.5" stroke-linecap="round" stroke-linejoin="round" stroke-miterlimit="10" d="
		M292.14,48.969c-0.147-6.493-0.643-13.067-1.45-19.512"/>
	<path fill="none" stroke="#555555" stroke-width="1.5" stroke-linecap="round" stroke-linejoin="round" stroke-miterlimit="10" d="
		M273.674,21.13c3.309,4.316,9.562,5.193,13.976,1.956c0.379-0.277,0.733-0.581,1.067-0.909"/>
</g>
<g>
	<path d="M45.474,23.878H33.351v-2.322c1.478-1.188,3.24-2.808,5.292-4.859c2.27-2.271,3.402-4.141,3.402-5.616
		c0-0.936-0.284-1.674-0.853-2.214c-0.565-0.54-1.326-0.811-2.28-0.811c-1.388,0-2.772,0.612-4.158,1.836l-1.593-1.836
		c0.322-0.432,0.862-0.882,1.618-1.35c1.352-0.828,2.837-1.242,4.455-1.242c1.729,0,3.146,0.5,4.252,1.499
		c1.106,0.999,1.661,2.335,1.661,4.009c0,1.261-0.358,2.476-1.08,3.646c-0.54,0.882-1.402,1.917-2.592,3.104
		c-1.62,1.62-2.934,2.809-3.94,3.564h7.938L45.474,23.878L45.474,23.878z"/>
	<path d="M54.115,14.968h-1.917V8.002l-2.025,1.296l-0.945-1.377l3.402-2.214h1.485V14.968z M64.591,6.004L52.063,24.986
		l-1.646-1.107L62.944,4.897L64.591,6.004z M67.399,23.878h-6.345v-1.431c0.738-0.612,1.625-1.432,2.66-2.457
		c1.035-1.026,1.553-1.891,1.553-2.593c0-0.863-0.439-1.296-1.323-1.296c-0.61,0-1.296,0.334-2.052,0.999l-0.972-1.161
		c0.756-0.972,1.816-1.458,3.186-1.458c0.9,0,1.647,0.262,2.241,0.783c0.594,0.522,0.891,1.225,0.891,2.106
		c0,1.062-0.61,2.205-1.836,3.429c-0.414,0.414-0.943,0.892-1.593,1.431H67.4L67.399,23.878L67.399,23.878z"/>
</g>
<g>
	<path d="M169.051,18.668c0,1.692-0.59,3.047-1.769,4.063c-1.181,1.018-2.77,1.525-4.768,1.525c-1.564,0-2.952-0.307-4.158-0.918
		c-0.702-0.342-1.195-0.692-1.483-1.053l1.431-1.972c0.684,0.433,1.071,0.676,1.161,0.729c0.881,0.432,1.791,0.648,2.727,0.648
		c1.206,0,2.139-0.266,2.795-0.797c0.657-0.531,0.985-1.246,0.985-2.146c0-0.792-0.27-1.44-0.81-1.944
		c-0.666-0.611-1.953-0.918-3.861-0.918h-0.567v-2.483h0.405c0.954,0,1.647-0.045,2.079-0.136c0.738-0.144,1.34-0.459,1.809-0.944
		c0.434-0.433,0.648-0.99,0.648-1.675c0-0.756-0.288-1.381-0.864-1.876s-1.341-0.742-2.295-0.742c-1.386,0-2.673,0.513-3.861,1.539
		l-1.483-1.782c0.27-0.36,0.772-0.756,1.512-1.188c1.26-0.756,2.683-1.134,4.267-1.134c1.69,0,3.067,0.459,4.132,1.377
		c1.062,0.918,1.593,2.115,1.593,3.591c0,0.954-0.261,1.827-0.783,2.619c-0.594,0.864-1.35,1.368-2.268,1.512
		c1.062,0.127,1.897,0.577,2.511,1.351S169.051,17.606,169.051,18.668z"/>
</g>
<g>
	<path d="M263.21,17.83c0,1.962-0.621,3.523-1.863,4.685c-1.242,1.161-2.916,1.741-5.021,1.741c-1.514,0-2.862-0.297-4.052-0.891
		c-0.702-0.36-1.179-0.693-1.431-0.999l1.458-1.972c1.278,0.847,2.556,1.27,3.834,1.27c1.224,0,2.196-0.314,2.916-0.945
		c0.72-0.63,1.08-1.503,1.08-2.619c0-1.062-0.315-1.907-0.945-2.538c-0.702-0.701-1.719-1.053-3.051-1.053
		c-1.116,0-2.106,0.279-2.97,0.837l-1.055-0.647v-8.83h10.478v2.538h-7.614v4.022c0.594-0.252,1.341-0.378,2.241-0.378
		c1.818,0,3.271,0.531,4.361,1.593C262.666,14.707,263.21,16.102,263.21,17.83z"/>
</g>
<g>
	<path d="M425.559,8.245l-7.155,15.633h-3.321l7.236-15.417h-9.612V5.869h12.854L425.559,8.245L425.559,8.245z"/>
</g>
<g>
	<path d="M530.6,18.83c0,1.674-0.6,2.997-1.796,3.969c-1.197,0.972-2.795,1.458-4.792,1.458c-2.035,0-3.664-0.486-4.89-1.458
		c-1.224-0.972-1.836-2.295-1.836-3.969c0-1.08,0.293-2.025,0.878-2.835c0.584-0.811,1.383-1.313,2.392-1.513
		c-0.883-0.251-1.56-0.746-2.025-1.484c-0.45-0.684-0.675-1.485-0.675-2.403c0-1.548,0.558-2.79,1.674-3.726
		s2.583-1.404,4.401-1.404c1.836,0,3.314,0.464,4.439,1.391c1.124,0.927,1.688,2.155,1.688,3.686c0,0.972-0.239,1.813-0.716,2.524
		c-0.479,0.711-1.13,1.184-1.957,1.417C529.529,15.004,530.6,16.454,530.6,18.83z M527.684,18.721c0-0.918-0.324-1.643-0.973-2.173
		c-0.647-0.531-1.559-0.797-2.729-0.797c-1.188,0-2.11,0.266-2.768,0.797c-0.657,0.53-0.985,1.246-0.985,2.146
		c0,0.936,0.333,1.688,0.999,2.254c0.665,0.567,1.604,0.851,2.808,0.851c1.152,0,2.05-0.283,2.688-0.851
		C527.364,20.382,527.684,19.639,527.684,18.721z M527.17,10.648c0-0.791-0.288-1.444-0.863-1.957
		c-0.577-0.513-1.359-0.77-2.35-0.77c-0.974,0-1.753,0.261-2.337,0.783c-0.586,0.522-0.878,1.161-0.878,1.917
		c0,0.81,0.299,1.476,0.893,1.998c0.595,0.522,1.387,0.783,2.377,0.783c0.953,0,1.718-0.257,2.295-0.77
		C526.882,12.12,527.17,11.458,527.17,10.648z"/>
</g>
<g>
	<path d="M635.494,23.879h-3.076V9.488l-4.133,2.754l-1.458-2.188l6.236-4.185h2.431V23.879L635.494,23.879z"/>
	<path d="M656.854,14.807c0,2.935-0.635,5.243-1.904,6.926c-1.269,1.684-3.037,2.524-5.305,2.524c-2.251,0-4.01-0.846-5.279-2.538
		c-1.269-1.691-1.901-3.996-1.901-6.912c0-2.844,0.644-5.111,1.931-6.804c1.287-1.691,3.028-2.538,5.225-2.538
		c2.231,0,3.996,0.847,5.292,2.538C656.203,9.695,656.854,11.963,656.854,14.807z M653.776,14.888c0-2.231-0.359-3.938-1.08-5.116
		c-0.721-1.179-1.72-1.769-2.997-1.769c-1.312,0-2.336,0.594-3.062,1.782c-0.729,1.188-1.095,2.898-1.095,5.13
		c0,2.196,0.354,3.879,1.065,5.049s1.705,1.755,2.983,1.755c1.332,0,2.36-0.585,3.092-1.755
		C653.408,18.794,653.776,17.102,653.776,14.888z"/>
</g>
<g>
	<path d="M673.822,23.581h-1.87v-4.692c0-0.952-0.113-1.564-0.34-1.836s-0.566-0.408-1.02-0.408c-0.578,0-1.196,0.215-1.854,0.646
		c0.079,0.227,0.119,0.856,0.119,1.887v4.403h-1.853v-4.573c0-1.076-0.131-1.751-0.392-2.023c-0.215-0.227-0.526-0.34-0.935-0.34
		c-0.612,0-1.207,0.193-1.785,0.578v6.358h-1.87v-8.296h1.632v0.612c0.771-0.566,1.581-0.85,2.432-0.85
		c0.86,0,1.541,0.312,2.04,0.935c0.951-0.623,1.869-0.935,2.754-0.935c0.872,0,1.558,0.25,2.057,0.748
		c0.396,0.397,0.657,0.913,0.782,1.547c0.067,0.396,0.102,1.094,0.102,2.091V23.581z"/>
	<path d="M683.664,19.382c0,1.315-0.386,2.377-1.156,3.188c-0.771,0.811-1.773,1.216-3.009,1.216c-1.19,0-2.156-0.399-2.898-1.199
		c-0.742-0.799-1.113-1.844-1.113-3.136c0-1.303,0.385-2.363,1.155-3.179c0.771-0.816,1.774-1.224,3.01-1.224
		c1.189,0,2.156,0.4,2.898,1.199S683.664,18.09,683.664,19.382z M681.778,19.45c0-0.85-0.21-1.539-0.629-2.065
		c-0.42-0.527-0.952-0.791-1.599-0.791c-0.657,0-1.185,0.255-1.581,0.765c-0.396,0.51-0.595,1.185-0.595,2.023
		c0,0.85,0.21,1.539,0.629,2.066c0.419,0.527,0.958,0.791,1.615,0.791c0.68,0,1.21-0.252,1.59-0.757
		C681.587,20.978,681.778,20.3,681.778,19.45z"/>
	<path d="M692.471,23.581h-1.87v-4.539c0-1.099-0.125-1.773-0.374-2.023c-0.25-0.249-0.602-0.374-1.055-0.374
		c-0.577,0-1.195,0.204-1.853,0.612v6.324h-1.87v-8.296h1.632v0.612c0.782-0.566,1.604-0.85,2.465-0.85
		c0.873,0,1.564,0.255,2.074,0.765c0.386,0.385,0.635,0.861,0.748,1.428c0.068,0.34,0.103,0.907,0.103,1.7V23.581z"/>
	<path d="M699.815,23.309c-0.521,0.329-1.167,0.493-1.938,0.493c-0.872,0-1.541-0.232-2.006-0.697
		c-0.295-0.294-0.481-0.668-0.561-1.122c-0.046-0.249-0.068-0.725-0.068-1.428v-3.74h-1.444v-1.53h1.444v-2.329h1.87v2.329h2.448
		v1.53h-2.448v3.91c0,0.487,0.051,0.827,0.153,1.02c0.158,0.317,0.481,0.476,0.969,0.476c0.283,0,0.651-0.074,1.105-0.221
		L699.815,23.309z"/>
	<path d="M708.604,23.581h-1.87v-4.539c0-1.099-0.125-1.773-0.374-2.023c-0.25-0.249-0.602-0.374-1.055-0.374
		c-0.577,0-1.195,0.204-1.853,0.612v6.324h-1.87V11.29h1.87v4.454c0.736-0.465,1.479-0.697,2.227-0.697
		c0.873,0,1.564,0.255,2.074,0.765c0.386,0.385,0.635,0.861,0.748,1.428c0.068,0.34,0.103,0.907,0.103,1.7V23.581z"/>
	<path d="M716.236,21.201c0,0.805-0.295,1.439-0.884,1.904c-0.589,0.465-1.349,0.697-2.278,0.697c-0.747,0-1.462-0.136-2.142-0.408
		c-0.419-0.17-0.714-0.329-0.884-0.476l0.663-1.224c0.827,0.431,1.553,0.646,2.176,0.646c0.465,0,0.821-0.096,1.071-0.289
		c0.249-0.193,0.374-0.437,0.374-0.731c0-0.294-0.159-0.538-0.477-0.731c-0.147-0.102-0.584-0.306-1.309-0.612
		c-0.669-0.283-1.15-0.55-1.445-0.799c-0.499-0.431-0.748-0.98-0.748-1.649c0-0.748,0.283-1.349,0.851-1.802
		c0.566-0.453,1.309-0.68,2.227-0.68c1.167,0,2.062,0.25,2.686,0.748l-0.646,1.19c-0.657-0.374-1.298-0.561-1.921-0.561
		c-0.884,0-1.326,0.312-1.326,0.935c0,0.272,0.142,0.504,0.425,0.697c0.17,0.113,0.521,0.283,1.055,0.51
		c0.838,0.352,1.404,0.646,1.699,0.884C715.958,19.892,716.236,20.476,716.236,21.201z"/>
</g>
</svg>
