<?xml version="1.0" encoding="utf-8"?>
<!-- Generator: Adobe Illustrator 16.0.4, SVG Export Plug-In . SVG Version: 6.00 Build 0)  -->
<!DOCTYPE svg PUBLIC "-//W3C//DTD SVG 1.1//EN" "http://www.w3.org/Graphics/SVG/1.1/DTD/svg11.dtd">
<svg version="1.1" id="Layer_1" xmlns="http://www.w3.org/2000/svg" xmlns:xlink="http://www.w3.org/1999/xlink" x="0px" y="0px"
	 width="476px" height="110.115px" viewBox="0 0 476 110.115" enable-background="new 0 0 476 110.115" xml:space="preserve">
<linearGradient id="SVGID_1_" gradientUnits="userSpaceOnUse" x1="237.9158" y1="842.0869" x2="237.9158" y2="731.9717" gradientTransform="matrix(1 0 0 1 0.085 -731.9707)">
	<stop  offset="0" style="stop-color:#541C00"/>
	<stop  offset="1" style="stop-color:#945700"/>
</linearGradient>
<rect x="0" fill="url(#SVGID_1_)" width="476" height="110.115"/>
<g>
	<g>
		<g>
			<path fill="#FFFFFF" d="M444.075,85.138h-20.972v-8.663h20.972c2.445,0,4.435-1.99,4.435-4.437V57.997
				c0-2.447-1.989-4.436-4.435-4.436h-20.972v-8.664h20.972c7.223,0,13.099,5.876,13.099,13.1v14.041
				C457.174,79.261,451.298,85.138,444.075,85.138z"/>
			<path fill="#5C3B17" d="M444.075,86.471H421.77V75.142h22.306c1.71,0,3.103-1.392,3.103-3.104V57.997
				c0-1.711-1.393-3.104-3.103-3.104H421.77V43.564h22.306c7.957,0,14.431,6.474,14.431,14.433v14.041
				C458.506,79.997,452.032,86.471,444.075,86.471z M424.436,83.806h19.64c6.487,0,11.766-5.279,11.766-11.768V57.997
				c0-6.489-5.278-11.767-11.766-11.767h-19.64v5.998h19.64c3.181,0,5.769,2.588,5.769,5.769v14.041
				c0,3.181-2.588,5.769-5.769,5.769h-19.64V83.806z"/>
		</g>
	</g>
	<g>
		<path fill="#FFFFFF" d="M381.366,71.583c0-14.283,3.61-27.385,9.62-37.625h39.532c6.011,10.24,9.62,23.342,9.62,37.625
			c0,11.189-2.214,21.652-6.062,30.584c-1.838,4.265-6.019,7.043-10.662,7.043h-25.323c-4.644,0-8.824-2.778-10.662-7.043
			C383.581,93.235,381.366,82.772,381.366,71.583z"/>
		<path fill="#5C3B17" d="M423.414,110.543H398.09c-5.165,0-9.831-3.081-11.885-7.849c-4.038-9.372-6.172-20.13-6.172-31.111
			c0-13.927,3.481-27.529,9.803-38.3l0.387-0.658h41.06l0.387,0.658c6.321,10.771,9.803,24.374,9.803,38.3
			c0,10.981-2.134,21.739-6.172,31.111C433.246,107.462,428.579,110.543,423.414,110.543z M391.756,35.291
			c-5.844,10.262-9.057,23.115-9.057,36.292c0,10.623,2.06,21.015,5.953,30.057c1.634,3.788,5.338,6.236,9.438,6.236h25.324
			c4.101,0,7.806-2.448,9.438-6.236c3.895-9.042,5.954-19.434,5.954-30.057c0-13.177-3.212-26.03-9.056-36.292H391.756z"/>
	</g>
	<path fill="#FACF57" d="M428.97,36.624h-36.435c-5.491,9.951-8.504,22.297-8.504,34.959c0,10.443,2.022,20.652,5.847,29.527
		c0.003,0.009,0.005,0.017,0.01,0.024c0.544,1.254,1.828,2.022,3.195,2.022h35.338c1.368,0,2.652-0.769,3.197-2.022
		c0.004-0.008,0.007-0.016,0.009-0.024c3.826-8.875,5.847-19.084,5.847-29.527C437.474,58.921,434.461,46.574,428.97,36.624z"/>
	<path fill="#E0860B" d="M428.97,36.624h-8.664c5.492,9.951,8.503,22.297,8.503,34.959c0,10.443-2.021,20.652-5.844,29.527
		c-0.323,0.748-0.742,1.432-1.23,2.047h6.687c1.361,0,2.639-0.763,3.188-2.006c0.007-0.015,0.014-0.026,0.019-0.041
		c3.826-8.875,5.847-19.084,5.847-29.527C437.474,58.921,434.461,46.574,428.97,36.624z"/>
	<g>
		<path fill="#FFE8AE" d="M399.361,71.583c0-12.662,3.011-25.009,8.503-34.959H399.2c-5.492,9.951-8.504,22.297-8.504,34.959
			c0,6.758,0.848,13.417,2.482,19.681c0.48,1.844,2.163,3.119,4.068,3.119c2.72,0,4.697-2.536,4.088-5.187
			C400.033,83.544,399.361,77.603,399.361,71.583z"/>
	</g>
	<g>
		<path fill="#5C3B17" d="M387.983,81.325c-0.092-0.725-0.739-1.244-1.465-1.164h-0.002c-0.736,0.08-1.274,0.752-1.18,1.487
			c0.81,6.349,2.365,12.376,4.633,17.954c0.279,0.688,1.078,1.005,1.761,0.711l0,0c0.67-0.289,0.975-1.059,0.701-1.734
			C390.256,93.226,388.763,87.434,387.983,81.325z"/>
		<path fill="#5C3B17" d="M393.746,38.632c-0.658-0.346-1.48-0.092-1.811,0.574c-4.492,9.048-7.033,19.963-7.226,31.03
			c-0.013,0.741,0.596,1.348,1.337,1.348c0.729,0,1.317-0.587,1.328-1.317c0.187-10.662,2.627-21.163,6.938-29.853
			C394.637,39.76,394.392,38.971,393.746,38.632z"/>
	</g>
	<g>
		<path fill="#FFFFFF" d="M435.753,33.617c0.292-1.577,0.257-3.268-0.279-5.024c-1.279-4.192-5.058-7.257-9.428-7.562
			c-2.467-0.172-4.771,0.499-6.653,1.751c-2.479-4.009-6.915-6.681-11.976-6.681c-7.046,0-12.883,5.178-13.913,11.936
			c-1.774-0.913-3.805-1.401-5.957-1.317c-6.159,0.24-11.245,5.299-11.512,11.456c-0.298,6.87,5.183,12.533,11.987,12.533
			c1.094,0,2.152-0.147,3.159-0.422c2.061-0.563,4.11,0.896,4.11,3.033v10.246c0,3.348,2.715,6.062,6.063,6.062
			c3.348,0,6.062-2.714,6.062-6.062V51.259c0-1.792,1.454-3.245,3.247-3.245h4.688c1.792,0,3.245,1.453,3.245,3.245v4.839
			c0,3.35,2.715,6.062,6.062,6.062c3.349,0,6.062-2.713,6.062-6.062v-4.839c0-1.792,1.453-3.245,3.246-3.245
			c3.679,0,6.955-2.63,7.443-6.276C441.939,37.814,439.338,34.398,435.753,33.617z"/>
		<path fill="#5C3B17" d="M442.814,40.73c0-0.043-0.007-0.085-0.007-0.129c-0.003-0.204-0.013-0.406-0.03-0.606
			c-0.007-0.067-0.009-0.134-0.017-0.2c-0.327-3.077-2.267-5.729-5.118-6.958c-0.068-0.03-0.137-0.058-0.205-0.086
			c-0.071-0.029-0.14-0.062-0.212-0.089c0.129-1.504-0.03-3-0.476-4.459c-1.448-4.744-5.712-8.161-10.61-8.501
			c-2.23-0.156-4.397,0.292-6.342,1.298c-0.152-0.205-0.312-0.402-0.474-0.599c-0.052-0.064-0.104-0.127-0.155-0.19
			c-0.144-0.17-0.291-0.337-0.442-0.5c-0.105-0.115-0.215-0.226-0.323-0.338c-0.12-0.121-0.236-0.244-0.358-0.36
			c-0.247-0.237-0.501-0.464-0.762-0.682c-0.03-0.025-0.062-0.048-0.092-0.073c-0.261-0.214-0.528-0.418-0.801-0.614
			c-0.038-0.028-0.079-0.056-0.118-0.083c-1.252-0.882-2.628-1.57-4.091-2.042c-0.011-0.003-0.023-0.008-0.034-0.012
			c-0.723-0.231-1.465-0.411-2.222-0.533c-0.076-0.013-0.151-0.023-0.229-0.034c-0.289-0.043-0.583-0.077-0.877-0.104
			c-0.097-0.009-0.193-0.019-0.291-0.025c-0.368-0.026-0.737-0.044-1.111-0.044c-6.973,0-13.092,4.795-14.879,11.4
			c-0.094-0.034-0.191-0.056-0.287-0.088c-0.247-0.083-0.496-0.161-0.749-0.229c-0.158-0.042-0.317-0.08-0.477-0.116
			c-0.253-0.059-0.507-0.112-0.763-0.155c-0.171-0.03-0.343-0.052-0.515-0.075c-0.243-0.032-0.487-0.06-0.734-0.078
			c-0.193-0.015-0.389-0.021-0.583-0.027c-0.137-0.005-0.271-0.02-0.408-0.02c-0.088,0-0.171,0.011-0.258,0.013
			c-0.091,0.001-0.18-0.006-0.271-0.003c-0.148,0.006-0.293,0.028-0.441,0.039c-0.205,0.015-0.41,0.03-0.613,0.055
			c-0.219,0.026-0.435,0.062-0.651,0.099c-0.22,0.038-0.44,0.074-0.656,0.123c-0.173,0.038-0.342,0.086-0.512,0.132
			c-0.256,0.067-0.512,0.136-0.763,0.219c-0.1,0.033-0.196,0.073-0.296,0.109c-3.389,1.209-6.146,3.745-7.64,6.988
			c-0.025,0.052-0.052,0.103-0.076,0.155c-0.121,0.272-0.228,0.552-0.33,0.833c-0.049,0.13-0.1,0.259-0.144,0.392
			c-0.076,0.23-0.142,0.466-0.205,0.702c-0.052,0.19-0.104,0.38-0.147,0.574c-0.046,0.203-0.082,0.408-0.118,0.614
			c-0.04,0.23-0.077,0.459-0.106,0.693c-0.022,0.193-0.038,0.387-0.053,0.583c-0.012,0.142-0.034,0.281-0.039,0.423
			c-0.005,0.104,0.004,0.206,0.002,0.309c-0.002,0.095-0.015,0.188-0.015,0.284h0.016c0,3.456,1.285,6.712,3.687,9.22
			c2.539,2.652,5.959,4.111,9.63,4.111c1.191,0,2.373-0.158,3.51-0.469c0.614-0.166,1.241-0.05,1.725,0.32
			c0.454,0.345,0.702,0.852,0.702,1.427v10.246c0,4.078,3.318,7.396,7.396,7.396s7.395-3.317,7.395-7.396V51.259
			c0-1.055,0.858-1.913,1.912-1.913h4.689c1.056,0,1.913,0.858,1.913,1.913v4.84c0,4.077,3.317,7.395,7.396,7.395
			s7.396-3.317,7.396-7.395v-4.84c0-1.055,0.857-1.913,1.912-1.913c4.428,0,8.197-3.195,8.766-7.432
			c0.054-0.399,0.071-0.793,0.071-1.184H442.814z M440.093,41.56c-0.393,2.919-3.025,5.121-6.124,5.121
			c-2.524,0-4.579,2.054-4.579,4.579v4.84c0,2.606-2.121,4.729-4.729,4.729c-2.606,0-4.729-2.123-4.729-4.729v-4.84
			c0-2.524-2.054-4.579-4.579-4.579h-4.689c-2.524,0-4.577,2.054-4.577,4.579v12.306c0,2.606-2.123,4.729-4.729,4.729
			c-2.608,0-4.73-2.123-4.73-4.729V53.32c0-1.405-0.638-2.697-1.749-3.546c-0.812-0.621-1.786-0.943-2.787-0.943
			c-0.418,0-0.841,0.057-1.259,0.171c-0.91,0.248-1.854,0.375-2.808,0.375c-2.937,0-5.673-1.169-7.705-3.291
			c-1.973-2.06-3.008-4.751-2.95-7.6c0.004-0.201,0.016-0.399,0.03-0.597c0.012-0.151,0.023-0.302,0.042-0.451
			c0.022-0.194,0.055-0.387,0.088-0.578c0.028-0.156,0.055-0.312,0.09-0.466c0.036-0.166,0.082-0.329,0.126-0.492
			c0.048-0.177,0.097-0.354,0.155-0.527c0.039-0.121,0.085-0.237,0.129-0.355c0.078-0.21,0.157-0.42,0.248-0.624
			c0.026-0.06,0.058-0.117,0.086-0.175c1.088-2.319,2.987-4.196,5.326-5.248c0.012-0.005,0.021-0.011,0.032-0.015
			c0.232-0.104,0.473-0.193,0.715-0.28c0.087-0.032,0.172-0.067,0.261-0.096c0.194-0.064,0.395-0.117,0.595-0.17
			c0.14-0.038,0.279-0.078,0.422-0.109c0.172-0.038,0.345-0.067,0.519-0.097c0.175-0.03,0.35-0.06,0.526-0.081
			c0.162-0.02,0.325-0.031,0.49-0.043c0.217-0.016,0.435-0.031,0.655-0.033c0.07-0.001,0.142-0.002,0.212-0.001
			c0.3,0.002,0.598,0.015,0.893,0.042c0.057,0.005,0.112,0.015,0.169,0.021c0.237,0.026,0.474,0.061,0.707,0.102
			c0.1,0.018,0.199,0.035,0.298,0.056c0.259,0.053,0.515,0.114,0.768,0.187c0.09,0.025,0.176,0.055,0.264,0.083
			c0.202,0.063,0.403,0.132,0.601,0.208c0.104,0.039,0.207,0.08,0.31,0.123c0.209,0.086,0.413,0.18,0.615,0.28
			c0.053,0.026,0.105,0.048,0.157,0.074l0.04,0.021c0.875,0.455,1.689,1.03,2.416,1.716c0.499,0.473,1.264,0.515,1.79,0.072
			l0.005-0.004c0.596-0.502,0.649-1.42,0.087-1.958c-0.686-0.655-1.438-1.222-2.234-1.712c1.297-5.715,6.479-9.924,12.419-9.924
			c0.315,0,0.628,0.013,0.938,0.037c0.087,0.006,0.172,0.017,0.259,0.025c0.229,0.021,0.459,0.047,0.685,0.081
			c0.086,0.012,0.171,0.026,0.256,0.041c0.243,0.041,0.482,0.087,0.721,0.142c0.057,0.013,0.116,0.025,0.174,0.039
			c0.929,0.227,1.821,0.554,2.664,0.973c0.014,0.007,0.029,0.015,0.045,0.022c0.256,0.13,0.508,0.268,0.754,0.415
			c0.041,0.024,0.083,0.049,0.124,0.074c0.217,0.132,0.431,0.272,0.64,0.417c0.053,0.037,0.106,0.073,0.158,0.11
			c0.193,0.138,0.382,0.284,0.567,0.432c0.058,0.047,0.119,0.092,0.176,0.14c0.182,0.151,0.357,0.311,0.53,0.473
			c0.197,0.186,0.391,0.377,0.577,0.577c0.034,0.034,0.066,0.068,0.099,0.103c0.167,0.181,0.327,0.368,0.484,0.56
			c0.017,0.021,0.036,0.044,0.054,0.065c0.163,0.202,0.32,0.409,0.473,0.623c0.005,0.007,0.011,0.014,0.015,0.021
			c0.156,0.221,0.307,0.448,0.451,0.68l0.017,0.027c0.454,0.737,0.841,1.523,1.139,2.358c0.232,0.651,0.911,1.028,1.581,0.859
			l0.006-0.001c0.75-0.189,1.196-0.982,0.939-1.711c-0.212-0.596-0.468-1.169-0.745-1.726c1.468-0.721,3.094-1.044,4.757-0.928
			c3.805,0.265,7.119,2.926,8.247,6.621c0.314,1.032,0.438,2.088,0.383,3.152c-0.128-0.005-0.256-0.02-0.386-0.02
			c-0.905,0-1.806,0.144-2.661,0.421c-0.791,0.255-1.146,1.175-0.75,1.905c0.3,0.553,0.951,0.835,1.549,0.638
			s1.228-0.298,1.862-0.298c0.396,0,0.781,0.041,1.156,0.115l0.109,0.023c0.011,0.003,0.021,0.006,0.031,0.008
			c0.177,0.039,0.35,0.085,0.519,0.139c0.102,0.033,0.199,0.071,0.297,0.109c0.07,0.026,0.143,0.05,0.213,0.079
			c1.417,0.603,2.554,1.741,3.155,3.159c0.002,0.005,0.005,0.011,0.007,0.016c0.067,0.159,0.126,0.322,0.179,0.488
			c0.015,0.046,0.028,0.094,0.041,0.14c0.037,0.127,0.071,0.256,0.1,0.386c0.017,0.074,0.03,0.149,0.045,0.223
			c0.019,0.108,0.034,0.217,0.049,0.327c0.012,0.09,0.021,0.18,0.027,0.27c0.008,0.103,0.014,0.206,0.016,0.31
			C440.149,40.896,440.138,41.226,440.093,41.56z"/>
	</g>
	<path fill="#5C3B17" d="M414.735,41.438c-0.17-1.039-0.562-2.031-1.16-2.926c-2.153-3.216-6.396-4.205-9.729-2.386
		c-1.725-1.68-4.088-2.706-6.679-2.676c-4.69,0.052-8.556,3.537-9.226,8.036c-0.116,0.785,0.49,1.492,1.283,1.483l0.103-0.001
		c0.646-0.007,1.159-0.497,1.259-1.135c0.543-3.477,3.747-6.096,7.476-5.674c3.079,0.35,5.583,2.848,5.931,5.927
		c0.15,1.34-0.081,2.645-0.659,3.805c-0.288,0.577-0.153,1.273,0.369,1.653l0.084,0.061c0.646,0.468,1.549,0.236,1.91-0.476
		c0.678-1.339,1.022-2.82,1.006-4.353c-0.018-1.632-0.452-3.163-1.199-4.495c2.068-0.902,4.557-0.228,5.857,1.714
		c0.378,0.565,0.627,1.192,0.738,1.848c0.104,0.613,0.622,1.067,1.243,1.099C414.173,42.983,414.869,42.26,414.735,41.438z"/>
	<path fill="#5C3B17" d="M418.933,29.582c-1.614,0.296-2.937,1.296-3.649,2.727c-0.328,0.656-0.506,1.36-0.532,2.071
		c-0.034,0.921,0.886,1.584,1.76,1.292c0.541-0.181,0.873-0.688,0.91-1.257c0.02-0.314,0.103-0.625,0.248-0.916
		c0.368-0.739,1.081-1.237,1.941-1.321c0.942-0.092,1.883,0.426,2.319,1.267c0.163,0.315,0.255,0.647,0.274,0.982
		c0.036,0.566,0.368,1.069,0.905,1.25l0.002,0.001c0.868,0.292,1.793-0.359,1.762-1.276c-0.019-0.539-0.124-1.077-0.317-1.599
		C423.717,30.539,421.306,29.146,418.933,29.582z"/>
</g>
<g>
	<g>
		<path fill="#6BAC8F" d="M373.744,48.708c0.868-2.602,2.75-4.892,4.761-6.384s4.152-2.286,6.24-2.886
			c1.852-0.532,3.693-0.928,5.512-1.187c-0.351,1.704-0.981,3.406-1.645,5.083c-0.956,2.419-2.005,4.846-3.411,7.038
			c-1.405,2.191-3.209,4.149-5.172,5.145C375.987,57.566,371.918,54.185,373.744,48.708z"/>
	</g>
	<g>
		<path fill="#B22B48" d="M398.223,56.054c-6.038-3.913-12.139-2.661-16.401-0.747c-3.084,1.385-6.604,1.447-9.76,0.238
			c-4.393-1.682-10.682-2.634-16.55,1.75c-7.867,5.879-9.105,15.919-7.172,24.959c1.432,6.689,4.014,13.57,8.156,19.145
			c4.008,5.395,11.5,11.005,18.624,8.371c2.172-0.805,4.554-0.896,6.745-0.145c10.488,3.592,17.73-8.316,21.093-16.259
			c3.512-8.294,5.858-18.414,2.956-27.235C404.549,61.983,401.896,58.435,398.223,56.054z"/>
	</g>
</g>
<path fill="#FFFFFF" d="M119.921,93.132c0,0-11.767-3.968-16.251-5.732c-2.877-1.133-5.282-3.142-5.386-6.188
	c0.555-0.557,1.053-1.166,1.478-1.827l2.984-4.642c1.676-2.607,2.675-5.509,2.954-8.494c0.774-0.191,1.194-0.66,1.646-1.379
	c0.042-0.065,0.079-0.137,0.109-0.209l1.855-4.353c0.485-1.416-0.195-2.942-1.642-3.682l-0.186-0.095
	c-0.435-0.223-0.911-0.256-1.335-0.148c0.152-2.39,0.359-4.728,0.631-6.099c0.786-3.963,0.398-11.319-3.344-12.22
	c-3.219-0.775-2.49-3.138-7.297-3.138c-2.844,0-4.913-2.039-7.29-1.75c0.4,0.674,0.98,1.661,0.041,1.997
	c-1.582,0.565-8.156-2.85-13.817-2.034c2.83,7.36-2.672,7.208-1.698,9.964c1.094,3.095-2.291,4.077-2.141,7.247
	c0.043,0.912,0.48,3.835,0.822,6.023c-0.411-0.092-0.864-0.054-1.281,0.159l-0.186,0.095c-1.446,0.739-2.127,2.266-1.642,3.682
	l1.855,4.353c0.03,0.072,0.067,0.144,0.109,0.209c0.454,0.723,0.876,1.192,1.658,1.383c0.301,3.013,1.333,5.938,3.054,8.555
	l3.068,4.669c0.575,0.874,1.275,1.657,2.071,2.341c-0.396,2.695-2.627,4.541-5.345,5.531c-4.214,1.535-16.964,5.836-16.964,5.836
	c-6.47,2.226-10.812,8.312-10.812,15.154v2.051h82.973v-2.145C130.616,101.449,126.33,95.392,119.921,93.132z"/>
</svg>
