<?xml version="1.0" encoding="utf-8"?>
<!-- Generator: Adobe Illustrator 16.0.4, SVG Export Plug-In . SVG Version: 6.00 Build 0)  -->
<!DOCTYPE svg PUBLIC "-//W3C//DTD SVG 1.1//EN" "http://www.w3.org/Graphics/SVG/1.1/DTD/svg11.dtd">
<svg version="1.1" id="Layer_1" xmlns="http://www.w3.org/2000/svg" xmlns:xlink="http://www.w3.org/1999/xlink" x="0px" y="0px"
	 width="389.089px" height="171.039px" viewBox="0 0 389.089 171.039" enable-background="new 0 0 389.089 171.039"
	 xml:space="preserve">
<line fill="none" stroke="#231F20" stroke-width="3.0436" stroke-miterlimit="10" x1="23.228" y1="26.812" x2="28.707" y2="38.988"/>
<line fill="none" stroke="#231F20" stroke-width="3.0436" stroke-miterlimit="10" x1="42.1" y1="33.51" x2="36.012" y2="24.986"/>
<line fill="none" stroke="#231F20" stroke-width="3.0436" stroke-miterlimit="10" x1="35.403" y1="42.031" x2="43.317" y2="46.901"/>
<line fill="none" stroke="#231F20" stroke-width="3.0436" stroke-miterlimit="10" x1="43.317" y1="46.901" x2="34.186" y2="49.945"/>
<path fill="#9E5664" stroke="#231F20" stroke-width="3.0436" stroke-miterlimit="10" d="M26.272,69.554l28.613-0.735
	c0,0,14.611,51.561,6.087,52.298c-8.523,0.736-38.353,0-38.353,0s-3.652-2.212-1.826-13.997
	C22.619,95.336,26.272,69.554,26.272,69.554z"/>
<ellipse transform="matrix(0.288 0.9576 -0.9576 0.288 66.3777 -6.2805)" fill="#F3ECC2" stroke="#231F20" stroke-width="3.0436" stroke-miterlimit="10" cx="37.413" cy="41.5" rx="32.693" ry="25.986"/>
<path fill="none" stroke="#231F20" stroke-width="3.0436" stroke-miterlimit="10" d="M55.754,71.204c0,0-4.933-8.351,4.384,6.561
	c9.316,14.913,12.604,30.419,12.604,30.419"/>
<path fill="none" stroke="#231F20" stroke-width="3.0436" stroke-miterlimit="10" d="M26.272,69.554c0,0-3.653-0.126-8.523,14.482
	c-4.87,14.613-5.479,23.744-5.479,23.744"/>
<path fill="#F17E42" stroke="#231F20" stroke-width="3.0436" stroke-miterlimit="10" d="M14.429,10.484
	c5.285,1.651,8.097,2.052,10.079-2.902c1.982-4.954,10.399-7.335,15.682-4.363c5.285,2.972,7.394,6.335,10.696,9.639
	c3.302,3.303,0.622,0.755-7.304,4.058c-7.927,3.303-11.648-4.78-14.291-0.816c-2.642,3.963-14.531,13.541-17.504,11.89
	C8.815,26.336,9.146,8.833,14.429,10.484z"/>
<path fill="none" stroke="#231F20" stroke-width="2.0291" stroke-miterlimit="10" d="M28.112,29.032
	c3.652,12.176,3.652,12.176,3.652,12.176"/>
<line fill="none" stroke="#231F20" stroke-width="2.0291" stroke-miterlimit="10" x1="39.069" y1="27.206" x2="42.723" y2="38.771"/>
<path fill="none" stroke="#231F20" stroke-width="2.0291" stroke-miterlimit="10" d="M38.508,45.321c0,0,8.117,4.465,6.899,6.087
	c-1.217,1.623-6.899,0.812-6.899,0.812"/>
<path fill="none" stroke="#231F20" stroke-width="2.0291" stroke-miterlimit="10" d="M41.349,61.554c0,0,4.058,1.217,7.304-1.623
	c3.247-2.84,3.247-2.84,3.247-2.84l0,0"/>
<path fill="none" stroke="#231F20" stroke-width="3.0436" stroke-miterlimit="10" d="M60.972,121.116c0,0,1.822,3.509,3.306,10.034
	c3.043,13.393,4.058,29.422,4.058,29.422"/>
<path fill="none" stroke="#231F20" stroke-width="3.0436" stroke-miterlimit="10" d="M24.508,121.116c0,0-1.823,3.509-3.305,10.034
	c-3.044,13.393-4.059,29.422-4.059,29.422"/>
<path fill="#020214" stroke="#231F20" stroke-width="3.0436" stroke-miterlimit="10" d="M68.155,159.199
	c0,0-0.226,5.172-0.226,6.072c0,0.898,1.349,1.798,4.273,2.247c2.924,0.45,10.57,1.352,10.12-1.124c-0.45-2.473,0-5.173-2.473-4.947
	c-2.475,0.225-8.547-1.8-9.222-2.475C69.953,158.3,68.155,159.199,68.155,159.199z"/>
<line fill="none" stroke="#FFFFFF" stroke-width="0.6087" stroke-miterlimit="10" x1="72.867" y1="161.789" x2="74.761" y2="166.253"/>
<line fill="none" stroke="#FFFFFF" stroke-width="0.6087" stroke-miterlimit="10" x1="75.708" y1="162.601" x2="77.466" y2="166.389"/>
<path fill="#020214" stroke="#231F20" stroke-width="3.0436" stroke-miterlimit="10" d="M17.188,159.875
	c0,0,0.225,5.172,0.225,6.071s-1.35,1.799-4.274,2.249c-2.923,0.451-10.57,1.351-10.12-1.123c0.45-2.475,0-5.173,2.474-4.948
	c2.474,0.226,8.547-1.8,9.222-2.475C15.388,158.976,17.188,159.875,17.188,159.875z"/>
<line fill="none" stroke="#FFFFFF" stroke-width="0.6087" stroke-miterlimit="10" x1="12.475" y1="162.465" x2="10.582" y2="166.931"/>
<line fill="none" stroke="#FFFFFF" stroke-width="0.6087" stroke-miterlimit="10" x1="9.635" y1="163.277" x2="7.876" y2="167.066"/>
<g>
	<path fill="#FFFFFF" d="M81.565,78.501V34.195h16.538c3.66,0,6.863,0.583,9.609,1.746c2.746,1.166,5.045,2.746,6.896,4.744
		c1.851,1.996,3.245,4.336,4.18,7.02c0.937,2.684,1.405,5.544,1.405,8.582c0,3.369-0.521,6.417-1.562,9.141
		c-1.04,2.725-2.527,5.054-4.46,6.989c-1.935,1.935-4.266,3.432-6.991,4.492c-2.725,1.061-5.751,1.592-9.078,1.592H81.565z
		 M109.771,56.287c0-1.956-0.259-3.735-0.779-5.336c-0.521-1.602-1.28-2.984-2.277-4.149c-1-1.164-2.227-2.059-3.683-2.684
		c-1.457-0.625-3.099-0.937-4.929-0.937H91.8v26.334h6.304c1.872,0,3.534-0.332,4.991-0.998c1.457-0.665,2.674-1.59,3.651-2.776
		s1.726-2.579,2.247-4.183C109.513,59.958,109.771,58.2,109.771,56.287z"/>
	<path fill="#FFFFFF" d="M136.729,34.195h9.237l16.163,44.306h-10.484l-3.432-9.922h-13.792l-3.369,9.922h-10.484L136.729,34.195z
		 M146.527,61.527l-5.18-15.664l-5.304,15.664H146.527z"/>
	<path fill="#FFFFFF" d="M169.115,34.195l10.423,31.451l10.295-31.451h10.796l-16.786,44.306h-8.611l-16.974-44.306H169.115z"/>
	<path fill="#FFFFFF" d="M204.749,78.501V34.195h10.234v44.306H204.749z"/>
	<path fill="#FFFFFF" d="M223.469,78.501V34.195h16.538c3.661,0,6.864,0.583,9.61,1.746c2.746,1.166,5.045,2.746,6.896,4.744
		c1.851,1.996,3.245,4.336,4.181,7.02c0.937,2.684,1.405,5.544,1.405,8.582c0,3.369-0.522,6.417-1.562,9.141
		c-1.04,2.725-2.527,5.054-4.461,6.989c-1.935,1.935-4.266,3.432-6.99,4.492c-2.726,1.061-5.752,1.592-9.079,1.592H223.469z
		 M251.676,56.287c0-1.956-0.26-3.735-0.779-5.336c-0.521-1.602-1.279-2.984-2.277-4.149c-1-1.164-2.227-2.059-3.684-2.684
		c-1.457-0.625-3.099-0.937-4.929-0.937h-6.304v26.334h6.304c1.872,0,3.535-0.332,4.992-0.998c1.456-0.665,2.673-1.59,3.65-2.776
		c0.977-1.187,1.726-2.579,2.247-4.183C251.416,59.958,251.676,58.2,251.676,56.287z"/>
	<path fill="#FFFFFF" d="M116.512,133.886v-26.521l-9.61,19.282h-5.493L91.8,107.365v26.521H81.565V89.579h11.108l11.482,23.152
		L115.7,89.579h11.046v44.307H116.512z"/>
	<path fill="#FFFFFF" d="M147.275,89.579h9.236l16.163,44.307h-10.484l-3.432-9.922h-13.792l-3.369,9.922h-10.484L147.275,89.579z
		 M157.074,116.912l-5.18-15.664l-5.304,15.664H157.074z"/>
	<path fill="#FFFFFF" d="M183.471,89.579l9.673,15.289l9.672-15.289h11.046l-15.352,22.465l14.853,21.842h-11.046l-9.173-14.664
		l-9.174,14.664h-11.106l14.853-21.842l-15.352-22.465H183.471z"/>
	<path fill="#FFFFFF" d="M232.396,89.641h9.423l4.494,14.167l4.492-14.167h9.486l-7.427,20.594l4.494,11.92l11.106-32.575h11.17
		l-17.721,44.307h-8.549l-7.053-17.35l-6.989,17.35h-8.611L213.05,89.579h11.108l11.172,32.575l4.367-11.92L232.396,89.641z"/>
	<path fill="#FFFFFF" d="M314.645,124.898v8.987h-31.141V89.579h30.577v8.985h-20.343v8.611h17.475v8.3h-17.475v9.423H314.645z"/>
	<path fill="#FFFFFF" d="M320.884,133.886V89.579h10.234v35.319h21.467v8.987H320.884z"/>
	<path fill="#FFFFFF" d="M357.388,133.886V89.579h10.234v35.319h21.467v8.987H357.388z"/>
</g>
<g>
	<path fill="#FFFFFF" d="M285.462,58.443c0,0.624-0.199,1.136-0.6,1.535c-0.352,0.353-0.816,0.572-1.393,0.66
		c-0.312,0.048-0.977,0.072-1.992,0.072h-0.996v-8.004h2.016c0.504,0,0.885,0.028,1.141,0.084c0.377,0.088,0.688,0.256,0.936,0.504
		c0.416,0.416,0.625,0.932,0.625,1.548c0,0.456-0.125,0.845-0.373,1.164c-0.248,0.32-0.576,0.521-0.982,0.601
		C284.923,56.775,285.462,57.387,285.462,58.443z M284.417,54.807c0-0.416-0.131-0.756-0.395-1.02
		c-0.225-0.224-0.553-0.364-0.984-0.42c-0.176-0.024-0.572-0.036-1.188-0.036h-0.602v3.012h0.793c0.959,0,1.619-0.18,1.98-0.54
		C284.286,55.539,284.417,55.207,284.417,54.807z M284.683,58.467c0-0.392-0.141-0.728-0.42-1.008
		c-0.248-0.248-0.617-0.4-1.105-0.456c-0.184-0.024-0.619-0.036-1.307-0.036h-0.602v3.108h0.877c0.576,0,1-0.032,1.271-0.097
		c0.352-0.079,0.654-0.245,0.906-0.498C284.556,59.229,284.683,58.891,284.683,58.467z"/>
	<path fill="#FFFFFF" d="M291.317,60.711h-0.66v-0.456c-0.576,0.384-1.199,0.576-1.871,0.576c-0.584,0-1.049-0.172-1.393-0.517
		c-0.248-0.247-0.408-0.583-0.48-1.008c-0.023-0.176-0.035-0.531-0.035-1.067v-3.288h0.721v3.432c0,0.752,0.113,1.242,0.342,1.47
		c0.227,0.229,0.525,0.343,0.893,0.343c0.361,0,0.748-0.088,1.164-0.265c0.201-0.104,0.4-0.204,0.602-0.3v-4.68h0.719V60.711z"/>
	<path fill="#FFFFFF" d="M294.763,53.199l-2.568,0.96l-0.24-0.468l2.484-1.2L294.763,53.199z M293.718,60.711h-0.721v-5.76h0.721
		V60.711z"/>
	<path fill="#FFFFFF" d="M300.317,57.879c0,0.904-0.238,1.626-0.713,2.166c-0.477,0.54-1.119,0.81-1.926,0.81
		c-0.785,0-1.414-0.273-1.891-0.821s-0.715-1.282-0.715-2.202s0.238-1.654,0.715-2.202s1.125-0.822,1.949-0.822
		c0.785,0,1.41,0.274,1.879,0.822C300.083,56.177,300.317,56.927,300.317,57.879z M299.573,57.854c0-0.712-0.178-1.294-0.533-1.745
		c-0.355-0.452-0.807-0.679-1.35-0.679c-0.568,0-1.023,0.216-1.363,0.648c-0.34,0.432-0.51,1.008-0.51,1.728
		c0,0.721,0.178,1.303,0.535,1.746c0.355,0.444,0.805,0.666,1.35,0.666c0.584,0,1.041-0.212,1.373-0.636
		S299.573,58.583,299.573,57.854z"/>
	<path fill="#FFFFFF" d="M306.042,60.255c-0.064,0.08-0.26,0.185-0.588,0.312c-0.457,0.176-0.916,0.264-1.381,0.264
		c-0.809,0-1.463-0.26-1.967-0.78c-0.504-0.52-0.756-1.22-0.756-2.1c0-0.928,0.266-1.685,0.797-2.269s1.223-0.876,2.07-0.876
		c0.424,0,0.836,0.089,1.236,0.265c0.248,0.111,0.416,0.212,0.504,0.3l-0.324,0.504c-0.465-0.28-0.947-0.42-1.451-0.42
		c-0.617,0-1.119,0.226-1.508,0.678c-0.387,0.452-0.582,1.022-0.582,1.71c0,0.696,0.189,1.256,0.564,1.68
		c0.377,0.425,0.861,0.637,1.453,0.637c0.486,0,1.027-0.148,1.619-0.444L306.042,60.255z"/>
	<path fill="#FFFFFF" d="M311.681,60.711h-0.719v-3.36c0-0.456-0.012-0.768-0.037-0.936c-0.047-0.28-0.146-0.496-0.299-0.648
		c-0.217-0.216-0.516-0.323-0.9-0.323c-0.359,0-0.756,0.092-1.188,0.275c-0.32,0.128-0.512,0.225-0.576,0.288v4.704h-0.721v-8.64
		h0.721v3.288c0.072-0.072,0.264-0.173,0.576-0.301c0.439-0.168,0.859-0.252,1.26-0.252c0.584,0,1.023,0.148,1.32,0.444
		c0.256,0.256,0.424,0.568,0.504,0.936c0.039,0.2,0.059,0.553,0.059,1.057V60.711z"/>
	<path fill="#FFFFFF" d="M317.249,60.711h-0.66v-0.432c-0.184,0.096-0.367,0.191-0.551,0.288c-0.434,0.176-0.861,0.264-1.285,0.264
		c-0.551,0-0.998-0.162-1.338-0.486s-0.51-0.746-0.51-1.266c0-1.256,1.107-1.884,3.324-1.884h0.299v-0.217
		c0-0.607-0.096-1.012-0.287-1.212c-0.217-0.224-0.58-0.336-1.092-0.336c-0.527,0-1.061,0.152-1.596,0.456l-0.301-0.504
		c0.088-0.088,0.275-0.191,0.564-0.312c0.439-0.185,0.912-0.276,1.416-0.276c0.672,0,1.191,0.185,1.561,0.552
		c0.207,0.208,0.34,0.464,0.395,0.769c0.041,0.184,0.061,0.479,0.061,0.888V60.711z M316.528,59.727v-1.943h-0.322
		c-1.705,0-2.557,0.436-2.557,1.308c0,0.312,0.1,0.568,0.301,0.769c0.223,0.224,0.547,0.336,0.971,0.336
		C315.321,60.195,315.856,60.039,316.528,59.727z"/>
	<path fill="#FFFFFF" d="M322.397,59.139c0,0.536-0.186,0.956-0.559,1.261c-0.371,0.304-0.877,0.455-1.518,0.455
		c-0.465,0-0.916-0.088-1.355-0.264c-0.305-0.12-0.496-0.22-0.576-0.3l0.311-0.552c0.48,0.319,1.004,0.479,1.572,0.479
		c0.434,0,0.771-0.09,1.016-0.27c0.242-0.181,0.365-0.427,0.365-0.738c0-0.336-0.164-0.612-0.492-0.828
		c-0.119-0.072-0.436-0.208-0.947-0.408c-0.553-0.216-0.924-0.403-1.117-0.563c-0.32-0.265-0.48-0.628-0.48-1.092
		c0-0.456,0.184-0.822,0.547-1.099c0.363-0.275,0.822-0.414,1.375-0.414c0.432,0,0.844,0.08,1.234,0.24
		c0.258,0.104,0.426,0.196,0.506,0.276l-0.289,0.516c-0.473-0.271-0.936-0.408-1.393-0.408c-0.344,0-0.635,0.08-0.875,0.24
		s-0.361,0.368-0.361,0.624c0,0.296,0.125,0.528,0.373,0.696c0.104,0.071,0.393,0.204,0.863,0.396
		c0.607,0.248,1.004,0.44,1.188,0.576C322.194,58.259,322.397,58.651,322.397,59.139z"/>
	<path fill="#FFFFFF" d="M324.989,59.871c0,0.888-0.354,1.684-1.057,2.388l-0.455-0.359c0.432-0.608,0.646-1.269,0.646-1.98v-0.12
		h0.865V59.871z"/>
	<path fill="#FFFFFF" d="M334.06,60.711h-4.318v-8.004h4.223v0.647h-3.467v2.845h3.252v0.636h-3.252v3.204h3.562V60.711z
		 M333.257,51.146l-2.568,0.961l-0.24-0.469l2.484-1.2L333.257,51.146z"/>
	<path fill="#FFFFFF" d="M336.364,53.007c0,0.128-0.047,0.24-0.139,0.336s-0.205,0.145-0.342,0.145c-0.127,0-0.24-0.049-0.336-0.145
		s-0.145-0.208-0.145-0.336c0-0.136,0.049-0.25,0.145-0.342s0.209-0.138,0.336-0.138c0.137,0,0.25,0.046,0.342,0.138
		S336.364,52.871,336.364,53.007z M336.243,60.711h-0.719v-5.76h0.719V60.711z"/>
	<path fill="#FFFFFF" d="M341.032,54.891l-0.168,0.601c-0.168-0.024-0.324-0.036-0.469-0.036c-0.359,0-0.688,0.084-0.982,0.252
		c-0.217,0.12-0.404,0.276-0.564,0.468c-0.072,0.096-0.141,0.192-0.205,0.288v4.248h-0.719v-5.76h0.684v0.756
		c0.504-0.608,1.111-0.912,1.824-0.912C340.64,54.795,340.841,54.827,341.032,54.891z"/>
	<path fill="#FFFFFF" d="M346.288,57.591c0,0.017-0.004,0.072-0.012,0.168s-0.012,0.168-0.012,0.216h-4.129
		c0,0.656,0.172,1.185,0.518,1.584c0.344,0.4,0.832,0.601,1.463,0.601c0.488,0,1.045-0.156,1.668-0.468l0.324,0.552
		c-0.049,0.063-0.244,0.168-0.588,0.312c-0.48,0.185-0.969,0.276-1.465,0.276c-0.824,0-1.473-0.272-1.949-0.816
		s-0.715-1.26-0.715-2.147c0-0.928,0.238-1.67,0.715-2.227c0.477-0.556,1.113-0.834,1.914-0.834c0.68,0,1.225,0.24,1.633,0.721
		C346.077,56.031,346.288,56.719,346.288,57.591z M345.556,57.363c0-0.504-0.111-0.937-0.336-1.296
		c-0.279-0.433-0.676-0.648-1.188-0.648s-0.943,0.176-1.295,0.528c-0.354,0.352-0.545,0.824-0.576,1.416H345.556z"/>
	<path fill="#FFFFFF" d="M349.085,60.267c0,0.152-0.053,0.28-0.156,0.385c-0.105,0.104-0.232,0.155-0.385,0.155
		s-0.279-0.052-0.383-0.155c-0.105-0.104-0.156-0.232-0.156-0.385c0-0.151,0.051-0.279,0.156-0.384
		c0.104-0.104,0.23-0.156,0.383-0.156s0.279,0.053,0.385,0.156C349.032,59.987,349.085,60.115,349.085,60.267z M348.987,52.707
		l-0.119,6.06h-0.648l-0.156-6.06H348.987z"/>
</g>
<g>
	<rect x="352.679" y="52.656" fill="#169B62" width="16.104" height="8.052"/>
	<rect x="358.046" y="52.656" fill="#FFFFFF" width="10.736" height="8.052"/>
	<rect x="363.415" y="52.656" fill="#FF883E" width="5.367" height="8.052"/>
</g>
</svg>
