<?xml version="1.0" encoding="utf-8"?>
<!-- Generator: Adobe Illustrator 24.0.0, SVG Export Plug-In . SVG Version: 6.00 Build 0)  -->
<svg version="1.1" id="Layer_1" xmlns="http://www.w3.org/2000/svg" xmlns:xlink="http://www.w3.org/1999/xlink" x="0px" y="0px"
	 viewBox="0 0 389.1 171" style="enable-background:new 0 0 389.1 171;" xml:space="preserve">
<style type="text/css">
	.st0{fill:none;stroke:#231F20;stroke-width:3.0436;stroke-miterlimit:10;}
	.st1{fill:#9E5664;stroke:#231F20;stroke-width:3.0436;stroke-miterlimit:10;}
	.st2{fill:#F3ECC2;stroke:#231F20;stroke-width:3.0435;stroke-miterlimit:9.9997;}
	.st3{fill:#F17E42;stroke:#231F20;stroke-width:3.0436;stroke-miterlimit:10;}
	.st4{fill:none;stroke:#231F20;stroke-width:2.0291;stroke-miterlimit:10;}
	.st5{fill:#020214;stroke:#231F20;stroke-width:3.0436;stroke-miterlimit:10;}
	.st6{fill:none;stroke:#FFFFFF;stroke-width:0.6087;stroke-miterlimit:10;}
	.st7{fill:#FFFFFF;}
	.st8{fill:#169B62;}
	.st9{fill:#FF883E;}
	.st10{fill:#305DA8;}
	.st11{fill:#FFFFFF;stroke:#000000;stroke-miterlimit:10;}
	.st12{fill:#164194;}
	.st13{fill:#FFEC00;}
</style>
<line class="st0" x1="23.2" y1="26.8" x2="28.7" y2="39"/>
<line class="st0" x1="42.1" y1="33.5" x2="36" y2="25"/>
<line class="st0" x1="35.4" y1="42" x2="43.3" y2="46.9"/>
<line class="st0" x1="43.3" y1="46.9" x2="34.2" y2="49.9"/>
<path class="st1" d="M26.3,69.6l28.6-0.7c0,0,14.6,51.6,6.1,52.3c-8.5,0.7-38.4,0-38.4,0s-3.7-2.2-1.8-14
	C22.6,95.3,26.3,69.6,26.3,69.6z"/>
<ellipse transform="matrix(0.9576 -0.288 0.288 0.9576 -10.3666 12.5334)" class="st2" cx="37.4" cy="41.5" rx="26" ry="32.7"/>
<path class="st0" d="M55.8,71.2c0,0-4.9-8.4,4.4,6.6c9.3,14.9,12.6,30.4,12.6,30.4"/>
<path class="st0" d="M26.3,69.6c0,0-3.7-0.1-8.5,14.5c-4.9,14.6-5.5,23.7-5.5,23.7"/>
<path class="st3" d="M14.4,10.5c5.3,1.7,8.1,2.1,10.1-2.9s10.4-7.3,15.7-4.4c5.3,3,7.4,6.3,10.7,9.6c3.3,3.3,0.6,0.8-7.3,4.1
	c-7.9,3.3-11.6-4.8-14.3-0.8c-2.6,4-14.5,13.5-17.5,11.9C8.8,26.3,9.1,8.8,14.4,10.5z"/>
<path class="st4" d="M28.1,29c3.7,12.2,3.7,12.2,3.7,12.2"/>
<line class="st4" x1="39.1" y1="27.2" x2="42.7" y2="38.8"/>
<path class="st4" d="M38.5,45.3c0,0,8.1,4.5,6.9,6.1c-1.2,1.6-6.9,0.8-6.9,0.8"/>
<path class="st4" d="M41.3,61.6c0,0,4.1,1.2,7.3-1.6c3.2-2.8,3.2-2.8,3.2-2.8l0,0"/>
<path class="st0" d="M61,121.1c0,0,1.8,3.5,3.3,10c3,13.4,4.1,29.4,4.1,29.4"/>
<path class="st0" d="M24.5,121.1c0,0-1.8,3.5-3.3,10c-3,13.4-4.1,29.4-4.1,29.4"/>
<path class="st5" d="M68.2,159.2c0,0-0.2,5.2-0.2,6.1c0,0.9,1.3,1.8,4.3,2.2c2.9,0.4,10.6,1.4,10.1-1.1c-0.4-2.5,0-5.2-2.5-4.9
	c-2.5,0.2-8.5-1.8-9.2-2.5C70,158.3,68.2,159.2,68.2,159.2z"/>
<line class="st6" x1="72.9" y1="161.8" x2="74.8" y2="166.3"/>
<line class="st6" x1="75.7" y1="162.6" x2="77.5" y2="166.4"/>
<path class="st5" d="M17.2,159.9c0,0,0.2,5.2,0.2,6.1s-1.4,1.8-4.3,2.2c-2.9,0.5-10.6,1.4-10.1-1.1c0.5-2.5,0-5.2,2.5-4.9
	c2.5,0.2,8.5-1.8,9.2-2.5C15.4,159,17.2,159.9,17.2,159.9z"/>
<line class="st6" x1="12.5" y1="162.5" x2="10.6" y2="166.9"/>
<line class="st6" x1="9.6" y1="163.3" x2="7.9" y2="167.1"/>
<g>
	<path class="st7" d="M81.6,78.5V34.2h16.5c3.7,0,6.9,0.6,9.6,1.7c2.7,1.2,5,2.7,6.9,4.7c1.9,2,3.2,4.3,4.2,7
		c0.9,2.7,1.4,5.5,1.4,8.6c0,3.4-0.5,6.4-1.6,9.1c-1,2.7-2.5,5.1-4.5,7c-1.9,1.9-4.3,3.4-7,4.5c-2.7,1.1-5.8,1.6-9.1,1.6H81.6z
		 M109.8,56.3c0-2-0.3-3.7-0.8-5.3c-0.5-1.6-1.3-3-2.3-4.1c-1-1.2-2.2-2.1-3.7-2.7c-1.5-0.6-3.1-0.9-4.9-0.9h-6.3v26.3h6.3
		c1.9,0,3.5-0.3,5-1c1.5-0.7,2.7-1.6,3.7-2.8s1.7-2.6,2.2-4.2C109.5,60,109.8,58.2,109.8,56.3z"/>
	<path class="st7" d="M136.7,34.2h9.2l16.2,44.3h-10.5l-3.4-9.9h-13.8l-3.4,9.9h-10.5L136.7,34.2z M146.5,61.5l-5.2-15.7L136,61.5
		H146.5z"/>
	<path class="st7" d="M169.1,34.2l10.4,31.5l10.3-31.5h10.8l-16.8,44.3h-8.6l-17-44.3C158.3,34.2,169.1,34.2,169.1,34.2z"/>
	<path class="st7" d="M204.7,78.5V34.2H215v44.3H204.7z"/>
	<path class="st7" d="M223.5,78.5V34.2H240c3.7,0,6.9,0.6,9.6,1.7c2.7,1.2,5,2.7,6.9,4.7c1.9,2,3.2,4.3,4.2,7
		c0.9,2.7,1.4,5.5,1.4,8.6c0,3.4-0.5,6.4-1.6,9.1c-1,2.7-2.5,5.1-4.5,7c-1.9,1.9-4.3,3.4-7,4.5c-2.7,1.1-5.8,1.6-9.1,1.6H223.5z
		 M251.7,56.3c0-2-0.3-3.7-0.8-5.3c-0.5-1.6-1.3-3-2.3-4.1c-1-1.2-2.2-2.1-3.7-2.7s-3.1-0.9-4.9-0.9h-6.3v26.3h6.3
		c1.9,0,3.5-0.3,5-1c1.5-0.7,2.7-1.6,3.6-2.8c1-1.2,1.7-2.6,2.2-4.2C251.4,60,251.7,58.2,251.7,56.3z"/>
	<path class="st7" d="M116.5,133.9v-26.5l-9.6,19.3h-5.5l-9.6-19.3v26.5H81.6V89.6h11.1l11.5,23.2l11.5-23.2h11v44.3H116.5z"/>
	<path class="st7" d="M147.3,89.6h9.2l16.2,44.3h-10.5l-3.4-9.9H145l-3.4,9.9h-10.5L147.3,89.6z M157.1,116.9l-5.2-15.7l-5.3,15.7
		H157.1z"/>
	<path class="st7" d="M183.5,89.6l9.7,15.3l9.7-15.3h11L198.5,112l14.9,21.8h-11l-9.2-14.7l-9.2,14.7h-11.1l14.9-21.8l-15.4-22.5
		C172.4,89.6,183.5,89.6,183.5,89.6z"/>
	<path class="st7" d="M232.4,89.6h9.4l4.5,14.2l4.5-14.2h9.5l-7.4,20.6l4.5,11.9l11.1-32.6h11.2l-17.7,44.3h-8.5l-7.1-17.3l-7,17.3
		h-8.6l-17.7-44.3h11.1l11.2,32.6l4.4-11.9L232.4,89.6z"/>
	<path class="st7" d="M314.6,124.9v9h-31.1V89.6h30.6v9h-20.3v8.6h17.5v8.3h-17.5v9.4C293.7,124.9,314.6,124.9,314.6,124.9z"/>
	<path class="st7" d="M320.9,133.9V89.6h10.2v35.3h21.5v9L320.9,133.9L320.9,133.9z"/>
	<path class="st7" d="M357.4,133.9V89.6h10.2v35.3h21.5v9L357.4,133.9L357.4,133.9z"/>
</g>
<g>
	<rect x="308.4" y="46.9" class="st8" width="37.8" height="18.9"/>
	<rect x="321" y="46.9" class="st7" width="25.2" height="18.9"/>
	<rect x="333.6" y="46.9" class="st9" width="12.6" height="18.9"/>
</g>
<g>
	<rect x="270.9" y="46.9" class="st10" width="31.5" height="18.9"/>
	<g>
		<polygon class="st7" points="275.2,65.8 270.9,65.8 270.9,63.2 298.1,46.9 302.4,46.9 302.4,49.5 		"/>
	</g>
	<g>
		<polygon class="st7" points="298.1,65.8 270.9,49.5 270.9,46.9 275.2,46.9 302.4,63.2 302.4,65.8 		"/>
	</g>
</g>
<path class="st11" d="M441.7-53.1"/>
<g>
	<g>
		<rect x="352.3" y="46.9" class="st12" width="28.3" height="18.9"/>
		<path class="st12" d="M366.5,56.3"/>
	</g>
	<g>
		<polygon class="st13" points="365.8,51 366.4,50.6 367,51 366.8,50.3 367.4,49.9 366.7,49.9 366.4,49.2 366.2,49.9 365.5,49.9 
			366.1,50.3 		"/>
		<polygon class="st13" points="362.8,51.8 363.4,51.4 363.9,51.8 363.7,51.1 364.3,50.7 363.6,50.7 363.4,50 363.1,50.7 
			362.4,50.7 363,51.1 		"/>
		<polygon class="st13" points="361.1,52.3 360.9,53 360.1,53 360.7,53.4 360.5,54.1 361.1,53.7 361.7,54.1 361.5,53.4 362.1,53 
			361.3,53 		"/>
		<polygon class="st13" points="360.3,56.8 360.9,57.2 360.6,56.5 361.2,56.1 360.5,56.1 360.3,55.4 360,56.1 359.3,56.1 
			359.9,56.5 359.7,57.2 		"/>
		<polygon class="st13" points="361.3,59.2 361.1,58.5 360.9,59.2 360.1,59.2 360.7,59.6 360.5,60.3 361.1,59.9 361.7,60.3 
			361.5,59.6 362.1,59.2 		"/>
		<polygon class="st13" points="363.6,61.4 363.4,60.7 363.1,61.4 362.4,61.4 363,61.9 362.8,62.6 363.4,62.1 364,62.6 363.7,61.9 
			364.3,61.4 		"/>
		<polygon class="st13" points="366.7,62.3 366.4,61.5 366.2,62.3 365.5,62.3 366.1,62.7 365.8,63.4 366.4,63 367,63.4 366.8,62.7 
			367.4,62.3 		"/>
		<polygon class="st13" points="369.8,61.4 369.5,60.7 369.3,61.4 368.6,61.4 369.2,61.9 368.9,62.6 369.5,62.1 370.1,62.6 
			369.9,61.9 370.5,61.4 		"/>
		<polygon class="st13" points="372,59.2 371.8,58.5 371.6,59.2 370.8,59.2 371.4,59.6 371.2,60.3 371.8,59.9 372.4,60.3 
			372.2,59.6 372.8,59.2 		"/>
		<polygon class="st13" points="373.6,56.1 372.9,56.1 372.6,55.3 372.4,56.1 371.7,56.1 372.3,56.5 372,57.2 372.6,56.8 
			373.2,57.2 373,56.5 		"/>
		<polygon class="st13" points="371.2,54.1 371.8,53.7 372.4,54.1 372.2,53.4 372.8,53 372,53 371.8,52.3 371.6,53 370.8,53 
			371.4,53.4 		"/>
		<polygon class="st13" points="369.5,50 369.3,50.7 368.6,50.7 369.2,51.1 368.9,51.9 369.5,51.4 370.1,51.9 369.9,51.1 
			370.5,50.7 369.8,50.7 		"/>
	</g>
</g>
</svg>
