<?xml version="1.0" encoding="utf-8"?>

<!DOCTYPE svg PUBLIC "-//W3C//DTD SVG 1.1//EN" "http://www.w3.org/Graphics/SVG/1.1/DTD/svg11.dtd">
<svg version="1.1" xmlns="http://www.w3.org/2000/svg" xmlns:xlink="http://www.w3.org/1999/xlink" x="0px" y="0px" width="104.611px" height="104.611px" viewBox="0 0 104.611 104.611" enable-background="new 0 0 104.611 104.611" xml:space="preserve">
    
    <defs>
        <style>
            .sprite {
                display: none;
            }
        
            .sprite:target {
                display: inline;
            }
        </style>
    </defs>
    
    <g class="sprite" id="home">
        <path fill="#3366FF" d="M50.236,34.258L17.86,60.923v28.779c0,1.552,1.258,2.811,2.81,2.811l19.679-0.052
        	c1.546-0.007,2.796-1.264,2.796-2.81V72.844c0-1.553,1.257-2.811,2.809-2.811h11.239c1.551,0,2.809,1.258,2.809,2.811v16.795
        	c-0.004,1.551,1.25,2.812,2.801,2.816c0.005,0,0.008,0,0.011,0l19.671,0.056c1.552,0,2.81-1.259,2.81-2.811V60.903l-32.37-26.646
        	C52.139,33.625,51.02,33.625,50.236,34.258L50.236,34.258z M101.377,52.382L86.697,40.28V15.957c0-1.164-0.943-2.106-2.108-2.106
        	h-9.833c-1.164,0-2.107,0.942-2.107,2.106v12.75L56.927,15.773c-3.11-2.561-7.6-2.561-10.712,0L1.764,52.382
        	c-0.897,0.741-1.023,2.069-0.282,2.967c0,0,0,0.001,0.001,0.001l4.478,5.442c0.74,0.9,2.067,1.029,2.966,0.29
        	c0.002-0.001,0.003-0.002,0.004-0.003l41.305-34.021c0.784-0.632,1.903-0.632,2.687,0L94.23,61.079
        	c0.896,0.742,2.226,0.617,2.966-0.279c0,0,0-0.002,0.002-0.002l4.479-5.442c0.737-0.899,0.606-2.228-0.291-2.967
        	C101.383,52.386,101.38,52.384,101.377,52.382L101.377,52.382z"/>
    </g>
    
    <g class="sprite" id="language">
    	<path fill="#FF0000" d="M43.932,48.066v22.919l3.239,0.119l-0.42,15.778h-6.84l-0.3-9.479H21.073l-0.36,9.479h-6.899l-0.24-15.719
    		l2.7-0.18c1.26-1.859,2.28-3.961,2.939-6.119c0.841-3.061,1.32-6.361,1.32-9.601v-7.2h23.399V48.066z M28.452,58.145
    		c0,2.46-0.42,5.1-1.08,7.619c-0.42,1.68-1.14,3.479-2.04,4.979h9.721v-16.02h-6.601V58.145z"/>
    	<path fill="#FF0000" d="M96.37,76.153c0,6.709-2.062,12.127-6.188,16.252c-2.947,2.947-6.643,4.896-11.084,5.848
    		c-2.856,0.637-7.072,0.952-12.648,0.952h-9.315V53.848h12.513c5.032,0,8.658,0.25,10.88,0.748c3.717,0.815,6.937,2.584,9.656,5.305
    		C94.306,64.026,96.37,69.444,96.37,76.153z M86.781,75.881c0-4.577-1.292-8.158-3.876-10.742c-1.723-1.724-3.808-2.833-6.256-3.332
    		c-1.405-0.272-3.831-0.408-7.275-0.408h-2.721v30.124h4.557C81.59,91.521,86.781,86.308,86.781,75.881z"/>
    	<path fill="#FF0000" d="M31.242,13.795c0.24-2.08,0.4-4.198,0.44-6.438V3.757h4.238v2.641c0,2.6-0.159,5.079-0.439,7.397h16.038
    		v4.08H36.442c2.879,8.358,8.199,14.797,15.997,19.356L49.8,40.67c-7.519-4.639-12.838-11.078-15.877-19.315
    		c-2.72,8.918-8.078,15.477-16.076,19.677l-2.681-3.52c8.079-3.92,13.198-10.479,15.357-19.638H16.085v-4.08L31.242,13.795
    		L31.242,13.795z"/>
    	<path fill="#FF0000" d="M59.684,9.677V5.716H87.8v17.798c0,5.358-2,8.078-5.919,8.078h-3.96l-1.158-3.959l4.158,0.2
    		c1.801,0,2.721-1.88,2.721-5.599V9.677H73.562v26.314h17.717v3.959H56.565v-3.959h12.957V9.677H59.684z"/>
    </g>
    
    <g class="sprite" id="baby">
        <path fill="#000000" d="M52.303,35.845c8.342,0,15.101-6.757,15.101-15.099s-6.759-15.1-15.101-15.1
        	c-8.344,0-15.101,6.757-15.101,15.1S43.96,35.845,52.303,35.845z M42.224,82.806l4.831-6.039l-11.607-9.665l-8.663,10.835
        	c-2.151,2.679-2.209,6.492-0.151,9.248l9.061,12.079c1.491,1.982,3.756,3.021,6.04,3.021c1.566,0,3.171-0.49,4.53-1.51
        	c3.341-2.49,4.001-7.229,1.51-10.57L42.224,82.806z M69.16,67.102l-11.608,9.665l4.83,6.039l-5.55,7.399
        	c-2.489,3.342-1.829,8.079,1.511,10.57c1.358,1.02,2.943,1.51,4.529,1.51c2.304,0,4.569-1.037,6.039-3.021l9.061-12.08
        	c2.057-2.756,2.002-6.568-0.15-9.247L69.16,67.102L69.16,67.102z M87.165,33.014c-2.397-3.417-7.096-4.228-10.514-1.849
        	l-7.662,5.378c-9.947,6.984-23.443,6.984-33.371,0l-7.664-5.36c-3.417-2.396-8.117-1.567-10.514,1.831
        	c-2.396,3.417-1.566,8.116,1.831,10.514l7.664,5.378c3.209,2.248,6.682,3.946,10.268,5.267v5.832h15.104h15.098v-5.814
        	c3.584-1.321,7.058-3.02,10.268-5.265l7.661-5.38C88.751,41.131,89.562,36.431,87.165,33.014L87.165,33.014z"/>
        <polygon fill="#0072C6" points="56.411,60.007 67.404,60.007 69.16,67.102 57.552,76.767 47.056,76.767 35.448,67.102 
        	37.203,60.007 "/>
        <path fill="#EF7E43" d="M39.92,7.322c3.557,1.371,5.471,1.772,7.055-1.544c1.583-3.316,7.473-4.576,10.971-2.296
        	c3.498,2.279,4.797,4.684,6.919,7.102c2.122,2.417,0.393,0.547-5.201,2.461c-5.595,1.916-7.791-3.805-9.783-1.2
        	c-1.992,2.605-10.591,8.655-12.56,7.387C35.353,17.963,36.362,5.949,39.92,7.322z"/>
    </g>

</svg>
