<?xml version="1.0" encoding="utf-8"?>
<!-- Generator: Adobe Illustrator 16.0.4, SVG Export Plug-In . SVG Version: 6.00 Build 0)  -->
<!DOCTYPE svg PUBLIC "-//W3C//DTD SVG 1.1//EN" "http://www.w3.org/Graphics/SVG/1.1/DTD/svg11.dtd">
<svg version="1.1" id="Layer_1" xmlns="http://www.w3.org/2000/svg" xmlns:xlink="http://www.w3.org/1999/xlink" x="0px" y="0px"
	 width="300px" height="250px" viewBox="0 0 300 250" enable-background="new 0 0 300 250" xml:space="preserve">
<rect x="175.09" y="106.68" fill="#9AD5F4" width="12.45" height="307.72"/>
<path fill-rule="evenodd" clip-rule="evenodd" fill="#FECD3E" d="M263.58,104.79c11.12-0.06,29.109,0.04,40.779,0.04
	c3.621,0,9.551-0.95,6.23,6.17c-2.949,6.31-7.189,15.1-9.02,18.88c-6.15,0-31.1,0.02-31.16-0.09c-1.99-4.12-4.85-9.99-8.46-17.44
	C260.029,108.38,259.08,104.79,263.58,104.79z M257.95,212.65h61.51c18.16,0,19.819,2.22,21.101,5.69
	c-0.771-5.39-4.681-33.01-7.41-53c-0.711-5.22-2.771-19.57-10.881-28.12c-2.569-2.75-3.81-4.13-9.33-6.23
	c0.44-1.09,5.461-12.22,9.181-21.2c1.909-4.6-0.16-9.17-4.091-11.31c-3.42-1.83-7.809-1.91-10.959-1.91
	c-21.08,0-37.36,0.03-43.86,0.03c-11.271,0-16.5,6.39-13.06,14.11c2.609,5.84,6.959,15.81,8.949,20.36
	c-13.869,4.13-18.439,21-20.449,35.61c-3.351,24.62-7.891,57.48-8.221,59.45c-0.479,3.13-1.07,5.72,4.7,5.95
	c10.931,0.63,23.7,0.7,45.19,0.21c2.07,1.04,4.75,1.69,8.27,1.58c3.49-0.05,6.04-0.87,7.86-2.02c8.771-0.29,18.739-0.65,30.149-1.06
	c-10.02-0.21-19.41-0.46-28.1-0.68c3.141-3.46,2.82-8.2,2.529-9.13c-1.309,12.84-20.01,11.61-15.379-2.01
	c-2.01,0-7.211,0-10.53,2.42c-0.89,1.98-0.58,5.31,1.55,8.06c-12.141-0.47-22.141-0.87-29.38-1.23c-3.72-0.17-5.511-2.56-3.62-4.76
	C251.5,214.33,251.96,212.65,257.95,212.65z"/>
<path fill="#FFFFFF" d="M178.4,413.09c0,3.61-2.7,6.551-6.061,6.551c-3.34,0-6.07-2.94-6.07-6.551v-30.54
	c0-3.569,2.73-6.54,6.07-6.54c3.36,0,6.061,2.971,6.061,6.54V413.09z"/>
<path fill="#E09E33" d="M93.94,50.47c1.94-0.72,4.71-0.54,7.27-0.54c-2.83-2.1-5.4-2.92-6.95-3.28c-3.62-12.22-23.46-8.9-25.42,1.93
	c-0.7,3.91-16.27,5.63-34.13,26.91c-8.22,9.78-19.59,18.25-23.03,20.21c-3.47,1.92,4.97,1.36,8.87-2.32
	c3.65,3.28,10.84-6.58,21.65-8.25c2.85-0.4,38.77-6.22,29.3-24.55c12.65,14.51-8.44,24.94-21.72,26.1c1.17,0.55,8.07,1.03,8.86,1.31
	c1.98,0.62-0.59,2.77,1.03,3.59c3.87,1.9,11.54,8.36,11.54,8.36s4.38-1.33,2.39-3.08c-5.92-3.48-7.52-4.55-9.03-6.72
	c-0.11-0.13-2.02-3.34,1.88-4.26c5.62-0.4,24.04-6.23,20.91-26.82C86.86,55.81,89.42,52.29,93.94,50.47z"/>
<path fill="#14365A" d="M91.25,47.05c0,1.08-0.9,1.93-2,1.93c-1.08,0-1.98-0.85-1.98-1.93c0-1.05,0.9-1.94,1.98-1.94
	C90.35,45.11,91.25,46,91.25,47.05z"/>
<rect x="184.02" y="374.87" fill="#FFFFFF" width="6.641" height="43.239"/>
<path fill="#FECD3E" d="M196.57,424.85c1.97-1.85,3.18-4.34,3.18-7.1c0-5.66-5.16-10.27-11.54-10.27h-19.63
	c-6.37,0-11.55,4.609-11.55,10.27c0,2.67,1.14,5.05,2.97,6.87c-2.37,1.909-6.6,5.56-7.78,6.819c13.18,5.17,38.2,4.75,52.309-0.08
	C203.2,430.33,198.689,426.641,196.57,424.85z"/>
<path fill="#9AD5F4" d="M178.1,69.98c0,0.25-0.029,0.19-0.029-0.08c-8.521-6.78-35.89-9.68-53.48-5.68c1.15,1.91,2.56,8,3.32,10.43
	c25.97-7.7,50.16,3.56,50.16,3.56v-0.23c0,0.08,0,0.19,0.029,0.25c0,0,24.18-11.24,50.17-3.52c0.721-2.44,2.16-8.51,3.33-10.39
	C213.96,60.27,186.609,63.16,178.1,69.98z"/>
<rect x="185.96" y="106.66" fill="#FFFFFF" width="3.87" height="238.439"/>
<rect x="166.47" y="106.68" fill="#FFFFFF" width="12.4" height="221.24"/>
<path fill="#14365A" d="M190.71,191.79c0.81-2.59,1.2-8.99,0-11c-5.81,0-14.85,0.04-20.12-0.07
	C182.66,184.64,190.71,191.79,190.71,191.79z"/>
<path fill="#14365A" d="M191.1,256.87c0.83-2.61,1.18-9.02,0-10.99c-5.83,0-14.85,0.06-20.09-0.08
	C183.04,249.72,191.1,256.87,191.1,256.87z"/>
<path fill="#FECD3E" d="M199.57,235.96c0,5.7-5.25,10.31-11.711,10.31H167.97c-6.46,0-11.7-4.61-11.7-10.31
	c0-5.69,5.24-10.27,11.7-10.27h19.889C194.32,225.69,199.57,230.27,199.57,235.96z"/>
<path fill="#E09E33" d="M187.52,242.77c-11.66,0.11-21.689,0-21.689,0s16.43-0.87,26.87-10.79
	C195.42,233.6,195.939,242.74,187.52,242.77z"/>
<path fill="#14365A" d="M191.29,322.859c0.819-2.569,1.149-9.02,0-10.979c-5.819,0-14.82,0.06-20.1-0.101
	C183.23,315.721,191.29,322.859,191.29,322.859z"/>
<path fill="#FECD3E" d="M199.721,301.641c0,5.709-5.23,10.319-11.691,10.319H168.14c-6.46,0-11.68-4.61-11.68-10.319
	c0-5.681,5.22-10.24,11.68-10.24h19.889C194.49,291.4,199.721,295.96,199.721,301.641z"/>
<path fill="#E09E33" d="M187.67,308.45c-11.67,0.11-21.66-0.021-21.66-0.021s16.4-0.81,26.83-10.779
	C195.58,299.29,196.109,308.41,187.67,308.45z"/>
<rect x="160.47" y="123.39" fill="#FECD3E" width="35.16" height="30.77"/>
<path fill="#E09E33" d="M195.63,154.12c-5.97,1.28-5.58,5.74-5.8,7.38c0,0-14.18,0.09-23.49,0c0.07-0.48,0.29-6.57-5.87-7.38
	C160.47,154.12,193.38,154.15,195.63,154.12z"/>
<rect x="181" y="123.39" fill="#E09E33" width="9.529" height="31.16"/>
<path fill="#E7422E" d="M87.79,63.74c-0.14,15.64-13.58,20.57-17.44,21.47C71.63,81.74,77.11,65.52,87.79,63.74z"/>
<path fill="#FECD3E" d="M199.85,170.6c0,5.71-5.22,10.35-11.709,10.35H168.27c-6.48,0-11.7-4.64-11.7-10.35
	c0-5.66,5.22-10.26,11.7-10.26h19.871C194.63,160.34,199.85,164.94,199.85,170.6z"/>
<path fill="#E09E33" d="M187.84,177.42c-11.69,0.11-21.72-0.01-21.72-0.01s16.43-0.88,26.87-10.8
	C195.721,168.27,196.24,177.38,187.84,177.42z"/>
<path fill="#FFFFFF" d="M178.05,16.02c-9.15-15.79-22.21-3.63-45.11-9.94c-4.04,16.7-8.09,46.58-9.23,51.72
	c15.64,4.19,29.4-8.85,48.08,2.01c-2-21.54,5.79-39.49,5.79-39.49S177.82,17.68,178.05,16.02z"/>
<path fill="#9AD5F4" d="M178.109,15.96c-1.819-2.8-3.56-5.18-6.58-6.71c-2.69,25.65-3.37,31.21-12.5,46.28
	c5.68,0.64,9.86,2.51,12.79,4.35c-2.04-21.59,6.27-38.54,6.27-38.54S178.05,16.87,178.109,15.96z"/>
<path fill="#FFFFFF" d="M223.221,6c-22.891,6.31-35.99-5.84-45.111,9.96c-0.02,5.38-0.039,45.2,0.031,48.17
	c21.959-18.29,37.02-1.78,54.319-6.41C231.3,52.58,227.26,22.72,223.221,6z"/>
<rect x="171.73" y="93.48" fill="#FECD3E" width="12.73" height="13.2"/>
<polygon fill="#FECD3E" points="178.17,80.83 184.51,90.7 171.67,90.76 "/>
<path fill="#049147" d="M71.05,119.8v-0.07C70.96,119.69,70.96,119.74,71.05,119.8z"/>
<path fill="#82BB47" d="M122.28,184.44c0,0,17.47-7.69,19.2-15.59c-5.41-4.63-19.06-5.14-19.06-5.14s15.68-10.64,15.02-18.36
	c-7.83-3.25-21.77-1.36-21.77-1.36c6.47-7.99,8.31-14.32,8.06-19.9c-8.15-1.21-20.72,3.09-20.72,3.09s4.21-13.4,0.06-20.34
	c-7.53-1.8-18.16,10.04-18.16,10.04s-3.78-14.65-12.6-22.44c-8.85,7.79-12.73,22.44-12.73,22.44s-10.61-11.84-18.19-10.04
	c-4.09,6.94,0.11,20.34,0.11,20.34s-12.58-4.3-20.78-3.09c-0.21,5.58,1.64,11.91,8.1,19.9c0,0-13.96-1.89-21.76,1.36
	c-0.66,7.72,15.01,18.36,15.01,18.36s-13.67,0.51-19.05,5.14c1.73,7.9,19.2,15.59,19.2,15.59s-10.4,1.9-16.74,8.32
	c4.04,4.79,13.15,9.37,20.26,10.41c-6.15,4.43-9.6,7.88-11.15,10.46c10,7.2,30.97,8.23,51.93,2.4c0,3.58,0.07,32.43-4.85,45.65
	h21.14c-4.89-13.22-4.84-42.07-4.84-45.65c20.97,5.83,41.96,4.8,51.93-2.4c-1.58-2.58-4.99-6.03-11.12-10.46
	c7.11-1.04,16.19-5.62,20.24-10.41C132.65,186.34,122.28,184.44,122.28,184.44z"/>
<path fill="#00974B" d="M103.19,184.95c1.97-0.97,12.12-3.73,17.3-11.79c-5.18-4.49-17.3-4.65-17.3-4.65s10.78-6.33,14.42-15.8
	c-9.24-2.4-18.84,0-18.84,0s7.87-9.96,8.84-18.35c-8.84,0.86-18.26,5.01-18.26,5.01c2.67-5.18,4.02-12.52,2.86-18.9
	c-4.42,0.78-8.45,5.28-10.87,8.08c-2.25-6.39-6.06-8.4-8.66-9.69c-4.32,5.65-5.18,9.31-4.64,17.05c1.46-1.28,3.76-3.32,7.53-5.25
	c2.29,11.04-2.12,19.08-2.12,19.08s5.45-3.18,12.68-3.93c0.3,6.08-2.21,12.4-9.42,19.86c0,0,6.34-3.42,13.67-3.94
	c-1.17,8.59-7.05,14.32-13.11,19.22c4.05-1.69,10.98-1.53,15.79-0.16c-2.49,6.52-8.2,9.8-16.52,13.88c5.15,0,10.46,0.61,13.43,2.4
	c-3.34,5.58-11.52,8.24-17.19,9.68c13.09,4.45,25.77,6.31,38.19,3.62c-0.86-3.3-5.57-7.3-11.06-10.11c5.01-1.02,12.5-2.42,19.05-7.4
	C114.73,189.08,109.53,186.52,103.19,184.95z"/>
<path fill="#E09E33" d="M192.26,412.05c1.73,1.83,2.91,10.46-5.48,11.07c-14.439,1.01-21.379-0.271-21.379-0.271
	S184.77,420.82,192.26,412.05z"/>
<path fill="#E09E33" d="M257.38,147.65c0.88-10.56,6.47-13.02,14.14-12.87c4.311,0.09,10.83,0.14,26.61,0.03
	c-8.88,0.71-19.96,4.87-21.399,15.17c-1.36,9.57-1.44,42.73-1.701,56.86c-7.799,0.27-18.229,0.02-20.529,0.54
	C255.641,192.71,256.51,158.21,257.38,147.65z"/>
<rect x="178.23" y="93.48" fill="#E09E33" width="3.859" height="13.2"/>
<polygon fill="#E09E33" points="182.09,90.76 178.17,80.83 178.17,90.7 "/>
</svg>
