<?xml version="1.0" encoding="utf-8"?>
<!-- Generator: Adobe Illustrator 16.0.4, SVG Export Plug-In . SVG Version: 6.00 Build 0)  -->
<!DOCTYPE svg PUBLIC "-//W3C//DTD SVG 1.1//EN" "http://www.w3.org/Graphics/SVG/1.1/DTD/svg11.dtd">
<svg version="1.1" id="Layer_1" xmlns="http://www.w3.org/2000/svg" xmlns:xlink="http://www.w3.org/1999/xlink" x="0px" y="0px"
	 width="1500.342px" height="241.735px" viewBox="0 0 1500.342 241.735" enable-background="new 0 0 1500.342 241.735"
	 xml:space="preserve">
<linearGradient id="SVGID_1_" gradientUnits="userSpaceOnUse" x1="750.1714" y1="119.5151" x2="750.1714" y2="2.4383">
	<stop  offset="0.1438" style="stop-color:#69C8F2"/>
	<stop  offset="1" style="stop-color:#FFFFFF"/>
</linearGradient>
<rect fill="url(#SVGID_1_)" width="1500.342" height="119.667"/>
<path fill="#4D7142" d="M147.495,101.721c0,0,199.354,36.896,298.429,18.926c99.074-17.969,267.771-65.885,304.349-68.281
	c36.576-2.396,175.461,17.273,302.375,33.195c126.915,15.92,283.596-15.718,347.446-8.038
	c66.818,8.038,100.248,17.967,100.248,17.967v146.244H-0.093L0.203,85.561L147.495,101.721z"/>
<path opacity="0.8" fill-rule="evenodd" clip-rule="evenodd" fill="#FFFFFF" stroke="#12100B" stroke-width="2.2938" stroke-miterlimit="10" d="
	M678.209,54.506c-0.454,1.818-1.52,3.174-3.136,4.095c-1.843,1.052-3.836,1.437-5.939,1.224c-0.378-0.039-0.653,0.013-0.961,0.272
	c-1.679,1.418-3.675,2.099-5.821,2.378c-2.348,0.306-4.618,0.008-6.834-0.81c-0.161-0.061-0.436,0.002-0.58,0.112
	c-2.225,1.715-4.758,2.229-7.498,1.975c-1.586-0.145-3.063-0.619-4.453-1.399c-0.145-0.081-0.455-0.011-0.611,0.099
	c-2.904,2.02-7.643,1.812-10.26-0.516c-0.506-0.447-0.84-1.082-1.279-1.61c-0.113-0.137-0.344-0.298-0.484-0.271
	c-4.109,0.811-7.701-2.087-8.206-5.684c-0.009-0.069-0.058-0.135-0.089-0.201c0-0.601,0-1.199,0-1.799
	c0.131-0.461,0.238-0.932,0.399-1.383c1.31-3.668,5.362-5.52,9.003-4.123c0.188,0.072,0.375,0.146,0.572,0.225
	c1.252-4.832,4.362-7.323,9.32-7.522c1.352-3.312,3.713-5.534,7.162-6.561c0.568-0.169,1.154-0.269,1.732-0.4
	c0.749,0,1.496,0,2.243,0c0.603,0.127,1.214,0.21,1.8,0.389c3.762,1.144,6.256,3.585,7.426,7.351
	c0.104,0.332,0.27,0.514,0.592,0.656c2.76,1.211,4.412,3.301,4.913,6.282c0.011,0.071,0.042,0.142,0.05,0.171
	c4.789-0.404,9.053,0.153,10.939,5.479C678.209,53.458,678.209,53.982,678.209,54.506z"/>
<path opacity="0.8" fill-rule="evenodd" clip-rule="evenodd" fill="#FFFFFF" stroke="#12100B" stroke-width="2.2938" stroke-miterlimit="10" d="
	M983.267,71.242c-0.454,1.818-1.519,3.174-3.136,4.095c-1.843,1.052-3.836,1.437-5.939,1.224c-0.378-0.039-0.652,0.013-0.961,0.272
	c-1.678,1.418-3.674,2.099-5.821,2.378c-2.347,0.306-4.618,0.008-6.833-0.81c-0.162-0.061-0.436,0.002-0.58,0.112
	c-2.225,1.715-4.758,2.229-7.499,1.975c-1.586-0.145-3.063-0.619-4.453-1.399c-0.144-0.081-0.454-0.011-0.611,0.099
	c-2.904,2.02-7.642,1.812-10.26-0.516c-0.505-0.447-0.839-1.082-1.278-1.61c-0.113-0.137-0.344-0.298-0.485-0.271
	c-4.109,0.811-7.7-2.087-8.206-5.684c-0.008-0.069-0.058-0.135-0.088-0.201c0-0.601,0-1.199,0-1.799
	c0.131-0.461,0.237-0.932,0.398-1.383c1.31-3.668,5.363-5.52,9.004-4.123c0.188,0.072,0.375,0.146,0.571,0.225
	c1.253-4.832,4.362-7.323,9.321-7.522c1.351-3.312,3.713-5.534,7.162-6.561c0.568-0.169,1.154-0.269,1.732-0.4
	c0.748,0,1.496,0,2.242,0c0.604,0.127,1.215,0.21,1.801,0.389c3.762,1.144,6.256,3.585,7.426,7.351
	c0.104,0.332,0.269,0.514,0.591,0.656c2.76,1.211,4.412,3.301,4.913,6.282c0.011,0.071,0.043,0.142,0.051,0.171
	c4.788-0.404,9.053,0.153,10.938,5.479C983.267,70.193,983.267,70.717,983.267,71.242z"/>
<path opacity="0.8" fill-rule="evenodd" clip-rule="evenodd" fill="#FFFFFF" stroke="#12100B" stroke-width="2.2938" stroke-miterlimit="10" d="
	M72.576,39.451c-0.454,1.818-1.519,3.174-3.136,4.096c-1.843,1.051-3.836,1.436-5.939,1.223c-0.378-0.039-0.652,0.014-0.961,0.273
	c-1.678,1.418-3.674,2.098-5.821,2.377c-2.347,0.307-4.618,0.008-6.833-0.809c-0.162-0.061-0.436,0.002-0.58,0.111
	c-2.225,1.715-4.758,2.229-7.499,1.975c-1.586-0.145-3.063-0.619-4.453-1.398c-0.144-0.082-0.454-0.012-0.611,0.098
	c-2.904,2.02-7.642,1.812-10.26-0.516c-0.505-0.447-0.839-1.082-1.278-1.609c-0.113-0.137-0.344-0.299-0.485-0.271
	c-4.109,0.811-7.7-2.086-8.206-5.684c-0.008-0.068-0.058-0.135-0.088-0.201c0-0.6,0-1.199,0-1.799
	c0.131-0.461,0.237-0.932,0.398-1.383c1.31-3.668,5.363-5.52,9.004-4.123c0.188,0.072,0.375,0.146,0.571,0.225
	c1.253-4.832,4.362-7.322,9.321-7.521c1.351-3.312,3.713-5.535,7.162-6.561c0.568-0.17,1.154-0.27,1.732-0.4
	c0.748,0,1.496,0,2.242,0c0.604,0.127,1.215,0.209,1.801,0.389c3.762,1.143,6.256,3.584,7.426,7.35
	c0.104,0.332,0.269,0.514,0.591,0.656c2.76,1.211,4.412,3.301,4.913,6.283c0.011,0.07,0.043,0.141,0.051,0.17
	c4.788-0.404,9.053,0.154,10.938,5.479C72.576,38.402,72.576,38.928,72.576,39.451z"/>
<path opacity="0.8" fill-rule="evenodd" clip-rule="evenodd" fill="#FFFFFF" stroke="#12100B" stroke-width="2.2938" stroke-miterlimit="10" d="
	M218.576,58.451c-0.454,1.818-1.519,3.174-3.136,4.096c-1.843,1.051-3.836,1.436-5.939,1.223c-0.378-0.039-0.652,0.014-0.961,0.273
	c-1.678,1.418-3.674,2.098-5.821,2.377c-2.347,0.307-4.618,0.008-6.833-0.809c-0.162-0.061-0.436,0.002-0.58,0.111
	c-2.225,1.715-4.758,2.229-7.499,1.975c-1.586-0.145-3.063-0.619-4.453-1.398c-0.144-0.082-0.454-0.012-0.611,0.098
	c-2.904,2.02-7.642,1.812-10.26-0.516c-0.505-0.447-0.839-1.082-1.278-1.609c-0.113-0.137-0.344-0.299-0.485-0.271
	c-4.109,0.811-7.7-2.086-8.206-5.684c-0.008-0.068-0.058-0.135-0.088-0.201c0-0.6,0-1.199,0-1.799
	c0.131-0.461,0.237-0.932,0.398-1.383c1.31-3.668,5.363-5.52,9.004-4.123c0.188,0.072,0.375,0.146,0.571,0.225
	c1.253-4.832,4.362-7.322,9.321-7.521c1.351-3.312,3.713-5.535,7.162-6.561c0.568-0.17,1.154-0.27,1.732-0.4
	c0.748,0,1.496,0,2.242,0c0.604,0.127,1.215,0.209,1.801,0.389c3.762,1.143,6.256,3.584,7.426,7.35
	c0.104,0.332,0.269,0.514,0.591,0.656c2.76,1.211,4.412,3.301,4.913,6.283c0.011,0.07,0.043,0.141,0.051,0.17
	c4.788-0.404,9.053,0.154,10.938,5.479C218.576,57.402,218.576,57.928,218.576,58.451z"/>
<g>
	
		<rect x="889.37" y="53.908" transform="matrix(0.9968 -0.0804 0.0804 0.9968 -2.0533 72.7517)" fill="#305DA8" width="26.578" height="15.946"/>
	
		<line fill="none" stroke="#FFFFFF" stroke-width="3.7219" stroke-miterlimit="10" x1="890.054" y1="70.896" x2="915.264" y2="52.865"/>
	
		<line fill="none" stroke="#FFFFFF" stroke-width="3.7219" stroke-miterlimit="10" x1="888.771" y1="55.002" x2="916.546" y2="68.76"/>
</g>
<line fill="none" stroke="#13253B" stroke-width="3" stroke-miterlimit="10" x1="890.119" y1="89.061" x2="887.211" y2="55.271"/>
<g>
	<path fill="#46823A" d="M1251.012-266.634l0.009,0.412C1256.435-266.231,1251.012-266.634,1251.012-266.634z"/>
	<path fill="#46823A" d="M1436.55,91.701c-15.58-9.07-58.55-65.034-119.55-45.034s-124.569,105.215-181.737,100.802
		c-33.979-2.623-6.263-0.518-6.263-0.518c-2.793,0.004-42.634-15.252-53-18.284c-70.758-20.699-46.115-20.918-135-36.966
		c-92.404-16.686-151.01,3.589-257.207,43.446c-106.195,39.859-157.224-28.734-219.288-74.156
		c-62.062-45.421-96.542-30.589-146.192,11.124c-49.65,41.711-122.495,70.516-122.495,70.516l-35.977,7.247
		c0,0-41.841-2.212-80.841-35.212s-79.093-62.5-79.093-62.5v189.568H198.83h866.597h434.915V124.667
		C1500.342,124.667,1476,114.667,1436.55,91.701z"/>
</g>
<path fill="#9DD3CC" d="M592.599,143.505c0,0,10.666,3.413,23.904,3.445s23.855-0.586,30.169-1.723s-33.422,29.438-38.922,45.688
	s-21,38.25-28,42.75s-8,8.068-8,8.068h-40.5c0,0,12.194-20.016,27.5-31.318c16.25-12,26.353-41.562,27-48.25
	C586.5,154.417,592.599,143.505,592.599,143.505z"/>
<path fill="#FFFFFF" d="M396.058,39.181c0,0,5.485-4.27,24.297,5.123c18.811,9.393,35.27,17.08,37.621,26.473s26.65,20.492,0,14.516
	c-26.648-5.979-30.566-20.494-38.406-11.955c-7.838,8.539-5.486,23.016-16.458,13.643c-10.973-9.373,0-36.623-15.676-22.145
	s-18.811,32.482-25.866,25.189c-7.054-7.295-5.486-23.52-14.107-20.957c-8.623,2.562-24.298,27.326-18.812,11.955
	c5.487-15.371,39.974-36.719,46.244-39.281C381.166,39.181,396.058,39.181,396.058,39.181z"/>
<path fill="#FFFFFF" d="M1349.5,46.28c0,0,22,2.886,30.5,9.886s30,23.954,20.5,27.227s-14.5,0.273-19.5-7.727s-14-10-17.5,0
	s-6.5,23.5-17,12s-20.341-21.151-28.5-14.5c-20.5,16.71-39.5,25.207-52,19.673s1-14.697,11.5-21.935s36-18.887,45-21.562
	S1349.5,46.28,1349.5,46.28z"/>
<path opacity="0.8" fill-rule="evenodd" clip-rule="evenodd" fill="#FFFFFF" stroke="#12100B" stroke-width="2.2938" stroke-miterlimit="10" d="
	M467.859,36.952c-0.454,1.818-1.519,3.174-3.135,4.095c-1.843,1.052-3.836,1.437-5.939,1.224c-0.378-0.039-0.653,0.013-0.961,0.272
	c-1.679,1.418-3.675,2.099-5.822,2.378c-2.347,0.306-4.618,0.008-6.833-0.81c-0.162-0.061-0.436,0.002-0.581,0.112
	c-2.224,1.715-4.758,2.229-7.499,1.975c-1.586-0.145-3.063-0.619-4.453-1.399c-0.144-0.081-0.455-0.011-0.611,0.099
	c-2.904,2.02-7.642,1.812-10.26-0.516c-0.505-0.447-0.839-1.082-1.279-1.61c-0.113-0.137-0.344-0.298-0.485-0.271
	c-4.109,0.811-7.7-2.087-8.206-5.684c-0.009-0.069-0.058-0.135-0.088-0.201c0-0.601,0-1.199,0-1.799
	c0.131-0.461,0.237-0.932,0.399-1.383c1.309-3.668,5.362-5.52,9.003-4.123c0.188,0.072,0.375,0.146,0.571,0.225
	c1.252-4.832,4.363-7.323,9.321-7.522c1.351-3.312,3.713-5.534,7.163-6.561c0.568-0.169,1.154-0.269,1.732-0.4
	c0.749,0,1.496,0,2.243,0c0.603,0.127,1.214,0.21,1.8,0.389c3.762,1.144,6.256,3.585,7.426,7.351
	c0.104,0.332,0.269,0.514,0.591,0.656c2.76,1.211,4.412,3.301,4.914,6.282c0.01,0.071,0.042,0.142,0.05,0.171
	c4.788-0.404,9.052,0.153,10.938,5.479C467.859,35.903,467.859,36.427,467.859,36.952z"/>
<path opacity="0.8" fill-rule="evenodd" clip-rule="evenodd" fill="#FFFFFF" stroke="#12100B" stroke-width="2.2938" stroke-miterlimit="10" d="
	M1465.576,74.065c-0.454,1.818-1.519,3.174-3.136,4.096c-1.843,1.051-3.836,1.436-5.939,1.223c-0.378-0.039-0.652,0.014-0.961,0.273
	c-1.678,1.418-3.674,2.098-5.821,2.377c-2.347,0.307-4.618,0.008-6.833-0.809c-0.162-0.061-0.436,0.002-0.58,0.111
	c-2.225,1.715-4.758,2.229-7.499,1.975c-1.586-0.145-3.063-0.619-4.453-1.398c-0.144-0.082-0.454-0.012-0.611,0.098
	c-2.904,2.02-7.642,1.812-10.26-0.516c-0.505-0.447-0.839-1.082-1.278-1.609c-0.113-0.137-0.344-0.299-0.485-0.271
	c-4.109,0.811-7.7-2.086-8.206-5.684c-0.008-0.068-0.058-0.135-0.088-0.201c0-0.6,0-1.199,0-1.799
	c0.131-0.461,0.237-0.932,0.398-1.383c1.31-3.668,5.363-5.52,9.004-4.123c0.188,0.072,0.375,0.146,0.571,0.225
	c1.253-4.832,4.362-7.322,9.321-7.521c1.351-3.312,3.713-5.535,7.162-6.561c0.568-0.17,1.154-0.27,1.732-0.4
	c0.748,0,1.496,0,2.242,0c0.604,0.127,1.215,0.209,1.801,0.389c3.762,1.143,6.256,3.584,7.426,7.35
	c0.104,0.332,0.269,0.514,0.591,0.656c2.76,1.211,4.412,3.301,4.913,6.283c0.011,0.07,0.043,0.141,0.051,0.17
	c4.788-0.404,9.053,0.154,10.938,5.479C1465.576,73.016,1465.576,73.542,1465.576,74.065z"/>
<path opacity="0.8" fill-rule="evenodd" clip-rule="evenodd" fill="#FFFFFF" stroke="#12100B" stroke-width="2.2938" stroke-miterlimit="10" d="
	M1324.214,52.565c-0.454,1.818-1.519,3.174-3.136,4.095c-1.843,1.052-3.836,1.437-5.939,1.224c-0.378-0.039-0.652,0.013-0.961,0.272
	c-1.678,1.418-3.674,2.099-5.821,2.378c-2.347,0.306-4.618,0.008-6.833-0.81c-0.162-0.061-0.436,0.002-0.58,0.112
	c-2.225,1.715-4.758,2.229-7.499,1.975c-1.586-0.145-3.063-0.619-4.453-1.399c-0.144-0.081-0.454-0.011-0.611,0.099
	c-2.904,2.02-7.642,1.812-10.26-0.516c-0.505-0.447-0.839-1.082-1.278-1.61c-0.113-0.137-0.344-0.298-0.485-0.271
	c-4.109,0.811-7.7-2.087-8.206-5.684c-0.008-0.069-0.058-0.135-0.088-0.201c0-0.601,0-1.199,0-1.799
	c0.131-0.461,0.237-0.932,0.398-1.383c1.31-3.668,5.363-5.52,9.004-4.123c0.188,0.072,0.375,0.146,0.571,0.225
	c1.253-4.832,4.362-7.323,9.321-7.522c1.351-3.312,3.713-5.534,7.162-6.561c0.568-0.169,1.154-0.269,1.732-0.4
	c0.748,0,1.496,0,2.242,0c0.604,0.127,1.215,0.21,1.801,0.389c3.762,1.144,6.256,3.585,7.426,7.351
	c0.104,0.332,0.269,0.514,0.591,0.656c2.76,1.211,4.412,3.301,4.913,6.282c0.011,0.071,0.043,0.142,0.051,0.171
	c4.788-0.404,9.053,0.153,10.938,5.479C1324.214,51.516,1324.214,52.041,1324.214,52.565z"/>
<g>
	
		<line fill="none" stroke="#000000" stroke-width="1.7461" stroke-miterlimit="10" x1="680.507" y1="103.319" x2="683.631" y2="110.351"/>
	
		<line fill="none" stroke="#000000" stroke-width="1.7461" stroke-miterlimit="10" x1="691.266" y1="107.186" x2="687.796" y2="102.265"/>
	
		<line fill="none" stroke="#000000" stroke-width="1.7461" stroke-miterlimit="10" x1="687.449" y1="112.107" x2="691.962" y2="114.918"/>
	
		<line fill="none" stroke="#000000" stroke-width="1.7461" stroke-miterlimit="10" x1="691.962" y1="114.918" x2="686.753" y2="116.676"/>
	<path fill="#A55461" d="M682.242,127.996l16.312-0.426c0,0,8.331,29.768,3.472,30.194c-4.86,0.426-21.866,0-21.866,0
		s-2.083-1.276-1.041-8.081C680.161,142.879,682.242,127.996,682.242,127.996"/>
	<path fill="none" stroke="#000000" stroke-width="1.7461" stroke-miterlimit="10" d="M682.242,127.996l16.312-0.426
		c0,0,8.331,29.768,3.472,30.194c-4.86,0.426-21.866,0-21.866,0s-2.083-1.276-1.041-8.081
		C680.161,142.879,682.242,127.996,682.242,127.996z"/>
	<path fill="#F8F1C9" d="M693.963,129.875c-7.835,2.387-16.591-3.771-19.558-13.754c-2.964-9.981,0.985-20.009,8.82-22.396
		c7.836-2.387,16.591,3.772,19.558,13.753C705.746,117.461,701.799,127.489,693.963,129.875"/>
	<path fill="none" stroke="#000000" stroke-width="1.7461" stroke-miterlimit="10" d="M693.963,129.875
		c-7.835,2.387-16.591-3.771-19.558-13.754c-2.964-9.981,0.985-20.009,8.82-22.396c7.836-2.387,16.591,3.772,19.558,13.753
		C705.746,117.461,701.799,127.489,693.963,129.875z"/>
	<path fill="none" stroke="#000000" stroke-width="1.7461" stroke-miterlimit="10" d="M699.051,128.95c0,0-2.812-4.821,2.5,3.786
		c5.309,8.609,7.185,17.562,7.185,17.562"/>
	<path fill="none" stroke="#000000" stroke-width="1.7461" stroke-miterlimit="10" d="M682.242,127.996c0,0-2.081-0.073-4.858,8.361
		c-2.775,8.437-3.123,13.707-3.123,13.707"/>
	<path fill="#ED7939" d="M675.492,93.894c3.012,0.952,4.616,1.186,5.745-1.676c1.13-2.86,5.929-4.235,8.94-2.519
		c3.012,1.716,4.216,3.658,6.099,5.565c1.881,1.906,0.354,0.436-4.166,2.343c-4.518,1.907-6.64-2.761-8.145-0.472
		c-1.506,2.288-8.284,7.817-9.979,6.863C672.291,103.045,672.479,92.941,675.492,93.894"/>
	<path fill="none" stroke="#000000" stroke-width="1.7461" stroke-miterlimit="10" d="M675.492,93.894
		c3.012,0.952,4.616,1.186,5.745-1.676c1.13-2.86,5.929-4.235,8.94-2.519c3.012,1.716,4.216,3.658,6.099,5.565
		c1.881,1.906,0.354,0.436-4.166,2.343c-4.518,1.907-6.64-2.761-8.145-0.472c-1.506,2.288-8.284,7.817-9.979,6.863
		C672.291,103.045,672.479,92.941,675.492,93.894z"/>
	
		<line fill="none" stroke="#000000" stroke-width="1.1641" stroke-miterlimit="10" x1="683.292" y1="104.601" x2="685.375" y2="111.629"/>
	
		<line fill="none" stroke="#000000" stroke-width="1.1641" stroke-miterlimit="10" x1="689.539" y1="103.547" x2="691.622" y2="110.225"/>
	<path fill="none" stroke="#000000" stroke-width="1.1641" stroke-miterlimit="10" d="M689.219,114.005c0,0,4.627,2.577,3.934,3.517
		c-0.694,0.936-3.934,0.466-3.934,0.466"/>
	<path fill="none" stroke="#000000" stroke-width="1.1641" stroke-miterlimit="10" d="M690.839,123.378c0,0,2.314,0.701,4.165-0.938
		l1.851-1.639"/>
	<path fill="none" stroke="#000000" stroke-width="1.7461" stroke-miterlimit="10" d="M702.026,157.764c0,0,1.038,2.024,1.884,5.794
		c1.736,7.729,2.314,16.985,2.314,16.985"/>
	<path fill="none" stroke="#000000" stroke-width="1.7461" stroke-miterlimit="10" d="M681.237,157.764c0,0-1.037,2.024-1.884,5.794
		c-1.735,7.729-2.313,16.985-2.313,16.985"/>
	<path fill="#1F6FB7" d="M706.121,179.751c0,0-0.128,2.985-0.128,3.505c0,0.519,0.77,1.036,2.436,1.297
		c1.666,0.262,6.026,0.78,5.77-0.647c-0.257-1.429,0-2.988-1.41-2.858s-4.871-1.037-5.258-1.426
		C707.146,179.23,706.121,179.751,706.121,179.751"/>
	<path fill="none" stroke="#000000" stroke-width="1.7461" stroke-miterlimit="10" d="M706.121,179.751c0,0-0.128,2.985-0.128,3.505
		c0,0.519,0.77,1.036,2.436,1.297c1.666,0.262,6.026,0.78,5.77-0.647c-0.257-1.429,0-2.988-1.41-2.858s-4.871-1.037-5.258-1.426
		C707.146,179.23,706.121,179.751,706.121,179.751z"/>
	
		<line fill="none" stroke="#FFFFFF" stroke-width="0.3492" stroke-miterlimit="10" x1="708.809" y1="181.248" x2="709.889" y2="183.823"/>
	
		<line fill="none" stroke="#FFFFFF" stroke-width="0.3492" stroke-miterlimit="10" x1="710.427" y1="181.714" x2="711.43" y2="183.901"/>
	<path fill="#1F6FB7" d="M677.065,180.142c0,0,0.126,2.984,0.126,3.504c0,0.519-0.768,1.038-2.436,1.3
		c-1.666,0.261-6.026,0.778-5.771-0.651c0.257-1.426,0-2.983,1.41-2.855c1.413,0.13,4.875-1.038,5.259-1.429
		C676.038,179.622,677.065,180.142,677.065,180.142"/>
	<path fill="none" stroke="#000000" stroke-width="1.7461" stroke-miterlimit="10" d="M677.065,180.142c0,0,0.126,2.984,0.126,3.504
		c0,0.519-0.768,1.038-2.436,1.3c-1.666,0.261-6.026,0.778-5.771-0.651c0.257-1.426,0-2.983,1.41-2.855
		c1.413,0.13,4.875-1.038,5.259-1.429C676.038,179.622,677.065,180.142,677.065,180.142z"/>
	
		<line fill="none" stroke="#FFFFFF" stroke-width="0.3492" stroke-miterlimit="10" x1="674.377" y1="181.636" x2="673.297" y2="184.214"/>
	
		<line fill="none" stroke="#FFFFFF" stroke-width="0.3492" stroke-miterlimit="10" x1="672.758" y1="182.107" x2="671.755" y2="184.292"/>
	<path fill="#E42919" d="M678.82,151.232c0,0,4.652-1.672,9.893-1.205c5.24,0.471,11.857,1.939,13.409,1.205
		c1.55-0.734,2.823,0.67,3.055,3.715c0.23,3.045,2.196,11.013,1.271,11.598c-0.924,0.585-16.612-0.819-19.817,0
		c-3.205,0.82-10.838,2.812-11.417,1.639C674.636,167.014,677.997,151.491,678.82,151.232"/>
	<path fill="none" stroke="#000000" stroke-width="1.7461" stroke-miterlimit="10" d="M678.82,151.232c0,0,4.652-1.672,9.893-1.205
		c5.24,0.471,11.857,1.939,13.409,1.205c1.55-0.734,2.823,0.67,3.055,3.715c0.23,3.045,2.196,11.013,1.271,11.598
		c-0.924,0.585-16.612-0.819-19.817,0c-3.205,0.82-10.838,2.812-11.417,1.639C674.636,167.014,677.997,151.491,678.82,151.232z"/>
	
		<line fill="none" stroke="#E52520" stroke-width="0.582" stroke-miterlimit="10" x1="699.745" y1="110.843" x2="698.308" y2="115.796"/>
	
		<line fill="none" stroke="#E52520" stroke-width="0.582" stroke-miterlimit="10" x1="701.597" y1="112.107" x2="700.558" y2="116.676"/>
	
		<line fill="none" stroke="#E52520" stroke-width="0.582" stroke-miterlimit="10" x1="697.064" y1="112.107" x2="702.026" y2="114.918"/>
	<path fill="none" stroke="#18441F" stroke-width="0.582" stroke-miterlimit="10" d="M683.987,151.141c0,0-2.357,6.441-2.091,8.667
		c0.268,2.226-0.151,5.038-0.173,5.857c-0.022,0.821-0.833,1.288-0.833,1.288"/>
	<path fill="none" stroke="#18441F" stroke-width="0.582" stroke-miterlimit="10" d="M685.027,151.141c0,0-2.126,6.252-1.743,8.104
		c0.382,1.854,0.22,2.088-0.047,3.728c-0.265,1.64-0.798,3.515-0.798,3.515"/>
	<path fill="none" stroke="#18441F" stroke-width="0.582" stroke-miterlimit="10" d="M676.845,160.395c0,0,8.488-0.702,10.257-1.582
		c1.769-0.879,6.166,0.292,8.827,0.233c2.66-0.059,8.79-0.233,8.79-0.233"/>
	<path fill="none" stroke="#18441F" stroke-width="0.582" stroke-miterlimit="10" d="M676.845,162.034c0,0,7.516-0.585,8.789-1.055
		c1.273-0.468,2.259-1.522,4.6-1.171c2.341,0.351,6.967,0.939,9.976,0.587c3.007-0.352,4.51-0.657,4.51-0.657"/>
	<path fill="none" stroke="#18441F" stroke-width="0.582" stroke-miterlimit="10" d="M678.791,153.952c0,0,5.269-0.666,7.617-0.802
		c2.35-0.135,4.689-0.586,6.468,0.401c1.78,0.984,7.267,0.75,8.804,0.4c1.538-0.352,2.099-0.358,2.099-0.358"/>
	<path fill="none" stroke="#18441F" stroke-width="0.582" stroke-miterlimit="10" d="M678.479,155.356c0,0,5.81-1.055,7.928-0.937
		c2.118,0.116,5.356,0.11,7.092,0.465c1.735,0.356,3.53,0.824,5.697,0.472c2.17-0.35,5.062-0.937,5.062-0.937"/>
	<path fill="none" stroke="#18441F" stroke-width="0.582" stroke-miterlimit="10" d="M690.233,151.141c0,0-2.379,3.983-1.985,5.154
		c0.393,1.171,0.971,4.684,0.971,5.738c0,1.054-0.347,3.398-0.347,3.398"/>
	<path fill="none" stroke="#18441F" stroke-width="0.582" stroke-miterlimit="10" d="M691.613,151.141c0,0-1.467,2.827-1.816,4.341
		c-0.346,1.517,1.272,4.138,1.39,5.404c0.115,1.267-0.694,4.546-0.694,4.546"/>
	<path fill="none" stroke="#18441F" stroke-width="0.582" stroke-miterlimit="10" d="M697.319,152.196c0,0-2.195,3.467-1.506,5.153
		c0.69,1.685,0.884,4.685,0.905,6.327c0.021,1.638-0.22,1.756-0.22,1.756"/>
	<path fill="none" stroke="#18441F" stroke-width="0.582" stroke-miterlimit="10" d="M699.196,152.196c0,0-2.227,2.105-1.881,4.803
		c0.35,2.694,1.571,4.685,1.365,6.089c-0.207,1.408-0.442,2.345-0.442,2.345"/>
	<path fill="none" stroke="#18441F" stroke-width="0.582" stroke-miterlimit="10" d="M702.676,152.196c0,0-1.844,2.688-0.997,4.684
		c0.846,1.996,1.497,7.291,0.997,7.863l-0.501,0.571"/>
	<path fill="none" stroke="#18441F" stroke-width="0.582" stroke-miterlimit="10" d="M703.777,152.196c0,0-1.641,1.162-0.927,3.859
		c0.712,2.698,0.796,7.151,0.927,7.735c0.133,0.587-0.354,1.642-0.354,1.642"/>
	<polyline fill="#18441F" points="683.209,153.437 684.345,153.321 683.777,154.419 682.907,154.419 683.161,153.593 	"/>
	<polygon fill="#18441F" points="681.903,159.86 682.907,159.722 683.365,159.658 683.491,161.374 681.896,161.374 	"/>
	<polygon fill="#18441F" points="688.872,159.658 688.716,158.285 690.396,158.485 690.841,159.738 	"/>
	<polyline fill="#18441F" points="688.595,154.419 689.265,152.929 690.682,152.959 690.08,154.562 688.872,154.41 688.248,154.255 
			"/>
	<polygon fill="#18441F" points="696.258,154.255 697.7,154.255 697.281,155.482 695.837,155.482 	"/>
	<polygon fill="#18441F" points="696.218,160.395 696.288,159.046 697.738,159.014 698.164,160.395 	"/>
	<polygon fill="#18441F" points="702.499,160.099 702.153,158.753 703.236,158.813 703.463,159.956 	"/>
	<polygon fill="#18441F" points="701.543,154.867 701.679,153.952 702.801,153.748 702.67,154.731 	"/>
</g>
<path fill="#9BCBEF" d="M1131.811,180.711c22.202-7.163,44.341-8.088,55.302-9.618c10.958-1.533,64.801-4.593,78.143,3.826
	s41.931,19.137,42.407,27.556c0.476,8.417-68.612,18.367-77.666,19.9c-9.054,1.531-76.291,7.653-92.227,3.062
	c-15.937-4.595-28.327-5.356-49.768-2.297c-21.441,3.061-44.312-1.531-44.79-14.543c-0.476-13.01,2.384-30.615,15.248-26.789
	c12.865,3.826,22.394,9.186,38.119,6.891C1112.302,186.401,1131.811,180.711,1131.811,180.711z"/>
<path fill-rule="evenodd" clip-rule="evenodd" fill="#010202" d="M1177.098,201.524c-1.53-0.482-2.771-0.631-3.734-1.223
	c-2.576-1.587-4.988-1.799-7.488,0.111c-1.868,1.426-3.798,1.134-5.754,0.048c-1.014-0.563-2.1-1.078-3.218-1.338
	c-0.492-0.11-1.149,0.478-1.73,0.748c0.415,0.386,0.765,0.943,1.255,1.121c1.837,0.661,3.686,1.443,5.594,1.698
	c1.274,0.171,2.735-0.283,3.975-0.792c2.448-1.005,4.746-1.305,7.119,0.194c1.741,1.102,3.576,1.078,5.414,0.073
	c2.624-1.428,5.137-1.398,7.948-0.088c1.459,0.683,3.639,0.623,5.211,0.084c2.841-0.98,5.336-1.31,8.194,0.089
	c1.291,0.629,3.354,0.43,4.78-0.124c2.915-1.133,5.655-1.354,8.44,0.087c1.633,0.843,3.182,0.849,4.825,0.029
	c2.856-1.426,5.618-1.531,8.593,0.061c1.145,0.613,3.058,0.404,4.39-0.074c3.048-1.09,5.874-1.367,8.898,0.124
	c1.063,0.523,2.8,0.69,3.782,0.171c3.422-1.802,6.67-1.865,10.454,0.527c-0.273-1.092-0.263-1.69-0.545-2.069
	c-1.315-1.765-4.431-2.475-6.48-1.576c-1.004,0.441-2.01,0.88-3.032,1.279c-1.598,0.618-3.007,0.437-4.564-0.482
	c-7.67-4.537-15.871-7.53-24.883-5.782c-4.009,0.774-7.822,2.75-11.59,4.473c-1.578,0.724-2.9,1.231-4.528,0.441
	c-1.833-0.892-3.636-0.499-5.226,0.532c-1.933,1.25-2.697,0.521-3.84-1.248c-2.858-4.423-3.307-9.503-4.348-14.388
	c-1.668-7.821-5.556-13.84-12.516-17.968c-5.135-3.047-10.797-2.368-14.663,2.18c-0.854,1.007-0.37,2.392,1.11,2.5
	c2.015,0.147,4.059-0.153,6.09-0.146c1.078,0.003,2.331-0.051,3.2,0.449c6.029,3.463,8.507,9.076,8.826,15.719
	C1177.277,191.564,1177.098,196.183,1177.098,201.524z"/>
<g>
	<g>
		<g>
			<path fill="#6E472A" d="M867.81,225.498c-0.045,0.005-0.07,0.007-0.07,0.007S867.765,225.503,867.81,225.498z"/>
			<path fill="#6E472A" d="M888.08,198.37c0,0,5.953-2.291,7.671-4.238c1.719-1.945,8.437-14.611,8.437-14.611l-0.229-0.571
				c0,0-5.923,9.583-8.257,12.992l-1.82-7.602l-0.687,0.556l1.566,8.264c-0.991,0.743-5.818,2.805-7.827,2.805
				c-2.06,0-5.382-3.705-5.268-10.727h-0.457c0,0-1.801,7.635,2.291,11.643c0,0-6.578-0.807-8.526-2.067
				c-1.945-1.259-5.789-6.863-5.789-6.863l-0.342,0.571c0,0,3.205,6.069,4.925,7.1c1.717,1.031,6.641,3.321,6.641,3.321
				s1.128,6.5-0.381,14.504c-1.146,6.067-8.962,8.422-9.391,8.474c0.714-0.07,19.123-2.062,26.795,0.572
				c0,0-6.411-4.811-7.559-8.588C888.729,210.123,887.278,202.261,888.08,198.37z"/>
		</g>
		<path fill="#7F563E" d="M881.116,198.789c0,0,2.117,0.114,3.49-0.286c0,0,0.572,14.656,0.345,16.773
			c-0.229,2.119-2.748,4.981-2.748,4.981s-4.638,0.114-6.469,0.572c0,0,4.179-1.89,4.923-6.47
			C881.402,209.779,881.459,200.792,881.116,198.789z"/>
	</g>
	<g>
		<g>
			<path fill="#82B727" d="M859.675,177.404c0,0-6.778-3.665-5.101-14.503c1.68-10.841,15.04-11.299,15.04-11.299
				s-1.301-10.381,8.93-13.281c10.229-2.901,20.864,4.831,18.856,14.961c0,0,9.539,2.444,9.692,10.23
				c0.152,7.785-10.382,11.564-10.382,11.564L859.675,177.404z"/>
			<path fill="#91C029" d="M858.622,159.769c0,0,2.213-5.421,12.594-7.101c0,0,0.203-8.198,5.929-11.373
				c5.026-2.785,10.407-0.61,11.094,0.688c0.688,1.298-6.347-0.083-8.817,1.449c-5.229,3.245-2.486,8.894-5.647,11.413
				c-3.163,2.52-6.642,1.525-11.107,4.16C859.549,160.843,857.705,162.133,858.622,159.769z"/>
		</g>
		<g>
			<path fill="#96C23B" d="M902.887,163.616c4.2-1.831,14.506,0.154,11.985,11.757c0,0-2.386,8.513-11.756,4.962
				c0,0-4.273,5.037-10.914,2.519c0,0-8.702,5.038-14.428-3.437c-5.726-8.472-0.972-20.897,9.819-21.783
				S902.887,163.616,902.887,163.616z"/>
			<path fill="#A9CA4B" d="M912.964,169.342c-0.381-1.145-2.978-5.345-10.38-4.274c0,0-3.436-3.97-8.551-5.497
				c-5.114-1.526-9.771,0-10.152,1.68c-0.381,1.681,5.529,0.406,7.938,1.069c6.642,1.827,7.254,5.267,9.848,5.571
				c2.597,0.307,5.497,0.383,7.712,1.451C911.592,170.412,913.499,170.945,912.964,169.342z"/>
		</g>
		<g>
			<path fill="#A9CB56" d="M867.738,171.905c-4.199-1.831-14.504,0.152-11.986,11.757c0,0,2.386,8.514,11.758,4.961
				c0,0,4.273,5.039,10.914,2.519c0,0,8.703,5.04,14.428-3.434c5.726-8.474,0.972-20.898-9.82-21.785
				C872.241,165.036,867.738,171.905,867.738,171.905z"/>
			<path fill="#B6D05E" d="M857.659,177.63c0.383-1.146,2.98-5.343,10.384-4.275c0,0,3.435-3.97,8.549-5.496s9.771,0,10.153,1.681
				c0.382,1.679-5.556,0.314-7.938,1.068c-6.64,2.099-7.253,5.268-9.848,5.572c-2.597,0.305-5.497,0.382-7.709,1.45
				C859.034,178.7,857.127,179.234,857.659,177.63z"/>
		</g>
	</g>
</g>
<g>
	<g>
		<path fill="#6E472A" d="M189.401,154.848c0,0,3.689-0.554,3.966-3.504c0.276-2.952,0.646-12.822-0.738-14.205
			c-1.383-1.385-4.796-3.321-4.981-3.783c-0.184-0.46-1.937-5.348-1.937-5.348h0.737c0,0,2.568,4.61,3.221,5.072
			c0.653,0.461,3.973,2.214,4.619,2.029c0.646-0.185-1.66-4.612-1.66-4.612v-5.165h0.646c0,0,0,4.795,0.461,5.258
			c0.461,0.461,2.306,4.312,3.228,3.816c0.922-0.496,7.102-7.69,7.102-7.69l0.738,0.646c0,0-5.718,6.619-5.534,7.045
			c0.185,0.426,7.288,0.61,7.288,0.61l5.535-4.15l0.368,0.646c0,0-5.073,4.611-5.719,4.796c-0.646,0.184-6.825,0.554-7.009,1.015
			c-0.186,0.461-0.043,12.805,0.138,13.87c0.337,1.992,3.92,3.654,3.92,3.654S197.333,153.833,189.401,154.848z"/>
		<path fill="#7F563E" d="M193.535,137.101c0,0,0.941,1.688,0.941,5.686c0,3.999,0.078,10.271-1.47,11.056
			c0,0,2.94-0.472,4.116-0.413l-0.999-17.698C196.122,135.731,194.44,137.062,193.535,137.101z"/>
	</g>
	<g>
		<g>
			<path fill="#96C23B" d="M173.586,128.285c0,0,1.702,4.703,6.868,3.596c5.096-1.091,6.147-4.12,6.147-4.12
				s2.576,2.675,7.231,1.485c4.656-1.187,5.845-4.457,5.845-4.457s-0.333,3.974,3.647,5.802c3.981,1.826,6.656,0.736,6.656,0.736
				s-0.495,3.444,4.755,4.595c5.251,1.151,9.432-4.396,8.541-9.251c-0.892-4.854-4.775-6.735-4.775-6.735s3.922-3.313,1.643-8.393
				c-2.279-5.081-7.29-4.388-7.29-4.388s2.098-4.604-1.387-8.32c-3.622-3.862-7.826-2.537-9.113-2.242c0,0-1.948-5.888-9.172-4.396
				c-6.362,1.313-7.075,7.074-5.886,9.749c0,0-6.958-0.494-9.015,4.812c-2.622,6.768,2.477,10.502,2.477,10.502
				S170.308,118.691,173.586,128.285z"/>
			<path fill="#A9CA4B" d="M189.712,96.748c0.346-1.075,3.058-2.763,5.938-2.763c2.882,0,5.41,3.469,5.646,4.232
				c0,0,3.234-0.882,6.056,0c2.822,0.883,4.822,5.646,4.469,7.938c-0.353,2.293-2.999,2.058-2.881,0
				c0.118-2.059-1-4.939-3.175-5.763c-2.175-0.823-4.646,0.53-5.821-1.293c-1.176-1.823-3.469-3.058-5.41-2.646
				C192.594,96.865,189.184,98.393,189.712,96.748z"/>
		</g>
		<g>
			<path fill="#A9CB56" d="M209.033,131.599c0,0-1.202,3.321-4.851,2.54c-3.599-0.771-4.341-2.91-4.341-2.91
				s-1.819,1.889-5.107,1.05c-3.289-0.84-4.128-3.147-4.128-3.147s0.236,2.806-2.576,4.096c-2.811,1.29-4.7,0.521-4.7,0.521
				s0.349,2.432-3.358,3.245c-3.708,0.812-6.661-3.106-6.031-6.532c0.629-3.429,3.372-4.758,3.372-4.758s-2.769-2.34-1.161-5.927
				c1.61-3.588,5.149-3.098,5.149-3.098s-1.481-3.253,0.98-5.877c2.558-2.728,5.525-1.792,6.436-1.583c0,0,1.375-4.158,6.478-3.105
				c4.492,0.929,4.996,4.997,4.156,6.887c0,0,4.914-0.35,6.367,3.398c1.851,4.779-1.75,7.416-1.75,7.416
				S211.348,124.824,209.033,131.599z"/>
			<path fill="#B6D05E" d="M197.644,109.328c-0.245-0.759-2.159-1.951-4.194-1.951c-2.035,0-3.82,2.45-3.986,2.99
				c0,0-2.284-0.623-4.277,0c-1.993,0.622-3.405,3.985-3.156,5.605c0.249,1.619,2.118,1.453,2.034,0
				c-0.083-1.453,0.707-3.488,2.243-4.069c1.537-0.581,3.28,0.373,4.111-0.914c0.83-1.287,2.45-2.159,3.82-1.868
				C195.609,109.411,198.018,110.491,197.644,109.328z"/>
		</g>
	</g>
</g>
<g>
	<g>
		<g>
			<path fill="#6E472A" d="M1110.321,157.453c-0.029,0.004-0.046,0.005-0.046,0.005S1110.292,157.457,1110.321,157.453z"/>
			<path fill="#6E472A" d="M1123.514,139.797c0,0,3.875-1.49,4.992-2.758c1.119-1.267,5.491-9.51,5.491-9.51l-0.149-0.371
				c0,0-3.854,6.236-5.373,8.455l-1.185-4.947l-0.447,0.361l1.02,5.379c-0.646,0.483-3.787,1.825-5.094,1.825
				c-1.341,0-3.503-2.411-3.429-6.981h-0.297c0,0-1.172,4.969,1.49,7.577c0,0-4.281-0.524-5.549-1.346
				c-1.266-0.819-3.768-4.467-3.768-4.467l-0.223,0.372c0,0,2.086,3.95,3.205,4.621c1.117,0.671,4.322,2.161,4.322,2.161
				s0.734,4.23-0.248,9.439c-0.745,3.949-5.832,5.481-6.111,5.515c0.465-0.046,12.445-1.342,17.438,0.373
				c0,0-4.173-3.131-4.919-5.59C1123.937,147.447,1122.992,142.331,1123.514,139.797z"/>
		</g>
		<path fill="#7F563E" d="M1118.981,140.071c0,0,1.378,0.074,2.271-0.187c0,0,0.372,9.538,0.225,10.916
			c-0.148,1.38-1.789,3.242-1.789,3.242s-3.018,0.074-4.21,0.373c0,0,2.72-1.23,3.204-4.211
			C1119.168,147.223,1119.205,141.374,1118.981,140.071z"/>
	</g>
	<g>
		<g>
			<path fill="#82B727" d="M1105.027,126.153c0,0-4.412-2.385-3.32-9.439c1.094-7.055,9.789-7.354,9.789-7.354
				s-0.847-6.756,5.812-8.643c6.657-1.889,13.579,3.144,12.272,9.736c0,0,6.208,1.591,6.308,6.658
				c0.099,5.066-6.757,7.526-6.757,7.526L1105.027,126.153z"/>
			<path fill="#91C029" d="M1104.342,114.676c0,0,1.44-3.528,8.196-4.621c0,0,0.132-5.336,3.858-7.402
				c3.271-1.812,6.773-0.397,7.221,0.447s-4.131-0.054-5.739,0.943c-3.402,2.111-1.618,5.788-3.675,7.428
				c-2.059,1.64-4.323,0.992-7.229,2.707C1104.945,115.375,1103.745,116.214,1104.342,114.676z"/>
		</g>
		<g>
			<path fill="#96C23B" d="M1133.15,117.179c2.733-1.191,9.44,0.101,7.8,7.651c0,0-1.553,5.541-7.65,3.229
				c0,0-2.781,3.278-7.104,1.64c0,0-5.663,3.278-9.39-2.237c-3.727-5.513-0.633-13.601,6.391-14.177
				S1133.15,117.179,1133.15,117.179z"/>
			<path fill="#A9CA4B" d="M1139.709,120.907c-0.248-0.746-1.938-3.479-6.756-2.782c0,0-2.236-2.584-5.564-3.577
				c-3.329-0.994-6.359,0-6.607,1.093c-0.248,1.094,3.598,0.265,5.165,0.696c4.323,1.188,4.722,3.427,6.409,3.625
				c1.69,0.199,3.578,0.25,5.02,0.945C1138.815,121.602,1140.057,121.95,1139.709,120.907z"/>
		</g>
		<g>
			<path fill="#A9CB56" d="M1110.275,122.574c-2.733-1.191-9.439,0.099-7.802,7.651c0,0,1.553,5.541,7.652,3.229
				c0,0,2.781,3.279,7.104,1.639c0,0,5.664,3.28,9.39-2.234c3.727-5.515,0.633-13.602-6.392-14.179
				C1113.205,118.104,1110.275,122.574,1110.275,122.574z"/>
			<path fill="#B6D05E" d="M1103.715,126.3c0.25-0.745,1.94-3.478,6.759-2.782c0,0,2.235-2.584,5.563-3.577s6.358,0,6.607,1.094
				c0.249,1.093-3.615,0.204-5.166,0.695c-4.321,1.366-4.721,3.429-6.409,3.626c-1.69,0.199-3.577,0.249-5.017,0.944
				C1104.61,126.997,1103.369,127.344,1103.715,126.3z"/>
		</g>
	</g>
</g>
<g>
	<g>
		<g>
			<path fill="#6E472A" d="M1190.324,138.217c-0.025,0.004-0.039,0.005-0.039,0.005S1190.299,138.221,1190.324,138.217z"/>
			<path fill="#6E472A" d="M1201.444,123.335c0,0,3.267-1.257,4.208-2.325c0.943-1.067,4.629-8.017,4.629-8.017l-0.126-0.312
				c0,0-3.249,5.257-4.529,7.127l-0.998-4.17l-0.377,0.305l0.859,4.534c-0.544,0.407-3.192,1.538-4.294,1.538
				c-1.13,0-2.953-2.032-2.891-5.885h-0.25c0,0-0.987,4.188,1.256,6.388c0,0-3.608-0.442-4.677-1.135
				c-1.067-0.69-3.176-3.766-3.176-3.766l-0.188,0.314c0,0,1.758,3.329,2.701,3.895c0.942,0.565,3.644,1.822,3.644,1.822
				s0.619,3.565-0.209,7.957c-0.628,3.329-4.916,4.62-5.151,4.648c0.392-0.039,10.49-1.131,14.699,0.314c0,0-3.518-2.64-4.146-4.712
				C1201.801,129.783,1201.005,125.47,1201.444,123.335z"/>
		</g>
		<path fill="#7F563E" d="M1197.624,123.566c0,0,1.161,0.062,1.915-0.157c0,0,0.313,8.04,0.189,9.201
			c-0.125,1.163-1.509,2.733-1.509,2.733s-2.543,0.062-3.549,0.314c0,0,2.293-1.037,2.701-3.55
			C1197.781,129.594,1197.812,124.664,1197.624,123.566z"/>
	</g>
	<g>
		<g>
			<path fill="#82B727" d="M1185.861,111.833c0,0-3.719-2.011-2.799-7.957c0.922-5.947,8.252-6.198,8.252-6.198
				s-0.714-5.695,4.898-7.286c5.612-1.592,11.447,2.65,10.346,8.208c0,0,5.232,1.341,5.316,5.612
				c0.083,4.271-5.695,6.344-5.695,6.344L1185.861,111.833z"/>
			<path fill="#91C029" d="M1185.283,102.16c0,0,1.215-2.975,6.909-3.896c0,0,0.111-4.498,3.253-6.24
				c2.758-1.527,5.709-0.335,6.087,0.377c0.377,0.712-3.482-0.045-4.838,0.796c-2.868,1.779-1.364,4.879-3.099,6.261
				s-3.644,0.836-6.094,2.282C1185.792,102.749,1184.78,103.456,1185.283,102.16z"/>
		</g>
		<g>
			<path fill="#96C23B" d="M1209.567,104.269c2.305-1.004,7.958,0.085,6.575,6.45c0,0-1.309,4.67-6.449,2.722
				c0,0-2.344,2.764-5.987,1.383c0,0-4.774,2.763-7.915-1.887c-3.142-4.646-0.533-11.464,5.387-11.95
				C1207.099,100.501,1209.567,104.269,1209.567,104.269z"/>
			<path fill="#A9CA4B" d="M1215.097,107.412c-0.209-0.629-1.634-2.933-5.695-2.346c0,0-1.885-2.178-4.69-3.016
				c-2.807-0.838-5.36,0-5.569,0.922c-0.21,0.922,3.032,0.223,4.354,0.587c3.645,1.001,3.98,2.888,5.402,3.056
				c1.425,0.168,3.017,0.21,4.231,0.797C1214.343,107.998,1215.39,108.291,1215.097,107.412z"/>
		</g>
		<g>
			<path fill="#A9CB56" d="M1190.285,108.816c-2.304-1.004-7.957,0.084-6.576,6.45c0,0,1.309,4.671,6.45,2.723
				c0,0,2.345,2.764,5.988,1.381c0,0,4.774,2.766,7.915-1.884c3.141-4.648,0.533-11.465-5.388-11.951
				C1192.755,105.048,1190.285,108.816,1190.285,108.816z"/>
			<path fill="#B6D05E" d="M1184.755,111.958c0.211-0.628,1.636-2.932,5.697-2.345c0,0,1.885-2.179,4.69-3.016
				c2.805-0.837,5.359,0,5.569,0.922c0.21,0.921-3.048,0.172-4.354,0.586c-3.643,1.152-3.979,2.891-5.402,3.057
				c-1.426,0.168-3.016,0.21-4.229,0.796C1185.51,112.544,1184.464,112.837,1184.755,111.958z"/>
		</g>
	</g>
</g>
<g>
	<g>
		<g>
			<path fill="#6E472A" d="M417.78,231.896c-0.058,0.006-0.091,0.009-0.091,0.009S417.722,231.904,417.78,231.896z"/>
			<path fill="#6E472A" d="M444.053,196.735c0,0,7.716-2.97,9.942-5.493c2.228-2.521,10.935-18.938,10.935-18.938l-0.296-0.74
				c0,0-7.677,12.421-10.702,16.839l-2.359-9.853l-0.89,0.721l2.03,10.711c-1.285,0.963-7.541,3.635-10.145,3.635
				c-2.669,0-6.975-4.802-6.827-13.903h-0.592c0,0-2.334,9.896,2.969,15.091c0,0-8.526-1.046-11.051-2.68
				c-2.521-1.632-7.503-8.896-7.503-8.896l-0.443,0.74c0,0,4.154,7.867,6.383,9.202c2.225,1.337,8.607,4.305,8.607,4.305
				s1.462,8.425-0.494,18.799c-1.485,7.864-11.616,10.916-12.171,10.983c0.925-0.092,24.786-2.674,34.729,0.741
				c0,0-8.31-6.235-9.797-11.131C444.895,211.968,443.014,201.779,444.053,196.735z"/>
		</g>
		<path fill="#7F563E" d="M435.027,197.278c0,0,2.744,0.147,4.524-0.371c0,0,0.742,18.996,0.447,21.74
			c-0.296,2.747-3.562,6.457-3.562,6.457s-6.011,0.148-8.384,0.741c0,0,5.416-2.449,6.38-8.385
			C435.398,211.522,435.472,199.874,435.027,197.278z"/>
	</g>
	<g>
		<g>
			<path fill="#82B727" d="M407.236,169.56c0,0-8.786-4.75-6.611-18.798c2.177-14.051,19.494-14.645,19.494-14.645
				s-1.686-13.455,11.574-17.214c13.257-3.761,27.042,6.262,24.44,19.392c0,0,12.364,3.168,12.562,13.26
				c0.197,10.091-13.456,14.989-13.456,14.989L407.236,169.56z"/>
			<path fill="#91C029" d="M405.872,146.704c0,0,2.868-7.026,16.323-9.203c0,0,0.263-10.626,7.684-14.741
				c6.515-3.61,13.489-0.791,14.379,0.891c0.891,1.683-8.226-0.107-11.428,1.879c-6.777,4.206-3.223,11.527-7.32,14.793
				c-4.1,3.266-8.608,1.977-14.397,5.392C407.073,148.096,404.684,149.768,405.872,146.704z"/>
		</g>
		<g>
			<path fill="#96C23B" d="M463.245,151.689c5.444-2.373,18.801,0.2,15.535,15.238c0,0-3.092,11.034-15.237,6.432
				c0,0-5.539,6.528-14.146,3.265c0,0-11.279,6.529-18.7-4.454c-7.421-10.98-1.259-27.086,12.727-28.234
				C457.41,142.788,463.245,151.689,463.245,151.689z"/>
			<path fill="#A9CA4B" d="M476.306,159.112c-0.494-1.483-3.859-6.928-13.454-5.54c0,0-4.453-5.146-11.083-7.125
				c-6.629-1.979-12.664,0-13.159,2.177c-0.493,2.179,7.167,0.526,10.288,1.386c8.608,2.368,9.402,6.826,12.764,7.222
				c3.365,0.397,7.125,0.496,9.996,1.881C474.527,160.498,477,161.189,476.306,159.112z"/>
		</g>
		<g>
			<path fill="#A9CB56" d="M417.688,162.433c-5.443-2.373-18.799,0.197-15.536,15.238c0,0,3.092,11.034,15.24,6.43
				c0,0,5.539,6.531,14.146,3.265c0,0,11.28,6.532,18.7-4.45c7.421-10.983,1.259-27.087-12.729-28.236
				C423.524,153.53,417.688,162.433,417.688,162.433z"/>
			<path fill="#B6D05E" d="M404.624,169.854c0.496-1.484,3.863-6.925,13.458-5.541c0,0,4.452-5.146,11.081-7.124
				s12.664,0,13.16,2.179c0.495,2.176-7.201,0.407-10.29,1.384c-8.606,2.721-9.401,6.828-12.764,7.223
				c-3.366,0.396-7.125,0.495-9.992,1.88C406.406,171.24,403.934,171.932,404.624,169.854z"/>
		</g>
	</g>
</g>
<path fill-rule="evenodd" clip-rule="evenodd" fill="#112438" d="M286.681,61.824c-1.232,1.254-4.37,5.458-4.435,5.696
	c0,0-6.553-1.486-11.175-1.716c-4.622-0.229-12.108-0.661-12.828-0.258c-0.721,0.402,2.783,0.633,2.783,0.633
	s-0.076,0.325,0.872,0.567c0.947,0.243,2.405,0.135,2.405,0.135s-0.205,0.301,0.616,0.501c0.82,0.201,3.229,0.169,3.229,0.169
	s-0.215,0.167,0.845,0.423s2.937-0.026,2.991-0.038c0.054-0.011,0.323,0.094,0.558,0.326c0.235,0.232,0.114,0.358,0.122,0.71
	c0.008,0.354,0.413,0.643,0.425,0.821s-0.096,0.34-0.167,0.771c-0.072,0.432,0.158,0.284,0.375,0.664
	c0.216,0.38-0.111,0.321,0.225,1.015c0.335,0.694,0.637,0.679,0.654,0.963c0.018,0.284,0.737,0.798,0.829,1.109
	c0.093,0.311,0.484,1.752,0.094,2.337c-0.391,0.584-1.167,0.875-3.007,1.207c-1.838,0.333-1.687,0.246-3.205,0.548
	s-5.601-0.159-6.708-0.034c-1.108,0.124-1.011,0.331-2.934,0.916c-1.924,0.585-3.656-0.072-4.042-0.085
	c-0.386-0.015-1.445,0.698-1.196,0.959c0.249,0.26,1.554,0.249,2.942,0.282c1.388,0.034,1.958,0.124,3.894,0.28
	c1.936,0.155,3.322,0.629,5.276,1.615c1.955,0.986,3.898,0.668,4.371,0.832c0.472,0.166,1.609,0.379,4.711,2.32
	c3.104,1.941,16.028,4.238,20.794,4.168c4.766-0.069,8.656-0.883,9.905-0.444c1.249,0.44,3.45,2.479,3.581,2.627
	c0.131,0.149,0.096,0.497,0.081,0.548c-0.016,0.05,0.014,0.028,0.11-0.039c0.097-0.067,0.596-0.956,0.24-1.837
	c-0.356-0.882-1.887-2.501-1.887-2.501s-0.216-1.366-0.497-2.776s-0.818-1.619-1.658-2.5s-0.585-0.673-2.331-2.478
	c-1.746-1.806-3.461-1.898-3.61-1.97c-0.149-0.072-0.659-0.506-0.802-2.867c-0.144-2.361,1.424-7.115,4.002-9.397
	c2.577-2.283,5.321-3.365,5.886-4.21c0.564-0.845,0.593-3.309,0.295-5.707c-0.297-2.398-0.947-2.551-0.947-2.551
	s-0.142-1.11-1.472-3.145c-1.329-2.035-6.082-6.827-7.023-7.191c-0.94-0.366-0.717,0.587-0.717,0.587s-0.74-0.208-0.99,0.025
	c-0.249,0.233-0.159,1.055-0.159,1.055s-0.076,0.043-0.464,0.329c-0.388,0.286-0.283,1.268-0.294,1.355
	c-0.011,0.086-0.146,0.034-0.51,0.411c-0.365,0.377-0.321,1.431-0.321,1.431s-0.161,0.015-0.507,0.385
	c-0.346,0.371-0.412,1.384-0.412,1.384s-0.033,0.058-0.221,0.219c-0.188,0.162-0.402,0.812-0.533,0.946
	c-0.131,0.133-0.528,0.136-0.706,0.352c-0.176,0.216-0.412,1.313-0.412,1.313s-0.167,0.138-0.37,0.279s0.013,1.086-0.02,1.134
	c-0.032,0.048-0.401-0.033-0.553,0.265c-0.152,0.298,0.258,1.239,0.258,1.239s-0.872,0.066-1.117,0.476
	c-0.245,0.41,0.707,0.546,0.626,0.625c-0.08,0.078-0.792,0.834-0.792,0.834s-1.063,0.183-1.519,0.584
	c-0.456,0.4,0.048,0.323,0.048,0.323s-1.109,0.406-1.512,0.814c-0.404,0.407,0.108,0.542,0.108,0.542S287.914,60.57,286.681,61.824z
	"/>
<path fill-rule="evenodd" clip-rule="evenodd" fill="#112438" d="M1167.476,65.72c0.275-0.243,0.577-1.116,0.425-3.145
	c-0.152-2.029-1-4.27-3.053-6.354c-2.055-2.085-3.453-3.661-3.521-5.066c-0.07-1.405,0.198-2.135,0.564-3.022
	c0.365-0.887,0.152-1.592,2.449-4.984c2.298-3.393,6.134-6.576,7.16-7.254c1.025-0.679,1.797-1.03,1.799-0.742
	c0.003,0.289-0.438,1.049-0.438,1.049s0.73-0.197,0.981-0.168c0.251,0.029,0.155,0.418-0.053,0.846
	c-0.209,0.428-0.308,0.618-0.308,0.618s0.55,0.024,0.697,0.039c0.148,0.015,0.062,0.557-0.134,0.948s-0.268,0.486-0.268,0.486
	s0.366-0.041,0.501-0.034c0.135,0.007,0.123,0.349-0.014,0.892s-0.215,1.006-0.215,1.006s0.787-0.421,0.855-0.183
	c0.068,0.239-0.169,2.217-0.169,2.217s0.364-0.477,0.476-0.014c0.11,0.462-0.006,1.833-0.006,1.833s0.34-0.481,0.497-0.197
	c0.157,0.285,0.097,1.843,0.097,1.843s0.549-0.187,0.544,0.181c-0.008,0.368-0.276,1.237-0.276,1.237s0.359-0.146,0.42,0.061
	s-0.217,1.484-0.395,1.949s-0.356,0.741-0.182,0.865c0.175,0.125,1.204,0.623,1.204,0.623s2.96-2.996,9.244-5.877
	s11.566-5.455,14.894-6.497c3.326-1.04,6.385-1.994,6.055-1.426c-0.331,0.567-2.468,2.034-2.468,2.034s0.76,0.107,0.458,0.424
	c-0.302,0.317-1.735,1.104-1.815,1.234c-0.08,0.13,0.697-0.056,0.283,0.443c-0.413,0.499-6.7,5.968-6.601,5.921
	c0.1-0.045,0.83-0.242,0.606,0.122c-0.224,0.364-6.06,4.471-6.06,4.471s0.775-0.008,0.815,0.249
	c0.038,0.257-1.001,0.973-1.001,0.973s0.547,0.013,0.336,0.286c-0.213,0.273-1.252,1.221-1.252,1.221s0.546-0.175,0.542,0.271
	c-0.005,0.445-0.797,2.056-0.797,2.056s0.719-0.061,0.449,0.76c-0.271,0.819-1.447,2.678-1.357,2.59s0.704-0.213,0.548,0.246
	c-0.157,0.46-1.382,2.485-1.382,2.485s0.642-0.287,0.483,0.351c-0.159,0.638-1.211,2.645-1.211,2.645s1.174,0.541,2.081,0.901
	c0.908,0.36,0.977,0.366,0.817,0.537c-0.158,0.171-0.723,0.973-0.723,0.973s5.996-0.19,8.042,0.563s2.376,1.207,2.376,1.207
	s4.989-0.127,6.985,0.417s4.391,1.082,3.38,1.501c-1.01,0.42-3.504,0.395-6.311,0.355c-2.809-0.038-7.691-1.137-7.691-1.137
	s0.946,0.796,0.474,0.864c-0.472,0.069-3.729,0.005-8.74,1.159c-5.01,1.154-7.471,2.01-12.823,1.914
	c-5.354-0.097-9.458-1.469-11.22-1.958c-1.76-0.489-2.697-0.51-3.013-0.434c-0.315,0.074-1.248,0.909-1.428,1.085
	c-0.181,0.177-0.305,0.584-0.306,0.673c-0.001,0.09,0.052,0.266-0.028,0.207c-0.081-0.059-0.529-0.772-0.537-1.271
	c-0.009-0.498,1.422-2.506,1.422-2.506s-0.412-1.257,0.602-2.266s2.345-2.127,3.654-2.596S1167.476,65.72,1167.476,65.72z"/>
<g>
	<path fill="none" stroke="#112438" stroke-width="4.8" stroke-miterlimit="10" stroke-dasharray="7.1898,7.1898" d="
		M327.386,148.137c16.586,0.518,15.237,2.302,31.627,2.781s11.438,2.516,20.998,17.38s-8.322,54.574-20.16,58.889
		c-11.836,4.315-11.131-18.943-30.708-11.423c-19.576,7.521-30.55,13.642-44.664,6.928c-14.113-6.713-23.219-7.192-33.234-15.344
		c-10.016-8.15-17.756-17.262-11.837-25.413c5.918-8.15,10.016-17.262,8.65-23.015c-1.366-5.755-7.74-19.659,8.65-19.18
		c16.389,0.479,15.024,1.461,26.861,5.525S327.386,148.137,327.386,148.137z"/>
</g>
<g>
	<g>
		<path fill="none" stroke="#112438" stroke-width="8" stroke-linecap="square" stroke-miterlimit="10" d="M322.565,66.932
			c0,0,28.429,8.606,32.115,23.328c1.957,7.815-5.553,19.958-13.03,29.632"/>
		<g>
			<polygon fill="#112438" points="333.512,107.601 328.462,135.058 354.768,125.706 			"/>
		</g>
	</g>
</g>
<g>
	<path fill="none" d="M279.803,174.677c-1.489,0.667-3.215,1.427-3.844,3.004c1.734-0.093,3.609-0.733,4.863-1.218
		c1.005-0.387,3.117-1.395,4.693-2.646C284.268,172.581,281.104,174.092,279.803,174.677z"/>
	<path fill="#DEAB71" d="M305.875,174.571c-0.484,0.041-0.993-0.194-1.47-0.139c-1.597,0.19-1.498,0.912-1.915,1.985
		c-0.179,0.462-0.321,1.021-0.747,1.325c-0.419,0.298-0.991,0.275-1.472,0.333c-1.341,0.164-1.456,0.757-1.212,1.998
		c0.254,1.293,1.31,4.521-1.145,4.371c-0.904-0.056-1.634-0.849-2.188-1.481c-0.364-0.414-0.684-0.865-1.037-1.288
		c-0.11-0.132-0.292-0.47-0.449-0.527c-0.711-0.257-0.699,0.837-0.784,1.351c-0.147,0.883-0.079,1.61-1.039,1.927
		c-1.132,0.373-1.782-0.468-2.646,1.204c-0.323,0.624-0.281,1.412-0.624,2.051c-1.298,2.422-5.366,2.76-7.503,1.389
		c-1.633-1.046-2.077-3.589-4.188-3.797c-1.863-0.183-2.586,1.045-3.102,2.574c-0.142,0.422-0.12,0.79-0.48,1.113
		c-0.615,0.553-1.523,0.48-2.081-0.055c-0.188-0.18-0.263-0.472-0.442-0.646c-0.74-0.723-1.158-0.457-1.608,0.323
		c-0.514,0.892-0.159,2.241-0.299,3.218c-0.383,2.66-2.809,1.892-3.711,0.031c-0.729-1.508-1.4-4.009-2.855-4.979
		c-2.872-1.916-2.902,1.314-4.358,2.43c0.562,1.107,1.233,2.156,2.004,3.115c5.747,7.154,17.654,4.399,25.22,2.166
		c4.808-1.463,9.326-3.279,13.286-6.439c3.336-2.664,6.583-5.365,7.944-9.57c0.542-1.674,0.601-3.482,0.318-5.267
		C307.06,173.988,306.623,174.508,305.875,174.571z"/>
	<path fill="#EFB1D1" d="M261.13,185.445c1.27-0.13,2.345,0.615,3.093,1.574c1.083,1.388,1.295,3.51,2.428,4.79
		c0.322,0.91,0.991,0.685,2.005-0.675c-0.001-0.327,0.002-0.655,0.009-0.983c0.016-0.352,0.029-0.697,0.091-1.046
		c0.111-0.628,0.305-1.382,0.736-1.868c0.457-0.513,1.155-0.759,1.79-0.398c0.405,0.229,0.465,0.723,0.791,0.998
		c0.138,0.464,0.418,0.481,0.84,0.057c0.213-0.09,0.425-0.179,0.639-0.269c0.148-0.186,0.201-0.952,0.319-1.202
		c0.954-2.025,3.832-2.682,5.551-1.23c0.711,0.602,1.091,1.479,1.666,2.188c0.816,1.008,1.854,1.561,3.149,1.637
		c1.058,0.062,2.401-0.18,3.297-0.803c1.213-0.846,1.069-1.859,1.494-3.02c0.39-1.062,0.895-1.42,1.955-1.615
		c0.721-0.131,1.064,0.518,1.609-0.682c0.082-0.184,0.033-0.597,0.062-0.814c0.065-0.487,0.141-1.01,0.42-1.433
		c1.048-1.586,2.22,0.489,2.914,1.329c0.37,0.447,0.95,1.295,1.529,1.484c1.38,0.449,1.148-1.307,0.975-2.135
		c-0.179-0.855-0.674-2.046-0.401-2.937c0.275-0.899,1.005-0.956,1.809-1.122c1.199-0.248,1.617-0.857,2.093-1.998
		c0.179-0.43,0.358-0.848,0.702-1.172c1.059-0.999,2.926,0.287,3.681-0.789c0.405-0.578,0.34-1.975,0.15-2.957
		c-0.544-1.484-1.288-2.885-2.153-4.095c-2.799-3.915-8.312-5.116-12.828-5.19c-5.031-0.082-9.69,0.474-14.471,2.086
		c-4.468,1.508-9.124,3.134-13.065,5.772c-3.89,2.604-6.906,6.447-7.341,11.226c-0.259,2.85,0.309,5.752,1.49,8.369
		C259.384,187.563,259.126,185.649,261.13,185.445z M298.258,172.238c-1.113,0-1.113-1.233,0-1.233
		C299.001,171.004,299.001,172.238,298.258,172.238z M289.922,162.693c2.787-0.151,6.5-0.292,8.929,1.376
		c1.877,1.288,2.255,3.537,1.221,5.492c-0.371,0.703-1.436,0.078-1.064-0.623c2.757-5.21-6.404-5.157-9.085-5.012
		C289.127,163.969,289.132,162.736,289.922,162.693z M278.192,169.747c0.018-0.008,0.035-0.012,0.054-0.018
		c0.016-0.008,0.029-0.018,0.047-0.024c2.456-1.025,8.651-3.507,9.971,0.374c1.105,3.252-4.418,6.024-6.668,6.968
		c-2.362,0.989-8.781,3.092-10.026-0.578C270.313,172.77,275.735,170.809,278.192,169.747z"/>
	<path fill="#FADBEB" d="M289.922,163.926c2.681-0.146,11.842-0.198,9.085,5.012c-0.371,0.701,0.693,1.326,1.064,0.623
		c1.034-1.955,0.656-4.204-1.221-5.492c-2.429-1.668-6.142-1.527-8.929-1.376C289.132,162.736,289.127,163.969,289.922,163.926z"/>
	<path fill="#FADBEB" d="M298.258,171.004c-1.113,0-1.113,1.233,0,1.233C299.001,172.238,299.001,171.004,298.258,171.004z"/>
	<path fill="#DEAB71" d="M274.795,177.65c0.714-2.416,3.252-3.482,5.431-4.35c1.861-0.741,4.51-1.813,6.112-0.214
		c1.089-1.1,1.599-2.318,0.589-3.44c-1.702-1.892-6.364,0.009-8.413,0.864c-0.002,0-0.004,0-0.005,0.002
		c-0.995,0.424-2.017,0.789-2.973,1.299c-1.144,0.609-4.64,2.929-3.026,4.754C273.09,177.221,273.895,177.543,274.795,177.65z"/>
	<path fill="#544842" d="M306.808,168.26c-1.949-4.124-5.441-6.584-9.835-7.727c-2.64-0.688-5.461-0.601-8.164-0.568
		c-2.734,0.032-5.362,0.269-8.024,0.927c-5.318,1.315-10.924,3.345-15.698,6.063c-4.044,2.302-7.676,5.732-9.006,10.315
		c-1.226,4.225-0.45,8.858,1.556,12.714c2.556,4.913,6.562,7.542,12.076,7.898c5.51,0.356,11.062-0.692,16.328-2.246
		c4.618-1.405,9.07-3.109,12.938-6.068c3.269-2.502,6.704-5.189,8.424-9.039C309.208,176.491,308.666,172.193,306.808,168.26z
		 M306.974,178.553c-1.361,4.205-4.608,6.906-7.944,9.57c-3.96,3.16-8.479,4.977-13.286,6.439
		c-7.565,2.233-19.473,4.988-25.22-2.166c-0.771-0.959-1.441-2.008-2.004-3.115c1.456-1.115,1.486-4.346,4.358-2.43
		c1.455,0.97,2.126,3.471,2.855,4.979c0.902,1.86,3.328,2.629,3.711-0.031c0.14-0.977-0.215-2.326,0.299-3.218
		c0.45-0.78,0.868-1.046,1.608-0.323c0.18,0.175,0.254,0.467,0.442,0.646c0.558,0.535,1.466,0.607,2.081,0.055
		c0.36-0.323,0.339-0.691,0.48-1.113c0.516-1.529,1.238-2.757,3.102-2.574c2.11,0.208,2.555,2.751,4.188,3.797
		c2.137,1.371,6.205,1.033,7.503-1.389c0.343-0.639,0.301-1.427,0.624-2.051c0.863-1.672,1.514-0.831,2.646-1.204
		c0.96-0.316,0.892-1.044,1.039-1.927c0.085-0.514,0.073-1.607,0.784-1.351c0.157,0.058,0.339,0.396,0.449,0.527
		c0.354,0.423,0.673,0.874,1.037,1.288c0.555,0.633,1.284,1.426,2.188,1.481c2.454,0.149,1.398-3.078,1.145-4.371
		c-0.244-1.241-0.129-1.834,1.212-1.998c0.48-0.058,1.053-0.035,1.472-0.333c0.426-0.305,0.568-0.863,0.747-1.325
		c0.417-1.073,0.318-1.795,1.915-1.985c0.477-0.056,0.985,0.18,1.47,0.139c0.747-0.062,1.185-0.583,1.417-1.284
		C307.575,175.071,307.516,176.879,306.974,178.553z M256.667,180.153c0.435-4.778,3.451-8.621,7.341-11.226
		c3.941-2.639,8.598-4.265,13.065-5.772c4.78-1.612,9.439-2.168,14.471-2.086c4.517,0.074,10.029,1.275,12.828,5.19
		c0.865,1.21,1.609,2.61,2.153,4.095c0.189,0.982,0.255,2.379-0.15,2.957c-0.755,1.076-2.622-0.21-3.681,0.789
		c-0.344,0.324-0.523,0.742-0.702,1.172c-0.476,1.141-0.894,1.75-2.093,1.998c-0.804,0.166-1.533,0.223-1.809,1.122
		c-0.272,0.891,0.223,2.081,0.401,2.937c0.174,0.828,0.405,2.584-0.975,2.135c-0.579-0.189-1.159-1.037-1.529-1.484
		c-0.694-0.84-1.866-2.915-2.914-1.329c-0.279,0.423-0.354,0.945-0.42,1.433c-0.028,0.218,0.021,0.631-0.062,0.814
		c-0.545,1.199-0.889,0.551-1.609,0.682c-1.061,0.195-1.565,0.554-1.955,1.615c-0.425,1.16-0.281,2.174-1.494,3.02
		c-0.896,0.623-2.239,0.865-3.297,0.803c-1.296-0.076-2.333-0.629-3.149-1.637c-0.575-0.709-0.955-1.586-1.666-2.188
		c-1.719-1.451-4.597-0.795-5.551,1.23c-0.118,0.25-0.171,1.017-0.319,1.202c-0.214,0.09-0.426,0.179-0.639,0.269
		c-0.422,0.425-0.702,0.407-0.84-0.057c-0.326-0.275-0.386-0.77-0.791-0.998c-0.635-0.36-1.333-0.114-1.79,0.398
		c-0.432,0.486-0.625,1.24-0.736,1.868c-0.062,0.349-0.075,0.694-0.091,1.046c-0.007,0.328-0.01,0.656-0.009,0.983
		c-1.014,1.359-1.683,1.585-2.005,0.675c-1.133-1.28-1.345-3.402-2.428-4.79c-0.748-0.959-1.823-1.704-3.093-1.574
		c-2.004,0.204-1.746,2.118-2.974,3.077C256.975,185.905,256.408,183.002,256.667,180.153z"/>
	<path fill="#544842" d="M281.595,177.046c2.25-0.943,7.773-3.716,6.668-6.968c-1.319-3.881-7.515-1.399-9.971-0.374
		c-0.018,0.007-0.031,0.017-0.047,0.024c-0.019,0.006-0.036,0.01-0.054,0.018c-2.457,1.062-7.879,3.023-6.623,6.722
		C272.814,180.138,279.233,178.036,281.595,177.046z M275.537,171.811c0.956-0.51,1.978-0.875,2.973-1.299
		c0.001-0.002,0.003-0.002,0.005-0.002c2.049-0.855,6.711-2.756,8.413-0.864c1.01,1.122,0.5,2.341-0.589,3.44
		c-1.603-1.6-4.251-0.527-6.112,0.214c-2.179,0.867-4.717,1.934-5.431,4.35c-0.9-0.106-1.705-0.429-2.285-1.085
		C270.897,174.74,274.393,172.42,275.537,171.811z M285.516,173.818c-1.576,1.251-3.688,2.259-4.693,2.646
		c-1.254,0.484-3.129,1.125-4.863,1.218c0.629-1.577,2.354-2.337,3.844-3.004C281.104,174.092,284.268,172.581,285.516,173.818z"/>
</g>
<g>
	<path fill="#FFFFFF" d="M317.25,167.85c0.675-3.166,5.414-5.029,6.794-1.293c0.21,0.569,1.227,0.538,1.144-0.155
		c-0.304-2.522,1.417-4.946,4.103-4.842c1.608,0.062,3.079,1.04,3.333,2.627c0.24,1.5-0.76,2.414-1.8,3.388
		c-0.23,0.216-0.216,0.605,0,0.823c1.154,1.165,2.15,2.464,3.242,3.685c-1.758,0.854-2.88,2.048-3.858,3.675
		c-1.335-1.385-2.67-2.766-4.125-4.029c-0.819-0.71-1.681-1.821-2.795-1.223c-0.449,0.242-0.72,0.759-1.22,0.996
		c-0.669,0.315-1.344,0.333-2.056,0.195C318.147,171.336,316.829,169.827,317.25,167.85z"/>
	<path fill="#DEAB71" d="M330.894,181.622c0.71,1.957,2.088,3.46,3.1,5.254c0.895,1.585,1.571,3.271,2.185,4.979
		c1.368,3.813,2.866,7.644,5.875,10.496c2.456,2.329,5.496,4.899,8.835,5.73c3.557,0.886,6.98,0.883,10.49-0.196
		c4.152-1.276,7.036-4.451,7.237-8.935c0.187-4.142-1.613-8.77-3.736-12.255c-3.443-5.653-10.876-7.97-16.966-9.369
		c-1.748-0.467-3.27-1.342-4.769-2.336c-1.679-1.114-3.399-2.569-5.514-2.618c-2.471-0.056-4.968,1.495-6.2,3.575
		c-0.534,0.902-1.174,1.828-1.168,2.913C330.269,179.793,330.579,180.753,330.894,181.622z M360.404,191.117
		c-0.492-0.562,0.327-1.388,0.823-0.823c1.474,1.677,2.417,3.662,2.731,5.877c0.104,0.732-1.018,1.049-1.123,0.309
		C362.55,194.462,361.752,192.651,360.404,191.117z M358.338,193.838c0.242-0.248,0.577-0.192,0.823,0
		c0.767,0.596,1.394,1.349,1.853,2.204c0.354,0.66-0.65,1.248-1.005,0.588c-0.418-0.778-0.975-1.427-1.671-1.97
		C358.088,194.466,358.138,194.043,358.338,193.838z"/>
	<path fill="#544842" d="M316.229,170.13c0.907,2.343,4.142,3.484,6.373,2.436c0.49-0.23,1.012-0.911,1.473-0.883
		c0.607,0.036,1.723,1.336,2.172,1.75c1.177,1.084,2.275,2.249,3.384,3.4c-0.75,1.697-0.516,3.272,0.141,5.098
		c0.807,2.245,2.402,3.98,3.51,6.069c1.079,2.033,1.761,4.218,2.562,6.367c1.531,4.104,3.792,7.629,7.227,10.38
		c1.536,1.23,3.151,2.641,4.903,3.549c1.654,0.857,3.608,1.187,5.436,1.428c3.753,0.495,7.645-0.065,11.049-1.791
		c8.364-4.243,5.248-16.098,1.175-22.221c-3.756-5.646-11.116-8.062-17.41-9.509c-4.673-1.248-7.886-6.202-12.968-4.598
		c-1.085-1.169-2.107-2.429-3.11-3.59c1.067-1.089,2.164-2.444,1.869-4.088c-0.298-1.663-1.932-2.907-3.487-3.339
		c-3.046-0.845-5.789,1.161-6.411,3.948C320.997,161.355,314.359,165.3,316.229,170.13z M320.013,171.697
		c-1.865-0.36-3.184-1.87-2.762-3.847c0.675-3.166,5.414-5.029,6.794-1.293c0.21,0.569,1.227,0.538,1.144-0.155
		c-0.304-2.522,1.417-4.946,4.103-4.842c1.608,0.062,3.079,1.04,3.333,2.627c0.24,1.5-0.76,2.414-1.8,3.388
		c-0.23,0.216-0.216,0.605,0,0.823c1.154,1.165,2.15,2.464,3.242,3.685c-1.758,0.854-2.88,2.048-3.858,3.675
		c-1.335-1.385-2.67-2.766-4.125-4.029c-0.819-0.71-1.681-1.821-2.795-1.223c-0.449,0.242-0.72,0.759-1.22,0.996
		C321.399,171.817,320.724,171.834,320.013,171.697z M333.994,186.875c-1.012-1.794-2.39-3.297-3.1-5.254
		c-0.315-0.868-0.625-1.828-0.63-2.761c-0.006-1.085,0.634-2.011,1.168-2.913c1.232-2.08,3.729-3.631,6.2-3.575
		c2.115,0.049,3.835,1.504,5.514,2.618c1.499,0.994,3.021,1.869,4.769,2.336c6.09,1.399,13.522,3.716,16.966,9.369
		c2.124,3.485,3.923,8.113,3.736,12.255c-0.201,4.483-3.084,7.658-7.237,8.935c-3.51,1.079-6.933,1.082-10.49,0.196
		c-3.34-0.831-6.379-3.401-8.835-5.73c-3.009-2.853-4.507-6.683-5.875-10.496C335.565,190.146,334.888,188.46,333.994,186.875z"/>
	<path fill="#544842" d="M361.227,190.293c1.474,1.677,2.417,3.662,2.731,5.877c0.104,0.732-1.018,1.049-1.123,0.309
		c-0.285-2.017-1.083-3.828-2.432-5.362C359.912,190.555,360.731,189.729,361.227,190.293z"/>
	<path fill="#544842" d="M359.162,193.838c0.767,0.596,1.394,1.349,1.853,2.204c0.354,0.66-0.65,1.248-1.005,0.588
		c-0.418-0.778-0.975-1.427-1.671-1.97c-0.25-0.194-0.2-0.617,0-0.822C358.581,193.59,358.915,193.646,359.162,193.838z"/>
</g>
<g>
	<path fill="#13253B" d="M524.15,164.535c-1.941-0.804-4.398,0.661-5.478,3.267c-1.08,2.606-0.379,5.38,1.562,6.185
		c1.941,0.804,4.398-0.662,5.478-3.268S526.091,165.339,524.15,164.535L524.15,164.535z"/>
	<path fill="#13253B" d="M524.15,164.535"/>
	<path fill="#13253B" d="M515.612,155.614c0.031,0.129,0.061,0.248,0.065,0.345c0.089,2.011,1.424,4.892,4.901,6.39l0.132,0.057
		c3.443,1.426,6.366,0.432,7.951-0.976c0.055-0.048,0.152-0.1,0.255-0.153c0.123-0.063,0.245-0.129,0.357-0.208
		c1.191-0.825,2.085-1.94,2.518-3.14c0.461-1.271,0.353-2.491-0.299-3.431c-0.264-0.38-0.604-0.658-1.01-0.826
		c-0.84-0.349-1.803-0.193-2.92-0.014c-0.711,0.113-1.444,0.23-2.205,0.231c-0.083-0.007-0.396-0.092-0.884-0.294
		c-0.58-0.24-0.976-0.466-1.05-0.532c-0.519-0.543-0.924-1.141-1.316-1.718c-0.6-0.886-1.166-1.721-2.011-2.071
		c-0.363-0.15-0.753-0.2-1.166-0.149c-2.26,0.282-3.792,2.99-3.412,6.038C515.538,155.315,515.575,155.466,515.612,155.614
		L515.612,155.614z"/>
	<path fill="#13253B" d="M515.612,155.614"/>
	<path fill="#13253B" d="M516.664,161.434c-1.94-0.804-4.398,0.661-5.478,3.267s-0.376,5.38,1.563,6.184
		c1.942,0.804,4.399-0.661,5.478-3.268C519.306,165.011,518.605,162.238,516.664,161.434L516.664,161.434z"/>
	<path fill="#13253B" d="M516.664,161.434"/>
	<path fill="#13253B" d="M509.876,161.464c1.556,0.645,3.442-0.464,4.296-2.524c0.854-2.06,0.304-4.177-1.253-4.821
		c-1.554-0.644-3.442,0.463-4.295,2.522C507.77,158.703,508.322,160.821,509.876,161.464L509.876,161.464z"/>
	<path fill="#13253B" d="M509.876,161.464"/>
	<path fill="#13253B" d="M527.382,164.413c-0.854,2.062-0.303,4.179,1.253,4.823c1.556,0.644,3.441-0.464,4.295-2.525
		c0.854-2.06,0.304-4.177-1.253-4.82C530.123,161.246,528.236,162.353,527.382,164.413L527.382,164.413z"/>
	<path fill="#13253B" d="M527.382,164.413"/>
</g>
<g>
	<path fill="#13253B" d="M556.977,155.928c-1.987-0.683-4.349,0.931-5.266,3.598c-0.917,2.667-0.047,5.392,1.939,6.076
		c1.987,0.684,4.35-0.931,5.267-3.598C559.835,159.337,558.965,156.612,556.977,155.928L556.977,155.928z"/>
	<path fill="#13253B" d="M556.977,155.928"/>
	<path fill="#13253B" d="M547.908,147.549c0.039,0.126,0.076,0.243,0.085,0.339c0.213,2.003,1.723,4.796,5.285,6.076l0.135,0.05
		c3.525,1.212,6.38,0.039,7.877-1.462c0.052-0.052,0.146-0.109,0.245-0.169c0.118-0.07,0.235-0.144,0.344-0.229
		c1.138-0.897,1.961-2.066,2.32-3.29c0.381-1.297,0.198-2.508-0.51-3.406c-0.286-0.362-0.644-0.619-1.058-0.763
		c-0.86-0.295-1.811-0.081-2.916,0.167c-0.703,0.156-1.427,0.319-2.186,0.366c-0.083-0.002-0.401-0.067-0.901-0.239
		c-0.593-0.204-1.002-0.405-1.082-0.467c-0.551-0.511-0.992-1.081-1.418-1.633c-0.653-0.848-1.269-1.646-2.135-1.944
		c-0.372-0.127-0.765-0.153-1.172-0.078c-2.239,0.421-3.6,3.218-3.035,6.236C547.815,147.255,547.861,147.404,547.908,147.549
		L547.908,147.549z"/>
	<path fill="#13253B" d="M547.908,147.549"/>
	<path fill="#13253B" d="M549.314,153.292c-1.985-0.682-4.35,0.932-5.267,3.598c-0.917,2.668-0.045,5.394,1.941,6.076
		c1.987,0.684,4.349-0.93,5.267-3.597C552.172,156.702,551.302,153.977,549.314,153.292L549.314,153.292z"/>
	<path fill="#13253B" d="M549.314,153.292"/>
	<path fill="#13253B" d="M542.542,153.742c1.593,0.547,3.408-0.674,4.133-2.784c0.726-2.108,0.046-4.188-1.547-4.735
		c-1.591-0.547-3.407,0.675-4.132,2.782C540.271,151.115,540.951,153.194,542.542,153.742L542.542,153.742z"/>
	<path fill="#13253B" d="M542.542,153.742"/>
	<path fill="#13253B" d="M560.196,155.607c-0.725,2.11-0.045,4.19,1.547,4.738c1.592,0.547,3.407-0.675,4.132-2.784
		c0.726-2.107,0.046-4.188-1.547-4.735C562.737,152.279,560.922,153.5,560.196,155.607L560.196,155.607z"/>
	<path fill="#13253B" d="M560.196,155.607"/>
</g>
<g>
	<path fill="#13253B" d="M534.623,198.175c-1.941-0.804-4.398,0.661-5.478,3.267c-1.08,2.606-0.379,5.38,1.562,6.185
		c1.941,0.804,4.398-0.662,5.478-3.268S536.564,198.98,534.623,198.175L534.623,198.175z"/>
	<path fill="#13253B" d="M534.623,198.175"/>
	<path fill="#13253B" d="M526.085,189.254c0.031,0.129,0.061,0.248,0.065,0.345c0.089,2.011,1.424,4.892,4.901,6.39l0.132,0.057
		c3.443,1.426,6.366,0.432,7.951-0.976c0.055-0.048,0.152-0.1,0.255-0.153c0.123-0.063,0.245-0.129,0.357-0.208
		c1.191-0.825,2.085-1.94,2.518-3.14c0.461-1.271,0.353-2.491-0.299-3.431c-0.264-0.38-0.604-0.658-1.01-0.826
		c-0.84-0.349-1.803-0.193-2.92-0.014c-0.711,0.113-1.444,0.23-2.205,0.231c-0.083-0.007-0.396-0.092-0.884-0.294
		c-0.58-0.24-0.976-0.466-1.05-0.532c-0.519-0.543-0.924-1.141-1.316-1.718c-0.6-0.886-1.166-1.721-2.011-2.071
		c-0.363-0.15-0.753-0.2-1.166-0.149c-2.26,0.282-3.792,2.99-3.412,6.038C526.011,188.956,526.047,189.107,526.085,189.254
		L526.085,189.254z"/>
	<path fill="#13253B" d="M526.085,189.254"/>
	<path fill="#13253B" d="M527.136,195.075c-1.94-0.804-4.398,0.661-5.478,3.267s-0.376,5.38,1.563,6.184
		c1.942,0.804,4.399-0.661,5.478-3.268C529.779,198.652,529.078,195.878,527.136,195.075L527.136,195.075z"/>
	<path fill="#13253B" d="M527.136,195.075"/>
	<path fill="#13253B" d="M520.349,195.105c1.556,0.645,3.442-0.464,4.296-2.524c0.854-2.06,0.304-4.177-1.253-4.821
		c-1.554-0.644-3.442,0.463-4.295,2.522C518.243,192.343,518.794,194.461,520.349,195.105L520.349,195.105z"/>
	<path fill="#13253B" d="M520.349,195.105"/>
	<path fill="#13253B" d="M537.855,198.053c-0.854,2.062-0.303,4.179,1.253,4.823c1.556,0.644,3.441-0.464,4.295-2.525
		c0.854-2.06,0.304-4.177-1.253-4.82C540.596,194.886,538.708,195.994,537.855,198.053L537.855,198.053z"/>
	<path fill="#13253B" d="M537.855,198.053"/>
</g>
<g>
	<path fill="#13253B" d="M503.16,223.708c-1.941-0.804-4.398,0.661-5.478,3.267c-1.08,2.606-0.379,5.38,1.562,6.185
		c1.941,0.804,4.398-0.662,5.478-3.268S505.102,224.513,503.16,223.708L503.16,223.708z"/>
	<path fill="#13253B" d="M503.16,223.708"/>
	<path fill="#13253B" d="M494.623,214.788c0.031,0.129,0.061,0.248,0.065,0.345c0.089,2.011,1.424,4.892,4.901,6.39l0.132,0.057
		c3.443,1.426,6.366,0.432,7.951-0.976c0.055-0.048,0.152-0.1,0.255-0.153c0.123-0.063,0.245-0.129,0.357-0.208
		c1.191-0.825,2.085-1.94,2.518-3.14c0.461-1.271,0.353-2.491-0.299-3.431c-0.264-0.38-0.604-0.658-1.01-0.826
		c-0.84-0.349-1.803-0.193-2.92-0.014c-0.711,0.113-1.444,0.23-2.205,0.231c-0.083-0.007-0.396-0.092-0.884-0.294
		c-0.58-0.24-0.976-0.466-1.05-0.532c-0.519-0.543-0.924-1.141-1.316-1.718c-0.6-0.886-1.166-1.721-2.011-2.071
		c-0.363-0.15-0.753-0.2-1.166-0.149c-2.26,0.282-3.792,2.99-3.412,6.038C494.548,214.489,494.585,214.64,494.623,214.788
		L494.623,214.788z"/>
	<path fill="#13253B" d="M494.623,214.788"/>
	<path fill="#13253B" d="M495.674,220.608c-1.94-0.804-4.398,0.661-5.478,3.267s-0.376,5.38,1.563,6.184
		c1.942,0.804,4.399-0.661,5.478-3.268C498.316,224.185,497.616,221.412,495.674,220.608L495.674,220.608z"/>
	<path fill="#13253B" d="M495.674,220.608"/>
	<path fill="#13253B" d="M488.887,220.638c1.556,0.645,3.442-0.464,4.296-2.524c0.854-2.06,0.304-4.177-1.253-4.821
		c-1.554-0.644-3.442,0.463-4.295,2.522C486.78,217.876,487.332,219.995,488.887,220.638L488.887,220.638z"/>
	<path fill="#13253B" d="M488.887,220.638"/>
	<path fill="#13253B" d="M506.393,223.586c-0.854,2.062-0.303,4.179,1.253,4.823c1.556,0.644,3.441-0.464,4.295-2.525
		c0.854-2.06,0.304-4.177-1.253-4.82C509.133,220.419,507.246,221.527,506.393,223.586L506.393,223.586z"/>
	<path fill="#13253B" d="M506.393,223.586"/>
</g>
</svg>
