<?xml version="1.0" encoding="utf-8"?>
<!-- Generator: Adobe Illustrator 16.0.4, SVG Export Plug-In . SVG Version: 6.00 Build 0)  -->
<!DOCTYPE svg PUBLIC "-//W3C//DTD SVG 1.1//EN" "http://www.w3.org/Graphics/SVG/1.1/DTD/svg11.dtd">
<svg version="1.1" id="Layer_1" xmlns="http://www.w3.org/2000/svg" xmlns:xlink="http://www.w3.org/1999/xlink" x="0px" y="0px"
	 width="307px" height="113px" viewBox="0 0 307 113" enable-background="new 0 0 307 113" xml:space="preserve">
<g>
	<path fill="#003660" d="M121.923,12.141v1.052c-3.737,0.062-5.073,1.565-5.073,5.127v15.046c0,6.909-4.399,14.323-16.495,14.323
		c-10.642,0-16.1-6.072-16.1-14.042V17.376c0-3.568-1.002-4.121-4.793-4.183v-1.052h14.323v1.052h-0.503
		c-3.061,0-4.401,0.842-4.401,4.072v15.491c0,7.519,4.401,12.033,12.705,12.033c6.296,0,12.705-2.619,12.705-12.084V19.717
		c0-5.349-0.838-6.293-5.462-6.524v-1.052H121.923"/>
	<path fill="#003660" d="M128.217,41.95c0,3.062,0.725,3.794,3.733,3.794V46.8h-11.199v-1.056c2.45,0,3.731-1.342,3.731-3.515V30.53
		c0-2.063-0.225-2.453-1.671-2.73l-1.897-0.392v-0.891l6.411-2.342h0.892v4.343c3.733-2.338,6.853-4.397,9.584-4.397
		c3.791,0,5.961,2.783,5.961,8.353c0,7.411-0.389,8.859-0.443,11.037c-0.06,1.502,0.833,2.233,3.119,2.233h1.228V46.8h-11.978
		v-1.056c1.611-0.062,2.558-0.449,3.17-1.062c1.059-1.061,1.171-5.13,1.171-12.536c0-4.459-2.171-5.855-4.405-5.855
		c-1.781,0-4.509,1.562-7.407,3.567V41.95"/>
	<path fill="#003660" d="M157.62,42.562c0,1.954,1.06,3.182,4.013,3.182V46.8h-12.371v-1.056c3.397,0,4.625-1.116,4.625-4.074
		V30.474c0-2.176-0.277-2.451-1.726-2.733l-2.62-0.502v-0.889l7.241-2.511h0.838V42.562 M155.338,11.302
		c1.337,0,2.446,0.945,2.446,2.122c0,1.166-1.109,2.116-2.446,2.116c-1.342,0-2.399-0.95-2.399-2.116
		C152.939,12.248,153.996,11.302,155.338,11.302z"/>
	<path fill="#003660" d="M172.98,47.298l-8.078-18.495c-0.837-1.951-1.562-2.623-2.454-2.791l-1.727-0.275v-1.004h11.369v1.004
		c-3.402,0.11-4.462,0.553-3.123,3.171l5.913,13.877l5.677-12.871c1.004-2.289,0.503-3.903-3.559-4.178v-1.004h9.692v1.004
		c-2.115,0.389-3.35,1.613-4.407,4.066l-7.686,17.495H172.98"/>
	<path fill="#003660" d="M190.065,32.644c-0.104,0.84-0.215,1.615-0.215,2.34c0,5.795,4.061,9.698,8.464,9.698
		c2.788,0,4.961-1.114,7.08-3.625l0.612,0.667c-2.341,2.958-5.851,5.746-9.918,5.746c-5.463,0-9.692-4.96-9.692-11.427
		c0-5.908,3.952-11.921,10.754-11.921c7.511,0,7.354,5.402,9.188,7.241v1.282H190.065 M201.659,31.196
		c-0.611-3.62-2.837-6.02-5.518-6.02c-1.838,0-4.622,0.836-5.908,6.02H201.659z"/>
	<path fill="#003660" d="M216.481,42.729c0,2.283,0.838,3.015,3.622,3.015h2.117V46.8h-13.208v-1.056
		c2.842-0.062,3.733-1.228,3.733-4.185V28.691l-3.733-1.341v-0.947l6.352-2.228h1.117v5.905h0.108
		c2.787-4.57,3.454-5.625,5.294-5.625c0.674,0,0.834,0.056,1.896,0.501c0.561,0.22,1.562,0.449,2.897,0.832l-1.335,3.348
		c-0.836-0.112-1.899-0.391-2.957-0.896c-0.607-0.279-1.279-0.553-1.953-0.553c-0.995,0-1.609,0.674-2.17,1.449
		c-0.723,0.999-1.335,1.954-1.78,2.784V42.729"/>
	<path fill="#003660" d="M229.813,41.167c0.663,3.349,2.78,5.241,5.289,5.241c2.229,0,3.957-1.671,3.957-3.679
		c0-1.17-0.279-1.895-1.784-3.402c-3.957-3.954-8.357-4.344-8.357-8.968c0-3.678,2.901-6.238,7.132-6.238
		c1.505,0,3.065,0.334,4.458,0.891l0.113,5.068h-0.949c-0.393-2.842-2.226-4.622-4.458-4.622c-1.836,0-3.395,1.282-3.395,3.119
		c0,4.907,10.357,5.739,10.357,12.535c0,3.625-3.011,6.357-6.91,6.357c-1.055,0-1.831-0.171-2.447-0.39
		c-0.614-0.171-1.062-0.334-1.501-0.334c-0.337,0-0.671,0.22-0.948,0.665h-0.841l-0.611-6.243H229.813"/>
	<path fill="#003660" d="M253.228,42.562c0,1.954,1.058,3.182,4.015,3.182V46.8h-12.374v-1.056c3.402,0,4.627-1.116,4.627-4.074
		V30.474c0-2.176-0.277-2.451-1.728-2.733l-2.625-0.502v-0.889l7.249-2.511h0.836V42.562 M250.944,11.302
		c1.339,0,2.447,0.945,2.447,2.122c0,1.166-1.108,2.116-2.447,2.116s-2.396-0.95-2.396-2.116
		C248.548,12.248,249.605,11.302,250.944,11.302z"/>
	<path fill="#003660" d="M271.825,24.733l-0.889,2.452h-5.997v12.982c0,3.508,2.507,4.683,3.676,4.683
		c1.23,0,2.339-0.952,3.398-2.794l0.896,0.839c-1.337,2.902-3.516,4.575-6.081,4.575c-3.28,0-5.624-2.732-5.624-6.463V27.185h-2.562
		v-0.895c2.175-1.055,4.067-3.619,5.35-7.076h0.948v5.519H271.825"/>
	<path fill="#003660" d="M292.63,30.917c1.672-4.235,0.61-5.07-2.673-5.18v-1.004h9.246v1.004c-2.285,0.275-3.562,1.839-4.622,4.457
		l-9.477,23.626c-1.668,4.122-2.949,5.962-4.897,5.962c-1.344,0-2.286-0.838-2.286-1.952c0-2.284,3.23-1.725,4.623-3.123
		c0.611-0.614,1.449-2.061,1.893-3.172l1.674-4.186l-8.633-18.327c-1.063-2.284-2.062-3.236-4.406-3.287v-1.004h11.203v1.004
		c-3.4,0.051-3.793,1.055-2.676,3.398l6.297,13.594L292.63,30.917"/>
	<path fill="#003660" d="M94.398,65.634c1.614,0,5.07,2.227,5.07,8.197c0,10.583-10.532,15.208-13.15,15.208
		c-2.618,0-4.958-4.177-4.958-8.806C81.36,71.208,91.055,65.634,94.398,65.634 M91.556,67.698c-3.512,0-6.63,6.74-6.63,12.314
		c0,4.675,2.003,6.965,3.898,6.965c4.458,0,7.078-7.244,7.078-12.37C95.902,70.701,94.007,67.698,91.556,67.698z"/>
	<path fill="#003660" d="M101.456,68.143l0.168-1.058c1.338-0.168,2.676-0.393,4.069-0.729c0.835-4.566,2.506-9.356,5.626-12.477
		c1.949-1.948,4.404-3.009,6.575-3.009c2.175,0,3.955,1.225,3.955,2.672c0,0.89-0.669,1.619-1.562,1.619
		c-1.834,0-3.342-2.286-4.956-2.286c-2.175,0-3.954,2.452-4.736,6.129l-1.504,7.3h4.791l-0.557,1.838h-4.571l-2.839,16.271
		c-2.174,12.481-8.527,16.936-13.764,16.936c-2.336,0-4.289-1.167-4.289-2.561c0-0.894,0.893-1.674,1.841-1.674
		c2.058,0,3.171,2.454,5.29,2.454c1.284,0,2.395-0.616,3.401-1.616c2.784-2.787,3.842-12.311,4.064-13.647l2.843-16.163H101.456"/>
	<path fill="#003660" d="M154.661,85.749c-5.515,2.844-12.59,3.51-14.932,3.51c-12.201,0-17.885-9.414-17.885-17.552
		c0-8.356,5.853-18.832,19.447-18.832c5.96,0,9.917,1.894,11.085,1.894c0.504,0,0.952-0.108,1.285-0.388h0.78v9.026h-1.113
		c-1.511-6.964-6.245-9.138-11.425-9.138c-9.807,0-14.823,8.138-14.823,17.107c0,11.421,8.025,16.486,14.432,16.486
		c2.565,0,5.403-0.554,8.527-2.114v-7.021c0-3.172-1.114-4.234-4.457-4.234h-2.065v-1h15.044v1
		c-2.784,0.168-3.901,1.117-3.901,3.509V85.749"/>
	<path fill="#003660" d="M166.94,83.966c0,2.286,1.063,3.344,3.232,3.344h0.95v1.06h-12.534v-1.06c3.562,0,4.62-1.058,4.62-3.733
		V56.667c0-1.566-0.167-2.061-1.725-2.235l-2.506-0.279v-0.942l7.13-2.286h0.832V83.966"/>
	<path fill="#003660" d="M173.871,72.938c-0.112-0.341-0.169-0.503-0.169-0.784c0-1.952,4.623-6.465,8.245-6.465
		c1.674,0,4.287,0.782,5.846,2.959c0.84,1.17,0.84,1.892,0.84,4.788v7.466c0,4.458,0,5.463,1.452,5.463
		c0.607,0,1.335-0.061,2.727-1.229l0.277,0.84c-3.004,2.447-4.568,3.062-5.516,3.062c-2.283,0-2.507-2.513-2.562-3.396
		c-3.842,3.17-4.957,3.396-6.467,3.396c-3.227,0-5.178-1.841-5.178-4.567c0-3.398,3.01-4.569,6.575-5.463
		c1.17-0.281,3.008-0.948,4.959-2.119v-4.402c0-1.561,0-2.454-0.951-3.564c-0.719-0.896-1.889-1.615-3.117-1.615
		c-1.838,0-3.456,1.561-3.456,2.726c0,0.338,0.058,0.56,0.279,1.062L173.871,72.938 M184.9,78.003
		c-1.06,0.614-1.951,1.006-3.288,1.562c-3.4,1.393-4.679,1.953-4.679,4.241c0,2.002,1.61,3.278,3.287,3.278
		c0.891,0,1.561-0.274,4.68-2.449V78.003z"/>
	<path fill="#003660" d="M195.831,82.74c0.677,3.343,2.787,5.243,5.303,5.243c2.229,0,3.955-1.679,3.955-3.678
		c0-1.175-0.281-1.897-1.787-3.403c-3.95-3.95-8.354-4.35-8.354-8.97c0-3.679,2.895-6.244,7.134-6.244
		c1.5,0,3.062,0.337,4.453,0.892l0.111,5.071h-0.944c-0.393-2.842-2.23-4.626-4.461-4.626c-1.838,0-3.398,1.285-3.398,3.122
		c0,4.903,10.366,5.739,10.366,12.541c0,3.617-3.013,6.352-6.907,6.352c-1.058,0-1.843-0.167-2.454-0.387
		c-0.61-0.175-1.061-0.337-1.506-0.337c-0.337,0-0.663,0.218-0.944,0.668h-0.842l-0.607-6.243H195.831"/>
	<path fill="#003660" d="M234.947,70.876c-0.835-0.054-3.458-0.283-5.57-0.674c0.33,0.621,0.944,1.784,0.944,3.567
		c0,4.123-3.561,8.083-9.75,8.083c-1.058,0-1.559-0.113-2.562-0.445c-0.892,0.948-3.396,1.558-3.396,2.837
		c0,1.399,2.393,1.953,7.966,2.009c6.298,0.053,8.468,0.337,10.142,2.006c1.335,1.342,1.669,2.729,1.669,3.898
		c0,3.622-4.903,9.193-15.212,9.193c-5.792,0-8.579-2.561-8.579-5.294c0-3.229,3.4-3.729,5.961-6.846
		c-3.004-0.284-5.291-2.176-5.291-3.958c0-2.564,3.737-2.676,5.684-4.126c-3.396-1.336-5.349-3.73-5.349-6.911
		c0-4.794,4.289-8.527,9.805-8.527c2.562,0,4.739,0.782,6.24,2.231c2.505,0,4.849-0.283,7.3-0.558V70.876 M222.296,99.788
		c4.737,0,9.193-3.119,9.193-6.628c0-2.06-1.723-3.121-3.733-3.285c-1.445-0.169-8.464-0.229-10.082-0.448
		c-1.561,1.836-3.622,2.618-3.622,4.786C214.052,96.84,217.728,99.788,222.296,99.788z M220.735,66.751
		c-2.117,0-5.402,1.168-5.402,6.35c0,3.285,1.672,7.692,5.908,7.692c3.229,0,5.349-2.676,5.349-6.524
		C226.59,69.483,224.139,66.751,220.735,66.751z"/>
	<path fill="#003660" d="M248.111,65.688c6.802,0,11.978,5.07,11.978,11.707c0,6.57-5.176,11.644-11.809,11.644
		c-6.908,0-12.202-5.016-12.202-11.53C236.078,69.818,242.321,65.688,248.111,65.688 M248.894,87.699
		c3.286,0,7.015-3.345,7.015-8.914c0-6.351-3.893-11.76-8.575-11.76c-3.68,0-7.078,3.797-7.078,8.586
		C240.255,82.354,244.104,87.699,248.894,87.699z"/>
	<path fill="#003660" d="M285.946,88.872l-6.633-15.713l-6.686,15.713h-1.557l-8.309-18.726c-0.776-1.725-1.561-2.561-4.121-2.839
		v-1.003h10.812v1.003c-3.29,0.165-3.514,1.114-2.339,3.729l6.015,13.435l5.462-12.93c-1.226-2.839-2.175-3.844-4.125-4.069
		l-1.337-0.165v-1.003h11.532v1.003c-2.729,0.054-3.561,0.89-2.396,3.674l5.462,13.261l5.35-13.035c1.226-2.955,0.279-3.9-3.234-3.9
		v-1.003h9.361v1.003c-2.117,0.216-3.454,1.278-4.571,4.009l-7.183,17.555H285.946"/>
	<path fill="#003660" d="M7.805,12.146l58.284-0.005c0,0,0.069,27.618-0.001,47.669c0.011,14.772-18.237,31.06-29.157,31.623
		C24.823,90.467,7.805,73.533,7.805,59.99V12.146"/>
	<rect x="36.516" y="32.237" fill="#98DAF8" width="1.852" height="51.341"/>
	<path fill="#FFCE37" d="M48.84,49.917h9.15c2.7,0,2.947,0.372,3.138,0.95c-0.114-0.9-0.696-5.507-1.102-8.843
		c-0.106-0.87-0.412-3.265-1.619-4.692c-0.382-0.459-0.566-0.688-1.386-1.039c0.064-0.183,0.811-2.039,1.364-3.537
		c0.285-0.767-0.022-1.529-0.608-1.886c-0.509-0.306-1.163-0.319-1.63-0.319c-3.136,0-5.558,0.004-6.525,0.004
		c-1.675,0-2.454,1.066-1.94,2.354c0.388,0.974,1.034,2.638,1.329,3.398c-2.061,0.688-2.742,3.502-3.042,5.94
		c-0.497,4.108-1.172,9.589-1.22,9.918c-0.073,0.522-0.16,0.955,0.698,0.994c1.626,0.104,3.524,0.117,6.722,0.034
		c0.309,0.174,0.708,0.281,1.231,0.264c0.519-0.008,0.897-0.146,1.168-0.337c1.304-0.048,2.788-0.107,4.483-0.176
		c-1.49-0.035-2.886-0.077-4.178-0.113c0.466-0.579,0.418-1.369,0.375-1.524c-0.193,2.143-2.976,1.938-2.287-0.335
		c-0.299,0-1.073,0-1.567,0.402c-0.132,0.332-0.086,0.888,0.23,1.346c-1.806-0.079-3.293-0.145-4.369-0.205
		c-0.553-0.027-0.819-0.427-0.54-0.794C47.882,50.199,47.949,49.917,48.84,49.917 M49.679,31.922
		c1.654-0.009,4.33,0.008,6.065,0.008c0.538,0,1.421-0.16,0.927,1.028c-0.439,1.052-1.07,2.52-1.342,3.15
		c-0.914,0-4.625,0.002-4.635-0.016c-0.295-0.687-0.72-1.666-1.258-2.91C49.15,32.521,49.009,31.922,49.679,31.922z"/>
	<path fill="#FFFFFF" d="M37.009,83.358c0,0.604-0.402,1.094-0.901,1.094c-0.496,0-0.903-0.49-0.903-1.094v-5.094
		c0-0.597,0.407-1.091,0.903-1.091c0.499,0,0.901,0.494,0.901,1.091V83.358"/>
	<path fill="#E19F35" d="M24.446,22.86c0.289-0.121,0.701-0.09,1.082-0.09c-0.421-0.35-0.804-0.487-1.034-0.547
		c-0.538-2.039-3.489-1.485-3.78,0.321c-0.104,0.653-2.421,0.94-5.077,4.49c-1.224,1.631-2.914,3.046-3.426,3.372
		c-0.515,0.321,0.74,0.227,1.32-0.387c0.543,0.548,1.612-1.098,3.219-1.375c0.425-0.067,5.767-1.039,4.358-4.097
		c1.883,2.421-1.255,4.161-3.23,4.355c0.174,0.091,1.201,0.171,1.318,0.217c0.295,0.105-0.087,0.463,0.152,0.6
		c0.576,0.317,1.717,1.396,1.717,1.396s0.652-0.222,0.356-0.516c-0.881-0.58-1.119-0.758-1.344-1.121
		c-0.016-0.021-0.3-0.557,0.28-0.71c0.837-0.066,3.576-1.04,3.11-4.474C23.393,23.751,23.774,23.164,24.446,22.86"/>
	<path fill="#003660" d="M24.047,22.29c0,0.18-0.133,0.321-0.297,0.321c-0.16,0-0.295-0.142-0.295-0.321
		c0-0.175,0.135-0.324,0.295-0.324C23.914,21.966,24.047,22.115,24.047,22.29"/>
	<rect x="37.846" y="76.983" fill="#FFFFFF" width="0.987" height="7.214"/>
	<path fill="#FFCE37" d="M39.712,85.32c0.293-0.308,0.472-0.723,0.472-1.184c0-0.944-0.767-1.714-1.716-1.714h-2.919
		c-0.948,0-1.718,0.77-1.718,1.714c0,0.445,0.17,0.843,0.443,1.146c-0.353,0.319-0.983,0.927-1.159,1.137
		c1.961,0.862,5.683,0.794,7.781-0.013C40.698,86.236,40.026,85.62,39.712,85.32"/>
	<path fill="#98DAF8" d="M36.964,26.115c0,0.042-0.004,0.032-0.004-0.013c-1.268-1.132-5.337-1.616-7.955-0.948
		c0.171,0.318,0.382,1.334,0.495,1.74c3.863-1.286,7.459,0.593,7.459,0.593c0-0.009,0-0.024,0-0.038c0,0.013,0,0.032,0.004,0.042
		c0,0,3.597-1.875,7.462-0.588c0.106-0.407,0.322-1.42,0.495-1.733C42.299,24.496,38.231,24.977,36.964,26.115"/>
	<rect x="38.134" y="32.235" fill="#FFFFFF" width="0.575" height="39.781"/>
	<rect x="35.234" y="32.237" fill="#FFFFFF" width="1.844" height="36.913"/>
	<path fill="#003660" d="M38.841,46.437c0.12-0.431,0.177-1.499,0-1.834c-0.865,0-2.21,0.007-2.994-0.012
		C37.643,45.245,38.841,46.437,38.841,46.437"/>
	<path fill="#003660" d="M32.373,79.302c1.032,0.155,6.568,0.417,6.568,0.417l0.904,2.35C39.845,82.068,35.011,81.94,32.373,79.302"
		/>
	<path fill="#98DAF8" d="M55.031,62.466c-1.731-1.121-3.831-0.261-6.106-2.169c0.008,5.927,4.323,7.114,1.896,8.696
		c-2.165,1.413-4.26,1.766-6.436,1.584c0.184-0.295,0.51-0.835,0.771-1.102c-2.667-0.344-4.994-0.151-5.968-0.038
		c-3.321-0.976-7.005-2.206-11.441-2.274c0.806,0.658,1.598,1.798,1.598,3.76c-0.672-2.651-3.429-4.036-4.782-4.562
		c-0.404-0.155-0.784-0.226-1.179-0.291c-0.198,0.272-0.626,0.725-1.345,0.996c-0.41-0.218-0.745,0.169-0.688,0.297
		c0.022,0.063,0.014,0.125-0.035,0.19c-0.396,0.514-1.696,0.269-2.664-0.068c-1.115-0.385-1.07,0.384-0.854,0.769
		c0.35,0.619,0.688,1.022,0.853,1.364c1.482,3.026,2.58,5.012,5.864,6.892c3.121,2.301,7.044,3.489,11.035,3.624
		c1.456,0.521,4.801,1.443,8.995,0.774c-0.815-0.55-1.63-1.091-1.9-1.637c5.33-1.538,9.937-5.041,11.822-10.326
		c0.021-0.057,0.042-0.115,0.062-0.172c0.338-1.158-0.783-2.696-2.375-1.179c1.379-3.315,3.662-1.879,3.178,0.081
		c1.82-2.452,4.257-5.088,7.509-6.088C59.867,60.217,56.95,61.403,55.031,62.466"/>
	<path fill="#003660" d="M38.897,57.296c0.124-0.437,0.175-1.506,0-1.834c-0.866,0-2.208,0.011-2.988-0.013
		C37.698,56.104,38.897,57.296,38.897,57.296"/>
	<path fill="#FFCE37" d="M40.157,53.806c0,0.952-0.78,1.721-1.741,1.721h-2.958c-0.96,0-1.741-0.769-1.741-1.721
		c0-0.948,0.78-1.713,1.741-1.713h2.958C39.376,52.093,40.157,52.858,40.157,53.806"/>
	<path fill="#E19F35" d="M38.367,54.943c-1.735,0.019-3.227,0-3.227,0s2.444-0.146,3.995-1.801
		C39.542,53.414,39.618,54.938,38.367,54.943"/>
	<path fill="#003660" d="M38.927,68.307c0.122-0.43,0.171-1.505,0-1.833c-0.867,0-2.206,0.011-2.99-0.016
		C37.728,67.114,38.927,68.307,38.927,68.307"/>
	<path fill="#FFCE37" d="M40.181,64.766c0,0.952-0.778,1.721-1.739,1.721h-2.959c-0.961,0-1.737-0.769-1.737-1.721
		c0-0.949,0.776-1.709,1.737-1.709h2.959C39.402,63.057,40.181,63.817,40.181,64.766"/>
	<path fill="#E19F35" d="M38.389,65.901c-1.737,0.019-3.223-0.002-3.223-0.002s2.44-0.135,3.992-1.8
		C39.564,64.374,39.643,65.895,38.389,65.901"/>
	<rect x="34.341" y="35.026" fill="#FFCE37" width="5.231" height="5.134"/>
	<path fill="#E19F35" d="M39.573,40.153c-0.889,0.214-0.831,0.958-0.864,1.231c0,0-2.108,0.015-3.494,0
		c0.011-0.08,0.043-1.097-0.874-1.231C34.341,40.153,39.237,40.158,39.573,40.153"/>
	<rect x="37.396" y="35.026" fill="#E19F35" width="1.417" height="5.199"/>
	<path fill="#FFCE37" d="M20.549,63.477c-0.55,0.242-1.011,0.747-1.255,1.39c-0.252,0.646-0.252,1.324-0.01,1.881
		c0.176,0.399,0.481,0.703,0.86,0.849c0.374,0.143,0.806,0.121,1.209-0.057c0.551-0.238,1.01-0.75,1.26-1.387
		c0.446-1.155,0.059-2.373-0.853-2.729C21.382,63.275,20.952,63.294,20.549,63.477 M20.388,66.952
		c-0.262-0.098-0.404-0.322-0.476-0.49c-0.169-0.374-0.164-0.875,0.02-1.348c0.181-0.466,0.512-0.847,0.896-1.016
		c0.166-0.073,0.42-0.135,0.68-0.038c0.386,0.155,0.604,0.584,0.604,1.101c0,0.238-0.046,0.491-0.143,0.737
		c-0.178,0.471-0.515,0.849-0.893,1.021C20.91,66.99,20.657,67.058,20.388,66.952z"/>
	<path fill="#98DAF8" d="M21.325,66.77c-0.296-0.095-1.022-0.308-1.897-0.336c-0.62-0.02-1.225-0.378-1.189-0.56
		c0.035-0.133,0.196-0.2,0.456-0.237c0.599-0.084,1.897-0.014,3.298,0.213C21.876,66.187,21.686,66.5,21.325,66.77"/>
	<path fill="#EE402D" d="M23.532,25.074c-0.022,2.609-2.02,3.432-2.595,3.582C21.128,28.077,21.942,25.371,23.532,25.074"/>
	<path fill="#FFCE37" d="M40.199,42.902c0,0.952-0.775,1.727-1.741,1.727h-2.955c-0.964,0-1.741-0.775-1.741-1.727
		c0-0.943,0.776-1.711,1.741-1.711h2.955C39.424,41.191,40.199,41.959,40.199,42.902"/>
	<path fill="#E19F35" d="M38.413,44.04c-1.738,0.02-3.23,0-3.23,0s2.444-0.147,3.997-1.803
		C39.585,42.513,39.663,44.034,38.413,44.04"/>
	<path fill="#FFFFFF" d="M26.822,67.805c1.885,1.26,2.521,3.117,2.521,3.117s0.627-1.552-0.23-2.758
		c1.715-0.498,4.694,0.283,7.382,1.333c3.944,1.546,6.895,2.058,9.9,1.546c3.001-0.512,4.583-1.136,5.55-2.633
		c0.513-0.803,2.031-0.632,1.604,0.57c-0.429,1.203-2.291,4.634-5.81,5.583c-3.52,0.941-9.327,2.52-17.914,0.369
		c-2.297-0.574-7.694-2.008-9.899-4.842c-0.442-0.567-0.558-1.625-0.579-1.792c-0.025-0.205,0.11-0.31,0.592-0.228
		c1.514,0.266,1.801-0.312,2.363-0.949C22.921,67.041,25.104,66.664,26.822,67.805"/>
	<path fill="#0099D6" d="M52.917,68.736c-2.624,4.99-7.699,5.765-13.011,5.926c-2.153,0.06-4.306-0.208-6.158-0.681
		c1.56,0.157,3.176,0.033,4.162-0.312c-0.385-2-3.8-3.454-6.182-3.583c-0.453-0.516-0.582-1.183-1.678-1.57
		c0.773,0.707,0.71,1.699,1.096,2.212c1.949,0.395,4.327,0.894,5.474,2.425c-0.405,0.519-3.93,0.23-5.854-0.207
		c-0.83-0.306-1.693-0.806-2.152-1.702c-0.918,1.026-2.376,0.658-3.876-0.089c-0.021-0.583-0.379-1.095-1.153-1.246
		c0.167,0.257,0.211,0.521,0.213,0.736c-1.695-0.976-3.309-2.169-4.12-2.107c-1.15,0.085,2.51,6.509,5.601,7.193
		c9.18,5.292,24.522,2.968,28.157-5.966C53.948,68.478,53.497,67.641,52.917,68.736"/>
	<path fill="#FFFFFF" d="M23.922,70.561c0.051,0.559-0.389,1.062-0.984,1.12c-0.594,0.068-1.122-0.344-1.178-0.908
		c-0.054-0.564,0.382-1.067,0.978-1.125S23.861,69.996,23.922,70.561"/>
	<path fill="#003660" d="M23.402,70.666c0,0.278-0.254,0.498-0.568,0.498c-0.307,0-0.561-0.22-0.561-0.498
		c0-0.273,0.254-0.502,0.561-0.502C23.148,70.164,23.402,70.393,23.402,70.666"/>
	<path fill="#FFFFFF" d="M49.714,61.516c-0.631,2.172,2.06,5.103,2.06,5.103S50.556,62.817,49.714,61.516"/>
	<path fill="#FFFFFF" d="M51.602,61.982c-0.925,1.272,0.815,4.168,0.815,4.168S52.32,63.835,51.602,61.982"/>
	<path fill="#FFFFFF" d="M54.516,65.289c0.732-1.589,2.194-3.174,3.741-3.735C55.034,61.942,54.305,64.085,54.516,65.289"/>
	<path fill="#FFFFFF" d="M36.957,17.113c-1.36-2.635-3.304-0.605-6.709-1.66c-0.602,2.787-1.203,7.772-1.374,8.629
		c2.326,0.699,4.374-1.477,7.152,0.336c-0.298-3.595,0.86-6.589,0.86-6.589S36.923,17.39,36.957,17.113"/>
	<path fill="#98DAF8" d="M36.966,17.103c-0.27-0.466-0.529-0.863-0.979-1.119c-0.4,4.279-0.501,5.207-1.859,7.72
		c0.845,0.108,1.468,0.419,1.903,0.726C35.727,20.828,36.962,18,36.962,18S36.957,17.254,36.966,17.103"/>
	<path fill="#FFFFFF" d="M43.675,15.441c-3.404,1.053-5.353-0.974-6.709,1.662c-0.003,0.898-0.006,7.541,0.005,8.036
		c3.266-3.05,5.505-0.296,8.078-1.068C44.877,23.212,44.276,18.23,43.675,15.441"/>
	<rect x="36.018" y="30.036" fill="#FFCE37" width="1.893" height="2.202"/>
	<polyline fill="#FFCE37" points="36.975,27.926 37.918,29.572 36.008,29.583 36.975,27.926 	"/>
	<path fill="#009149" d="M21.042,34.427v-0.012C21.028,34.409,21.029,34.416,21.042,34.427"/>
	<path fill="#80C242" d="M28.663,45.211c0,0,2.598-1.283,2.855-2.602c-0.804-0.771-2.834-0.857-2.834-0.857s2.332-1.776,2.234-3.063
		c-1.165-0.542-3.238-0.227-3.238-0.227c0.962-1.332,1.236-2.39,1.199-3.321c-1.212-0.201-3.083,0.517-3.083,0.517
		s0.627-2.235,0.01-3.394c-1.121-0.3-2.702,1.676-2.702,1.676s-0.562-2.444-1.875-3.745c-1.316,1.3-1.893,3.745-1.893,3.745
		s-1.579-1.977-2.706-1.676c-0.608,1.159,0.016,3.394,0.016,3.394s-1.871-0.717-3.09-0.517c-0.032,0.931,0.244,1.989,1.205,3.321
		c0,0-2.077-0.315-3.237,0.227c-0.098,1.288,2.232,3.063,2.232,3.063s-2.033,0.085-2.833,0.857c0.257,1.319,2.856,2.602,2.856,2.602
		s-1.547,0.318-2.491,1.388c0.601,0.799,1.956,1.563,3.014,1.738c-0.916,0.738-1.428,1.314-1.659,1.745
		c1.487,1.202,4.605,1.373,7.724,0.401c0,0.596,0.009,5.409-0.722,7.615h3.144c-0.727-2.206-0.719-7.019-0.719-7.615
		c3.118,0.971,6.241,0.8,7.724-0.401c-0.234-0.43-0.742-1.006-1.654-1.745c1.057-0.175,2.408-0.939,3.01-1.738
		C30.205,45.529,28.663,45.211,28.663,45.211"/>
	<path fill="#00974C" d="M25.822,45.298c0.293-0.163,1.802-0.623,2.573-1.969c-0.771-0.748-2.573-0.775-2.573-0.775
		s1.603-1.056,2.145-2.637c-1.375-0.4-2.803,0-2.803,0s1.172-1.661,1.316-3.062c-1.316,0.144-2.717,0.837-2.717,0.837
		c0.397-0.866,0.598-2.089,0.427-3.154c-0.658,0.129-1.257,0.88-1.617,1.348c-0.334-1.066-0.901-1.402-1.289-1.617
		c-0.642,0.943-0.77,1.554-0.69,2.845c0.217-0.215,0.559-0.555,1.12-0.877c0.341,1.842-0.315,3.184-0.315,3.184
		s0.812-0.531,1.885-0.656c0.045,1.014-0.328,2.069-1.4,3.314c0,0,0.943-0.57,2.034-0.657c-0.174,1.432-1.049,2.39-1.95,3.207
		c0.601-0.283,1.633-0.256,2.348-0.027c-0.37,1.087-1.219,1.634-2.458,2.315c0.767,0,1.556,0.101,1.999,0.4
		c-0.498,0.932-1.714,1.375-2.557,1.616c1.947,0.743,3.833,1.052,5.681,0.604c-0.129-0.551-0.829-1.219-1.646-1.688
		c0.746-0.171,1.859-0.404,2.833-1.235C27.539,45.986,26.765,45.559,25.822,45.298"/>
	<path fill="#98DAF8" d="M15.386,87.495c0.441,1.473-0.736,4.324,0.101,5.969c-0.714-0.022-5.258,0.809-5.928,0.22
		c-0.663-0.588-2.43-1.84-0.663-2.803C10.667,89.926,15.14,88.203,15.386,87.495"/>
	<path fill="#98DAF8" d="M58.748,87.347c0.52,4.718-0.272,5.248-0.224,6.603c0.444,0.115,4.056,0.864,5.333,0.182
		c1.276-0.689,2.161-2.36,1.57-3.046c-0.589-0.691-3.533-2.559-4.712-2.754C59.536,88.13,59.069,87.695,58.748,87.347"/>
	<path fill="#003660" d="M64.388,89.622c-1.962-1.054-4.876-1.689-6.523-3.94c-0.619,2.266,0.88,3.57,0.82,6.902
		c1.388-2.59,0.246-3.226,0.48-4.454c1.117,1.426,2.793,1.63,3.961,2.239c1.493,0.78,2.408,2.505-0.681,2.494
		c-6.033-0.014-44.75,0.007-50.916,0.007c-3.188,0-2.255-1.712-0.762-2.49c1.171-0.609,2.867-0.813,3.98-2.279
		c0.233,1.227-0.923,1.858,0.471,4.447c-0.062-3.336,1.423-4.58,0.833-6.866c-1.645,2.251-4.606,2.887-6.572,3.94
		c-1.67,0.889-1.674,1.483-1.674,4.343c0,1.918,0.009,4.338-0.008,5.959c-0.011,1.142,1.315,1.815,2.897,1.771
		c7.253,0,45.225,0,52.479,0c1.579,0.044,2.926-0.614,2.926-1.754c0.009-1.625-0.017-4.077,0-5.992
		C66.123,91.01,66.056,90.511,64.388,89.622"/>
	<path fill="#FFFFFF" d="M10.72,95.342h1.124l0.781,2.177c0.017,0.042,0.06,0.22,0.126,0.519c0.075-0.299,0.121-0.477,0.14-0.519
		l0.765-2.177h1.129l-1.627,3.886h-0.805L10.72,95.342"/>
	<rect x="15.398" y="95.342" fill="#FFFFFF" width="1.075" height="3.886"/>
	<path fill="#FFFFFF" d="M18.48,95.342h1.327l1.341,3.886h-1.056L19.9,98.529h-1.505l-0.204,0.698h-1.051L18.48,95.342
		 M19.675,97.782l-0.395-1.283c-0.019-0.064-0.065-0.237-0.134-0.525c-0.07,0.288-0.118,0.461-0.135,0.525l-0.391,1.283H19.675z"/>
	<path fill="#FFFFFF" d="M23.244,95.342h1.126l0.776,2.177c0.019,0.042,0.058,0.22,0.131,0.519c0.069-0.299,0.119-0.477,0.135-0.519
		l0.772-2.177h1.124l-1.629,3.886h-0.803L23.244,95.342"/>
	<polyline fill="#FFFFFF" points="27.895,95.342 30.276,95.342 30.276,96.195 28.926,96.195 28.926,96.873 30.198,96.873 
		30.198,97.7 28.926,97.7 28.926,98.36 30.276,98.36 30.276,99.228 27.895,99.228 27.895,95.342 	"/>
	<path fill="#FFFFFF" d="M31.245,95.342h1.109c0.023,0,0.042,0,0.064,0c0.537,0,0.952,0.006,1.286,0.262
		c0.278,0.219,0.43,0.547,0.43,0.955c0,0.601-0.302,0.982-0.866,1.106l1.059,1.562h-1.196l-0.891-1.521v1.521h-0.995V95.342
		 M32.438,97.182c0.442,0,0.656-0.14,0.656-0.483c0-0.408-0.201-0.536-0.64-0.536H32.24v1.02H32.438z"/>
	<rect x="35.027" y="95.342" fill="#FFFFFF" width="1.071" height="3.886"/>
	<polyline fill="#FFFFFF" points="37.783,96.262 36.918,96.262 36.918,95.342 39.712,95.342 39.712,96.262 38.841,96.262 
		38.841,99.228 37.783,99.228 37.783,96.262 	"/>
	<path fill="#FFFFFF" d="M41.384,95.342h1.321l1.343,3.886h-1.05l-0.199-0.698h-1.502l-0.201,0.698H40.04L41.384,95.342
		 M42.579,97.782l-0.397-1.283c-0.017-0.064-0.059-0.237-0.13-0.525c-0.069,0.288-0.119,0.461-0.139,0.525l-0.388,1.283H42.579z"/>
	<path fill="#FFFFFF" d="M45.791,98.503c0.291,0,0.484-0.169,0.484-0.399c0-0.311-0.213-0.403-0.656-0.519
		c-0.697-0.182-1.039-0.464-1.039-1.071c0-0.723,0.525-1.259,1.342-1.259c0.434,0,0.812,0.108,1.146,0.344l-0.33,0.758
		c-0.243-0.206-0.502-0.308-0.743-0.308c-0.261,0-0.431,0.144-0.431,0.326c0,0.279,0.27,0.339,0.621,0.432
		c0.688,0.185,1.072,0.437,1.072,1.157c0,0.803-0.579,1.37-1.49,1.37c-0.547,0-0.964-0.178-1.379-0.572l0.478-0.787
		C45.177,98.327,45.482,98.503,45.791,98.503"/>
	<path fill="#FFFFFF" d="M49.574,95.342H50.7l0.778,2.177c0.015,0.042,0.06,0.22,0.126,0.519c0.074-0.299,0.12-0.477,0.137-0.519
		l0.771-2.177h1.127l-1.63,3.886h-0.804L49.574,95.342"/>
	<rect x="54.252" y="95.342" fill="#FFFFFF" width="1.071" height="3.886"/>
	<polyline fill="#FFFFFF" points="57.008,96.262 56.145,96.262 56.145,95.342 58.937,95.342 58.937,96.262 58.065,96.262 
		58.065,99.228 57.008,99.228 57.008,96.262 	"/>
	<path fill="#FFFFFF" d="M60.608,95.342h1.326l1.342,3.886H62.22l-0.194-0.698h-1.503l-0.205,0.698h-1.052L60.608,95.342
		 M61.803,97.782l-0.398-1.283c-0.016-0.064-0.056-0.237-0.125-0.525c-0.076,0.288-0.121,0.461-0.138,0.525l-0.389,1.283H61.803z"/>
	<path fill="#E19F35" d="M39.071,83.186c0.257,0.307,0.433,1.745-0.815,1.847c-2.148,0.169-3.181-0.044-3.181-0.044
		S37.956,84.649,39.071,83.186"/>
	<path fill="#E19F35" d="M48.756,39.074c0.131-1.762,0.963-2.173,2.105-2.147c0.641,0.016,1.609,0.023,3.957,0.004
		c-1.321,0.118-2.969,0.812-3.184,2.532c-0.201,1.596-0.213,7.128-0.252,9.486c-1.159,0.044-2.71,0.002-3.053,0.091
		C48.498,46.591,48.627,40.835,48.756,39.074"/>
	<rect x="36.983" y="30.036" fill="#E19F35" width="0.575" height="2.202"/>
	<polyline fill="#E19F35" points="37.558,29.583 36.975,27.926 36.975,29.572 37.558,29.583 	"/>
</g>
</svg>
