<?xml version="1.0" encoding="utf-8"?>

<!DOCTYPE svg PUBLIC "-//W3C//DTD SVG 1.1//EN" "http://www.w3.org/Graphics/SVG/1.1/DTD/svg11.dtd">
<svg version="1.1" xmlns="http://www.w3.org/2000/svg" xmlns:xlink="http://www.w3.org/1999/xlink" x="0px" y="0px" width="66px"
	 height="66px" viewBox="0 0 66 66" enable-background="new 0 0 66 66" xml:space="preserve">
     
     <defs>
         <style>
             .header-links-ribbon-logos {
                 display: none;
             }
             
             .header-links-ribbon-logos:target {
                 display: inline;
             }
         </style>
     </defs>
     
     
     
<g class="header-links-ribbon-logos" id="github">
	<path fill-rule="evenodd" clip-rule="evenodd" fill="#FFFFFF" d="M32.999,1.344c-17.92,0-32.456,14.531-32.456,32.459
		c0,14.341,9.301,26.505,22.197,30.798c1.623,0.296,2.216-0.704,2.216-1.564c0-0.771-0.029-2.813-0.044-5.522
		c-9.029,1.962-10.932-4.351-10.932-4.351c-1.477-3.747-3.604-4.748-3.604-4.748c-2.948-2.012,0.222-1.973,0.222-1.973
		c3.257,0.229,4.972,3.347,4.972,3.347c2.895,4.958,7.596,3.526,9.447,2.697c0.293-2.098,1.132-3.53,2.059-4.339
		c-7.208-0.821-14.784-3.604-14.784-16.043c0-3.543,1.265-6.44,3.343-8.709c-0.334-0.821-1.448-4.121,0.317-8.59
		c0,0,2.726-0.872,8.925,3.327c2.588-0.72,5.364-1.078,8.125-1.091c2.757,0.014,5.532,0.372,8.125,1.091
		c6.197-4.199,8.917-3.327,8.917-3.327c1.771,4.469,0.656,7.77,0.323,8.59c2.078,2.269,3.335,5.166,3.335,8.709
		c0,12.47-7.588,15.214-14.819,16.016c1.165,1.004,2.202,2.984,2.202,6.012c0,4.34-0.039,7.838-0.039,8.904
		c0,0.868,0.583,1.876,2.232,1.561c12.887-4.3,22.176-16.457,22.176-30.794C65.457,15.875,50.925,1.344,32.999,1.344z"/>
</g>

<g class="header-links-ribbon-logos" id="linkedin">
	<path fill="#FFFFFF" d="M60.58,0.667H5.442c-2.638,0-4.776,2.138-4.776,4.776v55.132c0,2.64,2.138,4.777,4.776,4.777H60.58
		c2.637,0,4.772-2.138,4.772-4.777V5.443C65.352,2.805,63.217,0.667,60.58,0.667 M10.222,24.881h9.724v30.895h-9.724V24.881z
		 M15.084,20.601c-3.098,0-5.606-2.357-5.606-5.584c0-3.223,2.509-5.584,5.606-5.584s5.606,2.361,5.606,5.584
		C20.69,18.244,18.182,20.601,15.084,20.601z M55.801,55.798h-9.727V38.926c0-4.978-2.116-6.516-4.846-6.516
		c-2.887,0-5.716,2.17-5.716,6.638v16.75h-9.727V24.903h9.353v4.279h0.126c0.939-1.901,4.227-5.146,9.245-5.146
		c5.424,0,11.291,3.216,11.291,12.653V55.798z"/>
</g>

<g class="header-links-ribbon-logos" id="twitter">
	<path fill="#FFFFFF" d="M20.983,59.324c24.44,0,37.81-20.25,37.81-37.811c0-0.574,0-1.147-0.039-1.717
		c2.6-1.881,4.846-4.21,6.63-6.878c-2.426,1.075-4.998,1.779-7.634,2.09c2.776-1.66,4.853-4.271,5.843-7.35
		c-2.608,1.548-5.462,2.639-8.438,3.227c-5.032-5.353-13.449-5.61-18.802-0.578c-3.451,3.246-4.915,8.082-3.844,12.697
		C21.826,22.467,11.871,17.421,5.123,9.12c-3.526,6.071-1.726,13.839,4.115,17.739c-2.115-0.062-4.184-0.633-6.032-1.663
		c0,0.054,0,0.111,0,0.167c0.002,6.327,4.461,11.774,10.662,13.027c-1.957,0.533-4.009,0.611-6,0.228
		c1.741,5.413,6.73,9.12,12.416,9.228c-4.706,3.699-10.519,5.705-16.503,5.699c-1.058-0.002-2.114-0.064-3.164-0.191
		c6.077,3.9,13.148,5.969,20.368,5.959"/>
</g>

<g class="header-links-ribbon-logos" id="instagram">
	<rect x="-704" y="-285.312" fill="none" width="594.812" height="594.742"/>
	<g>
		<path fill="#FFFFFF" d="M33.052,6.502c8.647,0,9.672,0.033,13.088,0.189c3.157,0.144,4.87,0.671,6.013,1.115
			c1.511,0.588,2.59,1.289,3.723,2.423c1.134,1.133,1.834,2.211,2.423,3.723c0.444,1.142,0.971,2.856,1.116,6.014
			c0.155,3.415,0.188,4.439,0.188,13.087c0,8.647-0.033,9.671-0.188,13.087c-0.145,3.156-0.672,4.871-1.116,6.013
			c-0.588,1.512-1.289,2.591-2.423,3.724c-1.133,1.133-2.212,1.836-3.723,2.423c-1.143,0.442-2.856,0.971-6.013,1.115
			c-3.415,0.155-4.44,0.188-13.088,0.188c-8.647,0-9.671-0.033-13.087-0.188c-3.157-0.145-4.87-0.673-6.013-1.115
			c-1.512-0.587-2.59-1.29-3.723-2.423c-1.134-1.133-1.835-2.212-2.423-3.724c-0.443-1.142-0.971-2.856-1.115-6.013
			c-0.156-3.416-0.189-4.44-0.189-13.087c0-8.647,0.033-9.672,0.189-13.087c0.144-3.157,0.671-4.872,1.115-6.014
			c0.588-1.512,1.289-2.59,2.423-3.723c1.133-1.134,2.211-1.835,3.723-2.423c1.143-0.443,2.856-0.971,6.013-1.115
			C23.38,6.535,24.405,6.502,33.052,6.502 M33.052,0.667c-8.794,0-9.899,0.038-13.353,0.194c-3.447,0.158-5.801,0.706-7.861,1.506
			C9.709,3.195,7.902,4.303,6.102,6.102c-1.8,1.801-2.907,3.607-3.735,5.737c-0.8,2.06-1.348,4.415-1.506,7.861
			c-0.157,3.454-0.194,4.557-0.194,13.353c0,8.795,0.038,9.898,0.194,13.353c0.158,3.446,0.706,5.801,1.506,7.861
			c0.828,2.129,1.935,3.935,3.735,5.736c1.801,1.8,3.607,2.907,5.737,3.734c2.06,0.8,4.414,1.35,7.861,1.506
			c3.454,0.157,4.558,0.194,13.353,0.194c8.795,0,9.899-0.037,13.353-0.194c3.447-0.156,5.801-0.706,7.861-1.506
			c2.129-0.827,3.937-1.935,5.737-3.734c1.799-1.802,2.907-3.607,3.736-5.736c0.8-2.061,1.346-4.415,1.505-7.861
			c0.157-3.454,0.194-4.558,0.194-13.353c0-8.796-0.038-9.899-0.194-13.353c-0.159-3.446-0.705-5.801-1.505-7.861
			c-0.829-2.129-1.937-3.936-3.736-5.737c-1.8-1.799-3.607-2.907-5.737-3.735c-2.06-0.8-4.414-1.348-7.861-1.506
			C42.951,0.705,41.847,0.667,33.052,0.667z"/>
		<path fill="#FFFFFF" d="M33.052,16.422c-9.184,0-16.63,7.446-16.63,16.631c0,9.184,7.447,16.63,16.63,16.63
			c9.184,0,16.631-7.446,16.631-16.63C49.683,23.868,42.236,16.422,33.052,16.422 M33.052,43.848
			c-5.962,0-10.795-4.833-10.795-10.795c0-5.962,4.833-10.795,10.795-10.795c5.961,0,10.795,4.833,10.795,10.795
			C43.847,39.014,39.013,43.848,33.052,43.848z"/>
		<path fill="#FFFFFF" d="M54.227,15.765c0,2.146-1.742,3.886-3.888,3.886c-2.145,0-3.885-1.739-3.885-3.886s1.74-3.886,3.885-3.886
			C52.485,11.879,54.227,13.619,54.227,15.765"/>
	</g>
	<rect x="-704" y="-285.5" fill="none" width="595" height="595"/>
</g>

</svg>
