<?xml version="1.0" encoding="utf-8"?>

<!DOCTYPE svg PUBLIC "-//W3C//DTD SVG 1.1//EN" "http://www.w3.org/Graphics/SVG/1.1/DTD/svg11.dtd">
<svg version="1.1" xmlns="http://www.w3.org/2000/svg" xmlns:xlink="http://www.w3.org/1999/xlink" x="0px" y="0px"
	 width="149.333px" height="149.333px" viewBox="0 0 149.333 149.333" enable-background="new 0 0 149.333 149.333"
	 xml:space="preserve">
     
     <defs>
         <style>
             .icon {
                 display: none;
             }
             
             .icon:target {
                 display: inline;
             }
         </style>
     </defs>
     
     
<g class="icon" id="skype">
	<path fill="#FFFFFF" d="M74.94,118.012c-23.94,0-34.875-12.188-34.875-21.14c0-4.593,3.595-7.752,8.192-7.752
		c10.242,0,7.576,15.366,26.683,15.366c9.779,0,15.507-5.885,15.507-11.405c0-3.321-1.904-7.016-8.343-8.63l-21.286-5.396
		c-17.142-4.357-20.146-13.895-20.146-22.736c0-18.36,16.781-24.999,32.779-24.999c14.727,0,32.237,8.128,32.237,19.146
		c0,4.72-3.958,7.289-8.561,7.289c-8.744,0-7.287-12.297-24.892-12.297c-8.741,0-13.351,4.093-13.351,9.844
		c0,5.735,6.761,7.683,12.753,9.068l15.752,3.553c17.26,3.898,21.876,14.018,21.876,23.653
		C109.266,106.496,97.711,118.012,74.94,118.012 M141.031,86.436c0.667-3.822,1.015-7.752,1.015-11.771
		c0-37.423-30.169-67.765-67.381-67.765c-3.995,0-7.903,0.347-11.704,1.019C57.11,4.544,50.326,2.626,43.097,2.626
		c-22.127,0-40.061,18.043-40.061,40.295c0,7.266,1.909,14.089,5.265,19.977c-0.671,3.82-1.014,7.75-1.014,11.767
		c0,37.425,30.168,67.772,67.378,67.772c3.996,0,7.905-0.352,11.706-1.024c5.853,3.375,12.635,5.295,19.859,5.295
		c22.126,0,40.068-18.041,40.068-40.297C146.298,99.145,144.38,92.323,141.031,86.436"/>
</g>

<g class="icon" id="twitter">
	<path fill="#FFFFFF" d="M47.649,133.824c54.944,0,85-45.523,85-85.002c0-1.291,0-2.579-0.087-3.861
		c5.844-4.228,10.894-9.464,14.904-15.462c-5.453,2.417-11.234,3.999-17.161,4.698c6.239-3.731,10.911-9.602,13.135-16.522
		c-5.864,3.479-12.279,5.932-18.97,7.254C113.16,12.894,94.237,12.317,82.205,23.63c-7.758,7.297-11.052,18.169-8.643,28.543
		c-24.016-1.208-46.395-12.551-61.565-31.212c-7.925,13.648-3.881,31.111,9.251,39.878c-4.755-0.14-9.405-1.423-13.561-3.739
		c0,0.122,0,0.25,0,0.375C7.691,71.7,17.715,83.944,31.656,86.763c-4.399,1.197-9.012,1.373-13.488,0.512
		c3.915,12.169,15.128,20.503,27.912,20.744c-10.58,8.316-23.646,12.826-37.1,12.812c-2.379-0.004-4.753-0.145-7.113-0.431
		c13.66,8.769,29.559,13.418,45.787,13.396"/>
</g>

<g class="icon" id="email">
	<path fill="#FFFFFF" d="M74.813,2.626C34.573,2.626,2,35.191,2,75.438c0,40.239,32.565,72.811,72.812,72.811
		c14.137,0,27.992-4.151,39.754-11.81c3.525-2.294,4.294-7.13,1.63-10.384l-2.987-3.65c-2.252-2.751-6.218-3.425-9.211-1.506
		c-8.659,5.553-18.819,8.561-29.186,8.561c-29.789,0-54.022-24.234-54.022-54.021c0-29.789,24.233-54.022,54.022-54.022
		c29.4,0,54.021,16.916,54.021,46.975c0,11.388-6.192,23.412-17.078,24.572c-5.094-0.133-4.965-3.775-3.957-8.814l6.88-35.559
		c0.841-4.347-2.489-8.384-6.918-8.384H94.555c-2.019,0-3.715,1.516-3.944,3.521l-0.002,0.027
		c-4.314-5.256-11.875-6.393-17.607-6.393c-21.896,0-40.466,18.271-40.466,44.467c0,19.173,10.799,31.083,28.185,31.083
		c7.923,0,16.844-4.591,22.018-11.254c2.795,10.013,11.924,10.013,20.76,10.013c31.975,0,44.127-21.025,44.127-43.279
		C147.624,28.361,115.336,2.626,74.813,2.626z M68.447,92.005c-6.532,0-10.591-4.586-10.591-11.971
		c0-13.209,9.038-21.352,17.214-21.352c6.545,0,10.453,4.475,10.453,11.97C85.523,83.882,75.578,92.005,68.447,92.005L68.447,92.005
		z"/>
</g>

<g class="icon" id="phone">
	<path fill="#FFFFFF" d="M141.907,9.611L112.39,2.799c-3.208-0.738-6.5,0.937-7.805,3.945L90.961,38.533
		c-1.192,2.781-0.397,6.046,1.958,7.947l17.2,14.078c-10.218,21.769-28.07,39.876-50.293,50.292l-14.077-17.2
		c-1.93-2.354-5.166-3.15-7.947-1.958L6.013,105.316c-3.037,1.333-4.711,4.626-3.974,7.833l6.812,29.517
		c0.709,3.065,3.434,5.28,6.641,5.28c72.687,0,131.693-58.894,131.693-131.694C147.186,13.074,145.001,10.321,141.907,9.611z"/>
</g>

</svg>
