<?xml version="1.0" encoding="utf-8"?>

<!DOCTYPE svg PUBLIC "-//W3C//DTD SVG 1.1//EN" "http://www.w3.org/Graphics/SVG/1.1/DTD/svg11.dtd">
<svg version="1.1" xmlns="http://www.w3.org/2000/svg" xmlns:xlink="http://www.w3.org/1999/xlink" x="0px" y="0px"
	 width="149.333px" height="149.333px" viewBox="0 0 149.333 149.333" enable-background="new 0 0 149.333 149.333"
	 xml:space="preserve">
     
     <defs>
         <style>
             .icon {
                 display: none;
             }
             
             .icon:target {
                 display: inline;
             }
         </style>
     </defs>
     
     
<g class="icon" id="skype">
	<path fill="#FFFFFF" d="M74.94,118.012c-23.94,0-34.875-12.188-34.875-21.14c0-4.593,3.595-7.752,8.192-7.752
		c10.242,0,7.576,15.366,26.683,15.366c9.779,0,15.507-5.885,15.507-11.405c0-3.321-1.904-7.016-8.343-8.63l-21.286-5.396
		c-17.142-4.357-20.146-13.895-20.146-22.736c0-18.36,16.781-24.999,32.779-24.999c14.727,0,32.237,8.128,32.237,19.146
		c0,4.72-3.958,7.289-8.561,7.289c-8.744,0-7.287-12.297-24.892-12.297c-8.741,0-13.351,4.093-13.351,9.844
		c0,5.735,6.761,7.683,12.753,9.068l15.752,3.553c17.26,3.898,21.876,14.018,21.876,23.653
		C109.266,106.496,97.711,118.012,74.94,118.012 M141.031,86.436c0.667-3.822,1.015-7.752,1.015-11.771
		c0-37.423-30.169-67.765-67.381-67.765c-3.995,0-7.903,0.347-11.704,1.019C57.11,4.544,50.326,2.626,43.097,2.626
		c-22.127,0-40.061,18.043-40.061,40.295c0,7.266,1.909,14.089,5.265,19.977c-0.671,3.82-1.014,7.75-1.014,11.767
		c0,37.425,30.168,67.772,67.378,67.772c3.996,0,7.905-0.352,11.706-1.024c5.853,3.375,12.635,5.295,19.859,5.295
		c22.126,0,40.068-18.041,40.068-40.297C146.298,99.145,144.38,92.323,141.031,86.436"/>
</g>

<g class="icon" id="twitter">
	<path fill="#FFFFFF" d="M47.649,133.824c54.944,0,85-45.523,85-85.002c0-1.291,0-2.579-0.087-3.861
		c5.844-4.228,10.894-9.464,14.904-15.462c-5.453,2.417-11.234,3.999-17.161,4.698c6.239-3.731,10.911-9.602,13.135-16.522
		c-5.864,3.479-12.279,5.932-18.97,7.254C113.16,12.894,94.237,12.317,82.205,23.63c-7.758,7.297-11.052,18.169-8.643,28.543
		c-24.016-1.208-46.395-12.551-61.565-31.212c-7.925,13.648-3.881,31.111,9.251,39.878c-4.755-0.14-9.405-1.423-13.561-3.739
		c0,0.122,0,0.25,0,0.375C7.691,71.7,17.715,83.944,31.656,86.763c-4.399,1.197-9.012,1.373-13.488,0.512
		c3.915,12.169,15.128,20.503,27.912,20.744c-10.58,8.316-23.646,12.826-37.1,12.812c-2.379-0.004-4.753-0.145-7.113-0.431
		c13.66,8.769,29.559,13.418,45.787,13.396"/>
</g>

<g class="icon" id="email">
	<path fill="#FFFFFF" d="M74.813,2.626C34.573,2.626,2,35.191,2,75.438c0,40.239,32.565,72.811,72.812,72.811
		c14.137,0,27.992-4.151,39.754-11.81c3.525-2.294,4.294-7.13,1.63-10.384l-2.987-3.65c-2.252-2.751-6.218-3.425-9.211-1.506
		c-8.659,5.553-18.819,8.561-29.186,8.561c-29.789,0-54.022-24.234-54.022-54.021c0-29.789,24.233-54.022,54.022-54.022
		c29.4,0,54.021,16.916,54.021,46.975c0,11.388-6.192,23.412-17.078,24.572c-5.094-0.133-4.965-3.775-3.957-8.814l6.88-35.559
		c0.841-4.347-2.489-8.384-6.918-8.384H94.555c-2.019,0-3.715,1.516-3.944,3.521l-0.002,0.027
		c-4.314-5.256-11.875-6.393-17.607-6.393c-21.896,0-40.466,18.271-40.466,44.467c0,19.173,10.799,31.083,28.185,31.083
		c7.923,0,16.844-4.591,22.018-11.254c2.795,10.013,11.924,10.013,20.76,10.013c31.975,0,44.127-21.025,44.127-43.279
		C147.624,28.361,115.336,2.626,74.813,2.626z M68.447,92.005c-6.532,0-10.591-4.586-10.591-11.971
		c0-13.209,9.038-21.352,17.214-21.352c6.545,0,10.453,4.475,10.453,11.97C85.523,83.882,75.578,92.005,68.447,92.005L68.447,92.005
		z"/>
</g>

<g class="icon" id="phone">
	<path fill="#FFFFFF" d="M141.907,9.611L112.39,2.799c-3.208-0.738-6.5,0.937-7.805,3.945L90.961,38.533
		c-1.192,2.781-0.397,6.046,1.958,7.947l17.2,14.078c-10.218,21.769-28.07,39.876-50.293,50.292l-14.077-17.2
		c-1.93-2.354-5.166-3.15-7.947-1.958L6.013,105.316c-3.037,1.333-4.711,4.626-3.974,7.833l6.812,29.517
		c0.709,3.065,3.434,5.28,6.641,5.28c72.687,0,131.693-58.894,131.693-131.694C147.186,13.074,145.001,10.321,141.907,9.611z"/>
</g>

<g class="icon" id="book">
	<path fill="#FFFFFF" d="M138.325,104.7V9.431c0-3.771-3.034-6.805-6.805-6.805h-93c-15.028,0-27.22,12.192-27.22,27.22v90.732
		c0,15.028,12.192,27.22,27.22,27.22h93c3.771,0,6.805-3.034,6.805-6.805v-4.536c0-2.127-0.993-4.054-2.523-5.302
		c-1.191-4.367-1.191-16.814,0-21.18C137.333,108.755,138.325,106.827,138.325,104.7L138.325,104.7z M47.593,40.62
		c0-0.935,0.766-1.701,1.701-1.701h60.11c0.936,0,1.702,0.766,1.702,1.701v5.672c0,0.935-0.766,1.701-1.702,1.701h-60.11
		c-0.935,0-1.701-0.766-1.701-1.701V40.62z M47.593,58.766c0-0.935,0.766-1.701,1.701-1.701h60.11c0.936,0,1.702,0.766,1.702,1.701
		v5.671c0,0.936-0.766,1.702-1.702,1.702h-60.11c-0.935,0-1.701-0.766-1.701-1.702V58.766z M119.441,129.651H38.52
		c-5.019,0-9.073-4.054-9.073-9.073c0-4.99,4.083-9.073,9.073-9.073h80.922C118.903,116.354,118.903,124.803,119.441,129.651z"/>
</g>

<g class="icon" id="pen">
	<path fill="#FFFFFF" d="M40.797,42.044c-5.792,1.637-10.398,6.034-12.301,11.745L2,133.272l4.172,4.173l42.634-42.634
		c-0.85-1.777-1.364-3.743-1.364-5.844c0-7.53,6.104-13.634,13.633-13.634c7.529,0,13.633,6.104,13.633,13.634
		c0,7.528-6.104,13.632-13.633,13.632c-2.101,0-4.067-0.515-5.844-1.364l-42.633,42.634l4.172,4.172l79.483-26.495
		c5.71-1.903,10.108-6.509,11.745-12.301l12.152-43L83.796,29.892L40.797,42.044L40.797,42.044z M143.421,23.692L126.35,6.62
		c-5.325-5.325-13.962-5.325-19.287,0L91.001,22.68l36.36,36.36l16.06-16.061C148.747,37.654,148.747,29.02,143.421,23.692
		L143.421,23.692z"/>
</g>

<g class="icon" id="calendar">
	<path fill="#FFFFFF" d="M11.047,134.278c0,7.51,6.093,13.603,13.603,13.603h99.753c7.51,0,13.603-6.093,13.603-13.603V57.197
		H11.047V134.278z M101.731,78.734c0-1.87,1.531-3.401,3.401-3.401h11.335c1.871,0,3.401,1.531,3.401,3.401v11.335
		c0,1.871-1.531,3.401-3.401,3.401h-11.335c-1.87,0-3.401-1.531-3.401-3.401V78.734z M101.731,115.008c0-1.871,1.531-3.4,3.401-3.4
		h11.335c1.871,0,3.401,1.53,3.401,3.4v11.336c0,1.87-1.531,3.4-3.401,3.4h-11.335c-1.87,0-3.401-1.53-3.401-3.4V115.008z
		 M65.458,78.734c0-1.87,1.53-3.401,3.4-3.401h11.336c1.87,0,3.4,1.531,3.4,3.401v11.335c0,1.871-1.53,3.401-3.4,3.401H68.858
		c-1.871,0-3.4-1.531-3.4-3.401V78.734z M65.458,115.008c0-1.871,1.53-3.4,3.4-3.4h11.336c1.87,0,3.4,1.53,3.4,3.4v11.336
		c0,1.87-1.53,3.4-3.4,3.4H68.858c-1.871,0-3.4-1.53-3.4-3.4V115.008z M29.184,78.734c0-1.87,1.531-3.401,3.4-3.401H43.92
		c1.871,0,3.401,1.531,3.401,3.401v11.335c0,1.871-1.53,3.401-3.401,3.401H32.584c-1.87,0-3.4-1.531-3.4-3.401V78.734z
		 M29.184,115.008c0-1.871,1.531-3.4,3.4-3.4H43.92c1.871,0,3.401,1.53,3.401,3.4v11.336c0,1.87-1.53,3.4-3.401,3.4H32.584
		c-1.87,0-3.4-1.53-3.4-3.4V115.008z M124.403,20.923H110.8V7.32c0-2.494-2.041-4.534-4.535-4.534h-9.068
		c-2.494,0-4.534,2.041-4.534,4.534v13.603H56.389V7.32c0-2.494-2.04-4.534-4.534-4.534h-9.068c-2.494,0-4.534,2.041-4.534,4.534
		v13.603H24.65c-7.51,0-13.603,6.093-13.603,13.603v13.603h126.958V34.526C138.005,27.016,131.913,20.923,124.403,20.923z"/>
</g>

<g class="icon" id="fingerprint">
	<path fill="#FFFFFF" d="M74.718,72.59c-3.77,0-6.827,3.055-6.827,6.827c0.324,20.551-2.315,40.364-7.879,60.176
		c-0.777,2.766,0.612,8.673,6.577,8.673c2.981,0,5.72-1.968,6.568-4.984c3.848-13.628,8.829-35.673,8.385-63.865
		C81.544,75.648,78.489,72.59,74.718,72.59L74.718,72.59z M74.473,49.342c-17.425-0.02-29.586,13.389-29.344,28.755
		c0.213,13.637-1.067,27.283-3.804,40.549c-0.765,3.692,1.613,7.308,5.302,8.068c3.712,0.759,7.302-1.61,8.068-5.302
		c2.941-14.249,4.314-28.895,4.087-43.527c-0.117-7.382,5.666-14.931,15.488-14.888c8.906,0.133,16.256,7.208,16.39,15.779
		c0.22,13.668-0.799,27.401-3.018,40.833c-0.618,3.715,1.903,7.231,5.621,7.846c5.681,0.947,7.626-4.295,7.845-5.624
		c2.355-14.231,3.431-28.79,3.206-43.269C104.064,62.688,90.678,49.581,74.473,49.342L74.473,49.342z M42.987,43.715
		c-2.93-2.372-7.216-1.934-9.604,0.99c-7.287,8.96-11.205,20.275-11.022,31.859c0.167,10.689-0.703,21.41-2.592,31.873
		c-0.666,3.712,1.795,7.262,5.507,7.933c5.721,0.996,7.7-4.212,7.934-5.507c2.045-11.333,2.986-22.944,2.804-34.513
		c-0.133-8.5,2.617-16.464,7.965-23.032C46.354,50.395,45.911,46.096,42.987,43.715L42.987,43.715z M74.126,25.986
		c-4.383-0.117-8.782,0.41-13.022,1.414c-3.667,0.871-5.937,4.545-5.072,8.218c0.871,3.667,4.551,5.925,8.218,5.072
		c3.143-0.743,6.392-1.073,9.671-1.05c21.456,0.321,39.177,17.494,39.505,38.282c0.168,10.775-0.364,21.649-1.587,32.323
		c-0.427,3.746,2.261,7.133,6.004,7.56c4.756,0.555,7.256-3.379,7.561-6.005c1.292-11.315,1.853-22.704,1.676-34.091
		C126.636,49.618,102.881,26.413,74.126,25.986L74.126,25.986z M145.828,60.533c-0.814-3.675-4.413-6.031-8.138-5.197
		c-3.682,0.813-6.008,4.454-5.195,8.138c1.34,6.091,1.397,10.641,1.337,17.522c-0.031,3.774,3.001,6.853,6.77,6.883h0.057
		c3.746,0,6.795-3.018,6.827-6.77C147.537,74.8,147.6,68.563,145.828,60.533L145.828,60.533z M134.415,34.727
		C120.562,14.989,97.895,2.994,73.776,2.632c-19.852-0.239-38.213,7.08-51.87,20.742C8.716,36.581,1.607,54.124,1.903,72.786
		l-0.034,6.108c-0.111,3.769,2.853,6.915,6.622,7.023c0.066,0.006,0.137,0.006,0.205,0.006c3.675,0,6.71-2.93,6.818-6.628
		l0.045-6.725c-0.236-14.934,5.451-28.974,16.01-39.539c11.025-11.036,25.982-16.973,42.008-16.743
		c19.755,0.293,38.324,10.115,49.67,26.281c2.165,3.089,6.417,3.826,9.507,1.667C135.838,42.069,136.583,37.811,134.415,34.727
		L134.415,34.727z"/>
</g>

<g class="icon" id="pdf">
	<path fill="#FFFFFF" d="M71.946,75.467c-1.418-4.541-1.39-13.308-0.568-13.308C73.763,62.159,73.536,72.629,71.946,75.467z
		 M71.465,88.86c-2.186,5.731-4.91,12.286-8.059,17.791c5.192-1.986,11.065-4.88,17.847-6.214
		C77.65,97.712,74.188,93.797,71.465,88.86L71.465,88.86z M44.764,124.271c0,0.227,3.746-1.532,9.902-11.407
		C52.766,114.652,46.409,119.816,44.764,124.271z M90.703,48.198h38.59v93.07c0,3.773-3.037,6.81-6.81,6.81h-95.34
		c-3.773,0-6.81-3.037-6.81-6.81V9.608c0-3.773,3.037-6.81,6.81-6.81h56.75v38.59C83.893,45.133,86.957,48.198,90.703,48.198z
		 M88.433,96.946c-5.675-3.461-9.449-8.229-12.116-15.265c1.277-5.25,3.291-13.223,1.759-18.217
		c-1.334-8.342-12.03-7.519-13.562-1.929c-1.419,5.193-0.114,12.513,2.298,21.849c-3.292,7.832-8.144,18.33-11.577,24.345
		c-0.028,0-0.028,0.028-0.057,0.028c-7.69,3.944-20.885,12.627-15.465,19.295c1.589,1.958,4.54,2.838,6.101,2.838
		c5.079,0,10.129-5.108,17.337-17.536c7.32-2.412,15.351-5.419,22.417-6.583c6.157,3.348,13.365,5.532,18.16,5.532
		c8.286,0,8.854-9.08,5.59-12.314C105.373,95.13,93.909,96.237,88.433,96.946z M127.307,32.592L99.498,4.784
		c-1.276-1.276-3.007-1.986-4.823-1.986h-1.703v36.32h36.32v-1.731C129.292,35.599,128.583,33.869,127.307,32.592z M106.28,105.033
		c1.163-0.766-0.709-3.376-12.145-2.554C104.663,106.963,106.28,105.033,106.28,105.033z"/>
</g>

<g class="icon" id="cite">
	<path fill="#FFFFFF" d="M89.182,89.943H60.188c-4.003,0-7.249,3.246-7.249,7.249v28.993c0,4.002,3.246,7.249,7.249,7.249h28.993
		c4.002,0,7.249-3.247,7.249-7.249V97.192C96.43,93.189,93.184,89.943,89.182,89.943z M45.691,24.708
		c0-4.003-3.247-7.249-7.249-7.249H9.45c-4.002,0-7.249,3.246-7.249,7.249v28.993c0,4.002,3.247,7.249,7.249,7.249h21.681
		l16.572,29.002c2.515-4.316,7.14-7.257,12.486-7.257h0.063l-14.56-25.48V46.453H96.43V31.956H45.691V24.708z M139.92,17.459
		h-28.994c-4.002,0-7.248,3.246-7.248,7.249v28.993c0,4.002,3.246,7.249,7.248,7.249h28.994c4.002,0,7.249-3.247,7.249-7.249V24.708
		C147.169,20.705,143.922,17.459,139.92,17.459z"/>
</g>

<g class="icon" id="slides">
	<path fill="#FFFFFF" d="M143.203,10.81H5.852c-2.233,0-4.041,1.808-4.041,4.041v8.082c0,2.231,1.808,4.038,4.041,4.038h4.04v64.636
		c0,4.463,3.618,8.081,8.08,8.081h48.478v8.774l-19.018,19.012c-1.577,1.578-1.577,4.138,0,5.714l5.712,5.712
		c1.579,1.578,4.136,1.578,5.714,0l15.671-15.669l15.669,15.669c1.577,1.578,4.134,1.578,5.713,0l5.712-5.712
		c1.578-1.577,1.578-4.137,0-5.714l-19.018-19.013v-8.774h48.478c4.461,0,8.08-3.618,8.08-8.081V26.968h4.039
		c2.231,0,4.038-1.808,4.038-4.038v-8.082C147.242,12.617,145.434,10.81,143.203,10.81z M123.005,83.525H26.05V26.968h96.956V83.525
		z"/>
</g>

<g class="icon" id="link">
	<path fill="#FFFFFF" d="M94.594,55.291c16.973,16.991,16.74,44.23,0.102,60.96c-0.031,0.035-0.068,0.071-0.102,0.105
		l-19.089,19.089c-16.838,16.838-44.23,16.835-61.065,0c-16.838-16.834-16.838-44.23,0-61.065l10.54-10.541
		c2.796-2.795,7.61-0.938,7.753,3.013c0.185,5.035,1.088,10.092,2.753,14.977c0.563,1.653,0.161,3.483-1.075,4.719l-3.718,3.717
		c-7.962,7.962-8.211,20.925-0.328,28.965c7.96,8.119,21.045,8.167,29.068,0.145l19.09-19.087c8.008-8.008,7.975-20.952,0-28.927
		c-1.051-1.049-2.11-1.865-2.938-2.434c-1.187-0.815-1.917-2.143-1.974-3.581c-0.113-3.002,0.952-6.096,3.323-8.468l5.981-5.981
		c1.569-1.568,4.029-1.761,5.848-0.492C90.847,51.86,92.797,53.496,94.594,55.291L94.594,55.291z M134.63,15.253
		c-16.834-16.835-44.227-16.838-61.065,0l-19.09,19.089c-0.033,0.034-0.071,0.071-0.102,0.105
		c-16.637,16.73-16.87,43.969,0.102,60.959c1.796,1.796,3.748,3.432,5.831,4.886c1.818,1.269,4.279,1.076,5.847-0.492l5.981-5.981
		c2.372-2.373,3.436-5.465,3.323-8.468c-0.055-1.439-0.786-2.766-1.974-3.581c-0.827-0.57-1.885-1.385-2.937-2.434
		c-7.976-7.975-8.009-20.919,0-28.927l19.089-19.087c8.022-8.022,21.107-7.974,29.068,0.145c7.883,8.04,7.634,21.002-0.328,28.964
		l-3.718,3.718c-1.235,1.235-1.639,3.064-1.074,4.719c1.665,4.884,2.568,9.942,2.752,14.976c0.145,3.952,4.958,5.81,7.753,3.013
		l10.541-10.54C151.468,59.484,151.468,32.088,134.63,15.253z"/>
</g>

<g class="icon" id="baby">
	<path fill="#FFFFFF" d="M74.81,51.448c12.163,0,22.017-9.853,22.017-22.016S86.972,7.416,74.81,7.416
		c-12.167,0-22.019,9.852-22.019,22.016S62.644,51.448,74.81,51.448z M60.114,119.919l7.044-8.805L50.233,97.021l-12.631,15.798
		c-3.137,3.906-3.221,9.466-0.221,13.484l13.212,17.612c2.174,2.889,5.476,4.404,8.807,4.404c2.283,0,4.624-0.715,6.605-2.201
		c4.871-3.631,5.833-10.541,2.201-15.412L60.114,119.919z M99.387,97.021l-16.924,14.092l7.041,8.805l-8.092,10.787
		c-3.629,4.873-2.667,11.78,2.203,15.412c1.98,1.486,4.292,2.201,6.604,2.201c3.359,0,6.662-1.512,8.805-4.404l13.212-17.613
		c2.999-4.019,2.919-9.577-0.219-13.483L99.387,97.021L99.387,97.021z M125.639,47.32c-3.494-4.982-10.346-6.166-15.329-2.697
		l-11.172,7.841c-14.503,10.184-34.181,10.184-48.656,0L39.307,44.65c-4.982-3.494-11.835-2.285-15.329,2.67
		c-3.494,4.982-2.284,11.832,2.67,15.329l11.174,7.841c4.679,3.278,9.742,5.754,14.971,7.679v8.503h22.023h22.013v-8.476
		c5.226-1.927,10.291-4.404,14.971-7.676l11.17-7.845C127.951,59.154,129.134,52.302,125.639,47.32L125.639,47.32z"/>
	<polygon fill="#1F71B8" points="80.798,86.676 96.827,86.676 99.387,97.021 82.461,111.114 67.159,111.114 50.233,97.021 
		52.792,86.676 	"/>
	<path fill="#F07E44" d="M56.753,9.859c5.188,2,7.978,2.584,10.288-2.251c2.308-4.835,10.896-6.672,15.996-3.348
		c5.101,3.323,6.994,6.829,10.088,10.354c3.094,3.524,0.572,0.797-7.583,3.588c-8.158,2.793-11.36-5.547-14.265-1.749
		c-2.903,3.797-15.442,12.618-18.312,10.77C50.096,25.374,51.566,7.857,56.753,9.859z"/>
</g>

<g class="icon" id="home">
	<path fill="#FFFFFF" d="M72.883,48.223l-46.576,38.36v41.402c0,2.232,1.81,4.043,4.042,4.043l28.31-0.074
		c2.224-0.01,4.022-1.818,4.022-4.042v-24.178c0-2.234,1.808-4.043,4.04-4.043H82.89c2.231,0,4.04,1.81,4.04,4.043v24.161
		c-0.005,2.231,1.798,4.046,4.029,4.052c0.007,0,0.011,0,0.016,0l28.298,0.08c2.232,0,4.042-1.811,4.042-4.043V86.555L76.748,48.223
		C75.621,47.312,74.011,47.312,72.883,48.223L72.883,48.223z M146.453,74.296l-21.118-17.409V21.896c0-1.675-1.357-3.03-3.033-3.03
		h-14.146c-1.675,0-3.032,1.355-3.032,3.03v18.342L82.508,21.631c-4.475-3.684-10.933-3.684-15.41,0L3.152,74.296
		c-1.291,1.066-1.472,2.977-0.406,4.268c0,0,0,0.001,0.001,0.001l6.441,7.83c1.064,1.295,2.974,1.48,4.267,0.417
		c0.002-0.001,0.004-0.002,0.005-0.004l59.42-48.941c1.128-0.909,2.738-0.909,3.865,0l59.426,48.941
		c1.289,1.067,3.202,0.888,4.267-0.402c0,0,0-0.003,0.003-0.003l6.444-7.829c1.061-1.294,0.873-3.205-0.418-4.268
		C146.462,74.303,146.458,74.298,146.453,74.296L146.453,74.296z"/>
</g>

<g class="icon" id="passport">
	<path fill="#FFFFFF" d="M47.778,52.773h11.079c0.423-7.661,1.853-14.552,4.028-19.954C55.031,36.572,49.274,43.926,47.778,52.773z
		 M47.778,61.842c1.499,8.847,7.253,16.202,15.107,19.954c-2.177-5.402-3.605-12.295-4.028-19.954H47.778z M74.527,84.143
		c2.178-2.111,5.885-9.755,6.64-22.301H67.883C68.639,74.385,72.346,82.032,74.527,84.143z M67.885,52.773h13.283
		c-0.753-12.544-4.461-20.19-6.64-22.301C72.346,32.584,68.639,40.229,67.885,52.773z M86.169,81.796
		c7.853-3.751,13.609-11.107,15.105-19.954H90.196C89.773,69.502,88.344,76.394,86.169,81.796z M128.939,2.894H29.182
		c-10.019,0-18.139,8.12-18.139,18.139V129.86c0,10.019,8.12,18.139,18.139,18.139h99.757c5.008,0,9.069-4.062,9.069-9.071V11.963
		C138.007,6.956,133.947,2.894,128.939,2.894z M106.267,120.791H42.785c-2.494,0-4.535-2.042-4.535-4.535
		c0-2.494,2.041-4.535,4.535-4.535h63.482c2.494,0,4.533,2.042,4.533,4.535C110.8,118.749,108.76,120.791,106.267,120.791z
		 M74.527,93.583c-20.035,0-36.276-16.242-36.276-36.275c0-20.034,16.243-36.275,36.276-36.275
		c20.032,0,36.273,16.242,36.273,36.275C110.8,77.342,94.559,93.583,74.527,93.583z M86.169,32.819
		c2.175,5.402,3.604,12.294,4.027,19.954h11.079C99.777,43.926,94.021,36.572,86.169,32.819z"/>
</g>

<g class="icon" id="language">
	<g>
		<g>
			<path fill="#FFFFFF" d="M57.743,70.255v34.846l4.925,0.181l-0.638,23.989H51.63l-0.456-14.411H22.987l-0.548,14.411h-10.49
				l-0.365-23.899l4.105-0.273c1.915-2.827,3.467-6.022,4.469-9.304c1.278-4.653,2.007-9.672,2.007-14.597V70.252h35.577V70.255z
				 M34.206,85.579c0,3.74-0.639,7.753-1.642,11.584c-0.639,2.554-1.733,5.291-3.102,7.571h14.78V80.378H34.206V85.579z"/>
		</g>
		<g>
			<path fill="#FFFFFF" d="M137.469,112.958c0,10.2-3.136,18.438-9.407,24.709c-4.481,4.481-10.1,7.443-16.853,8.891
				c-4.343,0.968-10.752,1.448-19.23,1.448H77.815v-68.96h19.024c7.651,0,13.164,0.38,16.542,1.138
				c5.651,1.24,10.546,3.929,14.682,8.065C134.332,94.521,137.469,102.758,137.469,112.958z M122.89,112.544
				c0-6.959-1.964-12.404-5.893-16.333c-2.619-2.621-5.79-4.307-9.512-5.066c-2.137-0.414-5.825-0.621-11.062-0.621h-4.137v45.801
				h6.928C114.997,136.324,122.89,128.398,122.89,112.544z"/>
		</g>
		<g>
			<path fill="#FFFFFF" d="M38.448,18.148c0.365-3.163,0.609-6.383,0.67-9.788V2.886h6.444v4.015c0,3.953-0.242,7.723-0.668,11.248
				h24.384v6.203H46.354c4.377,12.708,12.466,22.497,24.322,29.43l-4.013,5.228c-11.431-7.053-19.519-16.843-24.14-29.368
				c-4.135,13.559-12.282,23.531-24.442,29.917l-4.076-5.351c12.283-5.96,20.066-15.933,23.349-29.857H15.403v-6.204h23.045V18.148z
				"/>
			<path fill="#FFFFFF" d="M81.692,11.887V5.865h42.747v27.06c0,8.147-3.041,12.282-8.999,12.282h-6.021l-1.761-6.019l6.322,0.304
				c2.738,0,4.136-2.858,4.136-8.512V11.887h-15.324v40.009h26.937v6.02H76.95v-6.02h19.7V11.887H81.692z"/>
		</g>
	</g>
</g>

<g class="icon" id="cv">
	<path fill="#FFFFFF" d="M20.289,48.257v18.126h-5.664c-1.871,0-3.399,1.529-3.399,3.399V81.11c0,1.871,1.529,3.399,3.399,3.399
		h5.664v18.126h-5.664c-1.871,0-3.399,1.529-3.399,3.399v11.328c0,1.871,1.529,3.399,3.399,3.399h5.664v13.594
		c0,7.506,6.089,13.595,13.595,13.595h90.63c7.506,0,13.595-6.089,13.595-13.595V16.537c0-7.506-6.089-13.595-13.595-13.595h-90.63
		c-7.506,0-13.595,6.089-13.595,13.595v13.594h-5.664c-1.871,0-3.399,1.529-3.399,3.399v11.328c0,1.87,1.529,3.399,3.399,3.399
		H20.289z M33.883,16.537h90.63v117.819h-90.63V16.537z M97.324,57.32c0-9.998-8.128-18.126-18.126-18.126
		S61.072,47.322,61.072,57.32c0,9.999,8.128,18.126,18.126,18.126S97.324,67.319,97.324,57.32z M110.919,106.261v-5.438
		c0-9.005-8.524-16.312-19.033-16.312c-3.229,0-5.069,2.266-12.688,2.266c-7.392,0-9.629-2.266-12.688-2.266
		c-10.508,0-19.033,7.307-19.033,16.312v5.438c0,3.002,2.832,5.438,6.345,5.438h50.752
		C108.087,111.699,110.919,109.263,110.919,106.261z"/>
</g>

<g class="icon" id="people">
	<path fill="#FFFFFF" d="M45.792,73.428c14.034,0,25.393-11.359,25.393-25.393S59.826,22.643,45.792,22.643S20.4,34.001,20.4,48.035
		S31.759,73.428,45.792,73.428z M63.205,80.683h-1.882c-4.715,2.267-9.953,3.627-15.53,3.627c-5.577,0-10.792-1.36-15.53-3.627
		h-1.881c-14.419,0-26.118,11.699-26.118,26.118v6.529c0,6.008,4.875,10.882,10.882,10.882H78.44
		c6.008,0,10.882-4.875,10.882-10.882v-6.529C89.322,92.381,77.624,80.683,63.205,80.683z M111.087,73.428
		c12.016,0,21.765-9.749,21.765-21.765s-9.749-21.765-21.765-21.765s-21.765,9.749-21.765,21.765S99.071,73.428,111.087,73.428z
		 M121.97,80.683h-0.861c-3.152,1.088-6.484,1.813-10.021,1.813s-6.869-0.726-10.021-1.813h-0.861
		c-4.625,0-8.888,1.337-12.628,3.491c5.532,5.963,9.001,13.875,9.001,22.627v8.706c0,0.499-0.113,0.975-0.136,1.451h40.039
		c6.008,0,10.882-4.875,10.882-10.882C147.362,92.041,136.003,80.683,121.97,80.683z"/>
</g>

<g class="icon" id="people_shield">
	<path fill="#FFFFFF" d="M143.562,78.652L117.363,68.4c-0.932-0.365-2.865-0.843-5.049,0L86.116,78.652
		c-2.434,0.957-4.025,3.189-4.025,5.672c0,25.424,15.624,43.011,30.224,48.729c2.184,0.844,4.094,0.365,5.049,0
		c11.667-4.556,30.224-20.366,30.224-48.729C147.587,81.841,145.995,79.609,143.562,78.652z M114.839,122.232V79.153l21.718,8.498
		C135.284,107.493,122.708,118.497,114.839,122.232L114.839,122.232z M52.98,75.212c16.078,0,29.11-13.054,29.11-29.16
		s-13.032-29.16-29.11-29.16c-16.079,0-29.11,13.054-29.11,29.16S36.901,75.212,52.98,75.212z M74.813,84.324
		c0-0.569,0.182-1.093,0.25-1.64c-0.568-0.023-1.114-0.182-1.706-0.182h-3.798c-5.049,2.324-10.666,3.645-16.579,3.645
		c-5.913,0-11.508-1.321-16.579-3.645h-3.798c-16.874,0-30.565,13.714-30.565,30.618v9.478c0,6.037,4.89,10.935,10.916,10.935
		h80.052c1.546,0,3.024-0.341,4.367-0.911C85.092,122.848,74.813,106.035,74.813,84.324z"/>
</g>

<g class="icon" id="stats">
	<path fill="#FFFFFF" d="M142.525,111.558H20.133V25.43c0-2.503-2.03-4.533-4.533-4.533H6.534C4.028,20.896,2,22.926,2,25.43v95.194
		c0,5.007,4.059,9.066,9.066,9.066h131.458c2.503,0,4.533-2.029,4.533-4.533v-9.066
		C147.058,113.585,145.028,111.558,142.525,111.558z M133.459,29.962h-33.448c-6.059,0-9.092,7.324-4.808,11.608l9.178,9.178
		L83.595,71.539L62.809,50.753c-3.542-3.542-9.283-3.542-12.82,0L30.528,70.214c-1.771,1.771-1.771,4.64,0,6.41l6.408,6.41
		c1.771,1.771,4.641,1.771,6.412,0l13.049-13.053l20.786,20.786c3.542,3.542,9.281,3.542,12.82,0l27.198-27.198l9.181,9.181
		c4.282,4.282,11.607,1.249,11.607-4.808V34.496C137.992,31.99,135.962,29.962,133.459,29.962z"/>
</g>

<g class="icon" id="hiking">
	<path fill="#FFFFFF" d="M42.962,136.207c-1.208,4.851,1.736,9.763,6.583,10.972c0.737,0.188,1.477,0.27,2.206,0.27
		c4.049,0,7.736-2.743,8.768-6.849l7.134-28.545L52.732,97.135L42.962,136.207z M47.174,80.766l11.633-44.979
		c0.619-2.378-0.887-4.791-3.367-5.386c-12.405-2.975-24.978,4.259-28.078,16.16l-7.145,27.74c-0.619,2.38,0.89,4.791,3.37,5.388
		L41.557,84C44.042,84.593,46.555,83.146,47.174,80.766z M124.11,47.944h-4.523c-2.498,0-4.524,2.023-4.524,4.521v4.524h-9.822
		L92.017,43.765c-3.136-3.14-7.31-4.868-11.749-4.868c-7.639,0-14.269,5.173-16.122,12.585l-7.609,30.453
		c-0.772,3.082,0.132,6.342,2.378,8.591l24.488,24.485v23.394c0,4.994,4.051,9.045,9.045,9.045c4.997,0,9.045-4.051,9.045-9.045
		v-23.394c0-4.831-1.881-9.373-5.298-12.792L82.958,88.984c0.042-0.143,0.14-0.252,0.175-0.4l5.623-22.492l6.34,6.34
		c1.699,1.696,4,2.653,6.395,2.653h13.569v67.843c0,2.501,2.023,4.524,4.524,4.524h4.524c2.498,0,4.521-2.023,4.521-4.524V52.466
		C128.632,49.968,126.609,47.944,124.11,47.944z M87.927,29.851c7.494,0,13.566-6.075,13.566-13.569
		c0-7.495-6.073-13.569-13.566-13.569c-7.497,0-13.569,6.075-13.569,13.569C74.358,23.776,80.431,29.851,87.927,29.851z"/>
</g>

<g class="icon" id="idea">
	<path fill="#FFFFFF" d="M52.07,131.36c0.003,1.778,0.529,3.519,1.515,5l4.831,7.262c1.676,2.521,4.503,4.037,7.53,4.037h17.443
		c3.028,0,5.855-1.516,7.532-4.037l4.83-7.262c0.987-1.48,1.514-3.22,1.516-5l0.01-10.842H52.056L52.07,131.36z M24.916,52.677
		c0,12.542,4.65,23.986,12.313,32.728c4.67,5.33,11.975,16.462,14.759,25.851c0.011,0.073,0.02,0.147,0.031,0.221h45.295
		c0.01-0.073,0.02-0.144,0.032-0.221c2.785-9.389,10.089-20.521,14.758-25.851c7.664-8.742,12.313-20.185,12.313-32.728
		c0-27.53-22.357-49.835-49.906-49.751C45.675,3.014,24.916,26.38,24.916,52.677z M74.667,30.063
		c-12.469,0-22.614,10.146-22.614,22.614c0,2.499-2.024,4.523-4.522,4.523c-2.499,0-4.524-2.024-4.524-4.523
		c0-17.458,14.202-31.659,31.66-31.659c2.499,0,4.523,2.024,4.523,4.523C79.19,28.039,77.166,30.063,74.667,30.063z"/>
</g>

<g class="icon" id="back">
	<path display="inline" fill="#FFFFFF" d="M146.818,75.155c0.073,39.926-32.486,72.573-72.412,72.602
		c-17.243,0.012-33.083-6-45.53-16.045c-3.236-2.612-3.479-7.463-0.537-10.404l3.292-3.292c2.516-2.516,6.532-2.791,9.319-0.58
		c9.17,7.276,20.775,11.62,33.404,11.62c29.717,0,53.764-24.05,53.764-53.764c0-29.718-24.05-53.763-53.764-53.763
		c-14.263,0-27.217,5.542-36.836,14.589l14.831,14.83c2.945,2.946,0.859,7.981-3.306,7.981H6.565c-2.582,0-4.675-2.093-4.675-4.675
		V11.777c0-4.165,5.036-6.251,7.981-3.306l14.427,14.427C37.306,10.465,54.939,2.829,74.354,2.829
		C114.33,2.829,146.744,35.198,146.818,75.155z M93.957,98.175l2.87-3.69c2.378-3.057,1.828-7.463-1.229-9.84l-11.893-9.25v-30.49
		c0-3.873-3.14-7.013-7.013-7.013h-4.675c-3.873,0-7.013,3.141-7.013,7.013v39.637l19.112,14.865
		C87.173,101.784,91.579,101.233,93.957,98.175z"/>
</g>

<g class="icon" id="science">
	<path display="inline" fill="#FFFFFF" d="M134.857,116.944l-33.26-53.497V20.594h2.271c3.774,0,6.81-3.036,6.81-6.81V9.243
		c0-3.776-3.036-6.812-6.81-6.812H44.837c-3.774,0-6.812,3.036-6.812,6.812v4.542c0,3.774,3.038,6.81,6.812,6.81h2.271v42.853
		l-33.26,53.497c-8.315,13.367,1.276,30.791,17.056,30.791h86.898C133.608,147.735,143.172,130.282,134.857,116.944z M49.918,93.246
		l13.679-22.021c1.048-1.476,1.646-3.292,1.646-5.223V20.594h18.163v45.407c0,1.958,0.625,3.747,1.646,5.223l13.679,22.021H49.918z"
		/>
</g>

<g class="icon" id="ruler">
	<path display="inline" fill="#FFFFFF" d="M146.159,55.175l-18.024-30.681c-1.992-3.396-6.408-4.551-9.849-2.604l-15.624,8.853
		l13.518,23.028c0.499,0.86,0.204,1.925-0.656,2.422l-3.125,1.767c-0.86,0.498-1.969,0.204-2.468-0.656L96.413,34.298l-12.499,7.087
		l6.317,10.733c0.498,0.86,0.204,1.924-0.657,2.422l-3.125,1.766c-0.86,0.498-1.97,0.204-2.469-0.657L77.665,44.94l-12.499,7.087
		l13.541,23.028c0.498,0.838,0.204,1.924-0.657,2.422l-3.125,1.767c-0.86,0.498-1.97,0.204-2.468-0.657L58.939,55.56L46.44,62.647
		l6.317,10.733c0.498,0.86,0.204,1.924-0.657,2.422l-3.124,1.766c-0.861,0.499-1.971,0.204-2.469-0.657l-6.317-10.755l-12.499,7.087
		L41.21,96.272c0.499,0.837,0.204,1.924-0.657,2.422l-3.125,1.766c-0.861,0.498-1.97,0.204-2.468-0.657L21.443,76.844L5.819,85.697
		c-3.442,1.97-4.642,6.295-2.649,9.692l18.024,30.704c1.992,3.396,6.408,4.551,9.85,2.604l112.489-63.831
		C146.975,62.918,148.152,58.571,146.159,55.175L146.159,55.175z"/>
</g>

<g class="icon" id="list">
	<path display="inline" fill="#FFFFFF" d="M2.506,41.416c0-2.134,1.118-3.304,3.304-3.304h4.319V26.727
		c0-1.474,0.153-2.999,0.153-2.999h-0.103c0,0-0.508,0.762-0.813,1.067c-1.271,1.221-2.999,1.271-4.472-0.305l-1.575-1.778
		c-1.526-1.525-1.423-3.203,0.152-4.676l6.2-5.692c1.27-1.169,2.388-1.626,4.117-1.626h3.456c2.186,0,3.354,1.118,3.354,3.304
		v24.091h4.421c2.186,0,3.304,1.169,3.304,3.303v2.542c0,2.135-1.118,3.304-3.304,3.304H5.811c-2.186,0-3.304-1.169-3.304-3.304
		V41.416L2.506,41.416z M2.206,88.539c0-13.497,14.546-16.097,14.546-19.746c0-2.048-1.7-2.499-2.648-2.499
		c-0.9,0-1.85,0.3-2.699,1.1c-1.45,1.399-3,1.999-4.6,0.7l-2.449-1.95c-1.65-1.3-2.05-2.799-0.8-4.4
		c1.9-2.499,5.449-5.348,11.548-5.348c5.548,0,12.697,2.999,12.697,11.297c0,10.948-13.348,13.248-13.897,16.248h11.147
		c2.15,0,3.3,1.149,3.3,3.249v2.5c0,2.099-1.15,3.249-3.3,3.249H5.655c-1.999,0-3.449-1.149-3.449-3.249V88.539L2.206,88.539z
		 M3.189,131.366l1.6-2.648c1.1-1.9,2.599-2,4.448-0.901c1.4,0.6,2.75,0.901,4.1,0.901c2.9,0,4.1-1,4.1-2.351
		c0-1.899-1.601-2.599-4.55-2.599h-1.35c-1.7,0-2.648-0.6-3.5-2.249l-0.299-0.55c-0.7-1.35-0.35-2.799,0.799-4.25l1.601-1.999
		c1.949-2.4,3.498-3.85,3.498-3.85v-0.1c0,0-1.2,0.3-3.599,0.3h-3.7c-2.149,0-3.25-1.15-3.25-3.25v-2.499
		c0-2.15,1.101-3.25,3.25-3.25h16.696c2.15,0,3.25,1.15,3.25,3.25v0.95c0,1.649-0.4,2.799-1.45,4.049l-4.999,5.749
		c5.599,1.45,8.198,5.849,8.198,9.947c0,6.099-4.098,12.598-13.846,12.598c-4.749,0-8.048-1.351-10.248-2.699
		C2.289,134.716,2.139,133.117,3.189,131.366L3.189,131.366z M42.685,39.267h100.491c2.522,0,4.567-2.045,4.567-4.568V23.279
		c0-2.523-2.045-4.567-4.567-4.567H42.685c-2.523,0-4.568,2.044-4.568,4.567v11.419C38.116,37.221,40.162,39.267,42.685,39.267z
		 M42.685,84.944h100.491c2.522,0,4.567-2.045,4.567-4.568V68.958c0-2.523-2.045-4.568-4.567-4.568H42.685
		c-2.523,0-4.568,2.045-4.568,4.568v11.418C38.116,82.899,40.162,84.944,42.685,84.944z M42.685,130.621h100.491
		c2.522,0,4.567-2.044,4.567-4.567v-11.42c0-2.522-2.045-4.567-4.567-4.567H42.685c-2.523,0-4.568,2.045-4.568,4.567v11.42
		C38.116,128.577,40.162,130.621,42.685,130.621z"/>
</g>

<g class="icon" id="copyright">
	<g display="inline">
		<path fill="#FFFFFF" d="M147.245,75.398c0,20.029-7.072,37.114-21.216,51.258c-14.147,14.146-31.232,21.216-51.258,21.216
			c-20.028,0-37.149-7.07-51.362-21.216C9.194,112.512,2.088,95.427,2.088,75.398c0-20.025,7.105-37.146,21.321-51.361
			C37.623,9.824,54.743,2.714,74.771,2.714c20.025,0,37.11,7.214,51.258,21.637C140.173,38.777,147.245,55.793,147.245,75.398z
			 M128.97,75.398c0-14.983-5.289-27.762-15.86-38.337c-10.576-10.572-23.354-15.86-38.338-15.86
			c-14.987,0-27.801,5.288-38.442,15.86C25.685,47.636,20.364,60.415,20.364,75.398c0,14.987,5.321,27.73,15.965,38.232
			c10.641,10.504,23.456,15.756,38.442,15.756c14.983,0,27.762-5.252,38.338-15.756C123.681,103.128,128.97,90.385,128.97,75.398z
			 M105.022,105.018c-1.402,1.402-4.064,3.013-7.983,4.832c-6.302,2.803-12.886,4.2-19.747,4.2
			c-11.763,0-21.183-3.675-28.253-11.028C41.965,95.669,38.43,86.253,38.43,74.769c0-11.764,3.85-21.46,11.553-29.095
			c7.701-7.632,17.294-11.449,28.779-11.449c10.222,0,18.556,2.872,24.998,8.613l-7.142,10.713
			c-5.324-3.361-10.576-5.042-15.755-5.042c-7.284,0-13.234,2.73-17.856,8.192c-4.063,4.904-6.092,10.576-6.092,17.016
			c0,7.562,1.96,13.654,5.882,18.276c4.06,5.041,9.873,7.562,17.436,7.562c5.042,0,10.993-1.889,17.855-5.672L105.022,105.018z"/>
	</g>
</g>

<g class="icon" id="csm">
	<rect x="2" y="2.626" fill="#FFFFFF" width="78.5" height="38.041"/>
	
		<rect x="72.494" y="73.118" transform="matrix(0.7071 0.7071 -0.7071 0.7071 103.9346 -42.6859)" fill="#FFFFFF" width="62.001" height="62.001"/>
	<g>
		<g>
			<polyline fill="none" stroke="#FFFFFF" stroke-width="2" stroke-miterlimit="10" points="80.5,21.646 103.494,21.646 
				103.494,53.102 			"/>
			<g>
				<polygon fill="#FFFFFF" points="98.508,51.643 103.494,60.277 108.48,51.643 				"/>
			</g>
		</g>
	</g>
	<g>
		<path fill="#FFFFFF" d="M40.692,117.278c-0.974,3.477-3.033,6.102-6.179,7.871c-1.247,0.701-3.177,1.473-5.787,2.317
			c-2.612,0.844-4.096,1.367-4.451,1.566c-1.069,0.602-2.019,2.386-2.85,5.353l-0.176,0.626l-6.746-1.89
			c0.347-1.952,0.604-3.23,0.774-3.834c0.779-2.782,1.999-4.639,3.661-5.575c0.949-0.532,2.568-1.18,4.856-1.94
			c2.286-0.758,3.995-1.457,5.123-2.09c1.899-1.068,3.122-2.577,3.667-4.523c0.532-1.9,0.291-3.632-0.722-5.19
			c-1.014-1.559-2.703-2.67-5.067-3.332c-3.292-0.922-6.962-0.673-11.009,0.744l-1.866-5.922c1.042-0.508,2.75-0.981,5.122-1.417
			c3.824-0.628,7.409-0.476,10.747,0.459c4.266,1.194,7.419,3.328,9.459,6.398C41.288,109.969,41.77,113.429,40.692,117.278z
			 M20.238,144.253c-0.376,1.345-1.174,2.359-2.39,3.044c-1.217,0.684-2.498,0.838-3.842,0.461c-1.345-0.376-2.36-1.174-3.044-2.389
			c-0.685-1.217-0.838-2.498-0.461-3.843c0.376-1.344,1.172-2.358,2.39-3.043c1.216-0.683,2.497-0.839,3.842-0.462
			c1.344,0.376,2.358,1.175,3.043,2.391C20.46,141.628,20.615,142.908,20.238,144.253z"/>
	</g>
	<g>
		<path fill="#FFFFFF" d="M39.89,52.561c1.31,2.598,1.562,5.122,0.755,7.571c-0.396,1.199-1.227,2.824-2.496,4.875
			c-1.268,2.053-1.928,3.156-1.98,3.312c-0.24,0.731,0.129,2.064,1.107,4.005l0.21,0.417l-6.339,3.196
			c-0.559-0.761-1.03-1.524-1.414-2.286c-1.154-2.287-1.472-4.211-0.957-5.775c0.258-0.781,0.927-2.042,2.005-3.781
			c1.078-1.738,1.781-3.103,2.107-4.093c0.446-1.354,0.373-2.621-0.221-3.799c-0.611-1.212-1.551-1.956-2.818-2.229
			c-1.268-0.273-2.699-0.007-4.292,0.796c-2.528,1.275-4.612,3.477-6.25,6.605L14.092,58.4c0.568-1.2,1.371-2.494,2.407-3.886
			c2.039-2.679,4.374-4.683,7.007-6.011c3.429-1.729,6.642-2.229,9.638-1.503C36.139,47.729,38.388,49.582,39.89,52.561z
			 M41.853,78.815c0.594,1.178,0.689,2.401,0.286,3.669s-1.195,2.199-2.372,2.792c-1.179,0.595-2.406,0.682-3.682,0.26
			c-1.277-0.42-2.212-1.22-2.806-2.397c-0.594-1.178-0.677-2.396-0.247-3.655c0.429-1.26,1.232-2.186,2.411-2.781
			c1.177-0.593,2.393-0.685,3.644-0.271C40.336,76.841,41.259,77.637,41.853,78.815z"/>
	</g>
	<g>
		<path fill="#FFFFFF" d="M80.509,61.8c-0.743,2.039-2.161,3.546-4.259,4.522c-0.613,0.285-1.602,0.57-2.966,0.854
			c-1.362,0.283-2.259,0.525-2.693,0.728c-0.615,0.287-1.083,0.748-1.402,1.378c-0.17,0.3-0.562,1.297-1.18,2.989l-2.146-0.78
			c0.315-1.026,0.559-1.775,0.733-2.254c0.375-1.032,0.665-1.707,0.872-2.021c0.288-0.466,0.722-0.833,1.301-1.1
			c0.577-0.271,1.508-0.577,2.787-0.92c1.279-0.346,2.263-0.676,2.949-0.995c1.626-0.757,2.715-1.89,3.265-3.4
			c0.541-1.483,0.499-2.871-0.125-4.164c-0.624-1.291-1.704-2.217-3.239-2.777c-1.827-0.666-3.877-0.722-6.147-0.171l-0.475-2.151
			c0.354-0.232,1.219-0.382,2.593-0.452c1.938-0.131,3.755,0.109,5.451,0.727c2.222,0.811,3.76,2.129,4.611,3.954
			C81.287,57.59,81.31,59.602,80.509,61.8z M66.914,77.497c-0.184,0.503-0.51,0.864-0.979,1.083
			c-0.47,0.218-0.956,0.235-1.458,0.054c-0.504-0.185-0.867-0.512-1.085-0.979c-0.219-0.471-0.235-0.956-0.052-1.461
			c0.182-0.502,0.509-0.862,0.979-1.082c0.469-0.218,0.957-0.237,1.459-0.052c0.503,0.182,0.864,0.51,1.083,0.977
			C67.079,76.508,67.096,76.995,66.914,77.497z"/>
	</g>
</g>

<g class="icon" id="stop">
	<path display="inline" fill="#FFFFFF" d="M44.554,147.997l-42.589-42.59V45.178L44.554,2.589h60.229l42.587,42.589v60.229
		l-42.587,42.59H44.554z M40.014,75.967c-1.167-1.043-3.147-2.164-5.941-3.361c-2.272-0.982-3.715-1.704-4.329-2.165
		c-0.891-0.675-1.335-1.55-1.335-2.625c0-1.167,0.491-2.11,1.474-2.832c0.982-0.721,2.241-1.082,3.776-1.082
		c2.241,0,4.329,0.768,6.263,2.302l2.487-3.408c-0.583-0.583-1.413-1.151-2.487-1.704c-2.026-1.043-4.237-1.565-6.631-1.565
		c-2.978,0-5.404,0.806-7.276,2.417c-1.873,1.612-2.809,3.707-2.809,6.286c0,2.518,0.998,4.605,2.994,6.263
		c0.89,0.737,2.471,1.612,4.743,2.625c2.425,1.074,3.853,1.75,4.283,2.025c1.382,0.922,2.072,2.057,2.072,3.408
		c0,1.381-0.476,2.48-1.427,3.293c-0.952,0.812-2.288,1.221-4.007,1.221c-2.18,0-4.575-0.859-7.184-2.58l-2.395,3.686
		c0.521,0.551,1.474,1.166,2.855,1.842c2.211,1.074,4.543,1.611,7,1.611c3.254,0,5.826-0.875,7.714-2.625s2.832-4.037,2.832-6.861
		C42.685,79.65,41.794,77.596,40.014,75.967z M69.302,60.217h-22.75v4.329h8.704v26.387h5.342V64.546h8.704V60.217z M95.966,63.948
		c-2.671-2.947-6.155-4.421-10.453-4.421c-4.329,0-7.853,1.481-10.569,4.444c-2.717,2.963-4.076,6.809-4.076,11.536
		c0,4.759,1.359,8.628,4.076,11.604c2.717,2.979,6.209,4.467,10.477,4.467c4.298,0,7.798-1.488,10.5-4.467
		c2.701-2.977,4.053-6.891,4.053-11.743C99.973,70.702,98.637,66.895,95.966,63.948z M92.374,83.428
		c-1.597,2.426-3.884,3.639-6.861,3.639c-2.671,0-4.867-1.045-6.586-3.133c-1.72-2.086-2.578-4.85-2.578-8.289
		c0-3.469,0.812-6.286,2.44-8.451c1.627-2.165,3.776-3.247,6.447-3.247c2.731,0,4.957,1.052,6.678,3.154
		c1.719,2.104,2.578,4.829,2.578,8.174C94.492,78.592,93.786,81.309,92.374,83.428z M123.827,62.842
		c-1.105-1.105-2.549-1.842-4.329-2.21c-1.229-0.276-3.086-0.415-5.572-0.415h-8.197v30.716h5.25V79.191h2.303
		c2.671,0,4.574-0.123,5.71-0.369c1.872-0.398,3.454-1.244,4.743-2.533c1.75-1.75,2.625-4.036,2.625-6.861
		C126.359,66.727,125.515,64.531,123.827,62.842z M119.567,73.503c-0.938,0.937-3.078,1.405-6.425,1.405h-2.164v-10.5h2.901
		c2.947,0,4.835,0.415,5.664,1.243c0.951,0.952,1.428,2.242,1.428,3.869C120.972,71.24,120.503,72.567,119.567,73.503z"/>
</g>

<g class="icon" id="diversification">
	<g display="inline">
		<path fill="#FFFFFF" d="M145.079,30.93c-2.098-3.422-0.045-10.255-4.312-12.018"/>
		<path fill="#FFFFFF" d="M126.073,27.501c0,0-2.643,3.328-1.807,9.121"/>
		<path fill="#FFFFFF" d="M117.034,32.155c0,0-1.252,1.935-2.665,4.13"/>
		<path fill="#FFFFFF" d="M116.421,37.196c0,0,4.051,6.802,2.637,11.451l-6.428,0.394c0,0-0.365-0.775,0.455-1.624
			c1.354-1.401-2.412-5.308-2.412-5.308l5.115-8.025L116.421,37.196z"/>
		<path fill="#FFFFFF" d="M139.017,36.405c0.463,1.333,4.051,6.803,2.637,11.452l-6.428,0.393c0,0-0.164-0.876,0.455-1.625
			c1.242-1.5-4.537-7.885-4.537-7.885l7-8.308C138.144,30.432,138.554,35.07,139.017,36.405z"/>
		<path fill="#FFFFFF" d="M114.315,9.799c3.727,0.187,2.682,2.505,11.499,2.174c15.885-0.599,16.718,8.992,15.438,13.552
			c-1.986,7.083-6.32,7.186-7.686,13.279c-1.363,6.095-2.299,9.415-2.299,9.415l-7.223,0.253c0,0-0.337-0.547,0.484-1.642
			c0.82-1.095,1.584-1.001,0.531-6.94c-0.215-1.207-0.648-2.254-0.795-3.27l-0.094,0.014c0,0-2.126,0.784-5.33,0.527
			c-3.207-0.259-4.474-0.877-4.474-0.877c-1.297,2.021-2.728,4.258-3.442,5.415c-1.492,2.421-4.992,7.574-4.992,7.574l-7.36,0.09
			c0,0-0.587-1.128,1.185-2.593c2.167-1.79,5.068-14.06,4.963-17.078C104.722,29.693,110.591,9.61,114.315,9.799z"/>
		<path fill="#FFFFFF" d="M114.315,9.799c3.727,0.187,2.682,2.505,11.499,2.174c15.885-0.599,16.718,8.992,15.438,13.552
			c-1.986,7.083-6.32,7.186-7.686,13.279c-1.363,6.095-2.299,9.415-2.299,9.415l-7.223,0.253c0,0-0.337-0.547,0.484-1.642
			c0.82-1.095,1.584-1.001,0.531-6.94c-0.215-1.207-0.648-2.254-0.795-3.27l-0.094,0.014c0,0-2.126,0.784-5.33,0.527
			c-3.207-0.259-4.474-0.877-4.474-0.877c-1.297,2.021-2.728,4.258-3.442,5.415c-1.492,2.421-4.992,7.574-4.992,7.574l-7.36,0.09
			c0,0-0.587-1.128,1.185-2.593c2.167-1.79,5.068-14.06,4.963-17.078C104.722,29.693,110.591,9.61,114.315,9.799z"/>
		<path fill="#FFFFFF" d="M102.122,23.59c0,0-2.104,4.822-11.816,3.179c-6.275,14.825,3.102,17.518,3.102,17.518l0.074,2.101h-0.006
			c-21.533-6.74-3.27-33.274-3.27-33.274s-0.54-2.034,1.679-4.663c2.922-3.46,8.357-1.608,8.357-1.608s9.62-4.27,11.814-4.225
			c2.194,0.047,3.544,8.138,2.354,15.78c-0.822,5.292-3.912,10.346-12.021,12.297C102.391,30.695,102.987,25.795,102.122,23.59z"/>
		<path fill="#FFFFFF" d="M96.177,10.43c-2.302,0.455-4.923,6.623-5.133,9.518c-0.131,1.818,5.604,3.21,7.718-1.68
			C100.876,13.373,98.477,9.975,96.177,10.43z"/>
		<circle fill="#FFFFFF" cx="95.245" cy="15.775" r="0.724"/>
		<path fill="#FFFFFF" d="M102.277,24.074c0,0-0.815-2.058,0.536-7.541"/>
		<path fill="#FFFFFF" d="M145.05,32.401c0.445,0.944,1.404,1.429,1.404,1.429s0.234-1.048-0.211-1.992
			c-0.446-0.946-0.877-1.68-1.404-1.429C144.312,30.657,144.604,31.457,145.05,32.401z"/>
	</g>
	<path display="inline" fill="#FFFFFF" d="M146.602,106.408l-0.204-0.605c-1.075-2.824-2.354-4.64-3.833-5.448
		c-0.942-0.671-2.554-1.209-4.843-1.612c-1.075-0.136-1.883-0.271-2.42-0.404c-0.134-0.135-0.336-0.269-0.605-0.403
		c-1.883-1.479-6.22-3.263-13.013-5.347c-6.792-2.084-11.6-4.472-14.425-7.161c-11.7-10.492-22.192-22.731-31.474-36.719
		L62.674,59.198l-0.707,0.504c-0.472,0.336-0.807,0.606-1.009,0.807c-0.203,0.202-0.404,0.539-0.605,1.009
		c-0.203,0.471-0.303,1.044-0.303,1.715c0,1.211,0.944,1.546,2.823,1.009l7.467-2.421l20.78,28.851v15.736v3.632
		c0,0.807,0.234,1.716,0.707,2.723c0.469,1.009,1.242,1.849,2.318,2.522l-7.867,32.683h5.246l4.841-15.534l5.044-7.667v7.868v15.333
		h6.052v-25.823c0-0.403,0.068-0.907,0.201-1.514c0.135-0.604,0.639-1.378,1.515-2.319c0.873-0.941,2.085-1.412,3.631-1.412
		s2.723,0.438,3.53,1.311c0.809,0.874,1.277,1.716,1.413,2.522l0.201,1.412v18.359v7.464h4.035v-20.778l11.501,20.778h5.244
		c-0.808-2.287-2.085-4.707-3.834-7.263c-1.747-2.555-2.621-5.244-2.621-8.07v-5.245c0-1.883,1.041-4.538,3.126-7.969
		s3.127-6.019,3.127-7.768v-5.245c0-1.211-0.135-2.354-0.403-3.43c1.077,0.269,1.885,0.539,2.422,0.808
		c0.673,0.402,1.346,1.612,2.017,3.631l0.202,0.604c0.539,1.211,1.445,1.58,2.723,1.11
		C146.771,108.66,147.14,107.752,146.602,106.408z"/>
	<path display="inline" fill="#FFFFFF" d="M41.483,99.11c3.568-6.671,14.425-13.728,14.425-13.728l1.785-3.568l1.241,3.801
		l1.862-3.801l0.388,5.274c2.016,1.86,1.707,4.343,1.707,4.343l1.629,2.714c1.628,3.024,1.318,4.965,1.318,4.965
		c-2.714,2.482-4.653-0.31-4.653-0.31c-1.707-0.775-2.872-2.561-2.872-2.561c-3.258-0.155-3.258,4.5-3.258,4.5l-0.62,13.262
		c0,0-0.276-2.918,0.071-0.311c0.024,0.178,0.054,0.385,0.084,0.621c0.463,3.644-3.414,8.918-3.414,8.918
		c-0.775,3.877-2.636,11.013-2.636,11.013c-0.463,2.637,0.157,7.601,0.157,7.601c1.55,1.011,2.326,3.953,2.326,3.953
		c0.157,1.243-1.629,0.776-1.629,0.776c1.244,0.697-0.077,1.395-0.077,1.395h-3.878c-1.706-0.077-0.618-2.561-0.618-2.561
		c-0.853-1.394,0.31-3.41,0.31-3.41l-0.154-5.585c-1.241-1.316-0.93-7.757-0.93-7.757c-1.785-3.102-0.775-7.678-0.775-7.678
		c-5.353,1.863-13.185,0.233-13.185,0.233c-0.62,3.104-4.575,6.749-4.575,6.749c-2.481,2.635,2.326,6.979,2.326,6.979
		c2.559,0.618,2.946,4.501,2.946,4.501c3.334,3.1-0.775,2.945-0.775,2.945c-4.344,0-3.179-2.094-3.179-2.094
		c-0.234-1.009,1.163-1.63,1.163-1.63c-0.854-0.775-0.621-1.938-0.621-1.938c-1.241-0.391-6.359-5.198-6.359-5.198
		c-2.87-2.018,1.241-5.971,1.241-5.971c1.008-4.033-1.396-3.647-1.396-3.647c-1.318,3.567-7.214,4.809-7.214,4.809
		c-1.164,0.233-2.559,3.411-2.559,3.411c-1.162,9.772-0.485,9.571,1.554,11.711c2.977,3.139-1.706,3.414-1.706,3.414
		c-4.81,0-2.328-3.334-2.328-3.334c0.851-1.243,0.542-1.863,0.542-1.863c-1.704-1.784-0.621-10.392-0.621-10.392
		c-0.853-4.965,2.793-6.05,2.793-6.05c4.188-1.862,3.18-5.196,3.18-5.196c-2.639-5.275-0.622-8.999-0.622-8.999
		c-2.018,1.241-1.395,3.8-1.395,3.8c-3.257,12.099-10.392,9.771-10.392,9.771c4.653-1.55,5.119-10.394,5.119-10.394
		c2.481-10.856,10.083-8.377,10.083-8.377c5.274-2.635,11.013-0.31,11.013-0.31C37.606,105.003,41.483,99.11,41.483,99.11z"/>
	<g display="inline">
		<path fill="#FFFFFF" d="M39.262,46.722c1.392,3.102,1.552,6.062,0.48,8.877c-0.525,1.379-1.581,3.231-3.17,5.559
			c-1.589,2.328-2.418,3.582-2.486,3.762c-0.319,0.839,0.041,2.417,1.08,4.732l0.223,0.496l-7.569,3.396
			c-0.611-0.918-1.12-1.832-1.528-2.743c-1.225-2.729-1.495-4.993-0.811-6.791c0.342-0.898,1.189-2.333,2.539-4.307
			c1.352-1.972,2.243-3.528,2.676-4.667c0.593-1.557,0.574-3.039-0.057-4.445c-0.649-1.448-1.707-2.365-3.171-2.751
			c-1.466-0.386-3.15-0.152-5.052,0.701c-3.02,1.355-5.568,3.815-7.645,7.38l-5.93-3.749c0.727-1.37,1.732-2.839,3.015-4.409
			c2.521-3.02,5.353-5.234,8.497-6.645c4.094-1.837,7.87-2.252,11.329-1.245C35.139,40.884,37.666,43.166,39.262,46.722z
			 M40.165,77.471c0.631,1.406,0.678,2.839,0.14,4.298s-1.511,2.504-2.917,3.135c-1.407,0.631-2.843,0.667-4.312,0.107
			c-1.468-0.558-2.517-1.541-3.148-2.947c-0.63-1.405-0.663-2.832-0.094-4.28c0.567-1.447,1.554-2.486,2.961-3.118
			c1.406-0.63,2.829-0.673,4.267-0.125C38.499,75.088,39.534,76.066,40.165,77.471z"/>
	</g>
	<g display="inline">
		<path fill="#FFFFFF" d="M73.929,24.952c-1.174,2.649-2.959,4.436-5.355,5.359c-1.173,0.452-2.949,0.837-5.329,1.155
			c-2.382,0.317-3.648,0.506-3.801,0.565c-0.714,0.275-1.509,1.402-2.385,3.379l-0.188,0.424l-6.463-2.866
			c0.234-0.91,0.524-1.752,0.869-2.53c1.034-2.332,2.315-3.792,3.844-4.381c0.764-0.295,2.156-0.575,4.177-0.842
			c2.02-0.266,3.513-0.587,4.482-0.961c1.325-0.51,2.254-1.366,2.786-2.567c0.548-1.236,0.528-2.429-0.062-3.578
			c-0.591-1.149-1.697-2.083-3.32-2.804c-2.579-1.143-5.59-1.358-9.033-0.645l-1-5.895c1.283-0.318,2.787-0.518,4.512-0.598
			c3.351-0.121,6.367,0.414,9.051,1.604c3.497,1.55,5.909,3.708,7.24,6.475C75.283,19.013,75.276,21.915,73.929,24.952z
			 M54.946,43.031c-0.533,1.201-1.414,2.046-2.645,2.537c-1.232,0.489-2.448,0.467-3.648-0.065
			c-1.201-0.533-2.042-1.422-2.523-2.672c-0.482-1.249-0.456-2.474,0.076-3.674c0.532-1.2,1.418-2.033,2.661-2.497
			c1.24-0.465,2.461-0.431,3.663,0.102c1.2,0.533,2.036,1.411,2.508,2.634C55.509,40.62,55.478,41.831,54.946,43.031z"/>
	</g>
</g>

<g class="icon" id="serp">
	<rect x="2" y="2.626" display="inline" fill="#FFFFFF" width="47.667" height="28.708"/>
	<g display="inline">
		<g>
			<polyline fill="none" stroke="#FFFFFF" stroke-width="2.0533" stroke-miterlimit="10" points="49.667,16.98 92.607,16.98 
				92.607,31.417 			"/>
			<g>
				<polygon fill="#FFFFFF" points="87.488,29.919 92.607,38.784 97.727,29.919 				"/>
			</g>
		</g>
	</g>
	<path display="inline" fill="#FFFFFF" d="M92.608,147.959L37.881,93.233l54.727-54.726l54.726,54.726L92.608,147.959z
		 M69.183,91.131c-0.884-0.885-2.392-1.785-4.522-2.703c-2.131-0.918-3.321-1.502-3.57-1.752c-0.386-0.385-0.578-0.838-0.578-1.359
		c0-0.703,0.317-1.275,0.952-1.717c0.634-0.442,1.462-0.664,2.482-0.664c1.654,0,3.207,0.567,4.658,1.701l2.176-3.095
		c-0.454-0.453-1.111-0.896-1.972-1.325c-1.564-0.771-3.287-1.156-5.168-1.156c-2.312,0-4.199,0.617-5.661,1.853
		s-2.193,2.862-2.193,4.879c0,1.655,0.601,3.083,1.802,4.284c0.861,0.861,2.289,1.706,4.284,2.533
		c1.994,0.828,3.196,1.445,3.604,1.854c0.408,0.407,0.612,0.93,0.612,1.563c0,0.839-0.329,1.507-0.986,2.006
		c-0.658,0.499-1.542,0.748-2.652,0.748c-1.609,0-3.366-0.612-5.27-1.836l-2.108,3.264c0.385,0.454,1.088,0.919,2.108,1.394
		c1.654,0.816,3.502,1.225,5.542,1.225c2.471,0,4.459-0.668,5.967-2.006c1.507-1.338,2.261-3.082,2.261-5.236
		C70.95,93.794,70.361,92.309,69.183,91.131z M89.072,98.338h-9.248v-5.779h8.434V88.75h-8.434v-5.27h8.977v-3.877H75.064v22.679
		h14.008V98.338z M107.703,96.741c-0.725-1.609-1.213-2.606-1.461-2.992c-0.771-1.156-1.678-1.779-2.721-1.869
		c1.633-0.25,2.891-0.93,3.773-2.041c0.816-1.02,1.225-2.266,1.225-3.74c0-1.789-0.611-3.297-1.836-4.521
		c-0.93-0.93-2.107-1.518-3.535-1.768c-0.771-0.137-2.178-0.205-4.217-0.205h-5.814v22.679h4.727v-8.976h0.543
		c1.09,0,1.814,0.102,2.178,0.306c0.588,0.34,1.178,1.179,1.768,2.517l2.754,6.153h5.1L107.703,96.741z M102.807,88.682
		c-0.611,0.613-1.631,0.918-3.059,0.918h-1.904v-6.221h1.395c1.109,0,1.857,0.033,2.244,0.102c0.633,0.091,1.143,0.328,1.529,0.714
		c0.477,0.476,0.715,1.19,0.715,2.142C103.727,87.289,103.42,88.071,102.807,88.682z M127.559,81.645
		c-0.861-0.861-1.971-1.439-3.332-1.734c-0.996-0.204-2.471-0.307-4.42-0.307h-6.391v22.679h4.725v-8.296h1.77
		c1.768,0,3.115-0.113,4.045-0.34c1.338-0.34,2.482-0.986,3.434-1.938c1.338-1.337,2.006-3.071,2.006-5.202
		C129.395,84.49,128.783,82.869,127.559,81.645z M123.684,89.295c-0.566,0.566-1.859,0.85-3.877,0.85h-1.666v-6.766h1.871
		c1.904,0,3.133,0.277,3.689,0.832c0.555,0.557,0.832,1.389,0.832,2.5C124.533,87.867,124.25,88.729,123.684,89.295z"/>
	<polygon display="inline" fill="#FFFFFF" points="24.44,41.099 34.175,51.233 48.043,48.959 41.413,61.35 47.861,73.836 
		34.028,71.359 24.146,81.35 22.227,67.429 9.671,61.117 22.318,54.99 	"/>
	<polygon display="inline" fill="#FFFFFF" points="54.11,141.434 41.517,136.923 30.662,144.741 31.06,131.37 20.271,123.461 
		33.11,119.708 37.297,107.003 44.835,118.055 58.211,118.112 50.03,128.694 	"/>
	<polygon display="inline" fill="#FFFFFF" points="33.167,103 24.442,105.579 21.619,114.227 16.471,106.726 7.373,106.713 
		12.917,99.5 10.117,90.843 18.691,93.886 26.059,88.548 25.814,97.643 	"/>
	<polygon display="inline" fill="#FFFFFF" points="139.335,48.672 131.397,49.094 127.245,55.872 124.391,48.453 116.661,46.599 
		122.835,41.592 122.21,33.667 128.88,37.992 136.224,34.949 134.172,42.628 	"/>
	<polygon display="inline" fill="#FFFFFF" points="133.732,144.742 127.827,138.843 119.62,140.364 123.405,132.924 
		119.424,125.589 127.668,126.89 133.413,120.835 134.724,129.08 142.258,132.673 134.822,136.467 	"/>
</g>

</svg>
