<?xml version="1.0" encoding="utf-8"?>

<!DOCTYPE svg PUBLIC "-//W3C//DTD SVG 1.1//EN" "http://www.w3.org/Graphics/SVG/1.1/DTD/svg11.dtd">
<svg version="1.1" xmlns="http://www.w3.org/2000/svg" xmlns:xlink="http://www.w3.org/1999/xlink" x="0px" y="0px"
	 width="149.333px" height="149.333px" viewBox="0 0 149.333 149.333" enable-background="new 0 0 149.333 149.333"
	 xml:space="preserve">
     
     <defs>
         <style>
             .icon {
                 display: none;
             }
             
             .icon:target {
                 display: inline;
             }
         </style>
     </defs>
     
     
<g class="icon" id="skype">
	<path fill="#FFFFFF" d="M74.94,118.012c-23.94,0-34.875-12.188-34.875-21.14c0-4.593,3.595-7.752,8.192-7.752
		c10.242,0,7.576,15.366,26.683,15.366c9.779,0,15.507-5.885,15.507-11.405c0-3.321-1.904-7.016-8.343-8.63l-21.286-5.396
		c-17.142-4.357-20.146-13.895-20.146-22.736c0-18.36,16.781-24.999,32.779-24.999c14.727,0,32.237,8.128,32.237,19.146
		c0,4.72-3.958,7.289-8.561,7.289c-8.744,0-7.287-12.297-24.892-12.297c-8.741,0-13.351,4.093-13.351,9.844
		c0,5.735,6.761,7.683,12.753,9.068l15.752,3.553c17.26,3.898,21.876,14.018,21.876,23.653
		C109.266,106.496,97.711,118.012,74.94,118.012 M141.031,86.436c0.667-3.822,1.015-7.752,1.015-11.771
		c0-37.423-30.169-67.765-67.381-67.765c-3.995,0-7.903,0.347-11.704,1.019C57.11,4.544,50.326,2.626,43.097,2.626
		c-22.127,0-40.061,18.043-40.061,40.295c0,7.266,1.909,14.089,5.265,19.977c-0.671,3.82-1.014,7.75-1.014,11.767
		c0,37.425,30.168,67.772,67.378,67.772c3.996,0,7.905-0.352,11.706-1.024c5.853,3.375,12.635,5.295,19.859,5.295
		c22.126,0,40.068-18.041,40.068-40.297C146.298,99.145,144.38,92.323,141.031,86.436"/>
</g>

<g class="icon" id="twitter">
	<path fill="#FFFFFF" d="M47.649,133.824c54.944,0,85-45.523,85-85.002c0-1.291,0-2.579-0.087-3.861
		c5.844-4.228,10.894-9.464,14.904-15.462c-5.453,2.417-11.234,3.999-17.161,4.698c6.239-3.731,10.911-9.602,13.135-16.522
		c-5.864,3.479-12.279,5.932-18.97,7.254C113.16,12.894,94.237,12.317,82.205,23.63c-7.758,7.297-11.052,18.169-8.643,28.543
		c-24.016-1.208-46.395-12.551-61.565-31.212c-7.925,13.648-3.881,31.111,9.251,39.878c-4.755-0.14-9.405-1.423-13.561-3.739
		c0,0.122,0,0.25,0,0.375C7.691,71.7,17.715,83.944,31.656,86.763c-4.399,1.197-9.012,1.373-13.488,0.512
		c3.915,12.169,15.128,20.503,27.912,20.744c-10.58,8.316-23.646,12.826-37.1,12.812c-2.379-0.004-4.753-0.145-7.113-0.431
		c13.66,8.769,29.559,13.418,45.787,13.396"/>
</g>

<g class="icon" id="email">
	<path fill="#FFFFFF" d="M74.813,2.626C34.573,2.626,2,35.191,2,75.438c0,40.239,32.565,72.811,72.812,72.811
		c14.137,0,27.992-4.151,39.754-11.81c3.525-2.294,4.294-7.13,1.63-10.384l-2.987-3.65c-2.252-2.751-6.218-3.425-9.211-1.506
		c-8.659,5.553-18.819,8.561-29.186,8.561c-29.789,0-54.022-24.234-54.022-54.021c0-29.789,24.233-54.022,54.022-54.022
		c29.4,0,54.021,16.916,54.021,46.975c0,11.388-6.192,23.412-17.078,24.572c-5.094-0.133-4.965-3.775-3.957-8.814l6.88-35.559
		c0.841-4.347-2.489-8.384-6.918-8.384H94.555c-2.019,0-3.715,1.516-3.944,3.521l-0.002,0.027
		c-4.314-5.256-11.875-6.393-17.607-6.393c-21.896,0-40.466,18.271-40.466,44.467c0,19.173,10.799,31.083,28.185,31.083
		c7.923,0,16.844-4.591,22.018-11.254c2.795,10.013,11.924,10.013,20.76,10.013c31.975,0,44.127-21.025,44.127-43.279
		C147.624,28.361,115.336,2.626,74.813,2.626z M68.447,92.005c-6.532,0-10.591-4.586-10.591-11.971
		c0-13.209,9.038-21.352,17.214-21.352c6.545,0,10.453,4.475,10.453,11.97C85.523,83.882,75.578,92.005,68.447,92.005L68.447,92.005
		z"/>
</g>

<g class="icon" id="phone">
	<path fill="#FFFFFF" d="M141.907,9.611L112.39,2.799c-3.208-0.738-6.5,0.937-7.805,3.945L90.961,38.533
		c-1.192,2.781-0.397,6.046,1.958,7.947l17.2,14.078c-10.218,21.769-28.07,39.876-50.293,50.292l-14.077-17.2
		c-1.93-2.354-5.166-3.15-7.947-1.958L6.013,105.316c-3.037,1.333-4.711,4.626-3.974,7.833l6.812,29.517
		c0.709,3.065,3.434,5.28,6.641,5.28c72.687,0,131.693-58.894,131.693-131.694C147.186,13.074,145.001,10.321,141.907,9.611z"/>
</g>

<g class="icon" id="book">
	<path fill="#FFFFFF" d="M138.325,104.7V9.431c0-3.771-3.034-6.805-6.805-6.805h-93c-15.028,0-27.22,12.192-27.22,27.22v90.732
		c0,15.028,12.192,27.22,27.22,27.22h93c3.771,0,6.805-3.034,6.805-6.805v-4.536c0-2.127-0.993-4.054-2.523-5.302
		c-1.191-4.367-1.191-16.814,0-21.18C137.333,108.755,138.325,106.827,138.325,104.7L138.325,104.7z M47.593,40.62
		c0-0.935,0.766-1.701,1.701-1.701h60.11c0.936,0,1.702,0.766,1.702,1.701v5.672c0,0.935-0.766,1.701-1.702,1.701h-60.11
		c-0.935,0-1.701-0.766-1.701-1.701V40.62z M47.593,58.766c0-0.935,0.766-1.701,1.701-1.701h60.11c0.936,0,1.702,0.766,1.702,1.701
		v5.671c0,0.936-0.766,1.702-1.702,1.702h-60.11c-0.935,0-1.701-0.766-1.701-1.702V58.766z M119.441,129.651H38.52
		c-5.019,0-9.073-4.054-9.073-9.073c0-4.99,4.083-9.073,9.073-9.073h80.922C118.903,116.354,118.903,124.803,119.441,129.651z"/>
</g>

<g class="icon" id="pen">
	<path fill="#FFFFFF" d="M40.797,42.044c-5.792,1.637-10.398,6.034-12.301,11.745L2,133.272l4.172,4.173l42.634-42.634
		c-0.85-1.777-1.364-3.743-1.364-5.844c0-7.53,6.104-13.634,13.633-13.634c7.529,0,13.633,6.104,13.633,13.634
		c0,7.528-6.104,13.632-13.633,13.632c-2.101,0-4.067-0.515-5.844-1.364l-42.633,42.634l4.172,4.172l79.483-26.495
		c5.71-1.903,10.108-6.509,11.745-12.301l12.152-43L83.796,29.892L40.797,42.044L40.797,42.044z M143.421,23.692L126.35,6.62
		c-5.325-5.325-13.962-5.325-19.287,0L91.001,22.68l36.36,36.36l16.06-16.061C148.747,37.654,148.747,29.02,143.421,23.692
		L143.421,23.692z"/>
</g>

<g class="icon" id="calendar">
	<path fill="#FFFFFF" d="M11.047,134.278c0,7.51,6.093,13.603,13.603,13.603h99.753c7.51,0,13.603-6.093,13.603-13.603V57.197
		H11.047V134.278z M101.731,78.734c0-1.87,1.531-3.401,3.401-3.401h11.335c1.871,0,3.401,1.531,3.401,3.401v11.335
		c0,1.871-1.531,3.401-3.401,3.401h-11.335c-1.87,0-3.401-1.531-3.401-3.401V78.734z M101.731,115.008c0-1.871,1.531-3.4,3.401-3.4
		h11.335c1.871,0,3.401,1.53,3.401,3.4v11.336c0,1.87-1.531,3.4-3.401,3.4h-11.335c-1.87,0-3.401-1.53-3.401-3.4V115.008z
		 M65.458,78.734c0-1.87,1.53-3.401,3.4-3.401h11.336c1.87,0,3.4,1.531,3.4,3.401v11.335c0,1.871-1.53,3.401-3.4,3.401H68.858
		c-1.871,0-3.4-1.531-3.4-3.401V78.734z M65.458,115.008c0-1.871,1.53-3.4,3.4-3.4h11.336c1.87,0,3.4,1.53,3.4,3.4v11.336
		c0,1.87-1.53,3.4-3.4,3.4H68.858c-1.871,0-3.4-1.53-3.4-3.4V115.008z M29.184,78.734c0-1.87,1.531-3.401,3.4-3.401H43.92
		c1.871,0,3.401,1.531,3.401,3.401v11.335c0,1.871-1.53,3.401-3.401,3.401H32.584c-1.87,0-3.4-1.531-3.4-3.401V78.734z
		 M29.184,115.008c0-1.871,1.531-3.4,3.4-3.4H43.92c1.871,0,3.401,1.53,3.401,3.4v11.336c0,1.87-1.53,3.4-3.401,3.4H32.584
		c-1.87,0-3.4-1.53-3.4-3.4V115.008z M124.403,20.923H110.8V7.32c0-2.494-2.041-4.534-4.535-4.534h-9.068
		c-2.494,0-4.534,2.041-4.534,4.534v13.603H56.389V7.32c0-2.494-2.04-4.534-4.534-4.534h-9.068c-2.494,0-4.534,2.041-4.534,4.534
		v13.603H24.65c-7.51,0-13.603,6.093-13.603,13.603v13.603h126.958V34.526C138.005,27.016,131.913,20.923,124.403,20.923z"/>
</g>

<g class="icon" id="fingerprint">
	<path fill="#FFFFFF" d="M74.718,72.59c-3.77,0-6.827,3.055-6.827,6.827c0.324,20.551-2.315,40.364-7.879,60.176
		c-0.777,2.766,0.612,8.673,6.577,8.673c2.981,0,5.72-1.968,6.568-4.984c3.848-13.628,8.829-35.673,8.385-63.865
		C81.544,75.648,78.489,72.59,74.718,72.59L74.718,72.59z M74.473,49.342c-17.425-0.02-29.586,13.389-29.344,28.755
		c0.213,13.637-1.067,27.283-3.804,40.549c-0.765,3.692,1.613,7.308,5.302,8.068c3.712,0.759,7.302-1.61,8.068-5.302
		c2.941-14.249,4.314-28.895,4.087-43.527c-0.117-7.382,5.666-14.931,15.488-14.888c8.906,0.133,16.256,7.208,16.39,15.779
		c0.22,13.668-0.799,27.401-3.018,40.833c-0.618,3.715,1.903,7.231,5.621,7.846c5.681,0.947,7.626-4.295,7.845-5.624
		c2.355-14.231,3.431-28.79,3.206-43.269C104.064,62.688,90.678,49.581,74.473,49.342L74.473,49.342z M42.987,43.715
		c-2.93-2.372-7.216-1.934-9.604,0.99c-7.287,8.96-11.205,20.275-11.022,31.859c0.167,10.689-0.703,21.41-2.592,31.873
		c-0.666,3.712,1.795,7.262,5.507,7.933c5.721,0.996,7.7-4.212,7.934-5.507c2.045-11.333,2.986-22.944,2.804-34.513
		c-0.133-8.5,2.617-16.464,7.965-23.032C46.354,50.395,45.911,46.096,42.987,43.715L42.987,43.715z M74.126,25.986
		c-4.383-0.117-8.782,0.41-13.022,1.414c-3.667,0.871-5.937,4.545-5.072,8.218c0.871,3.667,4.551,5.925,8.218,5.072
		c3.143-0.743,6.392-1.073,9.671-1.05c21.456,0.321,39.177,17.494,39.505,38.282c0.168,10.775-0.364,21.649-1.587,32.323
		c-0.427,3.746,2.261,7.133,6.004,7.56c4.756,0.555,7.256-3.379,7.561-6.005c1.292-11.315,1.853-22.704,1.676-34.091
		C126.636,49.618,102.881,26.413,74.126,25.986L74.126,25.986z M145.828,60.533c-0.814-3.675-4.413-6.031-8.138-5.197
		c-3.682,0.813-6.008,4.454-5.195,8.138c1.34,6.091,1.397,10.641,1.337,17.522c-0.031,3.774,3.001,6.853,6.77,6.883h0.057
		c3.746,0,6.795-3.018,6.827-6.77C147.537,74.8,147.6,68.563,145.828,60.533L145.828,60.533z M134.415,34.727
		C120.562,14.989,97.895,2.994,73.776,2.632c-19.852-0.239-38.213,7.08-51.87,20.742C8.716,36.581,1.607,54.124,1.903,72.786
		l-0.034,6.108c-0.111,3.769,2.853,6.915,6.622,7.023c0.066,0.006,0.137,0.006,0.205,0.006c3.675,0,6.71-2.93,6.818-6.628
		l0.045-6.725c-0.236-14.934,5.451-28.974,16.01-39.539c11.025-11.036,25.982-16.973,42.008-16.743
		c19.755,0.293,38.324,10.115,49.67,26.281c2.165,3.089,6.417,3.826,9.507,1.667C135.838,42.069,136.583,37.811,134.415,34.727
		L134.415,34.727z"/>
</g>

<g class="icon" id="pdf">
	<path fill="#FFFFFF" d="M71.946,75.467c-1.418-4.541-1.39-13.308-0.568-13.308C73.763,62.159,73.536,72.629,71.946,75.467z
		 M71.465,88.86c-2.186,5.731-4.91,12.286-8.059,17.791c5.192-1.986,11.065-4.88,17.847-6.214
		C77.65,97.712,74.188,93.797,71.465,88.86L71.465,88.86z M44.764,124.271c0,0.227,3.746-1.532,9.902-11.407
		C52.766,114.652,46.409,119.816,44.764,124.271z M90.703,48.198h38.59v93.07c0,3.773-3.037,6.81-6.81,6.81h-95.34
		c-3.773,0-6.81-3.037-6.81-6.81V9.608c0-3.773,3.037-6.81,6.81-6.81h56.75v38.59C83.893,45.133,86.957,48.198,90.703,48.198z
		 M88.433,96.946c-5.675-3.461-9.449-8.229-12.116-15.265c1.277-5.25,3.291-13.223,1.759-18.217
		c-1.334-8.342-12.03-7.519-13.562-1.929c-1.419,5.193-0.114,12.513,2.298,21.849c-3.292,7.832-8.144,18.33-11.577,24.345
		c-0.028,0-0.028,0.028-0.057,0.028c-7.69,3.944-20.885,12.627-15.465,19.295c1.589,1.958,4.54,2.838,6.101,2.838
		c5.079,0,10.129-5.108,17.337-17.536c7.32-2.412,15.351-5.419,22.417-6.583c6.157,3.348,13.365,5.532,18.16,5.532
		c8.286,0,8.854-9.08,5.59-12.314C105.373,95.13,93.909,96.237,88.433,96.946z M127.307,32.592L99.498,4.784
		c-1.276-1.276-3.007-1.986-4.823-1.986h-1.703v36.32h36.32v-1.731C129.292,35.599,128.583,33.869,127.307,32.592z M106.28,105.033
		c1.163-0.766-0.709-3.376-12.145-2.554C104.663,106.963,106.28,105.033,106.28,105.033z"/>
</g>

<g class="icon" id="cite">
	<path fill="#FFFFFF" d="M89.182,89.943H60.188c-4.003,0-7.249,3.246-7.249,7.249v28.993c0,4.002,3.246,7.249,7.249,7.249h28.993
		c4.002,0,7.249-3.247,7.249-7.249V97.192C96.43,93.189,93.184,89.943,89.182,89.943z M45.691,24.708
		c0-4.003-3.247-7.249-7.249-7.249H9.45c-4.002,0-7.249,3.246-7.249,7.249v28.993c0,4.002,3.247,7.249,7.249,7.249h21.681
		l16.572,29.002c2.515-4.316,7.14-7.257,12.486-7.257h0.063l-14.56-25.48V46.453H96.43V31.956H45.691V24.708z M139.92,17.459
		h-28.994c-4.002,0-7.248,3.246-7.248,7.249v28.993c0,4.002,3.246,7.249,7.248,7.249h28.994c4.002,0,7.249-3.247,7.249-7.249V24.708
		C147.169,20.705,143.922,17.459,139.92,17.459z"/>
</g>

<g class="icon" id="slides">
	<path fill="#FFFFFF" d="M143.203,10.81H5.852c-2.233,0-4.041,1.808-4.041,4.041v8.082c0,2.231,1.808,4.038,4.041,4.038h4.04v64.636
		c0,4.463,3.618,8.081,8.08,8.081h48.478v8.774l-19.018,19.012c-1.577,1.578-1.577,4.138,0,5.714l5.712,5.712
		c1.579,1.578,4.136,1.578,5.714,0l15.671-15.669l15.669,15.669c1.577,1.578,4.134,1.578,5.713,0l5.712-5.712
		c1.578-1.577,1.578-4.137,0-5.714l-19.018-19.013v-8.774h48.478c4.461,0,8.08-3.618,8.08-8.081V26.968h4.039
		c2.231,0,4.038-1.808,4.038-4.038v-8.082C147.242,12.617,145.434,10.81,143.203,10.81z M123.005,83.525H26.05V26.968h96.956V83.525
		z"/>
</g>

<g class="icon" id="link">
	<path fill="#FFFFFF" d="M94.594,55.291c16.973,16.991,16.74,44.23,0.102,60.96c-0.031,0.035-0.068,0.071-0.102,0.105
		l-19.089,19.089c-16.838,16.838-44.23,16.835-61.065,0c-16.838-16.834-16.838-44.23,0-61.065l10.54-10.541
		c2.796-2.795,7.61-0.938,7.753,3.013c0.185,5.035,1.088,10.092,2.753,14.977c0.563,1.653,0.161,3.483-1.075,4.719l-3.718,3.717
		c-7.962,7.962-8.211,20.925-0.328,28.965c7.96,8.119,21.045,8.167,29.068,0.145l19.09-19.087c8.008-8.008,7.975-20.952,0-28.927
		c-1.051-1.049-2.11-1.865-2.938-2.434c-1.187-0.815-1.917-2.143-1.974-3.581c-0.113-3.002,0.952-6.096,3.323-8.468l5.981-5.981
		c1.569-1.568,4.029-1.761,5.848-0.492C90.847,51.86,92.797,53.496,94.594,55.291L94.594,55.291z M134.63,15.253
		c-16.834-16.835-44.227-16.838-61.065,0l-19.09,19.089c-0.033,0.034-0.071,0.071-0.102,0.105
		c-16.637,16.73-16.87,43.969,0.102,60.959c1.796,1.796,3.748,3.432,5.831,4.886c1.818,1.269,4.279,1.076,5.847-0.492l5.981-5.981
		c2.372-2.373,3.436-5.465,3.323-8.468c-0.055-1.439-0.786-2.766-1.974-3.581c-0.827-0.57-1.885-1.385-2.937-2.434
		c-7.976-7.975-8.009-20.919,0-28.927l19.089-19.087c8.022-8.022,21.107-7.974,29.068,0.145c7.883,8.04,7.634,21.002-0.328,28.964
		l-3.718,3.718c-1.235,1.235-1.639,3.064-1.074,4.719c1.665,4.884,2.568,9.942,2.752,14.976c0.145,3.952,4.958,5.81,7.753,3.013
		l10.541-10.54C151.468,59.484,151.468,32.088,134.63,15.253z"/>
</g>

<g class="icon" id="baby">
	<path fill="#FFFFFF" d="M74.81,51.448c12.163,0,22.017-9.853,22.017-22.016S86.972,7.416,74.81,7.416
		c-12.167,0-22.019,9.852-22.019,22.016S62.644,51.448,74.81,51.448z M60.114,119.919l7.044-8.805L50.233,97.021l-12.631,15.798
		c-3.137,3.906-3.221,9.466-0.221,13.484l13.212,17.612c2.174,2.889,5.476,4.404,8.807,4.404c2.283,0,4.624-0.715,6.605-2.201
		c4.871-3.631,5.833-10.541,2.201-15.412L60.114,119.919z M99.387,97.021l-16.924,14.092l7.041,8.805l-8.092,10.787
		c-3.629,4.873-2.667,11.78,2.203,15.412c1.98,1.486,4.292,2.201,6.604,2.201c3.359,0,6.662-1.512,8.805-4.404l13.212-17.613
		c2.999-4.019,2.919-9.577-0.219-13.483L99.387,97.021L99.387,97.021z M125.639,47.32c-3.494-4.982-10.346-6.166-15.329-2.697
		l-11.172,7.841c-14.503,10.184-34.181,10.184-48.656,0L39.307,44.65c-4.982-3.494-11.835-2.285-15.329,2.67
		c-3.494,4.982-2.284,11.832,2.67,15.329l11.174,7.841c4.679,3.278,9.742,5.754,14.971,7.679v8.503h22.023h22.013v-8.476
		c5.226-1.927,10.291-4.404,14.971-7.676l11.17-7.845C127.951,59.154,129.134,52.302,125.639,47.32L125.639,47.32z"/>
	<polygon fill="#1F71B8" points="80.798,86.676 96.827,86.676 99.387,97.021 82.461,111.114 67.159,111.114 50.233,97.021 
		52.792,86.676 	"/>
	<path fill="#F07E44" d="M56.753,9.859c5.188,2,7.978,2.584,10.288-2.251c2.308-4.835,10.896-6.672,15.996-3.348
		c5.101,3.323,6.994,6.829,10.088,10.354c3.094,3.524,0.572,0.797-7.583,3.588c-8.158,2.793-11.36-5.547-14.265-1.749
		c-2.903,3.797-15.442,12.618-18.312,10.77C50.096,25.374,51.566,7.857,56.753,9.859z"/>
</g>

<g class="icon" id="home">
	<path fill="#FFFFFF" d="M72.883,48.223l-46.576,38.36v41.402c0,2.232,1.81,4.043,4.042,4.043l28.31-0.074
		c2.224-0.01,4.022-1.818,4.022-4.042v-24.178c0-2.234,1.808-4.043,4.04-4.043H82.89c2.231,0,4.04,1.81,4.04,4.043v24.161
		c-0.005,2.231,1.798,4.046,4.029,4.052c0.007,0,0.011,0,0.016,0l28.298,0.08c2.232,0,4.042-1.811,4.042-4.043V86.555L76.748,48.223
		C75.621,47.312,74.011,47.312,72.883,48.223L72.883,48.223z M146.453,74.296l-21.118-17.409V21.896c0-1.675-1.357-3.03-3.033-3.03
		h-14.146c-1.675,0-3.032,1.355-3.032,3.03v18.342L82.508,21.631c-4.475-3.684-10.933-3.684-15.41,0L3.152,74.296
		c-1.291,1.066-1.472,2.977-0.406,4.268c0,0,0,0.001,0.001,0.001l6.441,7.83c1.064,1.295,2.974,1.48,4.267,0.417
		c0.002-0.001,0.004-0.002,0.005-0.004l59.42-48.941c1.128-0.909,2.738-0.909,3.865,0l59.426,48.941
		c1.289,1.067,3.202,0.888,4.267-0.402c0,0,0-0.003,0.003-0.003l6.444-7.829c1.061-1.294,0.873-3.205-0.418-4.268
		C146.462,74.303,146.458,74.298,146.453,74.296L146.453,74.296z"/>
</g>

<g class="icon" id="passport">
	<path fill="#FFFFFF" d="M47.778,52.773h11.079c0.423-7.661,1.853-14.552,4.028-19.954C55.031,36.572,49.274,43.926,47.778,52.773z
		 M47.778,61.842c1.499,8.847,7.253,16.202,15.107,19.954c-2.177-5.402-3.605-12.295-4.028-19.954H47.778z M74.527,84.143
		c2.178-2.111,5.885-9.755,6.64-22.301H67.883C68.639,74.385,72.346,82.032,74.527,84.143z M67.885,52.773h13.283
		c-0.753-12.544-4.461-20.19-6.64-22.301C72.346,32.584,68.639,40.229,67.885,52.773z M86.169,81.796
		c7.853-3.751,13.609-11.107,15.105-19.954H90.196C89.773,69.502,88.344,76.394,86.169,81.796z M128.939,2.894H29.182
		c-10.019,0-18.139,8.12-18.139,18.139V129.86c0,10.019,8.12,18.139,18.139,18.139h99.757c5.008,0,9.069-4.062,9.069-9.071V11.963
		C138.007,6.956,133.947,2.894,128.939,2.894z M106.267,120.791H42.785c-2.494,0-4.535-2.042-4.535-4.535
		c0-2.494,2.041-4.535,4.535-4.535h63.482c2.494,0,4.533,2.042,4.533,4.535C110.8,118.749,108.76,120.791,106.267,120.791z
		 M74.527,93.583c-20.035,0-36.276-16.242-36.276-36.275c0-20.034,16.243-36.275,36.276-36.275
		c20.032,0,36.273,16.242,36.273,36.275C110.8,77.342,94.559,93.583,74.527,93.583z M86.169,32.819
		c2.175,5.402,3.604,12.294,4.027,19.954h11.079C99.777,43.926,94.021,36.572,86.169,32.819z"/>
</g>

<g class="icon" id="language">
	<g>
		<g>
			<path fill="#FFFFFF" d="M57.743,70.255v34.846l4.925,0.181l-0.638,23.989H51.63l-0.456-14.411H22.987l-0.548,14.411h-10.49
				l-0.365-23.899l4.105-0.273c1.915-2.827,3.467-6.022,4.469-9.304c1.278-4.653,2.007-9.672,2.007-14.597V70.252h35.577V70.255z
				 M34.206,85.579c0,3.74-0.639,7.753-1.642,11.584c-0.639,2.554-1.733,5.291-3.102,7.571h14.78V80.378H34.206V85.579z"/>
		</g>
		<g>
			<path fill="#FFFFFF" d="M137.469,112.958c0,10.2-3.136,18.438-9.407,24.709c-4.481,4.481-10.1,7.443-16.853,8.891
				c-4.343,0.968-10.752,1.448-19.23,1.448H77.815v-68.96h19.024c7.651,0,13.164,0.38,16.542,1.138
				c5.651,1.24,10.546,3.929,14.682,8.065C134.332,94.521,137.469,102.758,137.469,112.958z M122.89,112.544
				c0-6.959-1.964-12.404-5.893-16.333c-2.619-2.621-5.79-4.307-9.512-5.066c-2.137-0.414-5.825-0.621-11.062-0.621h-4.137v45.801
				h6.928C114.997,136.324,122.89,128.398,122.89,112.544z"/>
		</g>
		<g>
			<path fill="#FFFFFF" d="M38.448,18.148c0.365-3.163,0.609-6.383,0.67-9.788V2.886h6.444v4.015c0,3.953-0.242,7.723-0.668,11.248
				h24.384v6.203H46.354c4.377,12.708,12.466,22.497,24.322,29.43l-4.013,5.228c-11.431-7.053-19.519-16.843-24.14-29.368
				c-4.135,13.559-12.282,23.531-24.442,29.917l-4.076-5.351c12.283-5.96,20.066-15.933,23.349-29.857H15.403v-6.204h23.045V18.148z
				"/>
			<path fill="#FFFFFF" d="M81.692,11.887V5.865h42.747v27.06c0,8.147-3.041,12.282-8.999,12.282h-6.021l-1.761-6.019l6.322,0.304
				c2.738,0,4.136-2.858,4.136-8.512V11.887h-15.324v40.009h26.937v6.02H76.95v-6.02h19.7V11.887H81.692z"/>
		</g>
	</g>
</g>

<g class="icon" id="cv">
	<path fill="#FFFFFF" d="M20.289,48.257v18.126h-5.664c-1.871,0-3.399,1.529-3.399,3.399V81.11c0,1.871,1.529,3.399,3.399,3.399
		h5.664v18.126h-5.664c-1.871,0-3.399,1.529-3.399,3.399v11.328c0,1.871,1.529,3.399,3.399,3.399h5.664v13.594
		c0,7.506,6.089,13.595,13.595,13.595h90.63c7.506,0,13.595-6.089,13.595-13.595V16.537c0-7.506-6.089-13.595-13.595-13.595h-90.63
		c-7.506,0-13.595,6.089-13.595,13.595v13.594h-5.664c-1.871,0-3.399,1.529-3.399,3.399v11.328c0,1.87,1.529,3.399,3.399,3.399
		H20.289z M33.883,16.537h90.63v117.819h-90.63V16.537z M97.324,57.32c0-9.998-8.128-18.126-18.126-18.126
		S61.072,47.322,61.072,57.32c0,9.999,8.128,18.126,18.126,18.126S97.324,67.319,97.324,57.32z M110.919,106.261v-5.438
		c0-9.005-8.524-16.312-19.033-16.312c-3.229,0-5.069,2.266-12.688,2.266c-7.392,0-9.629-2.266-12.688-2.266
		c-10.508,0-19.033,7.307-19.033,16.312v5.438c0,3.002,2.832,5.438,6.345,5.438h50.752
		C108.087,111.699,110.919,109.263,110.919,106.261z"/>
</g>

</svg>
